<svg width="145" height="21" viewBox="0 0 145 21" fill="none" xmlns="http://www.w3.org/2000/svg">
<path d="M13.9043 15.632C13.7443 15.632 13.5843 15.624 13.4243 15.608C13.2803 15.592 13.1283 15.568 12.9683 15.536C12.5843 15.456 12.1203 15.304 11.5763 15.08C11.0323 14.872 10.4643 14.632 9.87225 14.36C9.29625 14.104 8.73625 13.856 8.19225 13.616C7.66425 13.36 7.21625 13.152 6.84825 12.992C6.36825 12.784 5.84825 12.6 5.28825 12.44C4.74425 12.264 4.22425 12.176 3.72825 12.176C3.21625 12.176 2.76025 12.296 2.36025 12.536C1.97625 12.776 1.71225 13.208 1.56825 13.832C1.45625 14.104 1.29625 14.24 1.08825 14.24C0.88025 14.24 0.77625 14.128 0.77625 13.904C0.77625 13.648 0.82425 13.424 0.92025 13.232C1.01625 13.04 1.11225 12.864 1.20825 12.704C1.51225 12.288 1.89625 11.84 2.36025 11.36C2.84025 10.88 3.33625 10.416 3.84825 9.968C4.37625 9.52 4.85625 9.12 5.28825 8.768C5.73625 8.4 6.07225 8.12 6.29625 7.928C6.76025 7.544 7.33625 7.08 8.02425 6.536C8.72825 5.976 9.48025 5.392 10.2803 4.784C11.0803 4.176 11.8723 3.592 12.6562 3.032C13.4563 2.472 14.1843 1.992 14.8403 1.592C14.2163 1.56 13.5843 1.496 12.9443 1.4C12.3043 1.288 11.8323 1.208 11.5283 1.16C11.0323 1.08 10.4643 0.992 9.82425 0.896C9.20025 0.799999 8.56025 0.751999 7.90425 0.751999C7.44025 0.751999 6.97625 0.791999 6.51225 0.871999C6.06425 0.951999 5.64825 1.088 5.26425 1.28C4.91225 1.456 4.66425 1.68 4.52025 1.952C4.39225 2.208 4.32825 2.488 4.32825 2.792C4.32825 3.208 4.42425 3.632 4.61625 4.064C4.82425 4.496 5.03225 4.848 5.24025 5.12C5.25625 5.136 5.26425 5.16 5.26425 5.192C5.26425 5.256 5.23225 5.312 5.16825 5.36C5.10425 5.392 5.05625 5.376 5.02425 5.312C4.86425 5.072 4.68025 4.784 4.47225 4.448C4.26425 4.112 4.08025 3.752 3.92025 3.368C3.77625 2.984 3.70425 2.616 3.70425 2.264C3.70425 1.976 3.77625 1.704 3.92025 1.448C4.06425 1.192 4.30425 0.975999 4.64025 0.8C5.05625 0.576 5.51225 0.424 6.00825 0.344C6.50425 0.264 7.01625 0.224 7.54425 0.224C8.21625 0.224 8.88025 0.272 9.53625 0.368C10.1923 0.463999 10.7683 0.551999 11.2643 0.631999C11.5203 0.664 11.8803 0.728 12.3443 0.823999C12.8243 0.919999 13.3363 1.016 13.8802 1.112C14.4403 1.192 14.9443 1.24 15.3923 1.256C15.5043 1.192 15.6083 1.136 15.7043 1.088C15.8163 1.04 15.9203 0.992 16.0163 0.943999C16.1443 0.895999 16.2723 0.855999 16.4003 0.823999C16.5283 0.775999 16.6483 0.751999 16.7603 0.751999C16.8723 0.768 16.9923 0.8 17.1203 0.847999C17.2643 0.895999 17.3363 1 17.3363 1.16V1.184C17.3363 1.328 17.2803 1.448 17.1683 1.544C17.0723 1.624 16.9603 1.656 16.8323 1.64L15.9923 1.568H15.7763C14.1923 2.56 12.6003 3.672 11.0003 4.904C9.41625 6.136 7.90425 7.36 6.46425 8.576C6.28825 8.72 6.00025 8.968 5.60025 9.32C5.20025 9.672 4.75225 10.072 4.25625 10.52C3.77625 10.968 3.32025 11.408 2.88825 11.84C3.06425 11.808 3.21625 11.776 3.34425 11.744C3.48825 11.712 3.64025 11.704 3.80025 11.72C4.58425 11.752 5.36825 11.904 6.15225 12.176C6.93625 12.432 7.71225 12.744 8.48025 13.112C9.24825 13.464 10.0083 13.792 10.7603 14.096C11.5123 14.416 12.2403 14.648 12.9443 14.792C13.3763 14.888 13.7923 14.936 14.1923 14.936C14.9443 14.936 15.5683 14.784 16.0643 14.48C16.5763 14.192 16.8323 13.784 16.8323 13.256C16.8323 12.952 16.7203 12.6 16.4963 12.2C16.3683 11.96 16.1123 11.688 15.7283 11.384C15.3443 11.064 14.9683 10.848 14.6003 10.736C14.5523 10.736 14.5283 10.712 14.5283 10.664C14.5283 10.632 14.5443 10.6 14.5763 10.568C14.6243 10.52 14.6723 10.504 14.7203 10.52C15.1363 10.632 15.5443 10.856 15.9443 11.192C16.3443 11.528 16.6163 11.816 16.7603 12.056C17.0163 12.504 17.1443 12.928 17.1443 13.328C17.1443 13.792 16.9923 14.192 16.6883 14.528C16.3843 14.88 15.9843 15.152 15.4883 15.344C15.0083 15.536 14.4803 15.632 13.9043 15.632ZM18.288 14.12C18.176 14.12 18.088 14.056 18.024 13.928C17.96 13.8 17.928 13.648 17.928 13.472C17.928 13.216 17.96 12.936 18.024 12.632C18.104 12.312 18.184 12.024 18.264 11.768C18.344 11.496 18.4 11.312 18.432 11.216C18.656 10.624 18.944 9.952 19.296 9.2C19.648 8.432 20.064 7.688 20.544 6.968C21.04 6.232 21.584 5.6 22.176 5.072C22.768 4.528 23.408 4.176 24.096 4.016C24.176 4 24.248 3.992 24.312 3.992C24.392 3.976 24.464 3.968 24.528 3.968C24.784 3.968 24.992 4.024 25.152 4.136C25.312 4.232 25.416 4.36 25.464 4.52C25.464 4.536 25.464 4.552 25.464 4.568C25.48 4.584 25.488 4.608 25.488 4.64C25.488 4.72 25.464 4.76 25.416 4.76C25.336 4.76 25.288 4.704 25.272 4.592C25.256 4.512 25.184 4.456 25.056 4.424C24.928 4.376 24.784 4.352 24.624 4.352C24.096 4.352 23.56 4.584 23.016 5.048C22.488 5.496 21.968 6.072 21.456 6.776C20.96 7.464 20.504 8.176 20.088 8.912C19.688 9.648 19.36 10.304 19.104 10.88C19.088 10.912 19.04 11.032 18.96 11.24C18.896 11.448 18.824 11.696 18.744 11.984C18.664 12.272 18.6 12.552 18.552 12.824L19.2 11.864C19.568 11.32 20.016 10.776 20.544 10.232C21.072 9.672 21.648 9.216 22.272 8.864C22.336 8.832 22.4 8.808 22.464 8.792C22.544 8.776 22.616 8.768 22.68 8.768C22.824 8.768 22.896 8.816 22.896 8.912C22.896 8.944 22.856 9.024 22.776 9.152C22.44 9.6 22.176 10.072 21.984 10.568C21.792 11.048 21.672 11.576 21.624 12.152C21.608 12.504 21.64 12.832 21.72 13.136C21.816 13.44 22.016 13.592 22.32 13.592C22.656 13.592 22.984 13.448 23.304 13.16C23.64 12.856 23.944 12.512 24.216 12.128C24.504 11.728 24.752 11.376 24.96 11.072C24.992 11.024 25.016 11 25.032 11C25.08 11 25.104 11.048 25.104 11.144C25.104 11.24 25.064 11.352 24.984 11.48C24.728 11.864 24.448 12.248 24.144 12.632C23.856 13.016 23.544 13.336 23.208 13.592C22.872 13.848 22.504 13.976 22.104 13.976C21.704 13.976 21.416 13.824 21.24 13.52C21.064 13.216 20.976 12.848 20.976 12.416C20.976 11.952 21.048 11.456 21.192 10.928C21.352 10.4 21.536 9.96 21.744 9.608C21.328 9.912 20.896 10.296 20.448 10.76C20 11.208 19.616 11.688 19.296 12.2C19.184 12.408 19.024 12.672 18.816 12.992C18.608 13.296 18.488 13.552 18.456 13.76C18.408 14 18.352 14.12 18.288 14.12ZM28.7653 14.168C28.4773 14.168 28.2613 14.072 28.1173 13.88C27.9893 13.688 27.9253 13.44 27.9253 13.136C27.9253 12.928 27.9493 12.72 27.9973 12.512C28.0133 12.48 28.0373 12.408 28.0693 12.296C28.1013 12.168 28.1493 12.024 28.2133 11.864C27.9893 12.216 27.7013 12.608 27.3493 13.04C27.0133 13.456 26.6373 13.768 26.2213 13.976C25.9813 14.088 25.7413 14.144 25.5013 14.144C25.1813 14.144 24.9253 14.024 24.7333 13.784C24.5413 13.528 24.4453 13.176 24.4453 12.728C24.4453 12.36 24.5253 11.968 24.6853 11.552C24.8453 11.12 25.0773 10.68 25.3813 10.232C25.5733 9.944 25.8213 9.664 26.1253 9.392C26.4293 9.12 26.7573 8.896 27.1093 8.72C27.4613 8.544 27.7973 8.456 28.1173 8.456C28.4373 8.456 28.7093 8.544 28.9333 8.72C29.1573 8.896 29.2773 9.16 29.2933 9.512C29.2933 9.56 29.2693 9.6 29.2213 9.632C29.1893 9.648 29.1573 9.624 29.1253 9.56C28.9333 9.128 28.6213 8.912 28.1893 8.912C27.9013 8.912 27.5973 9.048 27.2773 9.32C26.9573 9.576 26.6453 9.904 26.3413 10.304C26.0373 10.704 25.7733 11.104 25.5493 11.504C25.3573 11.856 25.2133 12.176 25.1173 12.464C25.0373 12.752 24.9973 13 24.9973 13.208C24.9973 13.64 25.1653 13.856 25.5013 13.856C25.6773 13.856 25.8693 13.8 26.0773 13.688C26.2693 13.576 26.5013 13.376 26.7733 13.088C27.0613 12.8 27.3413 12.48 27.6133 12.128C27.9013 11.776 28.1573 11.432 28.3813 11.096C28.6213 10.76 28.7973 10.496 28.9093 10.304C29.1493 9.904 29.3973 9.552 29.6533 9.248C29.9093 8.944 30.1653 8.792 30.4213 8.792C30.5493 8.792 30.6133 8.824 30.6133 8.888C30.6133 8.952 30.5813 9.016 30.5173 9.08C30.1973 9.464 29.8933 9.92 29.6053 10.448C29.3333 10.96 29.1013 11.448 28.9093 11.912C28.7333 12.376 28.6293 12.728 28.5973 12.968C28.5493 13.48 28.7013 13.736 29.0533 13.736C29.1013 13.736 29.1493 13.736 29.1973 13.736C29.2453 13.72 29.3013 13.704 29.3653 13.688C29.7013 13.576 30.0293 13.368 30.3493 13.064C30.6693 12.76 30.9653 12.432 31.2373 12.08C31.5093 11.712 31.7333 11.392 31.9093 11.12C31.9573 11.056 31.9973 11.024 32.0293 11.024C32.0773 11.024 32.1013 11.064 32.1013 11.144C32.1013 11.192 32.0773 11.256 32.0293 11.336C31.9173 11.496 31.8133 11.656 31.7173 11.816C31.6213 11.96 31.5253 12.096 31.4293 12.224C31.3973 12.288 31.3573 12.344 31.3093 12.392C31.2613 12.44 31.2133 12.496 31.1653 12.56C30.9573 12.816 30.6853 13.096 30.3493 13.4C30.0293 13.688 29.7093 13.896 29.3893 14.024C29.1493 14.12 28.9413 14.168 28.7653 14.168ZM31.6697 14.096C31.6217 14.096 31.5737 14.064 31.5257 14C31.3977 13.856 31.3337 13.624 31.3337 13.304C31.3337 12.968 31.3897 12.592 31.5017 12.176C31.6297 11.744 31.7737 11.352 31.9337 11C32.0937 10.664 32.2377 10.368 32.3657 10.112C32.5097 9.856 32.6057 9.696 32.6537 9.632C32.8297 9.408 33.0137 9.224 33.2057 9.08C33.3977 8.936 33.5897 8.864 33.7817 8.864C33.8777 8.864 33.9497 8.888 33.9977 8.936C34.0617 8.984 34.0697 9.024 34.0217 9.056C33.8937 9.12 33.7257 9.296 33.5177 9.584C33.3097 9.856 33.0937 10.176 32.8697 10.544C32.7257 10.8 32.5417 11.144 32.3177 11.576C32.0937 12.008 31.9657 12.376 31.9337 12.68C31.9337 12.808 31.9657 12.864 32.0297 12.848L32.6297 11.864C32.9657 11.304 33.4057 10.752 33.9497 10.208C34.4937 9.664 35.0777 9.216 35.7017 8.864C35.7657 8.832 35.8297 8.808 35.8937 8.792C35.9737 8.776 36.0457 8.768 36.1097 8.768C36.2537 8.768 36.3257 8.816 36.3257 8.912C36.3257 8.944 36.2857 9.024 36.2057 9.152C35.8697 9.6 35.6057 10.072 35.4137 10.568C35.2217 11.048 35.1017 11.576 35.0537 12.152C35.0377 12.504 35.0697 12.832 35.1497 13.136C35.2457 13.424 35.4457 13.568 35.7497 13.568C36.1017 13.568 36.4377 13.424 36.7577 13.136C37.0777 12.848 37.3737 12.512 37.6457 12.128C37.9337 11.728 38.1817 11.376 38.3897 11.072C38.4217 11.024 38.4457 11 38.4617 11C38.5097 11 38.5337 11.048 38.5337 11.144C38.5337 11.224 38.5017 11.32 38.4377 11.432C38.1977 11.784 37.9337 12.16 37.6457 12.56C37.3577 12.96 37.0377 13.296 36.6857 13.568C36.3497 13.84 35.9657 13.976 35.5337 13.976C35.1337 13.976 34.8457 13.824 34.6697 13.52C34.4937 13.216 34.4057 12.848 34.4057 12.416C34.4057 11.952 34.4777 11.456 34.6217 10.928C34.7817 10.4 34.9657 9.96 35.1737 9.608C34.7577 9.912 34.3257 10.296 33.8777 10.76C33.4297 11.208 33.0457 11.688 32.7257 12.2C32.6137 12.408 32.4617 12.672 32.2697 12.992C32.0777 13.312 31.9497 13.568 31.8857 13.76C31.8697 13.824 31.8537 13.88 31.8377 13.928C31.8217 13.96 31.8057 13.992 31.7897 14.024C31.7737 14.072 31.7337 14.096 31.6697 14.096ZM38.787 14.264C38.467 14.264 38.211 14.136 38.019 13.88C37.843 13.624 37.755 13.304 37.755 12.92C37.755 12.584 37.835 12.224 37.995 11.84C38.155 11.44 38.363 11.04 38.619 10.64C38.875 10.272 39.243 9.912 39.723 9.56C40.203 9.208 40.667 9.024 41.115 9.008C41.291 9.008 41.451 9.04 41.595 9.104C41.755 9.152 41.875 9.24 41.955 9.368C42.035 8.568 42.179 7.728 42.387 6.848C42.595 5.952 42.859 5.104 43.179 4.304C43.755 2.864 44.491 1.744 45.387 0.943999C45.867 0.511999 46.331 0.295999 46.779 0.295999C47.083 0.295999 47.323 0.415999 47.499 0.655999C47.691 0.879999 47.787 1.224 47.787 1.688C47.787 2.152 47.659 2.752 47.403 3.488C47.163 4.208 46.755 5.064 46.179 6.056C46.019 6.312 45.747 6.712 45.363 7.256C44.995 7.8 44.555 8.408 44.043 9.08C43.547 9.736 43.035 10.384 42.507 11.024C42.491 11.728 42.547 12.36 42.675 12.92C42.803 13.464 43.067 13.736 43.467 13.736C43.515 13.736 43.563 13.736 43.611 13.736C43.659 13.72 43.707 13.704 43.755 13.688C44.091 13.576 44.419 13.368 44.739 13.064C45.059 12.76 45.355 12.424 45.627 12.056C45.899 11.688 46.123 11.368 46.299 11.096C46.363 11.032 46.403 11 46.419 11C46.467 11 46.491 11.04 46.491 11.12C46.491 11.2 46.467 11.28 46.419 11.36C46.099 11.904 45.691 12.44 45.195 12.968C44.699 13.496 44.227 13.848 43.779 14.024C43.603 14.088 43.435 14.12 43.275 14.12C42.827 14.12 42.483 13.888 42.243 13.424C42.019 12.96 41.891 12.416 41.859 11.792C41.379 12.336 40.923 12.824 40.491 13.256C40.059 13.672 39.699 13.952 39.411 14.096C39.187 14.208 38.979 14.264 38.787 14.264ZM42.531 10.448C43.027 9.84 43.499 9.232 43.947 8.624C44.395 8.016 44.787 7.472 45.123 6.992C45.475 6.496 45.723 6.128 45.867 5.888C46.427 4.928 46.827 4.104 47.067 3.416C47.307 2.728 47.427 2.176 47.427 1.76C47.427 1.104 47.211 0.776 46.779 0.776C46.443 0.776 46.075 0.976 45.675 1.376C45.387 1.664 45.067 2.104 44.715 2.696C44.379 3.272 44.075 3.912 43.803 4.616C43.451 5.512 43.155 6.472 42.915 7.496C42.867 7.704 42.795 8.088 42.699 8.648C42.619 9.192 42.563 9.792 42.531 10.448ZM38.691 13.976C38.851 13.976 39.035 13.92 39.243 13.808C39.531 13.664 39.907 13.36 40.371 12.896C40.835 12.416 41.323 11.872 41.835 11.264C41.835 10.784 41.859 10.272 41.907 9.728C41.843 9.664 41.763 9.608 41.667 9.56C41.587 9.512 41.515 9.48 41.451 9.464C41.403 9.448 41.323 9.44 41.211 9.44C40.939 9.456 40.651 9.592 40.347 9.848C40.043 10.088 39.747 10.384 39.459 10.736C39.187 11.088 38.947 11.448 38.739 11.816C38.387 12.456 38.211 12.968 38.211 13.352C38.211 13.768 38.371 13.976 38.691 13.976ZM47.5003 14.096C47.0683 14.096 46.6923 13.992 46.3723 13.784C46.0523 13.56 45.8923 13.168 45.8923 12.608C45.8923 12.256 45.9803 11.872 46.1563 11.456C46.3323 11.024 46.5563 10.608 46.8283 10.208C47.1163 9.792 47.4283 9.448 47.7643 9.176C47.8443 9.112 47.9483 9.08 48.0763 9.08C48.2683 8.888 48.4843 8.744 48.7243 8.648C48.9803 8.552 49.2203 8.504 49.4443 8.504C49.8443 8.504 50.2123 8.632 50.5483 8.888C50.9003 9.144 51.0763 9.552 51.0763 10.112C51.0763 10.432 50.9883 10.816 50.8123 11.264C50.6523 11.68 50.4043 12.112 50.0683 12.56C49.7323 12.992 49.3403 13.36 48.8923 13.664C48.4603 13.952 47.9963 14.096 47.5003 14.096ZM47.4763 13.808C47.8283 13.808 48.1883 13.672 48.5563 13.4C48.9403 13.128 49.2923 12.784 49.6123 12.368C49.9323 11.936 50.1643 11.504 50.3083 11.072C50.4683 10.64 50.5483 10.256 50.5483 9.92C50.5483 9.504 50.4363 9.208 50.2123 9.032C49.9883 8.84 49.7403 8.744 49.4683 8.744C49.0363 8.744 48.6603 8.888 48.3403 9.176C48.5003 9.272 48.5163 9.368 48.3883 9.464C48.1643 9.656 47.9083 9.92 47.6203 10.256C47.3483 10.592 47.1323 10.904 46.9723 11.192C46.8603 11.384 46.7563 11.632 46.6603 11.936C46.5803 12.24 46.5403 12.528 46.5403 12.8C46.5403 13.072 46.6043 13.312 46.7323 13.52C46.8763 13.712 47.1243 13.808 47.4763 13.808ZM53.5328 14.384C53.1968 14.384 52.8928 14.36 52.6208 14.312C52.3648 14.264 52.1728 14.216 52.0448 14.168C51.8688 14.104 51.7328 14.024 51.6368 13.928C51.5568 13.816 51.5168 13.72 51.5168 13.64C51.5168 13.528 51.5728 13.472 51.6848 13.472C51.7648 13.472 51.8608 13.52 51.9728 13.616C52.1968 13.808 52.4128 13.92 52.6208 13.952C52.7968 13.952 53.0288 13.928 53.3168 13.88C53.6048 13.816 53.8048 13.728 53.9168 13.616C54.1088 13.424 54.2048 13.232 54.2048 13.04C54.2048 12.912 54.1648 12.792 54.0848 12.68C54.0208 12.552 53.9248 12.432 53.7968 12.32C53.5888 12.144 53.3808 11.968 53.1728 11.792C52.9648 11.6 52.7888 11.392 52.6448 11.168C52.4208 10.816 52.3088 10.472 52.3088 10.136C52.3088 9.624 52.4768 9.144 52.8128 8.696C53.1648 8.248 53.5408 7.88 53.9408 7.592C54.3728 7.288 54.8128 7.136 55.2608 7.136C55.5008 7.136 55.7248 7.192 55.9328 7.304C56.1408 7.4 56.3008 7.56 56.4128 7.784C56.4288 7.816 56.4368 7.856 56.4368 7.904C56.4368 8 56.4048 8.064 56.3408 8.096C56.2768 8.128 56.2288 8.096 56.1968 8C56.1008 7.744 55.8368 7.616 55.4048 7.616C55.1488 7.616 54.8688 7.664 54.5648 7.76C54.2768 7.856 54.0448 7.968 53.8688 8.096C53.3248 8.512 53.0527 9.048 53.0527 9.704C53.0527 10.168 53.2048 10.584 53.5088 10.952C53.7168 11.208 53.9328 11.448 54.1568 11.672C54.3968 11.88 54.5968 12.088 54.7568 12.296C54.9168 12.488 54.9728 12.68 54.9248 12.872C54.8448 13.224 54.6128 13.512 54.2288 13.736C53.8608 13.944 53.5168 14.064 53.1968 14.096C53.2928 14.112 53.4688 14.12 53.7248 14.12C54.6368 14.12 55.4128 13.816 56.0528 13.208C56.7088 12.6 57.3088 11.88 57.8528 11.048C57.8848 11 57.9168 10.976 57.9488 10.976C57.9808 10.976 57.9968 11.016 57.9968 11.096C57.9968 11.192 57.9568 11.304 57.8768 11.432C57.2688 12.36 56.6368 13.088 55.9808 13.616C55.3408 14.128 54.5248 14.384 53.5328 14.384ZM78.9615 9.104C78.9935 9.184 78.9695 9.248 78.8895 9.296C78.8255 9.328 78.7615 9.304 78.6975 9.224C78.5695 9.048 78.3935 8.904 78.1695 8.792C77.9615 8.68 77.7055 8.624 77.4015 8.624C77.0175 8.624 76.6735 8.728 76.3695 8.936C76.0655 9.144 75.7695 9.416 75.4815 9.752C75.2095 10.072 74.9375 10.432 74.6655 10.832C74.3935 11.232 74.1055 11.624 73.8015 12.008C74.2335 12.408 74.7135 12.72 75.2415 12.944C75.7695 13.168 76.3455 13.28 76.9695 13.28C77.5135 13.28 77.9535 13.072 78.2895 12.656C78.3535 12.576 78.4415 12.544 78.5535 12.56C78.6655 12.576 78.6575 12.672 78.5295 12.848C78.2735 13.2 77.9615 13.48 77.5935 13.688C77.2255 13.896 76.7775 14 76.2495 14C75.6415 14 75.0735 13.888 74.5455 13.664C74.0335 13.44 73.5695 13.128 73.1535 12.728C72.7855 13.096 72.3615 13.4 71.8815 13.64C71.4015 13.88 70.8495 14 70.2255 14C69.3935 14 68.7135 13.76 68.1855 13.28C67.6735 12.8 67.4175 12.184 67.4175 11.432C67.4175 10.952 67.5135 10.536 67.7055 10.184C67.9135 9.832 68.1695 9.52 68.4735 9.248C68.7935 8.976 69.1455 8.728 69.5295 8.504C69.9295 8.264 70.3295 8.024 70.7295 7.784C70.6015 7.096 70.5375 6.472 70.5375 5.912C70.5375 5.464 70.6015 5.04 70.7295 4.64C70.8735 4.24 71.0575 3.888 71.2815 3.584C71.5215 3.28 71.7935 3.04 72.0975 2.864C72.4015 2.688 72.7215 2.6 73.0575 2.6C73.3295 2.6 73.5615 2.728 73.7535 2.984C73.9455 3.24 74.0415 3.528 74.0415 3.848C74.0415 4.312 73.9695 4.736 73.8255 5.12C73.6815 5.488 73.4895 5.824 73.2495 6.128C73.0095 6.416 72.7295 6.688 72.4095 6.944C72.1055 7.184 71.7855 7.408 71.4495 7.616C71.6255 8.416 71.8895 9.184 72.2415 9.92C72.6095 10.656 73.0655 11.288 73.6095 11.816C73.9295 11.416 74.2335 10.984 74.5215 10.52C74.8255 10.056 75.1375 9.624 75.4575 9.224C75.7775 8.824 76.1135 8.496 76.4655 8.24C76.8335 7.984 77.2495 7.856 77.7135 7.856C78.0655 7.856 78.3375 7.984 78.5295 8.24C78.7375 8.48 78.8815 8.768 78.9615 9.104ZM71.1615 5.192C71.1615 5.912 71.2335 6.64 71.3775 7.376C71.9215 7.008 72.3855 6.592 72.7695 6.128C73.1535 5.648 73.3455 5.032 73.3455 4.28C73.3455 3.976 73.2735 3.72 73.1295 3.512C73.0015 3.304 72.8015 3.2 72.5295 3.2C72.0975 3.2 71.7615 3.392 71.5215 3.776C71.2815 4.144 71.1615 4.616 71.1615 5.192ZM68.3535 11.024C68.3535 11.744 68.5855 12.312 69.0495 12.728C69.5135 13.144 70.1615 13.352 70.9935 13.352C71.3775 13.352 71.7295 13.28 72.0495 13.136C72.3695 12.992 72.6655 12.792 72.9375 12.536C72.3775 11.96 71.9215 11.28 71.5695 10.496C71.2175 9.696 70.9535 8.88 70.7775 8.048C70.4575 8.256 70.1535 8.464 69.8655 8.672C69.5775 8.864 69.3215 9.08 69.0975 9.32C68.8735 9.56 68.6895 9.816 68.5455 10.088C68.4175 10.36 68.3535 10.672 68.3535 11.024ZM99.5683 15.632C99.4083 15.632 99.2483 15.624 99.0883 15.608C98.9443 15.592 98.7923 15.568 98.6323 15.536C98.2483 15.456 97.7843 15.304 97.2403 15.08C96.6963 14.872 96.1283 14.632 95.5363 14.36C94.9603 14.104 94.4003 13.856 93.8563 13.616C93.3283 13.36 92.8803 13.152 92.5123 12.992C92.0323 12.784 91.5123 12.6 90.9523 12.44C90.4083 12.264 89.8883 12.176 89.3923 12.176C88.8803 12.176 88.4243 12.296 88.0243 12.536C87.6403 12.776 87.3763 13.208 87.2323 13.832C87.1203 14.104 86.9603 14.24 86.7523 14.24C86.5443 14.24 86.4403 14.128 86.4403 13.904C86.4403 13.648 86.4883 13.424 86.5843 13.232C86.6803 13.04 86.7763 12.864 86.8723 12.704C87.1763 12.288 87.5603 11.84 88.0243 11.36C88.5043 10.88 89.0003 10.416 89.5123 9.968C90.0403 9.52 90.5203 9.12 90.9523 8.768C91.4003 8.4 91.7363 8.12 91.9603 7.928C92.4243 7.544 93.0003 7.08 93.6883 6.536C94.3923 5.976 95.1443 5.392 95.9443 4.784C96.7443 4.176 97.5363 3.592 98.3203 3.032C99.1203 2.472 99.8483 1.992 100.504 1.592C99.8803 1.56 99.2483 1.496 98.6083 1.4C97.9683 1.288 97.4963 1.208 97.1923 1.16C96.6963 1.08 96.1283 0.992 95.4883 0.896C94.8643 0.799999 94.2243 0.751999 93.5683 0.751999C93.1043 0.751999 92.6403 0.791999 92.1763 0.871999C91.7283 0.951999 91.3123 1.088 90.9283 1.28C90.5763 1.456 90.3283 1.68 90.1843 1.952C90.0563 2.208 89.9923 2.488 89.9923 2.792C89.9923 3.208 90.0883 3.632 90.2803 4.064C90.4883 4.496 90.6963 4.848 90.9043 5.12C90.9203 5.136 90.9283 5.16 90.9283 5.192C90.9283 5.256 90.8963 5.312 90.8323 5.36C90.7683 5.392 90.7203 5.376 90.6883 5.312C90.5283 5.072 90.3443 4.784 90.1363 4.448C89.9283 4.112 89.7443 3.752 89.5843 3.368C89.4403 2.984 89.3683 2.616 89.3683 2.264C89.3683 1.976 89.4403 1.704 89.5843 1.448C89.7283 1.192 89.9683 0.975999 90.3043 0.8C90.7203 0.576 91.1763 0.424 91.6723 0.344C92.1683 0.264 92.6803 0.224 93.2083 0.224C93.8803 0.224 94.5443 0.272 95.2003 0.368C95.8563 0.463999 96.4323 0.551999 96.9283 0.631999C97.1843 0.664 97.5443 0.728 98.0083 0.823999C98.4883 0.919999 99.0003 1.016 99.5443 1.112C100.104 1.192 100.608 1.24 101.056 1.256C101.168 1.192 101.272 1.136 101.368 1.088C101.48 1.04 101.584 0.992 101.68 0.943999C101.808 0.895999 101.936 0.855999 102.064 0.823999C102.192 0.775999 102.312 0.751999 102.424 0.751999C102.536 0.768 102.656 0.8 102.784 0.847999C102.928 0.895999 103 1 103 1.16V1.184C103 1.328 102.944 1.448 102.832 1.544C102.736 1.624 102.624 1.656 102.496 1.64L101.656 1.568H101.44C99.8563 2.56 98.2643 3.672 96.6643 4.904C95.0803 6.136 93.5683 7.36 92.1283 8.576C91.9523 8.72 91.6643 8.968 91.2643 9.32C90.8643 9.672 90.4163 10.072 89.9203 10.52C89.4403 10.968 88.9843 11.408 88.5523 11.84C88.7283 11.808 88.8803 11.776 89.0083 11.744C89.1523 11.712 89.3043 11.704 89.4643 11.72C90.2483 11.752 91.0323 11.904 91.8163 12.176C92.6003 12.432 93.3763 12.744 94.1443 13.112C94.9123 13.464 95.6723 13.792 96.4243 14.096C97.1763 14.416 97.9043 14.648 98.6083 14.792C99.0403 14.888 99.4563 14.936 99.8563 14.936C100.608 14.936 101.232 14.784 101.728 14.48C102.24 14.192 102.496 13.784 102.496 13.256C102.496 12.952 102.384 12.6 102.16 12.2C102.032 11.96 101.776 11.688 101.392 11.384C101.008 11.064 100.632 10.848 100.264 10.736C100.216 10.736 100.192 10.712 100.192 10.664C100.192 10.632 100.208 10.6 100.24 10.568C100.288 10.52 100.336 10.504 100.384 10.52C100.8 10.632 101.208 10.856 101.608 11.192C102.008 11.528 102.28 11.816 102.424 12.056C102.68 12.504 102.808 12.928 102.808 13.328C102.808 13.792 102.656 14.192 102.352 14.528C102.048 14.88 101.648 15.152 101.152 15.344C100.672 15.536 100.144 15.632 99.5683 15.632ZM103.952 14.12C103.84 14.12 103.752 14.056 103.688 13.928C103.624 13.8 103.592 13.648 103.592 13.472C103.592 13.216 103.624 12.936 103.688 12.632C103.768 12.312 103.848 12.024 103.928 11.768C104.008 11.496 104.064 11.312 104.096 11.216C104.32 10.624 104.608 9.952 104.96 9.2C105.312 8.432 105.728 7.688 106.208 6.968C106.704 6.232 107.248 5.6 107.84 5.072C108.432 4.528 109.072 4.176 109.76 4.016C109.84 4 109.912 3.992 109.976 3.992C110.056 3.976 110.128 3.968 110.192 3.968C110.448 3.968 110.656 4.024 110.816 4.136C110.976 4.232 111.08 4.36 111.128 4.52C111.128 4.536 111.128 4.552 111.128 4.568C111.144 4.584 111.152 4.608 111.152 4.64C111.152 4.72 111.128 4.76 111.08 4.76C111 4.76 110.952 4.704 110.936 4.592C110.92 4.512 110.848 4.456 110.72 4.424C110.592 4.376 110.448 4.352 110.288 4.352C109.76 4.352 109.224 4.584 108.68 5.048C108.152 5.496 107.632 6.072 107.12 6.776C106.624 7.464 106.168 8.176 105.752 8.912C105.352 9.648 105.024 10.304 104.768 10.88C104.752 10.912 104.704 11.032 104.624 11.24C104.56 11.448 104.488 11.696 104.408 11.984C104.328 12.272 104.264 12.552 104.216 12.824L104.864 11.864C105.232 11.32 105.68 10.776 106.208 10.232C106.736 9.672 107.312 9.216 107.936 8.864C108 8.832 108.064 8.808 108.128 8.792C108.208 8.776 108.28 8.768 108.344 8.768C108.488 8.768 108.56 8.816 108.56 8.912C108.56 8.944 108.52 9.024 108.44 9.152C108.104 9.6 107.84 10.072 107.648 10.568C107.456 11.048 107.336 11.576 107.288 12.152C107.272 12.504 107.304 12.832 107.384 13.136C107.48 13.44 107.68 13.592 107.984 13.592C108.32 13.592 108.648 13.448 108.968 13.16C109.304 12.856 109.608 12.512 109.88 12.128C110.168 11.728 110.416 11.376 110.624 11.072C110.656 11.024 110.68 11 110.696 11C110.744 11 110.768 11.048 110.768 11.144C110.768 11.24 110.728 11.352 110.648 11.48C110.392 11.864 110.112 12.248 109.808 12.632C109.52 13.016 109.208 13.336 108.872 13.592C108.536 13.848 108.168 13.976 107.768 13.976C107.368 13.976 107.08 13.824 106.904 13.52C106.728 13.216 106.64 12.848 106.64 12.416C106.64 11.952 106.712 11.456 106.856 10.928C107.016 10.4 107.2 9.96 107.408 9.608C106.992 9.912 106.56 10.296 106.112 10.76C105.664 11.208 105.28 11.688 104.96 12.2C104.848 12.408 104.688 12.672 104.48 12.992C104.272 13.296 104.152 13.552 104.12 13.76C104.072 14 104.016 14.12 103.952 14.12ZM114.429 14.168C114.141 14.168 113.925 14.072 113.781 13.88C113.653 13.688 113.589 13.44 113.589 13.136C113.589 12.928 113.613 12.72 113.661 12.512C113.677 12.48 113.701 12.408 113.733 12.296C113.765 12.168 113.813 12.024 113.877 11.864C113.653 12.216 113.365 12.608 113.013 13.04C112.677 13.456 112.301 13.768 111.885 13.976C111.645 14.088 111.405 14.144 111.165 14.144C110.845 14.144 110.589 14.024 110.397 13.784C110.205 13.528 110.109 13.176 110.109 12.728C110.109 12.36 110.189 11.968 110.349 11.552C110.509 11.12 110.741 10.68 111.045 10.232C111.237 9.944 111.485 9.664 111.789 9.392C112.093 9.12 112.421 8.896 112.773 8.72C113.125 8.544 113.461 8.456 113.781 8.456C114.101 8.456 114.373 8.544 114.597 8.72C114.821 8.896 114.941 9.16 114.957 9.512C114.957 9.56 114.933 9.6 114.885 9.632C114.853 9.648 114.821 9.624 114.789 9.56C114.597 9.128 114.285 8.912 113.853 8.912C113.565 8.912 113.261 9.048 112.941 9.32C112.621 9.576 112.309 9.904 112.005 10.304C111.701 10.704 111.437 11.104 111.213 11.504C111.021 11.856 110.877 12.176 110.781 12.464C110.701 12.752 110.661 13 110.661 13.208C110.661 13.64 110.829 13.856 111.165 13.856C111.341 13.856 111.533 13.8 111.741 13.688C111.933 13.576 112.165 13.376 112.437 13.088C112.725 12.8 113.005 12.48 113.277 12.128C113.565 11.776 113.821 11.432 114.045 11.096C114.285 10.76 114.461 10.496 114.573 10.304C114.813 9.904 115.061 9.552 115.317 9.248C115.573 8.944 115.829 8.792 116.085 8.792C116.213 8.792 116.277 8.824 116.277 8.888C116.277 8.952 116.245 9.016 116.181 9.08C115.861 9.464 115.557 9.92 115.269 10.448C114.997 10.96 114.765 11.448 114.573 11.912C114.397 12.376 114.293 12.728 114.261 12.968C114.213 13.48 114.365 13.736 114.717 13.736C114.765 13.736 114.813 13.736 114.861 13.736C114.909 13.72 114.965 13.704 115.029 13.688C115.365 13.576 115.693 13.368 116.013 13.064C116.333 12.76 116.629 12.432 116.901 12.08C117.173 11.712 117.397 11.392 117.573 11.12C117.621 11.056 117.661 11.024 117.693 11.024C117.741 11.024 117.765 11.064 117.765 11.144C117.765 11.192 117.741 11.256 117.693 11.336C117.581 11.496 117.477 11.656 117.381 11.816C117.285 11.96 117.189 12.096 117.093 12.224C117.061 12.288 117.021 12.344 116.973 12.392C116.925 12.44 116.877 12.496 116.829 12.56C116.621 12.816 116.349 13.096 116.013 13.4C115.693 13.688 115.373 13.896 115.053 14.024C114.813 14.12 114.605 14.168 114.429 14.168ZM118.006 14.264C117.686 14.264 117.43 14.136 117.238 13.88C117.062 13.624 116.974 13.304 116.974 12.92C116.974 12.584 117.054 12.224 117.214 11.84C117.374 11.44 117.582 11.04 117.838 10.64C118.094 10.272 118.462 9.912 118.942 9.56C119.422 9.208 119.886 9.024 120.334 9.008C120.51 9.008 120.67 9.04 120.814 9.104C120.974 9.152 121.094 9.24 121.174 9.368C121.254 8.568 121.398 7.728 121.606 6.848C121.814 5.952 122.078 5.104 122.398 4.304C122.974 2.864 123.71 1.744 124.606 0.943999C125.086 0.511999 125.55 0.295999 125.998 0.295999C126.302 0.295999 126.542 0.415999 126.718 0.655999C126.91 0.879999 127.006 1.224 127.006 1.688C127.006 2.152 126.878 2.752 126.622 3.488C126.382 4.208 125.974 5.064 125.398 6.056C125.238 6.312 124.966 6.712 124.582 7.256C124.214 7.8 123.774 8.408 123.262 9.08C122.766 9.736 122.254 10.384 121.726 11.024C121.71 11.728 121.766 12.36 121.894 12.92C122.022 13.464 122.286 13.736 122.686 13.736C122.734 13.736 122.782 13.736 122.83 13.736C122.878 13.72 122.926 13.704 122.974 13.688C123.31 13.576 123.638 13.368 123.958 13.064C124.278 12.76 124.574 12.424 124.846 12.056C125.118 11.688 125.342 11.368 125.518 11.096C125.582 11.032 125.622 11 125.638 11C125.686 11 125.71 11.04 125.71 11.12C125.71 11.2 125.686 11.28 125.638 11.36C125.318 11.904 124.91 12.44 124.414 12.968C123.918 13.496 123.446 13.848 122.998 14.024C122.822 14.088 122.654 14.12 122.494 14.12C122.046 14.12 121.702 13.888 121.462 13.424C121.238 12.96 121.11 12.416 121.078 11.792C120.598 12.336 120.142 12.824 119.71 13.256C119.278 13.672 118.918 13.952 118.63 14.096C118.406 14.208 118.198 14.264 118.006 14.264ZM121.75 10.448C122.246 9.84 122.718 9.232 123.166 8.624C123.614 8.016 124.006 7.472 124.342 6.992C124.694 6.496 124.942 6.128 125.086 5.888C125.646 4.928 126.046 4.104 126.286 3.416C126.526 2.728 126.646 2.176 126.646 1.76C126.646 1.104 126.43 0.776 125.998 0.776C125.662 0.776 125.294 0.976 124.894 1.376C124.606 1.664 124.286 2.104 123.934 2.696C123.598 3.272 123.294 3.912 123.022 4.616C122.67 5.512 122.374 6.472 122.134 7.496C122.086 7.704 122.014 8.088 121.918 8.648C121.838 9.192 121.782 9.792 121.75 10.448ZM117.91 13.976C118.07 13.976 118.254 13.92 118.462 13.808C118.75 13.664 119.126 13.36 119.59 12.896C120.054 12.416 120.542 11.872 121.054 11.264C121.054 10.784 121.078 10.272 121.126 9.728C121.062 9.664 120.982 9.608 120.886 9.56C120.806 9.512 120.734 9.48 120.67 9.464C120.622 9.448 120.542 9.44 120.43 9.44C120.158 9.456 119.87 9.592 119.566 9.848C119.262 10.088 118.966 10.384 118.678 10.736C118.406 11.088 118.166 11.448 117.958 11.816C117.606 12.456 117.43 12.968 117.43 13.352C117.43 13.768 117.59 13.976 117.91 13.976ZM124.247 20.768C123.767 20.768 123.439 20.624 123.263 20.336C123.167 20.16 123.119 19.976 123.119 19.784C123.119 19.592 123.167 19.384 123.263 19.16C123.343 18.936 123.447 18.712 123.575 18.488C123.799 18.12 124.063 17.76 124.367 17.408C124.671 17.056 124.967 16.736 125.255 16.448C125.559 16.16 125.807 15.936 125.999 15.776C126.319 15.504 126.711 15.184 127.175 14.816C127.639 14.448 128.111 14.136 128.591 13.88C128.623 13.864 128.655 13.856 128.687 13.856C128.735 13.856 128.759 13.88 128.759 13.928C128.759 14.024 128.719 14.088 128.639 14.12C128.431 14.232 128.167 14.4 127.847 14.624C127.527 14.864 127.207 15.104 126.887 15.344C126.583 15.6 126.327 15.824 126.119 16.016C125.959 16.16 125.735 16.376 125.447 16.664C125.175 16.952 124.903 17.272 124.631 17.624C124.343 17.992 124.103 18.36 123.911 18.728C123.847 18.856 123.775 19.024 123.695 19.232C123.615 19.456 123.575 19.664 123.575 19.856C123.575 20.016 123.623 20.144 123.719 20.24C123.799 20.352 123.951 20.408 124.175 20.408C124.511 20.408 124.855 20.288 125.207 20.048C125.559 19.808 125.903 19.504 126.239 19.136C126.575 18.784 126.871 18.424 127.127 18.056C127.399 17.704 127.607 17.4 127.751 17.144C128.135 16.504 128.479 15.808 128.783 15.056C129.103 14.32 129.351 13.56 129.527 12.776C129.703 11.992 129.759 11.248 129.695 10.544C129.679 10.224 129.607 9.912 129.479 9.608C129.415 10.12 129.223 10.664 128.903 11.24C128.599 11.816 128.287 12.296 127.967 12.68C127.711 12.984 127.439 13.264 127.151 13.52C126.879 13.76 126.607 13.928 126.335 14.024C126.095 14.12 125.887 14.168 125.711 14.168C125.423 14.168 125.215 14.072 125.087 13.88C124.959 13.688 124.895 13.448 124.895 13.16C124.895 12.936 124.919 12.72 124.967 12.512C124.999 12.416 125.079 12.176 125.207 11.792C125.351 11.408 125.535 10.984 125.759 10.52C125.999 10.056 126.255 9.656 126.527 9.32C126.799 8.968 127.079 8.792 127.367 8.792C127.495 8.792 127.559 8.824 127.559 8.888C127.559 8.952 127.527 9.016 127.463 9.08C127.143 9.464 126.839 9.92 126.551 10.448C126.279 10.96 126.047 11.448 125.855 11.912C125.679 12.376 125.575 12.728 125.543 12.968C125.495 13.48 125.647 13.736 125.999 13.736C126.287 13.736 126.583 13.624 126.887 13.4C127.191 13.16 127.487 12.856 127.775 12.488C128.127 12.04 128.415 11.576 128.639 11.096C128.863 10.616 129.023 10.2 129.119 9.848C129.151 9.752 129.183 9.648 129.215 9.536C129.263 9.424 129.287 9.312 129.287 9.2V9.176C129.287 9.064 129.375 9.008 129.551 9.008C129.663 9.008 129.767 9.08 129.863 9.224C130.167 9.72 130.319 10.368 130.319 11.168C130.319 11.856 130.215 12.592 130.007 13.376C129.815 14.16 129.543 14.936 129.191 15.704C128.855 16.488 128.463 17.216 128.015 17.888C127.567 18.576 127.087 19.16 126.575 19.64C126.079 20.12 125.583 20.448 125.087 20.624C124.783 20.72 124.503 20.768 124.247 20.768ZM133.673 14.144C133.401 14.144 133.185 14.056 133.025 13.88C132.881 13.688 132.809 13.464 132.809 13.208C132.809 12.968 132.865 12.736 132.977 12.512C133.153 12.144 133.377 11.784 133.649 11.432C133.937 11.064 134.201 10.744 134.441 10.472C134.601 10.264 134.681 10.088 134.681 9.944C134.681 9.752 134.561 9.56 134.321 9.368C134.129 9.24 133.953 9.072 133.793 8.864C133.681 8.704 133.601 8.544 133.553 8.384C133.297 8.912 132.969 9.528 132.569 10.232C132.185 10.92 131.785 11.536 131.369 12.08C131.305 12.176 131.241 12.224 131.177 12.224C131.129 12.224 131.105 12.192 131.105 12.128C131.105 12.096 131.113 12.064 131.129 12.032C131.145 12 131.193 11.928 131.273 11.816C131.689 11.24 132.025 10.704 132.281 10.208C132.537 9.712 132.761 9.248 132.953 8.816L133.481 7.64C133.497 7.608 133.513 7.568 133.529 7.52C133.561 7.456 133.585 7.416 133.601 7.4C133.633 7.368 133.665 7.352 133.697 7.352C133.761 7.352 133.809 7.384 133.841 7.448C133.873 7.512 133.873 7.592 133.841 7.688C133.809 7.864 133.833 8.04 133.913 8.216C133.993 8.392 134.097 8.552 134.225 8.696C134.353 8.824 134.537 8.944 134.777 9.056C135.017 9.168 135.233 9.296 135.425 9.44C135.617 9.584 135.689 9.768 135.641 9.992C135.577 10.296 135.409 10.592 135.137 10.88C134.865 11.168 134.593 11.472 134.321 11.792C134.129 12 133.953 12.208 133.793 12.416C133.649 12.624 133.537 12.84 133.457 13.064C133.441 13.112 133.425 13.16 133.409 13.208C133.409 13.256 133.409 13.304 133.409 13.352C133.409 13.64 133.561 13.784 133.865 13.784C133.961 13.784 134.081 13.76 134.225 13.712C134.625 13.568 134.993 13.328 135.329 12.992C135.681 12.656 135.977 12.32 136.217 11.984C136.473 11.648 136.641 11.416 136.721 11.288C136.849 11.096 136.929 11 136.961 11C137.009 11 137.033 11.04 137.033 11.12C137.033 11.2 137.009 11.28 136.961 11.36C136.609 11.92 136.209 12.448 135.761 12.944C135.313 13.44 134.833 13.792 134.321 14C134.081 14.096 133.865 14.144 133.673 14.144ZM140.679 14.168C140.391 14.168 140.175 14.072 140.031 13.88C139.903 13.688 139.839 13.44 139.839 13.136C139.839 12.928 139.863 12.72 139.911 12.512C139.927 12.48 139.951 12.408 139.983 12.296C140.015 12.168 140.063 12.024 140.127 11.864C139.903 12.216 139.615 12.608 139.263 13.04C138.927 13.456 138.551 13.768 138.135 13.976C137.895 14.088 137.655 14.144 137.415 14.144C137.095 14.144 136.839 14.024 136.647 13.784C136.455 13.528 136.359 13.176 136.359 12.728C136.359 12.36 136.439 11.968 136.599 11.552C136.759 11.12 136.991 10.68 137.295 10.232C137.487 9.944 137.735 9.664 138.039 9.392C138.343 9.12 138.671 8.896 139.023 8.72C139.375 8.544 139.711 8.456 140.031 8.456C140.351 8.456 140.623 8.544 140.847 8.72C141.071 8.896 141.191 9.16 141.207 9.512C141.207 9.56 141.183 9.6 141.135 9.632C141.103 9.648 141.071 9.624 141.039 9.56C140.847 9.128 140.535 8.912 140.103 8.912C139.815 8.912 139.511 9.048 139.191 9.32C138.871 9.576 138.559 9.904 138.255 10.304C137.951 10.704 137.687 11.104 137.463 11.504C137.271 11.856 137.127 12.176 137.031 12.464C136.951 12.752 136.911 13 136.911 13.208C136.911 13.64 137.079 13.856 137.415 13.856C137.591 13.856 137.783 13.8 137.991 13.688C138.183 13.576 138.415 13.376 138.687 13.088C138.975 12.8 139.255 12.48 139.527 12.128C139.815 11.776 140.071 11.432 140.295 11.096C140.535 10.76 140.711 10.496 140.823 10.304C141.063 9.904 141.311 9.552 141.567 9.248C141.823 8.944 142.079 8.792 142.335 8.792C142.463 8.792 142.527 8.824 142.527 8.888C142.527 8.952 142.495 9.016 142.431 9.08C142.111 9.464 141.807 9.92 141.519 10.448C141.247 10.96 141.015 11.448 140.823 11.912C140.647 12.376 140.543 12.728 140.511 12.968C140.463 13.48 140.615 13.736 140.967 13.736C141.015 13.736 141.063 13.736 141.111 13.736C141.159 13.72 141.215 13.704 141.279 13.688C141.615 13.576 141.943 13.368 142.263 13.064C142.583 12.76 142.879 12.432 143.151 12.08C143.423 11.712 143.647 11.392 143.823 11.12C143.871 11.056 143.911 11.024 143.943 11.024C143.991 11.024 144.015 11.064 144.015 11.144C144.015 11.192 143.991 11.256 143.943 11.336C143.831 11.496 143.727 11.656 143.631 11.816C143.535 11.96 143.439 12.096 143.343 12.224C143.311 12.288 143.271 12.344 143.223 12.392C143.175 12.44 143.127 12.496 143.079 12.56C142.871 12.816 142.599 13.096 142.263 13.4C141.943 13.688 141.623 13.896 141.303 14.024C141.063 14.12 140.855 14.168 140.679 14.168Z" fill="#6A6060"/>
</svg>
