<svg width="154" height="204" viewBox="0 0 154 204" fill="none" xmlns="http://www.w3.org/2000/svg">
<path d="M35.7655 41.352C35.3388 41.352 34.9122 41.3307 34.4855 41.288C34.1015 41.2453 33.6962 41.1813 33.2695 41.096C32.2455 40.8827 31.0082 40.4773 29.5575 39.88C28.1068 39.3253 26.5922 38.6853 25.0135 37.96C23.4775 37.2773 21.9842 36.616 20.5335 35.976C19.1255 35.2933 17.9308 34.7387 16.9495 34.312C15.6695 33.7573 14.2828 33.2667 12.7895 32.84C11.3388 32.3707 9.95217 32.136 8.6295 32.136C7.26417 32.136 6.04817 32.456 4.9815 33.096C3.9575 33.736 3.2535 34.888 2.8695 36.552C2.57083 37.2773 2.14417 37.64 1.5895 37.64C1.03483 37.64 0.7575 37.3413 0.7575 36.744C0.7575 36.0613 0.8855 35.464 1.1415 34.952C1.3975 34.44 1.6535 33.9707 1.9095 33.544C2.72017 32.4347 3.74417 31.24 4.9815 29.96C6.2615 28.68 7.58417 27.4427 8.9495 26.248C10.3575 25.0533 11.6375 23.9867 12.7895 23.048C13.9842 22.0667 14.8802 21.32 15.4775 20.808C16.7148 19.784 18.2508 18.5467 20.0855 17.096C21.9628 15.6027 23.9682 14.0453 26.1015 12.424C28.2348 10.8027 30.3468 9.24533 32.4375 7.752C34.5708 6.25867 36.5122 4.97867 38.2615 3.912C36.5975 3.82666 34.9122 3.656 33.2055 3.4C31.4988 3.10133 30.2402 2.888 29.4295 2.76C28.1068 2.54667 26.5922 2.312 24.8855 2.056C23.2215 1.8 21.5148 1.672 19.7655 1.672C18.5282 1.672 17.2908 1.77866 16.0535 1.992C14.8588 2.20533 13.7495 2.568 12.7255 3.08C11.7868 3.54933 11.1255 4.14666 10.7415 4.872C10.4002 5.55466 10.2295 6.30133 10.2295 7.112C10.2295 8.22133 10.4855 9.352 10.9975 10.504C11.5522 11.656 12.1068 12.5947 12.6615 13.32C12.7042 13.3627 12.7255 13.4267 12.7255 13.512C12.7255 13.6827 12.6402 13.832 12.4695 13.96C12.2988 14.0453 12.1708 14.0027 12.0855 13.832C11.6588 13.192 11.1682 12.424 10.6135 11.528C10.0588 10.632 9.56817 9.672 9.1415 8.648C8.7575 7.624 8.5655 6.64267 8.5655 5.704C8.5655 4.936 8.7575 4.21067 9.1415 3.528C9.5255 2.84533 10.1655 2.26933 11.0615 1.8C12.1708 1.20267 13.3868 0.797333 14.7095 0.584C16.0322 0.370667 17.3975 0.264 18.8055 0.264C20.5975 0.264 22.3682 0.392 24.1175 0.647999C25.8668 0.903998 27.4028 1.13866 28.7255 1.352C29.4082 1.43733 30.3682 1.608 31.6055 1.864C32.8855 2.12 34.2508 2.376 35.7015 2.632C37.1948 2.84533 38.5388 2.97333 39.7335 3.016C40.0322 2.84533 40.3095 2.696 40.5655 2.568C40.8642 2.44 41.1415 2.312 41.3975 2.184C41.7388 2.056 42.0802 1.94933 42.4215 1.864C42.7628 1.736 43.0828 1.672 43.3815 1.672C43.6802 1.71467 44.0002 1.8 44.3415 1.928C44.7255 2.056 44.9175 2.33333 44.9175 2.76V2.824C44.9175 3.208 44.7682 3.528 44.4695 3.784C44.2135 3.99733 43.9148 4.08267 43.5735 4.04L41.3335 3.848H40.7575C36.5335 6.49333 32.2882 9.45867 28.0215 12.744C23.7975 16.0293 19.7655 19.2933 15.9255 22.536C15.4562 22.92 14.6882 23.5813 13.6215 24.52C12.5548 25.4587 11.3602 26.5253 10.0375 27.72C8.7575 28.9147 7.5415 30.088 6.3895 31.24C6.85883 31.1547 7.26417 31.0693 7.6055 30.984C7.9895 30.8987 8.39483 30.8773 8.8215 30.92C10.9122 31.0053 13.0028 31.4107 15.0935 32.136C17.1842 32.8187 19.2535 33.6507 21.3015 34.632C23.3495 35.5707 25.3762 36.4453 27.3815 37.256C29.3868 38.1093 31.3282 38.728 33.2055 39.112C34.3575 39.368 35.4668 39.496 36.5335 39.496C38.5388 39.496 40.2028 39.0907 41.5255 38.28C42.8908 37.512 43.5735 36.424 43.5735 35.016C43.5735 34.2053 43.2748 33.2667 42.6775 32.2C42.3362 31.56 41.6535 30.8347 40.6295 30.024C39.6055 29.1707 38.6028 28.5947 37.6215 28.296C37.4935 28.296 37.4295 28.232 37.4295 28.104C37.4295 28.0187 37.4722 27.9333 37.5575 27.848C37.6855 27.72 37.8135 27.6773 37.9415 27.72C39.0508 28.0187 40.1388 28.616 41.2055 29.512C42.2722 30.408 42.9975 31.176 43.3815 31.816C44.0642 33.0107 44.4055 34.1413 44.4055 35.208C44.4055 36.4453 44.0002 37.512 43.1895 38.408C42.3788 39.3467 41.3122 40.072 39.9895 40.584C38.7095 41.096 37.3015 41.352 35.7655 41.352ZM47.4555 37.32C47.1568 37.32 46.9222 37.1493 46.7515 36.808C46.5808 36.4667 46.4955 36.0613 46.4955 35.592C46.4955 34.9093 46.5808 34.1627 46.7515 33.352C46.9648 32.4987 47.1782 31.7307 47.3915 31.048C47.6048 30.3227 47.7542 29.832 47.8395 29.576C48.4368 27.9973 49.2048 26.2053 50.1435 24.2C51.0822 22.152 52.1915 20.168 53.4715 18.248C54.7942 16.2853 56.2448 14.6 57.8235 13.192C59.4022 11.7413 61.1088 10.8027 62.9435 10.376C63.1568 10.3333 63.3488 10.312 63.5195 10.312C63.7328 10.2693 63.9248 10.248 64.0955 10.248C64.7782 10.248 65.3328 10.3973 65.7595 10.696C66.1862 10.952 66.4635 11.2933 66.5915 11.72C66.5915 11.7627 66.5915 11.8053 66.5915 11.848C66.6342 11.8907 66.6555 11.9547 66.6555 12.04C66.6555 12.2533 66.5915 12.36 66.4635 12.36C66.2502 12.36 66.1222 12.2107 66.0795 11.912C66.0368 11.6987 65.8448 11.5493 65.5035 11.464C65.1622 11.336 64.7782 11.272 64.3515 11.272C62.9435 11.272 61.5142 11.8907 60.0635 13.128C58.6555 14.3227 57.2688 15.8587 55.9035 17.736C54.5808 19.5707 53.3648 21.4693 52.2555 23.432C51.1888 25.3947 50.3142 27.144 49.6315 28.68C49.5888 28.7653 49.4608 29.0853 49.2475 29.64C49.0768 30.1947 48.8848 30.856 48.6715 31.624C48.4582 32.392 48.2875 33.1387 48.1595 33.864L49.8875 31.304C50.8688 29.8533 52.0635 28.4027 53.4715 26.952C54.8795 25.4587 56.4155 24.2427 58.0795 23.304C58.2502 23.2187 58.4208 23.1547 58.5915 23.112C58.8048 23.0693 58.9968 23.048 59.1675 23.048C59.5515 23.048 59.7435 23.176 59.7435 23.432C59.7435 23.5173 59.6368 23.7307 59.4235 24.072C58.5275 25.2667 57.8235 26.5253 57.3115 27.848C56.7995 29.128 56.4795 30.536 56.3515 32.072C56.3088 33.0107 56.3942 33.8853 56.6075 34.696C56.8635 35.5067 57.3968 35.912 58.2075 35.912C59.1035 35.912 59.9782 35.528 60.8315 34.76C61.7275 33.9493 62.5382 33.032 63.2635 32.008C64.0315 30.9413 64.6928 30.0027 65.2475 29.192C65.3328 29.064 65.3968 29 65.4395 29C65.5675 29 65.6315 29.128 65.6315 29.384C65.6315 29.64 65.5248 29.9387 65.3115 30.28C64.6288 31.304 63.8822 32.328 63.0715 33.352C62.3035 34.376 61.4715 35.2293 60.5755 35.912C59.6795 36.5947 58.6982 36.936 57.6315 36.936C56.5648 36.936 55.7968 36.5307 55.3275 35.72C54.8582 34.9093 54.6235 33.928 54.6235 32.776C54.6235 31.5387 54.8155 30.216 55.1995 28.808C55.6262 27.4 56.1168 26.2267 56.6715 25.288C55.5622 26.0987 54.4102 27.1227 53.2155 28.36C52.0208 29.5547 50.9968 30.8347 50.1435 32.2C49.8448 32.7547 49.4182 33.4587 48.8635 34.312C48.3088 35.1227 47.9888 35.8053 47.9035 36.36C47.7755 37 47.6262 37.32 47.4555 37.32ZM75.395 37.448C74.627 37.448 74.051 37.192 73.667 36.68C73.3257 36.168 73.155 35.5067 73.155 34.696C73.155 34.1413 73.219 33.5867 73.347 33.032C73.3897 32.9467 73.4537 32.7547 73.539 32.456C73.6243 32.1147 73.7523 31.7307 73.923 31.304C73.3257 32.2427 72.5577 33.288 71.619 34.44C70.723 35.5493 69.7203 36.3813 68.611 36.936C67.971 37.2347 67.331 37.384 66.691 37.384C65.8377 37.384 65.155 37.064 64.643 36.424C64.131 35.7413 63.875 34.8027 63.875 33.608C63.875 32.6267 64.0883 31.5813 64.515 30.472C64.9417 29.32 65.5603 28.1467 66.371 26.952C66.883 26.184 67.5443 25.4373 68.355 24.712C69.1657 23.9867 70.0403 23.3893 70.979 22.92C71.9177 22.4507 72.8137 22.216 73.667 22.216C74.5203 22.216 75.2457 22.4507 75.843 22.92C76.4403 23.3893 76.7603 24.0933 76.803 25.032C76.803 25.16 76.739 25.2667 76.611 25.352C76.5257 25.3947 76.4403 25.3307 76.355 25.16C75.843 24.008 75.011 23.432 73.859 23.432C73.091 23.432 72.2803 23.7947 71.427 24.52C70.5737 25.2027 69.7417 26.0773 68.931 27.144C68.1203 28.2107 67.4163 29.2773 66.819 30.344C66.307 31.2827 65.923 32.136 65.667 32.904C65.4537 33.672 65.347 34.3333 65.347 34.888C65.347 36.04 65.795 36.616 66.691 36.616C67.1603 36.616 67.6723 36.4667 68.227 36.168C68.739 35.8693 69.3577 35.336 70.083 34.568C70.851 33.8 71.5977 32.9467 72.323 32.008C73.091 31.0693 73.7737 30.152 74.371 29.256C75.011 28.36 75.4803 27.656 75.779 27.144C76.419 26.0773 77.0803 25.1387 77.763 24.328C78.4457 23.5173 79.1283 23.112 79.811 23.112C80.1523 23.112 80.323 23.1973 80.323 23.368C80.323 23.5387 80.2377 23.7093 80.067 23.88C79.2137 24.904 78.403 26.12 77.635 27.528C76.9097 28.8933 76.291 30.1947 75.779 31.432C75.3097 32.6693 75.0323 33.608 74.947 34.248C74.819 35.6133 75.2243 36.296 76.163 36.296C76.291 36.296 76.419 36.296 76.547 36.296C76.675 36.2533 76.8243 36.2107 76.995 36.168C77.891 35.8693 78.7657 35.3147 79.619 34.504C80.4723 33.6933 81.2617 32.8187 81.987 31.88C82.7123 30.8987 83.3097 30.0453 83.779 29.32C83.907 29.1493 84.0137 29.064 84.099 29.064C84.227 29.064 84.291 29.1707 84.291 29.384C84.291 29.512 84.227 29.6827 84.099 29.896C83.8003 30.3227 83.523 30.7493 83.267 31.176C83.011 31.56 82.755 31.9227 82.499 32.264C82.4137 32.4347 82.307 32.584 82.179 32.712C82.051 32.84 81.923 32.9893 81.795 33.16C81.2403 33.8427 80.515 34.5893 79.619 35.4C78.7657 36.168 77.9123 36.7227 77.059 37.064C76.419 37.32 75.8643 37.448 75.395 37.448ZM83.14 37.256C83.012 37.256 82.884 37.1707 82.756 37C82.4147 36.616 82.244 35.9973 82.244 35.144C82.244 34.248 82.3933 33.2453 82.692 32.136C83.0333 30.984 83.4173 29.9387 83.844 29C84.2707 28.104 84.6547 27.3147 84.996 26.632C85.38 25.9493 85.636 25.5227 85.764 25.352C86.2333 24.7547 86.724 24.264 87.236 23.88C87.748 23.496 88.26 23.304 88.772 23.304C89.028 23.304 89.22 23.368 89.348 23.496C89.5187 23.624 89.54 23.7307 89.412 23.816C89.0707 23.9867 88.6227 24.456 88.068 25.224C87.5133 25.9493 86.9373 26.8027 86.34 27.784C85.956 28.4667 85.4653 29.384 84.868 30.536C84.2707 31.688 83.9293 32.6693 83.844 33.48C83.844 33.8213 83.9293 33.9707 84.1 33.928L85.7 31.304C86.596 29.8107 87.7693 28.3387 89.22 26.888C90.6707 25.4373 92.228 24.2427 93.892 23.304C94.0627 23.2187 94.2333 23.1547 94.404 23.112C94.6173 23.0693 94.8093 23.048 94.98 23.048C95.364 23.048 95.556 23.176 95.556 23.432C95.556 23.5173 95.4493 23.7307 95.236 24.072C94.34 25.2667 93.636 26.5253 93.124 27.848C92.612 29.128 92.292 30.536 92.164 32.072C92.1213 33.0107 92.2067 33.8853 92.42 34.696C92.676 35.464 93.2093 35.848 94.02 35.848C94.9587 35.848 95.8547 35.464 96.708 34.696C97.5613 33.928 98.3507 33.032 99.076 32.008C99.844 30.9413 100.505 30.0027 101.06 29.192C101.145 29.064 101.209 29 101.252 29C101.38 29 101.444 29.128 101.444 29.384C101.444 29.5973 101.359 29.8533 101.188 30.152C100.548 31.0907 99.844 32.0933 99.076 33.16C98.308 34.2267 97.4547 35.1227 96.516 35.848C95.62 36.5733 94.596 36.936 93.444 36.936C92.3773 36.936 91.6093 36.5307 91.14 35.72C90.6707 34.9093 90.436 33.928 90.436 32.776C90.436 31.5387 90.628 30.216 91.012 28.808C91.4387 27.4 91.9293 26.2267 92.484 25.288C91.3747 26.0987 90.2227 27.1227 89.028 28.36C87.8333 29.5547 86.8093 30.8347 85.956 32.2C85.6573 32.7547 85.252 33.4587 84.74 34.312C84.228 35.1653 83.8867 35.848 83.716 36.36C83.6733 36.5307 83.6307 36.68 83.588 36.808C83.5453 36.8933 83.5027 36.9787 83.46 37.064C83.4173 37.192 83.3107 37.256 83.14 37.256ZM102.12 37.704C101.266 37.704 100.584 37.3627 100.072 36.68C99.6022 35.9973 99.3675 35.144 99.3675 34.12C99.3675 33.224 99.5808 32.264 100.008 31.24C100.434 30.1733 100.989 29.1067 101.672 28.04C102.354 27.0587 103.336 26.0987 104.616 25.16C105.896 24.2213 107.133 23.7307 108.328 23.688C108.797 23.688 109.224 23.7733 109.608 23.944C110.034 24.072 110.354 24.3067 110.568 24.648C110.781 22.5147 111.165 20.2747 111.72 17.928C112.274 15.5387 112.978 13.2773 113.832 11.144C115.368 7.304 117.33 4.31733 119.72 2.184C121 1.032 122.237 0.455997 123.432 0.455997C124.242 0.455997 124.882 0.775997 125.352 1.416C125.864 2.01333 126.12 2.93066 126.12 4.168C126.12 5.40533 125.778 7.00533 125.096 8.968C124.456 10.888 123.368 13.1707 121.832 15.816C121.405 16.4987 120.68 17.5653 119.656 19.016C118.674 20.4667 117.501 22.088 116.135 23.88C114.813 25.6293 113.448 27.3573 112.04 29.064C111.997 30.9413 112.146 32.6267 112.488 34.12C112.829 35.5707 113.533 36.296 114.6 36.296C114.728 36.296 114.856 36.296 114.984 36.296C115.112 36.2533 115.24 36.2107 115.368 36.168C116.264 35.8693 117.138 35.3147 117.992 34.504C118.845 33.6933 119.634 32.7973 120.36 31.816C121.085 30.8347 121.682 29.9813 122.152 29.256C122.322 29.0853 122.429 29 122.472 29C122.6 29 122.664 29.1067 122.664 29.32C122.664 29.5333 122.6 29.7467 122.472 29.96C121.618 31.4107 120.53 32.84 119.208 34.248C117.885 35.656 116.626 36.5947 115.432 37.064C114.962 37.2347 114.514 37.32 114.088 37.32C112.893 37.32 111.976 36.7013 111.336 35.464C110.738 34.2267 110.397 32.776 110.312 31.112C109.032 32.5627 107.816 33.864 106.664 35.016C105.512 36.1253 104.552 36.872 103.784 37.256C103.186 37.5547 102.632 37.704 102.12 37.704ZM112.104 27.528C113.426 25.9067 114.685 24.2853 115.88 22.664C117.074 21.0427 118.12 19.592 119.016 18.312C119.954 16.9893 120.616 16.008 121 15.368C122.493 12.808 123.56 10.6107 124.2 8.776C124.84 6.94133 125.16 5.46933 125.16 4.36C125.16 2.61067 124.584 1.736 123.432 1.736C122.536 1.736 121.554 2.26933 120.488 3.336C119.72 4.104 118.866 5.27733 117.928 6.856C117.032 8.392 116.221 10.0987 115.496 11.976C114.557 14.3653 113.768 16.9253 113.128 19.656C113 20.2107 112.808 21.2347 112.552 22.728C112.338 24.1787 112.189 25.7787 112.104 27.528ZM101.864 36.936C102.29 36.936 102.781 36.7867 103.336 36.488C104.104 36.104 105.106 35.2933 106.344 34.056C107.581 32.776 108.882 31.3253 110.248 29.704C110.248 28.424 110.312 27.0587 110.44 25.608C110.269 25.4373 110.056 25.288 109.8 25.16C109.586 25.032 109.394 24.9467 109.224 24.904C109.096 24.8613 108.882 24.84 108.584 24.84C107.858 24.8827 107.09 25.2453 106.28 25.928C105.469 26.568 104.68 27.3573 103.911 28.296C103.186 29.2347 102.546 30.1947 101.992 31.176C101.053 32.8827 100.584 34.248 100.584 35.272C100.584 36.3813 101.01 36.936 101.864 36.936ZM125.355 37.256C124.203 37.256 123.2 36.9787 122.347 36.424C121.494 35.8267 121.067 34.7813 121.067 33.288C121.067 32.3493 121.302 31.3253 121.771 30.216C122.24 29.064 122.838 27.9547 123.563 26.888C124.331 25.7787 125.163 24.8613 126.059 24.136C126.272 23.9653 126.55 23.88 126.891 23.88C127.403 23.368 127.979 22.984 128.619 22.728C129.302 22.472 129.942 22.344 130.539 22.344C131.606 22.344 132.587 22.6853 133.483 23.368C134.422 24.0507 134.891 25.1387 134.891 26.632C134.891 27.4853 134.656 28.5093 134.187 29.704C133.76 30.8133 133.099 31.9653 132.203 33.16C131.307 34.312 130.262 35.2933 129.067 36.104C127.915 36.872 126.678 37.256 125.355 37.256ZM125.291 36.488C126.23 36.488 127.19 36.1253 128.171 35.4C129.195 34.6747 130.134 33.7573 130.987 32.648C131.84 31.496 132.459 30.344 132.843 29.192C133.27 28.04 133.483 27.016 133.483 26.12C133.483 25.0107 133.184 24.2213 132.587 23.752C131.99 23.24 131.328 22.984 130.603 22.984C129.451 22.984 128.448 23.368 127.595 24.136C128.022 24.392 128.064 24.648 127.723 24.904C127.126 25.416 126.443 26.12 125.675 27.016C124.95 27.912 124.374 28.744 123.947 29.512C123.648 30.024 123.371 30.6853 123.115 31.496C122.902 32.3067 122.795 33.0747 122.795 33.8C122.795 34.5253 122.966 35.1653 123.307 35.72C123.691 36.232 124.352 36.488 125.291 36.488ZM141.442 38.024C140.546 38.024 139.735 37.96 139.01 37.832C138.327 37.704 137.815 37.576 137.474 37.448C137.004 37.2773 136.642 37.064 136.386 36.808C136.172 36.5093 136.066 36.2533 136.066 36.04C136.066 35.7413 136.215 35.592 136.514 35.592C136.727 35.592 136.983 35.72 137.282 35.976C137.879 36.488 138.455 36.7867 139.01 36.872C139.479 36.872 140.098 36.808 140.866 36.68C141.634 36.5093 142.167 36.2747 142.466 35.976C142.978 35.464 143.234 34.952 143.234 34.44C143.234 34.0987 143.127 33.7787 142.914 33.48C142.743 33.1387 142.487 32.8187 142.146 32.52C141.591 32.0507 141.036 31.5813 140.482 31.112C139.927 30.6 139.458 30.0453 139.074 29.448C138.476 28.5093 138.178 27.592 138.178 26.696C138.178 25.3307 138.626 24.0507 139.522 22.856C140.46 21.6613 141.463 20.68 142.53 19.912C143.682 19.1013 144.855 18.696 146.05 18.696C146.69 18.696 147.287 18.8453 147.842 19.144C148.396 19.4 148.823 19.8267 149.122 20.424C149.164 20.5093 149.186 20.616 149.186 20.744C149.186 21 149.1 21.1707 148.93 21.256C148.759 21.3413 148.631 21.256 148.546 21C148.29 20.3173 147.586 19.976 146.434 19.976C145.751 19.976 145.004 20.104 144.194 20.36C143.426 20.616 142.807 20.9147 142.338 21.256C140.887 22.3653 140.161 23.7947 140.161 25.544C140.161 26.7813 140.567 27.8907 141.378 28.872C141.932 29.5547 142.508 30.1947 143.106 30.792C143.746 31.3467 144.279 31.9013 144.706 32.456C145.132 32.968 145.282 33.48 145.154 33.992C144.94 34.9307 144.322 35.6987 143.298 36.296C142.316 36.8507 141.399 37.1707 140.546 37.256C140.802 37.2987 141.271 37.32 141.954 37.32C144.386 37.32 146.455 36.5093 148.162 34.888C149.911 33.2667 151.511 31.3467 152.962 29.128C153.047 29 153.132 28.936 153.218 28.936C153.303 28.936 153.346 29.0427 153.346 29.256C153.346 29.512 153.239 29.8107 153.026 30.152C151.404 32.6267 149.719 34.568 147.97 35.976C146.263 37.3413 144.087 38.024 141.442 38.024ZM91.8453 97.944C91.9306 98.1573 91.8666 98.328 91.6533 98.456C91.4826 98.5413 91.3119 98.4773 91.1413 98.264C90.7999 97.7947 90.3306 97.4107 89.7333 97.112C89.1786 96.8133 88.4959 96.664 87.6853 96.664C86.6613 96.664 85.7439 96.9413 84.9333 97.496C84.1226 98.0507 83.3333 98.776 82.5653 99.672C81.8399 100.525 81.1146 101.485 80.3893 102.552C79.6639 103.619 78.8959 104.664 78.0853 105.688C79.2373 106.755 80.5173 107.587 81.9253 108.184C83.3333 108.781 84.8693 109.08 86.5333 109.08C87.9839 109.08 89.1573 108.525 90.0533 107.416C90.2239 107.203 90.4586 107.117 90.7573 107.16C91.0559 107.203 91.0346 107.459 90.6933 107.928C90.0106 108.867 89.1786 109.613 88.1973 110.168C87.2159 110.723 86.0213 111 84.6133 111C82.9919 111 81.4773 110.701 80.0693 110.104C78.7039 109.507 77.4666 108.675 76.3573 107.608C75.3759 108.589 74.2453 109.4 72.9653 110.04C71.6853 110.68 70.2133 111 68.5493 111C66.3306 111 64.5173 110.36 63.1093 109.08C61.7439 107.8 61.0613 106.157 61.0613 104.152C61.0613 102.872 61.3173 101.763 61.8293 100.824C62.3839 99.8853 63.0666 99.0533 63.8773 98.328C64.7306 97.6027 65.6693 96.9413 66.6933 96.344C67.7599 95.704 68.8266 95.064 69.8933 94.424C69.5519 92.5893 69.3813 90.9253 69.3813 89.432C69.3813 88.2373 69.5519 87.1067 69.8933 86.04C70.2773 84.9733 70.7679 84.0347 71.3653 83.224C72.0053 82.4133 72.7306 81.7733 73.5413 81.304C74.3519 80.8347 75.2053 80.6 76.1013 80.6C76.8266 80.6 77.4453 80.9413 77.9573 81.624C78.4693 82.3067 78.7253 83.0747 78.7253 83.928C78.7253 85.1653 78.5333 86.296 78.1493 87.32C77.7653 88.3013 77.2533 89.1973 76.6133 90.008C75.9733 90.776 75.2266 91.5013 74.3733 92.184C73.5626 92.824 72.7093 93.4213 71.8133 93.976C72.2826 96.1093 72.9866 98.1573 73.9253 100.12C74.9066 102.083 76.1226 103.768 77.5733 105.176C78.4266 104.109 79.2373 102.957 80.0053 101.72C80.8159 100.483 81.6479 99.3307 82.5013 98.264C83.3546 97.1973 84.2506 96.3227 85.1893 95.64C86.1706 94.9573 87.2799 94.616 88.5173 94.616C89.4559 94.616 90.1813 94.9573 90.6933 95.64C91.2479 96.28 91.6319 97.048 91.8453 97.944ZM71.0453 87.512C71.0453 89.432 71.2373 91.3733 71.6213 93.336C73.0719 92.3547 74.3093 91.2453 75.3333 90.008C76.3573 88.728 76.8693 87.0853 76.8693 85.08C76.8693 84.2693 76.6773 83.5867 76.2933 83.032C75.9519 82.4773 75.4186 82.2 74.6933 82.2C73.5413 82.2 72.6453 82.712 72.0053 83.736C71.3653 84.7173 71.0453 85.976 71.0453 87.512ZM63.5573 103.064C63.5573 104.984 64.1759 106.499 65.4133 107.608C66.6506 108.717 68.3786 109.272 70.5973 109.272C71.6213 109.272 72.5599 109.08 73.4133 108.696C74.2666 108.312 75.0559 107.779 75.7812 107.096C74.2879 105.56 73.0719 103.747 72.1333 101.656C71.1946 99.5227 70.4906 97.3467 70.0213 95.128C69.1679 95.6827 68.3573 96.2373 67.5893 96.792C66.8213 97.304 66.1386 97.88 65.5413 98.52C64.9439 99.16 64.4533 99.8427 64.0693 100.568C63.7279 101.293 63.5573 102.125 63.5573 103.064ZM35.2968 189.352C34.8701 189.352 34.4434 189.331 34.0168 189.288C33.6328 189.245 33.2274 189.181 32.8008 189.096C31.7768 188.883 30.5394 188.477 29.0888 187.88C27.6381 187.325 26.1234 186.685 24.5448 185.96C23.0088 185.277 21.5154 184.616 20.0648 183.976C18.6568 183.293 17.4621 182.739 16.4808 182.312C15.2008 181.757 13.8141 181.267 12.3208 180.84C10.8701 180.371 9.48342 180.136 8.16075 180.136C6.79542 180.136 5.57942 180.456 4.51275 181.096C3.48875 181.736 2.78475 182.888 2.40075 184.552C2.10208 185.277 1.67542 185.64 1.12075 185.64C0.566083 185.64 0.28875 185.341 0.28875 184.744C0.28875 184.061 0.41675 183.464 0.67275 182.952C0.92875 182.44 1.18475 181.971 1.44075 181.544C2.25142 180.435 3.27542 179.24 4.51275 177.96C5.79275 176.68 7.11542 175.443 8.48075 174.248C9.88875 173.053 11.1688 171.987 12.3208 171.048C13.5154 170.067 14.4114 169.32 15.0088 168.808C16.2461 167.784 17.7821 166.547 19.6168 165.096C21.4941 163.603 23.4994 162.045 25.6328 160.424C27.7661 158.803 29.8781 157.245 31.9688 155.752C34.1021 154.259 36.0434 152.979 37.7928 151.912C36.1288 151.827 34.4434 151.656 32.7368 151.4C31.0301 151.101 29.7714 150.888 28.9608 150.76C27.6381 150.547 26.1234 150.312 24.4168 150.056C22.7528 149.8 21.0461 149.672 19.2968 149.672C18.0594 149.672 16.8221 149.779 15.5848 149.992C14.3901 150.205 13.2808 150.568 12.2568 151.08C11.3181 151.549 10.6568 152.147 10.2728 152.872C9.93142 153.555 9.76075 154.301 9.76075 155.112C9.76075 156.221 10.0168 157.352 10.5288 158.504C11.0834 159.656 11.6381 160.595 12.1928 161.32C12.2354 161.363 12.2568 161.427 12.2568 161.512C12.2568 161.683 12.1714 161.832 12.0008 161.96C11.8301 162.045 11.7021 162.003 11.6168 161.832C11.1901 161.192 10.6994 160.424 10.1448 159.528C9.59008 158.632 9.09942 157.672 8.67275 156.648C8.28875 155.624 8.09675 154.643 8.09675 153.704C8.09675 152.936 8.28875 152.211 8.67275 151.528C9.05675 150.845 9.69675 150.269 10.5928 149.8C11.7021 149.203 12.9181 148.797 14.2408 148.584C15.5634 148.371 16.9288 148.264 18.3368 148.264C20.1288 148.264 21.8994 148.392 23.6488 148.648C25.3981 148.904 26.9341 149.139 28.2568 149.352C28.9394 149.437 29.8994 149.608 31.1368 149.864C32.4168 150.12 33.7821 150.376 35.2327 150.632C36.7261 150.845 38.0701 150.973 39.2648 151.016C39.5634 150.845 39.8408 150.696 40.0968 150.568C40.3954 150.44 40.6728 150.312 40.9288 150.184C41.2701 150.056 41.6114 149.949 41.9528 149.864C42.2941 149.736 42.6141 149.672 42.9128 149.672C43.2114 149.715 43.5314 149.8 43.8728 149.928C44.2568 150.056 44.4488 150.333 44.4488 150.76V150.824C44.4488 151.208 44.2994 151.528 44.0008 151.784C43.7448 151.997 43.4461 152.083 43.1048 152.04L40.8648 151.848H40.2888C36.0648 154.493 31.8194 157.459 27.5528 160.744C23.3288 164.029 19.2968 167.293 15.4568 170.536C14.9874 170.92 14.2194 171.581 13.1528 172.52C12.0861 173.459 10.8914 174.525 9.56875 175.72C8.28875 176.915 7.07275 178.088 5.92075 179.24C6.39008 179.155 6.79542 179.069 7.13675 178.984C7.52075 178.899 7.92608 178.877 8.35275 178.92C10.4434 179.005 12.5341 179.411 14.6248 180.136C16.7154 180.819 18.7848 181.651 20.8328 182.632C22.8808 183.571 24.9074 184.445 26.9128 185.256C28.9181 186.109 30.8594 186.728 32.7368 187.112C33.8888 187.368 34.9981 187.496 36.0648 187.496C38.0701 187.496 39.7341 187.091 41.0568 186.28C42.4221 185.512 43.1048 184.424 43.1048 183.016C43.1048 182.205 42.8061 181.267 42.2088 180.2C41.8674 179.56 41.1848 178.835 40.1608 178.024C39.1368 177.171 38.1341 176.595 37.1528 176.296C37.0248 176.296 36.9608 176.232 36.9608 176.104C36.9608 176.019 37.0034 175.933 37.0888 175.848C37.2168 175.72 37.3448 175.677 37.4728 175.72C38.5821 176.019 39.6701 176.616 40.7368 177.512C41.8034 178.408 42.5288 179.176 42.9128 179.816C43.5954 181.011 43.9368 182.141 43.9368 183.208C43.9368 184.445 43.5314 185.512 42.7208 186.408C41.9101 187.347 40.8434 188.072 39.5208 188.584C38.2408 189.096 36.8328 189.352 35.2968 189.352ZM46.9868 185.32C46.6881 185.32 46.4534 185.149 46.2828 184.808C46.1121 184.467 46.0267 184.061 46.0267 183.592C46.0267 182.909 46.1121 182.163 46.2828 181.352C46.4961 180.499 46.7094 179.731 46.9228 179.048C47.1361 178.323 47.2854 177.832 47.3708 177.576C47.9681 175.997 48.7361 174.205 49.6748 172.2C50.6134 170.152 51.7228 168.168 53.0028 166.248C54.3254 164.285 55.7761 162.6 57.3548 161.192C58.9334 159.741 60.6401 158.803 62.4748 158.376C62.6881 158.333 62.8801 158.312 63.0508 158.312C63.2641 158.269 63.4561 158.248 63.6268 158.248C64.3094 158.248 64.8641 158.397 65.2908 158.696C65.7174 158.952 65.9948 159.293 66.1228 159.72C66.1228 159.763 66.1228 159.805 66.1228 159.848C66.1654 159.891 66.1868 159.955 66.1868 160.04C66.1868 160.253 66.1228 160.36 65.9948 160.36C65.7814 160.36 65.6534 160.211 65.6108 159.912C65.5681 159.699 65.3761 159.549 65.0347 159.464C64.6934 159.336 64.3094 159.272 63.8828 159.272C62.4748 159.272 61.0454 159.891 59.5948 161.128C58.1868 162.323 56.8001 163.859 55.4348 165.736C54.1121 167.571 52.8961 169.469 51.7868 171.432C50.7201 173.395 49.8454 175.144 49.1628 176.68C49.1201 176.765 48.9921 177.085 48.7788 177.64C48.6081 178.195 48.4161 178.856 48.2028 179.624C47.9894 180.392 47.8188 181.139 47.6908 181.864L49.4188 179.304C50.4001 177.853 51.5948 176.403 53.0028 174.952C54.4108 173.459 55.9468 172.243 57.6108 171.304C57.7814 171.219 57.9521 171.155 58.1228 171.112C58.3361 171.069 58.5281 171.048 58.6988 171.048C59.0828 171.048 59.2748 171.176 59.2748 171.432C59.2748 171.517 59.1681 171.731 58.9548 172.072C58.0588 173.267 57.3548 174.525 56.8428 175.848C56.3308 177.128 56.0108 178.536 55.8828 180.072C55.8401 181.011 55.9254 181.885 56.1388 182.696C56.3948 183.507 56.9281 183.912 57.7388 183.912C58.6348 183.912 59.5094 183.528 60.3628 182.76C61.2588 181.949 62.0694 181.032 62.7948 180.008C63.5628 178.941 64.2241 178.003 64.7788 177.192C64.8641 177.064 64.9281 177 64.9708 177C65.0988 177 65.1628 177.128 65.1628 177.384C65.1628 177.64 65.0561 177.939 64.8428 178.28C64.1601 179.304 63.4134 180.328 62.6028 181.352C61.8348 182.376 61.0028 183.229 60.1068 183.912C59.2108 184.595 58.2294 184.936 57.1628 184.936C56.0961 184.936 55.3281 184.531 54.8588 183.72C54.3894 182.909 54.1548 181.928 54.1548 180.776C54.1548 179.539 54.3468 178.216 54.7308 176.808C55.1574 175.4 55.6481 174.227 56.2028 173.288C55.0934 174.099 53.9414 175.123 52.7468 176.36C51.5521 177.555 50.5281 178.835 49.6748 180.2C49.3761 180.755 48.9494 181.459 48.3948 182.312C47.8401 183.123 47.5201 183.805 47.4348 184.36C47.3068 185 47.1574 185.32 46.9868 185.32ZM74.9263 185.448C74.1583 185.448 73.5823 185.192 73.1983 184.68C72.8569 184.168 72.6863 183.507 72.6863 182.696C72.6863 182.141 72.7503 181.587 72.8783 181.032C72.9209 180.947 72.9849 180.755 73.0703 180.456C73.1556 180.115 73.2836 179.731 73.4543 179.304C72.8569 180.243 72.0889 181.288 71.1503 182.44C70.2543 183.549 69.2516 184.381 68.1423 184.936C67.5023 185.235 66.8623 185.384 66.2223 185.384C65.3689 185.384 64.6863 185.064 64.1743 184.424C63.6623 183.741 63.4062 182.803 63.4062 181.608C63.4062 180.627 63.6196 179.581 64.0463 178.472C64.4729 177.32 65.0916 176.147 65.9023 174.952C66.4143 174.184 67.0756 173.437 67.8863 172.712C68.6969 171.987 69.5716 171.389 70.5103 170.92C71.4489 170.451 72.3449 170.216 73.1983 170.216C74.0516 170.216 74.7769 170.451 75.3743 170.92C75.9716 171.389 76.2916 172.093 76.3343 173.032C76.3343 173.16 76.2703 173.267 76.1423 173.352C76.0569 173.395 75.9716 173.331 75.8863 173.16C75.3743 172.008 74.5423 171.432 73.3903 171.432C72.6223 171.432 71.8116 171.795 70.9583 172.52C70.1049 173.203 69.2729 174.077 68.4623 175.144C67.6516 176.211 66.9476 177.277 66.3503 178.344C65.8383 179.283 65.4543 180.136 65.1983 180.904C64.9849 181.672 64.8783 182.333 64.8783 182.888C64.8783 184.04 65.3263 184.616 66.2223 184.616C66.6916 184.616 67.2036 184.467 67.7583 184.168C68.2703 183.869 68.8889 183.336 69.6143 182.568C70.3823 181.8 71.1289 180.947 71.8542 180.008C72.6223 179.069 73.3049 178.152 73.9023 177.256C74.5423 176.36 75.0116 175.656 75.3103 175.144C75.9503 174.077 76.6116 173.139 77.2943 172.328C77.9769 171.517 78.6596 171.112 79.3423 171.112C79.6836 171.112 79.8542 171.197 79.8542 171.368C79.8542 171.539 79.7689 171.709 79.5983 171.88C78.7449 172.904 77.9343 174.12 77.1663 175.528C76.4409 176.893 75.8223 178.195 75.3103 179.432C74.8409 180.669 74.5636 181.608 74.4783 182.248C74.3503 183.613 74.7556 184.296 75.6943 184.296C75.8223 184.296 75.9503 184.296 76.0783 184.296C76.2063 184.253 76.3556 184.211 76.5263 184.168C77.4223 183.869 78.2969 183.315 79.1503 182.504C80.0036 181.693 80.7929 180.819 81.5183 179.88C82.2436 178.899 82.8409 178.045 83.3103 177.32C83.4383 177.149 83.5449 177.064 83.6303 177.064C83.7583 177.064 83.8223 177.171 83.8223 177.384C83.8223 177.512 83.7583 177.683 83.6303 177.896C83.3316 178.323 83.0543 178.749 82.7983 179.176C82.5423 179.56 82.2863 179.923 82.0303 180.264C81.9449 180.435 81.8383 180.584 81.7103 180.712C81.5823 180.84 81.4543 180.989 81.3263 181.16C80.7716 181.843 80.0463 182.589 79.1503 183.4C78.2969 184.168 77.4436 184.723 76.5903 185.064C75.9503 185.32 75.3956 185.448 74.9263 185.448ZM84.4633 185.704C83.6099 185.704 82.9273 185.363 82.4153 184.68C81.9459 183.997 81.7112 183.144 81.7112 182.12C81.7112 181.224 81.9246 180.264 82.3513 179.24C82.7779 178.173 83.3326 177.107 84.0153 176.04C84.6979 175.059 85.6793 174.099 86.9593 173.16C88.2393 172.221 89.4766 171.731 90.6713 171.688C91.1406 171.688 91.5673 171.773 91.9513 171.944C92.3779 172.072 92.6979 172.307 92.9113 172.648C93.1246 170.515 93.5086 168.275 94.0633 165.928C94.6179 163.539 95.3219 161.277 96.1753 159.144C97.7113 155.304 99.6739 152.317 102.063 150.184C103.343 149.032 104.581 148.456 105.775 148.456C106.586 148.456 107.226 148.776 107.695 149.416C108.207 150.013 108.463 150.931 108.463 152.168C108.463 153.405 108.122 155.005 107.439 156.968C106.799 158.888 105.711 161.171 104.175 163.816C103.749 164.499 103.023 165.565 101.999 167.016C101.018 168.467 99.8446 170.088 98.4792 171.88C97.1566 173.629 95.7913 175.357 94.3833 177.064C94.3406 178.941 94.4899 180.627 94.8313 182.12C95.1726 183.571 95.8766 184.296 96.9433 184.296C97.0713 184.296 97.1993 184.296 97.3273 184.296C97.4553 184.253 97.5833 184.211 97.7113 184.168C98.6073 183.869 99.4819 183.315 100.335 182.504C101.189 181.693 101.978 180.797 102.703 179.816C103.429 178.835 104.026 177.981 104.495 177.256C104.666 177.085 104.773 177 104.815 177C104.943 177 105.007 177.107 105.007 177.32C105.007 177.533 104.943 177.747 104.815 177.96C103.962 179.411 102.874 180.84 101.551 182.248C100.229 183.656 98.9699 184.595 97.7753 185.064C97.3059 185.235 96.8579 185.32 96.4313 185.32C95.2366 185.32 94.3193 184.701 93.6793 183.464C93.0819 182.227 92.7406 180.776 92.6553 179.112C91.3753 180.563 90.1593 181.864 89.0073 183.016C87.8553 184.125 86.8953 184.872 86.1273 185.256C85.5299 185.555 84.9753 185.704 84.4633 185.704ZM94.4473 175.528C95.7699 173.907 97.0286 172.285 98.2233 170.664C99.4179 169.043 100.463 167.592 101.359 166.312C102.298 164.989 102.959 164.008 103.343 163.368C104.837 160.808 105.903 158.611 106.543 156.776C107.183 154.941 107.503 153.469 107.503 152.36C107.503 150.611 106.927 149.736 105.775 149.736C104.879 149.736 103.898 150.269 102.831 151.336C102.063 152.104 101.21 153.277 100.271 154.856C99.3753 156.392 98.5646 158.099 97.8393 159.976C96.9006 162.365 96.1113 164.925 95.4713 167.656C95.3433 168.211 95.1513 169.235 94.8953 170.728C94.6819 172.179 94.5326 173.779 94.4473 175.528ZM84.2073 184.936C84.6339 184.936 85.1246 184.787 85.6793 184.488C86.4473 184.104 87.4499 183.293 88.6873 182.056C89.9246 180.776 91.2259 179.325 92.5913 177.704C92.5913 176.424 92.6553 175.059 92.7833 173.608C92.6126 173.437 92.3993 173.288 92.1433 173.16C91.9299 173.032 91.7379 172.947 91.5673 172.904C91.4393 172.861 91.2259 172.84 90.9273 172.84C90.2019 172.883 89.4339 173.245 88.6233 173.928C87.8126 174.568 87.0233 175.357 86.2552 176.296C85.5299 177.235 84.8899 178.195 84.3353 179.176C83.3966 180.883 82.9273 182.248 82.9273 183.272C82.9273 184.381 83.3539 184.936 84.2073 184.936ZM101.107 203.048C99.8267 203.048 98.9521 202.664 98.4827 201.896C98.2267 201.427 98.0987 200.936 98.0987 200.424C98.0987 199.912 98.2267 199.357 98.4827 198.76C98.6961 198.163 98.9734 197.565 99.3147 196.968C99.9121 195.987 100.616 195.027 101.427 194.088C102.237 193.149 103.027 192.296 103.795 191.528C104.605 190.76 105.267 190.163 105.779 189.736C106.632 189.011 107.677 188.157 108.915 187.176C110.152 186.195 111.411 185.363 112.691 184.68C112.776 184.637 112.861 184.616 112.947 184.616C113.075 184.616 113.139 184.68 113.139 184.808C113.139 185.064 113.032 185.235 112.819 185.32C112.264 185.619 111.56 186.067 110.707 186.664C109.853 187.304 109 187.944 108.147 188.584C107.336 189.267 106.653 189.864 106.099 190.376C105.672 190.76 105.075 191.336 104.307 192.104C103.581 192.872 102.856 193.725 102.131 194.664C101.363 195.645 100.723 196.627 100.211 197.608C100.04 197.949 99.8481 198.397 99.6347 198.952C99.4214 199.549 99.3147 200.104 99.3147 200.616C99.3147 201.043 99.4427 201.384 99.6987 201.64C99.9121 201.939 100.317 202.088 100.915 202.088C101.811 202.088 102.728 201.768 103.667 201.128C104.605 200.488 105.523 199.677 106.419 198.696C107.315 197.757 108.104 196.797 108.787 195.816C109.512 194.877 110.067 194.067 110.451 193.384C111.475 191.677 112.392 189.821 113.203 187.816C114.056 185.853 114.717 183.827 115.187 181.736C115.656 179.645 115.805 177.661 115.635 175.784C115.592 174.931 115.4 174.099 115.059 173.288C114.888 174.653 114.376 176.104 113.523 177.64C112.712 179.176 111.88 180.456 111.027 181.48C110.344 182.291 109.619 183.037 108.851 183.72C108.125 184.36 107.4 184.808 106.675 185.064C106.035 185.32 105.48 185.448 105.011 185.448C104.243 185.448 103.688 185.192 103.347 184.68C103.005 184.168 102.835 183.528 102.835 182.76C102.835 182.163 102.899 181.587 103.027 181.032C103.112 180.776 103.325 180.136 103.667 179.112C104.051 178.088 104.541 176.957 105.139 175.72C105.779 174.483 106.461 173.416 107.187 172.52C107.912 171.581 108.659 171.112 109.427 171.112C109.768 171.112 109.939 171.197 109.939 171.368C109.939 171.539 109.853 171.709 109.683 171.88C108.829 172.904 108.019 174.12 107.251 175.528C106.525 176.893 105.907 178.195 105.395 179.432C104.925 180.669 104.648 181.608 104.563 182.248C104.435 183.613 104.84 184.296 105.779 184.296C106.547 184.296 107.336 183.997 108.147 183.4C108.957 182.76 109.747 181.949 110.515 180.968C111.453 179.773 112.221 178.536 112.819 177.256C113.416 175.976 113.843 174.867 114.099 173.928C114.184 173.672 114.269 173.395 114.355 173.096C114.483 172.797 114.547 172.499 114.547 172.2V172.136C114.547 171.837 114.781 171.688 115.251 171.688C115.549 171.688 115.827 171.88 116.083 172.264C116.893 173.587 117.299 175.315 117.299 177.448C117.299 179.283 117.021 181.245 116.467 183.336C115.955 185.427 115.229 187.496 114.291 189.544C113.395 191.635 112.349 193.576 111.155 195.368C109.96 197.203 108.68 198.76 107.315 200.04C105.992 201.32 104.669 202.195 103.347 202.664C102.536 202.92 101.789 203.048 101.107 203.048ZM126.244 185.384C125.518 185.384 124.942 185.149 124.516 184.68C124.132 184.168 123.94 183.571 123.94 182.888C123.94 182.248 124.089 181.629 124.388 181.032C124.857 180.051 125.454 179.091 126.18 178.152C126.948 177.171 127.652 176.317 128.292 175.592C128.718 175.037 128.932 174.568 128.932 174.184C128.932 173.672 128.612 173.16 127.972 172.648C127.46 172.307 126.99 171.859 126.564 171.304C126.265 170.877 126.052 170.451 125.924 170.024C125.241 171.432 124.366 173.075 123.3 174.952C122.276 176.787 121.209 178.429 120.1 179.88C119.929 180.136 119.758 180.264 119.588 180.264C119.46 180.264 119.396 180.179 119.396 180.008C119.396 179.923 119.417 179.837 119.46 179.752C119.502 179.667 119.63 179.475 119.844 179.176C120.953 177.64 121.849 176.211 122.532 174.888C123.214 173.565 123.812 172.328 124.324 171.176L125.732 168.04C125.774 167.955 125.817 167.848 125.86 167.72C125.945 167.549 126.009 167.443 126.052 167.4C126.137 167.315 126.222 167.272 126.308 167.272C126.478 167.272 126.606 167.357 126.692 167.528C126.777 167.699 126.777 167.912 126.692 168.168C126.606 168.637 126.67 169.107 126.884 169.576C127.097 170.045 127.374 170.472 127.716 170.856C128.057 171.197 128.548 171.517 129.188 171.816C129.828 172.115 130.404 172.456 130.916 172.84C131.428 173.224 131.62 173.715 131.492 174.312C131.321 175.123 130.873 175.912 130.148 176.68C129.422 177.448 128.697 178.259 127.972 179.112C127.46 179.667 126.99 180.221 126.564 180.776C126.18 181.331 125.881 181.907 125.668 182.504C125.625 182.632 125.582 182.76 125.54 182.888C125.54 183.016 125.54 183.144 125.54 183.272C125.54 184.04 125.945 184.424 126.756 184.424C127.012 184.424 127.332 184.36 127.716 184.232C128.782 183.848 129.764 183.208 130.66 182.312C131.598 181.416 132.388 180.52 133.028 179.624C133.71 178.728 134.158 178.109 134.372 177.768C134.713 177.256 134.926 177 135.012 177C135.14 177 135.204 177.107 135.204 177.32C135.204 177.533 135.14 177.747 135.012 177.96C134.073 179.453 133.006 180.861 131.812 182.184C130.617 183.507 129.337 184.445 127.972 185C127.332 185.256 126.756 185.384 126.244 185.384ZM144.926 185.448C144.158 185.448 143.582 185.192 143.198 184.68C142.857 184.168 142.686 183.507 142.686 182.696C142.686 182.141 142.75 181.587 142.878 181.032C142.921 180.947 142.985 180.755 143.07 180.456C143.156 180.115 143.284 179.731 143.454 179.304C142.857 180.243 142.089 181.288 141.15 182.44C140.254 183.549 139.252 184.381 138.142 184.936C137.502 185.235 136.862 185.384 136.222 185.384C135.369 185.384 134.686 185.064 134.174 184.424C133.662 183.741 133.406 182.803 133.406 181.608C133.406 180.627 133.62 179.581 134.046 178.472C134.473 177.32 135.092 176.147 135.902 174.952C136.414 174.184 137.076 173.437 137.886 172.712C138.697 171.987 139.572 171.389 140.51 170.92C141.449 170.451 142.345 170.216 143.198 170.216C144.052 170.216 144.777 170.451 145.374 170.92C145.972 171.389 146.292 172.093 146.334 173.032C146.334 173.16 146.27 173.267 146.142 173.352C146.057 173.395 145.972 173.331 145.886 173.16C145.374 172.008 144.542 171.432 143.39 171.432C142.622 171.432 141.812 171.795 140.958 172.52C140.105 173.203 139.273 174.077 138.462 175.144C137.652 176.211 136.948 177.277 136.35 178.344C135.838 179.283 135.454 180.136 135.198 180.904C134.985 181.672 134.878 182.333 134.878 182.888C134.878 184.04 135.326 184.616 136.222 184.616C136.692 184.616 137.204 184.467 137.758 184.168C138.27 183.869 138.889 183.336 139.614 182.568C140.382 181.8 141.129 180.947 141.854 180.008C142.622 179.069 143.305 178.152 143.902 177.256C144.542 176.36 145.012 175.656 145.31 175.144C145.95 174.077 146.612 173.139 147.294 172.328C147.977 171.517 148.66 171.112 149.342 171.112C149.684 171.112 149.854 171.197 149.854 171.368C149.854 171.539 149.769 171.709 149.598 171.88C148.745 172.904 147.934 174.12 147.166 175.528C146.441 176.893 145.822 178.195 145.31 179.432C144.841 180.669 144.564 181.608 144.478 182.248C144.35 183.613 144.756 184.296 145.694 184.296C145.822 184.296 145.95 184.296 146.078 184.296C146.206 184.253 146.356 184.211 146.526 184.168C147.422 183.869 148.297 183.315 149.15 182.504C150.004 181.693 150.793 180.819 151.518 179.88C152.244 178.899 152.841 178.045 153.31 177.32C153.438 177.149 153.545 177.064 153.63 177.064C153.758 177.064 153.822 177.171 153.822 177.384C153.822 177.512 153.758 177.683 153.63 177.896C153.332 178.323 153.054 178.749 152.798 179.176C152.542 179.56 152.286 179.923 152.03 180.264C151.945 180.435 151.838 180.584 151.71 180.712C151.582 180.84 151.454 180.989 151.326 181.16C150.772 181.843 150.046 182.589 149.15 183.4C148.297 184.168 147.444 184.723 146.59 185.064C145.95 185.32 145.396 185.448 144.926 185.448Z" fill="#6A6060"/>
</svg>
