<?xml version="1.0" encoding="UTF-8"?> <svg xmlns="http://www.w3.org/2000/svg" width="102" height="29" viewBox="0 0 102 29" fill="none"> <path d="M16.4136 14.647C16.5336 14.647 16.9776 14.695 17.7456 14.791C18.5136 14.887 19.4256 15.055 20.4816 15.295C21.5616 15.511 22.7016 15.799 23.9016 16.159C25.1256 16.519 26.2536 16.963 27.2856 17.491C28.3176 18.019 29.1696 18.643 29.8416 19.363C30.5136 20.059 30.8496 20.863 30.8496 21.775C30.8496 22.447 30.6456 23.179 30.2376 23.971C29.8536 24.763 29.1576 25.615 28.1496 26.527C28.0536 26.623 28.1376 26.671 28.4016 26.671C28.4256 26.671 28.6056 26.671 28.9416 26.671C29.2776 26.671 29.6856 26.671 30.1656 26.671C30.6696 26.695 31.2096 26.707 31.7856 26.707C32.3616 26.707 32.9136 26.707 33.4416 26.707C33.9696 26.731 34.4376 26.743 34.8456 26.743C35.2536 26.743 35.5296 26.743 35.6736 26.743C35.7936 26.767 35.9016 26.791 35.9976 26.815C36.1176 26.839 36.1776 26.899 36.1776 26.995C36.1776 27.163 36.0816 27.391 35.8896 27.679C35.6976 27.967 35.4576 28.111 35.1696 28.111C35.0976 28.111 34.6656 28.111 33.8736 28.111C33.0816 28.111 32.0616 28.111 30.8136 28.111C29.5896 28.111 28.1856 28.111 26.6016 28.111C25.0416 28.111 23.4456 28.099 21.8136 28.075C20.2056 28.075 18.6216 28.063 17.0616 28.039C15.5016 28.039 14.0976 28.027 12.8496 28.003C11.6016 28.003 10.5816 27.991 9.78959 27.967C9.02159 27.967 8.60159 27.955 8.52959 27.931C8.14559 27.859 7.95359 27.727 7.95359 27.535C7.95359 27.415 8.06159 27.247 8.27759 27.031C8.39759 26.911 8.50559 26.803 8.60159 26.707C8.69759 26.635 8.79359 26.575 8.88959 26.527C9.00959 26.503 9.14159 26.479 9.28559 26.455C9.45359 26.455 9.66959 26.455 9.93359 26.455C10.0776 26.455 10.5096 26.455 11.2296 26.455C11.9496 26.479 12.8136 26.491 13.8216 26.491C14.8536 26.491 15.9576 26.503 17.1336 26.527C18.3336 26.551 19.4856 26.563 20.5896 26.563C21.6936 26.563 22.6896 26.563 23.5776 26.563C24.4656 26.587 25.1136 26.599 25.5216 26.599H25.5576C26.8536 25.663 27.7776 24.787 28.3296 23.971C28.9056 23.155 29.1936 22.399 29.1936 21.703C29.1936 20.863 28.8216 20.119 28.0776 19.471C27.3576 18.799 26.3736 18.211 25.1256 17.707C23.9016 17.203 22.4736 16.771 20.8416 16.411C19.2096 16.051 17.4936 15.763 15.6936 15.547C14.5416 16.987 13.3896 18.415 12.2376 19.831C11.1096 21.247 10.0896 22.531 9.17759 23.683C8.26559 24.835 7.50959 25.771 6.90959 26.491C6.33359 27.235 6.02159 27.631 5.97359 27.679L5.79359 27.859C5.67359 27.979 5.56559 28.039 5.46959 28.039C5.20559 28.039 5.07359 27.919 5.07359 27.679C5.07359 27.487 5.15759 27.307 5.32559 27.139C5.34959 27.115 5.63759 26.755 6.18959 26.059C6.74159 25.363 7.44959 24.463 8.31359 23.359C9.20159 22.255 10.1856 21.007 11.2656 19.615C12.3696 18.223 13.4736 16.819 14.5776 15.403C13.3296 15.283 12.0816 15.199 10.8336 15.151C9.60959 15.079 8.38559 15.043 7.16159 15.043C6.84959 15.043 6.69359 14.899 6.69359 14.611C6.69359 14.539 6.69359 14.455 6.69359 14.359C6.71759 14.263 6.77759 14.155 6.87359 14.035C7.04159 13.819 7.26959 13.699 7.55759 13.675C7.86959 13.627 8.08559 13.603 8.20559 13.603C8.27759 13.603 8.56559 13.627 9.06959 13.675C9.59759 13.723 10.2096 13.795 10.9056 13.891C11.6256 13.963 12.3816 14.059 13.1736 14.179C13.9656 14.275 14.6856 14.371 15.3336 14.467C16.1736 13.411 17.0016 12.367 17.8176 11.335C18.6336 10.279 19.3536 9.34296 19.9776 8.52696C20.6256 7.71096 21.1416 7.05096 21.5256 6.54696C21.9336 6.01896 22.1496 5.74296 22.1736 5.71896C22.2216 5.64696 22.3416 5.51496 22.5336 5.32296C22.7496 5.13096 22.9536 5.03496 23.1456 5.03496C23.4576 5.03496 23.6136 5.16696 23.6136 5.43096C23.6136 5.69496 23.4816 5.93496 23.2176 6.15096C23.1696 6.19896 22.9776 6.42696 22.6416 6.83496C22.3296 7.21896 21.8976 7.75896 21.3456 8.45496C20.7936 9.12696 20.1576 9.90696 19.4376 10.795C18.7416 11.683 17.9976 12.631 17.2056 13.639L16.5936 14.431C16.5456 14.479 16.5096 14.527 16.4856 14.575C16.4616 14.599 16.4376 14.623 16.4136 14.647ZM3.02159 15.439C1.86959 14.143 1.22159 12.919 1.07759 11.767C0.909594 10.615 1.07759 9.55896 1.58159 8.59896C2.08559 7.63896 2.85359 6.77496 3.88559 6.00696C4.91759 5.21496 6.04559 4.55496 7.26959 4.02696C8.51759 3.49896 9.77759 3.10296 11.0496 2.83896C12.3456 2.57496 13.5096 2.45496 14.5416 2.47896C15.3336 2.50296 16.3176 2.52696 17.4936 2.55096C18.6696 2.57496 19.9416 2.61096 21.3096 2.65896C22.6776 2.68296 24.1056 2.70696 25.5936 2.73096C27.1056 2.75496 28.5816 2.77896 30.0216 2.80296C31.4616 2.82696 32.8296 2.85096 34.1256 2.87496C35.4456 2.87496 36.6216 2.87496 37.6536 2.87496C38.7576 2.87496 39.7176 2.86296 40.5336 2.83896C41.3496 2.81496 41.8536 2.77896 42.0456 2.73096C42.2856 2.65896 42.4896 2.62296 42.6576 2.62296C42.8496 2.62296 42.9456 2.68296 42.9456 2.80296C42.9456 2.89896 42.8736 3.05496 42.7296 3.27096C42.4896 3.58296 42.0816 3.83496 41.5056 4.02696C40.9296 4.19496 40.4016 4.30296 39.9216 4.35096C39.6816 4.37496 39.3456 4.39896 38.9136 4.42296C38.4816 4.42296 37.9896 4.42296 37.4376 4.42296C36.9096 4.42296 36.3336 4.42296 35.7096 4.42296C35.1096 4.42296 34.5216 4.42296 33.9456 4.42296C33.0336 4.42296 31.9896 4.41096 30.8136 4.38696C29.6376 4.36296 28.4016 4.33896 27.1056 4.31496C25.8096 4.26696 24.4776 4.21896 23.1096 4.17096C21.7656 4.12296 20.4456 4.08696 19.1496 4.06296C17.8776 4.01496 16.6656 3.97896 15.5136 3.95496C14.3856 3.93096 13.4016 3.91896 12.5616 3.91896C11.5056 3.91896 10.4136 4.07496 9.28559 4.38696C8.18159 4.67496 7.13759 5.05896 6.15359 5.53896C5.16959 5.99496 4.30559 6.52296 3.56159 7.12296C2.81759 7.69896 2.28959 8.26296 1.97759 8.81496C1.54559 9.60696 1.37759 10.387 1.47359 11.155C1.54559 11.923 1.72559 12.607 2.01359 13.207C2.30159 13.807 2.60159 14.287 2.91359 14.647C3.20159 14.983 3.34559 15.103 3.34559 15.007C3.48959 15.175 3.53759 15.355 3.48959 15.547C3.41759 15.739 3.26159 15.703 3.02159 15.439ZM45.082 23.107C45.082 23.203 45.046 23.275 44.974 23.323L43.354 23.971C43.114 24.067 42.802 24.199 42.418 24.367C42.058 24.511 41.662 24.655 41.23 24.799C40.798 24.943 40.378 25.075 39.97 25.195C39.562 25.291 39.202 25.339 38.89 25.339C38.386 25.339 38.134 25.183 38.134 24.871C38.134 24.775 38.146 24.655 38.17 24.511C38.218 24.343 38.302 24.175 38.422 24.007C38.23 24.151 37.966 24.319 37.63 24.511C37.294 24.679 36.934 24.847 36.55 25.015C36.166 25.159 35.77 25.291 35.362 25.411C34.978 25.531 34.63 25.591 34.318 25.591C33.862 25.591 33.538 25.495 33.346 25.303C33.13 25.135 33.022 24.919 33.022 24.655C33.022 24.199 33.262 23.635 33.742 22.963C34.222 22.291 34.834 21.655 35.578 21.055C36.322 20.431 37.138 19.903 38.026 19.471C38.914 19.039 39.766 18.823 40.582 18.823C40.99 18.823 41.278 18.895 41.446 19.039C41.614 19.183 41.698 19.387 41.698 19.651C41.698 20.035 41.518 20.383 41.158 20.695C40.822 21.007 40.498 21.259 40.186 21.451C40.09 21.499 40.018 21.523 39.97 21.523C39.922 21.523 39.85 21.499 39.754 21.451C39.682 21.379 39.646 21.295 39.646 21.199C39.646 21.079 39.742 20.899 39.934 20.659C40.03 20.563 40.138 20.431 40.258 20.263C40.402 20.071 40.474 19.915 40.474 19.795C40.474 19.699 40.426 19.627 40.33 19.579C40.258 19.507 40.09 19.471 39.826 19.471C39.418 19.471 38.914 19.627 38.314 19.939C37.714 20.227 37.138 20.599 36.586 21.055C36.034 21.487 35.554 21.943 35.146 22.423C34.762 22.903 34.57 23.323 34.57 23.683C34.57 23.947 34.678 24.151 34.894 24.295C35.11 24.415 35.35 24.475 35.614 24.475C35.878 24.475 36.178 24.415 36.514 24.295C36.85 24.175 37.174 24.043 37.486 23.899C37.798 23.755 38.074 23.611 38.314 23.467C38.578 23.299 38.746 23.179 38.818 23.107C38.866 23.059 38.938 22.987 39.034 22.891C39.13 22.795 39.226 22.747 39.322 22.747C39.37 22.747 39.442 22.771 39.538 22.819C39.634 22.867 39.682 22.951 39.682 23.071C39.562 23.263 39.478 23.431 39.43 23.575C39.382 23.719 39.358 23.851 39.358 23.971C39.358 24.283 39.574 24.439 40.006 24.439C40.27 24.439 40.558 24.403 40.87 24.331C41.206 24.235 41.53 24.139 41.842 24.043C42.178 23.923 42.478 23.815 42.742 23.719C43.03 23.599 43.246 23.515 43.39 23.467C43.87 23.275 44.23 23.131 44.47 23.035C44.614 22.963 44.758 22.903 44.902 22.855C44.95 22.855 44.986 22.891 45.01 22.963C45.058 23.011 45.082 23.059 45.082 23.107ZM47.7491 23.863C47.4851 24.295 47.2691 24.619 47.1011 24.835C46.9571 25.027 46.8371 25.159 46.7411 25.231C46.6691 25.303 46.6091 25.327 46.5611 25.303C46.5131 25.303 46.4531 25.303 46.3811 25.303C46.0931 25.303 45.9491 25.171 45.9491 24.907C45.9491 24.691 46.0211 24.451 46.1651 24.187C46.3331 23.923 46.5251 23.659 46.7411 23.395C46.9571 23.131 47.1731 22.891 47.3891 22.675C47.6291 22.435 47.8091 22.243 47.9291 22.099C47.9531 22.075 47.9651 22.039 47.9651 21.991C47.9651 21.919 47.9171 21.883 47.8211 21.883C47.7971 21.883 47.6651 21.943 47.4251 22.063C47.2091 22.183 46.9451 22.327 46.6331 22.495C46.3211 22.639 45.9971 22.795 45.6611 22.963C45.3491 23.131 45.0851 23.263 44.8691 23.359C44.7011 23.431 44.5211 23.503 44.3291 23.575C44.1371 23.647 43.9331 23.731 43.7171 23.827C43.5971 23.827 43.5371 23.743 43.5371 23.575C43.5371 23.479 43.5731 23.407 43.6451 23.359C43.8371 23.287 44.0171 23.227 44.1851 23.179C44.3531 23.107 44.5091 23.035 44.6531 22.963C45.2771 22.699 45.8531 22.423 46.3811 22.135C46.9331 21.823 47.4251 21.535 47.8571 21.271C48.1211 21.127 48.3611 20.983 48.5771 20.839C48.8171 20.695 49.0451 20.539 49.2611 20.371C49.3091 20.347 49.3811 20.323 49.4771 20.299C49.5731 20.251 49.6691 20.227 49.7651 20.227C49.9571 20.227 50.0531 20.359 50.0531 20.623C50.0531 20.815 49.9451 21.055 49.7291 21.343C49.5371 21.607 49.3091 21.895 49.0451 22.207C48.9971 22.255 48.9611 22.303 48.9371 22.351H48.9731C49.4531 22.327 49.9931 22.327 50.5931 22.351C51.1931 22.351 51.7931 22.363 52.3931 22.387C52.5131 22.387 52.6331 22.399 52.7531 22.423C52.8251 22.303 52.8851 22.183 52.9331 22.063C53.0531 21.847 53.1491 21.679 53.2211 21.559C53.6771 20.911 54.0611 20.479 54.3731 20.263C54.6851 20.023 54.9491 19.903 55.1651 19.903C55.2851 19.903 55.3571 19.951 55.3811 20.047C55.4051 20.119 55.4171 20.179 55.4171 20.227C55.4171 20.323 55.3931 20.419 55.3451 20.515L55.2011 20.803C55.1291 20.899 55.0091 21.067 54.8411 21.307C54.6731 21.547 54.5051 21.811 54.3371 22.099C54.1931 22.387 54.0491 22.687 53.9051 22.999C53.7851 23.287 53.7251 23.551 53.7251 23.791C53.7251 24.223 53.9771 24.439 54.4811 24.439C54.7451 24.439 55.0331 24.403 55.3451 24.331C55.6811 24.235 56.0051 24.139 56.3171 24.043C56.6531 23.923 56.9531 23.815 57.2171 23.719C57.5051 23.599 57.7211 23.515 57.8651 23.467C58.3211 23.299 58.6811 23.155 58.9451 23.035C59.1371 22.939 59.2811 22.879 59.3771 22.855C59.4971 22.855 59.5571 22.939 59.5571 23.107C59.5571 23.227 59.5211 23.299 59.4491 23.323L57.8291 23.971C57.5891 24.067 57.2771 24.199 56.8931 24.367C56.5331 24.511 56.1371 24.655 55.7051 24.799C55.2731 24.943 54.8531 25.075 54.4451 25.195C54.0371 25.291 53.6771 25.339 53.3651 25.339C52.9091 25.339 52.5971 25.255 52.4291 25.087C52.2611 24.895 52.1771 24.667 52.1771 24.403C52.1771 24.139 52.2131 23.863 52.2851 23.575C52.3571 23.311 52.4531 23.071 52.5731 22.855H52.3211C51.8891 22.831 51.3851 22.831 50.8091 22.855C50.2331 22.879 49.6331 22.903 49.0091 22.927C48.7931 22.951 48.5891 22.963 48.3971 22.963C48.3731 23.011 48.3371 23.059 48.2891 23.107C48.0251 23.395 47.8451 23.647 47.7491 23.863ZM47.4251 22.927H47.3891C47.3651 22.975 47.3771 22.975 47.4251 22.927ZM85.8494 2.73096C85.8494 3.83496 85.3934 5.01096 84.4814 6.25896C83.5934 7.50696 82.4174 8.76696 80.9534 10.039C79.5134 11.311 77.8814 12.571 76.0574 13.819C74.2574 15.067 72.4334 16.243 70.5854 17.347C68.7374 18.427 66.9614 19.411 65.2574 20.299C63.5534 21.187 62.1014 21.919 60.9014 22.495C60.6614 22.951 60.5414 23.275 60.5414 23.467C60.5414 23.611 60.6014 23.683 60.7214 23.683C61.9934 23.011 63.1934 22.411 64.3214 21.883C65.2814 21.427 66.2294 21.019 67.1654 20.659C68.1014 20.275 68.8094 20.083 69.2894 20.083C69.8894 20.083 70.1894 20.287 70.1894 20.695C70.1894 20.911 70.0814 21.175 69.8654 21.487C69.6494 21.799 69.3374 22.111 68.9294 22.423C68.5454 22.735 68.0654 23.035 67.4894 23.323C66.9374 23.611 66.3134 23.851 65.6174 24.043C65.4734 24.043 65.4014 24.103 65.4014 24.223C65.4014 24.247 65.4254 24.307 65.4734 24.403C65.5454 24.523 65.7014 24.643 65.9414 24.763C66.2054 24.859 66.5774 24.907 67.0574 24.907C67.3454 24.907 67.7054 24.859 68.1374 24.763C68.5934 24.667 69.0614 24.547 69.5414 24.403C70.0214 24.259 70.5014 24.103 70.9814 23.935C71.4854 23.767 71.9174 23.611 72.2774 23.467C72.7574 23.275 73.1174 23.131 73.3574 23.035C73.5014 22.963 73.6454 22.903 73.7894 22.855C73.8374 22.855 73.8734 22.891 73.8974 22.963C73.9454 23.011 73.9694 23.059 73.9694 23.107C73.9694 23.203 73.9334 23.275 73.8614 23.323L72.2414 23.971C71.4254 24.283 70.6214 24.571 69.8294 24.835C69.1334 25.051 68.4014 25.255 67.6334 25.447C66.8894 25.639 66.2174 25.735 65.6174 25.735C64.7774 25.735 64.1774 25.591 63.8174 25.303C63.4814 25.039 63.2774 24.739 63.2054 24.403C63.2054 24.139 63.2894 23.971 63.4574 23.899C63.6494 23.803 63.8774 23.755 64.1414 23.755C64.6454 23.755 65.1734 23.659 65.7254 23.467C66.2774 23.275 66.7814 23.047 67.2374 22.783C67.7174 22.495 68.1014 22.219 68.3894 21.955C68.7014 21.667 68.8574 21.439 68.8574 21.271C68.8574 21.103 68.6894 21.019 68.3534 21.019C67.8494 21.019 67.1894 21.163 66.3734 21.451C65.5814 21.739 64.7294 22.111 63.8174 22.567C62.9294 22.999 62.0054 23.479 61.0454 24.007C60.1094 24.535 59.2454 25.027 58.4534 25.483C58.4054 25.507 58.3334 25.519 58.2374 25.519C58.0934 25.519 58.0214 25.447 58.0214 25.303C58.0214 25.111 58.2734 24.619 58.7774 23.827C59.3054 23.011 60.0014 22.015 60.8654 20.839C61.7534 19.639 62.7854 18.319 63.9614 16.879C65.1614 15.415 66.4334 13.939 67.7774 12.451C69.1214 10.963 70.5134 9.52296 71.9534 8.13096C73.3934 6.71496 74.8094 5.46696 76.2014 4.38696C77.5934 3.28296 78.9254 2.40696 80.1974 1.75896C81.4934 1.08696 82.6454 0.750957 83.6534 0.750957C85.1174 0.750957 85.8494 1.41096 85.8494 2.73096ZM84.3014 2.91096C84.3014 2.55096 84.1814 2.25096 83.9414 2.01096C83.7254 1.74696 83.3894 1.61496 82.9334 1.61496C82.2134 1.61496 81.3974 1.84296 80.4854 2.29896C79.5734 2.73096 78.6014 3.31896 77.5694 4.06296C76.5374 4.80696 75.4694 5.68296 74.3654 6.69096C73.2854 7.67496 72.2054 8.71896 71.1254 9.82296C70.0694 10.927 69.0254 12.055 67.9934 13.207C66.9854 14.359 66.0494 15.475 65.1854 16.555C64.3214 17.635 63.5534 18.643 62.8814 19.579C62.2094 20.491 61.6694 21.271 61.2614 21.919C62.4374 21.391 63.8174 20.695 65.4014 19.831C66.9854 18.943 68.6294 17.959 70.3334 16.879C72.0614 15.799 73.7534 14.647 75.4094 13.423C77.0894 12.199 78.5774 10.975 79.8734 9.75096C81.1934 8.50296 82.2614 7.30296 83.0774 6.15096C83.8934 4.97496 84.3014 3.89496 84.3014 2.91096ZM82.1195 23.107C82.1195 23.203 82.0835 23.275 82.0115 23.323C81.0275 23.731 80.0675 24.091 79.1315 24.403C78.3395 24.667 77.5115 24.919 76.6475 25.159C75.8075 25.399 75.0995 25.519 74.5235 25.519C74.0435 25.519 73.6475 25.411 73.3355 25.195C73.0475 24.955 72.9035 24.655 72.9035 24.295C72.9035 23.959 73.0115 23.647 73.2275 23.359C73.4435 23.071 73.6715 22.819 73.9115 22.603C74.1755 22.387 74.4035 22.207 74.5955 22.063C74.8115 21.919 74.9195 21.835 74.9195 21.811C74.9195 21.763 74.8235 21.727 74.6315 21.703C74.4635 21.679 74.1635 21.631 73.7315 21.559C73.4675 21.511 73.2875 21.439 73.1915 21.343C73.1195 21.223 73.0835 21.103 73.0835 20.983C73.0835 20.815 73.1315 20.671 73.2275 20.551C73.3475 20.407 73.4315 20.311 73.4795 20.263C73.9595 19.951 74.5235 19.639 75.1715 19.327C75.8195 19.015 76.4555 18.739 77.0795 18.499C77.7275 18.259 78.3155 18.067 78.8435 17.923C79.3715 17.779 79.7435 17.707 79.9595 17.707C80.1995 17.707 80.4155 17.767 80.6075 17.887C80.8235 17.983 80.9315 18.163 80.9315 18.427C80.9315 18.547 80.8715 18.679 80.7515 18.823C80.6315 18.943 80.4875 19.063 80.3195 19.183C80.1515 19.279 79.9715 19.363 79.7795 19.435C79.5875 19.507 79.4195 19.543 79.2755 19.543C79.1555 19.543 79.0355 19.519 78.9155 19.471C78.8195 19.423 78.7715 19.339 78.7715 19.219C78.7715 19.075 78.8315 18.919 78.9515 18.751C78.9995 18.703 79.0235 18.655 79.0235 18.607C79.0235 18.559 78.9635 18.535 78.8435 18.535C78.7955 18.535 78.7235 18.547 78.6275 18.571C78.5315 18.571 78.4235 18.583 78.3035 18.607C78.1115 18.655 77.8355 18.751 77.4755 18.895C77.1155 19.015 76.7555 19.159 76.3955 19.327C76.0355 19.495 75.7115 19.651 75.4235 19.795C75.1355 19.939 74.9555 20.035 74.8835 20.083C74.7875 20.155 74.7395 20.227 74.7395 20.299C74.7395 20.419 74.8115 20.503 74.9555 20.551C74.9795 20.551 75.0635 20.563 75.2075 20.587C75.3515 20.587 75.5075 20.599 75.6755 20.623C75.8435 20.623 75.9995 20.623 76.1435 20.623C76.3115 20.623 76.4315 20.623 76.5035 20.623C76.7675 20.647 76.9235 20.695 76.9715 20.767C77.0195 20.839 77.0435 20.959 77.0435 21.127C77.0435 21.247 77.0195 21.367 76.9715 21.487C76.9235 21.607 76.7675 21.691 76.5035 21.739C75.9995 21.859 75.5075 22.063 75.0275 22.351C74.5715 22.639 74.3435 23.023 74.3435 23.503C74.3435 23.839 74.5235 24.091 74.8835 24.259C75.2675 24.403 75.6275 24.475 75.9635 24.475C76.5875 24.475 77.2475 24.391 77.9435 24.223C78.6395 24.031 79.2875 23.839 79.8875 23.647C80.5835 23.407 81.2675 23.143 81.9395 22.855C81.9875 22.855 82.0235 22.891 82.0475 22.963C82.0955 23.011 82.1195 23.059 82.1195 23.107ZM101.864 23.107C101.864 23.203 101.828 23.275 101.756 23.323L100.136 23.971C99.8955 24.067 99.5835 24.199 99.1995 24.367C98.8395 24.511 98.4435 24.655 98.0115 24.799C97.5795 24.943 97.1595 25.075 96.7515 25.195C96.3435 25.291 95.9835 25.339 95.6715 25.339C95.1195 25.339 94.8435 25.075 94.8435 24.547C94.8435 24.187 94.9395 23.767 95.1315 23.287C95.3475 22.783 95.5635 22.327 95.7795 21.919C95.7795 21.823 95.7435 21.775 95.6715 21.775C95.5515 21.775 95.4315 21.823 95.3115 21.919C94.8075 22.303 94.2915 22.699 93.7635 23.107C93.2355 23.491 92.7195 23.839 92.2155 24.151C91.7355 24.463 91.2675 24.715 90.8115 24.907C90.3555 25.099 89.9355 25.195 89.5515 25.195C89.4315 25.195 89.2875 25.159 89.1195 25.087C88.9515 24.991 88.8675 24.871 88.8675 24.727C88.8675 24.535 88.9515 24.283 89.1195 23.971C89.2875 23.635 89.4675 23.299 89.6595 22.963C89.8515 22.627 90.0315 22.327 90.1995 22.063C90.3675 21.799 90.4515 21.631 90.4515 21.559C90.4515 21.535 90.4275 21.523 90.3795 21.523C90.2835 21.523 90.0675 21.619 89.7315 21.811C89.3955 22.003 89.0115 22.243 88.5795 22.531C88.1475 22.795 87.6795 23.095 87.1755 23.431C86.6715 23.767 86.1915 24.079 85.7355 24.367C85.2795 24.631 84.8595 24.859 84.4755 25.051C84.1155 25.243 83.8515 25.339 83.6835 25.339C83.5395 25.339 83.4075 25.291 83.2875 25.195C83.1915 25.099 83.1435 24.979 83.1435 24.835C83.1435 24.643 83.2275 24.427 83.3955 24.187C83.5635 23.923 83.7555 23.671 83.9715 23.431C84.1875 23.167 84.4035 22.915 84.6195 22.675C84.8595 22.435 85.0395 22.243 85.1595 22.099C85.1835 22.075 85.1955 22.039 85.1955 21.991C85.1955 21.919 85.1475 21.883 85.0515 21.883C85.0275 21.883 84.8955 21.943 84.6555 22.063C84.4395 22.183 84.1755 22.327 83.8635 22.495C83.5755 22.639 83.2635 22.795 82.9275 22.963C82.5915 23.131 82.3155 23.263 82.0995 23.359C81.9315 23.431 81.7515 23.503 81.5595 23.575C81.3675 23.647 81.1635 23.731 80.9475 23.827C80.8995 23.827 80.8635 23.803 80.8395 23.755C80.7915 23.683 80.7675 23.623 80.7675 23.575C80.7675 23.455 80.8035 23.383 80.8755 23.359C81.0675 23.287 81.2475 23.227 81.4155 23.179C81.5835 23.107 81.7395 23.035 81.8835 22.963C82.5075 22.699 83.0835 22.423 83.6115 22.135C84.1635 21.823 84.6555 21.535 85.0875 21.271C85.5915 20.983 86.0595 20.683 86.4915 20.371C86.5395 20.347 86.6115 20.323 86.7075 20.299C86.8035 20.251 86.8995 20.227 86.9955 20.227C87.1875 20.227 87.2835 20.359 87.2835 20.623C87.2835 20.815 87.1755 21.055 86.9595 21.343C86.7435 21.631 86.4915 21.931 86.2035 22.243C85.9395 22.531 85.6995 22.819 85.4835 23.107C85.2675 23.371 85.1595 23.575 85.1595 23.719C85.1595 23.911 85.2555 24.007 85.4475 24.007C85.5915 24.007 85.8795 23.875 86.3115 23.611C86.7435 23.323 87.2355 22.999 87.7875 22.639C88.3395 22.279 88.8915 21.919 89.4435 21.559C89.9955 21.199 90.4515 20.923 90.8115 20.731C90.9075 20.659 91.1115 20.527 91.4235 20.335C91.7355 20.119 92.0115 20.011 92.2515 20.011C92.3715 20.011 92.4555 20.059 92.5035 20.155C92.5755 20.227 92.6115 20.323 92.6115 20.443C92.6115 20.635 92.5035 20.887 92.2875 21.199C92.0955 21.511 91.8675 21.835 91.6035 22.171C91.3635 22.483 91.1355 22.795 90.9195 23.107C90.7275 23.395 90.6315 23.611 90.6315 23.755C90.6315 23.971 90.7755 24.079 91.0635 24.079C91.4955 24.079 91.9995 23.863 92.5755 23.431C93.1755 22.999 93.7755 22.519 94.3755 21.991C94.9755 21.463 95.5515 20.983 96.1035 20.551C96.6555 20.119 97.1115 19.903 97.4715 19.903C97.5915 19.903 97.6635 19.951 97.6875 20.047C97.7115 20.119 97.7235 20.179 97.7235 20.227C97.7235 20.323 97.6995 20.419 97.6515 20.515C97.6035 20.611 97.5555 20.707 97.5075 20.803C97.4355 20.899 97.3155 21.067 97.1475 21.307C96.9795 21.547 96.8115 21.811 96.6435 22.099C96.4995 22.387 96.3555 22.687 96.2115 22.999C96.0915 23.287 96.0315 23.551 96.0315 23.791C96.0315 24.223 96.2835 24.439 96.7875 24.439C97.0515 24.439 97.3395 24.403 97.6515 24.331C97.9875 24.235 98.3115 24.139 98.6235 24.043C98.9595 23.923 99.2595 23.815 99.5235 23.719C99.8115 23.599 100.028 23.515 100.172 23.467C100.652 23.275 101.012 23.131 101.252 23.035C101.396 22.963 101.54 22.903 101.684 22.855C101.732 22.855 101.768 22.891 101.792 22.963C101.84 23.011 101.864 23.059 101.864 23.107Z" fill="#565452"></path> </svg> 