<?xml version="1.0" encoding="UTF-8"?> <svg xmlns="http://www.w3.org/2000/svg" width="239" height="45" viewBox="0 0 239 45" fill="none"> <path d="M38.2648 9.41096C38.2648 10.803 38.0128 12.267 37.5088 13.803C37.0288 15.315 36.3328 16.815 35.4208 18.303C34.5088 19.767 33.3928 21.159 32.0728 22.479C30.7528 23.799 29.2648 24.963 27.6088 25.971C25.9768 26.955 24.1888 27.735 22.2448 28.311C20.3008 28.911 18.2368 29.211 16.0528 29.211C14.4208 29.211 13.0408 29.007 11.9128 28.599C10.7848 28.191 9.86078 27.747 9.14078 27.267C8.30078 26.691 7.61678 26.031 7.08878 25.287C6.17678 25.935 5.31278 26.511 4.49678 27.015C4.13678 27.231 3.77678 27.447 3.41678 27.663C3.08078 27.879 2.74478 28.059 2.40878 28.203C2.09678 28.371 1.80878 28.503 1.54478 28.599C1.28078 28.719 1.06478 28.779 0.896781 28.779C0.704781 28.779 0.536781 28.719 0.392781 28.599C0.248781 28.503 0.176781 28.359 0.176781 28.167C0.176781 27.951 0.428781 27.495 0.932781 26.799C1.43678 26.079 2.08478 25.215 2.87678 24.207C3.69278 23.175 4.61678 22.047 5.64878 20.823C6.70478 19.599 7.77278 18.363 8.85278 17.115V16.683C8.85278 14.979 9.14078 13.395 9.71678 11.931C10.3168 10.467 11.1088 9.13496 12.0928 7.93496C13.0768 6.73496 14.2168 5.67896 15.5128 4.76696C16.8088 3.85496 18.1528 3.08696 19.5448 2.46296C20.9608 1.83896 22.3768 1.37096 23.7928 1.05895C25.2328 0.722955 26.5768 0.554955 27.8248 0.554955C29.6488 0.554955 31.2208 0.782955 32.5408 1.23895C33.8608 1.69496 34.9408 2.33096 35.7808 3.14696C36.6208 3.93896 37.2448 4.87496 37.6528 5.95496C38.0608 7.03496 38.2648 8.18696 38.2648 9.41096ZM36.6808 10.455C36.6808 9.25496 36.4648 8.13896 36.0328 7.10696C35.6248 6.05096 34.9768 5.13896 34.0888 4.37096C33.2248 3.60296 32.0968 2.99096 30.7048 2.53496C29.3368 2.07896 27.6808 1.85096 25.7368 1.85096C23.6968 1.85096 21.7408 2.23496 19.8688 3.00296C18.0208 3.74696 16.3768 4.74296 14.9368 5.99096C13.5208 7.23896 12.3808 8.66696 11.5168 10.275C10.6768 11.883 10.2568 13.539 10.2568 15.243V15.531C11.0008 14.691 11.7088 13.887 12.3808 13.119C13.0768 12.327 13.7128 11.607 14.2888 10.959C14.8888 10.287 15.4168 9.69896 15.8728 9.19496C16.3288 8.69096 16.6888 8.29496 16.9528 8.00696C17.0488 7.91096 17.1928 7.79096 17.3848 7.64696C17.5768 7.50296 17.7928 7.43096 18.0328 7.43096C18.2968 7.45496 18.4888 7.47896 18.6088 7.50296C18.7528 7.52696 18.8248 7.59896 18.8248 7.71896C18.8248 7.88696 18.7528 8.04296 18.6088 8.18696C17.5048 9.29096 16.2208 10.611 14.7568 12.147C13.3168 13.659 11.8528 15.231 10.3648 16.863C10.5568 18.303 10.9408 19.575 11.5168 20.679C12.0928 21.783 12.6928 22.647 13.3168 23.271C13.4128 23.367 13.4608 23.451 13.4608 23.523C13.4848 23.595 13.4968 23.655 13.4968 23.703C13.4968 23.823 13.3648 23.979 13.1008 24.171C12.8848 24.315 12.6928 24.387 12.5248 24.387C12.3808 24.387 12.2368 24.339 12.0928 24.243C10.3648 22.515 9.32078 20.559 8.96078 18.375C7.95278 19.479 6.98078 20.559 6.04478 21.615C5.13278 22.647 4.32878 23.595 3.63278 24.459C2.96078 25.299 2.42078 26.019 2.01278 26.619C1.58078 27.195 1.36478 27.579 1.36478 27.771C1.36478 27.891 1.43678 27.951 1.58078 27.951C1.74878 27.951 2.01278 27.855 2.37278 27.663C2.75678 27.471 3.18878 27.243 3.66878 26.979C4.14878 26.691 4.64078 26.379 5.14478 26.043C5.67278 25.707 6.15278 25.395 6.58478 25.107C7.04078 24.795 7.41278 24.531 7.70078 24.315C8.01278 24.099 8.19278 23.967 8.24078 23.919C8.36078 23.799 8.46878 23.739 8.56478 23.739C8.66078 23.739 8.73278 23.799 8.78078 23.919C9.28478 24.759 9.87278 25.455 10.5448 26.007C11.2408 26.535 11.9608 26.943 12.7048 27.231C13.4488 27.543 14.1928 27.747 14.9368 27.843C15.7048 27.963 16.4128 28.023 17.0608 28.023C18.9568 28.023 20.7568 27.759 22.4608 27.231C24.1648 26.727 25.7368 26.043 27.1768 25.179C28.6408 24.291 29.9488 23.271 31.1008 22.119C32.2768 20.943 33.2728 19.707 34.0888 18.411C34.9288 17.115 35.5648 15.783 35.9968 14.415C36.4528 13.047 36.6808 11.727 36.6808 10.455ZM43.7562 25.107C43.7562 25.179 43.7322 25.239 43.6842 25.287C43.6602 25.311 43.6242 25.335 43.5762 25.359C42.0882 26.031 40.8402 26.367 39.8322 26.367C39.2082 26.367 38.7282 26.175 38.3922 25.791C37.7682 26.415 37.0602 26.943 36.2682 27.375C35.5002 27.807 34.7322 28.023 33.9642 28.023C33.6282 28.023 33.3642 27.939 33.1722 27.771C32.9802 27.627 32.8842 27.363 32.8842 26.979C32.8842 26.499 33.1002 25.911 33.5322 25.215C33.9882 24.519 34.5282 23.847 35.1522 23.199C35.7762 22.551 36.4122 21.999 37.0602 21.543C37.7322 21.087 38.2842 20.859 38.7162 20.859C38.8362 20.859 38.9442 20.907 39.0402 21.003C39.1602 21.075 39.2202 21.147 39.2202 21.219C39.2202 21.267 39.1842 21.303 39.1122 21.327C39.0402 21.327 38.9682 21.327 38.8962 21.327C38.6082 21.327 38.2002 21.519 37.6722 21.903C37.1682 22.263 36.6642 22.695 36.1602 23.199C35.6562 23.703 35.2242 24.231 34.8642 24.783C34.5042 25.335 34.3242 25.791 34.3242 26.151C34.3242 26.679 34.5882 26.943 35.1162 26.943C35.5482 26.943 36.0282 26.799 36.5562 26.511C37.1082 26.199 37.6242 25.827 38.1042 25.395C37.9362 25.083 37.8522 24.687 37.8522 24.207C37.8522 23.871 37.9002 23.535 37.9962 23.199C38.1162 22.839 38.2722 22.527 38.4642 22.263C38.6562 21.999 38.8842 21.783 39.1482 21.615C39.4362 21.447 39.7482 21.363 40.0842 21.363C40.5402 21.363 40.7682 21.579 40.7682 22.011C40.7682 22.395 40.6002 22.875 40.2642 23.451C39.9522 24.027 39.5202 24.615 38.9682 25.215C39.2322 25.551 39.6162 25.719 40.1202 25.719C40.4562 25.719 40.8042 25.683 41.1642 25.611C41.5242 25.539 41.8602 25.467 42.1722 25.395C42.5082 25.299 42.7962 25.203 43.0362 25.107C43.2762 25.011 43.4562 24.927 43.5762 24.855H43.6122C43.6602 24.855 43.6962 24.891 43.7202 24.963C43.7442 25.011 43.7562 25.059 43.7562 25.107ZM40.1202 22.587C40.1202 22.251 39.9042 22.083 39.4722 22.083C39.2082 22.083 38.9802 22.263 38.7882 22.623C38.6202 22.959 38.5362 23.343 38.5362 23.775C38.5362 23.967 38.5482 24.147 38.5722 24.315C38.5962 24.483 38.6442 24.651 38.7162 24.819C39.1242 24.411 39.4602 24.003 39.7242 23.595C39.9882 23.187 40.1202 22.851 40.1202 22.587ZM59.8803 25.107C59.8803 25.203 59.8443 25.275 59.7723 25.323C58.7883 25.731 57.8283 26.091 56.8923 26.403C56.1003 26.667 55.2723 26.919 54.4082 27.159C53.5683 27.399 52.8603 27.519 52.2843 27.519C51.7323 27.519 51.2283 27.339 50.7723 26.979C50.3163 26.619 50.0883 26.103 50.0883 25.431C50.0883 24.807 50.3163 24.183 50.7723 23.559C51.2283 22.911 51.7803 22.335 52.4283 21.831C53.1003 21.327 53.8083 20.919 54.5523 20.607C55.2963 20.271 55.9683 20.103 56.5683 20.103C56.7363 20.103 56.8803 20.139 57.0003 20.211C57.2643 20.331 57.3963 20.595 57.3963 21.003C57.3963 21.243 57.3003 21.483 57.1083 21.723C56.9403 21.963 56.7483 22.179 56.5323 22.371C56.2683 22.587 55.9803 22.791 55.6683 22.983C55.6443 22.983 55.5963 22.995 55.5243 23.019C55.3803 23.067 55.2243 23.091 55.0563 23.091C54.9363 23.091 54.8763 23.007 54.8763 22.839C54.8763 22.719 54.9483 22.587 55.0923 22.443C55.2843 22.323 55.5243 22.107 55.8123 21.795C56.1243 21.483 56.2803 21.207 56.2803 20.967C56.2803 20.799 56.1363 20.715 55.8483 20.715C55.4883 20.715 55.0563 20.847 54.5523 21.111C54.0483 21.351 53.5563 21.663 53.0763 22.047C52.6203 22.407 52.2243 22.827 51.8883 23.307C51.5763 23.763 51.4203 24.207 51.4203 24.639C51.4203 25.215 51.6123 25.671 51.9963 26.007C52.4043 26.319 52.9803 26.475 53.7243 26.475C54.3483 26.475 55.0083 26.391 55.7043 26.223C56.4003 26.031 57.0483 25.839 57.6483 25.647C58.3443 25.407 59.0283 25.143 59.7003 24.855C59.7483 24.855 59.7843 24.891 59.8083 24.963C59.8563 25.011 59.8803 25.059 59.8803 25.107ZM81.8411 3.79496C81.8411 4.51496 81.4931 5.45096 80.7971 6.60296C80.1011 7.75496 79.1771 9.01496 78.0251 10.383C76.8971 11.727 75.5891 13.119 74.1011 14.559C72.6371 15.999 71.1371 17.379 69.6011 18.699C68.0651 19.995 66.5411 21.171 65.0291 22.227C63.5411 23.283 62.1971 24.099 60.9971 24.675C61.0211 25.515 61.2131 26.103 61.5731 26.439C61.9571 26.775 62.4011 26.943 62.9051 26.943C63.3851 26.943 63.8531 26.835 64.3091 26.619C64.7651 26.379 65.1731 26.079 65.5331 25.719C65.8931 25.359 66.1811 24.963 66.3971 24.531C66.6131 24.099 66.7211 23.691 66.7211 23.307C66.7211 23.115 66.7091 22.959 66.6851 22.839C66.6611 22.719 66.6491 22.599 66.6491 22.479C66.6491 22.335 66.6971 22.251 66.7931 22.227C66.9131 22.179 67.0331 22.155 67.1531 22.155C67.2011 22.155 67.4531 22.155 67.9091 22.155C68.3891 22.155 68.9531 22.167 69.6011 22.191C70.2731 22.191 70.9931 22.191 71.7611 22.191C72.5291 22.191 73.2491 22.191 73.9211 22.191C74.1371 22.191 74.2451 22.239 74.2451 22.335C74.2451 22.455 74.1371 22.647 73.9211 22.911C73.6811 23.223 73.4171 23.379 73.1291 23.379C73.1051 23.379 73.0571 23.379 72.9851 23.379C72.9131 23.379 72.6971 23.379 72.3371 23.379C72.0011 23.355 71.4611 23.343 70.7171 23.343C69.9731 23.343 68.9291 23.343 67.5851 23.343C67.4651 23.895 67.2131 24.447 66.8291 24.999C66.4451 25.551 65.9891 26.043 65.4611 26.475C64.9571 26.907 64.4171 27.255 63.8411 27.519C63.2651 27.807 62.7131 27.951 62.1851 27.951C61.3451 27.951 60.6971 27.687 60.2411 27.159C59.7851 26.631 59.5571 25.947 59.5571 25.107C59.5571 23.883 59.9051 22.479 60.6011 20.895C61.3211 19.287 62.2571 17.643 63.4091 15.963C64.5851 14.283 65.9051 12.639 67.3691 11.031C68.8331 9.39896 70.3211 7.95896 71.8331 6.71096C73.3691 5.43896 74.8571 4.41896 76.2971 3.65096C77.7371 2.85896 78.9971 2.46296 80.0771 2.46296C81.2531 2.46296 81.8411 2.90696 81.8411 3.79496ZM80.1491 4.40696C80.1491 3.68696 79.7531 3.32696 78.9611 3.32696C78.1931 3.32696 77.2211 3.68696 76.0451 4.40696C74.8691 5.10296 73.6211 6.02696 72.3011 7.17896C71.0051 8.33096 69.6971 9.65096 68.3771 11.139C67.0571 12.603 65.8571 14.115 64.7771 15.675C63.7211 17.211 62.8451 18.723 62.1491 20.211C61.4531 21.675 61.0691 22.995 60.9971 24.171C62.5091 23.355 64.0331 22.383 65.5691 21.255C67.1291 20.103 68.6171 18.903 70.0331 17.655C71.4491 16.383 72.7691 15.087 73.9931 13.767C75.2411 12.447 76.3091 11.199 77.1971 10.023C78.1091 8.82296 78.8291 7.73096 79.3571 6.74696C79.8851 5.76296 80.1491 4.98296 80.1491 4.40696ZM84.1718 25.107C84.1718 25.203 84.1358 25.275 84.0638 25.323L82.4438 25.971C82.2038 26.067 81.8918 26.199 81.5078 26.367C81.1478 26.511 80.7518 26.655 80.3198 26.799C79.8878 26.943 79.4678 27.075 79.0598 27.195C78.6518 27.291 78.2918 27.339 77.9798 27.339C77.4758 27.339 77.2238 27.183 77.2238 26.871C77.2238 26.775 77.2358 26.655 77.2598 26.511C77.3078 26.343 77.3918 26.175 77.5118 26.007C77.3198 26.151 77.0558 26.319 76.7198 26.511C76.3838 26.679 76.0238 26.847 75.6398 27.015C75.2558 27.159 74.8598 27.291 74.4518 27.411C74.0678 27.531 73.7198 27.591 73.4078 27.591C72.9518 27.591 72.6278 27.495 72.4358 27.303C72.2198 27.135 72.1118 26.919 72.1118 26.655C72.1118 26.199 72.3518 25.635 72.8318 24.963C73.3118 24.291 73.9238 23.655 74.6678 23.055C75.4118 22.431 76.2278 21.903 77.1158 21.471C78.0038 21.039 78.8558 20.823 79.6718 20.823C80.0798 20.823 80.3678 20.895 80.5358 21.039C80.7038 21.183 80.7878 21.387 80.7878 21.651C80.7878 22.035 80.6078 22.383 80.2478 22.695C79.9118 23.007 79.5878 23.259 79.2758 23.451C79.1798 23.499 79.1078 23.523 79.0598 23.523C79.0118 23.523 78.9398 23.499 78.8438 23.451C78.7718 23.379 78.7358 23.295 78.7358 23.199C78.7358 23.079 78.8318 22.899 79.0238 22.659C79.1198 22.563 79.2278 22.431 79.3478 22.263C79.4918 22.071 79.5638 21.915 79.5638 21.795C79.5638 21.699 79.5158 21.627 79.4198 21.579C79.3478 21.507 79.1798 21.471 78.9158 21.471C78.5078 21.471 78.0038 21.627 77.4038 21.939C76.8038 22.227 76.2278 22.599 75.6758 23.055C75.1238 23.487 74.6438 23.943 74.2358 24.423C73.8518 24.903 73.6598 25.323 73.6598 25.683C73.6598 25.947 73.7678 26.151 73.9838 26.295C74.1998 26.415 74.4398 26.475 74.7038 26.475C74.9678 26.475 75.2678 26.415 75.6038 26.295C75.9398 26.175 76.2638 26.043 76.5758 25.899C76.8878 25.755 77.1638 25.611 77.4038 25.467C77.6678 25.299 77.8358 25.179 77.9078 25.107C77.9558 25.059 78.0278 24.987 78.1238 24.891C78.2198 24.795 78.3158 24.747 78.4118 24.747C78.4598 24.747 78.5318 24.771 78.6278 24.819C78.7238 24.867 78.7718 24.951 78.7718 25.071C78.6518 25.263 78.5678 25.431 78.5198 25.575C78.4718 25.719 78.4478 25.851 78.4478 25.971C78.4478 26.283 78.6638 26.439 79.0958 26.439C79.3598 26.439 79.6478 26.403 79.9598 26.331C80.2958 26.235 80.6198 26.139 80.9318 26.043C81.2678 25.923 81.5678 25.815 81.8318 25.719C82.1198 25.599 82.3358 25.515 82.4798 25.467C82.9598 25.275 83.3198 25.131 83.5598 25.035C83.7038 24.963 83.8478 24.903 83.9918 24.855C84.0398 24.855 84.0758 24.891 84.0998 24.963C84.1478 25.011 84.1718 25.059 84.1718 25.107ZM96.9549 29.499C96.9549 29.811 96.7989 29.991 96.4869 30.039C96.1989 30.111 95.9229 30.147 95.6589 30.147C95.5629 30.147 95.2629 30.135 94.7589 30.111C94.2549 30.087 93.6669 30.063 92.9949 30.039C92.3469 30.039 91.6509 30.027 90.9069 30.003C90.1869 29.979 89.5389 29.967 88.9629 29.967C88.3389 29.967 87.7269 29.979 87.1269 30.003C86.5509 30.051 85.9749 30.123 85.3989 30.219C84.0309 31.947 82.6509 33.687 81.2589 35.439C79.8429 37.215 78.4989 38.799 77.2269 40.191C75.9309 41.607 74.7549 42.759 73.6989 43.647C72.6189 44.535 71.7549 44.979 71.1069 44.979C70.5549 44.979 70.1229 44.799 69.8109 44.439C69.4989 44.103 69.3429 43.659 69.3429 43.107C69.3429 41.955 69.6909 40.683 70.3869 39.291C71.0829 37.923 72.1149 36.579 73.4829 35.259C74.8509 33.963 76.5429 32.775 78.5589 31.695C80.5749 30.639 82.8909 29.835 85.5069 29.283C86.2269 28.323 86.8029 27.531 87.2349 26.907C87.6909 26.259 87.9189 25.875 87.9189 25.755C87.9189 25.659 87.8829 25.611 87.8109 25.611C87.7389 25.611 87.6429 25.647 87.5229 25.719C87.3789 25.791 87.1869 25.887 86.9469 26.007C86.7309 26.127 86.4789 26.247 86.1909 26.367C85.9029 26.463 85.6029 26.547 85.2909 26.619C85.0029 26.691 84.7269 26.727 84.4629 26.727C84.1269 26.727 83.8269 26.643 83.5629 26.475C83.3229 26.283 83.2029 25.983 83.2029 25.575C83.2029 24.783 83.5389 24.039 84.2109 23.343C84.8829 22.647 85.6749 22.047 86.5869 21.543C87.4989 21.039 88.4109 20.643 89.3229 20.355C90.2589 20.043 90.9669 19.887 91.4469 19.887C91.7349 19.887 92.0229 19.959 92.3109 20.103C92.5989 20.247 92.7549 20.523 92.7789 20.931C92.7789 21.075 92.6949 21.255 92.5269 21.471C92.3589 21.663 92.1549 21.843 91.9149 22.011C91.6749 22.179 91.4349 22.323 91.1949 22.443C90.9789 22.563 90.7989 22.623 90.6549 22.623C90.5109 22.623 90.4029 22.575 90.3309 22.479C90.2589 22.383 90.2229 22.275 90.2229 22.155C90.2229 22.011 90.2829 21.903 90.4029 21.831C90.4509 21.783 90.5229 21.723 90.6189 21.651C90.7389 21.579 90.8589 21.507 90.9789 21.435C91.1709 21.291 91.2669 21.111 91.2669 20.895C91.2669 20.679 91.1229 20.571 90.8349 20.571C90.3309 20.571 89.7429 20.727 89.0709 21.039C88.3989 21.327 87.7509 21.699 87.1269 22.155C86.5269 22.587 86.0109 23.067 85.5789 23.595C85.1469 24.123 84.9309 24.615 84.9309 25.071C84.9309 25.287 85.0149 25.443 85.1829 25.539C85.3509 25.635 85.5309 25.683 85.7229 25.683C86.0589 25.683 86.4189 25.611 86.8029 25.467C87.1869 25.323 87.5589 25.155 87.9189 24.963C88.3029 24.747 88.6629 24.519 88.9989 24.279C89.3589 24.039 89.6589 23.823 89.8989 23.631C89.9949 23.535 90.0909 23.487 90.1869 23.487C90.3069 23.487 90.3669 23.559 90.3669 23.703C90.3669 23.871 90.3069 24.027 90.1869 24.171C89.5869 24.915 88.9509 25.707 88.2789 26.547C87.6069 27.363 86.9229 28.227 86.2269 29.139C87.1629 28.971 88.1229 28.839 89.1069 28.743C90.0909 28.671 91.1229 28.635 92.2029 28.635C93.0189 28.635 93.7149 28.647 94.2909 28.671C94.8909 28.695 95.3109 28.707 95.5509 28.707C96.0549 28.731 96.4149 28.791 96.6309 28.887C96.8469 28.983 96.9549 29.187 96.9549 29.499ZM84.6789 30.327C82.6389 30.711 80.7789 31.323 79.0989 32.163C77.3949 33.003 75.9309 33.963 74.7069 35.043C73.4829 36.147 72.5349 37.335 71.8629 38.607C71.1909 39.879 70.8549 41.139 70.8549 42.387C70.8549 42.771 70.9269 43.107 71.0709 43.395C71.1909 43.683 71.4189 43.827 71.7549 43.827C72.0429 43.827 72.4629 43.611 73.0149 43.179C73.5669 42.771 74.2149 42.219 74.9589 41.523C75.6789 40.827 76.4589 40.011 77.2989 39.075C78.1389 38.163 78.9909 37.203 79.8549 36.195C80.7189 35.211 81.5709 34.203 82.4109 33.171C83.2269 32.163 83.9829 31.215 84.6789 30.327ZM96.4065 25.503C96.7425 25.215 96.9945 24.915 97.1625 24.603C97.3545 24.291 97.4505 24.015 97.4505 23.775C97.4505 23.319 97.2225 23.091 96.7665 23.091C96.5025 23.091 96.2625 23.199 96.0465 23.415C95.8545 23.631 95.7225 23.883 95.6505 24.171C95.6025 24.459 95.6265 24.735 95.7225 24.999C95.8425 25.263 96.0705 25.431 96.4065 25.503ZM96.9465 25.719C97.1865 25.839 97.4865 25.899 97.8465 25.899C98.2065 25.875 98.5665 25.827 98.9265 25.755C99.3105 25.659 99.6585 25.539 99.9705 25.395C100.306 25.251 100.57 25.095 100.762 24.927C100.834 24.879 100.87 24.915 100.87 25.035C100.894 25.155 100.882 25.239 100.834 25.287C100.642 25.527 100.354 25.731 99.9705 25.899C99.6105 26.043 99.2145 26.163 98.7825 26.259C98.3745 26.331 97.9545 26.367 97.5225 26.367C97.1145 26.343 96.7785 26.271 96.5145 26.151C95.8425 26.703 95.2785 27.039 94.8225 27.159C94.3905 27.279 93.8985 27.339 93.3465 27.339C92.4585 27.339 91.9905 26.967 91.9425 26.223C91.9185 25.815 92.0505 25.359 92.3385 24.855C92.6265 24.327 92.9745 23.811 93.3825 23.307C93.8145 22.779 94.2705 22.275 94.7505 21.795C95.2305 21.291 95.6745 20.859 96.0825 20.499C96.6825 19.947 97.1385 19.599 97.4505 19.455C97.7865 19.311 98.0145 19.275 98.1345 19.347C98.2545 19.419 98.3025 19.551 98.2785 19.743C98.2785 19.935 98.2425 20.091 98.1705 20.211C98.1225 20.307 97.9185 20.487 97.5585 20.751C97.1985 20.991 96.6825 21.387 96.0105 21.939C95.2425 22.707 94.5825 23.427 94.0305 24.099C93.4785 24.771 93.2025 25.299 93.2025 25.683C93.2025 25.947 93.3225 26.163 93.5625 26.331C93.8265 26.475 94.0785 26.547 94.3185 26.547C94.6305 26.547 94.8945 26.511 95.1105 26.439C95.3505 26.343 95.6265 26.163 95.9385 25.899C95.5065 25.683 95.2305 25.371 95.1105 24.963C94.9905 24.531 94.9905 24.099 95.1105 23.667C95.2305 23.235 95.4825 22.863 95.8665 22.551C96.2505 22.239 96.7305 22.095 97.3065 22.119C97.7145 22.143 97.9785 22.299 98.0985 22.587C98.2425 22.875 98.2785 23.211 98.2065 23.595C98.1345 23.979 97.9785 24.375 97.7385 24.783C97.5225 25.167 97.2585 25.479 96.9465 25.719ZM107.053 22.587C107.245 21.675 107.245 20.847 107.053 20.103C106.885 19.335 106.657 18.603 106.369 17.907C106.081 17.187 105.793 16.467 105.505 15.747C105.241 15.027 105.109 14.247 105.109 13.407C105.109 12.687 105.505 12.147 106.297 11.787C107.089 11.403 108.013 11.139 109.069 10.995C110.149 10.827 111.217 10.743 112.273 10.743C113.353 10.719 114.181 10.707 114.757 10.707C115.189 10.707 115.549 10.683 115.837 10.635C116.125 10.587 116.329 10.563 116.449 10.563C116.641 10.563 116.737 10.731 116.737 11.067C116.737 11.259 116.605 11.427 116.341 11.571C116.101 11.715 115.789 11.835 115.405 11.931C115.021 12.027 114.613 12.099 114.181 12.147C113.749 12.195 113.353 12.219 112.993 12.219L106.477 12.435C106.093 12.459 105.853 12.615 105.757 12.903C105.661 13.191 105.649 13.575 105.721 14.055C105.817 14.511 105.961 15.027 106.153 15.603C106.369 16.179 106.585 16.767 106.801 17.367C107.017 17.943 107.209 18.495 107.377 19.023C107.545 19.551 107.641 19.995 107.665 20.355C107.713 20.835 107.737 21.291 107.737 21.723C107.737 22.131 107.653 22.551 107.485 22.983C107.341 23.391 107.089 23.823 106.729 24.279C106.393 24.735 105.925 25.239 105.325 25.791C104.653 26.415 103.945 26.943 103.201 27.375C102.457 27.807 101.689 28.023 100.897 28.023C100.177 28.023 99.8166 27.675 99.8166 26.979C99.8166 26.499 100.033 25.911 100.465 25.215C100.921 24.519 101.461 23.847 102.085 23.199C102.709 22.551 103.345 21.999 103.993 21.543C104.665 21.087 105.217 20.859 105.649 20.859C105.769 20.859 105.877 20.907 105.973 21.003C106.093 21.075 106.153 21.147 106.153 21.219C106.153 21.267 106.117 21.303 106.045 21.327C105.973 21.327 105.901 21.327 105.829 21.327C105.541 21.327 105.133 21.519 104.605 21.903C104.101 22.263 103.597 22.695 103.093 23.199C102.589 23.703 102.157 24.231 101.797 24.783C101.437 25.335 101.257 25.791 101.257 26.151C101.257 26.679 101.521 26.943 102.049 26.943C102.625 26.943 103.201 26.739 103.777 26.331C104.377 25.923 104.917 25.467 105.397 24.963C105.877 24.435 106.273 23.943 106.585 23.487C106.897 23.007 107.053 22.707 107.053 22.587ZM112.156 25.503C112.492 25.215 112.744 24.915 112.912 24.603C113.104 24.291 113.2 24.015 113.2 23.775C113.2 23.319 112.972 23.091 112.516 23.091C112.18 23.091 111.904 23.247 111.688 23.559C111.472 23.847 111.364 24.159 111.364 24.495C111.364 25.023 111.628 25.359 112.156 25.503ZM112.696 25.719C112.984 25.791 113.32 25.767 113.704 25.647C114.112 25.503 114.52 25.299 114.928 25.035C115.336 24.771 115.72 24.459 116.08 24.099C116.464 23.739 116.764 23.343 116.98 22.911C117.244 22.407 117.532 22.155 117.844 22.155C118.012 22.155 118.156 22.203 118.276 22.299C118.42 22.371 118.492 22.503 118.492 22.695C118.492 22.743 118.432 22.851 118.312 23.019C118.192 23.163 118.06 23.367 117.916 23.631C117.796 23.871 117.676 24.147 117.556 24.459C117.436 24.771 117.376 25.107 117.376 25.467C117.376 25.731 117.472 25.959 117.664 26.151C117.856 26.343 118.156 26.439 118.564 26.439C118.828 26.439 119.116 26.403 119.428 26.331C119.764 26.235 120.088 26.139 120.4 26.043C120.736 25.923 121.036 25.815 121.3 25.719C121.588 25.599 121.804 25.515 121.948 25.467C122.356 25.347 122.656 25.227 122.848 25.107C123.064 24.987 123.268 24.903 123.46 24.855C123.58 24.855 123.64 24.939 123.64 25.107C123.64 25.227 123.604 25.299 123.532 25.323L121.912 25.971C121.672 26.067 121.36 26.199 120.976 26.367C120.616 26.511 120.22 26.655 119.788 26.799C119.356 26.943 118.936 27.075 118.528 27.195C118.12 27.291 117.76 27.339 117.448 27.339C117.136 27.339 116.884 27.279 116.692 27.159C116.524 27.015 116.38 26.859 116.26 26.691C116.164 26.523 116.092 26.355 116.044 26.187C116.02 26.019 116.008 25.887 116.008 25.791C116.008 25.479 116.068 25.203 116.188 24.963C116.308 24.699 116.404 24.507 116.476 24.387C115.996 24.939 115.408 25.407 114.712 25.791C114.04 26.151 113.224 26.271 112.264 26.151C111.592 26.703 111.028 27.039 110.572 27.159C110.14 27.279 109.648 27.339 109.096 27.339C108.232 27.339 107.8 26.967 107.8 26.223C107.8 25.791 108.016 25.227 108.448 24.531C108.88 23.811 109.384 23.103 109.96 22.407C110.536 21.711 111.1 21.111 111.652 20.607C112.204 20.079 112.588 19.791 112.804 19.743C112.828 19.743 112.924 19.719 113.092 19.671C113.284 19.623 113.404 19.599 113.452 19.599C113.572 19.599 113.668 19.647 113.74 19.743C113.836 19.815 113.884 19.899 113.884 19.995C113.884 20.043 113.8 20.139 113.632 20.283C113.464 20.427 113.26 20.595 113.02 20.787C112.804 20.955 112.576 21.147 112.336 21.363C112.096 21.579 111.904 21.771 111.76 21.939C110.992 22.707 110.332 23.427 109.78 24.099C109.228 24.771 108.952 25.299 108.952 25.683C108.952 25.947 109.072 26.163 109.312 26.331C109.576 26.475 109.828 26.547 110.068 26.547C110.38 26.547 110.644 26.511 110.86 26.439C111.1 26.343 111.376 26.163 111.688 25.899C111.352 25.755 111.112 25.539 110.968 25.251C110.824 24.963 110.752 24.651 110.752 24.315C110.752 23.739 110.944 23.235 111.328 22.803C111.736 22.347 112.312 22.119 113.056 22.119C113.392 22.119 113.632 22.227 113.776 22.443C113.92 22.659 113.992 22.899 113.992 23.163C113.992 23.595 113.896 24.003 113.704 24.387C113.536 24.747 113.2 25.191 112.696 25.719ZM140.577 25.107C140.577 25.179 140.553 25.239 140.505 25.287C140.481 25.311 140.445 25.335 140.396 25.359C138.909 26.031 137.661 26.367 136.653 26.367C136.029 26.367 135.549 26.175 135.213 25.791C134.589 26.415 133.881 26.943 133.089 27.375C132.321 27.807 131.553 28.023 130.785 28.023C130.449 28.023 130.185 27.939 129.993 27.771C129.801 27.627 129.704 27.363 129.704 26.979C129.704 26.499 129.921 25.911 130.353 25.215C130.809 24.519 131.349 23.847 131.973 23.199C132.597 22.551 133.233 21.999 133.881 21.543C134.553 21.087 135.105 20.859 135.537 20.859C135.657 20.859 135.765 20.907 135.861 21.003C135.981 21.075 136.041 21.147 136.041 21.219C136.041 21.267 136.005 21.303 135.933 21.327C135.861 21.327 135.789 21.327 135.717 21.327C135.429 21.327 135.021 21.519 134.493 21.903C133.989 22.263 133.485 22.695 132.981 23.199C132.477 23.703 132.045 24.231 131.685 24.783C131.325 25.335 131.145 25.791 131.145 26.151C131.145 26.679 131.409 26.943 131.937 26.943C132.369 26.943 132.849 26.799 133.377 26.511C133.929 26.199 134.445 25.827 134.925 25.395C134.757 25.083 134.673 24.687 134.673 24.207C134.673 23.871 134.721 23.535 134.817 23.199C134.937 22.839 135.093 22.527 135.285 22.263C135.477 21.999 135.705 21.783 135.969 21.615C136.257 21.447 136.569 21.363 136.905 21.363C137.361 21.363 137.589 21.579 137.589 22.011C137.589 22.395 137.421 22.875 137.085 23.451C136.773 24.027 136.341 24.615 135.789 25.215C136.053 25.551 136.437 25.719 136.941 25.719C137.277 25.719 137.625 25.683 137.985 25.611C138.345 25.539 138.681 25.467 138.993 25.395C139.329 25.299 139.617 25.203 139.857 25.107C140.097 25.011 140.277 24.927 140.396 24.855H140.433C140.481 24.855 140.517 24.891 140.541 24.963C140.565 25.011 140.577 25.059 140.577 25.107ZM136.941 22.587C136.941 22.251 136.725 22.083 136.293 22.083C136.029 22.083 135.801 22.263 135.609 22.623C135.441 22.959 135.357 23.343 135.357 23.775C135.357 23.967 135.369 24.147 135.393 24.315C135.417 24.483 135.465 24.651 135.537 24.819C135.945 24.411 136.281 24.003 136.545 23.595C136.809 23.187 136.941 22.851 136.941 22.587ZM149.494 25.107C149.494 25.203 149.458 25.275 149.386 25.323C148.402 25.731 147.442 26.091 146.506 26.403C145.714 26.667 144.886 26.919 144.022 27.159C143.182 27.399 142.474 27.519 141.898 27.519C141.346 27.519 140.842 27.339 140.386 26.979C139.93 26.619 139.702 26.103 139.702 25.431C139.702 24.807 139.93 24.183 140.386 23.559C140.842 22.911 141.394 22.335 142.042 21.831C142.714 21.327 143.422 20.919 144.166 20.607C144.91 20.271 145.582 20.103 146.182 20.103C146.35 20.103 146.494 20.139 146.614 20.211C146.878 20.331 147.01 20.595 147.01 21.003C147.01 21.243 146.914 21.483 146.722 21.723C146.554 21.963 146.362 22.179 146.146 22.371C145.882 22.587 145.594 22.791 145.282 22.983C145.258 22.983 145.21 22.995 145.138 23.019C144.994 23.067 144.838 23.091 144.67 23.091C144.55 23.091 144.49 23.007 144.49 22.839C144.49 22.719 144.562 22.587 144.706 22.443C144.898 22.323 145.138 22.107 145.426 21.795C145.738 21.483 145.894 21.207 145.894 20.967C145.894 20.799 145.75 20.715 145.462 20.715C145.102 20.715 144.67 20.847 144.166 21.111C143.662 21.351 143.17 21.663 142.69 22.047C142.234 22.407 141.838 22.827 141.502 23.307C141.19 23.763 141.034 24.207 141.034 24.639C141.034 25.215 141.226 25.671 141.61 26.007C142.018 26.319 142.594 26.475 143.338 26.475C143.962 26.475 144.622 26.391 145.318 26.223C146.014 26.031 146.662 25.839 147.262 25.647C147.958 25.407 148.642 25.143 149.314 24.855C149.362 24.855 149.398 24.891 149.422 24.963C149.47 25.011 149.494 25.059 149.494 25.107ZM169.078 25.107C169.078 25.203 169.042 25.275 168.97 25.323L167.35 25.971C167.11 26.067 166.798 26.199 166.414 26.367C166.054 26.511 165.658 26.655 165.226 26.799C164.794 26.943 164.374 27.075 163.966 27.195C163.558 27.291 163.198 27.339 162.886 27.339C162.334 27.339 162.058 27.075 162.058 26.547C162.058 26.187 162.154 25.767 162.346 25.287C162.562 24.783 162.778 24.327 162.994 23.919C162.994 23.823 162.958 23.775 162.886 23.775C162.766 23.775 162.646 23.823 162.526 23.919C162.022 24.303 161.506 24.699 160.978 25.107C160.45 25.491 159.934 25.839 159.43 26.151C158.95 26.463 158.482 26.715 158.026 26.907C157.57 27.099 157.15 27.195 156.766 27.195C156.646 27.195 156.502 27.159 156.334 27.087C156.166 26.991 156.082 26.871 156.082 26.727C156.082 26.535 156.166 26.283 156.334 25.971C156.502 25.635 156.682 25.299 156.874 24.963C157.066 24.627 157.246 24.327 157.414 24.063C157.582 23.799 157.666 23.631 157.666 23.559C157.666 23.535 157.642 23.523 157.594 23.523C157.498 23.523 157.282 23.619 156.946 23.811C156.61 24.003 156.226 24.243 155.794 24.531C155.362 24.795 154.894 25.095 154.39 25.431C153.886 25.767 153.406 26.079 152.95 26.367C152.494 26.631 152.074 26.859 151.69 27.051C151.33 27.243 151.066 27.339 150.898 27.339C150.754 27.339 150.622 27.291 150.502 27.195C150.406 27.099 150.358 26.979 150.358 26.835C150.358 26.643 150.442 26.427 150.61 26.187C150.778 25.923 150.97 25.671 151.186 25.431C151.402 25.167 151.618 24.915 151.834 24.675C152.074 24.435 152.254 24.243 152.374 24.099C152.398 24.075 152.41 24.039 152.41 23.991C152.41 23.919 152.362 23.883 152.266 23.883C152.242 23.883 152.11 23.943 151.87 24.063C151.654 24.183 151.39 24.327 151.078 24.495C150.79 24.639 150.478 24.795 150.142 24.963C149.806 25.131 149.53 25.263 149.314 25.359C149.146 25.431 148.966 25.503 148.774 25.575C148.582 25.647 148.378 25.731 148.162 25.827C148.114 25.827 148.078 25.803 148.054 25.755C148.006 25.683 147.982 25.623 147.982 25.575C147.982 25.455 148.018 25.383 148.09 25.359C148.282 25.287 148.462 25.227 148.63 25.179C148.798 25.107 148.954 25.035 149.098 24.963C149.722 24.699 150.298 24.423 150.826 24.135C151.378 23.823 151.87 23.535 152.302 23.271C152.806 22.983 153.274 22.683 153.706 22.371C153.754 22.347 153.826 22.323 153.922 22.299C154.018 22.251 154.114 22.227 154.21 22.227C154.402 22.227 154.498 22.359 154.498 22.623C154.498 22.815 154.39 23.055 154.174 23.343C153.958 23.631 153.706 23.931 153.418 24.243C153.154 24.531 152.914 24.819 152.698 25.107C152.482 25.371 152.374 25.575 152.374 25.719C152.374 25.911 152.47 26.007 152.662 26.007C152.806 26.007 153.094 25.875 153.526 25.611C153.958 25.323 154.45 24.999 155.002 24.639C155.554 24.279 156.106 23.919 156.658 23.559C157.21 23.199 157.666 22.923 158.026 22.731C158.122 22.659 158.326 22.527 158.638 22.335C158.95 22.119 159.226 22.011 159.466 22.011C159.586 22.011 159.67 22.059 159.718 22.155C159.79 22.227 159.826 22.323 159.826 22.443C159.826 22.635 159.718 22.887 159.502 23.199C159.31 23.511 159.082 23.835 158.818 24.171C158.578 24.483 158.35 24.795 158.134 25.107C157.942 25.395 157.846 25.611 157.846 25.755C157.846 25.971 157.99 26.079 158.278 26.079C158.71 26.079 159.214 25.863 159.79 25.431C160.39 24.999 160.99 24.519 161.59 23.991C162.19 23.463 162.766 22.983 163.318 22.551C163.87 22.119 164.326 21.903 164.686 21.903C164.806 21.903 164.878 21.951 164.902 22.047C164.926 22.119 164.938 22.179 164.938 22.227C164.938 22.323 164.914 22.419 164.866 22.515C164.818 22.611 164.77 22.707 164.722 22.803C164.65 22.899 164.53 23.067 164.362 23.307C164.194 23.547 164.026 23.811 163.858 24.099C163.714 24.387 163.57 24.687 163.426 24.999C163.306 25.287 163.246 25.551 163.246 25.791C163.246 26.223 163.498 26.439 164.002 26.439C164.266 26.439 164.554 26.403 164.866 26.331C165.202 26.235 165.526 26.139 165.838 26.043C166.174 25.923 166.474 25.815 166.738 25.719C167.026 25.599 167.242 25.515 167.386 25.467C167.866 25.275 168.226 25.131 168.466 25.035C168.61 24.963 168.754 24.903 168.898 24.855C168.946 24.855 168.982 24.891 169.006 24.963C169.054 25.011 169.078 25.059 169.078 25.107ZM179.445 25.107C179.445 25.203 179.409 25.275 179.337 25.323L177.717 25.971C177.477 26.067 177.165 26.199 176.781 26.367C176.421 26.511 176.025 26.655 175.593 26.799C175.161 26.943 174.741 27.075 174.333 27.195C173.925 27.291 173.565 27.339 173.253 27.339C172.749 27.339 172.497 27.183 172.497 26.871C172.497 26.775 172.509 26.655 172.533 26.511C172.581 26.343 172.665 26.175 172.785 26.007C172.593 26.151 172.329 26.319 171.993 26.511C171.657 26.679 171.297 26.847 170.913 27.015C170.529 27.159 170.133 27.291 169.725 27.411C169.341 27.531 168.993 27.591 168.681 27.591C168.225 27.591 167.901 27.495 167.709 27.303C167.493 27.135 167.385 26.919 167.385 26.655C167.385 26.199 167.625 25.635 168.105 24.963C168.585 24.291 169.197 23.655 169.941 23.055C170.685 22.431 171.501 21.903 172.389 21.471C173.277 21.039 174.129 20.823 174.945 20.823C175.353 20.823 175.641 20.895 175.809 21.039C175.977 21.183 176.061 21.387 176.061 21.651C176.061 22.035 175.881 22.383 175.521 22.695C175.185 23.007 174.861 23.259 174.549 23.451C174.453 23.499 174.381 23.523 174.333 23.523C174.285 23.523 174.213 23.499 174.117 23.451C174.045 23.379 174.009 23.295 174.009 23.199C174.009 23.079 174.105 22.899 174.297 22.659C174.393 22.563 174.501 22.431 174.621 22.263C174.765 22.071 174.837 21.915 174.837 21.795C174.837 21.699 174.789 21.627 174.693 21.579C174.621 21.507 174.453 21.471 174.189 21.471C173.781 21.471 173.277 21.627 172.677 21.939C172.077 22.227 171.501 22.599 170.949 23.055C170.397 23.487 169.917 23.943 169.509 24.423C169.125 24.903 168.933 25.323 168.933 25.683C168.933 25.947 169.041 26.151 169.257 26.295C169.473 26.415 169.713 26.475 169.977 26.475C170.241 26.475 170.541 26.415 170.877 26.295C171.213 26.175 171.537 26.043 171.849 25.899C172.161 25.755 172.437 25.611 172.677 25.467C172.941 25.299 173.109 25.179 173.181 25.107C173.229 25.059 173.301 24.987 173.397 24.891C173.493 24.795 173.589 24.747 173.685 24.747C173.733 24.747 173.805 24.771 173.901 24.819C173.997 24.867 174.045 24.951 174.045 25.071C173.925 25.263 173.841 25.431 173.793 25.575C173.745 25.719 173.721 25.851 173.721 25.971C173.721 26.283 173.937 26.439 174.369 26.439C174.633 26.439 174.921 26.403 175.233 26.331C175.569 26.235 175.893 26.139 176.205 26.043C176.541 25.923 176.841 25.815 177.105 25.719C177.393 25.599 177.609 25.515 177.753 25.467C178.233 25.275 178.593 25.131 178.833 25.035C178.977 24.963 179.121 24.903 179.265 24.855C179.313 24.855 179.349 24.891 179.373 24.963C179.421 25.011 179.445 25.059 179.445 25.107ZM179.988 25.359C179.988 25.599 180.06 25.815 180.204 26.007C180.348 26.175 180.516 26.259 180.708 26.259C180.924 26.259 181.176 26.199 181.464 26.079C181.776 25.959 182.088 25.815 182.4 25.647C182.736 25.455 183.072 25.239 183.408 24.999C183.768 24.759 184.104 24.519 184.416 24.279C184.776 24.015 185.136 23.727 185.496 23.415C185.88 23.103 186.264 22.779 186.648 22.443C186.816 22.443 186.948 22.479 187.044 22.551C187.164 22.599 187.224 22.719 187.224 22.911C187.224 23.007 187.188 23.103 187.116 23.199C187.044 23.295 186.912 23.547 186.72 23.955C186.552 24.363 186.468 24.771 186.468 25.179C186.468 25.251 186.468 25.359 186.468 25.503C186.492 25.623 186.528 25.755 186.576 25.899C186.648 26.043 186.744 26.175 186.864 26.295C186.984 26.391 187.164 26.439 187.404 26.439C187.668 26.439 187.956 26.403 188.268 26.331C188.604 26.235 188.928 26.139 189.24 26.043C189.576 25.923 189.876 25.815 190.14 25.719C190.428 25.599 190.644 25.515 190.788 25.467C191.244 25.299 191.604 25.155 191.868 25.035C192.06 24.939 192.204 24.879 192.3 24.855C192.42 24.855 192.48 24.939 192.48 25.107C192.48 25.227 192.444 25.299 192.372 25.323L190.752 25.971C190.512 26.067 190.2 26.199 189.816 26.367C189.456 26.511 189.06 26.655 188.628 26.799C188.196 26.943 187.776 27.075 187.368 27.195C186.96 27.291 186.6 27.339 186.288 27.339C185.976 27.339 185.724 27.279 185.532 27.159C185.364 27.015 185.22 26.859 185.1 26.691C185.004 26.523 184.932 26.355 184.884 26.187C184.86 26.019 184.848 25.887 184.848 25.791C184.848 25.431 184.92 25.107 185.064 24.819C185.232 24.507 185.34 24.327 185.388 24.279C185.412 24.255 185.388 24.243 185.316 24.243C185.1 24.411 184.764 24.663 184.308 24.999C183.852 25.311 183.336 25.635 182.76 25.971C182.208 26.307 181.632 26.607 181.032 26.871C180.432 27.111 179.904 27.231 179.448 27.231C179.184 27.231 178.956 27.111 178.764 26.871C178.572 26.631 178.476 26.379 178.476 26.115C178.404 25.827 178.428 25.587 178.548 25.395C178.692 25.179 178.86 25.035 179.052 24.963C179.244 24.867 179.436 24.855 179.628 24.927C179.82 24.975 179.94 25.119 179.988 25.359ZM201.924 25.107C201.924 25.179 201.9 25.239 201.852 25.287C201.828 25.311 201.792 25.335 201.744 25.359C200.256 26.031 199.008 26.367 198 26.367C197.376 26.367 196.896 26.175 196.56 25.791C195.936 26.415 195.228 26.943 194.436 27.375C193.668 27.807 192.9 28.023 192.132 28.023C191.796 28.023 191.532 27.939 191.34 27.771C191.148 27.627 191.052 27.363 191.052 26.979C191.052 26.499 191.268 25.911 191.7 25.215C192.156 24.519 192.696 23.847 193.32 23.199C193.944 22.551 194.58 21.999 195.228 21.543C195.9 21.087 196.452 20.859 196.884 20.859C197.004 20.859 197.112 20.907 197.208 21.003C197.328 21.075 197.388 21.147 197.388 21.219C197.388 21.267 197.352 21.303 197.28 21.327C197.208 21.327 197.136 21.327 197.064 21.327C196.776 21.327 196.368 21.519 195.84 21.903C195.336 22.263 194.832 22.695 194.328 23.199C193.824 23.703 193.392 24.231 193.032 24.783C192.672 25.335 192.492 25.791 192.492 26.151C192.492 26.679 192.756 26.943 193.284 26.943C193.716 26.943 194.196 26.799 194.724 26.511C195.276 26.199 195.792 25.827 196.272 25.395C196.104 25.083 196.02 24.687 196.02 24.207C196.02 23.871 196.068 23.535 196.164 23.199C196.284 22.839 196.44 22.527 196.632 22.263C196.824 21.999 197.052 21.783 197.316 21.615C197.604 21.447 197.916 21.363 198.252 21.363C198.708 21.363 198.936 21.579 198.936 22.011C198.936 22.395 198.768 22.875 198.432 23.451C198.12 24.027 197.688 24.615 197.136 25.215C197.4 25.551 197.784 25.719 198.288 25.719C198.624 25.719 198.972 25.683 199.332 25.611C199.692 25.539 200.028 25.467 200.34 25.395C200.676 25.299 200.964 25.203 201.204 25.107C201.444 25.011 201.624 24.927 201.744 24.855H201.78C201.828 24.855 201.864 24.891 201.888 24.963C201.912 25.011 201.924 25.059 201.924 25.107ZM198.288 22.587C198.288 22.251 198.072 22.083 197.64 22.083C197.376 22.083 197.148 22.263 196.956 22.623C196.788 22.959 196.704 23.343 196.704 23.775C196.704 23.967 196.716 24.147 196.74 24.315C196.764 24.483 196.812 24.651 196.884 24.819C197.292 24.411 197.628 24.003 197.892 23.595C198.156 23.187 198.288 22.851 198.288 22.587ZM210.841 25.107C210.841 25.203 210.805 25.275 210.733 25.323C209.749 25.731 208.789 26.091 207.853 26.403C207.061 26.667 206.233 26.919 205.369 27.159C204.529 27.399 203.821 27.519 203.245 27.519C202.693 27.519 202.189 27.339 201.733 26.979C201.277 26.619 201.049 26.103 201.049 25.431C201.049 24.807 201.277 24.183 201.733 23.559C202.189 22.911 202.741 22.335 203.389 21.831C204.061 21.327 204.769 20.919 205.513 20.607C206.257 20.271 206.929 20.103 207.529 20.103C207.697 20.103 207.841 20.139 207.961 20.211C208.225 20.331 208.357 20.595 208.357 21.003C208.357 21.243 208.261 21.483 208.069 21.723C207.901 21.963 207.709 22.179 207.493 22.371C207.229 22.587 206.941 22.791 206.629 22.983C206.605 22.983 206.557 22.995 206.485 23.019C206.341 23.067 206.185 23.091 206.017 23.091C205.897 23.091 205.837 23.007 205.837 22.839C205.837 22.719 205.909 22.587 206.053 22.443C206.245 22.323 206.485 22.107 206.773 21.795C207.085 21.483 207.241 21.207 207.241 20.967C207.241 20.799 207.097 20.715 206.809 20.715C206.449 20.715 206.017 20.847 205.513 21.111C205.009 21.351 204.517 21.663 204.037 22.047C203.581 22.407 203.185 22.827 202.849 23.307C202.537 23.763 202.381 24.207 202.381 24.639C202.381 25.215 202.573 25.671 202.957 26.007C203.365 26.319 203.941 26.475 204.685 26.475C205.309 26.475 205.969 26.391 206.665 26.223C207.361 26.031 208.009 25.839 208.609 25.647C209.305 25.407 209.989 25.143 210.661 24.855C210.709 24.855 210.745 24.891 210.769 24.963C210.817 25.011 210.841 25.059 210.841 25.107ZM213.758 25.503C214.094 25.215 214.346 24.915 214.514 24.603C214.706 24.291 214.802 24.015 214.802 23.775C214.802 23.319 214.574 23.091 214.118 23.091C213.854 23.091 213.614 23.199 213.398 23.415C213.206 23.631 213.074 23.883 213.002 24.171C212.954 24.459 212.978 24.735 213.074 24.999C213.194 25.263 213.422 25.431 213.758 25.503ZM214.298 25.719C214.538 25.839 214.838 25.899 215.198 25.899C215.558 25.875 215.918 25.827 216.278 25.755C216.662 25.659 217.01 25.539 217.322 25.395C217.658 25.251 217.922 25.095 218.114 24.927C218.186 24.879 218.222 24.915 218.222 25.035C218.246 25.155 218.234 25.239 218.186 25.287C217.994 25.527 217.706 25.731 217.322 25.899C216.962 26.043 216.566 26.163 216.134 26.259C215.726 26.331 215.306 26.367 214.874 26.367C214.466 26.343 214.13 26.271 213.866 26.151C213.194 26.703 212.63 27.039 212.174 27.159C211.742 27.279 211.25 27.339 210.698 27.339C209.81 27.339 209.342 26.967 209.294 26.223C209.27 25.815 209.402 25.359 209.69 24.855C209.978 24.327 210.326 23.811 210.734 23.307C211.166 22.779 211.622 22.275 212.102 21.795C212.582 21.291 213.026 20.859 213.434 20.499C214.034 19.947 214.49 19.599 214.802 19.455C215.138 19.311 215.366 19.275 215.486 19.347C215.606 19.419 215.654 19.551 215.63 19.743C215.63 19.935 215.594 20.091 215.522 20.211C215.474 20.307 215.27 20.487 214.91 20.751C214.55 20.991 214.034 21.387 213.362 21.939C212.594 22.707 211.934 23.427 211.382 24.099C210.83 24.771 210.554 25.299 210.554 25.683C210.554 25.947 210.674 26.163 210.914 26.331C211.178 26.475 211.43 26.547 211.67 26.547C211.982 26.547 212.246 26.511 212.462 26.439C212.702 26.343 212.978 26.163 213.29 25.899C212.858 25.683 212.582 25.371 212.462 24.963C212.342 24.531 212.342 24.099 212.462 23.667C212.582 23.235 212.834 22.863 213.218 22.551C213.602 22.239 214.082 22.095 214.658 22.119C215.066 22.143 215.33 22.299 215.45 22.587C215.594 22.875 215.63 23.211 215.558 23.595C215.486 23.979 215.33 24.375 215.09 24.783C214.874 25.167 214.61 25.479 214.298 25.719ZM238.084 6.09896C238.084 6.26696 237.988 6.45896 237.796 6.67496C236.212 8.37896 234.604 10.155 232.972 12.003C232.276 12.795 231.544 13.647 230.776 14.559C230.008 15.471 229.228 16.419 228.436 17.403C227.668 18.363 226.888 19.359 226.096 20.391C225.328 21.423 224.596 22.443 223.9 23.451C223.828 23.571 223.744 23.679 223.648 23.775C223.552 23.871 223.444 23.919 223.324 23.919C223.156 23.919 223.048 23.859 223 23.739C222.976 23.619 222.964 23.463 222.964 23.271C223.876 21.951 224.692 20.775 225.412 19.743C226.156 18.711 226.852 17.763 227.5 16.899C228.172 16.035 228.808 15.219 229.408 14.451C230.032 13.659 230.692 12.843 231.388 12.003C232.108 11.163 232.888 10.263 233.728 9.30296C234.592 8.34296 235.564 7.26296 236.644 6.06296C236.836 5.89496 236.98 5.78696 237.076 5.73896C237.196 5.69096 237.304 5.66696 237.4 5.66696C237.52 5.66696 237.664 5.70296 237.832 5.77496C238 5.82296 238.084 5.93096 238.084 6.09896ZM222.64 26.835C222.616 27.291 222.424 27.675 222.064 27.987C221.704 28.299 221.368 28.455 221.056 28.455C220.768 28.455 220.54 28.371 220.372 28.203C220.228 28.035 220.156 27.867 220.156 27.699C220.156 27.291 220.312 26.919 220.624 26.583C220.96 26.247 221.332 26.079 221.74 26.079C221.956 26.055 222.124 26.091 222.244 26.187C222.388 26.259 222.484 26.343 222.532 26.439C222.604 26.535 222.64 26.667 222.64 26.835Z" fill="#565452"></path> </svg> 