<?xml version="1.0" encoding="UTF-8"?> <svg xmlns="http://www.w3.org/2000/svg" width="100" height="30" viewBox="0 0 100 30" fill="none"> <path d="M38.9855 9.41096C38.9855 10.803 38.7335 12.267 38.2295 13.803C37.7495 15.315 37.0535 16.815 36.1415 18.303C35.2295 19.767 34.1135 21.159 32.7935 22.479C31.4735 23.799 29.9855 24.963 28.3295 25.971C26.6975 26.955 24.9095 27.735 22.9655 28.311C21.0215 28.911 18.9575 29.211 16.7735 29.211C15.1415 29.211 13.7615 29.007 12.6335 28.599C11.5055 28.191 10.5815 27.747 9.86148 27.267C9.02148 26.691 8.33748 26.031 7.80948 25.287C6.89748 25.935 6.03348 26.511 5.21748 27.015C4.85748 27.231 4.49748 27.447 4.13748 27.663C3.80148 27.879 3.46548 28.059 3.12948 28.203C2.81748 28.371 2.52948 28.503 2.26548 28.599C2.00148 28.719 1.78548 28.779 1.61748 28.779C1.42548 28.779 1.25748 28.719 1.11348 28.599C0.969484 28.503 0.897484 28.359 0.897484 28.167C0.897484 27.951 1.14948 27.495 1.65348 26.799C2.15748 26.079 2.80548 25.215 3.59748 24.207C4.41348 23.175 5.33748 22.047 6.36948 20.823C7.42548 19.599 8.49348 18.363 9.57348 17.115V16.683C9.57348 14.979 9.86148 13.395 10.4375 11.931C11.0375 10.467 11.8295 9.13496 12.8135 7.93496C13.7975 6.73496 14.9375 5.67896 16.2335 4.76696C17.5295 3.85496 18.8735 3.08696 20.2655 2.46296C21.6815 1.83896 23.0975 1.37096 24.5135 1.05895C25.9535 0.722955 27.2975 0.554955 28.5455 0.554955C30.3695 0.554955 31.9415 0.782955 33.2615 1.23895C34.5815 1.69496 35.6615 2.33096 36.5015 3.14696C37.3415 3.93896 37.9655 4.87496 38.3735 5.95496C38.7815 7.03496 38.9855 8.18696 38.9855 9.41096ZM37.4015 10.455C37.4015 9.25496 37.1855 8.13896 36.7535 7.10696C36.3455 6.05096 35.6975 5.13896 34.8095 4.37096C33.9455 3.60296 32.8175 2.99096 31.4255 2.53496C30.0575 2.07896 28.4015 1.85096 26.4575 1.85096C24.4175 1.85096 22.4615 2.23496 20.5895 3.00296C18.7415 3.74696 17.0975 4.74296 15.6575 5.99096C14.2415 7.23896 13.1015 8.66696 12.2375 10.275C11.3975 11.883 10.9775 13.539 10.9775 15.243V15.531C11.7215 14.691 12.4295 13.887 13.1015 13.119C13.7975 12.327 14.4335 11.607 15.0095 10.959C15.6095 10.287 16.1375 9.69896 16.5935 9.19496C17.0495 8.69096 17.4095 8.29496 17.6735 8.00696C17.7695 7.91096 17.9135 7.79096 18.1055 7.64696C18.2975 7.50296 18.5135 7.43096 18.7535 7.43096C19.0175 7.45496 19.2095 7.47896 19.3295 7.50296C19.4735 7.52696 19.5455 7.59896 19.5455 7.71896C19.5455 7.88696 19.4735 8.04296 19.3295 8.18696C18.2255 9.29096 16.9415 10.611 15.4775 12.147C14.0375 13.659 12.5735 15.231 11.0855 16.863C11.2775 18.303 11.6615 19.575 12.2375 20.679C12.8135 21.783 13.4135 22.647 14.0375 23.271C14.1335 23.367 14.1815 23.451 14.1815 23.523C14.2055 23.595 14.2175 23.655 14.2175 23.703C14.2175 23.823 14.0855 23.979 13.8215 24.171C13.6055 24.315 13.4135 24.387 13.2455 24.387C13.1015 24.387 12.9575 24.339 12.8135 24.243C11.0855 22.515 10.0415 20.559 9.68148 18.375C8.67348 19.479 7.70148 20.559 6.76548 21.615C5.85348 22.647 5.04948 23.595 4.35348 24.459C3.68148 25.299 3.14148 26.019 2.73348 26.619C2.30148 27.195 2.08548 27.579 2.08548 27.771C2.08548 27.891 2.15748 27.951 2.30148 27.951C2.46948 27.951 2.73348 27.855 3.09348 27.663C3.47748 27.471 3.90948 27.243 4.38948 26.979C4.86948 26.691 5.36148 26.379 5.86548 26.043C6.39348 25.707 6.87348 25.395 7.30548 25.107C7.76148 24.795 8.13348 24.531 8.42148 24.315C8.73348 24.099 8.91348 23.967 8.96148 23.919C9.08148 23.799 9.18948 23.739 9.28548 23.739C9.38148 23.739 9.45348 23.799 9.50148 23.919C10.0055 24.759 10.5935 25.455 11.2655 26.007C11.9615 26.535 12.6815 26.943 13.4255 27.231C14.1695 27.543 14.9135 27.747 15.6575 27.843C16.4255 27.963 17.1335 28.023 17.7815 28.023C19.6775 28.023 21.4775 27.759 23.1815 27.231C24.8855 26.727 26.4575 26.043 27.8975 25.179C29.3615 24.291 30.6695 23.271 31.8215 22.119C32.9975 20.943 33.9935 19.707 34.8095 18.411C35.6495 17.115 36.2855 15.783 36.7175 14.415C37.1735 13.047 37.4015 11.727 37.4015 10.455ZM43.1449 25.107C43.1449 25.203 43.1089 25.275 43.0369 25.323C42.0529 25.731 41.0929 26.091 40.1569 26.403C39.3649 26.667 38.5369 26.919 37.6729 27.159C36.8329 27.399 36.1249 27.519 35.5489 27.519C35.0689 27.519 34.6729 27.411 34.3609 27.195C34.0729 26.955 33.9289 26.655 33.9289 26.295C33.9289 25.959 34.0369 25.647 34.2529 25.359C34.4689 25.071 34.6969 24.819 34.9369 24.603C35.2009 24.387 35.4289 24.207 35.6209 24.063C35.8369 23.919 35.9449 23.835 35.9449 23.811C35.9449 23.763 35.8489 23.727 35.6569 23.703C35.4889 23.679 35.1889 23.631 34.7569 23.559C34.4929 23.511 34.3129 23.439 34.2169 23.343C34.1449 23.223 34.1089 23.103 34.1089 22.983C34.1089 22.815 34.1569 22.671 34.2529 22.551C34.3729 22.407 34.4569 22.311 34.5049 22.263C34.9849 21.951 35.5489 21.639 36.1969 21.327C36.8449 21.015 37.4809 20.739 38.1049 20.499C38.7529 20.259 39.3409 20.067 39.8689 19.923C40.3969 19.779 40.7689 19.707 40.9849 19.707C41.2249 19.707 41.4409 19.767 41.6329 19.887C41.8489 19.983 41.9569 20.163 41.9569 20.427C41.9569 20.547 41.8969 20.679 41.7769 20.823C41.6569 20.943 41.5129 21.063 41.3449 21.183C41.1769 21.279 40.9969 21.363 40.8049 21.435C40.6129 21.507 40.4449 21.543 40.3009 21.543C40.1809 21.543 40.0609 21.519 39.9409 21.471C39.8449 21.423 39.7969 21.339 39.7969 21.219C39.7969 21.075 39.8569 20.919 39.9769 20.751C40.0249 20.703 40.0489 20.655 40.0489 20.607C40.0489 20.559 39.9889 20.535 39.8689 20.535C39.8209 20.535 39.7489 20.547 39.6529 20.571C39.5569 20.571 39.4489 20.583 39.3289 20.607C39.1369 20.655 38.8609 20.751 38.5009 20.895C38.1409 21.015 37.7809 21.159 37.4209 21.327C37.0609 21.495 36.7369 21.651 36.4489 21.795C36.1609 21.939 35.9809 22.035 35.9089 22.083C35.8129 22.155 35.7649 22.227 35.7649 22.299C35.7649 22.419 35.8369 22.503 35.9809 22.551C36.0049 22.551 36.0889 22.563 36.2329 22.587C36.3769 22.587 36.5329 22.599 36.7009 22.623C36.8689 22.623 37.0249 22.623 37.1689 22.623C37.3369 22.623 37.4569 22.623 37.5289 22.623C37.7929 22.647 37.9489 22.695 37.9969 22.767C38.0449 22.839 38.0689 22.959 38.0689 23.127C38.0689 23.247 38.0449 23.367 37.9969 23.487C37.9489 23.607 37.7929 23.691 37.5289 23.739C37.0249 23.859 36.5329 24.063 36.0529 24.351C35.5969 24.639 35.3689 25.023 35.3689 25.503C35.3689 25.839 35.5489 26.091 35.9089 26.259C36.2929 26.403 36.6529 26.475 36.9889 26.475C37.6129 26.475 38.2729 26.391 38.9689 26.223C39.6649 26.031 40.3129 25.839 40.9129 25.647C41.6089 25.407 42.2929 25.143 42.9649 24.855C43.0129 24.855 43.0489 24.891 43.0729 24.963C43.1209 25.011 43.1449 25.059 43.1449 25.107ZM62.8889 25.107C62.8889 25.203 62.8529 25.275 62.7809 25.323L61.1609 25.971C60.9209 26.067 60.6089 26.199 60.2249 26.367C59.8649 26.511 59.4689 26.655 59.0369 26.799C58.6049 26.943 58.1849 27.075 57.7769 27.195C57.3689 27.291 57.0089 27.339 56.6969 27.339C56.1449 27.339 55.8689 27.075 55.8689 26.547C55.8689 26.187 55.9649 25.767 56.1569 25.287C56.3729 24.783 56.5889 24.327 56.8049 23.919C56.8049 23.823 56.7689 23.775 56.6969 23.775C56.5769 23.775 56.4569 23.823 56.3369 23.919C55.8329 24.303 55.3169 24.699 54.7889 25.107C54.2609 25.491 53.7449 25.839 53.2409 26.151C52.7609 26.463 52.2929 26.715 51.8369 26.907C51.3809 27.099 50.9609 27.195 50.5769 27.195C50.4569 27.195 50.3129 27.159 50.1449 27.087C49.9769 26.991 49.8929 26.871 49.8929 26.727C49.8929 26.535 49.9769 26.283 50.1449 25.971C50.3129 25.635 50.4929 25.299 50.6849 24.963C50.8769 24.627 51.0569 24.327 51.2249 24.063C51.3929 23.799 51.4769 23.631 51.4769 23.559C51.4769 23.535 51.4529 23.523 51.4049 23.523C51.3089 23.523 51.0929 23.619 50.7569 23.811C50.4209 24.003 50.0369 24.243 49.6049 24.531C49.1729 24.795 48.7049 25.095 48.2009 25.431C47.6969 25.767 47.2169 26.079 46.7609 26.367C46.3049 26.631 45.8849 26.859 45.5009 27.051C45.1409 27.243 44.8769 27.339 44.7089 27.339C44.5649 27.339 44.4329 27.291 44.3129 27.195C44.2169 27.099 44.1689 26.979 44.1689 26.835C44.1689 26.643 44.2529 26.427 44.4209 26.187C44.5889 25.923 44.7809 25.671 44.9969 25.431C45.2129 25.167 45.4289 24.915 45.6449 24.675C45.8849 24.435 46.0649 24.243 46.1849 24.099C46.2089 24.075 46.2209 24.039 46.2209 23.991C46.2209 23.919 46.1729 23.883 46.0769 23.883C46.0529 23.883 45.9209 23.943 45.6809 24.063C45.4649 24.183 45.2009 24.327 44.8889 24.495C44.6009 24.639 44.2889 24.795 43.9529 24.963C43.6169 25.131 43.3409 25.263 43.1249 25.359C42.9569 25.431 42.7769 25.503 42.5849 25.575C42.3929 25.647 42.1889 25.731 41.9729 25.827C41.9249 25.827 41.8889 25.803 41.8649 25.755C41.8169 25.683 41.7929 25.623 41.7929 25.575C41.7929 25.455 41.8289 25.383 41.9009 25.359C42.0929 25.287 42.2729 25.227 42.4409 25.179C42.6089 25.107 42.7649 25.035 42.9089 24.963C43.5329 24.699 44.1089 24.423 44.6369 24.135C45.1889 23.823 45.6809 23.535 46.1129 23.271C46.6169 22.983 47.0849 22.683 47.5169 22.371C47.5649 22.347 47.6369 22.323 47.7329 22.299C47.8289 22.251 47.9249 22.227 48.0209 22.227C48.2129 22.227 48.3089 22.359 48.3089 22.623C48.3089 22.815 48.2009 23.055 47.9849 23.343C47.7689 23.631 47.5169 23.931 47.2289 24.243C46.9649 24.531 46.7249 24.819 46.5089 25.107C46.2929 25.371 46.1849 25.575 46.1849 25.719C46.1849 25.911 46.2809 26.007 46.4729 26.007C46.6169 26.007 46.9049 25.875 47.3369 25.611C47.7689 25.323 48.2609 24.999 48.8129 24.639C49.3649 24.279 49.9169 23.919 50.4689 23.559C51.0209 23.199 51.4769 22.923 51.8369 22.731C51.9329 22.659 52.1369 22.527 52.4489 22.335C52.7609 22.119 53.0369 22.011 53.2769 22.011C53.3969 22.011 53.4809 22.059 53.5289 22.155C53.6009 22.227 53.6369 22.323 53.6369 22.443C53.6369 22.635 53.5289 22.887 53.3129 23.199C53.1209 23.511 52.8929 23.835 52.6289 24.171C52.3889 24.483 52.1609 24.795 51.9449 25.107C51.7529 25.395 51.6569 25.611 51.6569 25.755C51.6569 25.971 51.8009 26.079 52.0889 26.079C52.5209 26.079 53.0249 25.863 53.6009 25.431C54.2009 24.999 54.8009 24.519 55.4009 23.991C56.0009 23.463 56.5769 22.983 57.1289 22.551C57.6809 22.119 58.1369 21.903 58.4969 21.903C58.6169 21.903 58.6889 21.951 58.7129 22.047C58.7369 22.119 58.7489 22.179 58.7489 22.227C58.7489 22.323 58.7249 22.419 58.6769 22.515C58.6289 22.611 58.5809 22.707 58.5329 22.803C58.4609 22.899 58.3409 23.067 58.1729 23.307C58.0049 23.547 57.8369 23.811 57.6689 24.099C57.5249 24.387 57.3809 24.687 57.2369 24.999C57.1169 25.287 57.0569 25.551 57.0569 25.791C57.0569 26.223 57.3089 26.439 57.8129 26.439C58.0769 26.439 58.3649 26.403 58.6769 26.331C59.0129 26.235 59.3369 26.139 59.6489 26.043C59.9849 25.923 60.2849 25.815 60.5489 25.719C60.8369 25.599 61.0529 25.515 61.1969 25.467C61.6769 25.275 62.0369 25.131 62.2769 25.035C62.4209 24.963 62.5649 24.903 62.7089 24.855C62.7569 24.855 62.7929 24.891 62.8169 24.963C62.8649 25.011 62.8889 25.059 62.8889 25.107ZM73.2558 25.107C73.2558 25.203 73.2198 25.275 73.1478 25.323L71.5278 25.971C71.2878 26.067 70.9758 26.199 70.5918 26.367C70.2318 26.511 69.8358 26.655 69.4038 26.799C68.9718 26.943 68.5518 27.075 68.1438 27.195C67.7358 27.291 67.3758 27.339 67.0638 27.339C66.5598 27.339 66.3078 27.183 66.3078 26.871C66.3078 26.775 66.3198 26.655 66.3438 26.511C66.3918 26.343 66.4758 26.175 66.5958 26.007C66.4038 26.151 66.1398 26.319 65.8038 26.511C65.4678 26.679 65.1078 26.847 64.7238 27.015C64.3398 27.159 63.9438 27.291 63.5358 27.411C63.1518 27.531 62.8038 27.591 62.4918 27.591C62.0358 27.591 61.7118 27.495 61.5198 27.303C61.3038 27.135 61.1958 26.919 61.1958 26.655C61.1958 26.199 61.4358 25.635 61.9158 24.963C62.3958 24.291 63.0078 23.655 63.7518 23.055C64.4958 22.431 65.3118 21.903 66.1998 21.471C67.0878 21.039 67.9398 20.823 68.7558 20.823C69.1638 20.823 69.4518 20.895 69.6198 21.039C69.7878 21.183 69.8718 21.387 69.8718 21.651C69.8718 22.035 69.6918 22.383 69.3318 22.695C68.9958 23.007 68.6718 23.259 68.3598 23.451C68.2638 23.499 68.1918 23.523 68.1438 23.523C68.0958 23.523 68.0238 23.499 67.9278 23.451C67.8558 23.379 67.8198 23.295 67.8198 23.199C67.8198 23.079 67.9158 22.899 68.1078 22.659C68.2038 22.563 68.3118 22.431 68.4318 22.263C68.5758 22.071 68.6478 21.915 68.6478 21.795C68.6478 21.699 68.5998 21.627 68.5038 21.579C68.4318 21.507 68.2638 21.471 67.9998 21.471C67.5918 21.471 67.0878 21.627 66.4878 21.939C65.8878 22.227 65.3118 22.599 64.7598 23.055C64.2078 23.487 63.7278 23.943 63.3198 24.423C62.9358 24.903 62.7438 25.323 62.7438 25.683C62.7438 25.947 62.8518 26.151 63.0678 26.295C63.2838 26.415 63.5238 26.475 63.7878 26.475C64.0518 26.475 64.3518 26.415 64.6878 26.295C65.0238 26.175 65.3478 26.043 65.6598 25.899C65.9718 25.755 66.2478 25.611 66.4878 25.467C66.7518 25.299 66.9198 25.179 66.9918 25.107C67.0398 25.059 67.1118 24.987 67.2078 24.891C67.3038 24.795 67.3998 24.747 67.4958 24.747C67.5438 24.747 67.6158 24.771 67.7118 24.819C67.8078 24.867 67.8558 24.951 67.8558 25.071C67.7358 25.263 67.6518 25.431 67.6038 25.575C67.5558 25.719 67.5318 25.851 67.5318 25.971C67.5318 26.283 67.7478 26.439 68.1798 26.439C68.4438 26.439 68.7318 26.403 69.0438 26.331C69.3798 26.235 69.7038 26.139 70.0158 26.043C70.3518 25.923 70.6518 25.815 70.9158 25.719C71.2038 25.599 71.4198 25.515 71.5638 25.467C72.0438 25.275 72.4038 25.131 72.6438 25.035C72.7878 24.963 72.9318 24.903 73.0758 24.855C73.1238 24.855 73.1598 24.891 73.1838 24.963C73.2318 25.011 73.2558 25.059 73.2558 25.107ZM73.7989 25.359C73.7989 25.599 73.8709 25.815 74.0149 26.007C74.1589 26.175 74.3269 26.259 74.5189 26.259C74.7349 26.259 74.9869 26.199 75.2749 26.079C75.5869 25.959 75.8989 25.815 76.2109 25.647C76.5469 25.455 76.8829 25.239 77.2189 24.999C77.5789 24.759 77.9149 24.519 78.2269 24.279C78.5869 24.015 78.9469 23.727 79.3069 23.415C79.6909 23.103 80.0749 22.779 80.4589 22.443C80.6269 22.443 80.7589 22.479 80.8549 22.551C80.9749 22.599 81.0349 22.719 81.0349 22.911C81.0349 23.007 80.9989 23.103 80.9269 23.199C80.8549 23.295 80.7229 23.547 80.5309 23.955C80.3629 24.363 80.2789 24.771 80.2789 25.179C80.2789 25.251 80.2789 25.359 80.2789 25.503C80.3029 25.623 80.3389 25.755 80.3869 25.899C80.4589 26.043 80.5549 26.175 80.6749 26.295C80.7949 26.391 80.9749 26.439 81.2149 26.439C81.4789 26.439 81.7669 26.403 82.0789 26.331C82.4149 26.235 82.7389 26.139 83.0509 26.043C83.3869 25.923 83.6869 25.815 83.9509 25.719C84.2389 25.599 84.4549 25.515 84.5989 25.467C85.0549 25.299 85.4149 25.155 85.6789 25.035C85.8709 24.939 86.0149 24.879 86.1109 24.855C86.2309 24.855 86.2909 24.939 86.2909 25.107C86.2909 25.227 86.2549 25.299 86.1829 25.323L84.5629 25.971C84.3229 26.067 84.0109 26.199 83.6269 26.367C83.2669 26.511 82.8709 26.655 82.4389 26.799C82.0069 26.943 81.5869 27.075 81.1789 27.195C80.7709 27.291 80.4109 27.339 80.0989 27.339C79.7869 27.339 79.5349 27.279 79.3429 27.159C79.1749 27.015 79.0309 26.859 78.9109 26.691C78.8149 26.523 78.7429 26.355 78.6949 26.187C78.6709 26.019 78.6589 25.887 78.6589 25.791C78.6589 25.431 78.7309 25.107 78.8749 24.819C79.0429 24.507 79.1509 24.327 79.1989 24.279C79.2229 24.255 79.1989 24.243 79.1269 24.243C78.9109 24.411 78.5749 24.663 78.1189 24.999C77.6629 25.311 77.1469 25.635 76.5709 25.971C76.0189 26.307 75.4429 26.607 74.8429 26.871C74.2429 27.111 73.7149 27.231 73.2589 27.231C72.9949 27.231 72.7669 27.111 72.5749 26.871C72.3829 26.631 72.2869 26.379 72.2869 26.115C72.2149 25.827 72.2389 25.587 72.3589 25.395C72.5029 25.179 72.6709 25.035 72.8629 24.963C73.0549 24.867 73.2469 24.855 73.4389 24.927C73.6309 24.975 73.7509 25.119 73.7989 25.359ZM99.2987 25.107C99.2987 25.203 99.2627 25.275 99.1907 25.323L97.5707 25.971C97.3307 26.067 97.0187 26.199 96.6347 26.367C96.2747 26.511 95.8787 26.655 95.4467 26.799C95.0147 26.943 94.5947 27.075 94.1867 27.195C93.7787 27.291 93.4187 27.339 93.1067 27.339C92.7947 27.339 92.5427 27.279 92.3507 27.159C92.1827 27.015 92.0387 26.859 91.9187 26.691C91.8227 26.523 91.7507 26.355 91.7027 26.187C91.6787 26.019 91.6667 25.887 91.6667 25.791C91.6667 25.431 91.7387 25.107 91.8827 24.819C92.0507 24.507 92.1587 24.327 92.2067 24.279C92.2307 24.255 92.2067 24.243 92.1347 24.243C91.9187 24.411 91.5827 24.651 91.1267 24.963C90.6947 25.275 90.2027 25.587 89.6507 25.899C89.0987 26.211 88.5347 26.487 87.9587 26.727C87.4067 26.967 86.8907 27.087 86.4107 27.087C86.1467 27.087 85.9187 26.967 85.7267 26.727C85.5347 26.487 85.4387 26.235 85.4387 25.971C85.4387 25.683 85.5467 25.359 85.7627 24.999C85.9787 24.639 86.2307 24.291 86.5187 23.955C86.8307 23.619 87.1307 23.307 87.4187 23.019C87.7067 22.731 87.9227 22.539 88.0667 22.443C88.0667 22.419 88.0787 22.407 88.1027 22.407H88.2467C88.3667 22.407 88.4627 22.443 88.5347 22.515C88.5587 22.539 88.5707 22.575 88.5707 22.623C88.5707 22.719 88.4867 22.863 88.3187 23.055C88.1507 23.223 87.9587 23.427 87.7427 23.667C87.5507 23.883 87.3707 24.123 87.2027 24.387C87.0347 24.651 86.9507 24.927 86.9507 25.215C86.9507 25.455 87.0227 25.671 87.1667 25.863C87.3107 26.031 87.4787 26.115 87.6707 26.115C88.1267 26.115 88.6787 25.935 89.3267 25.575C89.9747 25.191 90.6107 24.759 91.2347 24.279C91.9547 23.727 92.6987 23.115 93.4667 22.443C93.6347 22.443 93.7667 22.479 93.8627 22.551C93.9827 22.599 94.0427 22.719 94.0427 22.911C94.0427 22.983 94.0067 23.079 93.9347 23.199C93.8627 23.295 93.7307 23.547 93.5387 23.955C93.3707 24.363 93.2867 24.771 93.2867 25.179C93.2867 25.251 93.2867 25.359 93.2867 25.503C93.3107 25.623 93.3467 25.755 93.3947 25.899C93.4667 26.043 93.5627 26.175 93.6827 26.295C93.8027 26.391 93.9827 26.439 94.2227 26.439C94.4867 26.439 94.7747 26.403 95.0867 26.331C95.4227 26.235 95.7467 26.139 96.0587 26.043C96.3947 25.923 96.6947 25.815 96.9587 25.719C97.2467 25.599 97.4627 25.515 97.6067 25.467C98.0867 25.275 98.4467 25.131 98.6867 25.035C98.8307 24.963 98.9747 24.903 99.1187 24.855C99.1667 24.855 99.2027 24.891 99.2267 24.963C99.2747 25.011 99.2987 25.059 99.2987 25.107Z" fill="#565452"></path> </svg> 