<?xml version="1.0" encoding="UTF-8"?> <svg xmlns="http://www.w3.org/2000/svg" width="126" height="45" viewBox="0 0 126 45" fill="none"> <path d="M38.9894 9.41096C38.9894 10.803 38.7374 12.267 38.2334 13.803C37.7534 15.315 37.0574 16.815 36.1454 18.303C35.2334 19.767 34.1174 21.159 32.7974 22.479C31.4774 23.799 29.9894 24.963 28.3334 25.971C26.7014 26.955 24.9134 27.735 22.9694 28.311C21.0254 28.911 18.9614 29.211 16.7774 29.211C15.1454 29.211 13.7654 29.007 12.6374 28.599C11.5094 28.191 10.5854 27.747 9.86539 27.267C9.02539 26.691 8.34139 26.031 7.81339 25.287C6.90139 25.935 6.03739 26.511 5.22139 27.015C4.86139 27.231 4.50139 27.447 4.14139 27.663C3.80539 27.879 3.46939 28.059 3.13339 28.203C2.82139 28.371 2.53339 28.503 2.26939 28.599C2.00539 28.719 1.78939 28.779 1.62139 28.779C1.42939 28.779 1.26139 28.719 1.11739 28.599C0.97339 28.503 0.90139 28.359 0.90139 28.167C0.90139 27.951 1.15339 27.495 1.65739 26.799C2.16139 26.079 2.80939 25.215 3.60139 24.207C4.41739 23.175 5.34139 22.047 6.37339 20.823C7.42939 19.599 8.49739 18.363 9.57739 17.115V16.683C9.57739 14.979 9.86539 13.395 10.4414 11.931C11.0414 10.467 11.8334 9.13496 12.8174 7.93496C13.8014 6.73496 14.9414 5.67896 16.2374 4.76696C17.5334 3.85496 18.8774 3.08696 20.2694 2.46296C21.6854 1.83896 23.1014 1.37096 24.5174 1.05895C25.9574 0.722955 27.3014 0.554955 28.5494 0.554955C30.3734 0.554955 31.9454 0.782955 33.2654 1.23895C34.5854 1.69496 35.6654 2.33096 36.5054 3.14696C37.3454 3.93896 37.9694 4.87496 38.3774 5.95496C38.7854 7.03496 38.9894 8.18696 38.9894 9.41096ZM37.4054 10.455C37.4054 9.25496 37.1894 8.13896 36.7574 7.10696C36.3494 6.05096 35.7014 5.13896 34.8134 4.37096C33.9494 3.60296 32.8214 2.99096 31.4294 2.53496C30.0614 2.07896 28.4054 1.85096 26.4614 1.85096C24.4214 1.85096 22.4654 2.23496 20.5934 3.00296C18.7454 3.74696 17.1014 4.74296 15.6614 5.99096C14.2454 7.23896 13.1054 8.66696 12.2414 10.275C11.4014 11.883 10.9814 13.539 10.9814 15.243V15.531C11.7254 14.691 12.4334 13.887 13.1054 13.119C13.8014 12.327 14.4374 11.607 15.0134 10.959C15.6134 10.287 16.1414 9.69896 16.5974 9.19496C17.0534 8.69096 17.4134 8.29496 17.6774 8.00696C17.7734 7.91096 17.9174 7.79096 18.1094 7.64696C18.3014 7.50296 18.5174 7.43096 18.7574 7.43096C19.0214 7.45496 19.2134 7.47896 19.3334 7.50296C19.4774 7.52696 19.5494 7.59896 19.5494 7.71896C19.5494 7.88696 19.4774 8.04296 19.3334 8.18696C18.2294 9.29096 16.9454 10.611 15.4814 12.147C14.0414 13.659 12.5774 15.231 11.0894 16.863C11.2814 18.303 11.6654 19.575 12.2414 20.679C12.8174 21.783 13.4174 22.647 14.0414 23.271C14.1374 23.367 14.1854 23.451 14.1854 23.523C14.2094 23.595 14.2214 23.655 14.2214 23.703C14.2214 23.823 14.0894 23.979 13.8254 24.171C13.6094 24.315 13.4174 24.387 13.2494 24.387C13.1054 24.387 12.9614 24.339 12.8174 24.243C11.0894 22.515 10.0454 20.559 9.68539 18.375C8.67739 19.479 7.70539 20.559 6.76939 21.615C5.85739 22.647 5.05339 23.595 4.35739 24.459C3.68539 25.299 3.14539 26.019 2.73739 26.619C2.30539 27.195 2.08939 27.579 2.08939 27.771C2.08939 27.891 2.16139 27.951 2.30539 27.951C2.47339 27.951 2.73739 27.855 3.09739 27.663C3.48139 27.471 3.91339 27.243 4.39339 26.979C4.87339 26.691 5.36539 26.379 5.86939 26.043C6.39739 25.707 6.87739 25.395 7.30939 25.107C7.76539 24.795 8.13739 24.531 8.42539 24.315C8.73739 24.099 8.91739 23.967 8.96539 23.919C9.08539 23.799 9.19339 23.739 9.28939 23.739C9.38539 23.739 9.45739 23.799 9.50539 23.919C10.0094 24.759 10.5974 25.455 11.2694 26.007C11.9654 26.535 12.6854 26.943 13.4294 27.231C14.1734 27.543 14.9174 27.747 15.6614 27.843C16.4294 27.963 17.1374 28.023 17.7854 28.023C19.6814 28.023 21.4814 27.759 23.1854 27.231C24.8894 26.727 26.4614 26.043 27.9014 25.179C29.3654 24.291 30.6734 23.271 31.8254 22.119C33.0014 20.943 33.9974 19.707 34.8134 18.411C35.6534 17.115 36.2894 15.783 36.7214 14.415C37.1774 13.047 37.4054 11.727 37.4054 10.455ZM45.1288 22.371C45.1288 22.875 44.8648 23.379 44.3368 23.883C43.8328 24.387 43.2208 24.843 42.5008 25.251C41.8048 25.635 41.0848 25.959 40.3408 26.223C39.5968 26.487 38.9968 26.619 38.5408 26.619C38.1088 26.619 37.8328 26.535 37.7128 26.367C37.5928 26.175 37.4848 26.031 37.3888 25.935C37.3648 25.911 37.3528 25.863 37.3528 25.791C37.3528 25.671 37.3888 25.563 37.4608 25.467C37.5568 25.347 37.6648 25.239 37.7848 25.143C37.9048 25.047 38.0128 24.975 38.1088 24.927C38.2288 24.855 38.3248 24.819 38.3968 24.819C38.5648 24.819 38.6728 24.867 38.7208 24.963C38.7928 25.059 38.8528 25.167 38.9008 25.287C38.9488 25.383 39.0448 25.491 39.1888 25.611C39.3568 25.731 39.5968 25.791 39.9088 25.791C40.3168 25.791 40.7248 25.707 41.1328 25.539C41.5648 25.371 41.9488 25.155 42.2848 24.891C42.6448 24.603 42.9328 24.303 43.1488 23.991C43.3888 23.655 43.5088 23.331 43.5088 23.019C43.5088 22.707 43.3888 22.503 43.1488 22.407C42.9328 22.287 42.6928 22.227 42.4288 22.227C41.9728 22.227 41.3848 22.347 40.6648 22.587C39.9688 22.827 39.1648 23.163 38.2528 23.595C37.0048 25.011 35.7568 26.523 34.5088 28.131C33.2848 29.739 32.0848 31.323 30.9088 32.883C29.7088 34.467 28.5448 35.979 27.4168 37.419C26.2888 38.883 25.1968 40.155 24.1408 41.235C23.0848 42.339 22.0768 43.215 21.1168 43.863C20.1328 44.535 19.2088 44.871 18.3448 44.871C17.8888 44.871 17.5048 44.751 17.1928 44.511C16.8808 44.271 16.7248 43.899 16.7248 43.395C16.7248 42.411 17.0368 41.331 17.6608 40.155C18.2608 39.003 19.0888 37.815 20.1448 36.591C21.1768 35.367 22.3768 34.143 23.7448 32.919C25.0888 31.695 26.5168 30.507 28.0288 29.355C29.5168 28.227 31.0408 27.171 32.6008 26.187C34.1368 25.179 35.6008 24.315 36.9928 23.595C37.2568 23.187 37.4968 22.827 37.7128 22.515C37.9288 22.203 38.1208 21.939 38.2888 21.723C38.4808 21.459 38.6368 21.231 38.7568 21.039C38.7568 20.943 38.8168 20.883 38.9368 20.859C39.0808 20.835 39.2008 20.823 39.2968 20.823C39.4648 20.847 39.6328 20.871 39.8008 20.895C39.9688 20.895 40.0528 20.967 40.0528 21.111C40.0528 21.207 39.9568 21.411 39.7648 21.723C39.5728 22.011 39.4048 22.227 39.2608 22.371L39.0448 22.587C40.0048 22.155 40.8688 21.819 41.6368 21.579C42.4288 21.339 43.0888 21.219 43.6168 21.219C43.9528 21.219 44.2888 21.339 44.6248 21.579C44.9608 21.795 45.1288 22.059 45.1288 22.371ZM36.3088 24.567C35.0848 25.239 33.7888 26.019 32.4208 26.907C31.0528 27.771 29.7088 28.707 28.3888 29.715C27.0688 30.747 25.7968 31.815 24.5728 32.919C23.3488 34.047 22.2808 35.163 21.3688 36.267C20.4568 37.395 19.7248 38.499 19.1728 39.579C18.6208 40.683 18.3448 41.715 18.3448 42.675C18.3448 42.867 18.4168 43.095 18.5608 43.359C18.6808 43.623 18.9448 43.755 19.3528 43.755C19.8808 43.755 20.5648 43.419 21.4048 42.747C22.2208 42.099 23.1448 41.235 24.1768 40.155C25.1848 39.099 26.2408 37.887 27.3448 36.519C28.4488 35.175 29.5528 33.783 30.6568 32.343C31.7368 30.927 32.7568 29.535 33.7168 28.167C34.7008 26.823 35.5648 25.623 36.3088 24.567ZM54.9261 25.107C54.9261 25.203 54.8901 25.275 54.8181 25.323C53.8341 25.731 52.8741 26.091 51.9381 26.403C51.1461 26.667 50.3181 26.919 49.4541 27.159C48.6141 27.399 47.9061 27.519 47.3301 27.519C46.8501 27.519 46.4541 27.411 46.1421 27.195C45.8541 26.955 45.7101 26.655 45.7101 26.295C45.7101 25.959 45.8181 25.647 46.0341 25.359C46.2501 25.071 46.4781 24.819 46.7181 24.603C46.9821 24.387 47.2101 24.207 47.4021 24.063C47.6181 23.919 47.7261 23.835 47.7261 23.811C47.7261 23.763 47.6301 23.727 47.4381 23.703C47.2701 23.679 46.9701 23.631 46.5381 23.559C46.2741 23.511 46.0941 23.439 45.9981 23.343C45.9261 23.223 45.8901 23.103 45.8901 22.983C45.8901 22.815 45.9381 22.671 46.0341 22.551C46.1541 22.407 46.2381 22.311 46.2861 22.263C46.7661 21.951 47.3301 21.639 47.9781 21.327C48.6261 21.015 49.2621 20.739 49.8861 20.499C50.5341 20.259 51.1221 20.067 51.6501 19.923C52.1781 19.779 52.5501 19.707 52.7661 19.707C53.0061 19.707 53.2221 19.767 53.4141 19.887C53.6301 19.983 53.7381 20.163 53.7381 20.427C53.7381 20.547 53.6781 20.679 53.5581 20.823C53.4381 20.943 53.2941 21.063 53.1261 21.183C52.9581 21.279 52.7781 21.363 52.5861 21.435C52.3941 21.507 52.2261 21.543 52.0821 21.543C51.9621 21.543 51.8421 21.519 51.7221 21.471C51.6261 21.423 51.5781 21.339 51.5781 21.219C51.5781 21.075 51.6381 20.919 51.7581 20.751C51.8061 20.703 51.8301 20.655 51.8301 20.607C51.8301 20.559 51.7701 20.535 51.6501 20.535C51.6021 20.535 51.5301 20.547 51.4341 20.571C51.3381 20.571 51.2301 20.583 51.1101 20.607C50.9181 20.655 50.6421 20.751 50.2821 20.895C49.9221 21.015 49.5621 21.159 49.2021 21.327C48.8421 21.495 48.5181 21.651 48.2301 21.795C47.9421 21.939 47.7621 22.035 47.6901 22.083C47.5941 22.155 47.5461 22.227 47.5461 22.299C47.5461 22.419 47.6181 22.503 47.7621 22.551C47.7861 22.551 47.8701 22.563 48.0141 22.587C48.1581 22.587 48.3141 22.599 48.4821 22.623C48.6501 22.623 48.8061 22.623 48.9501 22.623C49.1181 22.623 49.2381 22.623 49.3101 22.623C49.5741 22.647 49.7301 22.695 49.7781 22.767C49.8261 22.839 49.8501 22.959 49.8501 23.127C49.8501 23.247 49.8261 23.367 49.7781 23.487C49.7301 23.607 49.5741 23.691 49.3101 23.739C48.8061 23.859 48.3141 24.063 47.8341 24.351C47.3781 24.639 47.1501 25.023 47.1501 25.503C47.1501 25.839 47.3301 26.091 47.6901 26.259C48.0741 26.403 48.4341 26.475 48.7701 26.475C49.3941 26.475 50.0541 26.391 50.7501 26.223C51.4461 26.031 52.0941 25.839 52.6941 25.647C53.3901 25.407 54.0741 25.143 54.7461 24.855C54.7941 24.855 54.8301 24.891 54.8541 24.963C54.9021 25.011 54.9261 25.059 54.9261 25.107ZM64.0502 25.107C64.0502 25.203 64.0142 25.275 63.9422 25.323C62.9582 25.731 61.9982 26.091 61.0622 26.403C60.2702 26.667 59.4422 26.919 58.5782 27.159C57.7382 27.399 57.0302 27.519 56.4542 27.519C55.9022 27.519 55.3982 27.339 54.9422 26.979C54.4862 26.619 54.2582 26.103 54.2582 25.431C54.2582 24.807 54.4862 24.183 54.9422 23.559C55.3982 22.911 55.9502 22.335 56.5982 21.831C57.2702 21.327 57.9782 20.919 58.7222 20.607C59.4662 20.271 60.1382 20.103 60.7382 20.103C60.9062 20.103 61.0502 20.139 61.1702 20.211C61.4342 20.331 61.5662 20.595 61.5662 21.003C61.5662 21.243 61.4702 21.483 61.2782 21.723C61.1102 21.963 60.9182 22.179 60.7022 22.371C60.4382 22.587 60.1502 22.791 59.8382 22.983C59.8142 22.983 59.7662 22.995 59.6942 23.019C59.5502 23.067 59.3942 23.091 59.2262 23.091C59.1062 23.091 59.0462 23.007 59.0462 22.839C59.0462 22.719 59.1182 22.587 59.2622 22.443C59.4542 22.323 59.6942 22.107 59.9822 21.795C60.2942 21.483 60.4502 21.207 60.4502 20.967C60.4502 20.799 60.3062 20.715 60.0182 20.715C59.6582 20.715 59.2262 20.847 58.7222 21.111C58.2182 21.351 57.7262 21.663 57.2462 22.047C56.7902 22.407 56.3942 22.827 56.0582 23.307C55.7462 23.763 55.5902 24.207 55.5902 24.639C55.5902 25.215 55.7822 25.671 56.1662 26.007C56.5742 26.319 57.1502 26.475 57.8942 26.475C58.5182 26.475 59.1782 26.391 59.8742 26.223C60.5702 26.031 61.2182 25.839 61.8182 25.647C62.5142 25.407 63.1982 25.143 63.8702 24.855C63.9182 24.855 63.9542 24.891 63.9782 24.963C64.0262 25.011 64.0502 25.059 64.0502 25.107ZM73.015 25.107C73.015 25.203 72.979 25.275 72.907 25.323C71.923 25.731 70.963 26.091 70.027 26.403C69.235 26.667 68.407 26.919 67.543 27.159C66.703 27.399 65.995 27.519 65.419 27.519C64.867 27.519 64.363 27.339 63.907 26.979C63.451 26.619 63.223 26.103 63.223 25.431C63.223 24.807 63.451 24.183 63.907 23.559C64.363 22.911 64.915 22.335 65.563 21.831C66.235 21.327 66.943 20.919 67.687 20.607C68.431 20.271 69.103 20.103 69.703 20.103C69.871 20.103 70.015 20.139 70.135 20.211C70.399 20.331 70.531 20.595 70.531 21.003C70.531 21.243 70.435 21.483 70.243 21.723C70.075 21.963 69.883 22.179 69.667 22.371C69.403 22.587 69.115 22.791 68.803 22.983C68.779 22.983 68.731 22.995 68.659 23.019C68.515 23.067 68.359 23.091 68.191 23.091C68.071 23.091 68.011 23.007 68.011 22.839C68.011 22.719 68.083 22.587 68.227 22.443C68.419 22.323 68.659 22.107 68.947 21.795C69.259 21.483 69.415 21.207 69.415 20.967C69.415 20.799 69.271 20.715 68.983 20.715C68.623 20.715 68.191 20.847 67.687 21.111C67.183 21.351 66.691 21.663 66.211 22.047C65.755 22.407 65.359 22.827 65.023 23.307C64.711 23.763 64.555 24.207 64.555 24.639C64.555 25.215 64.747 25.671 65.131 26.007C65.539 26.319 66.115 26.475 66.859 26.475C67.483 26.475 68.143 26.391 68.839 26.223C69.535 26.031 70.183 25.839 70.783 25.647C71.479 25.407 72.163 25.143 72.835 24.855C72.883 24.855 72.919 24.891 72.943 24.963C72.991 25.011 73.015 25.059 73.015 25.107ZM88.4239 17.295C88.4239 17.607 88.3519 17.799 88.2079 17.871C87.5359 17.799 86.8159 17.727 86.0479 17.655C85.3999 17.607 84.6679 17.571 83.8519 17.547C83.0599 17.499 82.2679 17.475 81.4759 17.475C80.6119 17.475 79.8079 17.511 79.0639 17.583C78.3199 17.655 77.7319 17.775 77.2999 17.943C77.1559 17.847 77.0839 17.679 77.0839 17.439C77.0839 17.199 77.3359 17.007 77.8399 16.863C78.3439 16.719 78.9559 16.611 79.6759 16.539C80.3959 16.467 81.1519 16.419 81.9439 16.395C82.7359 16.371 83.4199 16.359 83.9959 16.359C84.8359 16.359 85.6159 16.383 86.3359 16.431C87.0559 16.479 87.6559 16.539 88.1359 16.611C88.2319 16.635 88.3039 16.719 88.3519 16.863C88.3999 16.983 88.4239 17.127 88.4239 17.295ZM115.328 4.73096C115.328 5.83496 114.872 7.01096 113.96 8.25896C113.072 9.50696 111.896 10.767 110.432 12.039C108.992 13.311 107.36 14.571 105.536 15.819C103.736 17.067 101.912 18.243 100.064 19.347C98.216 20.427 96.44 21.411 94.736 22.299C93.032 23.187 91.58 23.919 90.38 24.495C90.14 24.951 90.02 25.275 90.02 25.467C90.02 25.611 90.08 25.683 90.2 25.683C91.472 25.011 92.672 24.411 93.8 23.883C94.76 23.427 95.708 23.019 96.644 22.659C97.58 22.275 98.288 22.083 98.768 22.083C99.368 22.083 99.668 22.287 99.668 22.695C99.668 22.911 99.56 23.175 99.344 23.487C99.128 23.799 98.816 24.111 98.408 24.423C98.024 24.735 97.544 25.035 96.968 25.323C96.416 25.611 95.792 25.851 95.096 26.043C94.952 26.043 94.88 26.103 94.88 26.223C94.88 26.247 94.904 26.307 94.952 26.403C95.024 26.523 95.18 26.643 95.42 26.763C95.684 26.859 96.056 26.907 96.536 26.907C96.824 26.907 97.184 26.859 97.616 26.763C98.072 26.667 98.54 26.547 99.02 26.403C99.5 26.259 99.98 26.103 100.46 25.935C100.964 25.767 101.396 25.611 101.756 25.467C102.236 25.275 102.596 25.131 102.836 25.035C102.98 24.963 103.124 24.903 103.268 24.855C103.316 24.855 103.352 24.891 103.376 24.963C103.424 25.011 103.448 25.059 103.448 25.107C103.448 25.203 103.412 25.275 103.34 25.323L101.72 25.971C100.904 26.283 100.1 26.571 99.308 26.835C98.612 27.051 97.88 27.255 97.112 27.447C96.368 27.639 95.696 27.735 95.096 27.735C94.256 27.735 93.656 27.591 93.296 27.303C92.96 27.039 92.756 26.739 92.684 26.403C92.684 26.139 92.768 25.971 92.936 25.899C93.128 25.803 93.356 25.755 93.62 25.755C94.124 25.755 94.652 25.659 95.204 25.467C95.756 25.275 96.26 25.047 96.716 24.783C97.196 24.495 97.58 24.219 97.868 23.955C98.18 23.667 98.336 23.439 98.336 23.271C98.336 23.103 98.168 23.019 97.832 23.019C97.328 23.019 96.668 23.163 95.852 23.451C95.06 23.739 94.208 24.111 93.296 24.567C92.408 24.999 91.484 25.479 90.524 26.007C89.588 26.535 88.724 27.027 87.932 27.483C87.884 27.507 87.812 27.519 87.716 27.519C87.572 27.519 87.5 27.447 87.5 27.303C87.5 27.111 87.752 26.619 88.256 25.827C88.784 25.011 89.48 24.015 90.344 22.839C91.232 21.639 92.264 20.319 93.44 18.879C94.64 17.415 95.912 15.939 97.256 14.451C98.6 12.963 99.992 11.523 101.432 10.131C102.872 8.71496 104.288 7.46696 105.68 6.38696C107.072 5.28296 108.404 4.40696 109.676 3.75896C110.972 3.08696 112.124 2.75096 113.132 2.75096C114.596 2.75096 115.328 3.41096 115.328 4.73096ZM113.78 4.91096C113.78 4.55096 113.66 4.25096 113.42 4.01096C113.204 3.74696 112.868 3.61496 112.412 3.61496C111.692 3.61496 110.876 3.84296 109.964 4.29896C109.052 4.73096 108.08 5.31896 107.048 6.06296C106.016 6.80696 104.948 7.68296 103.844 8.69096C102.764 9.67496 101.684 10.719 100.604 11.823C99.548 12.927 98.504 14.055 97.472 15.207C96.464 16.359 95.528 17.475 94.664 18.555C93.8 19.635 93.032 20.643 92.36 21.579C91.688 22.491 91.148 23.271 90.74 23.919C91.916 23.391 93.296 22.695 94.88 21.831C96.464 20.943 98.108 19.959 99.812 18.879C101.54 17.799 103.232 16.647 104.888 15.423C106.568 14.199 108.056 12.975 109.352 11.751C110.672 10.503 111.74 9.30296 112.556 8.15096C113.372 6.97496 113.78 5.89496 113.78 4.91096ZM112.93 25.107C112.93 25.179 112.906 25.239 112.858 25.287C112.834 25.311 112.798 25.335 112.75 25.359C111.262 26.031 110.014 26.367 109.006 26.367C108.382 26.367 107.902 26.175 107.566 25.791C106.942 26.415 106.234 26.943 105.442 27.375C104.674 27.807 103.906 28.023 103.138 28.023C102.802 28.023 102.538 27.939 102.346 27.771C102.154 27.627 102.058 27.363 102.058 26.979C102.058 26.499 102.274 25.911 102.706 25.215C103.162 24.519 103.702 23.847 104.326 23.199C104.95 22.551 105.586 21.999 106.234 21.543C106.906 21.087 107.458 20.859 107.89 20.859C108.01 20.859 108.118 20.907 108.214 21.003C108.334 21.075 108.394 21.147 108.394 21.219C108.394 21.267 108.358 21.303 108.286 21.327C108.214 21.327 108.142 21.327 108.07 21.327C107.782 21.327 107.374 21.519 106.846 21.903C106.342 22.263 105.838 22.695 105.334 23.199C104.83 23.703 104.398 24.231 104.038 24.783C103.678 25.335 103.498 25.791 103.498 26.151C103.498 26.679 103.762 26.943 104.29 26.943C104.722 26.943 105.202 26.799 105.73 26.511C106.282 26.199 106.798 25.827 107.278 25.395C107.11 25.083 107.026 24.687 107.026 24.207C107.026 23.871 107.074 23.535 107.17 23.199C107.29 22.839 107.446 22.527 107.638 22.263C107.83 21.999 108.058 21.783 108.322 21.615C108.61 21.447 108.922 21.363 109.258 21.363C109.714 21.363 109.942 21.579 109.942 22.011C109.942 22.395 109.774 22.875 109.438 23.451C109.126 24.027 108.694 24.615 108.142 25.215C108.406 25.551 108.79 25.719 109.294 25.719C109.63 25.719 109.978 25.683 110.338 25.611C110.698 25.539 111.034 25.467 111.346 25.395C111.682 25.299 111.97 25.203 112.21 25.107C112.45 25.011 112.63 24.927 112.75 24.855H112.786C112.834 24.855 112.87 24.891 112.894 24.963C112.918 25.011 112.93 25.059 112.93 25.107ZM109.294 22.587C109.294 22.251 109.078 22.083 108.646 22.083C108.382 22.083 108.154 22.263 107.962 22.623C107.794 22.959 107.71 23.343 107.71 23.775C107.71 23.967 107.722 24.147 107.746 24.315C107.77 24.483 107.818 24.651 107.89 24.819C108.298 24.411 108.634 24.003 108.898 23.595C109.162 23.187 109.294 22.851 109.294 22.587ZM125.699 29.499C125.699 29.811 125.543 29.991 125.231 30.039C124.943 30.111 124.667 30.147 124.403 30.147C124.307 30.147 124.007 30.135 123.503 30.111C122.999 30.087 122.411 30.063 121.739 30.039C121.091 30.039 120.395 30.027 119.651 30.003C118.931 29.979 118.283 29.967 117.707 29.967C117.083 29.967 116.471 29.979 115.871 30.003C115.295 30.051 114.719 30.123 114.143 30.219C112.775 31.947 111.395 33.687 110.003 35.439C108.587 37.215 107.243 38.799 105.971 40.191C104.675 41.607 103.499 42.759 102.443 43.647C101.363 44.535 100.499 44.979 99.851 44.979C99.299 44.979 98.867 44.799 98.555 44.439C98.243 44.103 98.087 43.659 98.087 43.107C98.087 41.955 98.435 40.683 99.131 39.291C99.827 37.923 100.859 36.579 102.227 35.259C103.595 33.963 105.287 32.775 107.303 31.695C109.319 30.639 111.635 29.835 114.251 29.283C114.971 28.323 115.547 27.531 115.979 26.907C116.435 26.259 116.663 25.875 116.663 25.755C116.663 25.659 116.627 25.611 116.555 25.611C116.483 25.611 116.387 25.647 116.267 25.719C116.123 25.791 115.931 25.887 115.691 26.007C115.475 26.127 115.223 26.247 114.935 26.367C114.647 26.463 114.347 26.547 114.035 26.619C113.747 26.691 113.471 26.727 113.207 26.727C112.871 26.727 112.571 26.643 112.307 26.475C112.067 26.283 111.947 25.983 111.947 25.575C111.947 24.783 112.283 24.039 112.955 23.343C113.627 22.647 114.419 22.047 115.331 21.543C116.243 21.039 117.155 20.643 118.067 20.355C119.003 20.043 119.711 19.887 120.191 19.887C120.479 19.887 120.767 19.959 121.055 20.103C121.343 20.247 121.499 20.523 121.523 20.931C121.523 21.075 121.439 21.255 121.271 21.471C121.103 21.663 120.899 21.843 120.659 22.011C120.419 22.179 120.179 22.323 119.939 22.443C119.723 22.563 119.543 22.623 119.399 22.623C119.255 22.623 119.147 22.575 119.075 22.479C119.003 22.383 118.967 22.275 118.967 22.155C118.967 22.011 119.027 21.903 119.147 21.831C119.195 21.783 119.267 21.723 119.363 21.651C119.483 21.579 119.603 21.507 119.723 21.435C119.915 21.291 120.011 21.111 120.011 20.895C120.011 20.679 119.867 20.571 119.579 20.571C119.075 20.571 118.487 20.727 117.815 21.039C117.143 21.327 116.495 21.699 115.871 22.155C115.271 22.587 114.755 23.067 114.323 23.595C113.891 24.123 113.675 24.615 113.675 25.071C113.675 25.287 113.759 25.443 113.927 25.539C114.095 25.635 114.275 25.683 114.467 25.683C114.803 25.683 115.163 25.611 115.547 25.467C115.931 25.323 116.303 25.155 116.663 24.963C117.047 24.747 117.407 24.519 117.743 24.279C118.103 24.039 118.403 23.823 118.643 23.631C118.739 23.535 118.835 23.487 118.931 23.487C119.051 23.487 119.111 23.559 119.111 23.703C119.111 23.871 119.051 24.027 118.931 24.171C118.331 24.915 117.695 25.707 117.023 26.547C116.351 27.363 115.667 28.227 114.971 29.139C115.907 28.971 116.867 28.839 117.851 28.743C118.835 28.671 119.867 28.635 120.947 28.635C121.763 28.635 122.459 28.647 123.035 28.671C123.635 28.695 124.055 28.707 124.295 28.707C124.799 28.731 125.159 28.791 125.375 28.887C125.591 28.983 125.699 29.187 125.699 29.499ZM113.423 30.327C111.383 30.711 109.523 31.323 107.843 32.163C106.139 33.003 104.675 33.963 103.451 35.043C102.227 36.147 101.279 37.335 100.607 38.607C99.935 39.879 99.599 41.139 99.599 42.387C99.599 42.771 99.671 43.107 99.815 43.395C99.935 43.683 100.163 43.827 100.499 43.827C100.787 43.827 101.207 43.611 101.759 43.179C102.311 42.771 102.959 42.219 103.703 41.523C104.423 40.827 105.203 40.011 106.043 39.075C106.883 38.163 107.735 37.203 108.599 36.195C109.463 35.211 110.315 34.203 111.155 33.171C111.971 32.163 112.727 31.215 113.423 30.327Z" fill="#565452"></path> </svg> 