<svg width="53" height="23" viewBox="0 0 53 23" fill="none" xmlns="http://www.w3.org/2000/svg">
<path d="M8.47972 16.44C7.55172 16.44 6.67972 16.312 5.86372 16.056C5.04772 15.816 4.38372 15.432 3.87172 14.904C3.37572 14.36 3.12772 13.664 3.12772 12.816C3.12772 12.16 3.29572 11.416 3.63172 10.584C3.98372 9.736 4.55172 8.784 5.33572 7.728C5.71972 7.2 6.20772 6.664 6.79972 6.12C7.40772 5.576 8.04772 5.056 8.71972 4.56C9.39172 4.048 10.0397 3.584 10.6637 3.168C11.3037 2.752 11.8637 2.416 12.3437 2.16C12.1997 2.08 12.0397 2.016 11.8637 1.968C11.7037 1.92 11.5357 1.864 11.3597 1.8C10.5437 1.576 9.67972 1.416 8.76772 1.32C7.85572 1.224 6.98372 1.176 6.15172 1.176C5.99172 1.176 5.83972 1.184 5.69572 1.2C5.55172 1.2 5.40772 1.2 5.26372 1.2C4.15972 1.248 3.30372 1.384 2.69572 1.608C2.10372 1.832 1.75172 2.08 1.63972 2.352C1.60772 2.448 1.59172 2.528 1.59172 2.592C1.59172 2.864 1.74372 3.104 2.04772 3.312C2.36772 3.504 2.71172 3.656 3.07972 3.768C3.44772 3.88 3.71972 3.944 3.89572 3.96C3.97572 3.976 4.00772 4.024 3.99172 4.104C3.99172 4.184 3.95172 4.224 3.87172 4.224C3.71172 4.192 3.45572 4.144 3.10372 4.08C2.76772 4 2.41572 3.888 2.04772 3.744C1.67972 3.6 1.36772 3.432 1.11172 3.24C0.855719 3.032 0.727719 2.8 0.727719 2.544C0.727719 2.448 0.751719 2.352 0.799719 2.256C0.959719 1.888 1.36772 1.576 2.02372 1.32C2.69572 1.048 3.63972 0.888 4.85572 0.839999C4.98372 0.839999 5.10372 0.839999 5.21572 0.839999C5.34372 0.823999 5.47172 0.816 5.59972 0.816C6.57572 0.816 7.59172 0.88 8.64772 1.008C9.71972 1.136 10.7357 1.32 11.6957 1.56C12.0797 1.656 12.4477 1.776 12.7997 1.92C13.2157 1.728 13.6717 1.568 14.1677 1.44C14.6637 1.296 15.1117 1.224 15.5117 1.224C15.7357 1.224 15.9277 1.248 16.0877 1.296C16.2637 1.344 16.3677 1.416 16.3997 1.512C16.4477 1.544 16.4717 1.584 16.4717 1.632C16.4717 1.632 16.4637 1.632 16.4477 1.632C16.4477 1.616 16.4477 1.6 16.4477 1.584L16.3997 1.512C16.3037 1.432 16.1437 1.392 15.9197 1.392C15.6317 1.392 15.2557 1.456 14.7917 1.584C14.3437 1.696 13.8637 1.88 13.3517 2.136L13.3277 2.16C14.0157 2.512 14.5117 2.912 14.8157 3.36C15.1357 3.808 15.2957 4.264 15.2957 4.728C15.2957 5.64 14.7917 6.376 13.7837 6.936C13.1917 7.256 12.5357 7.496 11.8157 7.656C11.1117 7.8 10.4557 7.896 9.84772 7.944C10.6637 8.2 11.5037 8.504 12.3677 8.856C13.2317 9.208 13.9117 9.568 14.4077 9.936C14.9197 10.304 15.2957 10.704 15.5357 11.136C15.7917 11.552 15.9197 11.968 15.9197 12.384C15.9197 12.944 15.7277 13.464 15.3437 13.944C14.9437 14.44 14.3757 14.872 13.6397 15.24C12.9037 15.624 12.0877 15.92 11.1917 16.128C10.2957 16.336 9.39172 16.44 8.47972 16.44ZM8.33572 16.128C9.13572 16.128 9.93572 16.032 10.7357 15.84C11.5357 15.648 12.2557 15.368 12.8957 15C13.5517 14.648 14.0477 14.24 14.3837 13.776C14.7037 13.328 14.8637 12.872 14.8637 12.408C14.8637 12.04 14.7597 11.664 14.5517 11.28C14.3437 10.896 14.0237 10.528 13.5917 10.176C13.2557 9.904 12.8157 9.632 12.2717 9.36C11.7277 9.088 11.1597 8.832 10.5677 8.592C9.97572 8.352 9.41572 8.152 8.88772 7.992C8.59972 7.992 8.34372 7.992 8.11972 7.992C7.91172 7.976 7.75972 7.96 7.66372 7.944C7.63172 7.944 7.53572 7.928 7.37572 7.896C7.21572 7.864 7.05572 7.816 6.89572 7.752C6.75172 7.688 6.67972 7.608 6.67972 7.512C6.67972 7.4 6.73572 7.336 6.84772 7.32C6.97572 7.288 7.05572 7.272 7.08772 7.272C7.23172 7.272 7.47972 7.312 7.83172 7.392C8.19972 7.472 8.61572 7.576 9.07972 7.704C9.68772 7.672 10.3677 7.592 11.1197 7.464C11.8877 7.32 12.5837 7.064 13.2077 6.696C13.5917 6.472 13.8957 6.184 14.1197 5.832C14.3437 5.464 14.4557 5.08 14.4557 4.68C14.4557 4.28 14.3277 3.88 14.0717 3.48C13.8157 3.08 13.4077 2.72 12.8477 2.4C12.3837 2.656 11.8477 2.992 11.2397 3.408C10.6477 3.808 10.0397 4.248 9.41572 4.728C8.79172 5.208 8.19972 5.712 7.63972 6.24C7.09572 6.752 6.63172 7.264 6.24772 7.776C5.43172 8.88 4.83972 9.864 4.47172 10.728C4.11972 11.576 3.94372 12.32 3.94372 12.96C3.94372 13.712 4.14372 14.32 4.54372 14.784C4.95972 15.248 5.50372 15.584 6.17572 15.792C6.84772 16.016 7.56772 16.128 8.33572 16.128ZM7.66372 7.704H7.99972C7.51972 7.576 7.20772 7.512 7.06372 7.512L7.01572 7.536C7.19172 7.632 7.40772 7.688 7.66372 7.704ZM21.0739 15.168C20.7859 15.168 20.5699 15.072 20.4259 14.88C20.2979 14.688 20.2339 14.44 20.2339 14.136C20.2339 13.928 20.2579 13.72 20.3059 13.512C20.3219 13.48 20.3459 13.408 20.3779 13.296C20.4099 13.168 20.4579 13.024 20.5219 12.864C20.2979 13.216 20.0099 13.608 19.6579 14.04C19.3219 14.456 18.9459 14.768 18.5299 14.976C18.2899 15.088 18.0499 15.144 17.8099 15.144C17.4899 15.144 17.2339 15.024 17.0419 14.784C16.8499 14.528 16.7539 14.176 16.7539 13.728C16.7539 13.36 16.8339 12.968 16.9939 12.552C17.1539 12.12 17.3859 11.68 17.6899 11.232C17.8819 10.944 18.1299 10.664 18.4339 10.392C18.7379 10.12 19.0659 9.896 19.4179 9.72C19.7699 9.544 20.1059 9.456 20.4259 9.456C20.7459 9.456 21.0179 9.544 21.2419 9.72C21.4659 9.896 21.5859 10.16 21.6019 10.512C21.6019 10.56 21.5779 10.6 21.5299 10.632C21.4979 10.648 21.4659 10.624 21.4339 10.56C21.2419 10.128 20.9299 9.912 20.4979 9.912C20.2099 9.912 19.9059 10.048 19.5859 10.32C19.2659 10.576 18.9539 10.904 18.6499 11.304C18.3459 11.704 18.0819 12.104 17.8579 12.504C17.6659 12.856 17.5219 13.176 17.4259 13.464C17.3459 13.752 17.3059 14 17.3059 14.208C17.3059 14.64 17.4739 14.856 17.8099 14.856C17.9859 14.856 18.1779 14.8 18.3859 14.688C18.5779 14.576 18.8099 14.376 19.0819 14.088C19.3699 13.8 19.6499 13.48 19.9219 13.128C20.2099 12.776 20.4659 12.432 20.6899 12.096C20.9299 11.76 21.1059 11.496 21.2179 11.304C21.4579 10.904 21.7059 10.552 21.9619 10.248C22.2179 9.944 22.4739 9.792 22.7299 9.792C22.8579 9.792 22.9219 9.824 22.9219 9.888C22.9219 9.952 22.8899 10.016 22.8259 10.08C22.5059 10.464 22.2019 10.92 21.9139 11.448C21.6419 11.96 21.4099 12.448 21.2179 12.912C21.0419 13.376 20.9379 13.728 20.9059 13.968C20.8579 14.48 21.0099 14.736 21.3619 14.736C21.4099 14.736 21.4579 14.736 21.5059 14.736C21.5539 14.72 21.6099 14.704 21.6739 14.688C22.0099 14.576 22.3379 14.368 22.6579 14.064C22.9779 13.76 23.2739 13.432 23.5459 13.08C23.8179 12.712 24.0419 12.392 24.2179 12.12C24.2659 12.056 24.3059 12.024 24.3379 12.024C24.3859 12.024 24.4099 12.064 24.4099 12.144C24.4099 12.192 24.3859 12.256 24.3379 12.336C24.2259 12.496 24.1219 12.656 24.0259 12.816C23.9299 12.96 23.8339 13.096 23.7379 13.224C23.7059 13.288 23.6659 13.344 23.6179 13.392C23.5699 13.44 23.5219 13.496 23.4739 13.56C23.2659 13.816 22.9939 14.096 22.6579 14.4C22.3379 14.688 22.0179 14.896 21.6979 15.024C21.4579 15.12 21.2499 15.168 21.0739 15.168ZM23.9783 15.096C23.9303 15.096 23.8823 15.064 23.8343 15C23.7063 14.856 23.6423 14.624 23.6423 14.304C23.6423 13.968 23.6983 13.592 23.8103 13.176C23.9383 12.744 24.0823 12.352 24.2423 12C24.4023 11.664 24.5463 11.368 24.6743 11.112C24.8183 10.856 24.9143 10.696 24.9623 10.632C25.1383 10.408 25.3223 10.224 25.5143 10.08C25.7063 9.936 25.8983 9.864 26.0903 9.864C26.1863 9.864 26.2583 9.888 26.3063 9.936C26.3703 9.984 26.3783 10.024 26.3303 10.056C26.2023 10.12 26.0343 10.296 25.8263 10.584C25.6183 10.856 25.4023 11.176 25.1783 11.544C25.0343 11.8 24.8503 12.144 24.6263 12.576C24.4023 13.008 24.2743 13.376 24.2423 13.68C24.2423 13.808 24.2743 13.864 24.3383 13.848L24.9383 12.864C25.2743 12.304 25.7143 11.752 26.2583 11.208C26.8023 10.664 27.3863 10.216 28.0103 9.864C28.0743 9.832 28.1383 9.808 28.2023 9.792C28.2823 9.776 28.3543 9.768 28.4183 9.768C28.5623 9.768 28.6343 9.816 28.6343 9.912C28.6343 9.944 28.5943 10.024 28.5143 10.152C28.1783 10.6 27.9143 11.072 27.7223 11.568C27.5303 12.048 27.4103 12.576 27.3623 13.152C27.3463 13.504 27.3783 13.832 27.4583 14.136C27.5543 14.424 27.7543 14.568 28.0583 14.568C28.4103 14.568 28.7463 14.424 29.0663 14.136C29.3863 13.848 29.6823 13.512 29.9543 13.128C30.2423 12.728 30.4903 12.376 30.6983 12.072C30.7303 12.024 30.7543 12 30.7703 12C30.8183 12 30.8423 12.048 30.8423 12.144C30.8423 12.224 30.8103 12.32 30.7463 12.432C30.5063 12.784 30.2423 13.16 29.9543 13.56C29.6663 13.96 29.3463 14.296 28.9943 14.568C28.6583 14.84 28.2743 14.976 27.8423 14.976C27.4423 14.976 27.1543 14.824 26.9783 14.52C26.8023 14.216 26.7143 13.848 26.7143 13.416C26.7143 12.952 26.7863 12.456 26.9303 11.928C27.0903 11.4 27.2743 10.96 27.4823 10.608C27.0663 10.912 26.6343 11.296 26.1863 11.76C25.7383 12.208 25.3543 12.688 25.0343 13.2C24.9223 13.408 24.7703 13.672 24.5783 13.992C24.3863 14.312 24.2583 14.568 24.1943 14.76C24.1783 14.824 24.1623 14.88 24.1463 14.928C24.1303 14.96 24.1143 14.992 24.0983 15.024C24.0823 15.072 24.0423 15.096 23.9783 15.096ZM31.5756 22.104C31.1916 22.104 30.9116 21.96 30.7356 21.672C30.5596 21.384 30.4716 21.04 30.4716 20.64C30.4716 20.24 30.5516 19.792 30.7116 19.296C30.8716 18.8 31.0396 18.336 31.2156 17.904C31.4076 17.488 31.5436 17.192 31.6236 17.016C31.7516 16.76 31.9116 16.424 32.1036 16.008C32.3116 15.608 32.5436 15.176 32.7996 14.712C32.7996 14.584 32.8556 14.496 32.9676 14.448C33.0476 14.272 33.1356 14.096 33.2316 13.92C33.3436 13.744 33.4476 13.576 33.5436 13.416C33.1596 13.88 32.7676 14.264 32.3676 14.568C32.1756 14.696 31.9836 14.808 31.7916 14.904C31.5996 14.984 31.4076 15.024 31.2156 15.024C30.9116 15.024 30.6636 14.92 30.4716 14.712C30.2796 14.488 30.1836 14.176 30.1836 13.776C30.1836 13.376 30.2876 12.928 30.4956 12.432C30.7196 11.92 30.9996 11.424 31.3356 10.944C31.6876 10.464 32.0716 10.072 32.4876 9.768C32.9036 9.448 33.3116 9.288 33.7116 9.288C33.9676 9.288 34.1996 9.376 34.4076 9.552C34.6156 9.728 34.7196 9.952 34.7196 10.224C34.7196 10.336 34.6956 10.456 34.6476 10.584C34.5996 10.696 34.5356 10.808 34.4556 10.92C34.3916 11.016 34.3276 11.112 34.2636 11.208C34.2316 11.288 34.1836 11.328 34.1196 11.328C34.0556 11.328 34.0236 11.272 34.0236 11.16C34.0236 11.08 34.0476 11.008 34.0956 10.944C34.1436 10.88 34.1916 10.792 34.2396 10.68C34.2876 10.568 34.3116 10.456 34.3116 10.344C34.3116 10.136 34.2556 10 34.1436 9.936C34.0476 9.872 33.9356 9.84 33.8076 9.84C33.5996 9.84 33.3756 9.904 33.1356 10.032C32.9116 10.16 32.6876 10.336 32.4636 10.56C32.2076 10.816 31.9836 11.104 31.7916 11.424C31.5996 11.744 31.4156 12.064 31.2396 12.384C30.8876 13.088 30.7116 13.656 30.7116 14.088C30.7116 14.52 30.8636 14.736 31.1676 14.736C31.3436 14.736 31.5116 14.696 31.6716 14.616C31.8476 14.536 32.0236 14.44 32.1996 14.328C32.6156 14.024 33.0156 13.64 33.3996 13.176C33.7996 12.712 34.1436 12.304 34.4316 11.952C34.4636 11.888 34.4956 11.832 34.5276 11.784C34.5596 11.736 34.5916 11.688 34.6236 11.64C34.6556 11.576 34.6956 11.56 34.7436 11.592C34.7436 11.576 34.7436 11.568 34.7436 11.568C34.7596 11.568 34.7676 11.576 34.7676 11.592C34.8956 11.656 34.9196 11.776 34.8396 11.952C34.8076 12 34.7196 12.152 34.5756 12.408C34.4476 12.648 34.2956 12.92 34.1196 13.224C33.9436 13.528 33.7916 13.8 33.6636 14.04C33.5356 14.264 33.4716 14.384 33.4716 14.4C33.7436 14.464 33.9596 14.584 34.1196 14.76C34.2636 14.728 34.3996 14.68 34.5276 14.616C34.6716 14.552 34.7916 14.488 34.8876 14.424C35.3356 14.136 35.7196 13.768 36.0396 13.32C36.3756 12.872 36.6716 12.464 36.9276 12.096C36.9916 12.032 37.0316 12 37.0476 12C37.0956 12 37.1196 12.04 37.1196 12.12C37.1196 12.184 37.0956 12.256 37.0476 12.336C36.8876 12.592 36.7356 12.816 36.5916 13.008C36.4636 13.2 36.3276 13.384 36.1836 13.56C35.7996 14.024 35.4156 14.392 35.0316 14.664C34.8236 14.792 34.5756 14.904 34.2876 15C34.4476 15.224 34.5596 15.48 34.6236 15.768C34.6876 16.056 34.7196 16.36 34.7196 16.68C34.7196 16.936 34.6956 17.192 34.6476 17.448C34.6156 17.72 34.5756 17.952 34.5276 18.144C34.4476 18.432 34.3196 18.8 34.1436 19.248C33.9836 19.696 33.7756 20.136 33.5196 20.568C33.2796 21 32.9916 21.36 32.6556 21.648C32.3356 21.952 31.9756 22.104 31.5756 22.104ZM31.7916 21.624C32.1436 21.624 32.5596 21.336 33.0396 20.76C33.5196 20.184 33.9116 19.312 34.2156 18.144C34.2796 17.904 34.3196 17.664 34.3356 17.424C34.3676 17.184 34.3836 16.952 34.3836 16.728C34.3836 16.408 34.3516 16.104 34.2876 15.816C34.2236 15.528 34.1196 15.28 33.9756 15.072C33.9116 15.088 33.8476 15.096 33.7836 15.096C33.7356 15.096 33.6796 15.096 33.6156 15.096C33.4396 15.096 33.2796 15.072 33.1356 15.024C32.7356 15.776 32.3676 16.56 32.0316 17.376C31.7116 18.192 31.4636 19.04 31.2876 19.92C31.2396 20.16 31.2156 20.384 31.2156 20.592C31.2156 21.28 31.4076 21.624 31.7916 21.624ZM37.1374 15.168C36.8494 15.168 36.6414 15.072 36.5134 14.88C36.3854 14.688 36.3214 14.448 36.3214 14.16C36.3214 13.936 36.3454 13.72 36.3934 13.512C36.4254 13.416 36.5054 13.176 36.6334 12.792C36.7774 12.408 36.9614 11.984 37.1854 11.52C37.4254 11.056 37.6814 10.656 37.9534 10.32C38.2254 9.968 38.5054 9.792 38.7934 9.792C38.9214 9.792 38.9854 9.824 38.9854 9.888C38.9854 9.952 38.9534 10.016 38.8894 10.08C38.5694 10.464 38.2654 10.92 37.9774 11.448C37.7054 11.96 37.4734 12.448 37.2814 12.912C37.1054 13.376 37.0014 13.728 36.9694 13.968C36.9214 14.48 37.0734 14.736 37.4254 14.736C37.7294 14.736 38.0494 14.6 38.3854 14.328C38.7374 14.04 39.0734 13.68 39.3934 13.248C39.7294 12.8 40.0174 12.336 40.2574 11.856C40.5134 11.36 40.7934 10.896 41.0974 10.464C41.4014 10.016 41.7134 9.792 42.0334 9.792C42.1614 9.792 42.2254 9.824 42.2254 9.888C42.2254 9.952 42.1934 10.016 42.1294 10.08C41.8094 10.464 41.5054 10.92 41.2174 11.448C40.9454 11.96 40.7134 12.448 40.5214 12.912C40.3454 13.376 40.2414 13.728 40.2094 13.968C40.1614 14.48 40.3134 14.736 40.6654 14.736C41.0174 14.736 41.3774 14.576 41.7454 14.256C42.1134 13.936 42.4574 13.568 42.7774 13.152C43.0974 12.736 43.3534 12.384 43.5454 12.096C43.6094 12.032 43.6494 12 43.6654 12C43.7134 12 43.7374 12.04 43.7374 12.12C43.7374 12.184 43.7134 12.256 43.6654 12.336C43.4094 12.752 43.0974 13.184 42.7294 13.632C42.3774 14.064 42.0014 14.432 41.6014 14.736C41.2014 15.024 40.7934 15.168 40.3774 15.168C40.0894 15.168 39.8814 15.072 39.7534 14.88C39.6254 14.688 39.5614 14.448 39.5614 14.16C39.5614 13.936 39.5854 13.72 39.6334 13.512L39.6814 13.296C39.3774 13.696 39.0574 14.056 38.7214 14.376C38.4014 14.696 38.0814 14.912 37.7614 15.024C37.5214 15.12 37.3134 15.168 37.1374 15.168ZM45.0908 15.192C44.4348 15.192 43.9548 15.048 43.6508 14.76C43.3468 14.456 43.1948 14.056 43.1948 13.56C43.1948 13.432 43.2028 13.304 43.2188 13.176C43.2508 13.032 43.2828 12.888 43.3148 12.744C43.3948 12.456 43.5228 12.12 43.6988 11.736C43.8908 11.352 44.1228 10.976 44.3948 10.608C44.6668 10.24 44.9628 9.936 45.2828 9.696C45.6028 9.456 45.9388 9.336 46.2908 9.336C46.5788 9.336 46.7948 9.44 46.9388 9.648C47.0988 9.856 47.1788 10.104 47.1788 10.392C47.1788 10.696 47.0828 11.008 46.8908 11.328C46.7148 11.632 46.4748 11.88 46.1708 12.072C45.8188 12.312 45.4188 12.432 44.9708 12.432C44.6828 12.432 44.4188 12.376 44.1788 12.264C43.9388 12.744 43.8188 13.216 43.8188 13.68C43.8188 14.016 43.9148 14.304 44.1068 14.544C44.2988 14.784 44.6188 14.904 45.0668 14.904C45.6108 14.904 46.0908 14.776 46.5068 14.52C46.9228 14.248 47.3068 13.896 47.6588 13.464C48.0268 13.032 48.3788 12.568 48.7148 12.072C48.7628 12.024 48.7948 12 48.8108 12C48.8588 12 48.8828 12.04 48.8828 12.12C48.8828 12.2 48.8588 12.28 48.8108 12.36C48.5228 12.808 48.1948 13.248 47.8268 13.68C47.4748 14.112 47.0748 14.472 46.6268 14.76C46.1788 15.048 45.6668 15.192 45.0908 15.192ZM44.7308 12.096C45.1468 12.096 45.5388 11.952 45.9068 11.664C46.0828 11.536 46.2348 11.384 46.3628 11.208C46.4908 11.032 46.5788 10.856 46.6268 10.68C46.6748 10.504 46.6988 10.352 46.6988 10.224C46.6988 9.856 46.5628 9.672 46.2908 9.672C46.1148 9.672 45.9148 9.776 45.6908 9.984C45.4988 10.16 45.2988 10.384 45.0908 10.656C44.8988 10.928 44.7308 11.192 44.5868 11.448C44.4428 11.688 44.3468 11.864 44.2988 11.976C44.4108 12.056 44.5548 12.096 44.7308 12.096ZM48.831 15.168C48.543 15.168 48.335 15.072 48.207 14.88C48.079 14.688 48.015 14.448 48.015 14.16C48.015 13.936 48.039 13.72 48.087 13.512C48.135 13.288 48.287 12.92 48.543 12.408C48.799 11.88 49.079 11.328 49.383 10.752C49.223 10.816 49.047 10.888 48.855 10.968C48.679 11.032 48.551 11.104 48.471 11.184C48.407 11.216 48.367 11.232 48.351 11.232C48.303 11.232 48.279 11.2 48.279 11.136C48.279 10.992 48.367 10.856 48.543 10.728C48.719 10.6 48.887 10.512 49.047 10.464C49.223 10.416 49.423 10.36 49.647 10.296C49.823 9.976 50.007 9.648 50.199 9.312C50.407 8.96 50.591 8.656 50.751 8.4C50.863 8.24 51.023 8.04 51.231 7.8C51.439 7.544 51.671 7.336 51.927 7.176C52.071 7.08 52.263 7.032 52.503 7.032C52.679 7.032 52.775 7.064 52.791 7.128C52.551 7.192 52.303 7.352 52.047 7.608C51.807 7.864 51.575 8.16 51.351 8.496C51.127 8.832 50.935 9.152 50.775 9.456C50.615 9.744 50.495 9.968 50.415 10.128C50.751 10.08 51.031 10.056 51.255 10.056C51.383 10.056 51.495 10.064 51.591 10.08C51.687 10.08 51.767 10.088 51.831 10.104C51.959 10.12 52.023 10.16 52.023 10.224C52.023 10.288 51.943 10.32 51.783 10.32C51.655 10.32 51.503 10.32 51.327 10.32C51.167 10.32 50.991 10.336 50.799 10.368C50.655 10.384 50.503 10.432 50.343 10.512C50.199 10.592 50.103 10.68 50.055 10.776C49.703 11.416 49.391 12.032 49.119 12.624C48.847 13.216 48.695 13.664 48.663 13.968C48.615 14.48 48.767 14.736 49.119 14.736C49.471 14.736 49.823 14.584 50.175 14.28C50.543 13.96 50.887 13.592 51.207 13.176C51.527 12.76 51.783 12.408 51.975 12.12C52.039 12.056 52.079 12.024 52.095 12.024C52.143 12.024 52.167 12.064 52.167 12.144C52.167 12.208 52.143 12.28 52.095 12.36C51.823 12.776 51.511 13.2 51.159 13.632C50.807 14.064 50.431 14.432 50.031 14.736C49.647 15.024 49.247 15.168 48.831 15.168Z" fill="#6A6060"/>
</svg>
