<svg width="114" height="22" viewBox="0 0 114 22" fill="none" xmlns="http://www.w3.org/2000/svg">
<path d="M8.27269 16.44C7.34469 16.44 6.47269 16.312 5.65669 16.056C4.84069 15.816 4.17669 15.432 3.66469 14.904C3.16869 14.36 2.92069 13.664 2.92069 12.816C2.92069 12.16 3.08869 11.416 3.42469 10.584C3.77669 9.736 4.34469 8.784 5.12869 7.728C5.51269 7.2 6.00069 6.664 6.59269 6.12C7.20069 5.576 7.84069 5.056 8.51269 4.56C9.18469 4.048 9.83269 3.584 10.4567 3.168C11.0967 2.752 11.6567 2.416 12.1367 2.16C11.9927 2.08 11.8327 2.016 11.6567 1.968C11.4967 1.92 11.3287 1.864 11.1527 1.8C10.3367 1.576 9.47269 1.416 8.56069 1.32C7.64869 1.224 6.77669 1.176 5.94469 1.176C5.78469 1.176 5.63269 1.184 5.48869 1.2C5.34469 1.2 5.20069 1.2 5.05669 1.2C3.95269 1.248 3.09669 1.384 2.48869 1.608C1.89669 1.832 1.54469 2.08 1.43269 2.352C1.40069 2.448 1.38469 2.528 1.38469 2.592C1.38469 2.864 1.53669 3.104 1.84069 3.312C2.16069 3.504 2.50469 3.656 2.87269 3.768C3.24069 3.88 3.51269 3.944 3.68869 3.96C3.76869 3.976 3.80069 4.024 3.78469 4.104C3.78469 4.184 3.74469 4.224 3.66469 4.224C3.50469 4.192 3.24869 4.144 2.89669 4.08C2.56069 4 2.20869 3.888 1.84069 3.744C1.47269 3.6 1.16069 3.432 0.904688 3.24C0.648688 3.032 0.520688 2.8 0.520688 2.544C0.520688 2.448 0.544688 2.352 0.592688 2.256C0.752688 1.888 1.16069 1.576 1.81669 1.32C2.48869 1.048 3.43269 0.888 4.64869 0.839999C4.77669 0.839999 4.89669 0.839999 5.00869 0.839999C5.13669 0.823999 5.26469 0.816 5.39269 0.816C6.36869 0.816 7.38469 0.88 8.44069 1.008C9.51269 1.136 10.5287 1.32 11.4887 1.56C11.8727 1.656 12.2407 1.776 12.5927 1.92C13.0087 1.728 13.4647 1.568 13.9607 1.44C14.4567 1.296 14.9047 1.224 15.3047 1.224C15.5287 1.224 15.7207 1.248 15.8807 1.296C16.0567 1.344 16.1607 1.416 16.1927 1.512C16.2407 1.544 16.2647 1.584 16.2647 1.632C16.2647 1.632 16.2567 1.632 16.2407 1.632C16.2407 1.616 16.2407 1.6 16.2407 1.584L16.1927 1.512C16.0967 1.432 15.9367 1.392 15.7127 1.392C15.4247 1.392 15.0487 1.456 14.5847 1.584C14.1367 1.696 13.6567 1.88 13.1447 2.136L13.1207 2.16C13.8087 2.512 14.3047 2.912 14.6087 3.36C14.9287 3.808 15.0887 4.264 15.0887 4.728C15.0887 5.64 14.5847 6.376 13.5767 6.936C12.9847 7.256 12.3287 7.496 11.6087 7.656C10.9047 7.8 10.2487 7.896 9.64069 7.944C10.4567 8.2 11.2967 8.504 12.1607 8.856C13.0247 9.208 13.7047 9.568 14.2007 9.936C14.7127 10.304 15.0887 10.704 15.3287 11.136C15.5847 11.552 15.7127 11.968 15.7127 12.384C15.7127 12.944 15.5207 13.464 15.1367 13.944C14.7367 14.44 14.1687 14.872 13.4327 15.24C12.6967 15.624 11.8807 15.92 10.9847 16.128C10.0887 16.336 9.18469 16.44 8.27269 16.44ZM8.12869 16.128C8.92869 16.128 9.72869 16.032 10.5287 15.84C11.3287 15.648 12.0487 15.368 12.6887 15C13.3447 14.648 13.8407 14.24 14.1767 13.776C14.4967 13.328 14.6567 12.872 14.6567 12.408C14.6567 12.04 14.5527 11.664 14.3447 11.28C14.1367 10.896 13.8167 10.528 13.3847 10.176C13.0487 9.904 12.6087 9.632 12.0647 9.36C11.5207 9.088 10.9527 8.832 10.3607 8.592C9.76869 8.352 9.20869 8.152 8.68069 7.992C8.39269 7.992 8.13669 7.992 7.91269 7.992C7.70469 7.976 7.55269 7.96 7.45669 7.944C7.42469 7.944 7.32869 7.928 7.16869 7.896C7.00869 7.864 6.84869 7.816 6.68869 7.752C6.54469 7.688 6.47269 7.608 6.47269 7.512C6.47269 7.4 6.52869 7.336 6.64069 7.32C6.76869 7.288 6.84869 7.272 6.88069 7.272C7.02469 7.272 7.27269 7.312 7.62469 7.392C7.99269 7.472 8.40869 7.576 8.87269 7.704C9.48069 7.672 10.1607 7.592 10.9127 7.464C11.6807 7.32 12.3767 7.064 13.0007 6.696C13.3847 6.472 13.6887 6.184 13.9127 5.832C14.1367 5.464 14.2487 5.08 14.2487 4.68C14.2487 4.28 14.1207 3.88 13.8647 3.48C13.6087 3.08 13.2007 2.72 12.6407 2.4C12.1767 2.656 11.6407 2.992 11.0327 3.408C10.4407 3.808 9.83269 4.248 9.20869 4.728C8.58469 5.208 7.99269 5.712 7.43269 6.24C6.88869 6.752 6.42469 7.264 6.04069 7.776C5.22469 8.88 4.63269 9.864 4.26469 10.728C3.91269 11.576 3.73669 12.32 3.73669 12.96C3.73669 13.712 3.93669 14.32 4.33669 14.784C4.75269 15.248 5.29669 15.584 5.96869 15.792C6.64069 16.016 7.36069 16.128 8.12869 16.128ZM7.45669 7.704H7.79269C7.31269 7.576 7.00069 7.512 6.85669 7.512L6.80869 7.536C6.98469 7.632 7.20069 7.688 7.45669 7.704ZM18.5869 15.192C17.9309 15.192 17.4509 15.048 17.1469 14.76C16.8429 14.456 16.6909 14.056 16.6909 13.56C16.6909 13.432 16.6989 13.304 16.7149 13.176C16.7469 13.032 16.7789 12.888 16.8109 12.744C16.8909 12.456 17.0189 12.12 17.1949 11.736C17.3869 11.352 17.6189 10.976 17.8909 10.608C18.1629 10.24 18.4589 9.936 18.7789 9.696C19.0989 9.456 19.4349 9.336 19.7869 9.336C20.0749 9.336 20.2909 9.44 20.4349 9.648C20.5949 9.856 20.6749 10.104 20.6749 10.392C20.6749 10.696 20.5789 11.008 20.3869 11.328C20.2109 11.632 19.9709 11.88 19.6669 12.072C19.3149 12.312 18.9149 12.432 18.4669 12.432C18.1789 12.432 17.9149 12.376 17.6749 12.264C17.4349 12.744 17.3149 13.216 17.3149 13.68C17.3149 14.016 17.4109 14.304 17.6029 14.544C17.7949 14.784 18.1149 14.904 18.5629 14.904C19.1069 14.904 19.5869 14.776 20.0029 14.52C20.4189 14.248 20.8029 13.896 21.1549 13.464C21.5229 13.032 21.8749 12.568 22.2109 12.072C22.2589 12.024 22.2909 12 22.3069 12C22.3549 12 22.3789 12.04 22.3789 12.12C22.3789 12.2 22.3549 12.28 22.3069 12.36C22.0189 12.808 21.6909 13.248 21.3229 13.68C20.9709 14.112 20.5709 14.472 20.1229 14.76C19.6749 15.048 19.1629 15.192 18.5869 15.192ZM18.2269 12.096C18.6429 12.096 19.0349 11.952 19.4029 11.664C19.5789 11.536 19.7309 11.384 19.8589 11.208C19.9869 11.032 20.0749 10.856 20.1229 10.68C20.1709 10.504 20.1949 10.352 20.1949 10.224C20.1949 9.856 20.0589 9.672 19.7869 9.672C19.6109 9.672 19.4109 9.776 19.1869 9.984C18.9949 10.16 18.7949 10.384 18.5869 10.656C18.3949 10.928 18.2269 11.192 18.0829 11.448C17.9389 11.688 17.8429 11.864 17.7949 11.976C17.9069 12.056 18.0509 12.096 18.2269 12.096ZM22.8791 21.816C22.5271 21.816 22.2151 21.648 21.9431 21.312C21.6711 20.992 21.5031 20.488 21.4391 19.8C21.4231 19.672 21.4151 19.536 21.4151 19.392C21.4151 19.264 21.4151 19.136 21.4151 19.008C21.4151 18.416 21.4631 17.792 21.5591 17.136C21.6551 16.496 21.7991 15.856 21.9911 15.216C22.2151 14.464 22.4951 13.688 22.8311 12.888C23.1831 12.072 23.5031 11.376 23.7911 10.8C23.5351 10.768 23.2471 10.816 22.9271 10.944C22.6071 11.072 22.3591 11.224 22.1831 11.4C22.1351 11.448 22.0951 11.472 22.0631 11.472C22.0151 11.472 21.9911 11.432 21.9911 11.352C21.9911 11.176 22.0631 11.032 22.2071 10.92C22.4471 10.68 22.7031 10.512 22.9751 10.416C23.2471 10.304 23.6391 10.2 24.1511 10.104C24.2631 9.896 24.4071 9.632 24.5831 9.312C24.7751 8.992 24.9271 8.728 25.0391 8.52C25.5671 7.688 26.1751 6.936 26.8631 6.264C27.5511 5.592 28.2711 5.176 29.0231 5.016C29.1031 5 29.1751 4.992 29.2391 4.992C29.3031 4.976 29.3671 4.968 29.4311 4.968C29.7031 4.968 29.9191 5.024 30.0791 5.136C30.2391 5.232 30.3351 5.36 30.3671 5.52C30.3831 5.552 30.3911 5.592 30.3911 5.64C30.3911 5.72 30.3671 5.76 30.3191 5.76C30.2551 5.76 30.2151 5.704 30.1991 5.592C30.1831 5.512 30.1111 5.456 29.9831 5.424C29.8551 5.376 29.7111 5.352 29.5511 5.352C29.1511 5.352 28.7271 5.504 28.2791 5.808C27.8471 6.096 27.4231 6.488 27.0071 6.984C26.5911 7.464 26.1991 7.992 25.8311 8.568C25.6871 8.776 25.5431 9.008 25.3991 9.264C25.2551 9.504 25.1191 9.728 24.9911 9.936C25.4071 9.888 25.8231 9.848 26.2391 9.816C26.6551 9.784 27.0391 9.768 27.3911 9.768C27.5191 9.768 27.6391 9.768 27.7511 9.768C27.8631 9.768 27.9671 9.776 28.0631 9.792C28.2391 9.824 28.3271 9.88 28.3271 9.96C28.3271 10.056 28.2551 10.104 28.1111 10.104C27.4711 10.104 26.8871 10.128 26.3591 10.176C25.8311 10.224 25.2871 10.312 24.7271 10.44C24.7111 10.504 24.6871 10.568 24.6551 10.632C24.6231 10.68 24.5911 10.728 24.5591 10.776C24.9911 10.872 25.3431 11.12 25.6151 11.52C25.9031 11.92 26.1111 12.416 26.2391 13.008C26.3831 13.6 26.4551 14.224 26.4551 14.88C26.4551 15.264 26.4311 15.664 26.3831 16.08C26.2711 17.024 26.0711 17.888 25.7831 18.672C25.5111 19.456 25.1991 20.08 24.8471 20.544C24.1911 21.392 23.5351 21.816 22.8791 21.816ZM22.9751 21.24C23.2471 21.24 23.5431 21.096 23.8631 20.808C24.1991 20.536 24.5191 20.12 24.8231 19.56C25.0151 19.192 25.2311 18.704 25.4711 18.096C25.7111 17.504 25.8871 16.824 25.9991 16.056C26.0311 15.816 26.0551 15.576 26.0711 15.336C26.1031 15.096 26.1191 14.864 26.1191 14.64C26.1191 13.76 25.9751 12.984 25.6871 12.312C25.4151 11.624 24.9991 11.2 24.4391 11.04C24.0231 11.776 23.6391 12.6 23.2871 13.512C22.9351 14.424 22.6391 15.352 22.3991 16.296C22.1751 17.24 22.0311 18.12 21.9671 18.936C21.9191 19.704 21.9911 20.28 22.1831 20.664C22.3911 21.048 22.6551 21.24 22.9751 21.24ZM29.43 15.096C28.998 15.096 28.622 14.992 28.302 14.784C27.982 14.56 27.822 14.168 27.822 13.608C27.822 13.256 27.91 12.872 28.086 12.456C28.262 12.024 28.486 11.608 28.758 11.208C29.046 10.792 29.358 10.448 29.694 10.176C29.774 10.112 29.878 10.08 30.006 10.08C30.198 9.888 30.414 9.744 30.654 9.648C30.91 9.552 31.15 9.504 31.374 9.504C31.774 9.504 32.142 9.632 32.478 9.888C32.83 10.144 33.006 10.552 33.006 11.112C33.006 11.432 32.918 11.816 32.742 12.264C32.582 12.68 32.334 13.112 31.998 13.56C31.662 13.992 31.27 14.36 30.822 14.664C30.39 14.952 29.926 15.096 29.43 15.096ZM29.406 14.808C29.758 14.808 30.118 14.672 30.486 14.4C30.87 14.128 31.222 13.784 31.542 13.368C31.862 12.936 32.094 12.504 32.238 12.072C32.398 11.64 32.478 11.256 32.478 10.92C32.478 10.504 32.366 10.208 32.142 10.032C31.918 9.84 31.67 9.744 31.398 9.744C30.966 9.744 30.59 9.888 30.27 10.176C30.43 10.272 30.446 10.368 30.318 10.464C30.094 10.656 29.838 10.92 29.55 11.256C29.278 11.592 29.062 11.904 28.902 12.192C28.79 12.384 28.686 12.632 28.59 12.936C28.51 13.24 28.47 13.528 28.47 13.8C28.47 14.072 28.534 14.312 28.662 14.52C28.806 14.712 29.054 14.808 29.406 14.808ZM35.7984 15.144C35.5264 15.144 35.3104 15.056 35.1504 14.88C35.0064 14.688 34.9344 14.464 34.9344 14.208C34.9344 13.968 34.9904 13.736 35.1024 13.512C35.2784 13.144 35.5024 12.784 35.7744 12.432C36.0624 12.064 36.3264 11.744 36.5664 11.472C36.7264 11.264 36.8064 11.088 36.8064 10.944C36.8064 10.752 36.6864 10.56 36.4464 10.368C36.2544 10.24 36.0784 10.072 35.9184 9.864C35.8064 9.704 35.7264 9.544 35.6784 9.384C35.4224 9.912 35.0944 10.528 34.6944 11.232C34.3104 11.92 33.9104 12.536 33.4944 13.08C33.4304 13.176 33.3664 13.224 33.3024 13.224C33.2544 13.224 33.2304 13.192 33.2304 13.128C33.2304 13.096 33.2384 13.064 33.2544 13.032C33.2704 13 33.3184 12.928 33.3984 12.816C33.8144 12.24 34.1504 11.704 34.4064 11.208C34.6624 10.712 34.8864 10.248 35.0784 9.816L35.6064 8.64C35.6224 8.608 35.6384 8.568 35.6544 8.52C35.6864 8.456 35.7104 8.416 35.7264 8.4C35.7584 8.368 35.7904 8.352 35.8224 8.352C35.8864 8.352 35.9344 8.384 35.9664 8.448C35.9984 8.512 35.9984 8.592 35.9664 8.688C35.9344 8.864 35.9584 9.04 36.0384 9.216C36.1184 9.392 36.2224 9.552 36.3504 9.696C36.4784 9.824 36.6624 9.944 36.9024 10.056C37.1424 10.168 37.3584 10.296 37.5504 10.44C37.7424 10.584 37.8144 10.768 37.7664 10.992C37.7024 11.296 37.5344 11.592 37.2624 11.88C36.9904 12.168 36.7184 12.472 36.4464 12.792C36.2544 13 36.0784 13.208 35.9184 13.416C35.7744 13.624 35.6624 13.84 35.5824 14.064C35.5664 14.112 35.5504 14.16 35.5344 14.208C35.5344 14.256 35.5344 14.304 35.5344 14.352C35.5344 14.64 35.6864 14.784 35.9904 14.784C36.0864 14.784 36.2064 14.76 36.3504 14.712C36.7504 14.568 37.1184 14.328 37.4544 13.992C37.8064 13.656 38.1024 13.32 38.3424 12.984C38.5984 12.648 38.7664 12.416 38.8464 12.288C38.9744 12.096 39.0544 12 39.0864 12C39.1344 12 39.1584 12.04 39.1584 12.12C39.1584 12.2 39.1344 12.28 39.0864 12.36C38.7344 12.92 38.3344 13.448 37.8864 13.944C37.4384 14.44 36.9584 14.792 36.4464 15C36.2064 15.096 35.9904 15.144 35.7984 15.144ZM40.5244 15.192C39.8684 15.192 39.3884 15.048 39.0844 14.76C38.7804 14.456 38.6284 14.056 38.6284 13.56C38.6284 13.432 38.6364 13.304 38.6524 13.176C38.6844 13.032 38.7164 12.888 38.7484 12.744C38.8284 12.456 38.9564 12.12 39.1324 11.736C39.3244 11.352 39.5564 10.976 39.8284 10.608C40.1004 10.24 40.3964 9.936 40.7164 9.696C41.0364 9.456 41.3724 9.336 41.7244 9.336C42.0124 9.336 42.2284 9.44 42.3724 9.648C42.5324 9.856 42.6124 10.104 42.6124 10.392C42.6124 10.696 42.5164 11.008 42.3244 11.328C42.1484 11.632 41.9084 11.88 41.6044 12.072C41.2524 12.312 40.8524 12.432 40.4044 12.432C40.1164 12.432 39.8524 12.376 39.6124 12.264C39.3724 12.744 39.2524 13.216 39.2524 13.68C39.2524 14.016 39.3484 14.304 39.5404 14.544C39.7324 14.784 40.0524 14.904 40.5004 14.904C41.0444 14.904 41.5244 14.776 41.9404 14.52C42.3564 14.248 42.7404 13.896 43.0924 13.464C43.4604 13.032 43.8124 12.568 44.1484 12.072C44.1964 12.024 44.2284 12 44.2444 12C44.2924 12 44.3164 12.04 44.3164 12.12C44.3164 12.2 44.2924 12.28 44.2444 12.36C43.9564 12.808 43.6284 13.248 43.2604 13.68C42.9084 14.112 42.5084 14.472 42.0604 14.76C41.6124 15.048 41.1004 15.192 40.5244 15.192ZM40.1644 12.096C40.5804 12.096 40.9724 11.952 41.3404 11.664C41.5164 11.536 41.6684 11.384 41.7964 11.208C41.9244 11.032 42.0124 10.856 42.0604 10.68C42.1084 10.504 42.1324 10.352 42.1324 10.224C42.1324 9.856 41.9964 9.672 41.7244 9.672C41.5484 9.672 41.3484 9.776 41.1244 9.984C40.9324 10.16 40.7324 10.384 40.5244 10.656C40.3324 10.928 40.1644 11.192 40.0204 11.448C39.8764 11.688 39.7804 11.864 39.7324 11.976C39.8444 12.056 39.9884 12.096 40.1644 12.096ZM49.0693 15.168C48.7813 15.168 48.5733 15.072 48.4453 14.88C48.3173 14.688 48.2533 14.448 48.2533 14.16C48.2533 13.936 48.2773 13.72 48.3253 13.512C48.3733 13.288 48.5253 12.92 48.7813 12.408C49.0373 11.88 49.3173 11.328 49.6213 10.752C49.4613 10.816 49.2853 10.888 49.0933 10.968C48.9173 11.032 48.7893 11.104 48.7093 11.184C48.6453 11.216 48.6053 11.232 48.5893 11.232C48.5413 11.232 48.5173 11.2 48.5173 11.136C48.5173 10.992 48.6053 10.856 48.7813 10.728C48.9573 10.6 49.1253 10.512 49.2853 10.464C49.4613 10.416 49.6613 10.36 49.8853 10.296C50.0613 9.976 50.2453 9.648 50.4373 9.312C50.6453 8.96 50.8293 8.656 50.9893 8.4C51.1013 8.24 51.2613 8.04 51.4693 7.8C51.6773 7.544 51.9093 7.336 52.1653 7.176C52.3093 7.08 52.5013 7.032 52.7413 7.032C52.9173 7.032 53.0133 7.064 53.0293 7.128C52.7893 7.192 52.5413 7.352 52.2853 7.608C52.0453 7.864 51.8133 8.16 51.5893 8.496C51.3653 8.832 51.1733 9.152 51.0133 9.456C50.8533 9.744 50.7333 9.968 50.6533 10.128C50.9893 10.08 51.2693 10.056 51.4933 10.056C51.6213 10.056 51.7333 10.064 51.8293 10.08C51.9253 10.08 52.0053 10.088 52.0693 10.104C52.1973 10.12 52.2613 10.16 52.2613 10.224C52.2613 10.288 52.1813 10.32 52.0213 10.32C51.8933 10.32 51.7413 10.32 51.5653 10.32C51.4053 10.32 51.2293 10.336 51.0373 10.368C50.8933 10.384 50.7413 10.432 50.5813 10.512C50.4373 10.592 50.3413 10.68 50.2933 10.776C49.9413 11.416 49.6293 12.032 49.3573 12.624C49.0853 13.216 48.9333 13.664 48.9013 13.968C48.8533 14.48 49.0053 14.736 49.3573 14.736C49.7093 14.736 50.0613 14.584 50.4133 14.28C50.7813 13.96 51.1253 13.592 51.4453 13.176C51.7653 12.76 52.0213 12.408 52.2133 12.12C52.2773 12.056 52.3173 12.024 52.3333 12.024C52.3813 12.024 52.4053 12.064 52.4053 12.144C52.4053 12.208 52.3813 12.28 52.3333 12.36C52.0613 12.776 51.7493 13.2 51.3973 13.632C51.0453 14.064 50.6693 14.432 50.2693 14.736C49.8853 15.024 49.4853 15.168 49.0693 15.168ZM52.0146 15.12C51.9026 15.12 51.8146 15.056 51.7506 14.928C51.6866 14.8 51.6546 14.648 51.6546 14.472C51.6546 14.216 51.6866 13.936 51.7506 13.632C51.8306 13.312 51.9106 13.024 51.9906 12.768C52.0706 12.496 52.1266 12.312 52.1586 12.216C52.3826 11.624 52.6706 10.952 53.0226 10.2C53.3746 9.432 53.7906 8.688 54.2706 7.968C54.7666 7.232 55.3106 6.6 55.9026 6.072C56.4946 5.528 57.1346 5.176 57.8226 5.016C57.9026 5 57.9746 4.992 58.0386 4.992C58.1186 4.976 58.1906 4.968 58.2546 4.968C58.5106 4.968 58.7186 5.024 58.8786 5.136C59.0386 5.232 59.1426 5.36 59.1906 5.52C59.1906 5.536 59.1906 5.552 59.1906 5.568C59.2066 5.584 59.2146 5.608 59.2146 5.64C59.2146 5.72 59.1906 5.76 59.1426 5.76C59.0626 5.76 59.0146 5.704 58.9986 5.592C58.9826 5.512 58.9106 5.456 58.7826 5.424C58.6546 5.376 58.5106 5.352 58.3506 5.352C57.8226 5.352 57.2866 5.584 56.7426 6.048C56.2146 6.496 55.6946 7.072 55.1826 7.776C54.6866 8.464 54.2306 9.176 53.8146 9.912C53.4146 10.648 53.0866 11.304 52.8306 11.88C52.8146 11.912 52.7666 12.032 52.6866 12.24C52.6226 12.448 52.5506 12.696 52.4706 12.984C52.3906 13.272 52.3266 13.552 52.2786 13.824L52.9266 12.864C53.2946 12.32 53.7426 11.776 54.2706 11.232C54.7986 10.672 55.3746 10.216 55.9986 9.864C56.0626 9.832 56.1266 9.808 56.1906 9.792C56.2706 9.776 56.3426 9.768 56.4066 9.768C56.5506 9.768 56.6226 9.816 56.6226 9.912C56.6226 9.944 56.5826 10.024 56.5026 10.152C56.1666 10.6 55.9026 11.072 55.7106 11.568C55.5186 12.048 55.3986 12.576 55.3506 13.152C55.3346 13.504 55.3666 13.832 55.4466 14.136C55.5426 14.44 55.7426 14.592 56.0466 14.592C56.3826 14.592 56.7106 14.448 57.0306 14.16C57.3666 13.856 57.6706 13.512 57.9426 13.128C58.2306 12.728 58.4786 12.376 58.6866 12.072C58.7186 12.024 58.7426 12 58.7586 12C58.8066 12 58.8306 12.048 58.8306 12.144C58.8306 12.24 58.7906 12.352 58.7106 12.48C58.4546 12.864 58.1746 13.248 57.8706 13.632C57.5826 14.016 57.2706 14.336 56.9346 14.592C56.5986 14.848 56.2306 14.976 55.8306 14.976C55.4306 14.976 55.1426 14.824 54.9666 14.52C54.7906 14.216 54.7026 13.848 54.7026 13.416C54.7026 12.952 54.7746 12.456 54.9186 11.928C55.0786 11.4 55.2626 10.96 55.4706 10.608C55.0546 10.912 54.6226 11.296 54.1746 11.76C53.7266 12.208 53.3426 12.688 53.0226 13.2C52.9106 13.408 52.7506 13.672 52.5426 13.992C52.3346 14.296 52.2146 14.552 52.1826 14.76C52.1346 15 52.0786 15.12 52.0146 15.12ZM60.2119 15.192C59.5559 15.192 59.0759 15.048 58.7719 14.76C58.4679 14.456 58.3159 14.056 58.3159 13.56C58.3159 13.432 58.3239 13.304 58.3399 13.176C58.3719 13.032 58.4039 12.888 58.4359 12.744C58.5159 12.456 58.6439 12.12 58.8199 11.736C59.0119 11.352 59.2439 10.976 59.5159 10.608C59.7879 10.24 60.0839 9.936 60.4039 9.696C60.7239 9.456 61.0599 9.336 61.4119 9.336C61.6999 9.336 61.9159 9.44 62.0599 9.648C62.2199 9.856 62.2999 10.104 62.2999 10.392C62.2999 10.696 62.2039 11.008 62.0119 11.328C61.8359 11.632 61.5959 11.88 61.2919 12.072C60.9399 12.312 60.5399 12.432 60.0919 12.432C59.8039 12.432 59.5399 12.376 59.2999 12.264C59.0599 12.744 58.9399 13.216 58.9399 13.68C58.9399 14.016 59.0359 14.304 59.2279 14.544C59.4199 14.784 59.7399 14.904 60.1879 14.904C60.7319 14.904 61.2119 14.776 61.6279 14.52C62.0439 14.248 62.4279 13.896 62.7799 13.464C63.1479 13.032 63.4999 12.568 63.8359 12.072C63.8839 12.024 63.9159 12 63.9319 12C63.9799 12 64.0039 12.04 64.0039 12.12C64.0039 12.2 63.9799 12.28 63.9319 12.36C63.6439 12.808 63.3159 13.248 62.9479 13.68C62.5959 14.112 62.1959 14.472 61.7479 14.76C61.2999 15.048 60.7879 15.192 60.2119 15.192ZM59.8519 12.096C60.2679 12.096 60.6599 11.952 61.0279 11.664C61.2039 11.536 61.3559 11.384 61.4839 11.208C61.6119 11.032 61.6999 10.856 61.7479 10.68C61.7959 10.504 61.8199 10.352 61.8199 10.224C61.8199 9.856 61.6839 9.672 61.4119 9.672C61.2359 9.672 61.0359 9.776 60.8119 9.984C60.6199 10.16 60.4199 10.384 60.2119 10.656C60.0199 10.928 59.8519 11.192 59.7079 11.448C59.5639 11.688 59.4679 11.864 59.4199 11.976C59.5319 12.056 59.6759 12.096 59.8519 12.096ZM68.8048 15.168C68.5168 15.168 68.3088 15.072 68.1808 14.88C68.0528 14.688 67.9888 14.448 67.9888 14.16C67.9888 13.936 68.0128 13.72 68.0608 13.512C68.0928 13.416 68.1728 13.176 68.3008 12.792C68.4448 12.408 68.6288 11.984 68.8528 11.52C69.0928 11.056 69.3488 10.656 69.6208 10.32C69.8928 9.968 70.1728 9.792 70.4608 9.792C70.5888 9.792 70.6528 9.824 70.6528 9.888C70.6528 9.952 70.6208 10.016 70.5568 10.08C70.2368 10.464 69.9328 10.92 69.6448 11.448C69.3728 11.96 69.1408 12.448 68.9488 12.912C68.7728 13.376 68.6688 13.728 68.6368 13.968C68.5888 14.48 68.7408 14.736 69.0928 14.736C69.4928 14.736 69.9088 14.512 70.3408 14.064C70.7888 13.616 71.1888 13.096 71.5408 12.504C71.6528 12.328 71.7888 12.104 71.9488 11.832C72.1088 11.544 72.2848 11.288 72.4768 11.064C72.6848 10.84 72.8848 10.728 73.0768 10.728C73.2048 10.728 73.2688 10.76 73.2688 10.824C73.2688 10.888 73.2368 10.952 73.1728 11.016C72.9488 11.288 72.7328 11.64 72.5248 12.072C72.3168 12.504 72.1488 12.92 72.0208 13.32C71.9088 13.704 71.8528 13.992 71.8528 14.184C71.8528 14.648 72.0528 14.88 72.4528 14.88C72.8848 14.88 73.3248 14.704 73.7728 14.352C74.2208 14 74.6288 13.56 74.9968 13.032C75.3808 12.488 75.6848 11.936 75.9088 11.376C76.1488 10.816 76.2688 10.336 76.2688 9.936C76.2688 9.472 76.1168 9.208 75.8128 9.144C75.7648 9.144 75.7408 9.128 75.7408 9.096C75.7408 9.016 75.8288 8.976 76.0048 8.976C76.2768 8.976 76.4768 9.088 76.6048 9.312C76.7328 9.536 76.7968 9.808 76.7968 10.128C76.7968 10.752 76.6128 11.4 76.2448 12.072C75.8928 12.728 75.4368 13.328 74.8768 13.872C74.3168 14.4 73.7248 14.776 73.1008 15C72.8128 15.096 72.5488 15.144 72.3088 15.144C71.9888 15.144 71.7248 15.056 71.5168 14.88C71.3248 14.704 71.2288 14.44 71.2288 14.088C71.2288 13.912 71.2528 13.72 71.3008 13.512C71.3008 13.48 71.3008 13.448 71.3008 13.416C71.3168 13.384 71.3328 13.344 71.3488 13.296C71.0448 13.696 70.7248 14.056 70.3888 14.376C70.0688 14.696 69.7488 14.912 69.4288 15.024C69.1888 15.12 68.9808 15.168 68.8048 15.168ZM78.8447 15.192C78.1887 15.192 77.7087 15.048 77.4047 14.76C77.1007 14.456 76.9487 14.056 76.9487 13.56C76.9487 13.432 76.9567 13.304 76.9727 13.176C77.0047 13.032 77.0367 12.888 77.0687 12.744C77.1487 12.456 77.2767 12.12 77.4527 11.736C77.6447 11.352 77.8767 10.976 78.1487 10.608C78.4207 10.24 78.7167 9.936 79.0367 9.696C79.3567 9.456 79.6927 9.336 80.0447 9.336C80.3327 9.336 80.5487 9.44 80.6927 9.648C80.8527 9.856 80.9327 10.104 80.9327 10.392C80.9327 10.696 80.8367 11.008 80.6447 11.328C80.4687 11.632 80.2287 11.88 79.9247 12.072C79.5727 12.312 79.1727 12.432 78.7247 12.432C78.4367 12.432 78.1727 12.376 77.9327 12.264C77.6927 12.744 77.5727 13.216 77.5727 13.68C77.5727 14.016 77.6687 14.304 77.8607 14.544C78.0527 14.784 78.3727 14.904 78.8207 14.904C79.3647 14.904 79.8447 14.776 80.2607 14.52C80.6767 14.248 81.0607 13.896 81.4127 13.464C81.7807 13.032 82.1327 12.568 82.4687 12.072C82.5167 12.024 82.5487 12 82.5647 12C82.6127 12 82.6367 12.04 82.6367 12.12C82.6367 12.2 82.6127 12.28 82.5647 12.36C82.2767 12.808 81.9487 13.248 81.5807 13.68C81.2287 14.112 80.8287 14.472 80.3807 14.76C79.9327 15.048 79.4207 15.192 78.8447 15.192ZM78.4847 12.096C78.9007 12.096 79.2927 11.952 79.6607 11.664C79.8367 11.536 79.9887 11.384 80.1167 11.208C80.2447 11.032 80.3327 10.856 80.3807 10.68C80.4287 10.504 80.4527 10.352 80.4527 10.224C80.4527 9.856 80.3167 9.672 80.0447 9.672C79.8687 9.672 79.6687 9.776 79.4447 9.984C79.2527 10.16 79.0527 10.384 78.8447 10.656C78.6527 10.928 78.4847 11.192 78.3407 11.448C78.1967 11.688 78.1007 11.864 78.0527 11.976C78.1647 12.056 78.3087 12.096 78.4847 12.096ZM82.8729 15.264C82.5529 15.264 82.2969 15.136 82.1049 14.88C81.9289 14.624 81.8409 14.304 81.8409 13.92C81.8409 13.584 81.9209 13.224 82.0809 12.84C82.2409 12.44 82.4489 12.04 82.7049 11.64C82.9609 11.272 83.3289 10.912 83.8089 10.56C84.2889 10.208 84.7529 10.024 85.2009 10.008C85.3769 10.008 85.5369 10.04 85.6809 10.104C85.8409 10.152 85.9609 10.24 86.0409 10.368C86.1209 9.568 86.2649 8.728 86.4729 7.848C86.6809 6.952 86.9449 6.104 87.2649 5.304C87.8409 3.864 88.5769 2.744 89.4729 1.944C89.9529 1.512 90.4169 1.296 90.8649 1.296C91.1689 1.296 91.4089 1.416 91.5849 1.656C91.7769 1.88 91.8729 2.224 91.8729 2.688C91.8729 3.152 91.7449 3.752 91.4889 4.488C91.2489 5.208 90.8409 6.064 90.2649 7.056C90.1049 7.312 89.8329 7.712 89.4489 8.256C89.0809 8.8 88.6409 9.408 88.1289 10.08C87.6329 10.736 87.1209 11.384 86.5929 12.024C86.5769 12.728 86.6329 13.36 86.7609 13.92C86.8889 14.464 87.1529 14.736 87.5529 14.736C87.6009 14.736 87.6489 14.736 87.6969 14.736C87.7449 14.72 87.7929 14.704 87.8409 14.688C88.1769 14.576 88.5049 14.368 88.8249 14.064C89.1449 13.76 89.4409 13.424 89.7129 13.056C89.9849 12.688 90.2089 12.368 90.3849 12.096C90.4489 12.032 90.4889 12 90.5049 12C90.5529 12 90.5769 12.04 90.5769 12.12C90.5769 12.2 90.5529 12.28 90.5049 12.36C90.1849 12.904 89.7769 13.44 89.2809 13.968C88.7849 14.496 88.3129 14.848 87.8649 15.024C87.6889 15.088 87.5209 15.12 87.3609 15.12C86.9129 15.12 86.5689 14.888 86.3289 14.424C86.1049 13.96 85.9769 13.416 85.9449 12.792C85.4649 13.336 85.0089 13.824 84.5769 14.256C84.1449 14.672 83.7849 14.952 83.4969 15.096C83.2729 15.208 83.0649 15.264 82.8729 15.264ZM86.6169 11.448C87.1129 10.84 87.5849 10.232 88.0329 9.624C88.4809 9.016 88.8729 8.472 89.2089 7.992C89.5609 7.496 89.8089 7.128 89.9529 6.888C90.5129 5.928 90.9129 5.104 91.1529 4.416C91.3929 3.728 91.5129 3.176 91.5129 2.76C91.5129 2.104 91.2969 1.776 90.8649 1.776C90.5289 1.776 90.1609 1.976 89.7609 2.376C89.4729 2.664 89.1529 3.104 88.8009 3.696C88.4649 4.272 88.1609 4.912 87.8889 5.616C87.5369 6.512 87.2409 7.472 87.0009 8.496C86.9529 8.704 86.8809 9.088 86.7849 9.648C86.7049 10.192 86.6489 10.792 86.6169 11.448ZM82.7769 14.976C82.9369 14.976 83.1209 14.92 83.3289 14.808C83.6169 14.664 83.9929 14.36 84.4569 13.896C84.9209 13.416 85.4089 12.872 85.9209 12.264C85.9209 11.784 85.9449 11.272 85.9929 10.728C85.9289 10.664 85.8489 10.608 85.7529 10.56C85.6729 10.512 85.6009 10.48 85.5369 10.464C85.4889 10.448 85.4089 10.44 85.2969 10.44C85.0249 10.456 84.7369 10.592 84.4329 10.848C84.1289 11.088 83.8329 11.384 83.5449 11.736C83.2729 12.088 83.0329 12.448 82.8249 12.816C82.4729 13.456 82.2969 13.968 82.2969 14.352C82.2969 14.768 82.4569 14.976 82.7769 14.976ZM90.8183 15.264C90.4983 15.264 90.2423 15.136 90.0503 14.88C89.8742 14.624 89.7862 14.304 89.7862 13.92C89.7862 13.584 89.8662 13.224 90.0263 12.84C90.1863 12.44 90.3943 12.04 90.6503 11.64C90.9063 11.272 91.2743 10.912 91.7543 10.56C92.2343 10.208 92.6983 10.024 93.1463 10.008C93.3223 10.008 93.4823 10.04 93.6263 10.104C93.7863 10.152 93.9063 10.24 93.9863 10.368C94.0663 9.568 94.2103 8.728 94.4183 7.848C94.6263 6.952 94.8903 6.104 95.2103 5.304C95.7863 3.864 96.5223 2.744 97.4183 1.944C97.8983 1.512 98.3623 1.296 98.8103 1.296C99.1143 1.296 99.3543 1.416 99.5303 1.656C99.7223 1.88 99.8183 2.224 99.8183 2.688C99.8183 3.152 99.6903 3.752 99.4343 4.488C99.1943 5.208 98.7863 6.064 98.2103 7.056C98.0503 7.312 97.7783 7.712 97.3943 8.256C97.0263 8.8 96.5863 9.408 96.0742 10.08C95.5783 10.736 95.0663 11.384 94.5383 12.024C94.5223 12.728 94.5783 13.36 94.7063 13.92C94.8343 14.464 95.0983 14.736 95.4983 14.736C95.5463 14.736 95.5943 14.736 95.6423 14.736C95.6903 14.72 95.7383 14.704 95.7863 14.688C96.1223 14.576 96.4503 14.368 96.7703 14.064C97.0903 13.76 97.3863 13.424 97.6583 13.056C97.9303 12.688 98.1543 12.368 98.3303 12.096C98.3943 12.032 98.4343 12 98.4503 12C98.4983 12 98.5223 12.04 98.5223 12.12C98.5223 12.2 98.4983 12.28 98.4503 12.36C98.1303 12.904 97.7223 13.44 97.2263 13.968C96.7303 14.496 96.2583 14.848 95.8103 15.024C95.6343 15.088 95.4663 15.12 95.3063 15.12C94.8583 15.12 94.5143 14.888 94.2743 14.424C94.0503 13.96 93.9223 13.416 93.8903 12.792C93.4103 13.336 92.9543 13.824 92.5223 14.256C92.0903 14.672 91.7303 14.952 91.4423 15.096C91.2183 15.208 91.0103 15.264 90.8183 15.264ZM94.5623 11.448C95.0583 10.84 95.5303 10.232 95.9783 9.624C96.4263 9.016 96.8183 8.472 97.1543 7.992C97.5063 7.496 97.7543 7.128 97.8983 6.888C98.4583 5.928 98.8583 5.104 99.0983 4.416C99.3383 3.728 99.4583 3.176 99.4583 2.76C99.4583 2.104 99.2423 1.776 98.8103 1.776C98.4743 1.776 98.1063 1.976 97.7063 2.376C97.4183 2.664 97.0983 3.104 96.7463 3.696C96.4103 4.272 96.1063 4.912 95.8343 5.616C95.4823 6.512 95.1863 7.472 94.9463 8.496C94.8983 8.704 94.8263 9.088 94.7303 9.648C94.6503 10.192 94.5943 10.792 94.5623 11.448ZM90.7223 14.976C90.8823 14.976 91.0663 14.92 91.2743 14.808C91.5623 14.664 91.9383 14.36 92.4023 13.896C92.8663 13.416 93.3543 12.872 93.8663 12.264C93.8663 11.784 93.8903 11.272 93.9383 10.728C93.8743 10.664 93.7943 10.608 93.6983 10.56C93.6183 10.512 93.5463 10.48 93.4823 10.464C93.4343 10.448 93.3543 10.44 93.2423 10.44C92.9703 10.456 92.6823 10.592 92.3783 10.848C92.0743 11.088 91.7783 11.384 91.4902 11.736C91.2183 12.088 90.9783 12.448 90.7703 12.816C90.4183 13.456 90.2423 13.968 90.2423 14.352C90.2423 14.768 90.4023 14.976 90.7223 14.976ZM100.948 8.088C100.724 8.088 100.588 7.952 100.54 7.68C100.524 7.552 100.604 7.424 100.78 7.296C100.956 7.168 101.1 7.08 101.212 7.032C101.292 7 101.356 6.976 101.404 6.96C101.452 6.944 101.492 6.936 101.524 6.936C101.636 6.936 101.692 6.992 101.692 7.104C101.692 7.232 101.644 7.384 101.548 7.56C101.468 7.736 101.428 7.824 101.428 7.824C101.412 7.888 101.356 7.952 101.26 8.016C101.164 8.064 101.06 8.088 100.948 8.088ZM98.5476 15.168C98.2596 15.168 98.0516 15.072 97.9236 14.88C97.7956 14.688 97.7316 14.448 97.7316 14.16C97.7316 13.936 97.7556 13.72 97.8036 13.512C97.8356 13.416 97.9156 13.176 98.0436 12.792C98.1876 12.408 98.3716 11.984 98.5956 11.52C98.8356 11.056 99.0916 10.656 99.3636 10.32C99.6356 9.968 99.9156 9.792 100.204 9.792C100.332 9.792 100.396 9.824 100.396 9.888C100.396 9.952 100.364 10.016 100.3 10.08C99.9796 10.464 99.6756 10.92 99.3876 11.448C99.1156 11.96 98.8836 12.448 98.6916 12.912C98.5156 13.376 98.4116 13.728 98.3796 13.968C98.3316 14.48 98.4836 14.736 98.8356 14.736C98.8836 14.736 98.9316 14.736 98.9796 14.736C99.0276 14.72 99.0836 14.704 99.1476 14.688C99.4836 14.576 99.8116 14.368 100.132 14.064C100.452 13.76 100.748 13.424 101.02 13.056C101.292 12.688 101.516 12.368 101.692 12.096C101.756 12.032 101.796 12 101.812 12C101.86 12 101.884 12.04 101.884 12.12C101.884 12.2 101.86 12.28 101.812 12.36C101.46 12.904 101.044 13.44 100.564 13.968C100.1 14.496 99.6356 14.848 99.1716 15.024C98.9316 15.12 98.7236 15.168 98.5476 15.168ZM101.443 15.096C101.395 15.096 101.347 15.064 101.299 15C101.171 14.856 101.107 14.624 101.107 14.304C101.107 13.968 101.163 13.592 101.275 13.176C101.403 12.744 101.547 12.352 101.707 12C101.867 11.664 102.011 11.368 102.139 11.112C102.283 10.856 102.379 10.696 102.427 10.632C102.603 10.408 102.787 10.224 102.979 10.08C103.171 9.936 103.363 9.864 103.555 9.864C103.651 9.864 103.723 9.888 103.771 9.936C103.835 9.984 103.843 10.024 103.795 10.056C103.667 10.12 103.499 10.296 103.291 10.584C103.083 10.856 102.867 11.176 102.643 11.544C102.499 11.8 102.315 12.144 102.091 12.576C101.867 13.008 101.739 13.376 101.707 13.68C101.707 13.808 101.739 13.864 101.803 13.848L102.403 12.864C102.739 12.304 103.179 11.752 103.723 11.208C104.267 10.664 104.851 10.216 105.475 9.864C105.539 9.832 105.603 9.808 105.667 9.792C105.747 9.776 105.819 9.768 105.883 9.768C106.027 9.768 106.099 9.816 106.099 9.912C106.099 9.944 106.059 10.024 105.979 10.152C105.643 10.6 105.379 11.072 105.187 11.568C104.995 12.048 104.875 12.576 104.827 13.152C104.811 13.504 104.843 13.832 104.923 14.136C105.019 14.424 105.219 14.568 105.523 14.568C105.875 14.568 106.211 14.424 106.531 14.136C106.851 13.848 107.147 13.512 107.419 13.128C107.707 12.728 107.955 12.376 108.163 12.072C108.195 12.024 108.219 12 108.235 12C108.283 12 108.307 12.048 108.307 12.144C108.307 12.224 108.275 12.32 108.211 12.432C107.971 12.784 107.707 13.16 107.419 13.56C107.131 13.96 106.811 14.296 106.459 14.568C106.123 14.84 105.739 14.976 105.307 14.976C104.907 14.976 104.619 14.824 104.443 14.52C104.267 14.216 104.179 13.848 104.179 13.416C104.179 12.952 104.251 12.456 104.395 11.928C104.555 11.4 104.739 10.96 104.947 10.608C104.531 10.912 104.099 11.296 103.651 11.76C103.203 12.208 102.819 12.688 102.499 13.2C102.387 13.408 102.235 13.672 102.043 13.992C101.851 14.312 101.723 14.568 101.659 14.76C101.643 14.824 101.627 14.88 101.611 14.928C101.595 14.96 101.579 14.992 101.563 15.024C101.547 15.072 101.507 15.096 101.443 15.096ZM107.24 21.792C106.792 21.792 106.472 21.64 106.28 21.336C106.184 21.16 106.136 20.976 106.136 20.784C106.136 20.576 106.176 20.36 106.256 20.136C106.336 19.928 106.44 19.712 106.568 19.488C106.792 19.12 107.056 18.76 107.36 18.408C107.664 18.056 107.96 17.736 108.248 17.448C108.552 17.16 108.8 16.936 108.992 16.776C109.328 16.504 109.72 16.184 110.168 15.816C110.632 15.448 111.104 15.136 111.584 14.88C111.616 14.864 111.648 14.856 111.68 14.856C111.728 14.856 111.752 14.88 111.752 14.928C111.752 15.024 111.712 15.088 111.632 15.12C111.424 15.232 111.16 15.4 110.84 15.624C110.52 15.864 110.208 16.104 109.904 16.344C109.6 16.6 109.336 16.824 109.112 17.016C108.952 17.16 108.736 17.376 108.464 17.664C108.192 17.952 107.92 18.272 107.648 18.624C107.36 18.992 107.12 19.36 106.928 19.728C106.864 19.856 106.792 20.024 106.712 20.232C106.632 20.456 106.592 20.664 106.592 20.856C106.592 21.016 106.64 21.144 106.736 21.24C106.816 21.352 106.96 21.408 107.168 21.408C107.504 21.408 107.84 21.288 108.176 21.048C108.528 20.824 108.856 20.544 109.16 20.208C109.48 19.872 109.768 19.528 110.024 19.176C110.28 18.84 110.48 18.544 110.624 18.288C111.2 17.344 111.648 16.296 111.968 15.144C112.304 14.008 112.432 12.944 112.352 11.952C112.336 11.84 112.32 11.736 112.304 11.64C112.288 11.528 112.264 11.416 112.232 11.304C112.2 11.352 112.168 11.4 112.136 11.448C112.104 11.496 112.064 11.552 112.016 11.616C111.904 11.856 111.752 12.128 111.56 12.432C111.368 12.72 111.184 12.984 111.008 13.224C110.848 13.464 110.736 13.624 110.672 13.704C110.288 14.168 109.928 14.504 109.592 14.712C109.272 14.92 108.992 15.024 108.752 15.024C108.432 15.024 108.184 14.888 108.008 14.616C107.832 14.328 107.744 13.984 107.744 13.584C107.744 12.848 108.024 12.032 108.584 11.136C108.856 10.72 109.232 10.336 109.712 9.984C110.192 9.616 110.664 9.432 111.128 9.432C111.512 9.432 111.84 9.592 112.112 9.912C112.16 9.976 112.168 10.056 112.136 10.152C112.12 10.232 112.08 10.24 112.016 10.176C111.952 10.08 111.848 10.016 111.704 9.984C111.576 9.952 111.448 9.936 111.32 9.936C110.92 9.936 110.552 10.08 110.216 10.368C109.88 10.64 109.584 10.968 109.328 11.352C109.088 11.72 108.888 12.064 108.728 12.384C108.376 13.088 108.2 13.648 108.2 14.064C108.2 14.496 108.36 14.712 108.68 14.712C108.888 14.712 109.136 14.616 109.424 14.424C109.728 14.216 110.056 13.888 110.408 13.44C110.488 13.344 110.624 13.168 110.816 12.912C111.008 12.64 111.216 12.32 111.44 11.952C111.664 11.584 111.856 11.224 112.016 10.872C112.016 10.856 112.016 10.848 112.016 10.848C112.032 10.848 112.04 10.84 112.04 10.824C112.024 10.808 112 10.768 111.968 10.704V10.68C111.968 10.616 112.04 10.584 112.184 10.584C112.312 10.584 112.408 10.616 112.472 10.68C112.664 10.84 112.8 11.088 112.88 11.424C112.976 11.744 113.024 12.112 113.024 12.528C113.024 13.072 112.96 13.664 112.832 14.304C112.704 14.928 112.536 15.536 112.328 16.128C112.136 16.72 111.912 17.248 111.656 17.712C111.368 18.288 111.024 18.84 110.624 19.368C110.24 19.912 109.824 20.384 109.376 20.784C108.944 21.184 108.512 21.464 108.08 21.624C107.792 21.736 107.512 21.792 107.24 21.792Z" fill="#6A6060"/>
</svg>
