<svg width="69" height="16" viewBox="0 0 69 16" fill="none" xmlns="http://www.w3.org/2000/svg">
<path d="M6.55309 15.96C6.07309 15.96 5.60909 15.928 5.16109 15.864C4.72909 15.816 4.32909 15.736 3.96109 15.624C3.32109 15.416 2.85709 15.136 2.56909 14.784C2.29709 14.416 2.16109 14 2.16109 13.536C2.16109 12.944 2.34509 12.288 2.71309 11.568C3.09709 10.832 3.59309 10.08 4.20109 9.312C4.80909 8.544 5.48109 7.792 6.21709 7.056C6.95309 6.304 7.68909 5.6 8.42509 4.944C9.17709 4.288 9.86509 3.72 10.4891 3.24C11.1131 2.76 11.6091 2.4 11.9771 2.16C11.8171 2.08 11.6491 2.016 11.4731 1.968C11.3131 1.92 11.1451 1.864 10.9691 1.8C10.1531 1.576 9.28909 1.416 8.37709 1.32C7.46509 1.224 6.59309 1.176 5.76109 1.176C5.60109 1.176 5.44909 1.184 5.30509 1.2C5.16109 1.2 5.01709 1.2 4.87309 1.2C3.76909 1.248 2.91309 1.384 2.30509 1.608C1.71309 1.832 1.36109 2.08 1.24909 2.352C1.21709 2.448 1.20109 2.528 1.20109 2.592C1.20109 2.864 1.35309 3.104 1.65709 3.312C1.97709 3.504 2.32109 3.656 2.68909 3.768C3.05709 3.88 3.32909 3.944 3.50509 3.96C3.58509 3.976 3.61709 4.024 3.60109 4.104C3.60109 4.184 3.56109 4.224 3.48109 4.224C3.32109 4.192 3.06509 4.144 2.71309 4.08C2.37709 4 2.02509 3.888 1.65709 3.744C1.28909 3.6 0.977094 3.432 0.721094 3.24C0.465094 3.032 0.337094 2.8 0.337094 2.544C0.337094 2.448 0.361094 2.352 0.409094 2.256C0.569094 1.888 0.977094 1.576 1.63309 1.32C2.30509 1.048 3.24909 0.888 4.46509 0.839999C4.59309 0.839999 4.72909 0.839999 4.87309 0.839999C5.01709 0.823999 5.16109 0.816 5.30509 0.816C6.26509 0.816 7.27309 0.871999 8.32909 0.983999C9.38509 1.096 10.3771 1.288 11.3051 1.56C11.6731 1.656 12.0411 1.776 12.4091 1.92C12.8091 1.728 13.2571 1.568 13.7531 1.44C14.2651 1.296 14.7211 1.224 15.1211 1.224C15.3451 1.224 15.5371 1.248 15.6971 1.296C15.8731 1.344 15.9771 1.416 16.0091 1.512C16.0571 1.544 16.0811 1.584 16.0811 1.632C16.0811 1.632 16.0731 1.632 16.0571 1.632C16.0571 1.616 16.0571 1.6 16.0571 1.584L16.0091 1.512C15.9131 1.432 15.7531 1.392 15.5291 1.392C15.2411 1.392 14.8651 1.456 14.4011 1.584C13.9531 1.696 13.4731 1.88 12.9611 2.136L12.9371 2.16C14.3611 2.816 15.4171 3.688 16.1051 4.776C16.7931 5.864 17.1371 7 17.1371 8.184C17.1371 9.32 16.8171 10.432 16.1771 11.52C15.5371 12.608 14.5851 13.512 13.3211 14.232C12.3291 14.792 11.2251 15.216 10.0091 15.504C8.80909 15.808 7.65709 15.96 6.55309 15.96ZM6.67309 15.648C7.69709 15.648 8.77709 15.488 9.91309 15.168C11.0491 14.848 12.0811 14.376 13.0091 13.752C14.1131 13 14.9291 12.12 15.4571 11.112C16.0011 10.104 16.2731 9.088 16.2731 8.064C16.2731 6.928 15.9611 5.856 15.3371 4.848C14.7131 3.824 13.7771 3.008 12.5291 2.4C12.1451 2.656 11.6491 3.032 11.0411 3.528C10.4331 4.008 9.76909 4.576 9.04909 5.232C8.34509 5.872 7.63309 6.56 6.91309 7.296C6.20909 8.016 5.56109 8.752 4.96909 9.504C4.39309 10.256 3.92109 10.976 3.55309 11.664C3.20109 12.352 3.02509 12.976 3.02509 13.536C3.02509 13.904 3.12109 14.24 3.31309 14.544C3.50509 14.832 3.81709 15.064 4.24909 15.24C4.56909 15.384 4.93709 15.488 5.35309 15.552C5.76909 15.616 6.20909 15.648 6.67309 15.648ZM19.6305 15.144C19.3585 15.144 19.1425 15.056 18.9825 14.88C18.8385 14.688 18.7665 14.464 18.7665 14.208C18.7665 13.968 18.8225 13.736 18.9345 13.512C19.1105 13.144 19.3345 12.784 19.6065 12.432C19.8945 12.064 20.1585 11.744 20.3985 11.472C20.5585 11.264 20.6385 11.088 20.6385 10.944C20.6385 10.752 20.5185 10.56 20.2785 10.368C20.0865 10.24 19.9105 10.072 19.7505 9.864C19.6385 9.704 19.5585 9.544 19.5105 9.384C19.2545 9.912 18.9265 10.528 18.5265 11.232C18.1425 11.92 17.7425 12.536 17.3265 13.08C17.2625 13.176 17.1985 13.224 17.1345 13.224C17.0865 13.224 17.0625 13.192 17.0625 13.128C17.0625 13.096 17.0705 13.064 17.0865 13.032C17.1025 13 17.1505 12.928 17.2305 12.816C17.6465 12.24 17.9825 11.704 18.2385 11.208C18.4945 10.712 18.7185 10.248 18.9105 9.816L19.4385 8.64C19.4545 8.608 19.4705 8.568 19.4865 8.52C19.5185 8.456 19.5425 8.416 19.5585 8.4C19.5905 8.368 19.6225 8.352 19.6545 8.352C19.7185 8.352 19.7665 8.384 19.7985 8.448C19.8305 8.512 19.8305 8.592 19.7985 8.688C19.7665 8.864 19.7905 9.04 19.8705 9.216C19.9505 9.392 20.0545 9.552 20.1825 9.696C20.3105 9.824 20.4945 9.944 20.7345 10.056C20.9745 10.168 21.1905 10.296 21.3825 10.44C21.5745 10.584 21.6465 10.768 21.5985 10.992C21.5345 11.296 21.3665 11.592 21.0945 11.88C20.8225 12.168 20.5505 12.472 20.2785 12.792C20.0865 13 19.9105 13.208 19.7505 13.416C19.6065 13.624 19.4945 13.84 19.4145 14.064C19.3985 14.112 19.3825 14.16 19.3665 14.208C19.3665 14.256 19.3665 14.304 19.3665 14.352C19.3665 14.64 19.5185 14.784 19.8225 14.784C19.9185 14.784 20.0385 14.76 20.1825 14.712C20.5825 14.568 20.9505 14.328 21.2865 13.992C21.6385 13.656 21.9345 13.32 22.1745 12.984C22.4305 12.648 22.5985 12.416 22.6785 12.288C22.8065 12.096 22.8865 12 22.9185 12C22.9665 12 22.9905 12.04 22.9905 12.12C22.9905 12.2 22.9665 12.28 22.9185 12.36C22.5665 12.92 22.1665 13.448 21.7185 13.944C21.2705 14.44 20.7905 14.792 20.2785 15C20.0385 15.096 19.8225 15.144 19.6305 15.144ZM24.3564 15.192C23.7004 15.192 23.2204 15.048 22.9164 14.76C22.6124 14.456 22.4604 14.056 22.4604 13.56C22.4604 13.432 22.4684 13.304 22.4844 13.176C22.5164 13.032 22.5484 12.888 22.5804 12.744C22.6604 12.456 22.7884 12.12 22.9644 11.736C23.1564 11.352 23.3884 10.976 23.6604 10.608C23.9324 10.24 24.2284 9.936 24.5484 9.696C24.8684 9.456 25.2044 9.336 25.5564 9.336C25.8444 9.336 26.0604 9.44 26.2044 9.648C26.3644 9.856 26.4444 10.104 26.4444 10.392C26.4444 10.696 26.3484 11.008 26.1564 11.328C25.9804 11.632 25.7404 11.88 25.4364 12.072C25.0844 12.312 24.6844 12.432 24.2364 12.432C23.9484 12.432 23.6844 12.376 23.4444 12.264C23.2044 12.744 23.0844 13.216 23.0844 13.68C23.0844 14.016 23.1804 14.304 23.3724 14.544C23.5644 14.784 23.8844 14.904 24.3324 14.904C24.8764 14.904 25.3564 14.776 25.7724 14.52C26.1884 14.248 26.5724 13.896 26.9244 13.464C27.2924 13.032 27.6444 12.568 27.9804 12.072C28.0284 12.024 28.0604 12 28.0764 12C28.1244 12 28.1484 12.04 28.1484 12.12C28.1484 12.2 28.1244 12.28 28.0764 12.36C27.7884 12.808 27.4604 13.248 27.0924 13.68C26.7404 14.112 26.3404 14.472 25.8924 14.76C25.4444 15.048 24.9324 15.192 24.3564 15.192ZM23.9964 12.096C24.4124 12.096 24.8044 11.952 25.1724 11.664C25.3484 11.536 25.5004 11.384 25.6284 11.208C25.7564 11.032 25.8444 10.856 25.8924 10.68C25.9404 10.504 25.9644 10.352 25.9644 10.224C25.9644 9.856 25.8284 9.672 25.5564 9.672C25.3804 9.672 25.1804 9.776 24.9564 9.984C24.7644 10.16 24.5644 10.384 24.3564 10.656C24.1644 10.928 23.9964 11.192 23.8524 11.448C23.7084 11.688 23.6124 11.864 23.5644 11.976C23.6764 12.056 23.8204 12.096 23.9964 12.096ZM29.5367 15.384C29.2007 15.384 28.8967 15.36 28.6247 15.312C28.3687 15.264 28.1767 15.216 28.0487 15.168C27.8727 15.104 27.7367 15.024 27.6407 14.928C27.5607 14.816 27.5207 14.72 27.5207 14.64C27.5207 14.528 27.5767 14.472 27.6887 14.472C27.7687 14.472 27.8647 14.52 27.9767 14.616C28.2007 14.808 28.4167 14.92 28.6247 14.952C28.8007 14.952 29.0327 14.928 29.3207 14.88C29.6087 14.816 29.8087 14.728 29.9207 14.616C30.1127 14.424 30.2087 14.232 30.2087 14.04C30.2087 13.912 30.1687 13.792 30.0887 13.68C30.0247 13.552 29.9287 13.432 29.8007 13.32C29.5927 13.144 29.3847 12.968 29.1767 12.792C28.9687 12.6 28.7927 12.392 28.6487 12.168C28.4247 11.816 28.3127 11.472 28.3127 11.136C28.3127 10.624 28.4807 10.144 28.8167 9.696C29.1687 9.248 29.5447 8.88 29.9447 8.592C30.3767 8.288 30.8167 8.136 31.2647 8.136C31.5047 8.136 31.7287 8.192 31.9367 8.304C32.1447 8.4 32.3047 8.56 32.4167 8.784C32.4327 8.816 32.4407 8.856 32.4407 8.904C32.4407 9 32.4087 9.064 32.3447 9.096C32.2807 9.128 32.2327 9.096 32.2007 9C32.1047 8.744 31.8407 8.616 31.4087 8.616C31.1527 8.616 30.8727 8.664 30.5687 8.76C30.2807 8.856 30.0487 8.968 29.8727 9.096C29.3287 9.512 29.0567 10.048 29.0567 10.704C29.0567 11.168 29.2087 11.584 29.5127 11.952C29.7207 12.208 29.9367 12.448 30.1607 12.672C30.4007 12.88 30.6007 13.088 30.7607 13.296C30.9207 13.488 30.9767 13.68 30.9287 13.872C30.8487 14.224 30.6167 14.512 30.2327 14.736C29.8647 14.944 29.5207 15.064 29.2007 15.096C29.2967 15.112 29.4727 15.12 29.7287 15.12C30.6407 15.12 31.4167 14.816 32.0567 14.208C32.7127 13.6 33.3127 12.88 33.8567 12.048C33.8887 12 33.9207 11.976 33.9527 11.976C33.9847 11.976 34.0007 12.016 34.0007 12.096C34.0007 12.192 33.9607 12.304 33.8807 12.432C33.2727 13.36 32.6407 14.088 31.9847 14.616C31.3447 15.128 30.5287 15.384 29.5367 15.384ZM35.396 15.384C35.06 15.384 34.756 15.36 34.484 15.312C34.228 15.264 34.036 15.216 33.908 15.168C33.732 15.104 33.596 15.024 33.5 14.928C33.42 14.816 33.38 14.72 33.38 14.64C33.38 14.528 33.436 14.472 33.548 14.472C33.628 14.472 33.724 14.52 33.836 14.616C34.06 14.808 34.276 14.92 34.484 14.952C34.66 14.952 34.892 14.928 35.18 14.88C35.468 14.816 35.668 14.728 35.78 14.616C35.972 14.424 36.068 14.232 36.068 14.04C36.068 13.912 36.028 13.792 35.948 13.68C35.884 13.552 35.788 13.432 35.66 13.32C35.452 13.144 35.244 12.968 35.036 12.792C34.828 12.6 34.652 12.392 34.508 12.168C34.284 11.816 34.172 11.472 34.172 11.136C34.172 10.624 34.34 10.144 34.676 9.696C35.028 9.248 35.404 8.88 35.804 8.592C36.236 8.288 36.676 8.136 37.124 8.136C37.364 8.136 37.588 8.192 37.796 8.304C38.004 8.4 38.164 8.56 38.276 8.784C38.292 8.816 38.3 8.856 38.3 8.904C38.3 9 38.268 9.064 38.204 9.096C38.14 9.128 38.092 9.096 38.06 9C37.964 8.744 37.7 8.616 37.268 8.616C37.012 8.616 36.732 8.664 36.428 8.76C36.14 8.856 35.908 8.968 35.732 9.096C35.188 9.512 34.916 10.048 34.916 10.704C34.916 11.168 35.068 11.584 35.372 11.952C35.58 12.208 35.796 12.448 36.02 12.672C36.26 12.88 36.46 13.088 36.62 13.296C36.78 13.488 36.836 13.68 36.788 13.872C36.708 14.224 36.476 14.512 36.092 14.736C35.724 14.944 35.38 15.064 35.06 15.096C35.156 15.112 35.332 15.12 35.588 15.12C36.5 15.12 37.276 14.816 37.916 14.208C38.572 13.6 39.172 12.88 39.716 12.048C39.748 12 39.78 11.976 39.812 11.976C39.844 11.976 39.86 12.016 39.86 12.096C39.86 12.192 39.82 12.304 39.74 12.432C39.132 13.36 38.5 14.088 37.844 14.616C37.204 15.128 36.388 15.384 35.396 15.384ZM45.7001 15.36C45.0761 15.36 44.6361 15.208 44.3801 14.904C44.1401 14.6 44.0201 14.24 44.0201 13.824C44.0201 13.52 44.0681 13.2 44.1641 12.864C44.2761 12.528 44.4041 12.224 44.5481 11.952C44.7881 11.504 45.0761 11.072 45.4121 10.656C45.7641 10.24 46.1321 9.904 46.5161 9.648C46.9001 9.376 47.2681 9.24 47.6201 9.24C47.8761 9.24 48.1081 9.328 48.3161 9.504C48.5241 9.68 48.6281 9.904 48.6281 10.176C48.6281 10.288 48.6041 10.408 48.5561 10.536C48.5081 10.648 48.4441 10.76 48.3641 10.872C48.3001 10.968 48.2361 11.064 48.1721 11.16C48.1401 11.24 48.0921 11.28 48.0281 11.28C47.9641 11.28 47.9321 11.224 47.9321 11.112C47.9321 11.032 47.9561 10.96 48.0041 10.896C48.0521 10.832 48.1001 10.744 48.1481 10.632C48.1961 10.52 48.2201 10.408 48.2201 10.296C48.2201 10.088 48.1641 9.952 48.0521 9.888C47.9561 9.824 47.8441 9.792 47.7161 9.792C47.4121 9.792 47.0841 9.928 46.7321 10.2C46.3961 10.456 46.0841 10.792 45.7961 11.208C45.5081 11.624 45.2681 12.064 45.0761 12.528C44.9001 12.976 44.8121 13.392 44.8121 13.776C44.8121 14.096 44.8921 14.376 45.0521 14.616C45.2121 14.84 45.4921 14.952 45.8921 14.952C46.1641 14.952 46.4441 14.896 46.7321 14.784C47.0361 14.656 47.3161 14.512 47.5721 14.352C47.9881 14.08 48.3481 13.752 48.6521 13.368C48.9721 12.968 49.2841 12.544 49.5881 12.096C49.6361 12.032 49.6761 12 49.7081 12C49.7401 12 49.7641 12.032 49.7801 12.096C49.7961 12.16 49.7801 12.232 49.7321 12.312C49.4441 12.76 49.1081 13.216 48.7241 13.68C48.3401 14.144 47.9561 14.496 47.5721 14.736C47.2841 14.928 46.9801 15.08 46.6601 15.192C46.3401 15.304 46.0201 15.36 45.7001 15.36ZM50.8089 15.096C50.3769 15.096 50.0009 14.992 49.6809 14.784C49.3609 14.56 49.2009 14.168 49.2009 13.608C49.2009 13.256 49.2889 12.872 49.4649 12.456C49.6409 12.024 49.8649 11.608 50.1369 11.208C50.4249 10.792 50.7369 10.448 51.0729 10.176C51.1529 10.112 51.2569 10.08 51.3849 10.08C51.5769 9.888 51.7929 9.744 52.0329 9.648C52.2889 9.552 52.5289 9.504 52.7529 9.504C53.1529 9.504 53.5209 9.632 53.8569 9.888C54.2089 10.144 54.3849 10.552 54.3849 11.112C54.3849 11.432 54.2969 11.816 54.1209 12.264C53.9609 12.68 53.7129 13.112 53.3769 13.56C53.0409 13.992 52.6489 14.36 52.2009 14.664C51.7689 14.952 51.3049 15.096 50.8089 15.096ZM50.7849 14.808C51.1369 14.808 51.4969 14.672 51.8649 14.4C52.2489 14.128 52.6009 13.784 52.9209 13.368C53.2409 12.936 53.4729 12.504 53.6169 12.072C53.7769 11.64 53.8569 11.256 53.8569 10.92C53.8569 10.504 53.7449 10.208 53.5209 10.032C53.2969 9.84 53.0489 9.744 52.7769 9.744C52.3449 9.744 51.9689 9.888 51.6489 10.176C51.8089 10.272 51.8249 10.368 51.6969 10.464C51.4729 10.656 51.2169 10.92 50.9289 11.256C50.6569 11.592 50.4409 11.904 50.2809 12.192C50.1689 12.384 50.0649 12.632 49.9689 12.936C49.8889 13.24 49.8489 13.528 49.8489 13.8C49.8489 14.072 49.9129 14.312 50.0409 14.52C50.1849 14.712 50.4329 14.808 50.7849 14.808ZM55.6893 15.264C55.3693 15.264 55.1133 15.136 54.9213 14.88C54.7453 14.624 54.6573 14.304 54.6573 13.92C54.6573 13.584 54.7373 13.224 54.8973 12.84C55.0573 12.44 55.2653 12.04 55.5213 11.64C55.7773 11.272 56.1453 10.912 56.6253 10.56C57.1053 10.208 57.5693 10.024 58.0173 10.008C58.1933 10.008 58.3533 10.04 58.4973 10.104C58.6573 10.152 58.7773 10.24 58.8573 10.368C58.9373 9.568 59.0813 8.728 59.2893 7.848C59.4973 6.952 59.7613 6.104 60.0813 5.304C60.6573 3.864 61.3933 2.744 62.2893 1.944C62.7693 1.512 63.2333 1.296 63.6813 1.296C63.9853 1.296 64.2253 1.416 64.4013 1.656C64.5933 1.88 64.6893 2.224 64.6893 2.688C64.6893 3.152 64.5613 3.752 64.3053 4.488C64.0653 5.208 63.6573 6.064 63.0813 7.056C62.9213 7.312 62.6493 7.712 62.2653 8.256C61.8973 8.8 61.4573 9.408 60.9453 10.08C60.4493 10.736 59.9373 11.384 59.4093 12.024C59.3933 12.728 59.4493 13.36 59.5773 13.92C59.7053 14.464 59.9693 14.736 60.3693 14.736C60.4173 14.736 60.4653 14.736 60.5133 14.736C60.5613 14.72 60.6093 14.704 60.6573 14.688C60.9933 14.576 61.3213 14.368 61.6413 14.064C61.9613 13.76 62.2573 13.424 62.5293 13.056C62.8013 12.688 63.0253 12.368 63.2013 12.096C63.2653 12.032 63.3053 12 63.3213 12C63.3693 12 63.3933 12.04 63.3933 12.12C63.3933 12.2 63.3693 12.28 63.3213 12.36C63.0013 12.904 62.5933 13.44 62.0973 13.968C61.6013 14.496 61.1293 14.848 60.6813 15.024C60.5053 15.088 60.3373 15.12 60.1773 15.12C59.7293 15.12 59.3853 14.888 59.1453 14.424C58.9213 13.96 58.7933 13.416 58.7613 12.792C58.2813 13.336 57.8253 13.824 57.3933 14.256C56.9613 14.672 56.6013 14.952 56.3133 15.096C56.0893 15.208 55.8813 15.264 55.6893 15.264ZM59.4333 11.448C59.9293 10.84 60.4013 10.232 60.8493 9.624C61.2973 9.016 61.6893 8.472 62.0253 7.992C62.3773 7.496 62.6253 7.128 62.7693 6.888C63.3293 5.928 63.7293 5.104 63.9693 4.416C64.2093 3.728 64.3293 3.176 64.3293 2.76C64.3293 2.104 64.1133 1.776 63.6813 1.776C63.3453 1.776 62.9773 1.976 62.5773 2.376C62.2893 2.664 61.9693 3.104 61.6173 3.696C61.2813 4.272 60.9773 4.912 60.7053 5.616C60.3533 6.512 60.0573 7.472 59.8173 8.496C59.7693 8.704 59.6973 9.088 59.6013 9.648C59.5213 10.192 59.4653 10.792 59.4333 11.448ZM55.5933 14.976C55.7533 14.976 55.9373 14.92 56.1453 14.808C56.4333 14.664 56.8093 14.36 57.2733 13.896C57.7373 13.416 58.2253 12.872 58.7373 12.264C58.7373 11.784 58.7613 11.272 58.8093 10.728C58.7453 10.664 58.6653 10.608 58.5693 10.56C58.4893 10.512 58.4173 10.48 58.3533 10.464C58.3053 10.448 58.2253 10.44 58.1133 10.44C57.8413 10.456 57.5533 10.592 57.2493 10.848C56.9453 11.088 56.6493 11.384 56.3613 11.736C56.0893 12.088 55.8493 12.448 55.6413 12.816C55.2893 13.456 55.1133 13.968 55.1133 14.352C55.1133 14.768 55.2733 14.976 55.5933 14.976ZM64.7627 15.192C64.1067 15.192 63.6267 15.048 63.3227 14.76C63.0187 14.456 62.8667 14.056 62.8667 13.56C62.8667 13.432 62.8747 13.304 62.8907 13.176C62.9227 13.032 62.9547 12.888 62.9867 12.744C63.0667 12.456 63.1947 12.12 63.3707 11.736C63.5627 11.352 63.7947 10.976 64.0667 10.608C64.3387 10.24 64.6347 9.936 64.9547 9.696C65.2747 9.456 65.6107 9.336 65.9627 9.336C66.2507 9.336 66.4667 9.44 66.6107 9.648C66.7707 9.856 66.8507 10.104 66.8507 10.392C66.8507 10.696 66.7547 11.008 66.5627 11.328C66.3867 11.632 66.1467 11.88 65.8427 12.072C65.4907 12.312 65.0907 12.432 64.6427 12.432C64.3547 12.432 64.0907 12.376 63.8507 12.264C63.6107 12.744 63.4907 13.216 63.4907 13.68C63.4907 14.016 63.5867 14.304 63.7787 14.544C63.9707 14.784 64.2907 14.904 64.7387 14.904C65.2827 14.904 65.7627 14.776 66.1787 14.52C66.5947 14.248 66.9787 13.896 67.3307 13.464C67.6987 13.032 68.0507 12.568 68.3867 12.072C68.4347 12.024 68.4667 12 68.4827 12C68.5307 12 68.5547 12.04 68.5547 12.12C68.5547 12.2 68.5307 12.28 68.4827 12.36C68.1947 12.808 67.8667 13.248 67.4987 13.68C67.1467 14.112 66.7467 14.472 66.2987 14.76C65.8507 15.048 65.3387 15.192 64.7627 15.192ZM64.4027 12.096C64.8187 12.096 65.2107 11.952 65.5787 11.664C65.7547 11.536 65.9067 11.384 66.0347 11.208C66.1627 11.032 66.2507 10.856 66.2987 10.68C66.3467 10.504 66.3707 10.352 66.3707 10.224C66.3707 9.856 66.2347 9.672 65.9627 9.672C65.7867 9.672 65.5867 9.776 65.3627 9.984C65.1707 10.16 64.9707 10.384 64.7627 10.656C64.5707 10.928 64.4027 11.192 64.2587 11.448C64.1147 11.688 64.0187 11.864 63.9707 11.976C64.0827 12.056 64.2267 12.096 64.4027 12.096Z" fill="#6A6060"/>
</svg>
