<svg width="115" height="21" viewBox="0 0 115 21" fill="none" xmlns="http://www.w3.org/2000/svg">
<path d="M5.55019 14.936C4.33419 14.936 3.25419 14.72 2.31019 14.288C1.38219 13.872 0.782188 13.176 0.510188 12.2C0.462188 12.04 0.430188 11.88 0.414188 11.72C0.398188 11.544 0.390188 11.368 0.390188 11.192C0.390188 10.344 0.622188 9.44 1.08619 8.48C1.55019 7.504 2.23019 6.544 3.12619 5.6C4.02219 4.64 5.12619 3.776 6.43819 3.008C7.75019 2.224 9.25419 1.616 10.9502 1.184C11.2702 1.104 11.7022 1.024 12.2462 0.943999C12.8062 0.863999 13.3902 0.823999 13.9982 0.823999C14.5582 0.823999 15.1022 0.871999 15.6302 0.967999C16.1582 1.048 16.6062 1.2 16.9742 1.424C17.2782 1.6 17.4942 1.8 17.6222 2.024C17.7502 2.232 17.8142 2.464 17.8142 2.72C17.8142 2.976 17.7582 3.24 17.6462 3.512C17.5342 3.768 17.3822 4.04 17.1902 4.328C17.0622 4.52 16.9262 4.696 16.7822 4.856C16.6382 5 16.4942 5.112 16.3502 5.192C16.3342 5.208 16.3022 5.216 16.2542 5.216C16.1102 5.216 16.0382 5.136 16.0382 4.976C16.0382 4.864 16.0862 4.784 16.1822 4.736C16.5022 4.576 16.7422 4.352 16.9022 4.064C17.0622 3.76 17.1422 3.456 17.1422 3.152C17.1422 2.896 17.0862 2.656 16.9742 2.432C16.8622 2.208 16.6862 2.024 16.4462 1.88C16.0942 1.656 15.6542 1.504 15.1262 1.424C14.6142 1.344 14.0942 1.304 13.5662 1.304C13.0222 1.304 12.5102 1.336 12.0302 1.4C11.5662 1.448 11.2062 1.512 10.9502 1.592C9.38219 2.008 7.99019 2.584 6.77419 3.32C5.57419 4.04 4.55819 4.848 3.72619 5.744C2.91019 6.624 2.28619 7.52 1.85419 8.432C1.43819 9.344 1.23019 10.192 1.23019 10.976C1.23019 11.392 1.29419 11.792 1.42219 12.176C1.69419 12.928 2.26219 13.488 3.12619 13.856C4.00619 14.224 5.00619 14.408 6.12619 14.408C6.39819 14.408 6.66219 14.392 6.91819 14.36C7.19019 14.344 7.46219 14.32 7.73419 14.288C8.16619 14.224 8.71019 14.104 9.36619 13.928C10.0382 13.736 10.7342 13.488 11.4542 13.184C12.1742 12.864 12.8462 12.504 13.4702 12.104C14.1102 11.688 14.6302 11.232 15.0302 10.736C15.4302 10.24 15.6302 9.704 15.6302 9.128C15.6302 8.632 15.3902 8.24 14.9102 7.952C14.4302 7.664 13.6942 7.52 12.7022 7.52C12.5582 7.52 12.3982 7.528 12.2222 7.544C12.0622 7.544 11.8942 7.552 11.7182 7.568C11.0782 7.616 10.4622 7.712 9.87019 7.856C9.27819 7.984 8.77419 8.168 8.35819 8.408C7.94219 8.632 7.66219 8.928 7.51819 9.296C7.47019 9.424 7.40619 9.488 7.32619 9.488C7.26219 9.488 7.19019 9.448 7.11019 9.368C7.04619 9.272 7.01419 9.168 7.01419 9.056C7.01419 8.976 7.02219 8.912 7.03819 8.864C7.18219 8.464 7.48619 8.144 7.95019 7.904C8.43019 7.664 8.99819 7.48 9.65419 7.352C10.3102 7.208 10.9822 7.112 11.6702 7.064C11.9582 7.032 12.2382 7.016 12.5102 7.016C12.7982 7.016 13.0702 7.016 13.3262 7.016C13.7422 7.016 14.1262 7.024 14.4782 7.04C14.8302 7.056 15.1262 7.08 15.3662 7.112C15.5102 7.112 15.7182 7.128 15.9902 7.16C16.2782 7.192 16.5582 7.232 16.8302 7.28C17.1182 7.328 17.3182 7.384 17.4302 7.448C17.5582 7.528 17.6222 7.616 17.6222 7.712C17.6222 7.776 17.5902 7.824 17.5262 7.856C17.4782 7.888 17.4062 7.88 17.3102 7.832C17.2302 7.784 17.0382 7.744 16.7342 7.712C16.4302 7.68 16.1662 7.656 15.9422 7.64C16.2942 7.88 16.4702 8.248 16.4702 8.744C16.4702 9.224 16.3262 9.704 16.0382 10.184C15.6702 10.808 15.1582 11.376 14.5022 11.888C13.8462 12.4 13.1262 12.848 12.3422 13.232C11.5582 13.616 10.7662 13.936 9.96619 14.192C9.16619 14.448 8.43819 14.632 7.78219 14.744C7.39819 14.808 7.02219 14.856 6.65419 14.888C6.28619 14.92 5.91819 14.936 5.55019 14.936ZM21.6638 14.168C21.3758 14.168 21.1598 14.072 21.0158 13.88C20.8878 13.688 20.8238 13.44 20.8238 13.136C20.8238 12.928 20.8478 12.72 20.8958 12.512C20.9118 12.48 20.9358 12.408 20.9678 12.296C20.9998 12.168 21.0478 12.024 21.1118 11.864C20.8878 12.216 20.5998 12.608 20.2478 13.04C19.9118 13.456 19.5358 13.768 19.1198 13.976C18.8798 14.088 18.6398 14.144 18.3998 14.144C18.0798 14.144 17.8238 14.024 17.6318 13.784C17.4398 13.528 17.3438 13.176 17.3438 12.728C17.3438 12.36 17.4238 11.968 17.5838 11.552C17.7438 11.12 17.9758 10.68 18.2798 10.232C18.4718 9.944 18.7198 9.664 19.0238 9.392C19.3278 9.12 19.6558 8.896 20.0078 8.72C20.3598 8.544 20.6958 8.456 21.0158 8.456C21.3358 8.456 21.6078 8.544 21.8318 8.72C22.0558 8.896 22.1758 9.16 22.1918 9.512C22.1918 9.56 22.1678 9.6 22.1198 9.632C22.0878 9.648 22.0558 9.624 22.0238 9.56C21.8318 9.128 21.5198 8.912 21.0878 8.912C20.7998 8.912 20.4958 9.048 20.1758 9.32C19.8558 9.576 19.5438 9.904 19.2398 10.304C18.9358 10.704 18.6718 11.104 18.4478 11.504C18.2558 11.856 18.1118 12.176 18.0158 12.464C17.9358 12.752 17.8958 13 17.8958 13.208C17.8958 13.64 18.0638 13.856 18.3998 13.856C18.5758 13.856 18.7678 13.8 18.9758 13.688C19.1678 13.576 19.3998 13.376 19.6718 13.088C19.9598 12.8 20.2398 12.48 20.5117 12.128C20.7998 11.776 21.0558 11.432 21.2798 11.096C21.5198 10.76 21.6958 10.496 21.8078 10.304C22.0478 9.904 22.2958 9.552 22.5518 9.248C22.8078 8.944 23.0638 8.792 23.3198 8.792C23.4478 8.792 23.5117 8.824 23.5117 8.888C23.5117 8.952 23.4798 9.016 23.4158 9.08C23.0958 9.464 22.7918 9.92 22.5038 10.448C22.2318 10.96 21.9998 11.448 21.8078 11.912C21.6318 12.376 21.5278 12.728 21.4958 12.968C21.4478 13.48 21.5998 13.736 21.9518 13.736C21.9998 13.736 22.0478 13.736 22.0958 13.736C22.1438 13.72 22.1998 13.704 22.2638 13.688C22.5998 13.576 22.9278 13.368 23.2478 13.064C23.5678 12.76 23.8638 12.432 24.1358 12.08C24.4078 11.712 24.6318 11.392 24.8078 11.12C24.8558 11.056 24.8958 11.024 24.9278 11.024C24.9758 11.024 24.9998 11.064 24.9998 11.144C24.9998 11.192 24.9758 11.256 24.9278 11.336C24.8158 11.496 24.7118 11.656 24.6158 11.816C24.5198 11.96 24.4238 12.096 24.3278 12.224C24.2958 12.288 24.2558 12.344 24.2078 12.392C24.1598 12.44 24.1118 12.496 24.0638 12.56C23.8558 12.816 23.5838 13.096 23.2478 13.4C22.9278 13.688 22.6078 13.896 22.2878 14.024C22.0478 14.12 21.8398 14.168 21.6638 14.168ZM24.9521 14.168C24.6641 14.168 24.4561 14.072 24.3281 13.88C24.2001 13.688 24.1361 13.448 24.1361 13.16C24.1361 12.936 24.1601 12.72 24.2081 12.512C24.2561 12.288 24.4081 11.92 24.6641 11.408C24.9201 10.88 25.2001 10.328 25.5041 9.752C25.3441 9.816 25.1681 9.888 24.9761 9.968C24.8001 10.032 24.6721 10.104 24.5921 10.184C24.5281 10.216 24.4881 10.232 24.4721 10.232C24.4241 10.232 24.4001 10.2 24.4001 10.136C24.4001 9.992 24.4881 9.856 24.6641 9.728C24.8401 9.6 25.0081 9.512 25.1681 9.464C25.3441 9.416 25.5441 9.36 25.7681 9.296C25.9441 8.976 26.1281 8.648 26.3201 8.312C26.5281 7.96 26.7121 7.656 26.8721 7.4C26.9841 7.24 27.1441 7.04 27.3521 6.8C27.5601 6.544 27.7921 6.336 28.0481 6.176C28.1921 6.08 28.3841 6.032 28.6241 6.032C28.8001 6.032 28.8961 6.064 28.9121 6.128C28.6721 6.192 28.4241 6.352 28.1681 6.608C27.9281 6.864 27.6961 7.16 27.4721 7.496C27.2481 7.832 27.0561 8.152 26.8961 8.456C26.7361 8.744 26.6161 8.968 26.5361 9.128C26.8721 9.08 27.1521 9.056 27.3761 9.056C27.5041 9.056 27.6161 9.064 27.7121 9.08C27.8081 9.08 27.8881 9.088 27.9521 9.104C28.0801 9.12 28.1441 9.16 28.1441 9.224C28.1441 9.288 28.0641 9.32 27.9041 9.32C27.7761 9.32 27.6241 9.32 27.4481 9.32C27.2881 9.32 27.1121 9.336 26.9201 9.368C26.7761 9.384 26.6241 9.432 26.4641 9.512C26.3201 9.592 26.2241 9.68 26.1761 9.776C25.8241 10.416 25.5121 11.032 25.2401 11.624C24.9681 12.216 24.8161 12.664 24.7841 12.968C24.7361 13.48 24.8881 13.736 25.2401 13.736C25.5921 13.736 25.9441 13.584 26.2961 13.28C26.6641 12.96 27.0081 12.592 27.3281 12.176C27.6481 11.76 27.9041 11.408 28.0961 11.12C28.1601 11.056 28.2001 11.024 28.2161 11.024C28.2641 11.024 28.2881 11.064 28.2881 11.144C28.2881 11.208 28.2641 11.28 28.2161 11.36C27.9441 11.776 27.6321 12.2 27.2801 12.632C26.9281 13.064 26.5521 13.432 26.1521 13.736C25.7681 14.024 25.3681 14.168 24.9521 14.168ZM27.8974 14.12C27.7854 14.12 27.6974 14.056 27.6334 13.928C27.5694 13.8 27.5374 13.648 27.5374 13.472C27.5374 13.216 27.5694 12.936 27.6334 12.632C27.7134 12.312 27.7934 12.024 27.8734 11.768C27.9534 11.496 28.0094 11.312 28.0414 11.216C28.2654 10.624 28.5534 9.952 28.9054 9.2C29.2574 8.432 29.6734 7.688 30.1534 6.968C30.6494 6.232 31.1934 5.6 31.7854 5.072C32.3774 4.528 33.0174 4.176 33.7054 4.016C33.7854 4 33.8574 3.992 33.9214 3.992C34.0014 3.976 34.0734 3.968 34.1374 3.968C34.3934 3.968 34.6014 4.024 34.7614 4.136C34.9214 4.232 35.0254 4.36 35.0734 4.52C35.0734 4.536 35.0734 4.552 35.0734 4.568C35.0894 4.584 35.0974 4.608 35.0974 4.64C35.0974 4.72 35.0734 4.76 35.0254 4.76C34.9454 4.76 34.8974 4.704 34.8814 4.592C34.8654 4.512 34.7934 4.456 34.6654 4.424C34.5374 4.376 34.3934 4.352 34.2334 4.352C33.7054 4.352 33.1694 4.584 32.6254 5.048C32.0974 5.496 31.5774 6.072 31.0654 6.776C30.5694 7.464 30.1134 8.176 29.6974 8.912C29.2974 9.648 28.9694 10.304 28.7134 10.88C28.6974 10.912 28.6494 11.032 28.5694 11.24C28.5054 11.448 28.4334 11.696 28.3534 11.984C28.2734 12.272 28.2094 12.552 28.1614 12.824L28.8094 11.864C29.1774 11.32 29.6254 10.776 30.1534 10.232C30.6814 9.672 31.2574 9.216 31.8814 8.864C31.9454 8.832 32.0094 8.808 32.0734 8.792C32.1534 8.776 32.2254 8.768 32.2894 8.768C32.4334 8.768 32.5054 8.816 32.5054 8.912C32.5054 8.944 32.4654 9.024 32.3854 9.152C32.0494 9.6 31.7854 10.072 31.5934 10.568C31.4014 11.048 31.2814 11.576 31.2334 12.152C31.2174 12.504 31.2494 12.832 31.3294 13.136C31.4254 13.44 31.6254 13.592 31.9294 13.592C32.2654 13.592 32.5934 13.448 32.9134 13.16C33.2494 12.856 33.5534 12.512 33.8254 12.128C34.1134 11.728 34.3614 11.376 34.5694 11.072C34.6014 11.024 34.6254 11 34.6414 11C34.6894 11 34.7134 11.048 34.7134 11.144C34.7134 11.24 34.6734 11.352 34.5934 11.48C34.3374 11.864 34.0574 12.248 33.7534 12.632C33.4654 13.016 33.1534 13.336 32.8174 13.592C32.4814 13.848 32.1134 13.976 31.7134 13.976C31.3134 13.976 31.0254 13.824 30.8494 13.52C30.6734 13.216 30.5854 12.848 30.5854 12.416C30.5854 11.952 30.6574 11.456 30.8014 10.928C30.9614 10.4 31.1454 9.96 31.3534 9.608C30.9374 9.912 30.5054 10.296 30.0574 10.76C29.6094 11.208 29.2254 11.688 28.9054 12.2C28.7934 12.408 28.6334 12.672 28.4254 12.992C28.2174 13.296 28.0974 13.552 28.0654 13.76C28.0174 14 27.9614 14.12 27.8974 14.12ZM36.0947 14.192C35.4387 14.192 34.9587 14.048 34.6547 13.76C34.3507 13.456 34.1987 13.056 34.1987 12.56C34.1987 12.432 34.2067 12.304 34.2227 12.176C34.2547 12.032 34.2867 11.888 34.3187 11.744C34.3987 11.456 34.5267 11.12 34.7027 10.736C34.8947 10.352 35.1267 9.976 35.3987 9.608C35.6707 9.24 35.9667 8.936 36.2867 8.696C36.6067 8.456 36.9427 8.336 37.2947 8.336C37.5827 8.336 37.7987 8.44 37.9427 8.648C38.1027 8.856 38.1827 9.104 38.1827 9.392C38.1827 9.696 38.0867 10.008 37.8947 10.328C37.7187 10.632 37.4787 10.88 37.1747 11.072C36.8227 11.312 36.4227 11.432 35.9747 11.432C35.6867 11.432 35.4227 11.376 35.1827 11.264C34.9427 11.744 34.8227 12.216 34.8227 12.68C34.8227 13.016 34.9187 13.304 35.1107 13.544C35.3027 13.784 35.6227 13.904 36.0707 13.904C36.6147 13.904 37.0947 13.776 37.5107 13.52C37.9267 13.248 38.3107 12.896 38.6627 12.464C39.0307 12.032 39.3827 11.568 39.7187 11.072C39.7667 11.024 39.7987 11 39.8147 11C39.8627 11 39.8867 11.04 39.8867 11.12C39.8867 11.2 39.8627 11.28 39.8147 11.36C39.5267 11.808 39.1987 12.248 38.8307 12.68C38.4787 13.112 38.0787 13.472 37.6307 13.76C37.1827 14.048 36.6707 14.192 36.0947 14.192ZM35.7347 11.096C36.1507 11.096 36.5427 10.952 36.9107 10.664C37.0867 10.536 37.2387 10.384 37.3667 10.208C37.4947 10.032 37.5827 9.856 37.6307 9.68C37.6787 9.504 37.7027 9.352 37.7027 9.224C37.7027 8.856 37.5667 8.672 37.2947 8.672C37.1187 8.672 36.9187 8.776 36.6947 8.984C36.5027 9.16 36.3027 9.384 36.0947 9.656C35.9027 9.928 35.7347 10.192 35.5907 10.448C35.4467 10.688 35.3507 10.864 35.3027 10.976C35.4147 11.056 35.5587 11.096 35.7347 11.096ZM41.6109 14.144C41.3389 14.144 41.1229 14.056 40.9629 13.88C40.8189 13.688 40.7469 13.464 40.7469 13.208C40.7469 12.968 40.8029 12.736 40.9149 12.512C41.0909 12.144 41.3149 11.784 41.5869 11.432C41.8749 11.064 42.1389 10.744 42.3789 10.472C42.5389 10.264 42.6189 10.088 42.6189 9.944C42.6189 9.752 42.4989 9.56 42.2589 9.368C42.0669 9.24 41.8909 9.072 41.7309 8.864C41.6189 8.704 41.5389 8.544 41.4909 8.384C41.2349 8.912 40.9069 9.528 40.5069 10.232C40.1229 10.92 39.7229 11.536 39.3069 12.08C39.2429 12.176 39.1789 12.224 39.1149 12.224C39.0669 12.224 39.0429 12.192 39.0429 12.128C39.0429 12.096 39.0509 12.064 39.0669 12.032C39.0829 12 39.1309 11.928 39.2109 11.816C39.6269 11.24 39.9629 10.704 40.2189 10.208C40.4749 9.712 40.6989 9.248 40.8909 8.816L41.4189 7.64C41.4349 7.608 41.4509 7.568 41.4669 7.52C41.4989 7.456 41.5229 7.416 41.5389 7.4C41.5709 7.368 41.6029 7.352 41.6349 7.352C41.6989 7.352 41.7469 7.384 41.7789 7.448C41.8109 7.512 41.8109 7.592 41.7789 7.688C41.7469 7.864 41.7709 8.04 41.8509 8.216C41.9309 8.392 42.0349 8.552 42.1629 8.696C42.2909 8.824 42.4749 8.944 42.7149 9.056C42.9549 9.168 43.1709 9.296 43.3629 9.44C43.5549 9.584 43.6269 9.768 43.5789 9.992C43.5149 10.296 43.3469 10.592 43.0749 10.88C42.8029 11.168 42.5309 11.472 42.2589 11.792C42.0669 12 41.8909 12.208 41.7309 12.416C41.5869 12.624 41.4749 12.84 41.3949 13.064C41.3789 13.112 41.3629 13.16 41.3469 13.208C41.3469 13.256 41.3469 13.304 41.3469 13.352C41.3469 13.64 41.4989 13.784 41.8029 13.784C41.8989 13.784 42.0189 13.76 42.1629 13.712C42.5629 13.568 42.9309 13.328 43.2669 12.992C43.6189 12.656 43.9149 12.32 44.1549 11.984C44.4109 11.648 44.5789 11.416 44.6589 11.288C44.7869 11.096 44.8669 11 44.8989 11C44.9469 11 44.9709 11.04 44.9709 11.12C44.9709 11.2 44.9469 11.28 44.8989 11.36C44.5469 11.92 44.1469 12.448 43.6989 12.944C43.2509 13.44 42.7709 13.792 42.2589 14C42.0189 14.096 41.8029 14.144 41.6109 14.144ZM47.3929 7.088C47.1689 7.088 47.0329 6.952 46.9849 6.68C46.9689 6.552 47.0489 6.424 47.2249 6.296C47.4009 6.168 47.5449 6.08 47.6569 6.032C47.7369 6 47.8009 5.976 47.8489 5.96C47.8969 5.944 47.9369 5.936 47.9689 5.936C48.0809 5.936 48.1369 5.992 48.1369 6.104C48.1369 6.232 48.0889 6.384 47.9929 6.56C47.9129 6.736 47.8729 6.824 47.8729 6.824C47.8569 6.888 47.8009 6.952 47.7049 7.016C47.6089 7.064 47.5049 7.088 47.3929 7.088ZM44.9929 14.168C44.7049 14.168 44.4969 14.072 44.3689 13.88C44.2409 13.688 44.1769 13.448 44.1769 13.16C44.1769 12.936 44.2009 12.72 44.2489 12.512C44.2809 12.416 44.3609 12.176 44.4889 11.792C44.6329 11.408 44.8169 10.984 45.0409 10.52C45.2809 10.056 45.5369 9.656 45.8089 9.32C46.0809 8.968 46.3609 8.792 46.6489 8.792C46.7769 8.792 46.8409 8.824 46.8409 8.888C46.8409 8.952 46.8089 9.016 46.7449 9.08C46.4249 9.464 46.1209 9.92 45.8329 10.448C45.5609 10.96 45.3289 11.448 45.1369 11.912C44.9609 12.376 44.8569 12.728 44.8249 12.968C44.7769 13.48 44.9289 13.736 45.2809 13.736C45.3289 13.736 45.3769 13.736 45.4249 13.736C45.4729 13.72 45.5289 13.704 45.5929 13.688C45.9289 13.576 46.2569 13.368 46.5769 13.064C46.8969 12.76 47.1929 12.424 47.4649 12.056C47.7369 11.688 47.9609 11.368 48.1369 11.096C48.2009 11.032 48.2409 11 48.2569 11C48.3049 11 48.3289 11.04 48.3289 11.12C48.3289 11.2 48.3049 11.28 48.2569 11.36C47.9049 11.904 47.4889 12.44 47.0089 12.968C46.5449 13.496 46.0809 13.848 45.6169 14.024C45.3769 14.12 45.1689 14.168 44.9929 14.168ZM47.8884 14.096C47.8404 14.096 47.7924 14.064 47.7444 14C47.6164 13.856 47.5524 13.624 47.5524 13.304C47.5524 12.968 47.6084 12.592 47.7204 12.176C47.8484 11.744 47.9924 11.352 48.1524 11C48.3124 10.664 48.4564 10.368 48.5844 10.112C48.7284 9.856 48.8244 9.696 48.8724 9.632C49.0484 9.408 49.2324 9.224 49.4244 9.08C49.6164 8.936 49.8084 8.864 50.0004 8.864C50.0964 8.864 50.1684 8.888 50.2164 8.936C50.2804 8.984 50.2884 9.024 50.2404 9.056C50.1124 9.12 49.9444 9.296 49.7364 9.584C49.5284 9.856 49.3124 10.176 49.0884 10.544C48.9444 10.8 48.7604 11.144 48.5364 11.576C48.3124 12.008 48.1844 12.376 48.1524 12.68C48.1524 12.808 48.1844 12.864 48.2484 12.848L48.8484 11.864C49.1844 11.304 49.6244 10.752 50.1684 10.208C50.7124 9.664 51.2964 9.216 51.9204 8.864C51.9844 8.832 52.0484 8.808 52.1124 8.792C52.1924 8.776 52.2644 8.768 52.3284 8.768C52.4724 8.768 52.5444 8.816 52.5444 8.912C52.5444 8.944 52.5044 9.024 52.4244 9.152C52.0884 9.6 51.8244 10.072 51.6324 10.568C51.4404 11.048 51.3204 11.576 51.2724 12.152C51.2564 12.504 51.2884 12.832 51.3684 13.136C51.4644 13.424 51.6644 13.568 51.9684 13.568C52.3204 13.568 52.6564 13.424 52.9764 13.136C53.2964 12.848 53.5924 12.512 53.8644 12.128C54.1524 11.728 54.4004 11.376 54.6084 11.072C54.6404 11.024 54.6644 11 54.6804 11C54.7284 11 54.7524 11.048 54.7524 11.144C54.7524 11.224 54.7204 11.32 54.6564 11.432C54.4164 11.784 54.1524 12.16 53.8644 12.56C53.5764 12.96 53.2564 13.296 52.9044 13.568C52.5684 13.84 52.1844 13.976 51.7524 13.976C51.3524 13.976 51.0644 13.824 50.8884 13.52C50.7124 13.216 50.6244 12.848 50.6244 12.416C50.6244 11.952 50.6964 11.456 50.8404 10.928C51.0004 10.4 51.1844 9.96 51.3924 9.608C50.9764 9.912 50.5444 10.296 50.0964 10.76C49.6484 11.208 49.2644 11.688 48.9444 12.2C48.8324 12.408 48.6804 12.672 48.4884 12.992C48.2964 13.312 48.1684 13.568 48.1044 13.76C48.0884 13.824 48.0724 13.88 48.0564 13.928C48.0404 13.96 48.0244 13.992 48.0084 14.024C47.9924 14.072 47.9524 14.096 47.8884 14.096ZM53.6857 20.792C53.2377 20.792 52.9177 20.64 52.7257 20.336C52.6297 20.16 52.5817 19.976 52.5817 19.784C52.5817 19.576 52.6217 19.36 52.7017 19.136C52.7817 18.928 52.8857 18.712 53.0137 18.488C53.2377 18.12 53.5017 17.76 53.8057 17.408C54.1098 17.056 54.4058 16.736 54.6938 16.448C54.9978 16.16 55.2458 15.936 55.4378 15.776C55.7738 15.504 56.1658 15.184 56.6138 14.816C57.0778 14.448 57.5498 14.136 58.0298 13.88C58.0618 13.864 58.0938 13.856 58.1258 13.856C58.1738 13.856 58.1978 13.88 58.1978 13.928C58.1978 14.024 58.1578 14.088 58.0778 14.12C57.8698 14.232 57.6058 14.4 57.2858 14.624C56.9658 14.864 56.6538 15.104 56.3498 15.344C56.0458 15.6 55.7818 15.824 55.5578 16.016C55.3978 16.16 55.1818 16.376 54.9098 16.664C54.6378 16.952 54.3658 17.272 54.0938 17.624C53.8057 17.992 53.5657 18.36 53.3737 18.728C53.3097 18.856 53.2377 19.024 53.1577 19.232C53.0777 19.456 53.0377 19.664 53.0377 19.856C53.0377 20.016 53.0857 20.144 53.1817 20.24C53.2617 20.352 53.4057 20.408 53.6137 20.408C53.9497 20.408 54.2858 20.288 54.6218 20.048C54.9738 19.824 55.3018 19.544 55.6058 19.208C55.9258 18.872 56.2138 18.528 56.4698 18.176C56.7258 17.84 56.9258 17.544 57.0698 17.288C57.6458 16.344 58.0938 15.296 58.4138 14.144C58.7498 13.008 58.8778 11.944 58.7978 10.952C58.7818 10.84 58.7658 10.736 58.7498 10.64C58.7338 10.528 58.7098 10.416 58.6778 10.304C58.6458 10.352 58.6138 10.4 58.5818 10.448C58.5498 10.496 58.5098 10.552 58.4618 10.616C58.3498 10.856 58.1978 11.128 58.0058 11.432C57.8138 11.72 57.6298 11.984 57.4538 12.224C57.2938 12.464 57.1818 12.624 57.1178 12.704C56.7338 13.168 56.3738 13.504 56.0378 13.712C55.7178 13.92 55.4378 14.024 55.1978 14.024C54.8778 14.024 54.6298 13.888 54.4538 13.616C54.2778 13.328 54.1898 12.984 54.1898 12.584C54.1898 11.848 54.4698 11.032 55.0298 10.136C55.3018 9.72 55.6778 9.336 56.1578 8.984C56.6378 8.616 57.1098 8.432 57.5738 8.432C57.9578 8.432 58.2858 8.592 58.5578 8.912C58.6058 8.976 58.6138 9.056 58.5818 9.152C58.5658 9.232 58.5258 9.24 58.4618 9.176C58.3978 9.08 58.2938 9.016 58.1498 8.984C58.0218 8.952 57.8938 8.936 57.7658 8.936C57.3658 8.936 56.9978 9.08 56.6618 9.368C56.3258 9.64 56.0298 9.968 55.7738 10.352C55.5338 10.72 55.3338 11.064 55.1738 11.384C54.8218 12.088 54.6458 12.648 54.6458 13.064C54.6458 13.496 54.8058 13.712 55.1258 13.712C55.3338 13.712 55.5818 13.616 55.8698 13.424C56.1738 13.216 56.5018 12.888 56.8538 12.44C56.9338 12.344 57.0698 12.168 57.2617 11.912C57.4538 11.64 57.6618 11.32 57.8858 10.952C58.1098 10.584 58.3018 10.224 58.4618 9.872C58.4618 9.856 58.4618 9.848 58.4618 9.848C58.4778 9.848 58.4858 9.84 58.4858 9.824C58.4698 9.808 58.4458 9.768 58.4138 9.704V9.68C58.4138 9.616 58.4858 9.584 58.6298 9.584C58.7578 9.584 58.8538 9.616 58.9178 9.68C59.1098 9.84 59.2458 10.088 59.3258 10.424C59.4218 10.744 59.4698 11.112 59.4698 11.528C59.4698 12.072 59.4058 12.664 59.2778 13.304C59.1498 13.928 58.9818 14.536 58.7738 15.128C58.5818 15.72 58.3578 16.248 58.1018 16.712C57.8138 17.288 57.4698 17.84 57.0698 18.368C56.6858 18.912 56.2698 19.384 55.8218 19.784C55.3898 20.184 54.9578 20.464 54.5258 20.624C54.2378 20.736 53.9577 20.792 53.6857 20.792ZM66.6253 14.096C66.1933 14.096 65.8173 13.992 65.4973 13.784C65.1773 13.56 65.0173 13.168 65.0173 12.608C65.0173 12.256 65.1053 11.872 65.2813 11.456C65.4573 11.024 65.6813 10.608 65.9533 10.208C66.2413 9.792 66.5533 9.448 66.8893 9.176C66.9693 9.112 67.0733 9.08 67.2013 9.08C67.3933 8.888 67.6093 8.744 67.8493 8.648C68.1053 8.552 68.3453 8.504 68.5693 8.504C68.9693 8.504 69.3373 8.632 69.6733 8.888C70.0253 9.144 70.2013 9.552 70.2013 10.112C70.2013 10.432 70.1133 10.816 69.9373 11.264C69.7773 11.68 69.5293 12.112 69.1933 12.56C68.8573 12.992 68.4653 13.36 68.0173 13.664C67.5853 13.952 67.1213 14.096 66.6253 14.096ZM66.6013 13.808C66.9533 13.808 67.3133 13.672 67.6813 13.4C68.0653 13.128 68.4173 12.784 68.7373 12.368C69.0573 11.936 69.2893 11.504 69.4333 11.072C69.5933 10.64 69.6733 10.256 69.6733 9.92C69.6733 9.504 69.5613 9.208 69.3373 9.032C69.1133 8.84 68.8653 8.744 68.5933 8.744C68.1613 8.744 67.7853 8.888 67.4653 9.176C67.6253 9.272 67.6413 9.368 67.5133 9.464C67.2893 9.656 67.0333 9.92 66.7453 10.256C66.4733 10.592 66.2573 10.904 66.0973 11.192C65.9853 11.384 65.8813 11.632 65.7853 11.936C65.7053 12.24 65.6653 12.528 65.6653 12.8C65.6653 13.072 65.7293 13.312 65.8573 13.52C66.0013 13.712 66.2493 13.808 66.6013 13.808ZM71.7698 20.816C71.4178 20.816 71.1058 20.648 70.8338 20.312C70.5618 19.992 70.3937 19.488 70.3297 18.8C70.3137 18.672 70.3057 18.536 70.3057 18.392C70.3057 18.264 70.3057 18.136 70.3057 18.008C70.3057 17.416 70.3537 16.792 70.4497 16.136C70.5457 15.496 70.6898 14.856 70.8818 14.216C71.1058 13.464 71.3858 12.688 71.7218 11.888C72.0738 11.072 72.3938 10.376 72.6818 9.8C72.4258 9.768 72.1378 9.816 71.8178 9.944C71.4978 10.072 71.2498 10.224 71.0738 10.4C71.0258 10.448 70.9858 10.472 70.9538 10.472C70.9058 10.472 70.8818 10.432 70.8818 10.352C70.8818 10.176 70.9538 10.032 71.0978 9.92C71.3378 9.68 71.5938 9.512 71.8658 9.416C72.1378 9.304 72.5298 9.2 73.0418 9.104C73.1538 8.896 73.2978 8.632 73.4738 8.312C73.6658 7.992 73.8178 7.728 73.9298 7.52C74.4578 6.688 75.0658 5.936 75.7538 5.264C76.4418 4.592 77.1618 4.176 77.9138 4.016C77.9938 4 78.0658 3.992 78.1298 3.992C78.1938 3.976 78.2578 3.968 78.3218 3.968C78.5938 3.968 78.8098 4.024 78.9698 4.136C79.1298 4.232 79.2258 4.36 79.2578 4.52C79.2738 4.552 79.2818 4.592 79.2818 4.64C79.2818 4.72 79.2578 4.76 79.2098 4.76C79.1458 4.76 79.1058 4.704 79.0898 4.592C79.0738 4.512 79.0018 4.456 78.8738 4.424C78.7458 4.376 78.6018 4.352 78.4418 4.352C78.0418 4.352 77.6178 4.504 77.1698 4.808C76.7378 5.096 76.3138 5.488 75.8978 5.984C75.4818 6.464 75.0898 6.992 74.7218 7.568C74.5778 7.776 74.4338 8.008 74.2898 8.264C74.1458 8.504 74.0098 8.728 73.8818 8.936C74.2978 8.888 74.7138 8.848 75.1298 8.816C75.5458 8.784 75.9298 8.768 76.2818 8.768C76.4098 8.768 76.5298 8.768 76.6418 8.768C76.7538 8.768 76.8578 8.776 76.9538 8.792C77.1298 8.824 77.2178 8.88 77.2178 8.96C77.2178 9.056 77.1458 9.104 77.0018 9.104C76.3618 9.104 75.7778 9.128 75.2498 9.176C74.7218 9.224 74.1778 9.312 73.6178 9.44C73.6018 9.504 73.5778 9.568 73.5458 9.632C73.5138 9.68 73.4818 9.728 73.4498 9.776C73.8818 9.872 74.2338 10.12 74.5058 10.52C74.7938 10.92 75.0018 11.416 75.1298 12.008C75.2738 12.6 75.3458 13.224 75.3458 13.88C75.3458 14.264 75.3218 14.664 75.2738 15.08C75.1618 16.024 74.9618 16.888 74.6738 17.672C74.4018 18.456 74.0898 19.08 73.7378 19.544C73.0818 20.392 72.4258 20.816 71.7698 20.816ZM71.8658 20.24C72.1378 20.24 72.4338 20.096 72.7538 19.808C73.0898 19.536 73.4098 19.12 73.7138 18.56C73.9058 18.192 74.1218 17.704 74.3618 17.096C74.6018 16.504 74.7778 15.824 74.8898 15.056C74.9218 14.816 74.9458 14.576 74.9618 14.336C74.9938 14.096 75.0098 13.864 75.0098 13.64C75.0098 12.76 74.8658 11.984 74.5778 11.312C74.3058 10.624 73.8898 10.2 73.3298 10.04C72.9138 10.776 72.5298 11.6 72.1777 12.512C71.8258 13.424 71.5298 14.352 71.2898 15.296C71.0658 16.24 70.9218 17.12 70.8578 17.936C70.8098 18.704 70.8818 19.28 71.0738 19.664C71.2818 20.048 71.5458 20.24 71.8658 20.24ZM81.0373 20.792C80.5893 20.792 80.2693 20.64 80.0773 20.336C79.9813 20.16 79.9333 19.976 79.9333 19.784C79.9333 19.576 79.9733 19.36 80.0533 19.136C80.1333 18.928 80.2373 18.712 80.3653 18.488C80.5893 18.12 80.8533 17.76 81.1573 17.408C81.4613 17.056 81.7573 16.736 82.0453 16.448C82.3493 16.16 82.5973 15.936 82.7893 15.776C83.1253 15.504 83.5173 15.184 83.9653 14.816C84.4293 14.448 84.9013 14.136 85.3813 13.88C85.4133 13.864 85.4453 13.856 85.4773 13.856C85.5253 13.856 85.5493 13.88 85.5493 13.928C85.5493 14.024 85.5093 14.088 85.4293 14.12C85.2213 14.232 84.9573 14.4 84.6373 14.624C84.3173 14.864 84.0053 15.104 83.7013 15.344C83.3973 15.6 83.1333 15.824 82.9093 16.016C82.7493 16.16 82.5333 16.376 82.2613 16.664C81.9893 16.952 81.7173 17.272 81.4453 17.624C81.1573 17.992 80.9173 18.36 80.7253 18.728C80.6613 18.856 80.5893 19.024 80.5093 19.232C80.4293 19.456 80.3893 19.664 80.3893 19.856C80.3893 20.016 80.4373 20.144 80.5333 20.24C80.6133 20.352 80.7573 20.408 80.9653 20.408C81.3013 20.408 81.6373 20.288 81.9733 20.048C82.3253 19.824 82.6533 19.544 82.9573 19.208C83.2773 18.872 83.5653 18.528 83.8213 18.176C84.0773 17.84 84.2773 17.544 84.4213 17.288C84.9973 16.344 85.4453 15.296 85.7653 14.144C86.1013 13.008 86.2293 11.944 86.1493 10.952C86.1333 10.84 86.1173 10.736 86.1013 10.64C86.0853 10.528 86.0613 10.416 86.0293 10.304C85.9973 10.352 85.9653 10.4 85.9333 10.448C85.9013 10.496 85.8613 10.552 85.8133 10.616C85.7013 10.856 85.5493 11.128 85.3573 11.432C85.1653 11.72 84.9813 11.984 84.8053 12.224C84.6453 12.464 84.5333 12.624 84.4693 12.704C84.0853 13.168 83.7253 13.504 83.3893 13.712C83.0693 13.92 82.7893 14.024 82.5493 14.024C82.2293 14.024 81.9813 13.888 81.8053 13.616C81.6293 13.328 81.5413 12.984 81.5413 12.584C81.5413 11.848 81.8213 11.032 82.3813 10.136C82.6533 9.72 83.0293 9.336 83.5093 8.984C83.9893 8.616 84.4613 8.432 84.9253 8.432C85.3093 8.432 85.6373 8.592 85.9093 8.912C85.9573 8.976 85.9653 9.056 85.9333 9.152C85.9173 9.232 85.8773 9.24 85.8133 9.176C85.7493 9.08 85.6453 9.016 85.5013 8.984C85.3733 8.952 85.2453 8.936 85.1173 8.936C84.7173 8.936 84.3493 9.08 84.0133 9.368C83.6773 9.64 83.3813 9.968 83.1253 10.352C82.8853 10.72 82.6853 11.064 82.5253 11.384C82.1733 12.088 81.9973 12.648 81.9973 13.064C81.9973 13.496 82.1573 13.712 82.4773 13.712C82.6853 13.712 82.9333 13.616 83.2213 13.424C83.5253 13.216 83.8533 12.888 84.2053 12.44C84.2853 12.344 84.4213 12.168 84.6133 11.912C84.8053 11.64 85.0133 11.32 85.2373 10.952C85.4613 10.584 85.6533 10.224 85.8133 9.872C85.8133 9.856 85.8133 9.848 85.8133 9.848C85.8293 9.848 85.8373 9.84 85.8373 9.824C85.8213 9.808 85.7973 9.768 85.7653 9.704V9.68C85.7653 9.616 85.8373 9.584 85.9813 9.584C86.1093 9.584 86.2053 9.616 86.2693 9.68C86.4613 9.84 86.5973 10.088 86.6773 10.424C86.7733 10.744 86.8213 11.112 86.8213 11.528C86.8213 12.072 86.7573 12.664 86.6293 13.304C86.5013 13.928 86.3333 14.536 86.1253 15.128C85.9333 15.72 85.7093 16.248 85.4533 16.712C85.1653 17.288 84.8213 17.84 84.4213 18.368C84.0373 18.912 83.6213 19.384 83.1733 19.784C82.7413 20.184 82.3093 20.464 81.8773 20.624C81.5893 20.736 81.3093 20.792 81.0373 20.792ZM88.1882 14.168C87.9002 14.168 87.6922 14.072 87.5642 13.88C87.4362 13.688 87.3722 13.448 87.3722 13.16C87.3722 12.936 87.3962 12.72 87.4442 12.512C87.4762 12.416 87.5562 12.176 87.6842 11.792C87.8282 11.408 88.0122 10.984 88.2362 10.52C88.4762 10.056 88.7322 9.656 89.0042 9.32C89.2762 8.968 89.5562 8.792 89.8442 8.792C89.9722 8.792 90.0362 8.824 90.0362 8.888C90.0362 8.952 90.0042 9.016 89.9402 9.08C89.6202 9.464 89.3162 9.92 89.0282 10.448C88.7562 10.96 88.5242 11.448 88.3322 11.912C88.1562 12.376 88.0522 12.728 88.0202 12.968C87.9722 13.48 88.1242 13.736 88.4762 13.736C88.7802 13.736 89.1002 13.6 89.4362 13.328C89.7882 13.04 90.1242 12.68 90.4442 12.248C90.7802 11.8 91.0682 11.336 91.3082 10.856C91.5642 10.36 91.8442 9.896 92.1482 9.464C92.4522 9.016 92.7642 8.792 93.0842 8.792C93.2122 8.792 93.2762 8.824 93.2762 8.888C93.2762 8.952 93.2442 9.016 93.1802 9.08C92.8602 9.464 92.5562 9.92 92.2682 10.448C91.9962 10.96 91.7642 11.448 91.5722 11.912C91.3962 12.376 91.2922 12.728 91.2602 12.968C91.2122 13.48 91.3642 13.736 91.7162 13.736C92.0682 13.736 92.4282 13.576 92.7962 13.256C93.1642 12.936 93.5082 12.568 93.8282 12.152C94.1482 11.736 94.4042 11.384 94.5962 11.096C94.6602 11.032 94.7002 11 94.7162 11C94.7642 11 94.7882 11.04 94.7882 11.12C94.7882 11.184 94.7642 11.256 94.7162 11.336C94.4602 11.752 94.1482 12.184 93.7802 12.632C93.4282 13.064 93.0522 13.432 92.6522 13.736C92.2522 14.024 91.8442 14.168 91.4282 14.168C91.1402 14.168 90.9322 14.072 90.8042 13.88C90.6762 13.688 90.6122 13.448 90.6122 13.16C90.6122 12.936 90.6362 12.72 90.6842 12.512L90.7322 12.296C90.4282 12.696 90.1082 13.056 89.7722 13.376C89.4522 13.696 89.1322 13.912 88.8122 14.024C88.5722 14.12 88.3642 14.168 88.1882 14.168ZM96.1416 14.192C95.4856 14.192 95.0056 14.048 94.7016 13.76C94.3976 13.456 94.2456 13.056 94.2456 12.56C94.2456 12.432 94.2536 12.304 94.2696 12.176C94.3016 12.032 94.3336 11.888 94.3656 11.744C94.4456 11.456 94.5736 11.12 94.7496 10.736C94.9416 10.352 95.1736 9.976 95.4456 9.608C95.7176 9.24 96.0136 8.936 96.3336 8.696C96.6536 8.456 96.9896 8.336 97.3416 8.336C97.6296 8.336 97.8456 8.44 97.9896 8.648C98.1496 8.856 98.2296 9.104 98.2296 9.392C98.2296 9.696 98.1336 10.008 97.9416 10.328C97.7656 10.632 97.5256 10.88 97.2216 11.072C96.8696 11.312 96.4696 11.432 96.0216 11.432C95.7336 11.432 95.4696 11.376 95.2296 11.264C94.9896 11.744 94.8696 12.216 94.8696 12.68C94.8696 13.016 94.9656 13.304 95.1576 13.544C95.3496 13.784 95.6696 13.904 96.1176 13.904C96.6616 13.904 97.1416 13.776 97.5576 13.52C97.9736 13.248 98.3576 12.896 98.7096 12.464C99.0776 12.032 99.4296 11.568 99.7656 11.072C99.8136 11.024 99.8456 11 99.8616 11C99.9096 11 99.9336 11.04 99.9336 11.12C99.9336 11.2 99.9096 11.28 99.8616 11.36C99.5736 11.808 99.2456 12.248 98.8776 12.68C98.5256 13.112 98.1256 13.472 97.6776 13.76C97.2296 14.048 96.7176 14.192 96.1416 14.192ZM95.7816 11.096C96.1976 11.096 96.5896 10.952 96.9576 10.664C97.1336 10.536 97.2856 10.384 97.4136 10.208C97.5416 10.032 97.6296 9.856 97.6776 9.68C97.7256 9.504 97.7496 9.352 97.7496 9.224C97.7496 8.856 97.6136 8.672 97.3416 8.672C97.1656 8.672 96.9656 8.776 96.7416 8.984C96.5496 9.16 96.3496 9.384 96.1416 9.656C95.9496 9.928 95.7816 10.192 95.6376 10.448C95.4936 10.688 95.3976 10.864 95.3496 10.976C95.4616 11.056 95.6056 11.096 95.7816 11.096ZM101.322 14.384C100.986 14.384 100.682 14.36 100.41 14.312C100.154 14.264 99.9618 14.216 99.8338 14.168C99.6578 14.104 99.5218 14.024 99.4258 13.928C99.3458 13.816 99.3058 13.72 99.3058 13.64C99.3058 13.528 99.3618 13.472 99.4738 13.472C99.5538 13.472 99.6498 13.52 99.7618 13.616C99.9858 13.808 100.202 13.92 100.41 13.952C100.586 13.952 100.818 13.928 101.106 13.88C101.394 13.816 101.594 13.728 101.706 13.616C101.898 13.424 101.994 13.232 101.994 13.04C101.994 12.912 101.954 12.792 101.874 12.68C101.81 12.552 101.714 12.432 101.586 12.32C101.378 12.144 101.17 11.968 100.962 11.792C100.754 11.6 100.578 11.392 100.434 11.168C100.21 10.816 100.098 10.472 100.098 10.136C100.098 9.624 100.266 9.144 100.602 8.696C100.954 8.248 101.33 7.88 101.73 7.592C102.162 7.288 102.602 7.136 103.05 7.136C103.29 7.136 103.514 7.192 103.722 7.304C103.93 7.4 104.09 7.56 104.202 7.784C104.218 7.816 104.226 7.856 104.226 7.904C104.226 8 104.194 8.064 104.13 8.096C104.066 8.128 104.018 8.096 103.986 8C103.89 7.744 103.626 7.616 103.194 7.616C102.938 7.616 102.658 7.664 102.354 7.76C102.066 7.856 101.834 7.968 101.658 8.096C101.114 8.512 100.842 9.048 100.842 9.704C100.842 10.168 100.994 10.584 101.298 10.952C101.506 11.208 101.722 11.448 101.946 11.672C102.186 11.88 102.386 12.088 102.546 12.296C102.706 12.488 102.762 12.68 102.714 12.872C102.634 13.224 102.402 13.512 102.018 13.736C101.65 13.944 101.306 14.064 100.986 14.096C101.082 14.112 101.258 14.12 101.514 14.12C102.426 14.12 103.202 13.816 103.842 13.208C104.498 12.6 105.098 11.88 105.642 11.048C105.674 11 105.706 10.976 105.738 10.976C105.77 10.976 105.786 11.016 105.786 11.096C105.786 11.192 105.746 11.304 105.666 11.432C105.058 12.36 104.426 13.088 103.77 13.616C103.13 14.128 102.314 14.384 101.322 14.384ZM105.741 14.168C105.453 14.168 105.245 14.072 105.117 13.88C104.989 13.688 104.925 13.448 104.925 13.16C104.925 12.936 104.949 12.72 104.997 12.512C105.045 12.288 105.197 11.92 105.453 11.408C105.709 10.88 105.989 10.328 106.293 9.752C106.133 9.816 105.957 9.888 105.765 9.968C105.589 10.032 105.461 10.104 105.381 10.184C105.317 10.216 105.277 10.232 105.261 10.232C105.213 10.232 105.189 10.2 105.189 10.136C105.189 9.992 105.277 9.856 105.453 9.728C105.629 9.6 105.797 9.512 105.957 9.464C106.133 9.416 106.333 9.36 106.557 9.296C106.733 8.976 106.917 8.648 107.109 8.312C107.317 7.96 107.501 7.656 107.661 7.4C107.773 7.24 107.933 7.04 108.141 6.8C108.349 6.544 108.581 6.336 108.837 6.176C108.981 6.08 109.173 6.032 109.413 6.032C109.589 6.032 109.685 6.064 109.701 6.128C109.461 6.192 109.213 6.352 108.957 6.608C108.717 6.864 108.485 7.16 108.261 7.496C108.037 7.832 107.845 8.152 107.685 8.456C107.525 8.744 107.405 8.968 107.325 9.128C107.661 9.08 107.941 9.056 108.165 9.056C108.293 9.056 108.405 9.064 108.501 9.08C108.597 9.08 108.677 9.088 108.741 9.104C108.869 9.12 108.933 9.16 108.933 9.224C108.933 9.288 108.853 9.32 108.693 9.32C108.565 9.32 108.413 9.32 108.237 9.32C108.077 9.32 107.901 9.336 107.709 9.368C107.565 9.384 107.413 9.432 107.253 9.512C107.109 9.592 107.013 9.68 106.965 9.776C106.613 10.416 106.301 11.032 106.029 11.624C105.757 12.216 105.605 12.664 105.573 12.968C105.525 13.48 105.677 13.736 106.029 13.736C106.381 13.736 106.733 13.584 107.085 13.28C107.453 12.96 107.797 12.592 108.117 12.176C108.437 11.76 108.693 11.408 108.885 11.12C108.949 11.056 108.989 11.024 109.005 11.024C109.053 11.024 109.077 11.064 109.077 11.144C109.077 11.208 109.053 11.28 109.005 11.36C108.733 11.776 108.421 12.2 108.069 12.632C107.717 13.064 107.341 13.432 106.941 13.736C106.557 14.024 106.157 14.168 105.741 14.168ZM110.462 14.384C110.126 14.384 109.822 14.36 109.55 14.312C109.294 14.264 109.102 14.216 108.974 14.168C108.798 14.104 108.662 14.024 108.566 13.928C108.486 13.816 108.446 13.72 108.446 13.64C108.446 13.528 108.502 13.472 108.614 13.472C108.694 13.472 108.79 13.52 108.902 13.616C109.126 13.808 109.342 13.92 109.55 13.952C109.726 13.952 109.958 13.928 110.246 13.88C110.534 13.816 110.734 13.728 110.846 13.616C111.038 13.424 111.134 13.232 111.134 13.04C111.134 12.912 111.094 12.792 111.014 12.68C110.95 12.552 110.854 12.432 110.726 12.32C110.518 12.144 110.31 11.968 110.102 11.792C109.894 11.6 109.718 11.392 109.574 11.168C109.35 10.816 109.238 10.472 109.238 10.136C109.238 9.624 109.406 9.144 109.742 8.696C110.094 8.248 110.47 7.88 110.87 7.592C111.302 7.288 111.742 7.136 112.19 7.136C112.43 7.136 112.654 7.192 112.862 7.304C113.07 7.4 113.23 7.56 113.342 7.784C113.358 7.816 113.366 7.856 113.366 7.904C113.366 8 113.334 8.064 113.27 8.096C113.206 8.128 113.158 8.096 113.126 8C113.03 7.744 112.766 7.616 112.334 7.616C112.078 7.616 111.798 7.664 111.494 7.76C111.206 7.856 110.974 7.968 110.798 8.096C110.254 8.512 109.982 9.048 109.982 9.704C109.982 10.168 110.134 10.584 110.438 10.952C110.646 11.208 110.862 11.448 111.086 11.672C111.326 11.88 111.526 12.088 111.686 12.296C111.846 12.488 111.902 12.68 111.854 12.872C111.774 13.224 111.542 13.512 111.158 13.736C110.79 13.944 110.446 14.064 110.126 14.096C110.222 14.112 110.398 14.12 110.654 14.12C111.566 14.12 112.342 13.816 112.982 13.208C113.638 12.6 114.238 11.88 114.782 11.048C114.814 11 114.846 10.976 114.878 10.976C114.91 10.976 114.926 11.016 114.926 11.096C114.926 11.192 114.886 11.304 114.806 11.432C114.198 12.36 113.566 13.088 112.91 13.616C112.27 14.128 111.454 14.384 110.462 14.384Z" fill="#6A6060"/>
</svg>
