<svg width="71" height="21" viewBox="0 0 71 21" fill="none" xmlns="http://www.w3.org/2000/svg">
<path d="M3.98956 15.584C3.76556 15.584 3.55756 15.48 3.36556 15.272C3.17356 15.064 3.07756 14.712 3.07756 14.216C3.07756 13.64 3.20556 12.944 3.46156 12.128C3.71756 11.296 4.06956 10.4 4.51756 9.44C4.96556 8.48 5.46956 7.512 6.02956 6.536C6.46156 5.8 6.89356 5.072 7.32556 4.352C7.77356 3.632 8.18956 2.984 8.57356 2.408C8.97356 1.816 9.30956 1.36 9.58156 1.04C9.69356 0.927999 9.76556 0.863999 9.79756 0.847999C9.10956 0.703999 8.41356 0.599999 7.70956 0.535999C7.02156 0.472 6.35756 0.44 5.71756 0.44C4.35756 0.44 3.30156 0.56 2.54956 0.8C1.79756 1.04 1.35756 1.312 1.22956 1.616C1.19756 1.712 1.18156 1.792 1.18156 1.856C1.18156 2.064 1.27756 2.256 1.46956 2.432C1.67756 2.592 1.91756 2.728 2.18956 2.84C2.47756 2.952 2.75756 3.048 3.02956 3.128C3.30156 3.192 3.50956 3.232 3.65356 3.248C3.73356 3.248 3.77356 3.288 3.77356 3.368C3.77356 3.464 3.72556 3.512 3.62956 3.512C3.45356 3.496 3.18156 3.448 2.81356 3.368C2.44556 3.288 2.06156 3.176 1.66156 3.032C1.27756 2.888 0.941563 2.72 0.653563 2.528C0.381563 2.32 0.245563 2.08 0.245563 1.808C0.245563 1.712 0.269563 1.616 0.317563 1.52C0.493563 1.104 0.989563 0.76 1.80556 0.487999C2.63756 0.215999 3.80556 0.079999 5.30956 0.079999C6.38156 0.079999 7.51756 0.159999 8.71756 0.319999C9.91756 0.48 11.0616 0.72 12.1496 1.04C13.5576 1.44 14.5816 2.008 15.2216 2.744C15.8616 3.464 16.1816 4.2 16.1816 4.952C16.1816 6.04 15.6296 6.912 14.5256 7.568C13.9336 7.904 13.2936 8.16 12.6056 8.336C11.9336 8.512 11.2696 8.632 10.6136 8.696C9.97356 8.744 9.41356 8.768 8.93356 8.768C9.20556 9.488 9.51756 10.232 9.86956 11C10.2376 11.752 10.6056 12.416 10.9736 12.992C11.3416 13.568 11.6856 13.952 12.0056 14.144C12.1816 14.24 12.3656 14.288 12.5576 14.288C12.8776 14.288 13.1576 14.192 13.3976 14C13.6376 13.792 13.8376 13.56 13.9976 13.304C14.1736 13.032 14.3096 12.808 14.4056 12.632C14.4536 12.552 14.5176 12.512 14.5976 12.512C14.6776 12.512 14.7176 12.552 14.7176 12.632C14.7176 12.664 14.7096 12.68 14.6936 12.68C14.5976 12.92 14.4536 13.2 14.2616 13.52C14.0696 13.824 13.8296 14.088 13.5416 14.312C13.2696 14.536 12.9416 14.648 12.5576 14.648C12.3976 14.648 12.2376 14.616 12.0776 14.552C11.9176 14.504 11.7656 14.448 11.6216 14.384C11.2056 14.144 10.7656 13.72 10.3016 13.112C9.85356 12.488 9.42956 11.792 9.02956 11.024C8.62956 10.24 8.29356 9.48 8.02156 8.744C7.95756 8.744 7.90156 8.744 7.85356 8.744C7.80556 8.728 7.76556 8.72 7.73356 8.72C7.70156 8.72 7.60556 8.704 7.44556 8.672C7.28556 8.64 7.12556 8.592 6.96556 8.528C6.80556 8.448 6.70956 8.352 6.67756 8.24C6.66156 8.208 6.65356 8.168 6.65356 8.12C6.65356 8.056 6.68556 8.024 6.74956 8.024C6.82956 8.024 6.92556 8.08 7.03756 8.192C7.11756 8.24 7.21356 8.288 7.32556 8.336C7.45356 8.384 7.59756 8.408 7.75756 8.408H7.90156L7.82956 8.192C7.82956 8.176 7.82156 8.168 7.80556 8.168C7.80556 8.152 7.80556 8.136 7.80556 8.12C7.80556 7.912 7.94956 7.808 8.23756 7.808C8.46156 7.808 8.60556 7.904 8.66956 8.096L8.78956 8.456C9.23756 8.456 9.75756 8.432 10.3496 8.384C10.9416 8.32 11.5416 8.208 12.1496 8.048C12.7736 7.872 13.3496 7.616 13.8776 7.28C14.7896 6.704 15.2456 5.904 15.2456 4.88C15.2456 4.224 14.9736 3.576 14.4296 2.936C13.9016 2.28 13.0216 1.752 11.7896 1.352C11.5336 1.272 11.2776 1.2 11.0216 1.136C10.7816 1.072 10.5256 1.008 10.2536 0.943999C10.3336 1.104 10.3736 1.272 10.3736 1.448C10.3736 1.608 10.3416 1.728 10.2776 1.808C9.20556 3.12 8.15756 4.552 7.13356 6.104C6.12556 7.64 5.25356 9.232 4.51756 10.88C4.30956 11.344 4.11756 11.88 3.94156 12.488C3.78156 13.096 3.70156 13.632 3.70156 14.096C3.70156 14.448 3.73356 14.688 3.79756 14.816C3.87756 14.944 3.97356 15.008 4.08556 15.008C4.19756 15.008 4.30156 14.96 4.39756 14.864C4.49356 14.784 4.58156 14.68 4.66156 14.552C4.75756 14.424 4.81356 14.36 4.82956 14.36C4.86156 14.36 4.88556 14.376 4.90156 14.408C4.91756 14.456 4.92556 14.488 4.92556 14.504C4.95756 14.808 4.86956 15.064 4.66156 15.272C4.45356 15.48 4.22956 15.584 3.98956 15.584ZM17.4463 14.192C16.7903 14.192 16.3103 14.048 16.0063 13.76C15.7023 13.456 15.5503 13.056 15.5503 12.56C15.5503 12.432 15.5583 12.304 15.5743 12.176C15.6063 12.032 15.6383 11.888 15.6703 11.744C15.7503 11.456 15.8783 11.12 16.0543 10.736C16.2463 10.352 16.4783 9.976 16.7503 9.608C17.0223 9.24 17.3183 8.936 17.6383 8.696C17.9583 8.456 18.2943 8.336 18.6463 8.336C18.9343 8.336 19.1503 8.44 19.2943 8.648C19.4543 8.856 19.5343 9.104 19.5343 9.392C19.5343 9.696 19.4383 10.008 19.2463 10.328C19.0703 10.632 18.8303 10.88 18.5263 11.072C18.1743 11.312 17.7743 11.432 17.3263 11.432C17.0383 11.432 16.7743 11.376 16.5343 11.264C16.2943 11.744 16.1743 12.216 16.1743 12.68C16.1743 13.016 16.2703 13.304 16.4623 13.544C16.6543 13.784 16.9743 13.904 17.4223 13.904C17.9663 13.904 18.4463 13.776 18.8623 13.52C19.2783 13.248 19.6623 12.896 20.0143 12.464C20.3823 12.032 20.7343 11.568 21.0703 11.072C21.1183 11.024 21.1503 11 21.1663 11C21.2143 11 21.2383 11.04 21.2383 11.12C21.2383 11.2 21.2143 11.28 21.1663 11.36C20.8783 11.808 20.5503 12.248 20.1823 12.68C19.8303 13.112 19.4303 13.472 18.9823 13.76C18.5343 14.048 18.0223 14.192 17.4463 14.192ZM17.0863 11.096C17.5023 11.096 17.8943 10.952 18.2623 10.664C18.4383 10.536 18.5903 10.384 18.7183 10.208C18.8463 10.032 18.9343 9.856 18.9823 9.68C19.0303 9.504 19.0543 9.352 19.0543 9.224C19.0543 8.856 18.9183 8.672 18.6463 8.672C18.4703 8.672 18.2703 8.776 18.0463 8.984C17.8543 9.16 17.6543 9.384 17.4463 9.656C17.2543 9.928 17.0863 10.192 16.9423 10.448C16.7983 10.688 16.7023 10.864 16.6543 10.976C16.7663 11.056 16.9103 11.096 17.0863 11.096ZM20.1545 20.792C19.7065 20.792 19.3865 20.64 19.1945 20.336C19.0985 20.16 19.0505 19.976 19.0505 19.784C19.0505 19.576 19.0905 19.36 19.1705 19.136C19.2505 18.928 19.3545 18.712 19.4825 18.488C19.7065 18.12 19.9705 17.76 20.2745 17.408C20.5785 17.056 20.8745 16.736 21.1625 16.448C21.4665 16.16 21.7145 15.936 21.9065 15.776C22.2425 15.504 22.6345 15.184 23.0825 14.816C23.5465 14.448 24.0185 14.136 24.4985 13.88C24.5305 13.864 24.5625 13.856 24.5945 13.856C24.6425 13.856 24.6665 13.88 24.6665 13.928C24.6665 14.024 24.6265 14.088 24.5465 14.12C24.3385 14.232 24.0745 14.4 23.7545 14.624C23.4345 14.864 23.1225 15.104 22.8185 15.344C22.5145 15.6 22.2505 15.824 22.0265 16.016C21.8665 16.16 21.6505 16.376 21.3785 16.664C21.1065 16.952 20.8345 17.272 20.5625 17.624C20.2745 17.992 20.0345 18.36 19.8425 18.728C19.7785 18.856 19.7065 19.024 19.6265 19.232C19.5465 19.456 19.5065 19.664 19.5065 19.856C19.5065 20.016 19.5545 20.144 19.6505 20.24C19.7305 20.352 19.8745 20.408 20.0825 20.408C20.4185 20.408 20.7545 20.288 21.0905 20.048C21.4425 19.824 21.7705 19.544 22.0745 19.208C22.3945 18.872 22.6825 18.528 22.9385 18.176C23.1945 17.84 23.3945 17.544 23.5385 17.288C24.1145 16.344 24.5625 15.296 24.8825 14.144C25.2185 13.008 25.3465 11.944 25.2665 10.952C25.2505 10.84 25.2345 10.736 25.2185 10.64C25.2025 10.528 25.1785 10.416 25.1465 10.304C25.1145 10.352 25.0825 10.4 25.0505 10.448C25.0185 10.496 24.9785 10.552 24.9305 10.616C24.8185 10.856 24.6665 11.128 24.4745 11.432C24.2825 11.72 24.0985 11.984 23.9225 12.224C23.7625 12.464 23.6505 12.624 23.5865 12.704C23.2025 13.168 22.8425 13.504 22.5065 13.712C22.1865 13.92 21.9065 14.024 21.6665 14.024C21.3465 14.024 21.0985 13.888 20.9225 13.616C20.7465 13.328 20.6585 12.984 20.6585 12.584C20.6585 11.848 20.9385 11.032 21.4985 10.136C21.7705 9.72 22.1465 9.336 22.6265 8.984C23.1065 8.616 23.5785 8.432 24.0425 8.432C24.4265 8.432 24.7545 8.592 25.0265 8.912C25.0745 8.976 25.0825 9.056 25.0505 9.152C25.0345 9.232 24.9945 9.24 24.9305 9.176C24.8665 9.08 24.7625 9.016 24.6185 8.984C24.4905 8.952 24.3625 8.936 24.2345 8.936C23.8345 8.936 23.4665 9.08 23.1305 9.368C22.7945 9.64 22.4985 9.968 22.2425 10.352C22.0025 10.72 21.8025 11.064 21.6425 11.384C21.2905 12.088 21.1145 12.648 21.1145 13.064C21.1145 13.496 21.2745 13.712 21.5945 13.712C21.8025 13.712 22.0505 13.616 22.3385 13.424C22.6425 13.216 22.9705 12.888 23.3225 12.44C23.4025 12.344 23.5385 12.168 23.7305 11.912C23.9225 11.64 24.1305 11.32 24.3545 10.952C24.5785 10.584 24.7705 10.224 24.9305 9.872C24.9305 9.856 24.9305 9.848 24.9305 9.848C24.9465 9.848 24.9545 9.84 24.9545 9.824C24.9385 9.808 24.9145 9.768 24.8825 9.704V9.68C24.8825 9.616 24.9545 9.584 25.0985 9.584C25.2265 9.584 25.3225 9.616 25.3865 9.68C25.5785 9.84 25.7145 10.088 25.7945 10.424C25.8905 10.744 25.9385 11.112 25.9385 11.528C25.9385 12.072 25.8745 12.664 25.7465 13.304C25.6185 13.928 25.4505 14.536 25.2425 15.128C25.0505 15.72 24.8265 16.248 24.5705 16.712C24.2825 17.288 23.9385 17.84 23.5385 18.368C23.1545 18.912 22.7385 19.384 22.2905 19.784C21.8585 20.184 21.4265 20.464 20.9945 20.624C20.7065 20.736 20.4265 20.792 20.1545 20.792ZM29.7054 7.088C29.4814 7.088 29.3454 6.952 29.2974 6.68C29.2814 6.552 29.3614 6.424 29.5374 6.296C29.7134 6.168 29.8574 6.08 29.9694 6.032C30.0494 6 30.1134 5.976 30.1614 5.96C30.2094 5.944 30.2494 5.936 30.2814 5.936C30.3934 5.936 30.4494 5.992 30.4494 6.104C30.4494 6.232 30.4014 6.384 30.3054 6.56C30.2254 6.736 30.1854 6.824 30.1854 6.824C30.1694 6.888 30.1134 6.952 30.0174 7.016C29.9214 7.064 29.8174 7.088 29.7054 7.088ZM27.3054 14.168C27.0174 14.168 26.8094 14.072 26.6814 13.88C26.5534 13.688 26.4894 13.448 26.4894 13.16C26.4894 12.936 26.5134 12.72 26.5614 12.512C26.5934 12.416 26.6734 12.176 26.8014 11.792C26.9454 11.408 27.1294 10.984 27.3534 10.52C27.5934 10.056 27.8494 9.656 28.1214 9.32C28.3934 8.968 28.6734 8.792 28.9614 8.792C29.0894 8.792 29.1534 8.824 29.1534 8.888C29.1534 8.952 29.1214 9.016 29.0574 9.08C28.7374 9.464 28.4334 9.92 28.1454 10.448C27.8734 10.96 27.6414 11.448 27.4494 11.912C27.2734 12.376 27.1694 12.728 27.1374 12.968C27.0894 13.48 27.2414 13.736 27.5934 13.736C27.6414 13.736 27.6894 13.736 27.7374 13.736C27.7854 13.72 27.8414 13.704 27.9054 13.688C28.2414 13.576 28.5694 13.368 28.8894 13.064C29.2094 12.76 29.5054 12.424 29.7774 12.056C30.0494 11.688 30.2734 11.368 30.4494 11.096C30.5134 11.032 30.5534 11 30.5694 11C30.6174 11 30.6414 11.04 30.6414 11.12C30.6414 11.2 30.6174 11.28 30.5694 11.36C30.2174 11.904 29.8014 12.44 29.3214 12.968C28.8574 13.496 28.3934 13.848 27.9294 14.024C27.6894 14.12 27.4814 14.168 27.3054 14.168ZM32.0249 14.384C31.6889 14.384 31.3849 14.36 31.1129 14.312C30.8569 14.264 30.6649 14.216 30.5369 14.168C30.3609 14.104 30.2249 14.024 30.1289 13.928C30.0489 13.816 30.0089 13.72 30.0089 13.64C30.0089 13.528 30.0649 13.472 30.1769 13.472C30.2569 13.472 30.3529 13.52 30.4649 13.616C30.6889 13.808 30.9049 13.92 31.1129 13.952C31.2889 13.952 31.5209 13.928 31.8089 13.88C32.0969 13.816 32.2969 13.728 32.4089 13.616C32.6009 13.424 32.6969 13.232 32.6969 13.04C32.6969 12.912 32.6569 12.792 32.5769 12.68C32.5129 12.552 32.4169 12.432 32.2889 12.32C32.0809 12.144 31.8729 11.968 31.6649 11.792C31.4569 11.6 31.2809 11.392 31.1369 11.168C30.9129 10.816 30.8009 10.472 30.8009 10.136C30.8009 9.624 30.9689 9.144 31.3049 8.696C31.6569 8.248 32.0329 7.88 32.4329 7.592C32.8649 7.288 33.3049 7.136 33.7529 7.136C33.9929 7.136 34.2169 7.192 34.4249 7.304C34.6329 7.4 34.7929 7.56 34.9049 7.784C34.9209 7.816 34.9289 7.856 34.9289 7.904C34.9289 8 34.8969 8.064 34.8329 8.096C34.7689 8.128 34.7209 8.096 34.6889 8C34.5929 7.744 34.3289 7.616 33.8969 7.616C33.6409 7.616 33.3609 7.664 33.0569 7.76C32.7689 7.856 32.5369 7.968 32.3609 8.096C31.8169 8.512 31.5449 9.048 31.5449 9.704C31.5449 10.168 31.6969 10.584 32.0009 10.952C32.2089 11.208 32.4249 11.448 32.6489 11.672C32.8889 11.88 33.0889 12.088 33.2489 12.296C33.4089 12.488 33.4649 12.68 33.4169 12.872C33.3369 13.224 33.1049 13.512 32.7209 13.736C32.3529 13.944 32.0089 14.064 31.6889 14.096C31.7849 14.112 31.9609 14.12 32.2169 14.12C33.1289 14.12 33.9049 13.816 34.5449 13.208C35.2009 12.6 35.8009 11.88 36.3449 11.048C36.3769 11 36.4089 10.976 36.4409 10.976C36.4729 10.976 36.4889 11.016 36.4889 11.096C36.4889 11.192 36.4489 11.304 36.3689 11.432C35.7609 12.36 35.1289 13.088 34.4729 13.616C33.8329 14.128 33.0169 14.384 32.0249 14.384ZM36.4443 14.168C36.1563 14.168 35.9483 14.072 35.8203 13.88C35.6923 13.688 35.6283 13.448 35.6283 13.16C35.6283 12.936 35.6523 12.72 35.7003 12.512C35.7483 12.288 35.9003 11.92 36.1563 11.408C36.4123 10.88 36.6923 10.328 36.9963 9.752C36.8363 9.816 36.6603 9.888 36.4683 9.968C36.2923 10.032 36.1643 10.104 36.0843 10.184C36.0203 10.216 35.9803 10.232 35.9643 10.232C35.9163 10.232 35.8923 10.2 35.8923 10.136C35.8923 9.992 35.9803 9.856 36.1563 9.728C36.3323 9.6 36.5003 9.512 36.6603 9.464C36.8363 9.416 37.0363 9.36 37.2603 9.296C37.4363 8.976 37.6203 8.648 37.8123 8.312C38.0203 7.96 38.2043 7.656 38.3643 7.4C38.4763 7.24 38.6363 7.04 38.8443 6.8C39.0523 6.544 39.2843 6.336 39.5403 6.176C39.6843 6.08 39.8763 6.032 40.1163 6.032C40.2923 6.032 40.3883 6.064 40.4043 6.128C40.1643 6.192 39.9163 6.352 39.6603 6.608C39.4203 6.864 39.1883 7.16 38.9643 7.496C38.7403 7.832 38.5483 8.152 38.3883 8.456C38.2283 8.744 38.1083 8.968 38.0283 9.128C38.3643 9.08 38.6443 9.056 38.8683 9.056C38.9963 9.056 39.1083 9.064 39.2043 9.08C39.3003 9.08 39.3803 9.088 39.4443 9.104C39.5723 9.12 39.6363 9.16 39.6363 9.224C39.6363 9.288 39.5563 9.32 39.3963 9.32C39.2683 9.32 39.1163 9.32 38.9403 9.32C38.7803 9.32 38.6043 9.336 38.4123 9.368C38.2683 9.384 38.1163 9.432 37.9563 9.512C37.8123 9.592 37.7163 9.68 37.6683 9.776C37.3163 10.416 37.0043 11.032 36.7323 11.624C36.4603 12.216 36.3083 12.664 36.2763 12.968C36.2283 13.48 36.3803 13.736 36.7323 13.736C37.0843 13.736 37.4363 13.584 37.7883 13.28C38.1563 12.96 38.5003 12.592 38.8203 12.176C39.1403 11.76 39.3963 11.408 39.5883 11.12C39.6523 11.056 39.6923 11.024 39.7083 11.024C39.7563 11.024 39.7803 11.064 39.7803 11.144C39.7803 11.208 39.7563 11.28 39.7083 11.36C39.4363 11.776 39.1243 12.2 38.7723 12.632C38.4203 13.064 38.0443 13.432 37.6443 13.736C37.2603 14.024 36.8603 14.168 36.4443 14.168ZM41.5016 14.144C41.2296 14.144 41.0136 14.056 40.8536 13.88C40.7096 13.688 40.6376 13.464 40.6376 13.208C40.6376 12.968 40.6936 12.736 40.8056 12.512C40.9816 12.144 41.2056 11.784 41.4776 11.432C41.7656 11.064 42.0296 10.744 42.2696 10.472C42.4296 10.264 42.5096 10.088 42.5096 9.944C42.5096 9.752 42.3896 9.56 42.1496 9.368C41.9576 9.24 41.7816 9.072 41.6216 8.864C41.5096 8.704 41.4296 8.544 41.3816 8.384C41.1256 8.912 40.7976 9.528 40.3976 10.232C40.0136 10.92 39.6136 11.536 39.1976 12.08C39.1336 12.176 39.0696 12.224 39.0056 12.224C38.9576 12.224 38.9336 12.192 38.9336 12.128C38.9336 12.096 38.9416 12.064 38.9576 12.032C38.9736 12 39.0216 11.928 39.1016 11.816C39.5176 11.24 39.8536 10.704 40.1096 10.208C40.3656 9.712 40.5896 9.248 40.7816 8.816L41.3096 7.64C41.3256 7.608 41.3416 7.568 41.3576 7.52C41.3896 7.456 41.4136 7.416 41.4296 7.4C41.4616 7.368 41.4936 7.352 41.5256 7.352C41.5896 7.352 41.6376 7.384 41.6696 7.448C41.7016 7.512 41.7016 7.592 41.6696 7.688C41.6376 7.864 41.6616 8.04 41.7416 8.216C41.8216 8.392 41.9256 8.552 42.0536 8.696C42.1816 8.824 42.3656 8.944 42.6056 9.056C42.8456 9.168 43.0616 9.296 43.2536 9.44C43.4456 9.584 43.5176 9.768 43.4696 9.992C43.4056 10.296 43.2376 10.592 42.9656 10.88C42.6936 11.168 42.4216 11.472 42.1496 11.792C41.9576 12 41.7816 12.208 41.6216 12.416C41.4776 12.624 41.3656 12.84 41.2856 13.064C41.2696 13.112 41.2536 13.16 41.2376 13.208C41.2376 13.256 41.2376 13.304 41.2376 13.352C41.2376 13.64 41.3896 13.784 41.6936 13.784C41.7896 13.784 41.9096 13.76 42.0536 13.712C42.4536 13.568 42.8216 13.328 43.1576 12.992C43.5096 12.656 43.8056 12.32 44.0456 11.984C44.3016 11.648 44.4696 11.416 44.5496 11.288C44.6776 11.096 44.7576 11 44.7896 11C44.8376 11 44.8616 11.04 44.8616 11.12C44.8616 11.2 44.8376 11.28 44.7896 11.36C44.4376 11.92 44.0376 12.448 43.5896 12.944C43.1416 13.44 42.6616 13.792 42.1496 14C41.9096 14.096 41.6936 14.144 41.5016 14.144ZM48.5075 14.168C48.2195 14.168 48.0035 14.072 47.8595 13.88C47.7315 13.688 47.6675 13.44 47.6675 13.136C47.6675 12.928 47.6915 12.72 47.7395 12.512C47.7555 12.48 47.7795 12.408 47.8115 12.296C47.8435 12.168 47.8915 12.024 47.9555 11.864C47.7315 12.216 47.4435 12.608 47.0915 13.04C46.7555 13.456 46.3795 13.768 45.9635 13.976C45.7235 14.088 45.4835 14.144 45.2435 14.144C44.9235 14.144 44.6675 14.024 44.4755 13.784C44.2835 13.528 44.1875 13.176 44.1875 12.728C44.1875 12.36 44.2675 11.968 44.4275 11.552C44.5875 11.12 44.8195 10.68 45.1235 10.232C45.3155 9.944 45.5635 9.664 45.8675 9.392C46.1715 9.12 46.4995 8.896 46.8515 8.72C47.2035 8.544 47.5395 8.456 47.8595 8.456C48.1795 8.456 48.4515 8.544 48.6755 8.72C48.8995 8.896 49.0195 9.16 49.0355 9.512C49.0355 9.56 49.0115 9.6 48.9635 9.632C48.9315 9.648 48.8995 9.624 48.8675 9.56C48.6755 9.128 48.3635 8.912 47.9315 8.912C47.6435 8.912 47.3395 9.048 47.0195 9.32C46.6995 9.576 46.3875 9.904 46.0835 10.304C45.7795 10.704 45.5155 11.104 45.2915 11.504C45.0995 11.856 44.9555 12.176 44.8595 12.464C44.7795 12.752 44.7395 13 44.7395 13.208C44.7395 13.64 44.9075 13.856 45.2435 13.856C45.4195 13.856 45.6115 13.8 45.8195 13.688C46.0115 13.576 46.2435 13.376 46.5155 13.088C46.8035 12.8 47.0835 12.48 47.3555 12.128C47.6435 11.776 47.8995 11.432 48.1235 11.096C48.3635 10.76 48.5395 10.496 48.6515 10.304C48.8915 9.904 49.1395 9.552 49.3955 9.248C49.6515 8.944 49.9075 8.792 50.1635 8.792C50.2915 8.792 50.3555 8.824 50.3555 8.888C50.3555 8.952 50.3235 9.016 50.2595 9.08C49.9395 9.464 49.6355 9.92 49.3475 10.448C49.0755 10.96 48.8435 11.448 48.6515 11.912C48.4755 12.376 48.3715 12.728 48.3395 12.968C48.2915 13.48 48.4435 13.736 48.7955 13.736C48.8435 13.736 48.8915 13.736 48.9395 13.736C48.9875 13.72 49.0435 13.704 49.1075 13.688C49.4435 13.576 49.7715 13.368 50.0915 13.064C50.4115 12.76 50.7075 12.432 50.9795 12.08C51.2515 11.712 51.4755 11.392 51.6515 11.12C51.6995 11.056 51.7395 11.024 51.7715 11.024C51.8195 11.024 51.8435 11.064 51.8435 11.144C51.8435 11.192 51.8195 11.256 51.7715 11.336C51.6595 11.496 51.5555 11.656 51.4595 11.816C51.3635 11.96 51.2675 12.096 51.1715 12.224C51.1395 12.288 51.0995 12.344 51.0515 12.392C51.0035 12.44 50.9555 12.496 50.9075 12.56C50.6995 12.816 50.4275 13.096 50.0915 13.4C49.7715 13.688 49.4515 13.896 49.1315 14.024C48.8915 14.12 48.6835 14.168 48.5075 14.168ZM51.7959 14.168C51.5079 14.168 51.2999 14.072 51.1719 13.88C51.0439 13.688 50.9799 13.448 50.9799 13.16C50.9799 12.936 51.0039 12.72 51.0519 12.512C51.0999 12.288 51.2519 11.92 51.5079 11.408C51.7639 10.88 52.0439 10.328 52.3479 9.752C52.1879 9.816 52.0119 9.888 51.8199 9.968C51.6439 10.032 51.5159 10.104 51.4359 10.184C51.3719 10.216 51.3319 10.232 51.3159 10.232C51.2679 10.232 51.2439 10.2 51.2439 10.136C51.2439 9.992 51.3319 9.856 51.5079 9.728C51.6839 9.6 51.8519 9.512 52.0119 9.464C52.1879 9.416 52.3879 9.36 52.6119 9.296C52.7879 8.976 52.9719 8.648 53.1639 8.312C53.3719 7.96 53.5559 7.656 53.7159 7.4C53.8279 7.24 53.9879 7.04 54.1959 6.8C54.4039 6.544 54.6359 6.336 54.8919 6.176C55.0359 6.08 55.2279 6.032 55.4679 6.032C55.6439 6.032 55.7399 6.064 55.7559 6.128C55.5159 6.192 55.2679 6.352 55.0119 6.608C54.7719 6.864 54.5399 7.16 54.3159 7.496C54.0919 7.832 53.8999 8.152 53.7399 8.456C53.5799 8.744 53.4599 8.968 53.3799 9.128C53.7159 9.08 53.9959 9.056 54.2199 9.056C54.3479 9.056 54.4599 9.064 54.5559 9.08C54.6519 9.08 54.7319 9.088 54.7959 9.104C54.9239 9.12 54.9879 9.16 54.9879 9.224C54.9879 9.288 54.9079 9.32 54.7479 9.32C54.6199 9.32 54.4679 9.32 54.2919 9.32C54.1319 9.32 53.9559 9.336 53.7639 9.368C53.6199 9.384 53.4679 9.432 53.3079 9.512C53.1639 9.592 53.0679 9.68 53.0199 9.776C52.6679 10.416 52.3559 11.032 52.0839 11.624C51.8119 12.216 51.6599 12.664 51.6279 12.968C51.5799 13.48 51.7319 13.736 52.0839 13.736C52.4359 13.736 52.7879 13.584 53.1399 13.28C53.5079 12.96 53.8519 12.592 54.1719 12.176C54.4919 11.76 54.7479 11.408 54.9399 11.12C55.0039 11.056 55.0439 11.024 55.0599 11.024C55.1079 11.024 55.1319 11.064 55.1319 11.144C55.1319 11.208 55.1079 11.28 55.0599 11.36C54.7879 11.776 54.4759 12.2 54.1239 12.632C53.7719 13.064 53.3959 13.432 52.9959 13.736C52.6119 14.024 52.2119 14.168 51.7959 14.168ZM57.5491 7.088C57.3251 7.088 57.1891 6.952 57.1411 6.68C57.1251 6.552 57.2051 6.424 57.3811 6.296C57.5571 6.168 57.7011 6.08 57.8131 6.032C57.8931 6 57.9571 5.976 58.0051 5.96C58.0531 5.944 58.0931 5.936 58.1251 5.936C58.2371 5.936 58.2931 5.992 58.2931 6.104C58.2931 6.232 58.2451 6.384 58.1491 6.56C58.0691 6.736 58.0291 6.824 58.0291 6.824C58.0131 6.888 57.9571 6.952 57.8611 7.016C57.7651 7.064 57.6611 7.088 57.5491 7.088ZM55.1491 14.168C54.8611 14.168 54.6531 14.072 54.5251 13.88C54.3971 13.688 54.3331 13.448 54.3331 13.16C54.3331 12.936 54.3571 12.72 54.4051 12.512C54.4371 12.416 54.5171 12.176 54.6451 11.792C54.7891 11.408 54.9731 10.984 55.1971 10.52C55.4371 10.056 55.6931 9.656 55.9651 9.32C56.2371 8.968 56.5171 8.792 56.8051 8.792C56.9331 8.792 56.9971 8.824 56.9971 8.888C56.9971 8.952 56.9651 9.016 56.9011 9.08C56.5811 9.464 56.2771 9.92 55.9891 10.448C55.7171 10.96 55.4851 11.448 55.2931 11.912C55.1171 12.376 55.0131 12.728 54.9811 12.968C54.9331 13.48 55.0851 13.736 55.4371 13.736C55.4851 13.736 55.5331 13.736 55.5811 13.736C55.6291 13.72 55.6851 13.704 55.7491 13.688C56.0851 13.576 56.4131 13.368 56.7331 13.064C57.0531 12.76 57.3491 12.424 57.6211 12.056C57.8931 11.688 58.1171 11.368 58.2931 11.096C58.3571 11.032 58.3971 11 58.4131 11C58.4611 11 58.4851 11.04 58.4851 11.12C58.4851 11.2 58.4611 11.28 58.4131 11.36C58.0611 11.904 57.6451 12.44 57.1651 12.968C56.7011 13.496 56.2371 13.848 55.7731 14.024C55.5331 14.12 55.3251 14.168 55.1491 14.168ZM59.4847 14.096C59.0527 14.096 58.6767 13.992 58.3567 13.784C58.0367 13.56 57.8767 13.168 57.8767 12.608C57.8767 12.256 57.9647 11.872 58.1407 11.456C58.3167 11.024 58.5407 10.608 58.8127 10.208C59.1007 9.792 59.4127 9.448 59.7487 9.176C59.8287 9.112 59.9327 9.08 60.0607 9.08C60.2527 8.888 60.4687 8.744 60.7087 8.648C60.9647 8.552 61.2047 8.504 61.4287 8.504C61.8287 8.504 62.1967 8.632 62.5327 8.888C62.8847 9.144 63.0607 9.552 63.0607 10.112C63.0607 10.432 62.9727 10.816 62.7967 11.264C62.6367 11.68 62.3887 12.112 62.0527 12.56C61.7167 12.992 61.3247 13.36 60.8767 13.664C60.4447 13.952 59.9807 14.096 59.4847 14.096ZM59.4607 13.808C59.8127 13.808 60.1727 13.672 60.5407 13.4C60.9247 13.128 61.2767 12.784 61.5967 12.368C61.9167 11.936 62.1487 11.504 62.2927 11.072C62.4527 10.64 62.5327 10.256 62.5327 9.92C62.5327 9.504 62.4207 9.208 62.1967 9.032C61.9727 8.84 61.7247 8.744 61.4527 8.744C61.0207 8.744 60.6447 8.888 60.3247 9.176C60.4847 9.272 60.5007 9.368 60.3727 9.464C60.1487 9.656 59.8927 9.92 59.6047 10.256C59.3327 10.592 59.1167 10.904 58.9567 11.192C58.8447 11.384 58.7407 11.632 58.6447 11.936C58.5647 12.24 58.5247 12.528 58.5247 12.8C58.5247 13.072 58.5887 13.312 58.7167 13.52C58.8607 13.712 59.1087 13.808 59.4607 13.808ZM63.6931 14.096C63.6451 14.096 63.5971 14.064 63.5491 14C63.4211 13.856 63.3571 13.624 63.3571 13.304C63.3571 12.968 63.4131 12.592 63.5251 12.176C63.6531 11.744 63.7971 11.352 63.9571 11C64.1171 10.664 64.2611 10.368 64.3891 10.112C64.5331 9.856 64.6291 9.696 64.6771 9.632C64.8531 9.408 65.0371 9.224 65.2291 9.08C65.4211 8.936 65.6131 8.864 65.8051 8.864C65.9011 8.864 65.9731 8.888 66.0211 8.936C66.0851 8.984 66.0931 9.024 66.0451 9.056C65.9171 9.12 65.7491 9.296 65.5411 9.584C65.3331 9.856 65.1171 10.176 64.8931 10.544C64.7491 10.8 64.5651 11.144 64.3411 11.576C64.1171 12.008 63.9891 12.376 63.9571 12.68C63.9571 12.808 63.9891 12.864 64.0531 12.848L64.6531 11.864C64.9891 11.304 65.4291 10.752 65.9731 10.208C66.5171 9.664 67.1011 9.216 67.7251 8.864C67.7891 8.832 67.8531 8.808 67.9171 8.792C67.9971 8.776 68.0691 8.768 68.1331 8.768C68.2771 8.768 68.3491 8.816 68.3491 8.912C68.3491 8.944 68.3091 9.024 68.2291 9.152C67.8931 9.6 67.6291 10.072 67.4371 10.568C67.2451 11.048 67.1251 11.576 67.0771 12.152C67.0611 12.504 67.0931 12.832 67.1731 13.136C67.2691 13.424 67.4691 13.568 67.7731 13.568C68.1251 13.568 68.4611 13.424 68.7811 13.136C69.1011 12.848 69.3971 12.512 69.6691 12.128C69.9571 11.728 70.2051 11.376 70.4131 11.072C70.4451 11.024 70.4691 11 70.4851 11C70.5331 11 70.5571 11.048 70.5571 11.144C70.5571 11.224 70.5251 11.32 70.4611 11.432C70.2211 11.784 69.9571 12.16 69.6691 12.56C69.3811 12.96 69.0611 13.296 68.7091 13.568C68.3731 13.84 67.9891 13.976 67.5571 13.976C67.1571 13.976 66.8691 13.824 66.6931 13.52C66.5171 13.216 66.4291 12.848 66.4291 12.416C66.4291 11.952 66.5011 11.456 66.6451 10.928C66.8051 10.4 66.9891 9.96 67.1971 9.608C66.7811 9.912 66.3491 10.296 65.9011 10.76C65.4531 11.208 65.0691 11.688 64.7491 12.2C64.6371 12.408 64.4851 12.672 64.2931 12.992C64.1011 13.312 63.9731 13.568 63.9091 13.76C63.8931 13.824 63.8771 13.88 63.8611 13.928C63.8451 13.96 63.8291 13.992 63.8131 14.024C63.7971 14.072 63.7571 14.096 63.6931 14.096Z" fill="#6A6060"/>
</svg>
