<svg width="51" height="15" viewBox="0 0 51 15" fill="none" xmlns="http://www.w3.org/2000/svg">
<path d="M3.979 14.312C3.275 14.312 2.587 14.248 1.915 14.12C1.563 14.04 1.267 13.944 1.027 13.832C0.803 13.72 0.603 13.632 0.427 13.568C0.203 13.456 0.091 13.328 0.091 13.184C0.091 13.12 0.139 13.088 0.235 13.088C0.267 13.088 0.299 13.088 0.331 13.088C0.363 13.088 0.403 13.104 0.451 13.136C0.691 13.232 0.947 13.336 1.219 13.448C1.491 13.56 1.771 13.632 2.059 13.664C2.187 13.68 2.355 13.696 2.563 13.712C2.771 13.728 2.987 13.736 3.211 13.736C3.643 13.736 4.091 13.704 4.555 13.64C5.019 13.56 5.411 13.432 5.731 13.256C6.051 13.064 6.211 12.792 6.211 12.44C6.211 12.248 6.083 12.008 5.827 11.72C5.571 11.432 5.243 11.104 4.843 10.736C4.443 10.352 4.027 9.936 3.595 9.488C3.179 9.04 2.811 8.568 2.491 8.072C2.203 7.608 1.955 7.12 1.747 6.608C1.555 6.08 1.459 5.544 1.459 5C1.459 4.136 1.659 3.392 2.059 2.768C2.475 2.144 3.019 1.632 3.691 1.232C4.379 0.831999 5.115 0.535999 5.899 0.344C6.699 0.136 7.483 0.0319996 8.251 0.0319996C8.635 0.0319996 8.995 0.0559993 9.331 0.103999C9.763 0.151999 10.227 0.263999 10.723 0.44C11.235 0.6 11.667 0.848 12.019 1.184C12.387 1.52 12.571 1.968 12.571 2.528C12.571 3.12 12.387 3.688 12.019 4.232C11.651 4.776 11.195 5.256 10.651 5.672C10.123 6.072 9.603 6.376 9.091 6.584C8.995 6.616 8.915 6.632 8.851 6.632C8.739 6.632 8.683 6.608 8.683 6.56C8.683 6.528 8.723 6.488 8.803 6.44C8.883 6.376 8.931 6.336 8.947 6.32C9.315 6.032 9.667 5.776 10.003 5.552C10.355 5.312 10.667 5.032 10.939 4.712C11.259 4.344 11.491 3.992 11.635 3.656C11.795 3.304 11.875 2.976 11.875 2.672C11.875 2.16 11.659 1.728 11.227 1.376C10.811 1.024 10.203 0.799999 9.403 0.704C9.259 0.688 9.115 0.68 8.971 0.68C8.827 0.663999 8.683 0.655999 8.539 0.655999C7.787 0.655999 7.027 0.767999 6.259 0.991999C5.491 1.2 4.787 1.512 4.147 1.928C3.507 2.328 2.987 2.808 2.587 3.368C2.203 3.928 2.011 4.56 2.011 5.264C2.011 6.08 2.315 6.936 2.923 7.832C3.259 8.312 3.659 8.776 4.123 9.224C4.587 9.672 5.043 10.104 5.491 10.52C5.955 10.92 6.331 11.304 6.619 11.672C6.923 12.04 7.075 12.384 7.075 12.704C7.075 13.104 6.923 13.424 6.619 13.664C6.331 13.904 5.947 14.072 5.467 14.168C5.003 14.264 4.507 14.312 3.979 14.312ZM10.6493 14.36C10.0253 14.36 9.58531 14.208 9.32931 13.904C9.08931 13.6 8.96931 13.24 8.96931 12.824C8.96931 12.52 9.01731 12.2 9.11331 11.864C9.22531 11.528 9.35331 11.224 9.49731 10.952C9.73731 10.504 10.0253 10.072 10.3613 9.656C10.7133 9.24 11.0813 8.904 11.4653 8.648C11.8493 8.376 12.2173 8.24 12.5693 8.24C12.8253 8.24 13.0573 8.328 13.2653 8.504C13.4733 8.68 13.5773 8.904 13.5773 9.176C13.5773 9.288 13.5533 9.408 13.5053 9.536C13.4573 9.648 13.3933 9.76 13.3133 9.872C13.2493 9.968 13.1853 10.064 13.1213 10.16C13.0893 10.24 13.0413 10.28 12.9773 10.28C12.9133 10.28 12.8813 10.224 12.8813 10.112C12.8813 10.032 12.9053 9.96 12.9533 9.896C13.0013 9.832 13.0493 9.744 13.0973 9.632C13.1453 9.52 13.1693 9.408 13.1693 9.296C13.1693 9.088 13.1133 8.952 13.0013 8.888C12.9053 8.824 12.7933 8.792 12.6653 8.792C12.3613 8.792 12.0333 8.928 11.6813 9.2C11.3453 9.456 11.0333 9.792 10.7453 10.208C10.4573 10.624 10.2173 11.064 10.0253 11.528C9.84931 11.976 9.76131 12.392 9.76131 12.776C9.76131 13.096 9.84131 13.376 10.0013 13.616C10.1613 13.84 10.4413 13.952 10.8413 13.952C11.1133 13.952 11.3933 13.896 11.6813 13.784C11.9853 13.656 12.2653 13.512 12.5213 13.352C12.9373 13.08 13.2973 12.752 13.6013 12.368C13.9213 11.968 14.2333 11.544 14.5373 11.096C14.5853 11.032 14.6253 11 14.6573 11C14.6893 11 14.7133 11.032 14.7293 11.096C14.7453 11.16 14.7293 11.232 14.6813 11.312C14.3933 11.76 14.0573 12.216 13.6733 12.68C13.2893 13.144 12.9053 13.496 12.5213 13.736C12.2333 13.928 11.9293 14.08 11.6093 14.192C11.2893 14.304 10.9693 14.36 10.6493 14.36ZM14.3661 14.12C14.2541 14.12 14.1661 14.056 14.1021 13.928C14.0381 13.8 14.0061 13.648 14.0061 13.472C14.0061 13.216 14.0381 12.936 14.1021 12.632C14.1821 12.312 14.2621 12.024 14.3421 11.768C14.4221 11.496 14.4781 11.312 14.5101 11.216C14.7341 10.624 15.0221 9.952 15.3741 9.2C15.7261 8.432 16.1421 7.688 16.6221 6.968C17.1181 6.232 17.6621 5.6 18.2541 5.072C18.8461 4.528 19.4861 4.176 20.1741 4.016C20.2541 4 20.3261 3.992 20.3901 3.992C20.4701 3.976 20.5421 3.968 20.6061 3.968C20.8621 3.968 21.0701 4.024 21.2301 4.136C21.3901 4.232 21.4941 4.36 21.5421 4.52C21.5421 4.536 21.5421 4.552 21.5421 4.568C21.5581 4.584 21.5661 4.608 21.5661 4.64C21.5661 4.72 21.5421 4.76 21.4941 4.76C21.4141 4.76 21.3661 4.704 21.3501 4.592C21.3341 4.512 21.2621 4.456 21.1341 4.424C21.0061 4.376 20.8621 4.352 20.7021 4.352C20.1741 4.352 19.6381 4.584 19.0941 5.048C18.5661 5.496 18.0461 6.072 17.5341 6.776C17.0381 7.464 16.5821 8.176 16.1661 8.912C15.7661 9.648 15.4381 10.304 15.1821 10.88C15.1661 10.912 15.1181 11.032 15.0381 11.24C14.9741 11.448 14.9021 11.696 14.8221 11.984C14.7421 12.272 14.6781 12.552 14.6301 12.824L15.2781 11.864C15.6461 11.32 16.0941 10.776 16.6221 10.232C17.1501 9.672 17.7261 9.216 18.3501 8.864C18.4141 8.832 18.4781 8.808 18.5421 8.792C18.6221 8.776 18.6941 8.768 18.7581 8.768C18.9021 8.768 18.9741 8.816 18.9741 8.912C18.9741 8.944 18.9341 9.024 18.8541 9.152C18.5181 9.6 18.2541 10.072 18.0621 10.568C17.8701 11.048 17.7501 11.576 17.7021 12.152C17.6861 12.504 17.7181 12.832 17.7981 13.136C17.8941 13.44 18.0941 13.592 18.3981 13.592C18.7341 13.592 19.0621 13.448 19.3821 13.16C19.7181 12.856 20.0221 12.512 20.2941 12.128C20.5821 11.728 20.8301 11.376 21.0381 11.072C21.0701 11.024 21.0941 11 21.1101 11C21.1581 11 21.1821 11.048 21.1821 11.144C21.1821 11.24 21.1421 11.352 21.0621 11.48C20.8061 11.864 20.5261 12.248 20.2221 12.632C19.9341 13.016 19.6221 13.336 19.2861 13.592C18.9501 13.848 18.5821 13.976 18.1821 13.976C17.7821 13.976 17.4941 13.824 17.3181 13.52C17.1421 13.216 17.0541 12.848 17.0541 12.416C17.0541 11.952 17.1261 11.456 17.2701 10.928C17.4301 10.4 17.6141 9.96 17.8221 9.608C17.4061 9.912 16.9741 10.296 16.5261 10.76C16.0781 11.208 15.6941 11.688 15.3741 12.2C15.2621 12.408 15.1021 12.672 14.8941 12.992C14.6861 13.296 14.5661 13.552 14.5341 13.76C14.4861 14 14.4301 14.12 14.3661 14.12ZM22.5634 14.192C21.9074 14.192 21.4274 14.048 21.1234 13.76C20.8194 13.456 20.6674 13.056 20.6674 12.56C20.6674 12.432 20.6754 12.304 20.6914 12.176C20.7234 12.032 20.7554 11.888 20.7874 11.744C20.8674 11.456 20.9954 11.12 21.1714 10.736C21.3634 10.352 21.5954 9.976 21.8674 9.608C22.1394 9.24 22.4354 8.936 22.7554 8.696C23.0754 8.456 23.4114 8.336 23.7634 8.336C24.0514 8.336 24.2674 8.44 24.4114 8.648C24.5714 8.856 24.6514 9.104 24.6514 9.392C24.6514 9.696 24.5554 10.008 24.3634 10.328C24.1874 10.632 23.9474 10.88 23.6434 11.072C23.2914 11.312 22.8914 11.432 22.4434 11.432C22.1554 11.432 21.8914 11.376 21.6514 11.264C21.4114 11.744 21.2914 12.216 21.2914 12.68C21.2914 13.016 21.3874 13.304 21.5794 13.544C21.7714 13.784 22.0914 13.904 22.5394 13.904C23.0834 13.904 23.5634 13.776 23.9794 13.52C24.3954 13.248 24.7794 12.896 25.1314 12.464C25.4994 12.032 25.8514 11.568 26.1874 11.072C26.2354 11.024 26.2674 11 26.2834 11C26.3314 11 26.3554 11.04 26.3554 11.12C26.3554 11.2 26.3314 11.28 26.2834 11.36C25.9954 11.808 25.6674 12.248 25.2994 12.68C24.9474 13.112 24.5474 13.472 24.0994 13.76C23.6514 14.048 23.1394 14.192 22.5634 14.192ZM22.2034 11.096C22.6194 11.096 23.0114 10.952 23.3794 10.664C23.5554 10.536 23.7074 10.384 23.8354 10.208C23.9634 10.032 24.0514 9.856 24.0994 9.68C24.1474 9.504 24.1714 9.352 24.1714 9.224C24.1714 8.856 24.0354 8.672 23.7634 8.672C23.5874 8.672 23.3874 8.776 23.1634 8.984C22.9714 9.16 22.7714 9.384 22.5634 9.656C22.3714 9.928 22.2034 10.192 22.0594 10.448C21.9154 10.688 21.8194 10.864 21.7714 10.976C21.8834 11.056 22.0274 11.096 22.2034 11.096ZM26.5917 14.264C26.2717 14.264 26.0157 14.136 25.8237 13.88C25.6477 13.624 25.5597 13.304 25.5597 12.92C25.5597 12.584 25.6397 12.224 25.7997 11.84C25.9597 11.44 26.1677 11.04 26.4237 10.64C26.6797 10.272 27.0477 9.912 27.5277 9.56C28.0077 9.208 28.4717 9.024 28.9197 9.008C29.0957 9.008 29.2557 9.04 29.3997 9.104C29.5597 9.152 29.6797 9.24 29.7597 9.368C29.8397 8.568 29.9837 7.728 30.1917 6.848C30.3997 5.952 30.6637 5.104 30.9837 4.304C31.5597 2.864 32.2957 1.744 33.1917 0.943999C33.6717 0.511999 34.1357 0.295999 34.5837 0.295999C34.8877 0.295999 35.1277 0.415999 35.3037 0.655999C35.4957 0.879999 35.5917 1.224 35.5917 1.688C35.5917 2.152 35.4637 2.752 35.2077 3.488C34.9677 4.208 34.5597 5.064 33.9837 6.056C33.8237 6.312 33.5517 6.712 33.1677 7.256C32.7997 7.8 32.3597 8.408 31.8477 9.08C31.3517 9.736 30.8397 10.384 30.3117 11.024C30.2957 11.728 30.3517 12.36 30.4797 12.92C30.6077 13.464 30.8717 13.736 31.2717 13.736C31.3197 13.736 31.3677 13.736 31.4157 13.736C31.4637 13.72 31.5117 13.704 31.5597 13.688C31.8957 13.576 32.2237 13.368 32.5437 13.064C32.8637 12.76 33.1597 12.424 33.4317 12.056C33.7037 11.688 33.9277 11.368 34.1037 11.096C34.1677 11.032 34.2077 11 34.2237 11C34.2717 11 34.2957 11.04 34.2957 11.12C34.2957 11.2 34.2717 11.28 34.2237 11.36C33.9037 11.904 33.4957 12.44 32.9997 12.968C32.5037 13.496 32.0317 13.848 31.5837 14.024C31.4077 14.088 31.2397 14.12 31.0797 14.12C30.6317 14.12 30.2877 13.888 30.0477 13.424C29.8237 12.96 29.6957 12.416 29.6637 11.792C29.1837 12.336 28.7277 12.824 28.2957 13.256C27.8637 13.672 27.5037 13.952 27.2157 14.096C26.9917 14.208 26.7837 14.264 26.5917 14.264ZM30.3357 10.448C30.8317 9.84 31.3037 9.232 31.7517 8.624C32.1997 8.016 32.5917 7.472 32.9277 6.992C33.2797 6.496 33.5277 6.128 33.6717 5.888C34.2317 4.928 34.6317 4.104 34.8717 3.416C35.1117 2.728 35.2317 2.176 35.2317 1.76C35.2317 1.104 35.0157 0.776 34.5837 0.776C34.2477 0.776 33.8797 0.976 33.4797 1.376C33.1917 1.664 32.8717 2.104 32.5197 2.696C32.1837 3.272 31.8797 3.912 31.6077 4.616C31.2557 5.512 30.9597 6.472 30.7197 7.496C30.6717 7.704 30.5997 8.088 30.5037 8.648C30.4237 9.192 30.3677 9.792 30.3357 10.448ZM26.4957 13.976C26.6557 13.976 26.8397 13.92 27.0477 13.808C27.3357 13.664 27.7117 13.36 28.1757 12.896C28.6397 12.416 29.1277 11.872 29.6397 11.264C29.6397 10.784 29.6637 10.272 29.7117 9.728C29.6477 9.664 29.5677 9.608 29.4717 9.56C29.3917 9.512 29.3197 9.48 29.2557 9.464C29.2077 9.448 29.1277 9.44 29.0157 9.44C28.7437 9.456 28.4557 9.592 28.1517 9.848C27.8477 10.088 27.5517 10.384 27.2637 10.736C26.9917 11.088 26.7517 11.448 26.5437 11.816C26.1917 12.456 26.0157 12.968 26.0157 13.352C26.0157 13.768 26.1757 13.976 26.4957 13.976ZM34.321 14.168C34.033 14.168 33.825 14.072 33.697 13.88C33.569 13.688 33.505 13.448 33.505 13.16C33.505 12.936 33.529 12.72 33.577 12.512C33.609 12.416 33.689 12.176 33.817 11.792C33.961 11.408 34.145 10.984 34.369 10.52C34.609 10.056 34.865 9.656 35.137 9.32C35.409 8.968 35.689 8.792 35.977 8.792C36.105 8.792 36.169 8.824 36.169 8.888C36.169 8.952 36.137 9.016 36.073 9.08C35.753 9.464 35.449 9.92 35.161 10.448C34.889 10.96 34.657 11.448 34.465 11.912C34.289 12.376 34.185 12.728 34.153 12.968C34.105 13.48 34.257 13.736 34.609 13.736C34.913 13.736 35.233 13.6 35.569 13.328C35.921 13.04 36.257 12.68 36.577 12.248C36.913 11.8 37.201 11.336 37.441 10.856C37.697 10.36 37.977 9.896 38.281 9.464C38.585 9.016 38.897 8.792 39.217 8.792C39.345 8.792 39.409 8.824 39.409 8.888C39.409 8.952 39.377 9.016 39.313 9.08C38.993 9.464 38.689 9.92 38.401 10.448C38.129 10.96 37.897 11.448 37.705 11.912C37.529 12.376 37.425 12.728 37.393 12.968C37.345 13.48 37.497 13.736 37.849 13.736C38.201 13.736 38.561 13.576 38.929 13.256C39.297 12.936 39.641 12.568 39.961 12.152C40.281 11.736 40.537 11.384 40.729 11.096C40.793 11.032 40.833 11 40.849 11C40.897 11 40.921 11.04 40.921 11.12C40.921 11.184 40.897 11.256 40.849 11.336C40.593 11.752 40.281 12.184 39.913 12.632C39.561 13.064 39.185 13.432 38.785 13.736C38.385 14.024 37.977 14.168 37.561 14.168C37.273 14.168 37.065 14.072 36.937 13.88C36.809 13.688 36.745 13.448 36.745 13.16C36.745 12.936 36.769 12.72 36.817 12.512L36.865 12.296C36.561 12.696 36.241 13.056 35.905 13.376C35.585 13.696 35.265 13.912 34.945 14.024C34.705 14.12 34.497 14.168 34.321 14.168ZM42.1304 14.192C41.7464 14.192 41.4424 14.072 41.2184 13.832C40.9944 13.576 40.8424 13.256 40.7624 12.872C40.6824 12.488 40.6504 12.096 40.6664 11.696C40.7144 11.008 40.8664 10.224 41.1224 9.344C41.3784 8.464 41.7064 7.568 42.1064 6.656C42.5224 5.728 42.9784 4.856 43.4744 4.04C43.9864 3.224 44.5224 2.52 45.0824 1.928C45.6424 1.336 46.1944 0.927999 46.7384 0.704C46.9144 0.624 47.0664 0.576 47.1944 0.56C47.3224 0.527999 47.4424 0.511999 47.5544 0.511999C47.9384 0.511999 48.1944 0.695999 48.3224 1.064C48.3864 1.192 48.4184 1.352 48.4184 1.544C48.4184 1.928 48.2904 2.376 48.0344 2.888C47.8104 3.352 47.4904 3.88 47.0744 4.472C46.6584 5.048 46.1864 5.64 45.6584 6.248C45.1464 6.84 44.6264 7.416 44.0984 7.976C43.5704 8.52 43.0824 9.008 42.6344 9.44C42.1864 9.872 41.8264 10.2 41.5544 10.424C41.4584 10.952 41.4104 11.448 41.4104 11.912C41.4104 12.408 41.4904 12.84 41.6504 13.208C41.8264 13.576 42.1144 13.76 42.5144 13.76C42.8984 13.76 43.2744 13.608 43.6424 13.304C44.0104 13 44.3464 12.64 44.6504 12.224C44.9704 11.808 45.2344 11.44 45.4424 11.12C45.5064 11.056 45.5464 11.024 45.5624 11.024C45.6104 11.024 45.6344 11.064 45.6344 11.144C45.6344 11.208 45.6104 11.28 45.5624 11.36C45.2744 11.808 44.9544 12.248 44.6024 12.68C44.2504 13.112 43.8664 13.472 43.4504 13.76C43.0344 14.048 42.5944 14.192 42.1304 14.192ZM41.6504 10.016C42.0024 9.696 42.4584 9.24 43.0184 8.648C43.5944 8.056 44.1864 7.4 44.7944 6.68C45.4184 5.96 45.9864 5.256 46.4984 4.568C47.0104 3.864 47.3864 3.24 47.6264 2.696C47.7224 2.504 47.8024 2.296 47.8664 2.072C47.9304 1.848 47.9624 1.64 47.9624 1.448C47.9624 1.096 47.8344 0.92 47.5784 0.92C47.2264 0.92 46.7544 1.2 46.1624 1.76C45.5064 2.368 44.8744 3.144 44.2664 4.088C43.6584 5.016 43.1224 6 42.6584 7.04C42.2104 8.064 41.8744 9.056 41.6504 10.016ZM47.0088 14.192C46.3528 14.192 45.8728 14.048 45.5688 13.76C45.2648 13.456 45.1128 13.056 45.1128 12.56C45.1128 12.432 45.1208 12.304 45.1368 12.176C45.1688 12.032 45.2008 11.888 45.2328 11.744C45.3128 11.456 45.4408 11.12 45.6168 10.736C45.8088 10.352 46.0408 9.976 46.3128 9.608C46.5848 9.24 46.8808 8.936 47.2008 8.696C47.5208 8.456 47.8568 8.336 48.2088 8.336C48.4968 8.336 48.7128 8.44 48.8568 8.648C49.0168 8.856 49.0968 9.104 49.0968 9.392C49.0968 9.696 49.0008 10.008 48.8088 10.328C48.6328 10.632 48.3928 10.88 48.0888 11.072C47.7368 11.312 47.3368 11.432 46.8888 11.432C46.6008 11.432 46.3368 11.376 46.0968 11.264C45.8568 11.744 45.7368 12.216 45.7368 12.68C45.7368 13.016 45.8328 13.304 46.0248 13.544C46.2168 13.784 46.5368 13.904 46.9848 13.904C47.5288 13.904 48.0088 13.776 48.4248 13.52C48.8408 13.248 49.2248 12.896 49.5768 12.464C49.9448 12.032 50.2968 11.568 50.6328 11.072C50.6808 11.024 50.7128 11 50.7288 11C50.7768 11 50.8008 11.04 50.8008 11.12C50.8008 11.2 50.7768 11.28 50.7288 11.36C50.4408 11.808 50.1128 12.248 49.7448 12.68C49.3928 13.112 48.9928 13.472 48.5448 13.76C48.0968 14.048 47.5848 14.192 47.0088 14.192ZM46.6488 11.096C47.0648 11.096 47.4568 10.952 47.8248 10.664C48.0008 10.536 48.1528 10.384 48.2808 10.208C48.4088 10.032 48.4968 9.856 48.5448 9.68C48.5928 9.504 48.6168 9.352 48.6168 9.224C48.6168 8.856 48.4808 8.672 48.2088 8.672C48.0328 8.672 47.8328 8.776 47.6088 8.984C47.4168 9.16 47.2168 9.384 47.0088 9.656C46.8168 9.928 46.6488 10.192 46.5048 10.448C46.3608 10.688 46.2648 10.864 46.2168 10.976C46.3288 11.056 46.4728 11.096 46.6488 11.096Z" fill="#6A6060"/>
</svg>
