<svg width="163" height="49" viewBox="0 0 163 49" fill="none" xmlns="http://www.w3.org/2000/svg">
<path d="M8.63719 15.344C7.72519 15.344 6.98919 15.04 6.42919 14.432C5.88519 13.824 5.61319 13.032 5.61319 12.056C5.61319 11.08 5.94119 10 6.59719 8.816C7.25319 7.616 8.33319 6.432 9.83719 5.264C10.5732 4.704 11.3252 4.24 12.0932 3.872C12.8772 3.504 13.5412 3.2 14.0852 2.96C13.7332 2.832 13.3812 2.696 13.0292 2.552C12.6932 2.408 12.3812 2.28 12.0932 2.168C11.1652 1.784 10.2212 1.432 9.26119 1.112C8.30119 0.791999 7.32519 0.631999 6.33319 0.631999C6.07719 0.631999 5.81319 0.647999 5.54119 0.68C5.28519 0.711999 5.02119 0.759999 4.74919 0.823999C3.70919 1.08 2.90919 1.56 2.34919 2.264C1.80519 2.952 1.53319 3.696 1.53319 4.496C1.53319 5.28 1.80519 6.024 2.34919 6.728C2.89319 7.432 3.72519 7.952 4.84519 8.288C4.89319 8.304 4.91719 8.344 4.91719 8.408C4.91719 8.52 4.86919 8.568 4.77319 8.552C3.49319 8.168 2.53319 7.56 1.89319 6.728C1.26919 5.88 0.957188 5.016 0.957188 4.136C0.957188 3.24 1.26119 2.416 1.86919 1.664C2.49319 0.895999 3.41319 0.399999 4.62919 0.175999C4.85319 0.127999 5.07719 0.0959988 5.30119 0.079999C5.54119 0.0639992 5.77319 0.0559993 5.99719 0.0559993C7.03719 0.0559993 8.05319 0.239999 9.04519 0.607999C10.0372 0.96 11.0372 1.344 12.0452 1.76C12.4612 1.936 12.8692 2.112 13.2692 2.288C13.6692 2.448 14.0692 2.608 14.4692 2.768C14.5492 2.752 14.6132 2.744 14.6612 2.744C14.7252 2.744 14.7812 2.744 14.8292 2.744C15.1172 2.744 15.3332 2.792 15.4772 2.888C15.6372 2.984 15.7172 3.072 15.7172 3.152C15.7172 3.264 15.6052 3.32 15.3812 3.32C15.2692 3.32 15.1412 3.304 14.9972 3.272C14.8532 3.24 14.6852 3.184 14.4932 3.104C13.9172 3.408 13.2212 3.768 12.4052 4.184C11.6052 4.6 10.8212 5.12 10.0532 5.744C8.75719 6.8 7.81319 7.888 7.22119 9.008C6.64519 10.112 6.35719 11.112 6.35719 12.008C6.35719 12.84 6.58119 13.52 7.02919 14.048C7.47719 14.592 8.09319 14.864 8.87719 14.864C9.48519 14.864 10.1492 14.688 10.8692 14.336C11.9092 13.824 12.8132 13.112 13.5812 12.2C14.3652 11.272 15.2212 10.128 16.1492 8.768C16.1332 8.336 16.1652 7.944 16.2452 7.592C16.3252 7.24 16.4452 6.96 16.6052 6.752C16.6852 6.656 16.7892 6.576 16.9172 6.512C17.0612 6.432 17.1732 6.424 17.2532 6.488C17.3652 6.584 17.4212 6.704 17.4212 6.848C17.4212 7.088 17.3332 7.368 17.1572 7.688C16.9812 8.008 16.8212 8.28 16.6772 8.504C16.6452 8.664 16.6212 8.832 16.6052 9.008C16.5892 9.184 16.5812 9.36 16.5812 9.536C16.5812 10.112 16.6532 10.696 16.7972 11.288C16.9572 11.864 17.1732 12.4 17.4452 12.896C17.7332 13.392 18.0692 13.792 18.4532 14.096C18.8372 14.4 19.2612 14.552 19.7252 14.552C20.1252 14.552 20.5412 14.424 20.9732 14.168C21.4212 13.928 21.8772 13.52 22.3412 12.944C22.8532 12.336 23.3012 11.616 23.6852 10.784C24.0692 9.936 24.3652 9.096 24.5732 8.264C24.8132 7.304 24.9332 6.408 24.9332 5.576C24.9332 4.456 24.7412 3.576 24.3572 2.936C24.1332 2.888 23.9172 2.8 23.7092 2.672C23.5172 2.544 23.3572 2.376 23.2292 2.168C23.2132 2.152 23.2052 2.12 23.2052 2.072C23.2052 1.992 23.2292 1.936 23.2772 1.904C23.3412 1.856 23.4052 1.848 23.4692 1.88C23.9012 1.992 24.2612 2.208 24.5492 2.528C24.7252 2.576 24.8932 2.608 25.0532 2.624C25.2292 2.64 25.3972 2.648 25.5572 2.648C25.7012 2.648 25.8372 2.64 25.9652 2.624C26.1092 2.608 26.2612 2.6 26.4212 2.6H26.4452C26.5412 2.6 26.5892 2.632 26.5892 2.696C26.5892 2.776 26.5332 2.824 26.4212 2.84C26.1812 2.904 25.9252 2.952 25.6532 2.984C25.3972 3.016 25.1412 3.024 24.8852 3.008C25.1252 3.424 25.3012 3.896 25.4132 4.424C25.5252 4.952 25.5812 5.504 25.5812 6.08C25.5812 6.8 25.4932 7.552 25.3172 8.336C25.1092 9.28 24.7732 10.2 24.3092 11.096C23.8612 11.976 23.3252 12.728 22.7012 13.352C22.1572 13.896 21.6132 14.288 21.0692 14.528C20.5412 14.784 20.0372 14.912 19.5572 14.912C18.8692 14.912 18.2452 14.68 17.6852 14.216C17.1412 13.768 16.7172 13.152 16.4132 12.368C16.1092 11.568 15.9572 10.672 15.9572 9.68C15.4932 10.32 15.0372 10.952 14.5892 11.576C14.1572 12.184 13.6452 12.76 13.0532 13.304C12.4772 13.848 11.7412 14.336 10.8452 14.768C10.0612 15.152 9.32519 15.344 8.63719 15.344ZM28.0088 14.192C27.3528 14.192 26.8728 14.048 26.5688 13.76C26.2648 13.456 26.1128 13.056 26.1128 12.56C26.1128 12.432 26.1208 12.304 26.1368 12.176C26.1688 12.032 26.2008 11.888 26.2328 11.744C26.3128 11.456 26.4408 11.12 26.6168 10.736C26.8088 10.352 27.0408 9.976 27.3128 9.608C27.5848 9.24 27.8808 8.936 28.2008 8.696C28.5208 8.456 28.8568 8.336 29.2088 8.336C29.4968 8.336 29.7128 8.44 29.8568 8.648C30.0168 8.856 30.0968 9.104 30.0968 9.392C30.0968 9.696 30.0008 10.008 29.8088 10.328C29.6328 10.632 29.3928 10.88 29.0888 11.072C28.7368 11.312 28.3368 11.432 27.8888 11.432C27.6008 11.432 27.3368 11.376 27.0968 11.264C26.8568 11.744 26.7368 12.216 26.7368 12.68C26.7368 13.016 26.8328 13.304 27.0248 13.544C27.2168 13.784 27.5368 13.904 27.9848 13.904C28.5288 13.904 29.0088 13.776 29.4248 13.52C29.8408 13.248 30.2248 12.896 30.5768 12.464C30.9448 12.032 31.2968 11.568 31.6328 11.072C31.6808 11.024 31.7128 11 31.7288 11C31.7768 11 31.8008 11.04 31.8008 11.12C31.8008 11.2 31.7768 11.28 31.7288 11.36C31.4408 11.808 31.1128 12.248 30.7448 12.68C30.3928 13.112 29.9928 13.472 29.5448 13.76C29.0968 14.048 28.5848 14.192 28.0088 14.192ZM27.6488 11.096C28.0648 11.096 28.4568 10.952 28.8248 10.664C29.0008 10.536 29.1528 10.384 29.2808 10.208C29.4088 10.032 29.4968 9.856 29.5448 9.68C29.5928 9.504 29.6168 9.352 29.6168 9.224C29.6168 8.856 29.4808 8.672 29.2088 8.672C29.0328 8.672 28.8328 8.776 28.6088 8.984C28.4168 9.16 28.2168 9.384 28.0088 9.656C27.8168 9.928 27.6488 10.192 27.5048 10.448C27.3608 10.688 27.2648 10.864 27.2168 10.976C27.3288 11.056 27.4728 11.096 27.6488 11.096ZM36.6017 14.168C36.3137 14.168 36.1057 14.072 35.9777 13.88C35.8497 13.688 35.7857 13.448 35.7857 13.16C35.7857 12.936 35.8097 12.72 35.8577 12.512C35.8897 12.416 35.9697 12.176 36.0977 11.792C36.2417 11.408 36.4257 10.984 36.6497 10.52C36.8897 10.056 37.1457 9.656 37.4177 9.32C37.6897 8.968 37.9697 8.792 38.2577 8.792C38.3857 8.792 38.4497 8.824 38.4497 8.888C38.4497 8.952 38.4177 9.016 38.3537 9.08C38.0337 9.464 37.7297 9.92 37.4417 10.448C37.1697 10.96 36.9377 11.448 36.7457 11.912C36.5697 12.376 36.4657 12.728 36.4337 12.968C36.3857 13.48 36.5377 13.736 36.8897 13.736C37.2897 13.736 37.7057 13.512 38.1377 13.064C38.5857 12.616 38.9857 12.096 39.3377 11.504C39.4497 11.328 39.5857 11.104 39.7457 10.832C39.9057 10.544 40.0817 10.288 40.2737 10.064C40.4817 9.84 40.6817 9.728 40.8737 9.728C41.0017 9.728 41.0657 9.76 41.0657 9.824C41.0657 9.888 41.0337 9.952 40.9697 10.016C40.7457 10.288 40.5297 10.64 40.3217 11.072C40.1137 11.504 39.9457 11.92 39.8177 12.32C39.7057 12.704 39.6497 12.992 39.6497 13.184C39.6497 13.648 39.8497 13.88 40.2497 13.88C40.6817 13.88 41.1217 13.704 41.5697 13.352C42.0177 13 42.4257 12.56 42.7937 12.032C43.1777 11.488 43.4817 10.936 43.7057 10.376C43.9457 9.816 44.0657 9.336 44.0657 8.936C44.0657 8.472 43.9137 8.208 43.6097 8.144C43.5617 8.144 43.5377 8.128 43.5377 8.096C43.5377 8.016 43.6257 7.976 43.8017 7.976C44.0737 7.976 44.2737 8.088 44.4017 8.312C44.5297 8.536 44.5937 8.808 44.5937 9.128C44.5937 9.752 44.4097 10.4 44.0417 11.072C43.6897 11.728 43.2337 12.328 42.6737 12.872C42.1137 13.4 41.5217 13.776 40.8977 14C40.6097 14.096 40.3457 14.144 40.1057 14.144C39.7857 14.144 39.5217 14.056 39.3137 13.88C39.1217 13.704 39.0257 13.44 39.0257 13.088C39.0257 12.912 39.0497 12.72 39.0977 12.512C39.0977 12.48 39.0977 12.448 39.0977 12.416C39.1137 12.384 39.1297 12.344 39.1457 12.296C38.8417 12.696 38.5217 13.056 38.1857 13.376C37.8657 13.696 37.5457 13.912 37.2257 14.024C36.9857 14.12 36.7777 14.168 36.6017 14.168ZM47.6976 7.088C47.4736 7.088 47.3376 6.952 47.2896 6.68C47.2736 6.552 47.3536 6.424 47.5296 6.296C47.7056 6.168 47.8496 6.08 47.9616 6.032C48.0416 6 48.1056 5.976 48.1536 5.96C48.2016 5.944 48.2416 5.936 48.2736 5.936C48.3856 5.936 48.4416 5.992 48.4416 6.104C48.4416 6.232 48.3936 6.384 48.2976 6.56C48.2176 6.736 48.1776 6.824 48.1776 6.824C48.1616 6.888 48.1056 6.952 48.0096 7.016C47.9136 7.064 47.8096 7.088 47.6976 7.088ZM45.2976 14.168C45.0096 14.168 44.8016 14.072 44.6736 13.88C44.5456 13.688 44.4816 13.448 44.4816 13.16C44.4816 12.936 44.5056 12.72 44.5536 12.512C44.5856 12.416 44.6656 12.176 44.7936 11.792C44.9376 11.408 45.1216 10.984 45.3456 10.52C45.5856 10.056 45.8416 9.656 46.1136 9.32C46.3856 8.968 46.6656 8.792 46.9536 8.792C47.0816 8.792 47.1456 8.824 47.1456 8.888C47.1456 8.952 47.1136 9.016 47.0496 9.08C46.7296 9.464 46.4256 9.92 46.1376 10.448C45.8656 10.96 45.6336 11.448 45.4416 11.912C45.2656 12.376 45.1616 12.728 45.1296 12.968C45.0816 13.48 45.2336 13.736 45.5856 13.736C45.6336 13.736 45.6816 13.736 45.7296 13.736C45.7776 13.72 45.8336 13.704 45.8976 13.688C46.2336 13.576 46.5616 13.368 46.8816 13.064C47.2016 12.76 47.4976 12.424 47.7696 12.056C48.0416 11.688 48.2656 11.368 48.4416 11.096C48.5056 11.032 48.5456 11 48.5616 11C48.6096 11 48.6336 11.04 48.6336 11.12C48.6336 11.2 48.6096 11.28 48.5616 11.36C48.2096 11.904 47.7936 12.44 47.3136 12.968C46.8496 13.496 46.3856 13.848 45.9216 14.024C45.6816 14.12 45.4736 14.168 45.2976 14.168ZM49.8491 14.192C49.4651 14.192 49.1611 14.072 48.9371 13.832C48.7131 13.576 48.5611 13.256 48.4811 12.872C48.4011 12.488 48.3691 12.096 48.3851 11.696C48.4331 11.008 48.5851 10.224 48.8411 9.344C49.0971 8.464 49.4251 7.568 49.8251 6.656C50.2411 5.728 50.6971 4.856 51.1931 4.04C51.7051 3.224 52.2411 2.52 52.8011 1.928C53.3611 1.336 53.9131 0.927999 54.4571 0.704C54.6331 0.624 54.7851 0.576 54.9131 0.56C55.0411 0.527999 55.1611 0.511999 55.2731 0.511999C55.6571 0.511999 55.9131 0.695999 56.0411 1.064C56.1051 1.192 56.1371 1.352 56.1371 1.544C56.1371 1.928 56.0091 2.376 55.7531 2.888C55.5291 3.352 55.2091 3.88 54.7931 4.472C54.3771 5.048 53.9051 5.64 53.3771 6.248C52.8651 6.84 52.3451 7.416 51.8171 7.976C51.2891 8.52 50.8011 9.008 50.3531 9.44C49.9051 9.872 49.5451 10.2 49.2731 10.424C49.1771 10.952 49.1291 11.448 49.1291 11.912C49.1291 12.408 49.2091 12.84 49.3691 13.208C49.5451 13.576 49.8331 13.76 50.2331 13.76C50.6171 13.76 50.9931 13.608 51.3611 13.304C51.7291 13 52.0651 12.64 52.3691 12.224C52.6891 11.808 52.9531 11.44 53.1611 11.12C53.2251 11.056 53.2651 11.024 53.2811 11.024C53.3291 11.024 53.3531 11.064 53.3531 11.144C53.3531 11.208 53.3291 11.28 53.2811 11.36C52.9931 11.808 52.6731 12.248 52.3211 12.68C51.9691 13.112 51.5851 13.472 51.1691 13.76C50.7531 14.048 50.3131 14.192 49.8491 14.192ZM49.3691 10.016C49.7211 9.696 50.1771 9.24 50.7371 8.648C51.3131 8.056 51.9051 7.4 52.5131 6.68C53.1371 5.96 53.7051 5.256 54.2171 4.568C54.7291 3.864 55.1051 3.24 55.3451 2.696C55.4411 2.504 55.5211 2.296 55.5851 2.072C55.6491 1.848 55.6811 1.64 55.6811 1.448C55.6811 1.096 55.5531 0.92 55.2971 0.92C54.9451 0.92 54.4731 1.2 53.8811 1.76C53.2251 2.368 52.5931 3.144 51.9851 4.088C51.3771 5.016 50.8411 6 50.3771 7.04C49.9291 8.064 49.5931 9.056 49.3691 10.016ZM54.5835 14.192C54.1995 14.192 53.8955 14.072 53.6715 13.832C53.4475 13.576 53.2955 13.256 53.2155 12.872C53.1355 12.488 53.1035 12.096 53.1195 11.696C53.1675 11.008 53.3195 10.224 53.5755 9.344C53.8315 8.464 54.1595 7.568 54.5595 6.656C54.9755 5.728 55.4315 4.856 55.9275 4.04C56.4395 3.224 56.9755 2.52 57.5355 1.928C58.0955 1.336 58.6475 0.927999 59.1915 0.704C59.3675 0.624 59.5195 0.576 59.6475 0.56C59.7755 0.527999 59.8955 0.511999 60.0075 0.511999C60.3915 0.511999 60.6475 0.695999 60.7755 1.064C60.8395 1.192 60.8715 1.352 60.8715 1.544C60.8715 1.928 60.7435 2.376 60.4875 2.888C60.2635 3.352 59.9435 3.88 59.5275 4.472C59.1115 5.048 58.6395 5.64 58.1115 6.248C57.5995 6.84 57.0795 7.416 56.5515 7.976C56.0235 8.52 55.5355 9.008 55.0875 9.44C54.6395 9.872 54.2795 10.2 54.0075 10.424C53.9115 10.952 53.8635 11.448 53.8635 11.912C53.8635 12.408 53.9435 12.84 54.1035 13.208C54.2795 13.576 54.5675 13.76 54.9675 13.76C55.3515 13.76 55.7275 13.608 56.0955 13.304C56.4635 13 56.7995 12.64 57.1035 12.224C57.4235 11.808 57.6875 11.44 57.8955 11.12C57.9595 11.056 57.9995 11.024 58.0155 11.024C58.0635 11.024 58.0875 11.064 58.0875 11.144C58.0875 11.208 58.0635 11.28 58.0155 11.36C57.7275 11.808 57.4075 12.248 57.0555 12.68C56.7035 13.112 56.3195 13.472 55.9035 13.76C55.4875 14.048 55.0475 14.192 54.5835 14.192ZM54.1035 10.016C54.4555 9.696 54.9115 9.24 55.4715 8.648C56.0475 8.056 56.6395 7.4 57.2475 6.68C57.8715 5.96 58.4395 5.256 58.9515 4.568C59.4635 3.864 59.8395 3.24 60.0795 2.696C60.1755 2.504 60.2555 2.296 60.3195 2.072C60.3835 1.848 60.4155 1.64 60.4155 1.448C60.4155 1.096 60.2875 0.92 60.0315 0.92C59.6795 0.92 59.2075 1.2 58.6155 1.76C57.9595 2.368 57.3275 3.144 56.7195 4.088C56.1115 5.016 55.5755 6 55.1115 7.04C54.6635 8.064 54.3275 9.056 54.1035 10.016ZM63.6426 14.288C63.3546 14.288 63.1306 14.232 62.9706 14.12C62.8266 14.008 62.7146 13.872 62.6346 13.712C62.5706 13.552 62.5226 13.392 62.4906 13.232C62.4586 13.056 62.4426 12.88 62.4426 12.704C62.4426 12.256 62.5146 11.792 62.6586 11.312C62.8026 10.816 62.9706 10.344 63.1626 9.896C63.3706 9.448 63.5546 9.064 63.7146 8.744C64.0826 8.056 64.5066 7.376 64.9866 6.704C65.4666 6.032 65.9946 5.456 66.5706 4.976C67.1626 4.48 67.7706 4.16 68.3946 4.016C68.4746 4 68.5466 3.992 68.6106 3.992C68.6746 3.976 68.7386 3.968 68.8026 3.968C69.0746 3.968 69.2906 4.024 69.4506 4.136C69.6106 4.232 69.7146 4.36 69.7626 4.52C69.7626 4.536 69.7626 4.552 69.7626 4.568C69.7786 4.584 69.7866 4.6 69.7866 4.616C69.7866 4.728 69.7546 4.784 69.6906 4.784C69.6426 4.784 69.6026 4.72 69.5706 4.592C69.5546 4.512 69.4826 4.456 69.3546 4.424C69.2266 4.376 69.0826 4.352 68.9226 4.352C68.3946 4.352 67.8586 4.576 67.3146 5.024C66.7866 5.472 66.2746 6.04 65.7786 6.728C65.2826 7.4 64.8346 8.096 64.4346 8.816C64.3866 8.912 64.2826 9.112 64.1226 9.416C63.9786 9.72 63.8186 10.064 63.6426 10.448C63.4826 10.832 63.3466 11.192 63.2346 11.528C63.1706 11.672 63.1706 11.744 63.2346 11.744C63.2666 11.744 63.3066 11.688 63.3546 11.576C63.6426 10.904 63.9786 10.352 64.3626 9.92C64.7626 9.488 65.1706 9.128 65.5866 8.84C66.0026 8.584 66.4186 8.456 66.8346 8.456C67.1386 8.456 67.3946 8.544 67.6026 8.72C67.8106 8.88 67.9146 9.152 67.9146 9.536C67.9146 9.824 67.8586 10.136 67.7466 10.472C67.6346 10.792 67.4506 11.16 67.1946 11.576C66.9386 11.992 66.6266 12.4 66.2586 12.8C65.9066 13.184 65.5306 13.512 65.1306 13.784C64.7306 14.056 64.3386 14.216 63.9546 14.264C63.8906 14.28 63.8346 14.288 63.7866 14.288C63.7386 14.288 63.6906 14.288 63.6426 14.288ZM63.7866 14.024C64.1546 14.024 64.5786 13.824 65.0586 13.424C65.5226 13.024 65.9386 12.552 66.3066 12.008C66.6906 11.448 66.9226 10.936 67.0026 10.472C67.0506 10.232 67.0746 10.024 67.0746 9.848C67.0746 9.48 67.0026 9.24 66.8586 9.128C66.7146 9.016 66.5466 8.96 66.3546 8.96C66.0026 8.96 65.6506 9.104 65.2986 9.392C64.9466 9.68 64.6186 10.04 64.3146 10.472C64.0266 10.888 63.7866 11.312 63.5946 11.744C63.4026 12.176 63.2826 12.536 63.2346 12.824C63.2186 12.904 63.2026 12.984 63.1866 13.064C63.1866 13.128 63.1866 13.192 63.1866 13.256C63.1866 13.768 63.3866 14.024 63.7866 14.024ZM70.2431 14.192C69.5871 14.192 69.1071 14.048 68.8031 13.76C68.4991 13.456 68.3471 13.056 68.3471 12.56C68.3471 12.432 68.3551 12.304 68.3711 12.176C68.4031 12.032 68.4351 11.888 68.4671 11.744C68.5471 11.456 68.6751 11.12 68.8511 10.736C69.0431 10.352 69.2751 9.976 69.5471 9.608C69.8191 9.24 70.1151 8.936 70.4351 8.696C70.7551 8.456 71.0911 8.336 71.4431 8.336C71.7311 8.336 71.9471 8.44 72.0911 8.648C72.2511 8.856 72.3311 9.104 72.3311 9.392C72.3311 9.696 72.2351 10.008 72.0431 10.328C71.8671 10.632 71.6271 10.88 71.3231 11.072C70.9711 11.312 70.5711 11.432 70.1231 11.432C69.8351 11.432 69.5711 11.376 69.3311 11.264C69.0911 11.744 68.9711 12.216 68.9711 12.68C68.9711 13.016 69.0671 13.304 69.2591 13.544C69.4511 13.784 69.7711 13.904 70.2191 13.904C70.7631 13.904 71.2431 13.776 71.6591 13.52C72.0751 13.248 72.4591 12.896 72.8111 12.464C73.1791 12.032 73.5311 11.568 73.8671 11.072C73.9151 11.024 73.9471 11 73.9631 11C74.0111 11 74.0351 11.04 74.0351 11.12C74.0351 11.2 74.0111 11.28 73.9631 11.36C73.6751 11.808 73.3471 12.248 72.9791 12.68C72.6271 13.112 72.2271 13.472 71.7791 13.76C71.3311 14.048 70.8191 14.192 70.2431 14.192ZM69.8831 11.096C70.2991 11.096 70.6911 10.952 71.0591 10.664C71.2351 10.536 71.3871 10.384 71.5151 10.208C71.6431 10.032 71.7311 9.856 71.7791 9.68C71.8271 9.504 71.8511 9.352 71.8511 9.224C71.8511 8.856 71.7151 8.672 71.4431 8.672C71.2671 8.672 71.0671 8.776 70.8431 8.984C70.6511 9.16 70.4511 9.384 70.2431 9.656C70.0511 9.928 69.8831 10.192 69.7391 10.448C69.5951 10.688 69.4991 10.864 69.4511 10.976C69.5631 11.056 69.7071 11.096 69.8831 11.096ZM77.7561 20.792C77.3081 20.792 76.9881 20.64 76.7961 20.336C76.7001 20.16 76.6521 19.976 76.6521 19.784C76.6521 19.576 76.6921 19.36 76.7721 19.136C76.8521 18.928 76.9561 18.712 77.0841 18.488C77.3081 18.12 77.5721 17.76 77.8761 17.408C78.1801 17.056 78.4761 16.736 78.7641 16.448C79.0681 16.16 79.3161 15.936 79.5081 15.776C79.8441 15.504 80.2361 15.184 80.6841 14.816C81.1481 14.448 81.6201 14.136 82.1001 13.88C82.1321 13.864 82.1641 13.856 82.1961 13.856C82.2441 13.856 82.2681 13.88 82.2681 13.928C82.2681 14.024 82.2281 14.088 82.1481 14.12C81.9401 14.232 81.6761 14.4 81.3561 14.624C81.0361 14.864 80.7241 15.104 80.4201 15.344C80.1161 15.6 79.8521 15.824 79.6281 16.016C79.4681 16.16 79.2521 16.376 78.9801 16.664C78.7081 16.952 78.4361 17.272 78.1641 17.624C77.8761 17.992 77.6361 18.36 77.4441 18.728C77.3801 18.856 77.3081 19.024 77.2281 19.232C77.1481 19.456 77.1081 19.664 77.1081 19.856C77.1081 20.016 77.1561 20.144 77.2521 20.24C77.3321 20.352 77.4761 20.408 77.6841 20.408C78.0201 20.408 78.3561 20.288 78.6921 20.048C79.0441 19.824 79.3721 19.544 79.6761 19.208C79.9961 18.872 80.2841 18.528 80.5401 18.176C80.7961 17.84 80.9961 17.544 81.1401 17.288C81.7161 16.344 82.1641 15.296 82.4841 14.144C82.8201 13.008 82.9481 11.944 82.8681 10.952C82.8521 10.84 82.8361 10.736 82.8201 10.64C82.8041 10.528 82.7801 10.416 82.7481 10.304C82.7161 10.352 82.6841 10.4 82.6521 10.448C82.6201 10.496 82.5801 10.552 82.5321 10.616C82.4201 10.856 82.2681 11.128 82.0761 11.432C81.8841 11.72 81.7001 11.984 81.5241 12.224C81.3641 12.464 81.2521 12.624 81.1881 12.704C80.8041 13.168 80.4441 13.504 80.1081 13.712C79.7881 13.92 79.5081 14.024 79.2681 14.024C78.9481 14.024 78.7001 13.888 78.5241 13.616C78.3481 13.328 78.2601 12.984 78.2601 12.584C78.2601 11.848 78.5401 11.032 79.1001 10.136C79.3721 9.72 79.7481 9.336 80.2281 8.984C80.7081 8.616 81.1801 8.432 81.6441 8.432C82.0281 8.432 82.3561 8.592 82.6281 8.912C82.6761 8.976 82.6841 9.056 82.6521 9.152C82.6361 9.232 82.5961 9.24 82.5321 9.176C82.4681 9.08 82.3641 9.016 82.2201 8.984C82.0921 8.952 81.9641 8.936 81.8361 8.936C81.4361 8.936 81.0681 9.08 80.7321 9.368C80.3961 9.64 80.1001 9.968 79.8441 10.352C79.6041 10.72 79.4041 11.064 79.2441 11.384C78.8921 12.088 78.7161 12.648 78.7161 13.064C78.7161 13.496 78.8761 13.712 79.1961 13.712C79.4041 13.712 79.6521 13.616 79.9401 13.424C80.2441 13.216 80.5721 12.888 80.9241 12.44C81.0041 12.344 81.1401 12.168 81.3321 11.912C81.5241 11.64 81.7321 11.32 81.9561 10.952C82.1801 10.584 82.3721 10.224 82.5321 9.872C82.5321 9.856 82.5321 9.848 82.5321 9.848C82.5481 9.848 82.5561 9.84 82.5561 9.824C82.5401 9.808 82.5161 9.768 82.4841 9.704V9.68C82.4841 9.616 82.5561 9.584 82.7001 9.584C82.8281 9.584 82.9241 9.616 82.9881 9.68C83.1801 9.84 83.3161 10.088 83.3961 10.424C83.4921 10.744 83.5401 11.112 83.5401 11.528C83.5401 12.072 83.4761 12.664 83.3481 13.304C83.2201 13.928 83.0521 14.536 82.8441 15.128C82.6521 15.72 82.4281 16.248 82.1721 16.712C81.8841 17.288 81.5401 17.84 81.1401 18.368C80.7561 18.912 80.3401 19.384 79.8921 19.784C79.4601 20.184 79.0281 20.464 78.5961 20.624C78.3081 20.736 78.0281 20.792 77.7561 20.792ZM86.1069 14.192C85.7229 14.192 85.4189 14.072 85.1949 13.832C84.9709 13.576 84.8189 13.256 84.7389 12.872C84.6589 12.488 84.6269 12.096 84.6429 11.696C84.6909 11.008 84.8429 10.224 85.0989 9.344C85.3549 8.464 85.6829 7.568 86.0829 6.656C86.4989 5.728 86.9549 4.856 87.4509 4.04C87.9629 3.224 88.4989 2.52 89.0589 1.928C89.6189 1.336 90.1709 0.927999 90.7149 0.704C90.8909 0.624 91.0429 0.576 91.1709 0.56C91.2989 0.527999 91.4189 0.511999 91.5309 0.511999C91.9149 0.511999 92.1709 0.695999 92.2989 1.064C92.3629 1.192 92.3949 1.352 92.3949 1.544C92.3949 1.928 92.2669 2.376 92.0109 2.888C91.7869 3.352 91.4669 3.88 91.0509 4.472C90.6349 5.048 90.1629 5.64 89.6349 6.248C89.1229 6.84 88.6029 7.416 88.0749 7.976C87.5469 8.52 87.0589 9.008 86.6109 9.44C86.1629 9.872 85.8029 10.2 85.5309 10.424C85.4349 10.952 85.3869 11.448 85.3869 11.912C85.3869 12.408 85.4669 12.84 85.6269 13.208C85.8029 13.576 86.0909 13.76 86.4909 13.76C86.8749 13.76 87.2509 13.608 87.6189 13.304C87.9869 13 88.3229 12.64 88.6269 12.224C88.9469 11.808 89.2109 11.44 89.4189 11.12C89.4829 11.056 89.5229 11.024 89.5389 11.024C89.5869 11.024 89.6109 11.064 89.6109 11.144C89.6109 11.208 89.5869 11.28 89.5389 11.36C89.2509 11.808 88.9309 12.248 88.5789 12.68C88.2269 13.112 87.8429 13.472 87.4269 13.76C87.0109 14.048 86.5709 14.192 86.1069 14.192ZM85.6269 10.016C85.9789 9.696 86.4349 9.24 86.9949 8.648C87.5709 8.056 88.1629 7.4 88.7709 6.68C89.3949 5.96 89.9629 5.256 90.4749 4.568C90.9869 3.864 91.3629 3.24 91.6029 2.696C91.6989 2.504 91.7789 2.296 91.8429 2.072C91.9069 1.848 91.9389 1.64 91.9389 1.448C91.9389 1.096 91.8109 0.92 91.5549 0.92C91.2029 0.92 90.7309 1.2 90.1389 1.76C89.4829 2.368 88.8509 3.144 88.2429 4.088C87.6349 5.016 87.0989 6 86.6349 7.04C86.1869 8.064 85.8509 9.056 85.6269 10.016ZM93.2653 14.168C92.9773 14.168 92.7613 14.072 92.6173 13.88C92.4893 13.688 92.4253 13.44 92.4253 13.136C92.4253 12.928 92.4493 12.72 92.4973 12.512C92.5133 12.48 92.5373 12.408 92.5693 12.296C92.6013 12.168 92.6493 12.024 92.7133 11.864C92.4893 12.216 92.2013 12.608 91.8493 13.04C91.5133 13.456 91.1373 13.768 90.7213 13.976C90.4813 14.088 90.2413 14.144 90.0013 14.144C89.6813 14.144 89.4253 14.024 89.2333 13.784C89.0413 13.528 88.9453 13.176 88.9453 12.728C88.9453 12.36 89.0253 11.968 89.1853 11.552C89.3453 11.12 89.5773 10.68 89.8813 10.232C90.0733 9.944 90.3213 9.664 90.6253 9.392C90.9293 9.12 91.2573 8.896 91.6093 8.72C91.9613 8.544 92.2973 8.456 92.6173 8.456C92.9373 8.456 93.2093 8.544 93.4333 8.72C93.6573 8.896 93.7773 9.16 93.7933 9.512C93.7933 9.56 93.7693 9.6 93.7213 9.632C93.6893 9.648 93.6573 9.624 93.6253 9.56C93.4333 9.128 93.1213 8.912 92.6893 8.912C92.4013 8.912 92.0973 9.048 91.7773 9.32C91.4573 9.576 91.1453 9.904 90.8413 10.304C90.5373 10.704 90.2733 11.104 90.0493 11.504C89.8573 11.856 89.7133 12.176 89.6173 12.464C89.5373 12.752 89.4973 13 89.4973 13.208C89.4973 13.64 89.6653 13.856 90.0013 13.856C90.1773 13.856 90.3693 13.8 90.5773 13.688C90.7693 13.576 91.0013 13.376 91.2733 13.088C91.5613 12.8 91.8413 12.48 92.1133 12.128C92.4013 11.776 92.6573 11.432 92.8813 11.096C93.1213 10.76 93.2973 10.496 93.4093 10.304C93.6493 9.904 93.8973 9.552 94.1533 9.248C94.4093 8.944 94.6653 8.792 94.9213 8.792C95.0493 8.792 95.1133 8.824 95.1133 8.888C95.1133 8.952 95.0813 9.016 95.0173 9.08C94.6973 9.464 94.3933 9.92 94.1053 10.448C93.8333 10.96 93.6013 11.448 93.4093 11.912C93.2333 12.376 93.1293 12.728 93.0973 12.968C93.0493 13.48 93.2013 13.736 93.5533 13.736C93.6013 13.736 93.6493 13.736 93.6973 13.736C93.7453 13.72 93.8013 13.704 93.8653 13.688C94.2013 13.576 94.5293 13.368 94.8493 13.064C95.1693 12.76 95.4653 12.432 95.7373 12.08C96.0093 11.712 96.2333 11.392 96.4093 11.12C96.4573 11.056 96.4973 11.024 96.5293 11.024C96.5773 11.024 96.6013 11.064 96.6013 11.144C96.6013 11.192 96.5773 11.256 96.5293 11.336C96.4173 11.496 96.3133 11.656 96.2173 11.816C96.1213 11.96 96.0253 12.096 95.9293 12.224C95.8973 12.288 95.8573 12.344 95.8093 12.392C95.7613 12.44 95.7133 12.496 95.6653 12.56C95.4573 12.816 95.1853 13.096 94.8493 13.4C94.5293 13.688 94.2093 13.896 93.8893 14.024C93.6493 14.12 93.4413 14.168 93.2653 14.168ZM96.8417 14.264C96.5217 14.264 96.2657 14.136 96.0737 13.88C95.8977 13.624 95.8097 13.304 95.8097 12.92C95.8097 12.584 95.8897 12.224 96.0497 11.84C96.2097 11.44 96.4177 11.04 96.6737 10.64C96.9297 10.272 97.2977 9.912 97.7777 9.56C98.2577 9.208 98.7217 9.024 99.1697 9.008C99.3457 9.008 99.5057 9.04 99.6497 9.104C99.8097 9.152 99.9297 9.24 100.01 9.368C100.09 8.568 100.234 7.728 100.442 6.848C100.65 5.952 100.914 5.104 101.234 4.304C101.81 2.864 102.546 1.744 103.442 0.943999C103.922 0.511999 104.386 0.295999 104.834 0.295999C105.138 0.295999 105.378 0.415999 105.554 0.655999C105.746 0.879999 105.842 1.224 105.842 1.688C105.842 2.152 105.714 2.752 105.458 3.488C105.218 4.208 104.81 5.064 104.234 6.056C104.074 6.312 103.802 6.712 103.418 7.256C103.05 7.8 102.61 8.408 102.098 9.08C101.602 9.736 101.09 10.384 100.562 11.024C100.546 11.728 100.602 12.36 100.73 12.92C100.858 13.464 101.122 13.736 101.522 13.736C101.57 13.736 101.618 13.736 101.666 13.736C101.714 13.72 101.762 13.704 101.81 13.688C102.146 13.576 102.474 13.368 102.794 13.064C103.114 12.76 103.41 12.424 103.682 12.056C103.954 11.688 104.178 11.368 104.354 11.096C104.418 11.032 104.458 11 104.474 11C104.522 11 104.546 11.04 104.546 11.12C104.546 11.2 104.522 11.28 104.474 11.36C104.154 11.904 103.746 12.44 103.25 12.968C102.754 13.496 102.282 13.848 101.834 14.024C101.658 14.088 101.49 14.12 101.33 14.12C100.882 14.12 100.538 13.888 100.298 13.424C100.074 12.96 99.9457 12.416 99.9137 11.792C99.4337 12.336 98.9777 12.824 98.5457 13.256C98.1137 13.672 97.7537 13.952 97.4657 14.096C97.2417 14.208 97.0337 14.264 96.8417 14.264ZM100.586 10.448C101.082 9.84 101.554 9.232 102.002 8.624C102.45 8.016 102.842 7.472 103.178 6.992C103.53 6.496 103.778 6.128 103.922 5.888C104.482 4.928 104.882 4.104 105.122 3.416C105.362 2.728 105.482 2.176 105.482 1.76C105.482 1.104 105.266 0.776 104.834 0.776C104.498 0.776 104.13 0.976 103.73 1.376C103.442 1.664 103.122 2.104 102.77 2.696C102.434 3.272 102.13 3.912 101.858 4.616C101.506 5.512 101.21 6.472 100.97 7.496C100.922 7.704 100.85 8.088 100.754 8.648C100.674 9.192 100.618 9.792 100.586 10.448ZM96.7457 13.976C96.9057 13.976 97.0897 13.92 97.2977 13.808C97.5857 13.664 97.9617 13.36 98.4257 12.896C98.8897 12.416 99.3777 11.872 99.8897 11.264C99.8897 10.784 99.9137 10.272 99.9617 9.728C99.8977 9.664 99.8177 9.608 99.7217 9.56C99.6417 9.512 99.5697 9.48 99.5057 9.464C99.4577 9.448 99.3777 9.44 99.2657 9.44C98.9937 9.456 98.7057 9.592 98.4017 9.848C98.0977 10.088 97.8017 10.384 97.5137 10.736C97.2417 11.088 97.0017 11.448 96.7937 11.816C96.4417 12.456 96.2657 12.968 96.2657 13.352C96.2657 13.768 96.4257 13.976 96.7457 13.976ZM109.304 14.168C109.016 14.168 108.808 14.072 108.68 13.88C108.552 13.688 108.488 13.448 108.488 13.16C108.488 12.936 108.512 12.72 108.56 12.512C108.608 12.288 108.76 11.92 109.016 11.408C109.272 10.88 109.552 10.328 109.856 9.752C109.696 9.816 109.52 9.888 109.328 9.968C109.152 10.032 109.024 10.104 108.944 10.184C108.88 10.216 108.84 10.232 108.824 10.232C108.776 10.232 108.752 10.2 108.752 10.136C108.752 9.992 108.84 9.856 109.016 9.728C109.192 9.6 109.36 9.512 109.52 9.464C109.696 9.416 109.896 9.36 110.12 9.296C110.296 8.976 110.48 8.648 110.672 8.312C110.88 7.96 111.064 7.656 111.224 7.4C111.336 7.24 111.496 7.04 111.704 6.8C111.912 6.544 112.144 6.336 112.4 6.176C112.544 6.08 112.736 6.032 112.976 6.032C113.152 6.032 113.248 6.064 113.264 6.128C113.024 6.192 112.776 6.352 112.52 6.608C112.28 6.864 112.048 7.16 111.824 7.496C111.6 7.832 111.408 8.152 111.248 8.456C111.088 8.744 110.968 8.968 110.888 9.128C111.224 9.08 111.504 9.056 111.728 9.056C111.856 9.056 111.968 9.064 112.064 9.08C112.16 9.08 112.24 9.088 112.304 9.104C112.432 9.12 112.496 9.16 112.496 9.224C112.496 9.288 112.416 9.32 112.256 9.32C112.128 9.32 111.976 9.32 111.8 9.32C111.64 9.32 111.464 9.336 111.272 9.368C111.128 9.384 110.976 9.432 110.816 9.512C110.672 9.592 110.576 9.68 110.528 9.776C110.176 10.416 109.864 11.032 109.592 11.624C109.32 12.216 109.168 12.664 109.136 12.968C109.088 13.48 109.24 13.736 109.592 13.736C109.944 13.736 110.296 13.584 110.648 13.28C111.016 12.96 111.36 12.592 111.68 12.176C112 11.76 112.256 11.408 112.448 11.12C112.512 11.056 112.552 11.024 112.568 11.024C112.616 11.024 112.64 11.064 112.64 11.144C112.64 11.208 112.616 11.28 112.568 11.36C112.296 11.776 111.984 12.2 111.632 12.632C111.28 13.064 110.904 13.432 110.504 13.736C110.12 14.024 109.72 14.168 109.304 14.168ZM113.641 14.096C113.209 14.096 112.833 13.992 112.513 13.784C112.193 13.56 112.033 13.168 112.033 12.608C112.033 12.256 112.121 11.872 112.297 11.456C112.473 11.024 112.697 10.608 112.969 10.208C113.257 9.792 113.569 9.448 113.905 9.176C113.985 9.112 114.089 9.08 114.217 9.08C114.409 8.888 114.625 8.744 114.865 8.648C115.121 8.552 115.361 8.504 115.585 8.504C115.985 8.504 116.353 8.632 116.689 8.888C117.041 9.144 117.217 9.552 117.217 10.112C117.217 10.432 117.129 10.816 116.953 11.264C116.793 11.68 116.545 12.112 116.209 12.56C115.873 12.992 115.481 13.36 115.033 13.664C114.601 13.952 114.137 14.096 113.641 14.096ZM113.617 13.808C113.969 13.808 114.329 13.672 114.697 13.4C115.081 13.128 115.433 12.784 115.753 12.368C116.073 11.936 116.305 11.504 116.449 11.072C116.609 10.64 116.689 10.256 116.689 9.92C116.689 9.504 116.577 9.208 116.353 9.032C116.129 8.84 115.881 8.744 115.609 8.744C115.177 8.744 114.801 8.888 114.481 9.176C114.641 9.272 114.657 9.368 114.529 9.464C114.305 9.656 114.049 9.92 113.761 10.256C113.489 10.592 113.273 10.904 113.113 11.192C113.001 11.384 112.897 11.632 112.801 11.936C112.721 12.24 112.681 12.528 112.681 12.8C112.681 13.072 112.745 13.312 112.873 13.52C113.017 13.712 113.265 13.808 113.617 13.808ZM124.478 14.384C124.142 14.384 123.838 14.36 123.566 14.312C123.31 14.264 123.118 14.216 122.99 14.168C122.814 14.104 122.678 14.024 122.582 13.928C122.502 13.816 122.462 13.72 122.462 13.64C122.462 13.528 122.518 13.472 122.63 13.472C122.71 13.472 122.806 13.52 122.918 13.616C123.142 13.808 123.358 13.92 123.566 13.952C123.742 13.952 123.974 13.928 124.262 13.88C124.55 13.816 124.75 13.728 124.862 13.616C125.054 13.424 125.15 13.232 125.15 13.04C125.15 12.912 125.11 12.792 125.03 12.68C124.966 12.552 124.87 12.432 124.742 12.32C124.534 12.144 124.326 11.968 124.118 11.792C123.91 11.6 123.734 11.392 123.59 11.168C123.366 10.816 123.254 10.472 123.254 10.136C123.254 9.624 123.422 9.144 123.758 8.696C124.11 8.248 124.486 7.88 124.886 7.592C125.318 7.288 125.758 7.136 126.206 7.136C126.446 7.136 126.67 7.192 126.878 7.304C127.086 7.4 127.246 7.56 127.358 7.784C127.374 7.816 127.382 7.856 127.382 7.904C127.382 8 127.35 8.064 127.286 8.096C127.222 8.128 127.174 8.096 127.142 8C127.046 7.744 126.782 7.616 126.35 7.616C126.094 7.616 125.814 7.664 125.51 7.76C125.222 7.856 124.99 7.968 124.814 8.096C124.27 8.512 123.998 9.048 123.998 9.704C123.998 10.168 124.15 10.584 124.454 10.952C124.662 11.208 124.878 11.448 125.102 11.672C125.342 11.88 125.542 12.088 125.702 12.296C125.862 12.488 125.918 12.68 125.87 12.872C125.79 13.224 125.558 13.512 125.174 13.736C124.806 13.944 124.462 14.064 124.142 14.096C124.238 14.112 124.414 14.12 124.67 14.12C125.582 14.12 126.358 13.816 126.998 13.208C127.654 12.6 128.254 11.88 128.798 11.048C128.83 11 128.862 10.976 128.894 10.976C128.926 10.976 128.942 11.016 128.942 11.096C128.942 11.192 128.902 11.304 128.822 11.432C128.214 12.36 127.582 13.088 126.926 13.616C126.286 14.128 125.47 14.384 124.478 14.384ZM130.313 14.192C129.657 14.192 129.177 14.048 128.873 13.76C128.569 13.456 128.417 13.056 128.417 12.56C128.417 12.432 128.425 12.304 128.441 12.176C128.473 12.032 128.505 11.888 128.537 11.744C128.617 11.456 128.745 11.12 128.921 10.736C129.113 10.352 129.345 9.976 129.617 9.608C129.889 9.24 130.185 8.936 130.505 8.696C130.825 8.456 131.161 8.336 131.513 8.336C131.801 8.336 132.017 8.44 132.161 8.648C132.321 8.856 132.401 9.104 132.401 9.392C132.401 9.696 132.305 10.008 132.113 10.328C131.937 10.632 131.697 10.88 131.393 11.072C131.041 11.312 130.641 11.432 130.193 11.432C129.905 11.432 129.641 11.376 129.401 11.264C129.161 11.744 129.041 12.216 129.041 12.68C129.041 13.016 129.137 13.304 129.329 13.544C129.521 13.784 129.841 13.904 130.289 13.904C130.833 13.904 131.313 13.776 131.729 13.52C132.145 13.248 132.529 12.896 132.881 12.464C133.249 12.032 133.601 11.568 133.937 11.072C133.985 11.024 134.017 11 134.033 11C134.081 11 134.105 11.04 134.105 11.12C134.105 11.2 134.081 11.28 134.033 11.36C133.745 11.808 133.417 12.248 133.049 12.68C132.697 13.112 132.297 13.472 131.849 13.76C131.401 14.048 130.889 14.192 130.313 14.192ZM129.953 11.096C130.369 11.096 130.761 10.952 131.129 10.664C131.305 10.536 131.457 10.384 131.585 10.208C131.713 10.032 131.801 9.856 131.849 9.68C131.897 9.504 131.921 9.352 131.921 9.224C131.921 8.856 131.785 8.672 131.513 8.672C131.337 8.672 131.137 8.776 130.913 8.984C130.721 9.16 130.521 9.384 130.313 9.656C130.121 9.928 129.953 10.192 129.809 10.448C129.665 10.688 129.569 10.864 129.521 10.976C129.633 11.056 129.777 11.096 129.953 11.096ZM135.47 14.192C134.814 14.192 134.334 14.048 134.03 13.76C133.726 13.456 133.574 13.056 133.574 12.56C133.574 12.432 133.582 12.304 133.598 12.176C133.63 12.032 133.662 11.888 133.694 11.744C133.774 11.456 133.902 11.12 134.078 10.736C134.27 10.352 134.502 9.976 134.774 9.608C135.046 9.24 135.342 8.936 135.662 8.696C135.982 8.456 136.318 8.336 136.67 8.336C136.958 8.336 137.174 8.44 137.318 8.648C137.478 8.856 137.558 9.104 137.558 9.392C137.558 9.696 137.462 10.008 137.27 10.328C137.094 10.632 136.854 10.88 136.55 11.072C136.198 11.312 135.798 11.432 135.35 11.432C135.062 11.432 134.798 11.376 134.558 11.264C134.318 11.744 134.198 12.216 134.198 12.68C134.198 13.016 134.294 13.304 134.486 13.544C134.678 13.784 134.998 13.904 135.446 13.904C135.99 13.904 136.47 13.776 136.886 13.52C137.302 13.248 137.686 12.896 138.038 12.464C138.406 12.032 138.758 11.568 139.094 11.072C139.142 11.024 139.174 11 139.19 11C139.238 11 139.262 11.04 139.262 11.12C139.262 11.2 139.238 11.28 139.19 11.36C138.902 11.808 138.574 12.248 138.206 12.68C137.854 13.112 137.454 13.472 137.006 13.76C136.558 14.048 136.046 14.192 135.47 14.192ZM135.11 11.096C135.526 11.096 135.918 10.952 136.286 10.664C136.462 10.536 136.614 10.384 136.742 10.208C136.87 10.032 136.958 9.856 137.006 9.68C137.054 9.504 137.078 9.352 137.078 9.224C137.078 8.856 136.942 8.672 136.67 8.672C136.494 8.672 136.294 8.776 136.07 8.984C135.878 9.16 135.678 9.384 135.47 9.656C135.278 9.928 135.11 10.192 134.966 10.448C134.822 10.688 134.726 10.864 134.678 10.976C134.79 11.056 134.934 11.096 135.11 11.096ZM142.599 20.768C142.119 20.768 141.791 20.624 141.615 20.336C141.519 20.16 141.471 19.976 141.471 19.784C141.471 19.592 141.519 19.384 141.615 19.16C141.695 18.936 141.799 18.712 141.927 18.488C142.151 18.12 142.415 17.76 142.719 17.408C143.023 17.056 143.319 16.736 143.607 16.448C143.911 16.16 144.159 15.936 144.351 15.776C144.671 15.504 145.063 15.184 145.527 14.816C145.991 14.448 146.463 14.136 146.943 13.88C146.975 13.864 147.007 13.856 147.039 13.856C147.087 13.856 147.111 13.88 147.111 13.928C147.111 14.024 147.071 14.088 146.991 14.12C146.783 14.232 146.519 14.4 146.199 14.624C145.879 14.864 145.559 15.104 145.239 15.344C144.935 15.6 144.679 15.824 144.471 16.016C144.311 16.16 144.087 16.376 143.799 16.664C143.527 16.952 143.255 17.272 142.983 17.624C142.695 17.992 142.455 18.36 142.263 18.728C142.199 18.856 142.127 19.024 142.047 19.232C141.967 19.456 141.927 19.664 141.927 19.856C141.927 20.016 141.975 20.144 142.071 20.24C142.151 20.352 142.303 20.408 142.527 20.408C142.863 20.408 143.207 20.288 143.559 20.048C143.911 19.808 144.255 19.504 144.591 19.136C144.927 18.784 145.223 18.424 145.479 18.056C145.751 17.704 145.959 17.4 146.103 17.144C146.487 16.504 146.831 15.808 147.135 15.056C147.455 14.32 147.703 13.56 147.879 12.776C148.055 11.992 148.111 11.248 148.047 10.544C148.031 10.224 147.959 9.912 147.831 9.608C147.767 10.12 147.575 10.664 147.255 11.24C146.951 11.816 146.639 12.296 146.319 12.68C146.063 12.984 145.791 13.264 145.503 13.52C145.231 13.76 144.959 13.928 144.687 14.024C144.447 14.12 144.239 14.168 144.063 14.168C143.775 14.168 143.567 14.072 143.439 13.88C143.311 13.688 143.247 13.448 143.247 13.16C143.247 12.936 143.271 12.72 143.319 12.512C143.351 12.416 143.431 12.176 143.559 11.792C143.703 11.408 143.887 10.984 144.111 10.52C144.351 10.056 144.607 9.656 144.879 9.32C145.151 8.968 145.431 8.792 145.719 8.792C145.847 8.792 145.911 8.824 145.911 8.888C145.911 8.952 145.879 9.016 145.815 9.08C145.495 9.464 145.191 9.92 144.903 10.448C144.631 10.96 144.399 11.448 144.207 11.912C144.031 12.376 143.927 12.728 143.895 12.968C143.847 13.48 143.999 13.736 144.351 13.736C144.639 13.736 144.935 13.624 145.239 13.4C145.543 13.16 145.839 12.856 146.127 12.488C146.479 12.04 146.767 11.576 146.991 11.096C147.215 10.616 147.375 10.2 147.471 9.848C147.503 9.752 147.535 9.648 147.567 9.536C147.615 9.424 147.639 9.312 147.639 9.2V9.176C147.639 9.064 147.727 9.008 147.903 9.008C148.015 9.008 148.119 9.08 148.215 9.224C148.519 9.72 148.671 10.368 148.671 11.168C148.671 11.856 148.567 12.592 148.359 13.376C148.167 14.16 147.895 14.936 147.543 15.704C147.207 16.488 146.815 17.216 146.367 17.888C145.919 18.576 145.439 19.16 144.927 19.64C144.431 20.12 143.935 20.448 143.439 20.624C143.135 20.72 142.855 20.768 142.599 20.768ZM151.305 14.096C150.873 14.096 150.497 13.992 150.177 13.784C149.857 13.56 149.697 13.168 149.697 12.608C149.697 12.256 149.785 11.872 149.961 11.456C150.137 11.024 150.361 10.608 150.633 10.208C150.921 9.792 151.233 9.448 151.569 9.176C151.649 9.112 151.753 9.08 151.881 9.08C152.073 8.888 152.289 8.744 152.529 8.648C152.785 8.552 153.025 8.504 153.249 8.504C153.649 8.504 154.017 8.632 154.353 8.888C154.705 9.144 154.881 9.552 154.881 10.112C154.881 10.432 154.793 10.816 154.617 11.264C154.457 11.68 154.209 12.112 153.873 12.56C153.537 12.992 153.145 13.36 152.697 13.664C152.265 13.952 151.801 14.096 151.305 14.096ZM151.281 13.808C151.633 13.808 151.993 13.672 152.361 13.4C152.745 13.128 153.097 12.784 153.417 12.368C153.737 11.936 153.969 11.504 154.113 11.072C154.273 10.64 154.353 10.256 154.353 9.92C154.353 9.504 154.241 9.208 154.017 9.032C153.793 8.84 153.545 8.744 153.273 8.744C152.841 8.744 152.465 8.888 152.145 9.176C152.305 9.272 152.321 9.368 152.193 9.464C151.969 9.656 151.713 9.92 151.425 10.256C151.153 10.592 150.937 10.904 150.777 11.192C150.665 11.384 150.561 11.632 150.465 11.936C150.385 12.24 150.345 12.528 150.345 12.8C150.345 13.072 150.409 13.312 150.537 13.52C150.681 13.712 150.929 13.808 151.281 13.808ZM155.969 14.168C155.681 14.168 155.473 14.072 155.345 13.88C155.217 13.688 155.153 13.448 155.153 13.16C155.153 12.936 155.177 12.72 155.225 12.512C155.257 12.416 155.337 12.176 155.465 11.792C155.609 11.408 155.793 10.984 156.017 10.52C156.257 10.056 156.513 9.656 156.785 9.32C157.057 8.968 157.337 8.792 157.625 8.792C157.753 8.792 157.817 8.824 157.817 8.888C157.817 8.952 157.785 9.016 157.721 9.08C157.401 9.464 157.097 9.92 156.809 10.448C156.537 10.96 156.305 11.448 156.113 11.912C155.937 12.376 155.833 12.728 155.801 12.968C155.753 13.48 155.905 13.736 156.257 13.736C156.561 13.736 156.881 13.6 157.217 13.328C157.569 13.04 157.905 12.68 158.225 12.248C158.561 11.8 158.849 11.336 159.089 10.856C159.345 10.36 159.625 9.896 159.929 9.464C160.233 9.016 160.545 8.792 160.865 8.792C160.993 8.792 161.057 8.824 161.057 8.888C161.057 8.952 161.025 9.016 160.961 9.08C160.641 9.464 160.337 9.92 160.049 10.448C159.777 10.96 159.545 11.448 159.353 11.912C159.177 12.376 159.073 12.728 159.041 12.968C158.993 13.48 159.145 13.736 159.497 13.736C159.849 13.736 160.209 13.576 160.577 13.256C160.945 12.936 161.289 12.568 161.609 12.152C161.929 11.736 162.185 11.384 162.377 11.096C162.441 11.032 162.481 11 162.497 11C162.545 11 162.569 11.04 162.569 11.12C162.569 11.184 162.545 11.256 162.497 11.336C162.241 11.752 161.929 12.184 161.561 12.632C161.209 13.064 160.833 13.432 160.433 13.736C160.033 14.024 159.625 14.168 159.209 14.168C158.921 14.168 158.713 14.072 158.585 13.88C158.457 13.688 158.393 13.448 158.393 13.16C158.393 12.936 158.417 12.72 158.465 12.512L158.513 12.296C158.209 12.696 157.889 13.056 157.553 13.376C157.233 13.696 156.913 13.912 156.593 14.024C156.353 14.12 156.145 14.168 155.969 14.168ZM40.8473 42.168C40.5593 42.168 40.3433 42.072 40.1993 41.88C40.0713 41.688 40.0073 41.44 40.0073 41.136C40.0073 40.928 40.0313 40.72 40.0793 40.512C40.0953 40.48 40.1193 40.408 40.1513 40.296C40.1833 40.168 40.2313 40.024 40.2953 39.864C40.0713 40.216 39.7833 40.608 39.4313 41.04C39.0953 41.456 38.7193 41.768 38.3033 41.976C38.0633 42.088 37.8233 42.144 37.5833 42.144C37.2633 42.144 37.0073 42.024 36.8153 41.784C36.6233 41.528 36.5273 41.176 36.5273 40.728C36.5273 40.36 36.6073 39.968 36.7673 39.552C36.9273 39.12 37.1593 38.68 37.4633 38.232C37.6553 37.944 37.9033 37.664 38.2073 37.392C38.5113 37.12 38.8393 36.896 39.1913 36.72C39.5433 36.544 39.8793 36.456 40.1993 36.456C40.5193 36.456 40.7913 36.544 41.0153 36.72C41.2393 36.896 41.3593 37.16 41.3753 37.512C41.3753 37.56 41.3513 37.6 41.3033 37.632C41.2713 37.648 41.2393 37.624 41.2073 37.56C41.0153 37.128 40.7033 36.912 40.2713 36.912C39.9833 36.912 39.6793 37.048 39.3593 37.32C39.0393 37.576 38.7273 37.904 38.4233 38.304C38.1193 38.704 37.8553 39.104 37.6313 39.504C37.4393 39.856 37.2953 40.176 37.1993 40.464C37.1193 40.752 37.0793 41 37.0793 41.208C37.0793 41.64 37.2473 41.856 37.5833 41.856C37.7593 41.856 37.9513 41.8 38.1593 41.688C38.3513 41.576 38.5833 41.376 38.8553 41.088C39.1433 40.8 39.4233 40.48 39.6953 40.128C39.9833 39.776 40.2393 39.432 40.4633 39.096C40.7033 38.76 40.8793 38.496 40.9913 38.304C41.2313 37.904 41.4793 37.552 41.7353 37.248C41.9913 36.944 42.2473 36.792 42.5033 36.792C42.6313 36.792 42.6953 36.824 42.6953 36.888C42.6953 36.952 42.6633 37.016 42.5993 37.08C42.2793 37.464 41.9753 37.92 41.6873 38.448C41.4153 38.96 41.1833 39.448 40.9913 39.912C40.8153 40.376 40.7113 40.728 40.6793 40.968C40.6313 41.48 40.7833 41.736 41.1353 41.736C41.1833 41.736 41.2313 41.736 41.2793 41.736C41.3273 41.72 41.3833 41.704 41.4473 41.688C41.7833 41.576 42.1113 41.368 42.4313 41.064C42.7513 40.76 43.0473 40.432 43.3193 40.08C43.5913 39.712 43.8153 39.392 43.9913 39.12C44.0393 39.056 44.0793 39.024 44.1113 39.024C44.1593 39.024 44.1833 39.064 44.1833 39.144C44.1833 39.192 44.1593 39.256 44.1113 39.336C43.9993 39.496 43.8953 39.656 43.7993 39.816C43.7033 39.96 43.6073 40.096 43.5113 40.224C43.4793 40.288 43.4393 40.344 43.3913 40.392C43.3433 40.44 43.2953 40.496 43.2473 40.56C43.0393 40.816 42.7673 41.096 42.4313 41.4C42.1113 41.688 41.7913 41.896 41.4713 42.024C41.2313 42.12 41.0233 42.168 40.8473 42.168ZM44.1357 42.168C43.8477 42.168 43.6397 42.072 43.5117 41.88C43.3837 41.688 43.3197 41.448 43.3197 41.16C43.3197 40.936 43.3437 40.72 43.3917 40.512C43.4397 40.288 43.5917 39.92 43.8477 39.408C44.1037 38.88 44.3837 38.328 44.6877 37.752C44.5277 37.816 44.3517 37.888 44.1597 37.968C43.9837 38.032 43.8557 38.104 43.7757 38.184C43.7117 38.216 43.6717 38.232 43.6557 38.232C43.6077 38.232 43.5837 38.2 43.5837 38.136C43.5837 37.992 43.6717 37.856 43.8477 37.728C44.0237 37.6 44.1917 37.512 44.3517 37.464C44.5277 37.416 44.7277 37.36 44.9517 37.296C45.1277 36.976 45.3117 36.648 45.5037 36.312C45.7117 35.96 45.8957 35.656 46.0557 35.4C46.1677 35.24 46.3277 35.04 46.5357 34.8C46.7437 34.544 46.9757 34.336 47.2317 34.176C47.3757 34.08 47.5677 34.032 47.8077 34.032C47.9837 34.032 48.0797 34.064 48.0957 34.128C47.8557 34.192 47.6077 34.352 47.3517 34.608C47.1117 34.864 46.8797 35.16 46.6557 35.496C46.4317 35.832 46.2397 36.152 46.0797 36.456C45.9197 36.744 45.7997 36.968 45.7197 37.128C46.0557 37.08 46.3357 37.056 46.5597 37.056C46.6877 37.056 46.7997 37.064 46.8957 37.08C46.9917 37.08 47.0717 37.088 47.1357 37.104C47.2637 37.12 47.3277 37.16 47.3277 37.224C47.3277 37.288 47.2477 37.32 47.0877 37.32C46.9597 37.32 46.8077 37.32 46.6317 37.32C46.4717 37.32 46.2957 37.336 46.1037 37.368C45.9597 37.384 45.8077 37.432 45.6477 37.512C45.5037 37.592 45.4077 37.68 45.3597 37.776C45.0077 38.416 44.6957 39.032 44.4237 39.624C44.1517 40.216 43.9997 40.664 43.9677 40.968C43.9197 41.48 44.0717 41.736 44.4237 41.736C44.7757 41.736 45.1277 41.584 45.4797 41.28C45.8477 40.96 46.1917 40.592 46.5117 40.176C46.8317 39.76 47.0877 39.408 47.2797 39.12C47.3437 39.056 47.3837 39.024 47.3997 39.024C47.4477 39.024 47.4717 39.064 47.4717 39.144C47.4717 39.208 47.4477 39.28 47.3997 39.36C47.1277 39.776 46.8157 40.2 46.4637 40.632C46.1117 41.064 45.7357 41.432 45.3357 41.736C44.9517 42.024 44.5517 42.168 44.1357 42.168ZM53.2777 42.096C52.8457 42.096 52.4697 41.992 52.1497 41.784C51.8297 41.56 51.6697 41.168 51.6697 40.608C51.6697 40.256 51.7577 39.872 51.9337 39.456C52.1097 39.024 52.3337 38.608 52.6057 38.208C52.8937 37.792 53.2057 37.448 53.5417 37.176C53.6217 37.112 53.7257 37.08 53.8537 37.08C54.0457 36.888 54.2617 36.744 54.5017 36.648C54.7577 36.552 54.9977 36.504 55.2217 36.504C55.6217 36.504 55.9897 36.632 56.3257 36.888C56.6777 37.144 56.8537 37.552 56.8537 38.112C56.8537 38.432 56.7657 38.816 56.5897 39.264C56.4297 39.68 56.1817 40.112 55.8457 40.56C55.5097 40.992 55.1177 41.36 54.6697 41.664C54.2377 41.952 53.7737 42.096 53.2777 42.096ZM53.2537 41.808C53.6057 41.808 53.9657 41.672 54.3337 41.4C54.7177 41.128 55.0697 40.784 55.3897 40.368C55.7097 39.936 55.9417 39.504 56.0857 39.072C56.2457 38.64 56.3257 38.256 56.3257 37.92C56.3257 37.504 56.2137 37.208 55.9897 37.032C55.7657 36.84 55.5177 36.744 55.2457 36.744C54.8137 36.744 54.4377 36.888 54.1177 37.176C54.2777 37.272 54.2937 37.368 54.1657 37.464C53.9417 37.656 53.6857 37.92 53.3977 38.256C53.1257 38.592 52.9097 38.904 52.7497 39.192C52.6377 39.384 52.5337 39.632 52.4377 39.936C52.3577 40.24 52.3177 40.528 52.3177 40.8C52.3177 41.072 52.3817 41.312 52.5097 41.52C52.6537 41.712 52.9017 41.808 53.2537 41.808ZM57.9421 42.168C57.6541 42.168 57.4461 42.072 57.3181 41.88C57.1901 41.688 57.1261 41.448 57.1261 41.16C57.1261 40.936 57.1501 40.72 57.1981 40.512C57.2301 40.416 57.3101 40.176 57.4381 39.792C57.5821 39.408 57.7661 38.984 57.9901 38.52C58.2301 38.056 58.4861 37.656 58.7581 37.32C59.0301 36.968 59.3101 36.792 59.5981 36.792C59.7261 36.792 59.7901 36.824 59.7901 36.888C59.7901 36.952 59.7581 37.016 59.6941 37.08C59.3741 37.464 59.0701 37.92 58.7821 38.448C58.5101 38.96 58.2781 39.448 58.0861 39.912C57.9101 40.376 57.8061 40.728 57.7741 40.968C57.7261 41.48 57.8781 41.736 58.2301 41.736C58.5341 41.736 58.8541 41.6 59.1901 41.328C59.5421 41.04 59.8781 40.68 60.1981 40.248C60.5341 39.8 60.8221 39.336 61.0621 38.856C61.3181 38.36 61.5981 37.896 61.9021 37.464C62.2061 37.016 62.5181 36.792 62.8381 36.792C62.9661 36.792 63.0301 36.824 63.0301 36.888C63.0301 36.952 62.9981 37.016 62.9341 37.08C62.6141 37.464 62.3101 37.92 62.0221 38.448C61.7501 38.96 61.5181 39.448 61.3261 39.912C61.1501 40.376 61.0461 40.728 61.0141 40.968C60.9661 41.48 61.1181 41.736 61.4701 41.736C61.8221 41.736 62.1821 41.576 62.5501 41.256C62.9181 40.936 63.2621 40.568 63.5821 40.152C63.9021 39.736 64.1581 39.384 64.3501 39.096C64.4141 39.032 64.4541 39 64.4701 39C64.5181 39 64.5421 39.04 64.5421 39.12C64.5421 39.184 64.5181 39.256 64.4701 39.336C64.2141 39.752 63.9021 40.184 63.5341 40.632C63.1821 41.064 62.8061 41.432 62.4061 41.736C62.0061 42.024 61.5981 42.168 61.1821 42.168C60.8941 42.168 60.6861 42.072 60.5581 41.88C60.4301 41.688 60.3661 41.448 60.3661 41.16C60.3661 40.936 60.3901 40.72 60.4381 40.512L60.4861 40.296C60.1821 40.696 59.8621 41.056 59.5261 41.376C59.2061 41.696 58.8861 41.912 58.5661 42.024C58.3261 42.12 58.1181 42.168 57.9421 42.168ZM66.2555 42.144C65.9835 42.144 65.7675 42.056 65.6075 41.88C65.4635 41.688 65.3915 41.464 65.3915 41.208C65.3915 40.968 65.4475 40.736 65.5595 40.512C65.7355 40.144 65.9595 39.784 66.2315 39.432C66.5195 39.064 66.7835 38.744 67.0235 38.472C67.1835 38.264 67.2635 38.088 67.2635 37.944C67.2635 37.752 67.1435 37.56 66.9035 37.368C66.7115 37.24 66.5355 37.072 66.3755 36.864C66.2635 36.704 66.1835 36.544 66.1355 36.384C65.8795 36.912 65.5515 37.528 65.1515 38.232C64.7675 38.92 64.3675 39.536 63.9515 40.08C63.8875 40.176 63.8235 40.224 63.7595 40.224C63.7115 40.224 63.6875 40.192 63.6875 40.128C63.6875 40.096 63.6955 40.064 63.7115 40.032C63.7275 40 63.7755 39.928 63.8555 39.816C64.2715 39.24 64.6075 38.704 64.8635 38.208C65.1195 37.712 65.3435 37.248 65.5355 36.816L66.0635 35.64C66.0795 35.608 66.0955 35.568 66.1115 35.52C66.1435 35.456 66.1675 35.416 66.1835 35.4C66.2155 35.368 66.2475 35.352 66.2795 35.352C66.3435 35.352 66.3915 35.384 66.4235 35.448C66.4555 35.512 66.4555 35.592 66.4235 35.688C66.3915 35.864 66.4155 36.04 66.4955 36.216C66.5755 36.392 66.6795 36.552 66.8075 36.696C66.9355 36.824 67.1195 36.944 67.3595 37.056C67.5995 37.168 67.8155 37.296 68.0075 37.44C68.1995 37.584 68.2715 37.768 68.2235 37.992C68.1595 38.296 67.9915 38.592 67.7195 38.88C67.4475 39.168 67.1755 39.472 66.9035 39.792C66.7115 40 66.5355 40.208 66.3755 40.416C66.2315 40.624 66.1195 40.84 66.0395 41.064C66.0235 41.112 66.0075 41.16 65.9915 41.208C65.9915 41.256 65.9915 41.304 65.9915 41.352C65.9915 41.64 66.1435 41.784 66.4475 41.784C66.5435 41.784 66.6635 41.76 66.8075 41.712C67.2075 41.568 67.5755 41.328 67.9115 40.992C68.2635 40.656 68.5595 40.32 68.7995 39.984C69.0555 39.648 69.2235 39.416 69.3035 39.288C69.4315 39.096 69.5115 39 69.5435 39C69.5915 39 69.6155 39.04 69.6155 39.12C69.6155 39.2 69.5915 39.28 69.5435 39.36C69.1915 39.92 68.7915 40.448 68.3435 40.944C67.8955 41.44 67.4155 41.792 66.9035 42C66.6635 42.096 66.4475 42.144 66.2555 42.144ZM74.4181 42.168C74.1301 42.168 73.9221 42.072 73.7941 41.88C73.6661 41.688 73.6021 41.448 73.6021 41.16C73.6021 40.936 73.6261 40.72 73.6741 40.512C73.7061 40.416 73.7861 40.176 73.9141 39.792C74.0581 39.408 74.2421 38.984 74.4661 38.52C74.7061 38.056 74.9621 37.656 75.2341 37.32C75.5061 36.968 75.7861 36.792 76.0741 36.792C76.2021 36.792 76.2661 36.824 76.2661 36.888C76.2661 36.952 76.2341 37.016 76.1701 37.08C75.8501 37.464 75.5461 37.92 75.2581 38.448C74.9861 38.96 74.7541 39.448 74.5621 39.912C74.3861 40.376 74.2821 40.728 74.2501 40.968C74.2021 41.48 74.3541 41.736 74.7061 41.736C75.1061 41.736 75.5221 41.512 75.9541 41.064C76.4021 40.616 76.8021 40.096 77.1541 39.504C77.2661 39.328 77.4021 39.104 77.5621 38.832C77.7221 38.544 77.8981 38.288 78.0901 38.064C78.2981 37.84 78.4981 37.728 78.6901 37.728C78.8181 37.728 78.8821 37.76 78.8821 37.824C78.8821 37.888 78.8501 37.952 78.7861 38.016C78.5621 38.288 78.3461 38.64 78.1381 39.072C77.9301 39.504 77.7621 39.92 77.6341 40.32C77.5221 40.704 77.4661 40.992 77.4661 41.184C77.4661 41.648 77.6661 41.88 78.0661 41.88C78.4981 41.88 78.9381 41.704 79.3861 41.352C79.8341 41 80.2421 40.56 80.6101 40.032C80.9941 39.488 81.2981 38.936 81.5221 38.376C81.7621 37.816 81.8821 37.336 81.8821 36.936C81.8821 36.472 81.7301 36.208 81.4261 36.144C81.3781 36.144 81.3541 36.128 81.3541 36.096C81.3541 36.016 81.4421 35.976 81.6181 35.976C81.8901 35.976 82.0901 36.088 82.2181 36.312C82.3461 36.536 82.4101 36.808 82.4101 37.128C82.4101 37.752 82.2261 38.4 81.8581 39.072C81.5061 39.728 81.0501 40.328 80.4901 40.872C79.9301 41.4 79.3381 41.776 78.7141 42C78.4261 42.096 78.1621 42.144 77.9221 42.144C77.6021 42.144 77.3381 42.056 77.1301 41.88C76.9381 41.704 76.8421 41.44 76.8421 41.088C76.8421 40.912 76.8661 40.72 76.9141 40.512C76.9141 40.48 76.9141 40.448 76.9141 40.416C76.9301 40.384 76.9461 40.344 76.9621 40.296C76.6581 40.696 76.3381 41.056 76.0021 41.376C75.6821 41.696 75.3621 41.912 75.0421 42.024C74.8021 42.12 74.5941 42.168 74.4181 42.168ZM84.458 42.192C83.802 42.192 83.322 42.048 83.018 41.76C82.714 41.456 82.562 41.056 82.562 40.56C82.562 40.432 82.57 40.304 82.586 40.176C82.618 40.032 82.65 39.888 82.682 39.744C82.762 39.456 82.89 39.12 83.066 38.736C83.258 38.352 83.49 37.976 83.762 37.608C84.034 37.24 84.33 36.936 84.65 36.696C84.97 36.456 85.306 36.336 85.658 36.336C85.946 36.336 86.162 36.44 86.306 36.648C86.466 36.856 86.546 37.104 86.546 37.392C86.546 37.696 86.45 38.008 86.258 38.328C86.082 38.632 85.842 38.88 85.538 39.072C85.186 39.312 84.786 39.432 84.338 39.432C84.05 39.432 83.786 39.376 83.546 39.264C83.306 39.744 83.186 40.216 83.186 40.68C83.186 41.016 83.282 41.304 83.474 41.544C83.666 41.784 83.986 41.904 84.434 41.904C84.978 41.904 85.458 41.776 85.874 41.52C86.29 41.248 86.674 40.896 87.026 40.464C87.394 40.032 87.746 39.568 88.082 39.072C88.13 39.024 88.162 39 88.178 39C88.226 39 88.25 39.04 88.25 39.12C88.25 39.2 88.226 39.28 88.178 39.36C87.89 39.808 87.562 40.248 87.194 40.68C86.842 41.112 86.442 41.472 85.994 41.76C85.546 42.048 85.034 42.192 84.458 42.192ZM84.098 39.096C84.514 39.096 84.906 38.952 85.274 38.664C85.45 38.536 85.602 38.384 85.73 38.208C85.858 38.032 85.946 37.856 85.994 37.68C86.042 37.504 86.066 37.352 86.066 37.224C86.066 36.856 85.93 36.672 85.658 36.672C85.482 36.672 85.282 36.776 85.058 36.984C84.866 37.16 84.666 37.384 84.458 37.656C84.266 37.928 84.098 38.192 83.954 38.448C83.81 38.688 83.714 38.864 83.666 38.976C83.778 39.056 83.922 39.096 84.098 39.096ZM88.4862 42.264C88.1662 42.264 87.9102 42.136 87.7182 41.88C87.5422 41.624 87.4542 41.304 87.4542 40.92C87.4542 40.584 87.5342 40.224 87.6942 39.84C87.8542 39.44 88.0622 39.04 88.3182 38.64C88.5742 38.272 88.9422 37.912 89.4222 37.56C89.9022 37.208 90.3662 37.024 90.8142 37.008C90.9902 37.008 91.1502 37.04 91.2942 37.104C91.4542 37.152 91.5742 37.24 91.6542 37.368C91.7342 36.568 91.8782 35.728 92.0862 34.848C92.2942 33.952 92.5582 33.104 92.8782 32.304C93.4542 30.864 94.1902 29.744 95.0862 28.944C95.5662 28.512 96.0302 28.296 96.4782 28.296C96.7822 28.296 97.0222 28.416 97.1982 28.656C97.3902 28.88 97.4862 29.224 97.4862 29.688C97.4862 30.152 97.3582 30.752 97.1022 31.488C96.8622 32.208 96.4542 33.064 95.8782 34.056C95.7182 34.312 95.4462 34.712 95.0622 35.256C94.6942 35.8 94.2542 36.408 93.7422 37.08C93.2462 37.736 92.7342 38.384 92.2062 39.024C92.1902 39.728 92.2462 40.36 92.3742 40.92C92.5022 41.464 92.7662 41.736 93.1662 41.736C93.2142 41.736 93.2622 41.736 93.3102 41.736C93.3582 41.72 93.4062 41.704 93.4542 41.688C93.7902 41.576 94.1182 41.368 94.4382 41.064C94.7582 40.76 95.0542 40.424 95.3262 40.056C95.5982 39.688 95.8222 39.368 95.9982 39.096C96.0622 39.032 96.1022 39 96.1182 39C96.1662 39 96.1902 39.04 96.1902 39.12C96.1902 39.2 96.1662 39.28 96.1182 39.36C95.7982 39.904 95.3902 40.44 94.8942 40.968C94.3982 41.496 93.9262 41.848 93.4782 42.024C93.3022 42.088 93.1342 42.12 92.9742 42.12C92.5262 42.12 92.1822 41.888 91.9422 41.424C91.7182 40.96 91.5902 40.416 91.5582 39.792C91.0782 40.336 90.6222 40.824 90.1902 41.256C89.7582 41.672 89.3982 41.952 89.1102 42.096C88.8862 42.208 88.6782 42.264 88.4862 42.264ZM92.2302 38.448C92.7262 37.84 93.1982 37.232 93.6462 36.624C94.0942 36.016 94.4862 35.472 94.8222 34.992C95.1742 34.496 95.4222 34.128 95.5662 33.888C96.1262 32.928 96.5262 32.104 96.7662 31.416C97.0062 30.728 97.1262 30.176 97.1262 29.76C97.1262 29.104 96.9102 28.776 96.4782 28.776C96.1422 28.776 95.7742 28.976 95.3742 29.376C95.0862 29.664 94.7662 30.104 94.4142 30.696C94.0782 31.272 93.7742 31.912 93.5022 32.616C93.1502 33.512 92.8542 34.472 92.6142 35.496C92.5662 35.704 92.4942 36.088 92.3982 36.648C92.3182 37.192 92.2622 37.792 92.2302 38.448ZM88.3902 41.976C88.5502 41.976 88.7342 41.92 88.9422 41.808C89.2302 41.664 89.6062 41.36 90.0702 40.896C90.5342 40.416 91.0222 39.872 91.5342 39.264C91.5342 38.784 91.5582 38.272 91.6062 37.728C91.5422 37.664 91.4622 37.608 91.3662 37.56C91.2862 37.512 91.2142 37.48 91.1502 37.464C91.1022 37.448 91.0222 37.44 90.9102 37.44C90.6382 37.456 90.3502 37.592 90.0462 37.848C89.7422 38.088 89.4462 38.384 89.1582 38.736C88.8862 39.088 88.6462 39.448 88.4382 39.816C88.0862 40.456 87.9102 40.968 87.9102 41.352C87.9102 41.768 88.0702 41.976 88.3902 41.976ZM96.4315 42.264C96.1115 42.264 95.8555 42.136 95.6635 41.88C95.4875 41.624 95.3995 41.304 95.3995 40.92C95.3995 40.584 95.4795 40.224 95.6395 39.84C95.7995 39.44 96.0075 39.04 96.2635 38.64C96.5195 38.272 96.8875 37.912 97.3675 37.56C97.8475 37.208 98.3115 37.024 98.7595 37.008C98.9355 37.008 99.0955 37.04 99.2395 37.104C99.3995 37.152 99.5195 37.24 99.5995 37.368C99.6795 36.568 99.8235 35.728 100.032 34.848C100.24 33.952 100.504 33.104 100.824 32.304C101.4 30.864 102.136 29.744 103.032 28.944C103.512 28.512 103.976 28.296 104.424 28.296C104.728 28.296 104.968 28.416 105.144 28.656C105.336 28.88 105.432 29.224 105.432 29.688C105.432 30.152 105.304 30.752 105.048 31.488C104.808 32.208 104.4 33.064 103.824 34.056C103.664 34.312 103.392 34.712 103.008 35.256C102.64 35.8 102.2 36.408 101.688 37.08C101.192 37.736 100.68 38.384 100.152 39.024C100.136 39.728 100.192 40.36 100.32 40.92C100.448 41.464 100.712 41.736 101.112 41.736C101.16 41.736 101.208 41.736 101.256 41.736C101.304 41.72 101.352 41.704 101.4 41.688C101.736 41.576 102.064 41.368 102.384 41.064C102.704 40.76 103 40.424 103.272 40.056C103.544 39.688 103.768 39.368 103.944 39.096C104.008 39.032 104.048 39 104.064 39C104.112 39 104.136 39.04 104.136 39.12C104.136 39.2 104.112 39.28 104.064 39.36C103.744 39.904 103.336 40.44 102.84 40.968C102.344 41.496 101.872 41.848 101.424 42.024C101.248 42.088 101.08 42.12 100.92 42.12C100.472 42.12 100.128 41.888 99.8875 41.424C99.6635 40.96 99.5355 40.416 99.5035 39.792C99.0235 40.336 98.5675 40.824 98.1355 41.256C97.7035 41.672 97.3435 41.952 97.0555 42.096C96.8315 42.208 96.6235 42.264 96.4315 42.264ZM100.176 38.448C100.672 37.84 101.144 37.232 101.592 36.624C102.04 36.016 102.432 35.472 102.768 34.992C103.12 34.496 103.368 34.128 103.512 33.888C104.072 32.928 104.472 32.104 104.712 31.416C104.952 30.728 105.072 30.176 105.072 29.76C105.072 29.104 104.856 28.776 104.424 28.776C104.088 28.776 103.72 28.976 103.32 29.376C103.032 29.664 102.712 30.104 102.36 30.696C102.024 31.272 101.72 31.912 101.448 32.616C101.096 33.512 100.8 34.472 100.56 35.496C100.512 35.704 100.44 36.088 100.344 36.648C100.264 37.192 100.208 37.792 100.176 38.448ZM96.3355 41.976C96.4955 41.976 96.6795 41.92 96.8875 41.808C97.1755 41.664 97.5515 41.36 98.0155 40.896C98.4795 40.416 98.9675 39.872 99.4795 39.264C99.4795 38.784 99.5035 38.272 99.5515 37.728C99.4875 37.664 99.4075 37.608 99.3115 37.56C99.2315 37.512 99.1595 37.48 99.0955 37.464C99.0475 37.448 98.9675 37.44 98.8555 37.44C98.5835 37.456 98.2955 37.592 97.9915 37.848C97.6875 38.088 97.3915 38.384 97.1035 38.736C96.8315 39.088 96.5915 39.448 96.3835 39.816C96.0315 40.456 95.8555 40.968 95.8555 41.352C95.8555 41.768 96.0155 41.976 96.3355 41.976ZM106.561 35.088C106.337 35.088 106.201 34.952 106.153 34.68C106.137 34.552 106.217 34.424 106.393 34.296C106.569 34.168 106.713 34.08 106.825 34.032C106.905 34 106.969 33.976 107.017 33.96C107.065 33.944 107.105 33.936 107.137 33.936C107.249 33.936 107.305 33.992 107.305 34.104C107.305 34.232 107.257 34.384 107.161 34.56C107.081 34.736 107.041 34.824 107.041 34.824C107.025 34.888 106.969 34.952 106.873 35.016C106.777 35.064 106.673 35.088 106.561 35.088ZM104.161 42.168C103.873 42.168 103.665 42.072 103.537 41.88C103.409 41.688 103.345 41.448 103.345 41.16C103.345 40.936 103.369 40.72 103.417 40.512C103.449 40.416 103.529 40.176 103.657 39.792C103.801 39.408 103.985 38.984 104.209 38.52C104.449 38.056 104.705 37.656 104.977 37.32C105.249 36.968 105.529 36.792 105.817 36.792C105.945 36.792 106.009 36.824 106.009 36.888C106.009 36.952 105.977 37.016 105.913 37.08C105.593 37.464 105.289 37.92 105.001 38.448C104.729 38.96 104.497 39.448 104.305 39.912C104.129 40.376 104.025 40.728 103.993 40.968C103.945 41.48 104.097 41.736 104.449 41.736C104.497 41.736 104.545 41.736 104.593 41.736C104.641 41.72 104.697 41.704 104.761 41.688C105.097 41.576 105.425 41.368 105.745 41.064C106.065 40.76 106.361 40.424 106.633 40.056C106.905 39.688 107.129 39.368 107.305 39.096C107.369 39.032 107.409 39 107.425 39C107.473 39 107.497 39.04 107.497 39.12C107.497 39.2 107.473 39.28 107.425 39.36C107.073 39.904 106.657 40.44 106.177 40.968C105.713 41.496 105.249 41.848 104.785 42.024C104.545 42.12 104.337 42.168 104.161 42.168ZM107.056 42.096C107.008 42.096 106.96 42.064 106.912 42C106.784 41.856 106.72 41.624 106.72 41.304C106.72 40.968 106.776 40.592 106.888 40.176C107.016 39.744 107.16 39.352 107.32 39C107.48 38.664 107.624 38.368 107.752 38.112C107.896 37.856 107.992 37.696 108.04 37.632C108.216 37.408 108.4 37.224 108.592 37.08C108.784 36.936 108.976 36.864 109.168 36.864C109.264 36.864 109.336 36.888 109.384 36.936C109.448 36.984 109.456 37.024 109.408 37.056C109.28 37.12 109.112 37.296 108.904 37.584C108.696 37.856 108.48 38.176 108.256 38.544C108.112 38.8 107.928 39.144 107.704 39.576C107.48 40.008 107.352 40.376 107.32 40.68C107.32 40.808 107.352 40.864 107.416 40.848L108.016 39.864C108.352 39.304 108.792 38.752 109.336 38.208C109.88 37.664 110.464 37.216 111.088 36.864C111.152 36.832 111.216 36.808 111.28 36.792C111.36 36.776 111.432 36.768 111.496 36.768C111.64 36.768 111.712 36.816 111.712 36.912C111.712 36.944 111.672 37.024 111.592 37.152C111.256 37.6 110.992 38.072 110.8 38.568C110.608 39.048 110.488 39.576 110.44 40.152C110.424 40.504 110.456 40.832 110.536 41.136C110.632 41.424 110.832 41.568 111.136 41.568C111.488 41.568 111.824 41.424 112.144 41.136C112.464 40.848 112.76 40.512 113.032 40.128C113.32 39.728 113.568 39.376 113.776 39.072C113.808 39.024 113.832 39 113.848 39C113.896 39 113.92 39.048 113.92 39.144C113.92 39.224 113.888 39.32 113.824 39.432C113.584 39.784 113.32 40.16 113.032 40.56C112.744 40.96 112.424 41.296 112.072 41.568C111.736 41.84 111.352 41.976 110.92 41.976C110.52 41.976 110.232 41.824 110.056 41.52C109.88 41.216 109.792 40.848 109.792 40.416C109.792 39.952 109.864 39.456 110.008 38.928C110.168 38.4 110.352 37.96 110.56 37.608C110.144 37.912 109.712 38.296 109.264 38.76C108.816 39.208 108.432 39.688 108.112 40.2C108 40.408 107.848 40.672 107.656 40.992C107.464 41.312 107.336 41.568 107.272 41.76C107.256 41.824 107.24 41.88 107.224 41.928C107.208 41.96 107.192 41.992 107.176 42.024C107.16 42.072 107.12 42.096 107.056 42.096ZM112.854 48.792C112.406 48.792 112.086 48.64 111.894 48.336C111.798 48.16 111.75 47.976 111.75 47.784C111.75 47.576 111.79 47.36 111.87 47.136C111.95 46.928 112.054 46.712 112.182 46.488C112.406 46.12 112.67 45.76 112.974 45.408C113.278 45.056 113.574 44.736 113.862 44.448C114.166 44.16 114.414 43.936 114.606 43.776C114.942 43.504 115.334 43.184 115.782 42.816C116.246 42.448 116.718 42.136 117.198 41.88C117.23 41.864 117.262 41.856 117.294 41.856C117.342 41.856 117.366 41.88 117.366 41.928C117.366 42.024 117.326 42.088 117.246 42.12C117.038 42.232 116.774 42.4 116.454 42.624C116.134 42.864 115.822 43.104 115.518 43.344C115.214 43.6 114.95 43.824 114.726 44.016C114.566 44.16 114.35 44.376 114.078 44.664C113.806 44.952 113.534 45.272 113.262 45.624C112.974 45.992 112.734 46.36 112.542 46.728C112.478 46.856 112.406 47.024 112.326 47.232C112.246 47.456 112.206 47.664 112.206 47.856C112.206 48.016 112.254 48.144 112.35 48.24C112.43 48.352 112.574 48.408 112.782 48.408C113.118 48.408 113.454 48.288 113.79 48.048C114.142 47.824 114.47 47.544 114.774 47.208C115.094 46.872 115.382 46.528 115.638 46.176C115.894 45.84 116.094 45.544 116.238 45.288C116.814 44.344 117.262 43.296 117.582 42.144C117.918 41.008 118.046 39.944 117.966 38.952C117.95 38.84 117.934 38.736 117.918 38.64C117.902 38.528 117.878 38.416 117.846 38.304C117.814 38.352 117.782 38.4 117.75 38.448C117.718 38.496 117.678 38.552 117.63 38.616C117.518 38.856 117.366 39.128 117.174 39.432C116.982 39.72 116.798 39.984 116.622 40.224C116.462 40.464 116.35 40.624 116.286 40.704C115.902 41.168 115.542 41.504 115.206 41.712C114.886 41.92 114.606 42.024 114.366 42.024C114.046 42.024 113.798 41.888 113.622 41.616C113.446 41.328 113.358 40.984 113.358 40.584C113.358 39.848 113.638 39.032 114.198 38.136C114.47 37.72 114.846 37.336 115.326 36.984C115.806 36.616 116.278 36.432 116.742 36.432C117.126 36.432 117.454 36.592 117.726 36.912C117.774 36.976 117.782 37.056 117.75 37.152C117.734 37.232 117.694 37.24 117.63 37.176C117.566 37.08 117.462 37.016 117.318 36.984C117.19 36.952 117.062 36.936 116.934 36.936C116.534 36.936 116.166 37.08 115.83 37.368C115.494 37.64 115.198 37.968 114.942 38.352C114.702 38.72 114.502 39.064 114.342 39.384C113.99 40.088 113.814 40.648 113.814 41.064C113.814 41.496 113.974 41.712 114.294 41.712C114.502 41.712 114.75 41.616 115.038 41.424C115.342 41.216 115.67 40.888 116.022 40.44C116.102 40.344 116.238 40.168 116.43 39.912C116.622 39.64 116.83 39.32 117.054 38.952C117.278 38.584 117.47 38.224 117.63 37.872C117.63 37.856 117.63 37.848 117.63 37.848C117.646 37.848 117.654 37.84 117.654 37.824C117.638 37.808 117.614 37.768 117.582 37.704V37.68C117.582 37.616 117.654 37.584 117.798 37.584C117.926 37.584 118.022 37.616 118.086 37.68C118.278 37.84 118.414 38.088 118.494 38.424C118.59 38.744 118.638 39.112 118.638 39.528C118.638 40.072 118.574 40.664 118.446 41.304C118.318 41.928 118.15 42.536 117.942 43.128C117.75 43.72 117.526 44.248 117.27 44.712C116.982 45.288 116.638 45.84 116.238 46.368C115.854 46.912 115.438 47.384 114.99 47.784C114.558 48.184 114.126 48.464 113.694 48.624C113.406 48.736 113.126 48.792 112.854 48.792ZM122.669 39.216C122.621 39.296 122.549 39.336 122.453 39.336C122.373 39.336 122.349 39.288 122.381 39.192C122.557 38.696 122.797 38.072 123.101 37.32C123.405 36.552 123.741 35.744 124.109 34.896C124.477 34.048 124.829 33.248 125.165 32.496C125.501 31.744 125.781 31.128 126.005 30.648C126.117 30.392 126.309 30.264 126.581 30.264C126.837 30.264 126.965 30.376 126.965 30.6C126.965 30.696 126.933 30.8 126.869 30.912C126.677 31.248 126.437 31.688 126.149 32.232C125.877 32.776 125.573 33.376 125.237 34.032C124.917 34.688 124.589 35.344 124.253 36C123.933 36.656 123.629 37.264 123.341 37.824C123.069 38.384 122.845 38.848 122.669 39.216ZM121.421 42.12C121.197 42.12 121.061 41.984 121.013 41.712C120.997 41.584 121.077 41.456 121.253 41.328C121.429 41.2 121.573 41.112 121.685 41.064C121.813 41 121.925 40.968 122.021 40.968C122.117 40.968 122.165 41.024 122.165 41.136C122.165 41.248 122.125 41.384 122.045 41.544C121.965 41.704 121.917 41.808 121.901 41.856C121.885 41.92 121.829 41.976 121.733 42.024C121.637 42.088 121.533 42.12 121.421 42.12Z" fill="#6A6060"/>
</svg>
