<?xml version="1.0" encoding="UTF-8"?> <svg xmlns="http://www.w3.org/2000/svg" width="177" height="28" viewBox="0 0 177 28" fill="none"> <path d="M37.9366 21.595C37.3366 22.123 36.6166 22.663 35.7766 23.215C34.9606 23.767 34.0846 24.283 33.1486 24.763C32.2366 25.219 31.2886 25.591 30.3046 25.879C29.3206 26.191 28.3606 26.347 27.4246 26.347C26.3686 26.347 25.4926 26.047 24.7966 25.447C24.1006 24.871 23.7526 24.127 23.7526 23.215C23.7526 22.663 23.8366 22.147 24.0046 21.667C24.1726 21.163 24.2806 20.827 24.3286 20.659C24.3526 20.635 24.3646 20.599 24.3646 20.551L24.3286 20.515H24.2926C22.6366 21.739 20.9206 22.831 19.1446 23.791C18.4006 24.199 17.5966 24.607 16.7326 25.015C15.8926 25.399 15.0166 25.747 14.1046 26.059C13.2166 26.371 12.3046 26.611 11.3686 26.779C10.4566 26.971 9.55664 27.067 8.66864 27.067C7.34864 27.067 6.19664 26.899 5.21264 26.563C4.25264 26.251 3.46064 25.807 2.83664 25.231C2.21264 24.655 1.74464 23.971 1.43264 23.179C1.12064 22.387 0.964641 21.523 0.964641 20.587C0.964641 19.267 1.25264 17.839 1.82864 16.303C2.42864 14.767 3.28064 13.243 4.38464 11.731C5.48864 10.219 6.84464 8.76696 8.45264 7.37496C10.0606 5.95896 11.8726 4.71096 13.8886 3.63096C15.9046 2.55096 18.1246 1.69896 20.5486 1.07496C22.9726 0.426957 25.5526 0.102957 28.2886 0.102957C29.4406 0.102957 30.5806 0.270957 31.7086 0.606956C32.8606 0.942956 33.8806 1.43496 34.7686 2.08296C35.6806 2.70696 36.4126 3.46296 36.9646 4.35096C37.5406 5.21496 37.8286 6.18696 37.8286 7.26696C37.8286 8.10696 37.7206 8.91096 37.5046 9.67896C37.2886 10.447 37.0006 11.179 36.6406 11.875C36.3046 12.547 35.9086 13.183 35.4526 13.783C35.0206 14.383 34.5646 14.923 34.0846 15.403C32.9806 16.555 31.7326 17.575 30.3406 18.463H30.2686C30.2446 18.463 30.2206 18.475 30.1966 18.499C30.1726 18.499 30.1366 18.499 30.0886 18.499C30.0406 18.499 29.9446 18.487 29.8006 18.463C29.6566 18.439 29.5126 18.415 29.3686 18.391C29.2246 18.343 29.0926 18.283 28.9726 18.211C28.8766 18.115 28.8286 18.019 28.8286 17.923C28.8286 17.803 28.9486 17.659 29.1886 17.491C30.5086 16.555 31.6726 15.511 32.6806 14.359C33.1126 13.879 33.5326 13.351 33.9406 12.775C34.3726 12.199 34.7446 11.587 35.0566 10.939C35.3926 10.291 35.6566 9.61896 35.8486 8.92296C36.0406 8.22696 36.1366 7.50696 36.1366 6.76296C36.1366 5.99496 35.9566 5.25096 35.5966 4.53096C35.2366 3.78696 34.6966 3.13896 33.9766 2.58696C33.2566 2.03496 32.3566 1.59096 31.2766 1.25496C30.1966 0.918957 28.9366 0.750957 27.4966 0.750957C25.1206 0.750957 22.8646 1.05096 20.7286 1.65096C18.5926 2.22696 16.6126 3.01896 14.7886 4.02696C12.9646 5.01096 11.3206 6.16296 9.85664 7.48296C8.41664 8.77896 7.18064 10.135 6.14864 11.551C5.14064 12.943 4.36064 14.359 3.80864 15.799C3.25664 17.215 2.98064 18.547 2.98064 19.795C2.98064 20.683 3.12464 21.511 3.41264 22.279C3.72464 23.023 4.19264 23.671 4.81664 24.223C5.44064 24.775 6.23264 25.207 7.19264 25.519C8.17664 25.831 9.32864 25.987 10.6486 25.987C11.6086 25.987 12.6166 25.843 13.6726 25.555C14.7286 25.267 15.7726 24.895 16.8046 24.439C17.8606 23.959 18.8806 23.419 19.8646 22.819C20.8726 22.219 21.8086 21.619 22.6726 21.019C23.5366 20.395 24.3166 19.795 25.0126 19.219C25.7326 18.619 26.3086 18.103 26.7406 17.671C26.8366 17.599 26.9086 17.515 26.9566 17.419C27.0286 17.323 27.1246 17.275 27.2446 17.275C27.2926 17.275 27.3646 17.299 27.4606 17.347C27.6286 17.443 27.7126 17.551 27.7126 17.671C27.7126 17.815 27.6166 17.983 27.4246 18.175C27.1366 18.535 26.8726 18.871 26.6326 19.183C26.3926 19.495 26.1886 19.819 26.0206 20.155C25.8526 20.467 25.7206 20.815 25.6246 21.199C25.5286 21.559 25.4806 21.991 25.4806 22.495C25.4806 23.575 25.7206 24.331 26.2006 24.763C26.6806 25.171 27.2686 25.375 27.9646 25.375C29.2366 25.375 30.4486 25.159 31.6006 24.727C32.7526 24.271 33.7726 23.779 34.6606 23.251C35.6926 22.627 36.6526 21.931 37.5406 21.163H37.6126C37.7086 21.163 37.7806 21.211 37.8286 21.307C37.9006 21.403 37.9366 21.487 37.9366 21.559V21.595ZM40.8096 23.863C40.5456 24.295 40.3296 24.619 40.1616 24.835C40.0176 25.027 39.8976 25.159 39.8016 25.231C39.7296 25.303 39.6696 25.327 39.6216 25.303C39.5736 25.303 39.5136 25.303 39.4416 25.303C39.1536 25.303 39.0096 25.171 39.0096 24.907C39.0096 24.691 39.0816 24.451 39.2256 24.187C39.3936 23.923 39.5856 23.659 39.8016 23.395C40.0176 23.131 40.2336 22.891 40.4496 22.675C40.6896 22.435 40.8696 22.243 40.9896 22.099C41.0136 22.075 41.0256 22.039 41.0256 21.991C41.0256 21.919 40.9776 21.883 40.8816 21.883C40.8576 21.883 40.7256 21.943 40.4856 22.063C40.2696 22.183 40.0056 22.327 39.6936 22.495C39.3816 22.639 39.0576 22.795 38.7216 22.963C38.4096 23.131 38.1456 23.263 37.9296 23.359C37.7616 23.431 37.5816 23.503 37.3896 23.575C37.1976 23.647 36.9936 23.731 36.7776 23.827C36.6576 23.827 36.5976 23.743 36.5976 23.575C36.5976 23.479 36.6336 23.407 36.7056 23.359C36.8976 23.287 37.0776 23.227 37.2456 23.179C37.4136 23.107 37.5696 23.035 37.7136 22.963C38.3376 22.699 38.9136 22.423 39.4416 22.135C39.9936 21.823 40.4856 21.535 40.9176 21.271C41.1816 21.127 41.4216 20.983 41.6376 20.839C41.8776 20.695 42.1056 20.539 42.3216 20.371C42.3696 20.347 42.4416 20.323 42.5376 20.299C42.6336 20.251 42.7296 20.227 42.8256 20.227C43.0176 20.227 43.1136 20.359 43.1136 20.623C43.1136 20.815 43.0056 21.055 42.7896 21.343C42.5976 21.607 42.3696 21.895 42.1056 22.207C42.0576 22.255 42.0216 22.303 41.9976 22.351H42.0336C42.5136 22.327 43.0536 22.327 43.6536 22.351C44.2536 22.351 44.8536 22.363 45.4536 22.387C45.5736 22.387 45.6936 22.399 45.8136 22.423C45.8856 22.303 45.9456 22.183 45.9936 22.063C46.1136 21.847 46.2096 21.679 46.2816 21.559C46.7376 20.911 47.1216 20.479 47.4336 20.263C47.7456 20.023 48.0096 19.903 48.2256 19.903C48.3456 19.903 48.4176 19.951 48.4416 20.047C48.4656 20.119 48.4776 20.179 48.4776 20.227C48.4776 20.323 48.4536 20.419 48.4056 20.515L48.2616 20.803C48.1896 20.899 48.0696 21.067 47.9016 21.307C47.7336 21.547 47.5656 21.811 47.3976 22.099C47.2536 22.387 47.1096 22.687 46.9656 22.999C46.8456 23.287 46.7856 23.551 46.7856 23.791C46.7856 24.223 47.0376 24.439 47.5416 24.439C47.8056 24.439 48.0936 24.403 48.4056 24.331C48.7416 24.235 49.0656 24.139 49.3776 24.043C49.7136 23.923 50.0136 23.815 50.2776 23.719C50.5656 23.599 50.7816 23.515 50.9256 23.467C51.3816 23.299 51.7416 23.155 52.0056 23.035C52.1976 22.939 52.3416 22.879 52.4376 22.855C52.5576 22.855 52.6176 22.939 52.6176 23.107C52.6176 23.227 52.5816 23.299 52.5096 23.323L50.8896 23.971C50.6496 24.067 50.3376 24.199 49.9536 24.367C49.5936 24.511 49.1976 24.655 48.7656 24.799C48.3336 24.943 47.9136 25.075 47.5056 25.195C47.0976 25.291 46.7376 25.339 46.4256 25.339C45.9696 25.339 45.6576 25.255 45.4896 25.087C45.3216 24.895 45.2376 24.667 45.2376 24.403C45.2376 24.139 45.2736 23.863 45.3456 23.575C45.4176 23.311 45.5136 23.071 45.6336 22.855H45.3816C44.9496 22.831 44.4456 22.831 43.8696 22.855C43.2936 22.879 42.6936 22.903 42.0696 22.927C41.8536 22.951 41.6496 22.963 41.4576 22.963C41.4336 23.011 41.3976 23.059 41.3496 23.107C41.0856 23.395 40.9056 23.647 40.8096 23.863ZM40.4856 22.927H40.4496C40.4256 22.975 40.4376 22.975 40.4856 22.927ZM78.91 2.73096C78.91 3.83496 78.454 5.01096 77.542 6.25896C76.654 7.50696 75.478 8.76696 74.014 10.039C72.574 11.311 70.942 12.571 69.118 13.819C67.318 15.067 65.494 16.243 63.646 17.347C61.798 18.427 60.022 19.411 58.318 20.299C56.614 21.187 55.162 21.919 53.962 22.495C53.722 22.951 53.602 23.275 53.602 23.467C53.602 23.611 53.662 23.683 53.782 23.683C55.054 23.011 56.254 22.411 57.382 21.883C58.342 21.427 59.29 21.019 60.226 20.659C61.162 20.275 61.87 20.083 62.35 20.083C62.95 20.083 63.25 20.287 63.25 20.695C63.25 20.911 63.142 21.175 62.926 21.487C62.71 21.799 62.398 22.111 61.99 22.423C61.606 22.735 61.126 23.035 60.55 23.323C59.998 23.611 59.374 23.851 58.678 24.043C58.534 24.043 58.462 24.103 58.462 24.223C58.462 24.247 58.486 24.307 58.534 24.403C58.606 24.523 58.762 24.643 59.002 24.763C59.266 24.859 59.638 24.907 60.118 24.907C60.406 24.907 60.766 24.859 61.198 24.763C61.654 24.667 62.122 24.547 62.602 24.403C63.082 24.259 63.562 24.103 64.042 23.935C64.546 23.767 64.978 23.611 65.338 23.467C65.818 23.275 66.178 23.131 66.418 23.035C66.562 22.963 66.706 22.903 66.85 22.855C66.898 22.855 66.934 22.891 66.958 22.963C67.006 23.011 67.03 23.059 67.03 23.107C67.03 23.203 66.994 23.275 66.922 23.323L65.302 23.971C64.486 24.283 63.682 24.571 62.89 24.835C62.194 25.051 61.462 25.255 60.694 25.447C59.95 25.639 59.278 25.735 58.678 25.735C57.838 25.735 57.238 25.591 56.878 25.303C56.542 25.039 56.338 24.739 56.266 24.403C56.266 24.139 56.35 23.971 56.518 23.899C56.71 23.803 56.938 23.755 57.202 23.755C57.706 23.755 58.234 23.659 58.786 23.467C59.338 23.275 59.842 23.047 60.298 22.783C60.778 22.495 61.162 22.219 61.45 21.955C61.762 21.667 61.918 21.439 61.918 21.271C61.918 21.103 61.75 21.019 61.414 21.019C60.91 21.019 60.25 21.163 59.434 21.451C58.642 21.739 57.79 22.111 56.878 22.567C55.99 22.999 55.066 23.479 54.106 24.007C53.17 24.535 52.306 25.027 51.514 25.483C51.466 25.507 51.394 25.519 51.298 25.519C51.154 25.519 51.082 25.447 51.082 25.303C51.082 25.111 51.334 24.619 51.838 23.827C52.366 23.011 53.062 22.015 53.926 20.839C54.814 19.639 55.846 18.319 57.022 16.879C58.222 15.415 59.494 13.939 60.838 12.451C62.182 10.963 63.574 9.52296 65.014 8.13096C66.454 6.71496 67.87 5.46696 69.262 4.38696C70.654 3.28296 71.986 2.40696 73.258 1.75896C74.554 1.08696 75.706 0.750957 76.714 0.750957C78.178 0.750957 78.91 1.41096 78.91 2.73096ZM77.362 2.91096C77.362 2.55096 77.242 2.25096 77.002 2.01096C76.786 1.74696 76.45 1.61496 75.994 1.61496C75.274 1.61496 74.458 1.84296 73.546 2.29896C72.634 2.73096 71.662 3.31896 70.63 4.06296C69.598 4.80696 68.53 5.68296 67.426 6.69096C66.346 7.67496 65.266 8.71896 64.186 9.82296C63.13 10.927 62.086 12.055 61.054 13.207C60.046 14.359 59.11 15.475 58.246 16.555C57.382 17.635 56.614 18.643 55.942 19.579C55.27 20.491 54.73 21.271 54.322 21.919C55.498 21.391 56.878 20.695 58.462 19.831C60.046 18.943 61.69 17.959 63.394 16.879C65.122 15.799 66.814 14.647 68.47 13.423C70.15 12.199 71.638 10.975 72.934 9.75096C74.254 8.50296 75.322 7.30296 76.138 6.15096C76.954 4.97496 77.362 3.89496 77.362 2.91096ZM75.18 23.107C75.18 23.203 75.144 23.275 75.072 23.323C74.088 23.731 73.128 24.091 72.192 24.403C71.4 24.667 70.572 24.919 69.708 25.159C68.868 25.399 68.16 25.519 67.584 25.519C67.104 25.519 66.708 25.411 66.396 25.195C66.108 24.955 65.964 24.655 65.964 24.295C65.964 23.959 66.072 23.647 66.288 23.359C66.504 23.071 66.732 22.819 66.972 22.603C67.236 22.387 67.464 22.207 67.656 22.063C67.872 21.919 67.98 21.835 67.98 21.811C67.98 21.763 67.884 21.727 67.692 21.703C67.524 21.679 67.224 21.631 66.792 21.559C66.528 21.511 66.348 21.439 66.252 21.343C66.18 21.223 66.144 21.103 66.144 20.983C66.144 20.815 66.192 20.671 66.288 20.551C66.408 20.407 66.492 20.311 66.54 20.263C67.02 19.951 67.584 19.639 68.232 19.327C68.88 19.015 69.516 18.739 70.14 18.499C70.788 18.259 71.376 18.067 71.904 17.923C72.432 17.779 72.804 17.707 73.02 17.707C73.26 17.707 73.476 17.767 73.668 17.887C73.884 17.983 73.992 18.163 73.992 18.427C73.992 18.547 73.932 18.679 73.812 18.823C73.692 18.943 73.548 19.063 73.38 19.183C73.212 19.279 73.032 19.363 72.84 19.435C72.648 19.507 72.48 19.543 72.336 19.543C72.216 19.543 72.096 19.519 71.976 19.471C71.88 19.423 71.832 19.339 71.832 19.219C71.832 19.075 71.892 18.919 72.012 18.751C72.06 18.703 72.084 18.655 72.084 18.607C72.084 18.559 72.024 18.535 71.904 18.535C71.856 18.535 71.784 18.547 71.688 18.571C71.592 18.571 71.484 18.583 71.364 18.607C71.172 18.655 70.896 18.751 70.536 18.895C70.176 19.015 69.816 19.159 69.456 19.327C69.096 19.495 68.772 19.651 68.484 19.795C68.196 19.939 68.016 20.035 67.944 20.083C67.848 20.155 67.8 20.227 67.8 20.299C67.8 20.419 67.872 20.503 68.016 20.551C68.04 20.551 68.124 20.563 68.268 20.587C68.412 20.587 68.568 20.599 68.736 20.623C68.904 20.623 69.06 20.623 69.204 20.623C69.372 20.623 69.492 20.623 69.564 20.623C69.828 20.647 69.984 20.695 70.032 20.767C70.08 20.839 70.104 20.959 70.104 21.127C70.104 21.247 70.08 21.367 70.032 21.487C69.984 21.607 69.828 21.691 69.564 21.739C69.06 21.859 68.568 22.063 68.088 22.351C67.632 22.639 67.404 23.023 67.404 23.503C67.404 23.839 67.584 24.091 67.944 24.259C68.328 24.403 68.688 24.475 69.024 24.475C69.648 24.475 70.308 24.391 71.004 24.223C71.7 24.031 72.348 23.839 72.948 23.647C73.644 23.407 74.328 23.143 75 22.855C75.048 22.855 75.084 22.891 75.108 22.963C75.156 23.011 75.18 23.059 75.18 23.107ZM94.9241 23.107C94.9241 23.203 94.8881 23.275 94.8161 23.323L93.1961 23.971C92.9561 24.067 92.6441 24.199 92.2601 24.367C91.9001 24.511 91.5041 24.655 91.0721 24.799C90.6401 24.943 90.2201 25.075 89.8121 25.195C89.4041 25.291 89.0441 25.339 88.7321 25.339C88.1801 25.339 87.9041 25.075 87.9041 24.547C87.9041 24.187 88.0001 23.767 88.1921 23.287C88.4081 22.783 88.6241 22.327 88.8401 21.919C88.8401 21.823 88.8041 21.775 88.7321 21.775C88.6121 21.775 88.4921 21.823 88.3721 21.919C87.8681 22.303 87.3521 22.699 86.8241 23.107C86.2961 23.491 85.7801 23.839 85.2761 24.151C84.7961 24.463 84.3281 24.715 83.8721 24.907C83.4161 25.099 82.9961 25.195 82.6121 25.195C82.4921 25.195 82.3481 25.159 82.1801 25.087C82.0121 24.991 81.9281 24.871 81.9281 24.727C81.9281 24.535 82.0121 24.283 82.1801 23.971C82.3481 23.635 82.5281 23.299 82.7201 22.963C82.9121 22.627 83.0921 22.327 83.2601 22.063C83.4281 21.799 83.5121 21.631 83.5121 21.559C83.5121 21.535 83.4881 21.523 83.4401 21.523C83.3441 21.523 83.1281 21.619 82.7921 21.811C82.4561 22.003 82.0721 22.243 81.6401 22.531C81.2081 22.795 80.7401 23.095 80.2361 23.431C79.7321 23.767 79.2521 24.079 78.7961 24.367C78.3401 24.631 77.9201 24.859 77.5361 25.051C77.1761 25.243 76.9121 25.339 76.7441 25.339C76.6001 25.339 76.4681 25.291 76.3481 25.195C76.2521 25.099 76.2041 24.979 76.2041 24.835C76.2041 24.643 76.2881 24.427 76.4561 24.187C76.6241 23.923 76.8161 23.671 77.0321 23.431C77.2481 23.167 77.4641 22.915 77.6801 22.675C77.9201 22.435 78.1001 22.243 78.2201 22.099C78.2441 22.075 78.2561 22.039 78.2561 21.991C78.2561 21.919 78.2081 21.883 78.1121 21.883C78.0881 21.883 77.9561 21.943 77.7161 22.063C77.5001 22.183 77.2361 22.327 76.9241 22.495C76.6361 22.639 76.3241 22.795 75.9881 22.963C75.6521 23.131 75.3761 23.263 75.1601 23.359C74.9921 23.431 74.8121 23.503 74.6201 23.575C74.4281 23.647 74.2241 23.731 74.0081 23.827C73.9601 23.827 73.9241 23.803 73.9001 23.755C73.8521 23.683 73.8281 23.623 73.8281 23.575C73.8281 23.455 73.8641 23.383 73.9361 23.359C74.1281 23.287 74.3081 23.227 74.4761 23.179C74.6441 23.107 74.8001 23.035 74.9441 22.963C75.5681 22.699 76.1441 22.423 76.6721 22.135C77.2241 21.823 77.7161 21.535 78.1481 21.271C78.6521 20.983 79.1201 20.683 79.5521 20.371C79.6001 20.347 79.6721 20.323 79.7681 20.299C79.8641 20.251 79.9601 20.227 80.0561 20.227C80.2481 20.227 80.3441 20.359 80.3441 20.623C80.3441 20.815 80.2361 21.055 80.0201 21.343C79.8041 21.631 79.5521 21.931 79.2641 22.243C79.0001 22.531 78.7601 22.819 78.5441 23.107C78.3281 23.371 78.2201 23.575 78.2201 23.719C78.2201 23.911 78.3161 24.007 78.5081 24.007C78.6521 24.007 78.9401 23.875 79.3721 23.611C79.8041 23.323 80.2961 22.999 80.8481 22.639C81.4001 22.279 81.9521 21.919 82.5041 21.559C83.0561 21.199 83.5121 20.923 83.8721 20.731C83.9681 20.659 84.1721 20.527 84.4841 20.335C84.7961 20.119 85.0721 20.011 85.3121 20.011C85.4321 20.011 85.5161 20.059 85.5641 20.155C85.6361 20.227 85.6721 20.323 85.6721 20.443C85.6721 20.635 85.5641 20.887 85.3481 21.199C85.1561 21.511 84.9281 21.835 84.6641 22.171C84.4241 22.483 84.1961 22.795 83.9801 23.107C83.7881 23.395 83.6921 23.611 83.6921 23.755C83.6921 23.971 83.8361 24.079 84.1241 24.079C84.5561 24.079 85.0601 23.863 85.6361 23.431C86.2361 22.999 86.8361 22.519 87.4361 21.991C88.0361 21.463 88.6121 20.983 89.1641 20.551C89.7161 20.119 90.1721 19.903 90.5321 19.903C90.6521 19.903 90.7241 19.951 90.7481 20.047C90.7721 20.119 90.7841 20.179 90.7841 20.227C90.7841 20.323 90.7601 20.419 90.7121 20.515C90.6641 20.611 90.6161 20.707 90.5681 20.803C90.4961 20.899 90.3761 21.067 90.2081 21.307C90.0401 21.547 89.8721 21.811 89.7041 22.099C89.5601 22.387 89.4161 22.687 89.2721 22.999C89.1521 23.287 89.0921 23.551 89.0921 23.791C89.0921 24.223 89.3441 24.439 89.8481 24.439C90.1121 24.439 90.4001 24.403 90.7121 24.331C91.0481 24.235 91.3721 24.139 91.6841 24.043C92.0201 23.923 92.3201 23.815 92.5841 23.719C92.8721 23.599 93.0881 23.515 93.2321 23.467C93.7121 23.275 94.0721 23.131 94.3121 23.035C94.4561 22.963 94.6001 22.903 94.7441 22.855C94.7921 22.855 94.8281 22.891 94.8521 22.963C94.9001 23.011 94.9241 23.059 94.9241 23.107ZM105.291 23.107C105.291 23.203 105.255 23.275 105.183 23.323L103.563 23.971C103.323 24.067 103.011 24.199 102.627 24.367C102.267 24.511 101.871 24.655 101.439 24.799C101.007 24.943 100.587 25.075 100.179 25.195C99.771 25.291 99.411 25.339 99.099 25.339C98.595 25.339 98.343 25.183 98.343 24.871C98.343 24.775 98.355 24.655 98.379 24.511C98.427 24.343 98.511 24.175 98.631 24.007C98.439 24.151 98.175 24.319 97.839 24.511C97.503 24.679 97.143 24.847 96.759 25.015C96.375 25.159 95.979 25.291 95.571 25.411C95.187 25.531 94.839 25.591 94.527 25.591C94.071 25.591 93.747 25.495 93.555 25.303C93.339 25.135 93.231 24.919 93.231 24.655C93.231 24.199 93.471 23.635 93.951 22.963C94.431 22.291 95.043 21.655 95.787 21.055C96.531 20.431 97.347 19.903 98.235 19.471C99.123 19.039 99.975 18.823 100.791 18.823C101.199 18.823 101.487 18.895 101.655 19.039C101.823 19.183 101.907 19.387 101.907 19.651C101.907 20.035 101.727 20.383 101.367 20.695C101.031 21.007 100.707 21.259 100.395 21.451C100.299 21.499 100.227 21.523 100.179 21.523C100.131 21.523 100.059 21.499 99.963 21.451C99.891 21.379 99.855 21.295 99.855 21.199C99.855 21.079 99.951 20.899 100.143 20.659C100.239 20.563 100.347 20.431 100.467 20.263C100.611 20.071 100.683 19.915 100.683 19.795C100.683 19.699 100.635 19.627 100.539 19.579C100.467 19.507 100.299 19.471 100.035 19.471C99.627 19.471 99.123 19.627 98.523 19.939C97.923 20.227 97.347 20.599 96.795 21.055C96.243 21.487 95.763 21.943 95.355 22.423C94.971 22.903 94.779 23.323 94.779 23.683C94.779 23.947 94.887 24.151 95.103 24.295C95.319 24.415 95.559 24.475 95.823 24.475C96.087 24.475 96.387 24.415 96.723 24.295C97.059 24.175 97.383 24.043 97.695 23.899C98.007 23.755 98.283 23.611 98.523 23.467C98.787 23.299 98.955 23.179 99.027 23.107C99.075 23.059 99.147 22.987 99.243 22.891C99.339 22.795 99.435 22.747 99.531 22.747C99.579 22.747 99.651 22.771 99.747 22.819C99.843 22.867 99.891 22.951 99.891 23.071C99.771 23.263 99.687 23.431 99.639 23.575C99.591 23.719 99.567 23.851 99.567 23.971C99.567 24.283 99.783 24.439 100.215 24.439C100.479 24.439 100.767 24.403 101.079 24.331C101.415 24.235 101.739 24.139 102.051 24.043C102.387 23.923 102.687 23.815 102.951 23.719C103.239 23.599 103.455 23.515 103.599 23.467C104.079 23.275 104.439 23.131 104.679 23.035C104.823 22.963 104.967 22.903 105.111 22.855C105.159 22.855 105.195 22.891 105.219 22.963C105.267 23.011 105.291 23.059 105.291 23.107ZM119.305 20.047C119.305 20.095 119.209 20.263 119.017 20.551C118.825 20.815 118.609 21.115 118.369 21.451C118.153 21.787 117.937 22.135 117.721 22.495C117.529 22.831 117.397 23.095 117.325 23.287C117.205 23.623 117.193 23.923 117.289 24.187C117.409 24.451 117.769 24.607 118.369 24.655C118.633 24.679 118.945 24.667 119.305 24.619C119.665 24.547 120.025 24.463 120.385 24.367C120.745 24.271 121.069 24.175 121.357 24.079C121.669 23.983 121.909 23.911 122.077 23.863C122.533 23.767 122.881 23.671 123.121 23.575C123.385 23.455 123.613 23.383 123.805 23.359C123.853 23.359 123.889 23.395 123.913 23.467C123.937 23.539 123.937 23.599 123.913 23.647C123.841 23.767 123.769 23.839 123.697 23.863L121.897 24.439C121.633 24.511 121.285 24.619 120.853 24.763C120.421 24.883 119.965 25.003 119.485 25.123C119.005 25.243 118.537 25.339 118.081 25.411C117.625 25.507 117.241 25.543 116.929 25.519C116.617 25.495 116.377 25.423 116.209 25.303C116.041 25.207 115.921 25.087 115.849 24.943C115.777 24.799 115.741 24.631 115.741 24.439C115.765 24.247 115.801 24.055 115.849 23.863C115.897 23.695 116.005 23.479 116.173 23.215C116.341 22.927 116.521 22.639 116.713 22.351C116.905 22.063 117.085 21.775 117.253 21.487C117.445 21.199 117.577 20.959 117.649 20.767C117.721 20.575 117.709 20.443 117.613 20.371C117.541 20.299 117.349 20.335 117.037 20.479C117.037 20.479 116.881 20.575 116.569 20.767C116.281 20.959 115.909 21.187 115.453 21.451C115.021 21.715 114.565 21.991 114.085 22.279C113.605 22.567 113.197 22.795 112.861 22.963C112.813 22.987 112.765 22.999 112.717 22.999C112.693 22.975 112.657 22.975 112.609 22.999C112.489 22.999 112.393 22.987 112.321 22.963C112.273 22.915 112.237 22.879 112.213 22.855C112.213 22.783 112.285 22.723 112.429 22.675C112.933 22.435 113.497 22.135 114.121 21.775C114.769 21.415 115.381 21.055 115.957 20.695C116.533 20.335 117.037 20.011 117.469 19.723C117.901 19.435 118.153 19.267 118.225 19.219C118.297 19.171 118.381 19.147 118.477 19.147C118.597 19.123 118.681 19.111 118.729 19.111C119.137 19.063 119.353 19.147 119.377 19.363C119.425 19.555 119.401 19.783 119.305 20.047ZM134.344 23.107C134.344 23.179 134.32 23.239 134.272 23.287C134.248 23.311 134.212 23.335 134.164 23.359C132.676 24.031 131.428 24.367 130.42 24.367C129.796 24.367 129.316 24.175 128.98 23.791C128.356 24.415 127.648 24.943 126.856 25.375C126.088 25.807 125.32 26.023 124.552 26.023C124.216 26.023 123.952 25.939 123.76 25.771C123.568 25.627 123.472 25.363 123.472 24.979C123.472 24.499 123.688 23.911 124.12 23.215C124.576 22.519 125.116 21.847 125.74 21.199C126.364 20.551 127 19.999 127.648 19.543C128.32 19.087 128.872 18.859 129.304 18.859C129.424 18.859 129.532 18.907 129.628 19.003C129.748 19.075 129.808 19.147 129.808 19.219C129.808 19.267 129.772 19.303 129.7 19.327C129.628 19.327 129.556 19.327 129.484 19.327C129.196 19.327 128.788 19.519 128.26 19.903C127.756 20.263 127.252 20.695 126.748 21.199C126.244 21.703 125.812 22.231 125.452 22.783C125.092 23.335 124.912 23.791 124.912 24.151C124.912 24.679 125.176 24.943 125.704 24.943C126.136 24.943 126.616 24.799 127.144 24.511C127.696 24.199 128.212 23.827 128.692 23.395C128.524 23.083 128.44 22.687 128.44 22.207C128.44 21.871 128.488 21.535 128.584 21.199C128.704 20.839 128.86 20.527 129.052 20.263C129.244 19.999 129.472 19.783 129.736 19.615C130.024 19.447 130.336 19.363 130.672 19.363C131.128 19.363 131.356 19.579 131.356 20.011C131.356 20.395 131.188 20.875 130.852 21.451C130.54 22.027 130.108 22.615 129.556 23.215C129.82 23.551 130.204 23.719 130.708 23.719C131.044 23.719 131.392 23.683 131.752 23.611C132.112 23.539 132.448 23.467 132.76 23.395C133.096 23.299 133.384 23.203 133.624 23.107C133.864 23.011 134.044 22.927 134.164 22.855H134.2C134.248 22.855 134.284 22.891 134.308 22.963C134.332 23.011 134.344 23.059 134.344 23.107ZM130.708 20.587C130.708 20.251 130.492 20.083 130.06 20.083C129.796 20.083 129.568 20.263 129.376 20.623C129.208 20.959 129.124 21.343 129.124 21.775C129.124 21.967 129.136 22.147 129.16 22.315C129.184 22.483 129.232 22.651 129.304 22.819C129.712 22.411 130.048 22.003 130.312 21.595C130.576 21.187 130.708 20.851 130.708 20.587ZM143.261 23.107C143.261 23.203 143.225 23.275 143.153 23.323C142.169 23.731 141.209 24.091 140.273 24.403C139.481 24.667 138.653 24.919 137.789 25.159C136.949 25.399 136.241 25.519 135.665 25.519C135.113 25.519 134.609 25.339 134.153 24.979C133.697 24.619 133.469 24.103 133.469 23.431C133.469 22.807 133.697 22.183 134.153 21.559C134.609 20.911 135.161 20.335 135.809 19.831C136.481 19.327 137.189 18.919 137.933 18.607C138.677 18.271 139.349 18.103 139.949 18.103C140.117 18.103 140.261 18.139 140.381 18.211C140.645 18.331 140.777 18.595 140.777 19.003C140.777 19.243 140.681 19.483 140.489 19.723C140.321 19.963 140.129 20.179 139.913 20.371C139.649 20.587 139.361 20.791 139.049 20.983C139.025 20.983 138.977 20.995 138.905 21.019C138.761 21.067 138.605 21.091 138.437 21.091C138.317 21.091 138.257 21.007 138.257 20.839C138.257 20.719 138.329 20.587 138.473 20.443C138.665 20.323 138.905 20.107 139.193 19.795C139.505 19.483 139.661 19.207 139.661 18.967C139.661 18.799 139.517 18.715 139.229 18.715C138.869 18.715 138.437 18.847 137.933 19.111C137.429 19.351 136.937 19.663 136.457 20.047C136.001 20.407 135.605 20.827 135.269 21.307C134.957 21.763 134.801 22.207 134.801 22.639C134.801 23.215 134.993 23.671 135.377 24.007C135.785 24.319 136.361 24.475 137.105 24.475C137.729 24.475 138.389 24.391 139.085 24.223C139.781 24.031 140.429 23.839 141.029 23.647C141.725 23.407 142.409 23.143 143.081 22.855C143.129 22.855 143.165 22.891 143.189 22.963C143.237 23.011 143.261 23.059 143.261 23.107ZM162.846 23.107C162.846 23.203 162.81 23.275 162.738 23.323L161.118 23.971C160.878 24.067 160.566 24.199 160.182 24.367C159.822 24.511 159.426 24.655 158.994 24.799C158.562 24.943 158.142 25.075 157.734 25.195C157.326 25.291 156.966 25.339 156.654 25.339C156.102 25.339 155.826 25.075 155.826 24.547C155.826 24.187 155.922 23.767 156.114 23.287C156.33 22.783 156.546 22.327 156.762 21.919C156.762 21.823 156.726 21.775 156.654 21.775C156.534 21.775 156.414 21.823 156.294 21.919C155.79 22.303 155.274 22.699 154.746 23.107C154.218 23.491 153.702 23.839 153.198 24.151C152.718 24.463 152.25 24.715 151.794 24.907C151.338 25.099 150.918 25.195 150.534 25.195C150.414 25.195 150.27 25.159 150.102 25.087C149.934 24.991 149.85 24.871 149.85 24.727C149.85 24.535 149.934 24.283 150.102 23.971C150.27 23.635 150.45 23.299 150.642 22.963C150.834 22.627 151.014 22.327 151.182 22.063C151.35 21.799 151.434 21.631 151.434 21.559C151.434 21.535 151.41 21.523 151.362 21.523C151.266 21.523 151.05 21.619 150.714 21.811C150.378 22.003 149.994 22.243 149.562 22.531C149.13 22.795 148.662 23.095 148.158 23.431C147.654 23.767 147.174 24.079 146.718 24.367C146.262 24.631 145.842 24.859 145.458 25.051C145.098 25.243 144.834 25.339 144.666 25.339C144.522 25.339 144.39 25.291 144.27 25.195C144.174 25.099 144.126 24.979 144.126 24.835C144.126 24.643 144.21 24.427 144.378 24.187C144.546 23.923 144.738 23.671 144.954 23.431C145.17 23.167 145.386 22.915 145.602 22.675C145.842 22.435 146.022 22.243 146.142 22.099C146.166 22.075 146.178 22.039 146.178 21.991C146.178 21.919 146.13 21.883 146.034 21.883C146.01 21.883 145.878 21.943 145.638 22.063C145.422 22.183 145.158 22.327 144.846 22.495C144.558 22.639 144.246 22.795 143.91 22.963C143.574 23.131 143.298 23.263 143.082 23.359C142.914 23.431 142.734 23.503 142.542 23.575C142.35 23.647 142.146 23.731 141.93 23.827C141.882 23.827 141.846 23.803 141.822 23.755C141.774 23.683 141.75 23.623 141.75 23.575C141.75 23.455 141.786 23.383 141.858 23.359C142.05 23.287 142.23 23.227 142.398 23.179C142.566 23.107 142.722 23.035 142.866 22.963C143.49 22.699 144.066 22.423 144.594 22.135C145.146 21.823 145.638 21.535 146.07 21.271C146.574 20.983 147.042 20.683 147.474 20.371C147.522 20.347 147.594 20.323 147.69 20.299C147.786 20.251 147.882 20.227 147.978 20.227C148.17 20.227 148.266 20.359 148.266 20.623C148.266 20.815 148.158 21.055 147.942 21.343C147.726 21.631 147.474 21.931 147.186 22.243C146.922 22.531 146.682 22.819 146.466 23.107C146.25 23.371 146.142 23.575 146.142 23.719C146.142 23.911 146.238 24.007 146.43 24.007C146.574 24.007 146.862 23.875 147.294 23.611C147.726 23.323 148.218 22.999 148.77 22.639C149.322 22.279 149.874 21.919 150.426 21.559C150.978 21.199 151.434 20.923 151.794 20.731C151.89 20.659 152.094 20.527 152.406 20.335C152.718 20.119 152.994 20.011 153.234 20.011C153.354 20.011 153.438 20.059 153.486 20.155C153.558 20.227 153.594 20.323 153.594 20.443C153.594 20.635 153.486 20.887 153.27 21.199C153.078 21.511 152.85 21.835 152.586 22.171C152.346 22.483 152.118 22.795 151.902 23.107C151.71 23.395 151.614 23.611 151.614 23.755C151.614 23.971 151.758 24.079 152.046 24.079C152.478 24.079 152.982 23.863 153.558 23.431C154.158 22.999 154.758 22.519 155.358 21.991C155.958 21.463 156.534 20.983 157.086 20.551C157.638 20.119 158.094 19.903 158.454 19.903C158.574 19.903 158.646 19.951 158.67 20.047C158.694 20.119 158.706 20.179 158.706 20.227C158.706 20.323 158.682 20.419 158.634 20.515C158.586 20.611 158.538 20.707 158.49 20.803C158.418 20.899 158.298 21.067 158.13 21.307C157.962 21.547 157.794 21.811 157.626 22.099C157.482 22.387 157.338 22.687 157.194 22.999C157.074 23.287 157.014 23.551 157.014 23.791C157.014 24.223 157.266 24.439 157.77 24.439C158.034 24.439 158.322 24.403 158.634 24.331C158.97 24.235 159.294 24.139 159.606 24.043C159.942 23.923 160.242 23.815 160.506 23.719C160.794 23.599 161.01 23.515 161.154 23.467C161.634 23.275 161.994 23.131 162.234 23.035C162.378 22.963 162.522 22.903 162.666 22.855C162.714 22.855 162.75 22.891 162.774 22.963C162.822 23.011 162.846 23.059 162.846 23.107ZM170.477 21.775C170.405 21.871 170.321 22.063 170.225 22.351C170.129 22.639 170.081 22.987 170.081 23.395C170.081 23.467 170.081 23.575 170.081 23.719C170.105 23.839 170.141 23.971 170.189 24.115C170.261 24.259 170.357 24.391 170.477 24.511C170.597 24.607 170.777 24.655 171.017 24.655C171.281 24.655 171.581 24.607 171.917 24.511C172.253 24.391 172.589 24.271 172.925 24.151C173.261 24.007 173.561 23.875 173.825 23.755C174.113 23.611 174.329 23.515 174.473 23.467C174.929 23.299 175.289 23.155 175.553 23.035C175.745 22.939 175.889 22.879 175.985 22.855C176.105 22.855 176.165 22.939 176.165 23.107C176.165 23.227 176.129 23.299 176.057 23.323L174.437 23.971C174.197 24.067 173.885 24.199 173.501 24.367C173.141 24.511 172.745 24.655 172.313 24.799C171.881 24.943 171.461 25.075 171.053 25.195C170.645 25.291 170.285 25.339 169.973 25.339C169.661 25.339 169.409 25.279 169.217 25.159C169.049 25.015 168.905 24.859 168.785 24.691C168.689 24.523 168.617 24.355 168.569 24.187C168.545 24.019 168.533 23.887 168.533 23.791C168.533 23.431 168.593 23.131 168.713 22.891C168.857 22.651 168.953 22.507 169.001 22.459C168.857 22.435 168.725 22.411 168.605 22.387C168.461 22.555 168.209 22.771 167.849 23.035C167.393 23.371 166.865 23.707 166.265 24.043C165.689 24.355 165.089 24.631 164.465 24.871C163.841 25.111 163.301 25.231 162.845 25.231C162.581 25.231 162.353 25.111 162.161 24.871C161.969 24.631 161.873 24.379 161.873 24.115C161.801 23.827 161.825 23.587 161.945 23.395C162.089 23.179 162.257 23.035 162.449 22.963C162.641 22.867 162.833 22.855 163.025 22.927C163.217 22.975 163.337 23.119 163.385 23.359C163.385 23.599 163.457 23.815 163.601 24.007C163.745 24.175 163.913 24.259 164.105 24.259C164.321 24.259 164.573 24.199 164.861 24.079C165.173 23.959 165.485 23.815 165.797 23.647C166.133 23.455 166.469 23.239 166.805 22.999C167.165 22.759 167.501 22.519 167.813 22.279C167.837 22.255 167.861 22.231 167.885 22.207C167.333 22.039 166.901 21.847 166.589 21.631C166.085 21.271 165.785 20.923 165.689 20.587C165.593 20.227 165.653 19.891 165.869 19.579C166.109 19.243 166.409 19.003 166.769 18.859C167.153 18.691 167.561 18.631 167.993 18.679C168.449 18.727 168.833 18.943 169.145 19.327C169.265 19.471 169.349 19.675 169.397 19.939C169.445 20.179 169.445 20.443 169.397 20.731C169.373 20.995 169.301 21.271 169.181 21.559C169.109 21.703 169.037 21.835 168.965 21.955C169.109 21.955 169.229 21.907 169.325 21.811C169.541 21.595 169.757 21.511 169.973 21.559C170.189 21.583 170.357 21.655 170.477 21.775ZM168.533 21.235C168.653 20.995 168.737 20.755 168.785 20.515C168.833 20.275 168.821 20.047 168.749 19.831C168.677 19.543 168.521 19.375 168.281 19.327C168.065 19.255 167.837 19.255 167.597 19.327C167.357 19.399 167.141 19.519 166.949 19.687C166.781 19.855 166.709 20.047 166.733 20.263C166.757 20.527 166.889 20.791 167.129 21.055C167.393 21.319 167.729 21.535 168.137 21.703C168.161 21.727 168.197 21.751 168.245 21.775C168.365 21.607 168.461 21.427 168.533 21.235Z" fill="#565452"></path> </svg> 