<?xml version="1.0" encoding="UTF-8"?> <svg xmlns="http://www.w3.org/2000/svg" width="144" height="43" viewBox="0 0 144 43" fill="none"> <path d="M34.2865 2.33496C34.2865 2.71896 34.1545 3.04296 33.8905 3.30696C33.6505 3.57096 33.3625 3.79896 33.0265 3.99096C32.6425 4.20696 32.2105 4.37496 31.7305 4.49496C31.5625 4.49496 31.4785 4.43496 31.4785 4.31496C31.4785 4.19496 31.5505 4.07496 31.6945 3.95496C31.8625 3.81096 32.0425 3.69096 32.2345 3.59496C32.4265 3.47496 32.5225 3.34296 32.5225 3.19896C32.5225 3.07896 32.4385 2.99496 32.2705 2.94696C32.1265 2.87496 31.9705 2.81496 31.8025 2.76696C30.9625 2.59896 30.1345 2.47896 29.3185 2.40696C28.5265 2.33496 27.7465 2.29896 26.9785 2.29896C25.1785 2.29896 23.3065 2.50296 21.3625 2.91096C19.4185 3.29496 17.5225 3.85896 15.6745 4.60296C13.8265 5.32296 12.0625 6.19896 10.3825 7.23096C8.70247 8.26296 7.23847 9.41496 5.99047 10.687C4.74247 11.959 3.74647 13.327 3.00247 14.791C2.25847 16.231 1.88647 17.755 1.88647 19.363C1.88647 20.587 2.12647 21.583 2.60647 22.351C3.08647 23.095 3.71047 23.683 4.47847 24.115C5.24647 24.523 6.13447 24.799 7.14247 24.943C8.15047 25.087 9.17047 25.159 10.2025 25.159C11.6905 25.159 12.9745 25.135 14.0545 25.087C15.1585 25.039 16.2145 24.991 17.2225 24.943C18.2305 24.895 19.2865 24.847 20.3905 24.799C21.4945 24.751 22.8145 24.727 24.3505 24.727C26.0305 24.727 27.4585 24.799 28.6345 24.943C29.8345 25.063 30.5905 25.147 30.9025 25.195C31.7185 25.363 32.2705 25.615 32.5585 25.951C32.8465 26.287 32.9905 26.659 32.9905 27.067C32.9905 27.283 32.8945 27.391 32.7025 27.391C32.6545 27.391 32.6065 27.379 32.5585 27.355C32.5105 27.355 32.4505 27.343 32.3785 27.319C31.9945 27.199 31.4905 27.079 30.8665 26.959C30.2425 26.863 29.5465 26.779 28.7785 26.707C28.0105 26.635 27.1705 26.575 26.2585 26.527C25.3705 26.479 24.4585 26.455 23.5225 26.455C22.1065 26.455 20.7985 26.479 19.5985 26.527C18.3985 26.599 17.2705 26.659 16.2145 26.707C15.1825 26.779 14.1985 26.839 13.2625 26.887C12.3265 26.959 11.4145 26.995 10.5265 26.995C9.25447 26.995 8.00647 26.863 6.78247 26.599C5.55847 26.335 4.46647 25.903 3.50647 25.303C2.54647 24.727 1.76647 23.959 1.16647 22.999C0.590469 22.015 0.302469 20.815 0.302469 19.399C0.302469 17.743 0.758469 16.135 1.67047 14.575C2.58247 13.015 3.79447 11.551 5.30647 10.183C6.81847 8.79096 8.55847 7.51896 10.5265 6.36696C12.5185 5.21496 14.5825 4.23096 16.7185 3.41496C18.8785 2.57496 21.0385 1.92696 23.1985 1.47096C25.3585 0.990957 27.3865 0.750957 29.2825 0.750957C29.7625 0.750957 30.2905 0.762957 30.8665 0.786956C31.4425 0.810956 31.9825 0.870956 32.4865 0.966956C32.9905 1.06296 33.4105 1.21896 33.7465 1.43496C34.1065 1.65096 34.2865 1.95096 34.2865 2.33496ZM40.7167 20.587C40.9087 19.675 40.9087 18.847 40.7167 18.103C40.5487 17.335 40.3207 16.603 40.0327 15.907C39.7447 15.187 39.4567 14.467 39.1687 13.747C38.9047 13.027 38.7727 12.247 38.7727 11.407C38.7727 10.687 39.1687 10.147 39.9607 9.78696C40.7527 9.40296 41.6767 9.13896 42.7327 8.99496C43.8127 8.82696 44.8807 8.74296 45.9367 8.74296C47.0167 8.71896 47.8447 8.70696 48.4207 8.70696C48.8527 8.70696 49.2127 8.68296 49.5007 8.63496C49.7887 8.58696 49.9927 8.56296 50.1127 8.56296C50.3047 8.56296 50.4007 8.73096 50.4007 9.06696C50.4007 9.25896 50.2687 9.42696 50.0047 9.57096C49.7647 9.71496 49.4527 9.83496 49.0687 9.93096C48.6847 10.027 48.2767 10.099 47.8447 10.147C47.4127 10.195 47.0167 10.219 46.6567 10.219L40.1407 10.435C39.7567 10.459 39.5167 10.615 39.4207 10.903C39.3247 11.191 39.3127 11.575 39.3847 12.055C39.4807 12.511 39.6247 13.027 39.8167 13.603C40.0327 14.179 40.2487 14.767 40.4647 15.367C40.6807 15.943 40.8727 16.495 41.0407 17.023C41.2087 17.551 41.3047 17.995 41.3287 18.355C41.3767 18.835 41.4007 19.291 41.4007 19.723C41.4007 20.131 41.3167 20.551 41.1487 20.983C41.0047 21.391 40.7527 21.823 40.3927 22.279C40.0567 22.735 39.5887 23.239 38.9887 23.791C38.3167 24.415 37.6087 24.943 36.8647 25.375C36.1207 25.807 35.3527 26.023 34.5607 26.023C33.8407 26.023 33.4807 25.675 33.4807 24.979C33.4807 24.499 33.6967 23.911 34.1287 23.215C34.5847 22.519 35.1247 21.847 35.7487 21.199C36.3727 20.551 37.0087 19.999 37.6567 19.543C38.3287 19.087 38.8807 18.859 39.3127 18.859C39.4327 18.859 39.5407 18.907 39.6367 19.003C39.7567 19.075 39.8167 19.147 39.8167 19.219C39.8167 19.267 39.7807 19.303 39.7087 19.327C39.6367 19.327 39.5647 19.327 39.4927 19.327C39.2047 19.327 38.7967 19.519 38.2687 19.903C37.7647 20.263 37.2607 20.695 36.7567 21.199C36.2527 21.703 35.8207 22.231 35.4607 22.783C35.1007 23.335 34.9207 23.791 34.9207 24.151C34.9207 24.679 35.1847 24.943 35.7127 24.943C36.2887 24.943 36.8647 24.739 37.4407 24.331C38.0407 23.923 38.5807 23.467 39.0607 22.963C39.5407 22.435 39.9367 21.943 40.2487 21.487C40.5607 21.007 40.7167 20.707 40.7167 20.587ZM52.4085 23.107C52.4085 23.179 52.3845 23.239 52.3365 23.287C52.3125 23.311 52.2765 23.335 52.2285 23.359C50.7405 24.031 49.4925 24.367 48.4845 24.367C47.8605 24.367 47.3805 24.175 47.0445 23.791C46.4205 24.415 45.7125 24.943 44.9205 25.375C44.1525 25.807 43.3845 26.023 42.6165 26.023C42.2805 26.023 42.0165 25.939 41.8245 25.771C41.6325 25.627 41.5365 25.363 41.5365 24.979C41.5365 24.499 41.7525 23.911 42.1845 23.215C42.6405 22.519 43.1805 21.847 43.8045 21.199C44.4285 20.551 45.0645 19.999 45.7125 19.543C46.3845 19.087 46.9365 18.859 47.3685 18.859C47.4885 18.859 47.5965 18.907 47.6925 19.003C47.8125 19.075 47.8725 19.147 47.8725 19.219C47.8725 19.267 47.8365 19.303 47.7645 19.327C47.6925 19.327 47.6205 19.327 47.5485 19.327C47.2605 19.327 46.8525 19.519 46.3245 19.903C45.8205 20.263 45.3165 20.695 44.8125 21.199C44.3085 21.703 43.8765 22.231 43.5165 22.783C43.1565 23.335 42.9765 23.791 42.9765 24.151C42.9765 24.679 43.2405 24.943 43.7685 24.943C44.2005 24.943 44.6805 24.799 45.2085 24.511C45.7605 24.199 46.2765 23.827 46.7565 23.395C46.5885 23.083 46.5045 22.687 46.5045 22.207C46.5045 21.871 46.5525 21.535 46.6485 21.199C46.7685 20.839 46.9245 20.527 47.1165 20.263C47.3085 19.999 47.5365 19.783 47.8005 19.615C48.0885 19.447 48.4005 19.363 48.7365 19.363C49.1925 19.363 49.4205 19.579 49.4205 20.011C49.4205 20.395 49.2525 20.875 48.9165 21.451C48.6045 22.027 48.1725 22.615 47.6205 23.215C47.8845 23.551 48.2685 23.719 48.7725 23.719C49.1085 23.719 49.4565 23.683 49.8165 23.611C50.1765 23.539 50.5125 23.467 50.8245 23.395C51.1605 23.299 51.4485 23.203 51.6885 23.107C51.9285 23.011 52.1085 22.927 52.2285 22.855H52.2645C52.3125 22.855 52.3485 22.891 52.3725 22.963C52.3965 23.011 52.4085 23.059 52.4085 23.107ZM48.7725 20.587C48.7725 20.251 48.5565 20.083 48.1245 20.083C47.8605 20.083 47.6325 20.263 47.4405 20.623C47.2725 20.959 47.1885 21.343 47.1885 21.775C47.1885 21.967 47.2005 22.147 47.2245 22.315C47.2485 22.483 47.2965 22.651 47.3685 22.819C47.7765 22.411 48.1125 22.003 48.3765 21.595C48.6405 21.187 48.7725 20.851 48.7725 20.587ZM62.5136 20.371C62.5136 20.875 62.2496 21.379 61.7216 21.883C61.2176 22.387 60.6056 22.843 59.8856 23.251C59.1896 23.635 58.4696 23.959 57.7256 24.223C56.9816 24.487 56.3816 24.619 55.9256 24.619C55.4936 24.619 55.2176 24.535 55.0976 24.367C54.9776 24.175 54.8696 24.031 54.7736 23.935C54.7496 23.911 54.7376 23.863 54.7376 23.791C54.7376 23.671 54.7736 23.563 54.8456 23.467C54.9416 23.347 55.0496 23.239 55.1696 23.143C55.2896 23.047 55.3976 22.975 55.4936 22.927C55.6136 22.855 55.7096 22.819 55.7816 22.819C55.9496 22.819 56.0576 22.867 56.1056 22.963C56.1776 23.059 56.2376 23.167 56.2856 23.287C56.3336 23.383 56.4296 23.491 56.5736 23.611C56.7416 23.731 56.9816 23.791 57.2936 23.791C57.7016 23.791 58.1096 23.707 58.5176 23.539C58.9496 23.371 59.3336 23.155 59.6696 22.891C60.0296 22.603 60.3176 22.303 60.5336 21.991C60.7736 21.655 60.8936 21.331 60.8936 21.019C60.8936 20.707 60.7736 20.503 60.5336 20.407C60.3176 20.287 60.0776 20.227 59.8136 20.227C59.3576 20.227 58.7696 20.347 58.0496 20.587C57.3536 20.827 56.5496 21.163 55.6376 21.595C54.3896 23.011 53.1416 24.523 51.8936 26.131C50.6696 27.739 49.4696 29.323 48.2936 30.883C47.0936 32.467 45.9296 33.979 44.8016 35.419C43.6736 36.883 42.5816 38.155 41.5256 39.235C40.4696 40.339 39.4616 41.215 38.5016 41.863C37.5176 42.535 36.5936 42.871 35.7296 42.871C35.2736 42.871 34.8896 42.751 34.5776 42.511C34.2656 42.271 34.1096 41.899 34.1096 41.395C34.1096 40.411 34.4216 39.331 35.0456 38.155C35.6456 37.003 36.4736 35.815 37.5296 34.591C38.5616 33.367 39.7616 32.143 41.1296 30.919C42.4736 29.695 43.9016 28.507 45.4136 27.355C46.9016 26.227 48.4256 25.171 49.9856 24.187C51.5216 23.179 52.9856 22.315 54.3776 21.595C54.6416 21.187 54.8816 20.827 55.0976 20.515C55.3136 20.203 55.5056 19.939 55.6736 19.723C55.8656 19.459 56.0216 19.231 56.1416 19.039C56.1416 18.943 56.2016 18.883 56.3216 18.859C56.4656 18.835 56.5856 18.823 56.6816 18.823C56.8496 18.847 57.0176 18.871 57.1856 18.895C57.3536 18.895 57.4376 18.967 57.4376 19.111C57.4376 19.207 57.3416 19.411 57.1496 19.723C56.9576 20.011 56.7896 20.227 56.6456 20.371L56.4296 20.587C57.3896 20.155 58.2536 19.819 59.0216 19.579C59.8136 19.339 60.4736 19.219 61.0016 19.219C61.3376 19.219 61.6736 19.339 62.0096 19.579C62.3456 19.795 62.5136 20.059 62.5136 20.371ZM53.6936 22.567C52.4696 23.239 51.1736 24.019 49.8056 24.907C48.4376 25.771 47.0936 26.707 45.7736 27.715C44.4536 28.747 43.1816 29.815 41.9576 30.919C40.7336 32.047 39.6656 33.163 38.7536 34.267C37.8416 35.395 37.1096 36.499 36.5576 37.579C36.0056 38.683 35.7296 39.715 35.7296 40.675C35.7296 40.867 35.8016 41.095 35.9456 41.359C36.0656 41.623 36.3296 41.755 36.7376 41.755C37.2656 41.755 37.9496 41.419 38.7896 40.747C39.6056 40.099 40.5296 39.235 41.5616 38.155C42.5696 37.099 43.6256 35.887 44.7296 34.519C45.8336 33.175 46.9376 31.783 48.0416 30.343C49.1216 28.927 50.1416 27.535 51.1016 26.167C52.0856 24.823 52.9496 23.623 53.6936 22.567ZM78.1859 20.047C78.1859 20.095 78.0899 20.263 77.8979 20.551C77.7059 20.815 77.4899 21.115 77.2499 21.451C77.0339 21.787 76.8179 22.135 76.6019 22.495C76.4099 22.831 76.2779 23.095 76.2059 23.287C76.0859 23.623 76.0739 23.923 76.1699 24.187C76.2899 24.451 76.6499 24.607 77.2499 24.655C77.5139 24.679 77.8259 24.667 78.1859 24.619C78.5459 24.547 78.9059 24.463 79.2659 24.367C79.6259 24.271 79.9499 24.175 80.2379 24.079C80.5499 23.983 80.7899 23.911 80.9579 23.863C81.4139 23.767 81.7619 23.671 82.0019 23.575C82.2659 23.455 82.4939 23.383 82.6859 23.359C82.7339 23.359 82.7699 23.395 82.7939 23.467C82.8179 23.539 82.8179 23.599 82.7939 23.647C82.7219 23.767 82.6499 23.839 82.5779 23.863L80.7779 24.439C80.5139 24.511 80.1659 24.619 79.7339 24.763C79.3019 24.883 78.8459 25.003 78.3659 25.123C77.8859 25.243 77.4179 25.339 76.9619 25.411C76.5059 25.507 76.1219 25.543 75.8099 25.519C75.4979 25.495 75.2579 25.423 75.0899 25.303C74.9219 25.207 74.8019 25.087 74.7299 24.943C74.6579 24.799 74.6219 24.631 74.6219 24.439C74.6459 24.247 74.6819 24.055 74.7299 23.863C74.7779 23.695 74.8859 23.479 75.0539 23.215C75.2219 22.927 75.4019 22.639 75.5939 22.351C75.7859 22.063 75.9659 21.775 76.1339 21.487C76.3259 21.199 76.4579 20.959 76.5299 20.767C76.6019 20.575 76.5899 20.443 76.4939 20.371C76.4219 20.299 76.2299 20.335 75.9179 20.479C75.9179 20.479 75.7619 20.575 75.4499 20.767C75.1619 20.959 74.7899 21.187 74.3339 21.451C73.9019 21.715 73.4459 21.991 72.9659 22.279C72.4859 22.567 72.0779 22.795 71.7419 22.963C71.6939 22.987 71.6459 22.999 71.5979 22.999C71.5739 22.975 71.5379 22.975 71.4899 22.999C71.3699 22.999 71.2739 22.987 71.2019 22.963C71.1539 22.915 71.1179 22.879 71.0939 22.855C71.0939 22.783 71.1659 22.723 71.3099 22.675C71.8139 22.435 72.3779 22.135 73.0019 21.775C73.6499 21.415 74.2619 21.055 74.8379 20.695C75.4139 20.335 75.9179 20.011 76.3499 19.723C76.7819 19.435 77.0339 19.267 77.1059 19.219C77.1779 19.171 77.2619 19.147 77.3579 19.147C77.4779 19.123 77.5619 19.111 77.6099 19.111C78.0179 19.063 78.2339 19.147 78.2579 19.363C78.3059 19.555 78.2819 19.783 78.1859 20.047ZM93.2249 23.107C93.2249 23.179 93.2009 23.239 93.1529 23.287C93.1289 23.311 93.0929 23.335 93.0449 23.359C91.5569 24.031 90.3089 24.367 89.3009 24.367C88.6769 24.367 88.1969 24.175 87.8609 23.791C87.2369 24.415 86.5289 24.943 85.7369 25.375C84.9689 25.807 84.2009 26.023 83.4329 26.023C83.0969 26.023 82.8329 25.939 82.6409 25.771C82.4489 25.627 82.3529 25.363 82.3529 24.979C82.3529 24.499 82.5689 23.911 83.0009 23.215C83.4569 22.519 83.9969 21.847 84.6209 21.199C85.2449 20.551 85.8809 19.999 86.5289 19.543C87.2009 19.087 87.7529 18.859 88.1849 18.859C88.3049 18.859 88.4129 18.907 88.5089 19.003C88.6289 19.075 88.6889 19.147 88.6889 19.219C88.6889 19.267 88.6529 19.303 88.5809 19.327C88.5089 19.327 88.4369 19.327 88.3649 19.327C88.0769 19.327 87.6689 19.519 87.1409 19.903C86.6369 20.263 86.1329 20.695 85.6289 21.199C85.1249 21.703 84.6929 22.231 84.3329 22.783C83.9729 23.335 83.7929 23.791 83.7929 24.151C83.7929 24.679 84.0569 24.943 84.5849 24.943C85.0169 24.943 85.4969 24.799 86.0249 24.511C86.5769 24.199 87.0929 23.827 87.5729 23.395C87.4049 23.083 87.3209 22.687 87.3209 22.207C87.3209 21.871 87.3689 21.535 87.4649 21.199C87.5849 20.839 87.7409 20.527 87.9329 20.263C88.1249 19.999 88.3529 19.783 88.6169 19.615C88.9049 19.447 89.2169 19.363 89.5529 19.363C90.0089 19.363 90.2369 19.579 90.2369 20.011C90.2369 20.395 90.0689 20.875 89.7329 21.451C89.4209 22.027 88.9889 22.615 88.4369 23.215C88.7009 23.551 89.0849 23.719 89.5889 23.719C89.9249 23.719 90.2729 23.683 90.6329 23.611C90.9929 23.539 91.3289 23.467 91.6409 23.395C91.9769 23.299 92.2649 23.203 92.5049 23.107C92.7449 23.011 92.9249 22.927 93.0449 22.855H93.0809C93.1289 22.855 93.1649 22.891 93.1889 22.963C93.2129 23.011 93.2249 23.059 93.2249 23.107ZM89.5889 20.587C89.5889 20.251 89.3729 20.083 88.9409 20.083C88.6769 20.083 88.4489 20.263 88.2569 20.623C88.0889 20.959 88.0049 21.343 88.0049 21.775C88.0049 21.967 88.0169 22.147 88.0409 22.315C88.0649 22.483 88.1129 22.651 88.1849 22.819C88.5929 22.411 88.9289 22.003 89.1929 21.595C89.4569 21.187 89.5889 20.851 89.5889 20.587ZM102.142 23.107C102.142 23.203 102.106 23.275 102.034 23.323C101.05 23.731 100.09 24.091 99.154 24.403C98.362 24.667 97.534 24.919 96.67 25.159C95.83 25.399 95.122 25.519 94.546 25.519C93.994 25.519 93.49 25.339 93.034 24.979C92.578 24.619 92.35 24.103 92.35 23.431C92.35 22.807 92.578 22.183 93.034 21.559C93.49 20.911 94.042 20.335 94.69 19.831C95.362 19.327 96.07 18.919 96.814 18.607C97.558 18.271 98.23 18.103 98.83 18.103C98.998 18.103 99.142 18.139 99.262 18.211C99.526 18.331 99.658 18.595 99.658 19.003C99.658 19.243 99.562 19.483 99.37 19.723C99.202 19.963 99.01 20.179 98.794 20.371C98.53 20.587 98.242 20.791 97.93 20.983C97.906 20.983 97.858 20.995 97.786 21.019C97.642 21.067 97.486 21.091 97.318 21.091C97.198 21.091 97.138 21.007 97.138 20.839C97.138 20.719 97.21 20.587 97.354 20.443C97.546 20.323 97.786 20.107 98.074 19.795C98.386 19.483 98.542 19.207 98.542 18.967C98.542 18.799 98.398 18.715 98.11 18.715C97.75 18.715 97.318 18.847 96.814 19.111C96.31 19.351 95.818 19.663 95.338 20.047C94.882 20.407 94.486 20.827 94.15 21.307C93.838 21.763 93.682 22.207 93.682 22.639C93.682 23.215 93.874 23.671 94.258 24.007C94.666 24.319 95.242 24.475 95.986 24.475C96.61 24.475 97.27 24.391 97.966 24.223C98.662 24.031 99.31 23.839 99.91 23.647C100.606 23.407 101.29 23.143 101.962 22.855C102.01 22.855 102.046 22.891 102.07 22.963C102.118 23.011 102.142 23.059 102.142 23.107ZM121.727 23.107C121.727 23.203 121.691 23.275 121.619 23.323L119.999 23.971C119.759 24.067 119.447 24.199 119.063 24.367C118.703 24.511 118.307 24.655 117.875 24.799C117.443 24.943 117.023 25.075 116.615 25.195C116.207 25.291 115.847 25.339 115.535 25.339C114.983 25.339 114.707 25.075 114.707 24.547C114.707 24.187 114.803 23.767 114.995 23.287C115.211 22.783 115.427 22.327 115.643 21.919C115.643 21.823 115.607 21.775 115.535 21.775C115.415 21.775 115.295 21.823 115.175 21.919C114.671 22.303 114.155 22.699 113.627 23.107C113.099 23.491 112.583 23.839 112.079 24.151C111.599 24.463 111.131 24.715 110.675 24.907C110.219 25.099 109.799 25.195 109.415 25.195C109.295 25.195 109.151 25.159 108.983 25.087C108.815 24.991 108.731 24.871 108.731 24.727C108.731 24.535 108.815 24.283 108.983 23.971C109.151 23.635 109.331 23.299 109.523 22.963C109.715 22.627 109.895 22.327 110.063 22.063C110.231 21.799 110.315 21.631 110.315 21.559C110.315 21.535 110.291 21.523 110.243 21.523C110.147 21.523 109.931 21.619 109.595 21.811C109.259 22.003 108.875 22.243 108.443 22.531C108.011 22.795 107.543 23.095 107.039 23.431C106.535 23.767 106.055 24.079 105.599 24.367C105.143 24.631 104.723 24.859 104.339 25.051C103.979 25.243 103.715 25.339 103.547 25.339C103.403 25.339 103.271 25.291 103.151 25.195C103.055 25.099 103.007 24.979 103.007 24.835C103.007 24.643 103.091 24.427 103.259 24.187C103.427 23.923 103.619 23.671 103.835 23.431C104.051 23.167 104.267 22.915 104.483 22.675C104.723 22.435 104.903 22.243 105.023 22.099C105.047 22.075 105.059 22.039 105.059 21.991C105.059 21.919 105.011 21.883 104.915 21.883C104.891 21.883 104.759 21.943 104.519 22.063C104.303 22.183 104.039 22.327 103.727 22.495C103.439 22.639 103.127 22.795 102.791 22.963C102.455 23.131 102.179 23.263 101.963 23.359C101.795 23.431 101.615 23.503 101.423 23.575C101.231 23.647 101.027 23.731 100.811 23.827C100.763 23.827 100.727 23.803 100.703 23.755C100.655 23.683 100.631 23.623 100.631 23.575C100.631 23.455 100.667 23.383 100.739 23.359C100.931 23.287 101.111 23.227 101.279 23.179C101.447 23.107 101.603 23.035 101.747 22.963C102.371 22.699 102.947 22.423 103.475 22.135C104.027 21.823 104.519 21.535 104.951 21.271C105.455 20.983 105.923 20.683 106.355 20.371C106.403 20.347 106.475 20.323 106.571 20.299C106.667 20.251 106.763 20.227 106.859 20.227C107.051 20.227 107.147 20.359 107.147 20.623C107.147 20.815 107.039 21.055 106.823 21.343C106.607 21.631 106.355 21.931 106.067 22.243C105.803 22.531 105.563 22.819 105.347 23.107C105.131 23.371 105.023 23.575 105.023 23.719C105.023 23.911 105.119 24.007 105.311 24.007C105.455 24.007 105.743 23.875 106.175 23.611C106.607 23.323 107.099 22.999 107.651 22.639C108.203 22.279 108.755 21.919 109.307 21.559C109.859 21.199 110.315 20.923 110.675 20.731C110.771 20.659 110.975 20.527 111.287 20.335C111.599 20.119 111.875 20.011 112.115 20.011C112.235 20.011 112.319 20.059 112.367 20.155C112.439 20.227 112.475 20.323 112.475 20.443C112.475 20.635 112.367 20.887 112.151 21.199C111.959 21.511 111.731 21.835 111.467 22.171C111.227 22.483 110.999 22.795 110.783 23.107C110.591 23.395 110.495 23.611 110.495 23.755C110.495 23.971 110.639 24.079 110.927 24.079C111.359 24.079 111.863 23.863 112.439 23.431C113.039 22.999 113.639 22.519 114.239 21.991C114.839 21.463 115.415 20.983 115.967 20.551C116.519 20.119 116.975 19.903 117.335 19.903C117.455 19.903 117.527 19.951 117.551 20.047C117.575 20.119 117.587 20.179 117.587 20.227C117.587 20.323 117.563 20.419 117.515 20.515C117.467 20.611 117.419 20.707 117.371 20.803C117.299 20.899 117.179 21.067 117.011 21.307C116.843 21.547 116.675 21.811 116.507 22.099C116.363 22.387 116.219 22.687 116.075 22.999C115.955 23.287 115.895 23.551 115.895 23.791C115.895 24.223 116.147 24.439 116.651 24.439C116.915 24.439 117.203 24.403 117.515 24.331C117.851 24.235 118.175 24.139 118.487 24.043C118.823 23.923 119.123 23.815 119.387 23.719C119.675 23.599 119.891 23.515 120.035 23.467C120.515 23.275 120.875 23.131 121.115 23.035C121.259 22.963 121.403 22.903 121.547 22.855C121.595 22.855 121.631 22.891 121.655 22.963C121.703 23.011 121.727 23.059 121.727 23.107ZM129.862 23.107C129.862 23.203 129.826 23.275 129.754 23.323C128.77 23.731 127.81 24.091 126.874 24.403C126.082 24.667 125.254 24.919 124.39 25.159C123.55 25.399 122.842 25.519 122.266 25.519C121.786 25.519 121.39 25.411 121.078 25.195C120.79 24.955 120.646 24.655 120.646 24.295C120.646 23.959 120.754 23.647 120.97 23.359C121.186 23.071 121.414 22.819 121.654 22.603C121.918 22.387 122.146 22.207 122.338 22.063C122.554 21.919 122.662 21.835 122.662 21.811C122.662 21.763 122.566 21.727 122.374 21.703C122.206 21.679 121.906 21.631 121.474 21.559C121.21 21.511 121.03 21.439 120.934 21.343C120.862 21.223 120.826 21.103 120.826 20.983C120.826 20.815 120.874 20.671 120.97 20.551C121.09 20.407 121.174 20.311 121.222 20.263C121.702 19.951 122.266 19.639 122.914 19.327C123.562 19.015 124.198 18.739 124.822 18.499C125.47 18.259 126.058 18.067 126.586 17.923C127.114 17.779 127.486 17.707 127.702 17.707C127.942 17.707 128.158 17.767 128.35 17.887C128.566 17.983 128.674 18.163 128.674 18.427C128.674 18.547 128.614 18.679 128.494 18.823C128.374 18.943 128.23 19.063 128.062 19.183C127.894 19.279 127.714 19.363 127.522 19.435C127.33 19.507 127.162 19.543 127.018 19.543C126.898 19.543 126.778 19.519 126.658 19.471C126.562 19.423 126.514 19.339 126.514 19.219C126.514 19.075 126.574 18.919 126.694 18.751C126.742 18.703 126.766 18.655 126.766 18.607C126.766 18.559 126.706 18.535 126.586 18.535C126.538 18.535 126.466 18.547 126.37 18.571C126.274 18.571 126.166 18.583 126.046 18.607C125.854 18.655 125.578 18.751 125.218 18.895C124.858 19.015 124.498 19.159 124.138 19.327C123.778 19.495 123.454 19.651 123.166 19.795C122.878 19.939 122.698 20.035 122.626 20.083C122.53 20.155 122.482 20.227 122.482 20.299C122.482 20.419 122.554 20.503 122.698 20.551C122.722 20.551 122.806 20.563 122.95 20.587C123.094 20.587 123.25 20.599 123.418 20.623C123.586 20.623 123.742 20.623 123.886 20.623C124.054 20.623 124.174 20.623 124.246 20.623C124.51 20.647 124.666 20.695 124.714 20.767C124.762 20.839 124.786 20.959 124.786 21.127C124.786 21.247 124.762 21.367 124.714 21.487C124.666 21.607 124.51 21.691 124.246 21.739C123.742 21.859 123.25 22.063 122.77 22.351C122.314 22.639 122.086 23.023 122.086 23.503C122.086 23.839 122.266 24.091 122.626 24.259C123.01 24.403 123.37 24.475 123.706 24.475C124.33 24.475 124.99 24.391 125.686 24.223C126.382 24.031 127.03 23.839 127.63 23.647C128.326 23.407 129.01 23.143 129.682 22.855C129.73 22.855 129.766 22.891 129.79 22.963C129.838 23.011 129.862 23.059 129.862 23.107ZM143.09 23.107C143.09 23.203 143.054 23.275 142.982 23.323L141.362 23.971C141.122 24.067 140.81 24.199 140.426 24.367C140.066 24.511 139.67 24.655 139.238 24.799C138.806 24.943 138.386 25.075 137.978 25.195C137.57 25.291 137.21 25.339 136.898 25.339C136.586 25.339 136.334 25.279 136.142 25.159C135.974 25.015 135.83 24.859 135.71 24.691C135.614 24.523 135.542 24.355 135.494 24.187C135.47 24.019 135.458 23.887 135.458 23.791C135.458 23.431 135.53 23.107 135.674 22.819C135.842 22.507 135.95 22.327 135.998 22.279C136.022 22.255 135.998 22.243 135.926 22.243C135.71 22.411 135.374 22.651 134.918 22.963C134.486 23.275 133.994 23.587 133.442 23.899C132.89 24.211 132.326 24.487 131.75 24.727C131.198 24.967 130.682 25.087 130.202 25.087C129.938 25.087 129.71 24.967 129.518 24.727C129.326 24.487 129.23 24.235 129.23 23.971C129.23 23.683 129.338 23.359 129.554 22.999C129.77 22.639 130.022 22.291 130.31 21.955C130.622 21.619 130.922 21.307 131.21 21.019C131.498 20.731 131.714 20.539 131.858 20.443C131.858 20.419 131.87 20.407 131.894 20.407H132.038C132.158 20.407 132.254 20.443 132.326 20.515C132.35 20.539 132.362 20.575 132.362 20.623C132.362 20.719 132.278 20.863 132.11 21.055C131.942 21.223 131.75 21.427 131.534 21.667C131.342 21.883 131.162 22.123 130.994 22.387C130.826 22.651 130.742 22.927 130.742 23.215C130.742 23.455 130.814 23.671 130.958 23.863C131.102 24.031 131.27 24.115 131.462 24.115C131.918 24.115 132.47 23.935 133.118 23.575C133.766 23.191 134.402 22.759 135.026 22.279C135.746 21.727 136.49 21.115 137.258 20.443C137.426 20.443 137.558 20.479 137.654 20.551C137.774 20.599 137.834 20.719 137.834 20.911C137.834 20.983 137.798 21.079 137.726 21.199C137.654 21.295 137.522 21.547 137.33 21.955C137.162 22.363 137.078 22.771 137.078 23.179C137.078 23.251 137.078 23.359 137.078 23.503C137.102 23.623 137.138 23.755 137.186 23.899C137.258 24.043 137.354 24.175 137.474 24.295C137.594 24.391 137.774 24.439 138.014 24.439C138.278 24.439 138.566 24.403 138.878 24.331C139.214 24.235 139.538 24.139 139.85 24.043C140.186 23.923 140.486 23.815 140.75 23.719C141.038 23.599 141.254 23.515 141.398 23.467C141.878 23.275 142.238 23.131 142.478 23.035C142.622 22.963 142.766 22.903 142.91 22.855C142.958 22.855 142.994 22.891 143.018 22.963C143.066 23.011 143.09 23.059 143.09 23.107ZM135.026 17.023C135.05 16.951 135.098 16.843 135.17 16.699C135.266 16.555 135.362 16.411 135.458 16.267C135.578 16.123 135.686 16.003 135.782 15.907C135.878 15.787 135.95 15.727 135.998 15.727C136.118 15.703 136.226 15.715 136.322 15.763C136.442 15.811 136.514 15.895 136.538 16.015C136.538 16.063 136.514 16.135 136.466 16.231C136.394 16.351 136.25 16.567 136.034 16.879C135.842 17.191 135.758 17.515 135.782 17.851C135.806 18.043 135.89 18.199 136.034 18.319C136.202 18.439 136.454 18.475 136.79 18.427C137.342 18.403 137.834 18.283 138.266 18.067C138.722 17.851 139.142 17.659 139.526 17.491C139.574 17.467 139.622 17.455 139.67 17.455C139.718 17.431 139.766 17.407 139.814 17.383C139.934 17.383 139.994 17.431 139.994 17.527C139.994 17.623 139.958 17.671 139.886 17.671C139.118 18.007 138.386 18.319 137.69 18.607C136.994 18.871 136.406 19.027 135.926 19.075C135.686 19.075 135.482 19.039 135.314 18.967C135.17 18.895 135.05 18.811 134.954 18.715C134.882 18.595 134.822 18.487 134.774 18.391C134.75 18.271 134.738 18.175 134.738 18.103C134.714 17.911 134.738 17.707 134.81 17.491C134.906 17.275 134.978 17.119 135.026 17.023Z" fill="#565452"></path> </svg> 