<?xml version="1.0" encoding="UTF-8"?> <svg xmlns="http://www.w3.org/2000/svg" width="165" height="44" viewBox="0 0 165 44" fill="none"> <path d="M38.9121 0.562955C38.9121 0.754955 38.7801 0.982956 38.5161 1.24696C36.7881 2.99896 35.2161 4.73896 33.8001 6.46696C32.3841 8.19496 31.0761 9.88696 29.8761 11.543C28.6761 13.175 27.5721 14.759 26.5641 16.295C25.5561 17.807 24.5961 19.235 23.6841 20.579C24.7161 20.627 25.5921 20.663 26.3121 20.687C27.0321 20.687 27.6801 20.687 28.2561 20.687C28.3761 20.687 28.5081 20.723 28.6521 20.795C28.7961 20.867 28.8681 20.987 28.8681 21.155C28.8681 21.299 28.8081 21.491 28.6881 21.731C28.5921 21.947 28.3041 22.055 27.8241 22.055C27.4881 22.055 26.8641 22.055 25.9521 22.055C25.0641 22.055 23.9961 22.031 22.7481 21.983C21.9081 23.231 21.0921 24.359 20.3001 25.367C19.5321 26.375 18.7521 27.239 17.9601 27.959C17.1921 28.679 16.4001 29.231 15.5841 29.615C14.7921 30.023 13.9401 30.227 13.0281 30.227C12.3801 30.227 11.8161 30.155 11.3361 30.011C10.8561 29.891 10.4241 29.699 10.0401 29.435C9.65613 29.195 9.28413 28.895 8.92413 28.535C8.58813 28.199 8.22813 27.827 7.84413 27.419C7.65213 27.227 7.55613 27.035 7.55613 26.843C7.55613 26.627 7.65213 26.519 7.84413 26.519C7.96413 26.519 8.10813 26.591 8.27613 26.735C8.44413 26.879 8.62413 27.119 8.81613 27.455C8.88813 27.575 9.04413 27.755 9.28413 27.995C9.52413 28.259 9.82413 28.511 10.1841 28.751C10.5681 28.991 11.0001 29.195 11.4801 29.363C11.9601 29.555 12.4761 29.651 13.0281 29.651C13.8201 29.651 14.5881 29.459 15.3321 29.075C16.0761 28.715 16.8081 28.187 17.5281 27.491C18.2481 26.819 18.9561 26.015 19.6521 25.079C20.3721 24.143 21.1041 23.111 21.8481 21.983C20.6241 21.959 19.3041 21.935 17.8881 21.911C16.4961 21.863 15.1161 21.827 13.7481 21.803C12.4041 21.779 11.1201 21.755 9.89613 21.731C8.67213 21.707 7.61613 21.683 6.72813 21.659C5.62413 23.003 4.59213 24.275 3.63213 25.475C2.69613 26.675 1.89213 27.779 1.22012 28.787C1.14812 28.907 1.06412 29.015 0.968125 29.111C0.872125 29.207 0.764125 29.255 0.644125 29.255C0.476125 29.255 0.380125 29.195 0.356125 29.075C0.308125 28.955 0.284125 28.799 0.284125 28.607C1.02812 27.527 1.83213 26.411 2.69613 25.259C3.58413 24.083 4.53213 22.871 5.54013 21.623C4.86813 21.623 4.23213 21.623 3.63213 21.623C3.03213 21.599 2.50413 21.587 2.04813 21.587H0.608125C0.296125 21.587 0.140125 21.479 0.140125 21.263C0.140125 21.143 0.176125 21.011 0.248125 20.867C0.320125 20.675 0.452125 20.531 0.644125 20.435C0.812125 20.339 0.992125 20.267 1.18412 20.219C1.40013 20.147 1.64013 20.123 1.90413 20.147L6.65613 20.219C7.92813 18.659 9.22413 17.087 10.5441 15.503C11.8881 13.895 13.2201 12.335 14.5401 10.823C15.8601 9.28696 17.1561 7.79896 18.4281 6.35896C19.7001 4.91896 20.8881 3.58696 21.9921 2.36296C22.1841 2.19496 22.3281 2.08696 22.4241 2.03896C22.5441 1.99096 22.6521 1.96696 22.7481 1.96696C22.8681 1.96696 23.0121 2.00296 23.1801 2.07496C23.3481 2.12296 23.4321 2.23096 23.4321 2.39895C23.4321 2.56696 23.3361 2.75896 23.1441 2.97496C21.4881 4.75096 19.7961 6.61096 18.0681 8.55496C16.5801 10.211 14.9481 12.059 13.1721 14.099C11.3961 16.139 9.64413 18.191 7.91613 20.255C11.4921 20.303 14.4561 20.363 16.8081 20.435C19.1841 20.483 21.1641 20.531 22.7481 20.579C23.7081 19.043 24.7041 17.411 25.7361 15.683C26.7921 13.955 27.9081 12.215 29.0841 10.463C30.2841 8.68696 31.5561 6.94696 32.9001 5.24296C34.2681 3.53896 35.7441 1.93096 37.3281 0.418957C37.4481 0.370956 37.5681 0.322956 37.6881 0.274956C37.8081 0.226956 37.9161 0.190955 38.0121 0.166956C38.1321 0.142956 38.2521 0.130956 38.3721 0.130956C38.5161 0.130956 38.6361 0.178956 38.7321 0.274956C38.8521 0.346956 38.9121 0.442955 38.9121 0.562955ZM39.6054 24.107C39.6054 24.203 39.5694 24.275 39.4974 24.323L37.8774 24.971C37.6374 25.067 37.3254 25.199 36.9414 25.367C36.5814 25.511 36.1854 25.655 35.7534 25.799C35.3214 25.943 34.9014 26.075 34.4934 26.195C34.0854 26.291 33.7254 26.339 33.4134 26.339C32.9094 26.339 32.6574 26.183 32.6574 25.871C32.6574 25.775 32.6694 25.655 32.6934 25.511C32.7414 25.343 32.8254 25.175 32.9454 25.007C32.7534 25.151 32.4894 25.319 32.1534 25.511C31.8174 25.679 31.4574 25.847 31.0734 26.015C30.6894 26.159 30.2934 26.291 29.8854 26.411C29.5014 26.531 29.1534 26.591 28.8414 26.591C28.3854 26.591 28.0614 26.495 27.8694 26.303C27.6534 26.135 27.5454 25.919 27.5454 25.655C27.5454 25.199 27.7854 24.635 28.2654 23.963C28.7454 23.291 29.3574 22.655 30.1014 22.055C30.8454 21.431 31.6614 20.903 32.5494 20.471C33.4374 20.039 34.2894 19.823 35.1054 19.823C35.5134 19.823 35.8014 19.895 35.9694 20.039C36.1374 20.183 36.2214 20.387 36.2214 20.651C36.2214 21.035 36.0414 21.383 35.6814 21.695C35.3454 22.007 35.0214 22.259 34.7094 22.451C34.6134 22.499 34.5414 22.523 34.4934 22.523C34.4454 22.523 34.3734 22.499 34.2774 22.451C34.2054 22.379 34.1694 22.295 34.1694 22.199C34.1694 22.079 34.2654 21.899 34.4574 21.659C34.5534 21.563 34.6614 21.431 34.7814 21.263C34.9254 21.071 34.9974 20.915 34.9974 20.795C34.9974 20.699 34.9494 20.627 34.8534 20.579C34.7814 20.507 34.6134 20.471 34.3494 20.471C33.9414 20.471 33.4374 20.627 32.8374 20.939C32.2374 21.227 31.6614 21.599 31.1094 22.055C30.5574 22.487 30.0774 22.943 29.6694 23.423C29.2854 23.903 29.0934 24.323 29.0934 24.683C29.0934 24.947 29.2014 25.151 29.4174 25.295C29.6334 25.415 29.8734 25.475 30.1374 25.475C30.4014 25.475 30.7014 25.415 31.0374 25.295C31.3734 25.175 31.6974 25.043 32.0094 24.899C32.3214 24.755 32.5974 24.611 32.8374 24.467C33.1014 24.299 33.2694 24.179 33.3414 24.107C33.3894 24.059 33.4614 23.987 33.5574 23.891C33.6534 23.795 33.7494 23.747 33.8454 23.747C33.8934 23.747 33.9654 23.771 34.0614 23.819C34.1574 23.867 34.2054 23.951 34.2054 24.071C34.0854 24.263 34.0014 24.431 33.9534 24.575C33.9054 24.719 33.8814 24.851 33.8814 24.971C33.8814 25.283 34.0974 25.439 34.5294 25.439C34.7934 25.439 35.0814 25.403 35.3934 25.331C35.7294 25.235 36.0534 25.139 36.3654 25.043C36.7014 24.923 37.0014 24.815 37.2654 24.719C37.5534 24.599 37.7694 24.515 37.9134 24.467C38.3934 24.275 38.7534 24.131 38.9934 24.035C39.1374 23.963 39.2814 23.903 39.4254 23.855C39.4734 23.855 39.5094 23.891 39.5334 23.963C39.5814 24.011 39.6054 24.059 39.6054 24.107ZM44.5765 23.963C44.2645 24.179 43.9045 24.419 43.4965 24.683C43.0885 24.947 42.6565 25.199 42.2005 25.439C41.7685 25.655 41.3365 25.835 40.9045 25.979C40.4725 26.123 40.0645 26.195 39.6805 26.195C39.4165 26.195 39.1885 26.075 38.9965 25.835C38.8045 25.595 38.7085 25.343 38.7085 25.079C38.7085 24.815 38.8165 24.503 39.0325 24.143C39.2485 23.759 39.5005 23.399 39.7885 23.063C40.1005 22.703 40.4005 22.391 40.6885 22.127C40.9765 21.839 41.1925 21.647 41.3365 21.551C41.3365 21.527 41.3485 21.515 41.3725 21.515H41.5165C41.6365 21.515 41.7325 21.551 41.8045 21.623C41.8285 21.647 41.8405 21.683 41.8405 21.731C41.8405 21.827 41.7565 21.971 41.5885 22.163C41.4205 22.331 41.2285 22.535 41.0125 22.775C40.8205 22.991 40.6405 23.231 40.4725 23.495C40.3045 23.759 40.2205 24.035 40.2205 24.323C40.2205 24.563 40.2925 24.779 40.4365 24.971C40.5805 25.139 40.7485 25.223 40.9405 25.223C41.3965 25.223 41.9485 25.043 42.5965 24.683C43.2445 24.299 43.8805 23.867 44.5045 23.387C44.8645 23.123 45.2245 22.835 45.5845 22.523C45.9685 22.211 46.3525 21.887 46.7365 21.551C46.7365 21.527 46.7605 21.515 46.8085 21.515H46.9525C47.0725 21.515 47.1685 21.551 47.2405 21.623C47.2645 21.647 47.2765 21.683 47.2765 21.731C47.2765 21.827 47.1925 21.971 47.0245 22.163C46.8565 22.331 46.6645 22.535 46.4485 22.775C46.2565 22.991 46.0765 23.231 45.9085 23.495C45.7405 23.759 45.6565 24.035 45.6565 24.323C45.6565 24.563 45.7285 24.779 45.8725 24.971C46.0165 25.139 46.1845 25.223 46.3765 25.223C46.8325 25.223 47.3845 25.043 48.0325 24.683C48.6805 24.299 49.3165 23.867 49.9405 23.387C50.3005 23.123 50.6605 22.835 51.0205 22.523C51.4045 22.211 51.7885 21.887 52.1725 21.551C52.3405 21.551 52.4725 21.587 52.5685 21.659C52.6885 21.707 52.7485 21.827 52.7485 22.019C52.7485 22.115 52.7125 22.211 52.6405 22.307C52.5685 22.403 52.4365 22.655 52.2445 23.063C52.0765 23.471 51.9925 23.879 51.9925 24.287C51.9925 24.359 51.9925 24.467 51.9925 24.611C52.0165 24.731 52.0525 24.863 52.1005 25.007C52.1725 25.151 52.2685 25.283 52.3885 25.403C52.5085 25.499 52.6885 25.547 52.9285 25.547C53.1925 25.547 53.4805 25.511 53.7925 25.439C54.1285 25.343 54.4525 25.247 54.7645 25.151C55.1005 25.031 55.4005 24.923 55.6645 24.827C55.9525 24.707 56.1685 24.623 56.3125 24.575C56.7685 24.407 57.1285 24.263 57.3925 24.143C57.5845 24.047 57.7285 23.987 57.8245 23.963C57.9445 23.963 58.0045 24.047 58.0045 24.215C58.0045 24.335 57.9685 24.407 57.8965 24.431L56.2765 25.079C56.0365 25.175 55.7245 25.307 55.3405 25.475C54.9805 25.619 54.5845 25.763 54.1525 25.907C53.7205 26.051 53.3005 26.171 52.8925 26.267C52.4845 26.387 52.1245 26.447 51.8125 26.447C51.5005 26.447 51.2485 26.375 51.0565 26.231C50.8885 26.111 50.7445 25.967 50.6245 25.799C50.5285 25.631 50.4565 25.463 50.4085 25.295C50.3845 25.127 50.3725 24.995 50.3725 24.899C50.3725 24.539 50.4445 24.215 50.5885 23.927C50.7565 23.615 50.8645 23.435 50.9125 23.387C50.9365 23.363 50.9125 23.351 50.8405 23.351C50.6245 23.519 50.2885 23.759 49.8325 24.071C49.4005 24.383 48.9085 24.695 48.3565 25.007C47.8285 25.319 47.2645 25.595 46.6645 25.835C46.0885 26.075 45.5725 26.195 45.1165 26.195C44.8525 26.195 44.6245 26.075 44.4325 25.835C44.2405 25.595 44.1445 25.343 44.1445 25.079C44.1445 24.911 44.1805 24.731 44.2525 24.539C44.3485 24.347 44.4565 24.155 44.5765 23.963ZM68.8554 24.107C68.8554 24.203 68.8194 24.275 68.7474 24.323L67.1274 24.971C66.8874 25.067 66.5754 25.199 66.1914 25.367C65.8314 25.511 65.4354 25.655 65.0034 25.799C64.5714 25.943 64.1514 26.075 63.7434 26.195C63.3354 26.291 62.9754 26.339 62.6634 26.339C62.1594 26.339 61.9074 26.183 61.9074 25.871C61.9074 25.775 61.9194 25.655 61.9434 25.511C61.9914 25.343 62.0754 25.175 62.1954 25.007C62.0034 25.151 61.7394 25.319 61.4034 25.511C61.0674 25.679 60.7074 25.847 60.3234 26.015C59.9394 26.159 59.5434 26.291 59.1354 26.411C58.7514 26.531 58.4034 26.591 58.0914 26.591C57.6354 26.591 57.3114 26.495 57.1194 26.303C56.9034 26.135 56.7954 25.919 56.7954 25.655C56.7954 25.199 57.0354 24.635 57.5154 23.963C57.9954 23.291 58.6074 22.655 59.3514 22.055C60.0954 21.431 60.9114 20.903 61.7994 20.471C62.6874 20.039 63.5394 19.823 64.3554 19.823C64.7634 19.823 65.0514 19.895 65.2194 20.039C65.3874 20.183 65.4714 20.387 65.4714 20.651C65.4714 21.035 65.2914 21.383 64.9314 21.695C64.5954 22.007 64.2714 22.259 63.9594 22.451C63.8634 22.499 63.7914 22.523 63.7434 22.523C63.6954 22.523 63.6234 22.499 63.5274 22.451C63.4554 22.379 63.4194 22.295 63.4194 22.199C63.4194 22.079 63.5154 21.899 63.7074 21.659C63.8034 21.563 63.9114 21.431 64.0314 21.263C64.1754 21.071 64.2474 20.915 64.2474 20.795C64.2474 20.699 64.1994 20.627 64.1034 20.579C64.0314 20.507 63.8634 20.471 63.5994 20.471C63.1914 20.471 62.6874 20.627 62.0874 20.939C61.4874 21.227 60.9114 21.599 60.3594 22.055C59.8074 22.487 59.3274 22.943 58.9194 23.423C58.5354 23.903 58.3434 24.323 58.3434 24.683C58.3434 24.947 58.4514 25.151 58.6674 25.295C58.8834 25.415 59.1234 25.475 59.3874 25.475C59.6514 25.475 59.9514 25.415 60.2874 25.295C60.6234 25.175 60.9474 25.043 61.2594 24.899C61.5714 24.755 61.8474 24.611 62.0874 24.467C62.3514 24.299 62.5194 24.179 62.5914 24.107C62.6394 24.059 62.7114 23.987 62.8074 23.891C62.9034 23.795 62.9994 23.747 63.0954 23.747C63.1434 23.747 63.2154 23.771 63.3114 23.819C63.4074 23.867 63.4554 23.951 63.4554 24.071C63.3354 24.263 63.2514 24.431 63.2034 24.575C63.1554 24.719 63.1314 24.851 63.1314 24.971C63.1314 25.283 63.3474 25.439 63.7794 25.439C64.0434 25.439 64.3314 25.403 64.6434 25.331C64.9794 25.235 65.3034 25.139 65.6154 25.043C65.9514 24.923 66.2514 24.815 66.5154 24.719C66.8034 24.599 67.0194 24.515 67.1634 24.467C67.6434 24.275 68.0034 24.131 68.2434 24.035C68.3874 23.963 68.5314 23.903 68.6754 23.855C68.7234 23.855 68.7594 23.891 68.7834 23.963C68.8314 24.011 68.8554 24.059 68.8554 24.107ZM84.9935 24.107C84.9935 24.203 84.9575 24.275 84.8855 24.323C83.9015 24.731 82.9415 25.091 82.0055 25.403C81.2135 25.667 80.3855 25.919 79.5215 26.159C78.6815 26.399 77.9735 26.519 77.3975 26.519C76.8455 26.519 76.3415 26.339 75.8855 25.979C75.4295 25.619 75.2015 25.103 75.2015 24.431C75.2015 23.807 75.4295 23.183 75.8855 22.559C76.3415 21.911 76.8935 21.335 77.5415 20.831C78.2135 20.327 78.9215 19.919 79.6655 19.607C80.4095 19.271 81.0815 19.103 81.6815 19.103C81.8495 19.103 81.9935 19.139 82.1135 19.211C82.3775 19.331 82.5095 19.595 82.5095 20.003C82.5095 20.243 82.4135 20.483 82.2215 20.723C82.0535 20.963 81.8615 21.179 81.6455 21.371C81.3815 21.587 81.0935 21.791 80.7815 21.983C80.7575 21.983 80.7095 21.995 80.6375 22.019C80.4935 22.067 80.3375 22.091 80.1695 22.091C80.0495 22.091 79.9895 22.007 79.9895 21.839C79.9895 21.719 80.0615 21.587 80.2055 21.443C80.3975 21.323 80.6375 21.107 80.9255 20.795C81.2375 20.483 81.3935 20.207 81.3935 19.967C81.3935 19.799 81.2495 19.715 80.9615 19.715C80.6015 19.715 80.1695 19.847 79.6655 20.111C79.1615 20.351 78.6695 20.663 78.1895 21.047C77.7335 21.407 77.3375 21.827 77.0015 22.307C76.6895 22.763 76.5335 23.207 76.5335 23.639C76.5335 24.215 76.7255 24.671 77.1095 25.007C77.5175 25.319 78.0935 25.475 78.8375 25.475C79.4615 25.475 80.1215 25.391 80.8175 25.223C81.5135 25.031 82.1615 24.839 82.7615 24.647C83.4575 24.407 84.1415 24.143 84.8135 23.855C84.8615 23.855 84.8975 23.891 84.9215 23.963C84.9695 24.011 84.9935 24.059 84.9935 24.107ZM106.954 2.79496C106.954 3.51496 106.606 4.45096 105.91 5.60296C105.214 6.75496 104.29 8.01496 103.138 9.38296C102.01 10.727 100.702 12.119 99.2144 13.559C97.7504 14.999 96.2504 16.379 94.7144 17.699C93.1784 18.995 91.6544 20.171 90.1424 21.227C88.6544 22.283 87.3104 23.099 86.1104 23.675C86.1344 24.515 86.3264 25.103 86.6864 25.439C87.0704 25.775 87.5144 25.943 88.0184 25.943C88.4984 25.943 88.9664 25.835 89.4224 25.619C89.8784 25.379 90.2864 25.079 90.6464 24.719C91.0064 24.359 91.2944 23.963 91.5104 23.531C91.7264 23.099 91.8344 22.691 91.8344 22.307C91.8344 22.115 91.8224 21.959 91.7984 21.839C91.7744 21.719 91.7624 21.599 91.7624 21.479C91.7624 21.335 91.8104 21.251 91.9064 21.227C92.0264 21.179 92.1464 21.155 92.2664 21.155C92.3144 21.155 92.5664 21.155 93.0224 21.155C93.5024 21.155 94.0664 21.167 94.7144 21.191C95.3864 21.191 96.1064 21.191 96.8744 21.191C97.6424 21.191 98.3624 21.191 99.0344 21.191C99.2504 21.191 99.3584 21.239 99.3584 21.335C99.3584 21.455 99.2504 21.647 99.0344 21.911C98.7944 22.223 98.5304 22.379 98.2424 22.379C98.2184 22.379 98.1704 22.379 98.0984 22.379C98.0264 22.379 97.8104 22.379 97.4504 22.379C97.1144 22.355 96.5744 22.343 95.8304 22.343C95.0864 22.343 94.0424 22.343 92.6984 22.343C92.5784 22.895 92.3264 23.447 91.9424 23.999C91.5584 24.551 91.1024 25.043 90.5744 25.475C90.0704 25.907 89.5304 26.255 88.9544 26.519C88.3784 26.807 87.8264 26.951 87.2984 26.951C86.4584 26.951 85.8104 26.687 85.3544 26.159C84.8984 25.631 84.6704 24.947 84.6704 24.107C84.6704 22.883 85.0184 21.479 85.7144 19.895C86.4344 18.287 87.3704 16.643 88.5224 14.963C89.6984 13.283 91.0184 11.639 92.4824 10.031C93.9464 8.39896 95.4344 6.95896 96.9464 5.71096C98.4824 4.43896 99.9704 3.41896 101.41 2.65096C102.85 1.85896 104.11 1.46296 105.19 1.46296C106.366 1.46296 106.954 1.90696 106.954 2.79496ZM105.262 3.40696C105.262 2.68696 104.866 2.32696 104.074 2.32696C103.306 2.32696 102.334 2.68696 101.158 3.40696C99.9824 4.10296 98.7344 5.02696 97.4144 6.17896C96.1184 7.33096 94.8104 8.65096 93.4904 10.139C92.1704 11.603 90.9704 13.115 89.8904 14.675C88.8344 16.211 87.9584 17.723 87.2624 19.211C86.5664 20.675 86.1824 21.995 86.1104 23.171C87.6224 22.355 89.1464 21.383 90.6824 20.255C92.2424 19.103 93.7304 17.903 95.1464 16.655C96.5624 15.383 97.8824 14.087 99.1064 12.767C100.354 11.447 101.422 10.199 102.31 9.02296C103.222 7.82296 103.942 6.73096 104.47 5.74696C104.998 4.76296 105.262 3.98296 105.262 3.40696ZM109.285 24.107C109.285 24.203 109.249 24.275 109.177 24.323L107.557 24.971C107.317 25.067 107.005 25.199 106.621 25.367C106.261 25.511 105.865 25.655 105.433 25.799C105.001 25.943 104.581 26.075 104.173 26.195C103.765 26.291 103.405 26.339 103.093 26.339C102.589 26.339 102.337 26.183 102.337 25.871C102.337 25.775 102.349 25.655 102.373 25.511C102.421 25.343 102.505 25.175 102.625 25.007C102.433 25.151 102.169 25.319 101.833 25.511C101.497 25.679 101.137 25.847 100.753 26.015C100.369 26.159 99.9731 26.291 99.5651 26.411C99.1811 26.531 98.8331 26.591 98.5211 26.591C98.0651 26.591 97.7411 26.495 97.5491 26.303C97.3331 26.135 97.2251 25.919 97.2251 25.655C97.2251 25.199 97.4651 24.635 97.9451 23.963C98.4251 23.291 99.0371 22.655 99.7811 22.055C100.525 21.431 101.341 20.903 102.229 20.471C103.117 20.039 103.969 19.823 104.785 19.823C105.193 19.823 105.481 19.895 105.649 20.039C105.817 20.183 105.901 20.387 105.901 20.651C105.901 21.035 105.721 21.383 105.361 21.695C105.025 22.007 104.701 22.259 104.389 22.451C104.293 22.499 104.221 22.523 104.173 22.523C104.125 22.523 104.053 22.499 103.957 22.451C103.885 22.379 103.849 22.295 103.849 22.199C103.849 22.079 103.945 21.899 104.137 21.659C104.233 21.563 104.341 21.431 104.461 21.263C104.605 21.071 104.677 20.915 104.677 20.795C104.677 20.699 104.629 20.627 104.533 20.579C104.461 20.507 104.293 20.471 104.029 20.471C103.621 20.471 103.117 20.627 102.517 20.939C101.917 21.227 101.341 21.599 100.789 22.055C100.237 22.487 99.7571 22.943 99.3491 23.423C98.9651 23.903 98.7731 24.323 98.7731 24.683C98.7731 24.947 98.8811 25.151 99.0971 25.295C99.3131 25.415 99.5531 25.475 99.8171 25.475C100.081 25.475 100.381 25.415 100.717 25.295C101.053 25.175 101.377 25.043 101.689 24.899C102.001 24.755 102.277 24.611 102.517 24.467C102.781 24.299 102.949 24.179 103.021 24.107C103.069 24.059 103.141 23.987 103.237 23.891C103.333 23.795 103.429 23.747 103.525 23.747C103.573 23.747 103.645 23.771 103.741 23.819C103.837 23.867 103.885 23.951 103.885 24.071C103.765 24.263 103.681 24.431 103.633 24.575C103.585 24.719 103.561 24.851 103.561 24.971C103.561 25.283 103.777 25.439 104.209 25.439C104.473 25.439 104.761 25.403 105.073 25.331C105.409 25.235 105.733 25.139 106.045 25.043C106.381 24.923 106.681 24.815 106.945 24.719C107.233 24.599 107.449 24.515 107.593 24.467C108.073 24.275 108.433 24.131 108.673 24.035C108.817 23.963 108.961 23.903 109.105 23.855C109.153 23.855 109.189 23.891 109.213 23.963C109.261 24.011 109.285 24.059 109.285 24.107ZM122.068 28.499C122.068 28.811 121.912 28.991 121.6 29.039C121.312 29.111 121.036 29.147 120.772 29.147C120.676 29.147 120.376 29.135 119.872 29.111C119.368 29.087 118.78 29.063 118.108 29.039C117.46 29.039 116.764 29.027 116.02 29.003C115.3 28.979 114.652 28.967 114.076 28.967C113.452 28.967 112.84 28.979 112.24 29.003C111.664 29.051 111.088 29.123 110.512 29.219C109.144 30.947 107.764 32.687 106.372 34.439C104.956 36.215 103.612 37.799 102.34 39.191C101.044 40.607 99.8682 41.759 98.8122 42.647C97.7322 43.535 96.8682 43.979 96.2202 43.979C95.6682 43.979 95.2362 43.799 94.9242 43.439C94.6122 43.103 94.4562 42.659 94.4562 42.107C94.4562 40.955 94.8042 39.683 95.5002 38.291C96.1962 36.923 97.2282 35.579 98.5962 34.259C99.9642 32.963 101.656 31.775 103.672 30.695C105.688 29.639 108.004 28.835 110.62 28.283C111.34 27.323 111.916 26.531 112.348 25.907C112.804 25.259 113.032 24.875 113.032 24.755C113.032 24.659 112.996 24.611 112.924 24.611C112.852 24.611 112.756 24.647 112.636 24.719C112.492 24.791 112.3 24.887 112.06 25.007C111.844 25.127 111.592 25.247 111.304 25.367C111.016 25.463 110.716 25.547 110.404 25.619C110.116 25.691 109.84 25.727 109.576 25.727C109.24 25.727 108.94 25.643 108.676 25.475C108.436 25.283 108.316 24.983 108.316 24.575C108.316 23.783 108.652 23.039 109.324 22.343C109.996 21.647 110.788 21.047 111.7 20.543C112.612 20.039 113.524 19.643 114.436 19.355C115.372 19.043 116.08 18.887 116.56 18.887C116.848 18.887 117.136 18.959 117.424 19.103C117.712 19.247 117.868 19.523 117.892 19.931C117.892 20.075 117.808 20.255 117.64 20.471C117.472 20.663 117.268 20.843 117.028 21.011C116.788 21.179 116.548 21.323 116.308 21.443C116.092 21.563 115.912 21.623 115.768 21.623C115.624 21.623 115.516 21.575 115.444 21.479C115.372 21.383 115.336 21.275 115.336 21.155C115.336 21.011 115.396 20.903 115.516 20.831C115.564 20.783 115.636 20.723 115.732 20.651C115.852 20.579 115.972 20.507 116.092 20.435C116.284 20.291 116.38 20.111 116.38 19.895C116.38 19.679 116.236 19.571 115.948 19.571C115.444 19.571 114.856 19.727 114.184 20.039C113.512 20.327 112.864 20.699 112.24 21.155C111.64 21.587 111.124 22.067 110.692 22.595C110.26 23.123 110.044 23.615 110.044 24.071C110.044 24.287 110.128 24.443 110.296 24.539C110.464 24.635 110.644 24.683 110.836 24.683C111.172 24.683 111.532 24.611 111.916 24.467C112.3 24.323 112.672 24.155 113.032 23.963C113.416 23.747 113.776 23.519 114.112 23.279C114.472 23.039 114.772 22.823 115.012 22.631C115.108 22.535 115.204 22.487 115.3 22.487C115.42 22.487 115.48 22.559 115.48 22.703C115.48 22.871 115.42 23.027 115.3 23.171C114.7 23.915 114.064 24.707 113.392 25.547C112.72 26.363 112.036 27.227 111.34 28.139C112.276 27.971 113.236 27.839 114.22 27.743C115.204 27.671 116.236 27.635 117.316 27.635C118.132 27.635 118.828 27.647 119.404 27.671C120.004 27.695 120.424 27.707 120.664 27.707C121.168 27.731 121.528 27.791 121.744 27.887C121.96 27.983 122.068 28.187 122.068 28.499ZM109.792 29.327C107.752 29.711 105.892 30.323 104.212 31.163C102.508 32.003 101.044 32.963 99.8202 34.043C98.5962 35.147 97.6482 36.335 96.9762 37.607C96.3042 38.879 95.9682 40.139 95.9682 41.387C95.9682 41.771 96.0402 42.107 96.1842 42.395C96.3042 42.683 96.5322 42.827 96.8682 42.827C97.1562 42.827 97.5762 42.611 98.1282 42.179C98.6802 41.771 99.3282 41.219 100.072 40.523C100.792 39.827 101.572 39.011 102.412 38.075C103.252 37.163 104.104 36.203 104.968 35.195C105.832 34.211 106.684 33.203 107.524 32.171C108.34 31.163 109.096 30.215 109.792 29.327ZM121.52 24.503C121.856 24.215 122.108 23.915 122.276 23.603C122.468 23.291 122.564 23.015 122.564 22.775C122.564 22.319 122.336 22.091 121.88 22.091C121.616 22.091 121.376 22.199 121.16 22.415C120.968 22.631 120.836 22.883 120.764 23.171C120.716 23.459 120.74 23.735 120.836 23.999C120.956 24.263 121.184 24.431 121.52 24.503ZM122.06 24.719C122.3 24.839 122.6 24.899 122.96 24.899C123.32 24.875 123.68 24.827 124.04 24.755C124.424 24.659 124.772 24.539 125.084 24.395C125.42 24.251 125.684 24.095 125.876 23.927C125.948 23.879 125.984 23.915 125.984 24.035C126.008 24.155 125.996 24.239 125.948 24.287C125.756 24.527 125.468 24.731 125.084 24.899C124.724 25.043 124.328 25.163 123.896 25.259C123.488 25.331 123.068 25.367 122.636 25.367C122.228 25.343 121.892 25.271 121.628 25.151C120.956 25.703 120.392 26.039 119.936 26.159C119.504 26.279 119.012 26.339 118.46 26.339C117.572 26.339 117.104 25.967 117.056 25.223C117.032 24.815 117.164 24.359 117.452 23.855C117.74 23.327 118.088 22.811 118.496 22.307C118.928 21.779 119.384 21.275 119.864 20.795C120.344 20.291 120.788 19.859 121.196 19.499C121.796 18.947 122.252 18.599 122.564 18.455C122.9 18.311 123.128 18.275 123.248 18.347C123.368 18.419 123.416 18.551 123.392 18.743C123.392 18.935 123.356 19.091 123.284 19.211C123.236 19.307 123.032 19.487 122.672 19.751C122.312 19.991 121.796 20.387 121.124 20.939C120.356 21.707 119.696 22.427 119.144 23.099C118.592 23.771 118.316 24.299 118.316 24.683C118.316 24.947 118.436 25.163 118.676 25.331C118.94 25.475 119.192 25.547 119.432 25.547C119.744 25.547 120.008 25.511 120.224 25.439C120.464 25.343 120.74 25.163 121.052 24.899C120.62 24.683 120.344 24.371 120.224 23.963C120.104 23.531 120.104 23.099 120.224 22.667C120.344 22.235 120.596 21.863 120.98 21.551C121.364 21.239 121.844 21.095 122.42 21.119C122.828 21.143 123.092 21.299 123.212 21.587C123.356 21.875 123.392 22.211 123.32 22.595C123.248 22.979 123.092 23.375 122.852 23.783C122.636 24.167 122.372 24.479 122.06 24.719ZM132.166 21.587C132.358 20.675 132.358 19.847 132.166 19.103C131.998 18.335 131.77 17.603 131.482 16.907C131.194 16.187 130.906 15.467 130.618 14.747C130.354 14.027 130.222 13.247 130.222 12.407C130.222 11.687 130.618 11.147 131.41 10.787C132.202 10.403 133.126 10.139 134.182 9.99496C135.262 9.82696 136.33 9.74296 137.386 9.74296C138.466 9.71896 139.294 9.70696 139.87 9.70696C140.302 9.70696 140.662 9.68296 140.95 9.63496C141.238 9.58696 141.442 9.56296 141.562 9.56296C141.754 9.56296 141.85 9.73096 141.85 10.067C141.85 10.259 141.718 10.427 141.454 10.571C141.214 10.715 140.902 10.835 140.518 10.931C140.134 11.027 139.726 11.099 139.294 11.147C138.862 11.195 138.466 11.219 138.106 11.219L131.59 11.435C131.206 11.459 130.966 11.615 130.87 11.903C130.774 12.191 130.762 12.575 130.834 13.055C130.93 13.511 131.074 14.027 131.266 14.603C131.482 15.179 131.698 15.767 131.914 16.367C132.13 16.943 132.322 17.495 132.49 18.023C132.658 18.551 132.754 18.995 132.778 19.355C132.826 19.835 132.85 20.291 132.85 20.723C132.85 21.131 132.766 21.551 132.598 21.983C132.454 22.391 132.202 22.823 131.842 23.279C131.506 23.735 131.038 24.239 130.438 24.791C129.766 25.415 129.058 25.943 128.314 26.375C127.57 26.807 126.802 27.023 126.01 27.023C125.29 27.023 124.93 26.675 124.93 25.979C124.93 25.499 125.146 24.911 125.578 24.215C126.034 23.519 126.574 22.847 127.198 22.199C127.822 21.551 128.458 20.999 129.106 20.543C129.778 20.087 130.33 19.859 130.762 19.859C130.882 19.859 130.99 19.907 131.086 20.003C131.206 20.075 131.266 20.147 131.266 20.219C131.266 20.267 131.23 20.303 131.158 20.327C131.086 20.327 131.014 20.327 130.942 20.327C130.654 20.327 130.246 20.519 129.718 20.903C129.214 21.263 128.71 21.695 128.206 22.199C127.702 22.703 127.27 23.231 126.91 23.783C126.55 24.335 126.37 24.791 126.37 25.151C126.37 25.679 126.634 25.943 127.162 25.943C127.738 25.943 128.314 25.739 128.89 25.331C129.49 24.923 130.03 24.467 130.51 23.963C130.99 23.435 131.386 22.943 131.698 22.487C132.01 22.007 132.166 21.707 132.166 21.587ZM144.758 24.107C144.758 24.203 144.722 24.275 144.65 24.323L143.03 24.971C142.79 25.067 142.478 25.199 142.094 25.367C141.734 25.511 141.338 25.655 140.906 25.799C140.474 25.943 140.054 26.075 139.646 26.195C139.238 26.291 138.878 26.339 138.566 26.339C138.062 26.339 137.81 26.183 137.81 25.871C137.81 25.775 137.822 25.655 137.846 25.511C137.894 25.343 137.978 25.175 138.098 25.007C137.906 25.151 137.642 25.319 137.306 25.511C136.97 25.679 136.61 25.847 136.226 26.015C135.842 26.159 135.446 26.291 135.038 26.411C134.654 26.531 134.306 26.591 133.994 26.591C133.538 26.591 133.214 26.495 133.022 26.303C132.806 26.135 132.698 25.919 132.698 25.655C132.698 25.199 132.938 24.635 133.418 23.963C133.898 23.291 134.51 22.655 135.254 22.055C135.998 21.431 136.814 20.903 137.702 20.471C138.59 20.039 139.442 19.823 140.258 19.823C140.666 19.823 140.954 19.895 141.122 20.039C141.29 20.183 141.374 20.387 141.374 20.651C141.374 21.035 141.194 21.383 140.834 21.695C140.498 22.007 140.174 22.259 139.862 22.451C139.766 22.499 139.694 22.523 139.646 22.523C139.598 22.523 139.526 22.499 139.43 22.451C139.358 22.379 139.322 22.295 139.322 22.199C139.322 22.079 139.418 21.899 139.61 21.659C139.706 21.563 139.814 21.431 139.934 21.263C140.078 21.071 140.15 20.915 140.15 20.795C140.15 20.699 140.102 20.627 140.006 20.579C139.934 20.507 139.766 20.471 139.502 20.471C139.094 20.471 138.59 20.627 137.99 20.939C137.39 21.227 136.814 21.599 136.262 22.055C135.71 22.487 135.23 22.943 134.822 23.423C134.438 23.903 134.246 24.323 134.246 24.683C134.246 24.947 134.354 25.151 134.57 25.295C134.786 25.415 135.026 25.475 135.29 25.475C135.554 25.475 135.854 25.415 136.19 25.295C136.526 25.175 136.85 25.043 137.162 24.899C137.474 24.755 137.75 24.611 137.99 24.467C138.254 24.299 138.422 24.179 138.494 24.107C138.542 24.059 138.614 23.987 138.71 23.891C138.806 23.795 138.902 23.747 138.998 23.747C139.046 23.747 139.118 23.771 139.214 23.819C139.31 23.867 139.358 23.951 139.358 24.071C139.238 24.263 139.154 24.431 139.106 24.575C139.058 24.719 139.034 24.851 139.034 24.971C139.034 25.283 139.25 25.439 139.682 25.439C139.946 25.439 140.234 25.403 140.546 25.331C140.882 25.235 141.206 25.139 141.518 25.043C141.854 24.923 142.154 24.815 142.418 24.719C142.706 24.599 142.922 24.515 143.066 24.467C143.546 24.275 143.906 24.131 144.146 24.035C144.29 23.963 144.434 23.903 144.578 23.855C144.626 23.855 144.662 23.891 144.686 23.963C144.734 24.011 144.758 24.059 144.758 24.107ZM164.057 5.09896C164.057 5.26696 163.961 5.45896 163.769 5.67496C162.185 7.37896 160.577 9.15496 158.945 11.003C158.249 11.795 157.517 12.647 156.749 13.559C155.981 14.471 155.201 15.419 154.409 16.403C153.641 17.363 152.861 18.359 152.069 19.391C151.301 20.423 150.569 21.443 149.873 22.451C149.801 22.571 149.717 22.679 149.621 22.775C149.525 22.871 149.417 22.919 149.297 22.919C149.129 22.919 149.021 22.859 148.973 22.739C148.949 22.619 148.937 22.463 148.937 22.271C149.849 20.951 150.665 19.775 151.385 18.743C152.129 17.711 152.825 16.763 153.473 15.899C154.145 15.035 154.781 14.219 155.381 13.451C156.005 12.659 156.665 11.843 157.361 11.003C158.081 10.163 158.861 9.26296 159.701 8.30296C160.565 7.34296 161.537 6.26296 162.617 5.06296C162.809 4.89496 162.953 4.78696 163.049 4.73896C163.169 4.69096 163.277 4.66696 163.373 4.66696C163.493 4.66696 163.637 4.70296 163.805 4.77496C163.973 4.82296 164.057 4.93096 164.057 5.09896ZM148.613 25.835C148.589 26.291 148.397 26.675 148.037 26.987C147.677 27.299 147.341 27.455 147.029 27.455C146.741 27.455 146.513 27.371 146.345 27.203C146.201 27.035 146.129 26.867 146.129 26.699C146.129 26.291 146.285 25.919 146.597 25.583C146.933 25.247 147.305 25.079 147.713 25.079C147.929 25.055 148.097 25.091 148.217 25.187C148.361 25.259 148.457 25.343 148.505 25.439C148.577 25.535 148.613 25.667 148.613 25.835Z" fill="#565452"></path> </svg> 