<?xml version="1.0" encoding="UTF-8"?> <svg xmlns="http://www.w3.org/2000/svg" width="151" height="43" viewBox="0 0 151 43" fill="none"> <path d="M41.305 7.01496C41.305 8.02296 41.017 8.99496 40.441 9.93096C39.889 10.867 39.133 11.695 38.173 12.415C37.237 13.135 36.157 13.711 34.933 14.143C33.733 14.575 32.485 14.791 31.189 14.791C30.565 14.791 29.965 14.719 29.389 14.575C28.837 14.431 28.333 14.227 27.877 13.963C27.661 14.227 27.433 14.503 27.193 14.791C26.977 15.079 26.761 15.367 26.545 15.655C25.369 17.167 24.157 18.667 22.909 20.155C21.685 21.619 20.353 22.939 18.913 24.115C17.473 25.267 15.889 26.203 14.161 26.923C12.457 27.643 10.549 28.003 8.43703 28.003C7.26103 28.003 6.19303 27.811 5.23303 27.427C4.27303 27.043 3.44503 26.515 2.74903 25.843C2.07703 25.171 1.54903 24.379 1.16503 23.467C0.805032 22.531 0.625032 21.523 0.625032 20.443C0.625032 18.475 1.06903 16.615 1.95703 14.863C2.86903 13.087 4.08103 11.455 5.59303 9.96696C7.10503 8.45496 8.84503 7.09896 10.813 5.89896C12.805 4.67496 14.881 3.64296 17.041 2.80296C19.201 1.93896 21.385 1.27896 23.593 0.822956C25.801 0.366956 27.877 0.138956 29.821 0.138956C31.285 0.138956 32.701 0.294956 34.069 0.606956C35.461 0.918957 36.685 1.37496 37.741 1.97496C38.821 2.55096 39.685 3.27096 40.333 4.13496C40.981 4.97496 41.305 5.93496 41.305 7.01496ZM39.721 7.91496C39.721 6.97896 39.385 6.11496 38.713 5.32296C38.065 4.50696 37.189 3.81096 36.085 3.23496C34.981 2.63496 33.697 2.16696 32.233 1.83096C30.793 1.49496 29.293 1.32696 27.733 1.32696C25.453 1.32696 23.245 1.59096 21.109 2.11896C18.997 2.62296 17.005 3.31896 15.133 4.20696C13.261 5.09496 11.545 6.13896 9.98503 7.33896C8.44903 8.53896 7.11703 9.82296 5.98903 11.191C4.88503 12.535 4.02103 13.927 3.39703 15.367C2.77303 16.807 2.46103 18.223 2.46103 19.615C2.46103 20.743 2.64103 21.751 3.00103 22.639C3.38503 23.527 3.90103 24.283 4.54903 24.907C5.22103 25.531 6.00103 25.999 6.88903 26.311C7.80103 26.647 8.78503 26.815 9.84103 26.815C11.953 26.815 13.813 26.419 15.421 25.627C17.053 24.835 18.529 23.803 19.849 22.531C21.193 21.259 22.453 19.831 23.629 18.247C24.805 16.663 25.993 15.091 27.193 13.531C26.737 13.219 26.377 12.895 26.113 12.559C25.873 12.223 25.753 11.923 25.753 11.659C25.753 11.443 25.825 11.251 25.969 11.083C26.137 10.915 26.317 10.831 26.509 10.831C26.653 10.831 26.773 10.903 26.869 11.047C26.989 11.167 27.109 11.323 27.229 11.515C27.349 11.707 27.481 11.887 27.625 12.055C27.769 12.199 27.901 12.331 28.021 12.451C28.885 11.371 29.785 10.351 30.721 9.39096C31.681 8.40696 32.725 7.53096 33.853 6.76296C33.997 6.69096 34.177 6.65496 34.393 6.65496C34.609 6.65496 34.717 6.70296 34.717 6.79896C34.717 6.87096 34.573 7.01496 34.285 7.23096C33.277 7.99896 32.317 8.87496 31.405 9.85896C30.493 10.819 29.581 11.851 28.669 12.955C29.245 13.339 29.821 13.603 30.397 13.747C30.997 13.867 31.597 13.927 32.197 13.927C33.325 13.951 34.345 13.807 35.257 13.495C36.169 13.183 36.961 12.751 37.633 12.199C38.305 11.647 38.821 10.999 39.181 10.255C39.541 9.51096 39.721 8.73096 39.721 7.91496ZM35.1898 23.107C35.1898 23.203 35.1538 23.275 35.0818 23.323C34.0978 23.731 33.1378 24.091 32.2018 24.403C31.4098 24.667 30.5818 24.919 29.7178 25.159C28.8778 25.399 28.1698 25.519 27.5938 25.519C27.1138 25.519 26.7178 25.411 26.4058 25.195C26.1178 24.955 25.9738 24.655 25.9738 24.295C25.9738 23.959 26.0818 23.647 26.2978 23.359C26.5138 23.071 26.7418 22.819 26.9818 22.603C27.2458 22.387 27.4738 22.207 27.6658 22.063C27.8818 21.919 27.9898 21.835 27.9898 21.811C27.9898 21.763 27.8938 21.727 27.7018 21.703C27.5338 21.679 27.2338 21.631 26.8018 21.559C26.5378 21.511 26.3578 21.439 26.2618 21.343C26.1898 21.223 26.1538 21.103 26.1538 20.983C26.1538 20.815 26.2018 20.671 26.2978 20.551C26.4178 20.407 26.5018 20.311 26.5498 20.263C27.0298 19.951 27.5938 19.639 28.2418 19.327C28.8898 19.015 29.5258 18.739 30.1498 18.499C30.7978 18.259 31.3858 18.067 31.9138 17.923C32.4418 17.779 32.8138 17.707 33.0298 17.707C33.2698 17.707 33.4858 17.767 33.6778 17.887C33.8938 17.983 34.0018 18.163 34.0018 18.427C34.0018 18.547 33.9418 18.679 33.8218 18.823C33.7018 18.943 33.5578 19.063 33.3898 19.183C33.2218 19.279 33.0418 19.363 32.8498 19.435C32.6578 19.507 32.4898 19.543 32.3458 19.543C32.2258 19.543 32.1058 19.519 31.9858 19.471C31.8898 19.423 31.8418 19.339 31.8418 19.219C31.8418 19.075 31.9018 18.919 32.0218 18.751C32.0698 18.703 32.0938 18.655 32.0938 18.607C32.0938 18.559 32.0338 18.535 31.9138 18.535C31.8658 18.535 31.7938 18.547 31.6978 18.571C31.6018 18.571 31.4938 18.583 31.3738 18.607C31.1818 18.655 30.9058 18.751 30.5458 18.895C30.1858 19.015 29.8258 19.159 29.4658 19.327C29.1058 19.495 28.7818 19.651 28.4938 19.795C28.2058 19.939 28.0258 20.035 27.9538 20.083C27.8578 20.155 27.8098 20.227 27.8098 20.299C27.8098 20.419 27.8818 20.503 28.0258 20.551C28.0498 20.551 28.1338 20.563 28.2778 20.587C28.4218 20.587 28.5778 20.599 28.7458 20.623C28.9138 20.623 29.0698 20.623 29.2138 20.623C29.3818 20.623 29.5018 20.623 29.5738 20.623C29.8378 20.647 29.9938 20.695 30.0418 20.767C30.0898 20.839 30.1138 20.959 30.1138 21.127C30.1138 21.247 30.0898 21.367 30.0418 21.487C29.9938 21.607 29.8378 21.691 29.5738 21.739C29.0698 21.859 28.5778 22.063 28.0978 22.351C27.6418 22.639 27.4138 23.023 27.4138 23.503C27.4138 23.839 27.5938 24.091 27.9538 24.259C28.3378 24.403 28.6978 24.475 29.0338 24.475C29.6578 24.475 30.3178 24.391 31.0138 24.223C31.7098 24.031 32.3578 23.839 32.9578 23.647C33.6538 23.407 34.3378 23.143 35.0098 22.855C35.0578 22.855 35.0938 22.891 35.1178 22.963C35.1658 23.011 35.1898 23.059 35.1898 23.107ZM42.1898 20.047C42.1898 20.095 42.0938 20.263 41.9018 20.551C41.7098 20.815 41.4938 21.115 41.2538 21.451C41.0378 21.787 40.8218 22.135 40.6058 22.495C40.4138 22.831 40.2818 23.095 40.2098 23.287C40.0898 23.623 40.0778 23.923 40.1738 24.187C40.2938 24.451 40.6538 24.607 41.2538 24.655C41.5178 24.679 41.8298 24.667 42.1898 24.619C42.5498 24.547 42.9098 24.463 43.2698 24.367C43.6298 24.271 43.9538 24.175 44.2418 24.079C44.5538 23.983 44.7938 23.911 44.9618 23.863C45.4178 23.767 45.7658 23.671 46.0058 23.575C46.2698 23.455 46.4978 23.383 46.6898 23.359C46.7378 23.359 46.7738 23.395 46.7978 23.467C46.8218 23.539 46.8218 23.599 46.7978 23.647C46.7258 23.767 46.6538 23.839 46.5818 23.863L44.7818 24.439C44.5178 24.511 44.1698 24.619 43.7378 24.763C43.3058 24.883 42.8498 25.003 42.3698 25.123C41.8898 25.243 41.4218 25.339 40.9658 25.411C40.5098 25.507 40.1258 25.543 39.8138 25.519C39.5018 25.495 39.2618 25.423 39.0938 25.303C38.9258 25.207 38.8058 25.087 38.7338 24.943C38.6618 24.799 38.6258 24.631 38.6258 24.439C38.6498 24.247 38.6858 24.055 38.7338 23.863C38.7818 23.695 38.8898 23.479 39.0578 23.215C39.2258 22.927 39.4058 22.639 39.5978 22.351C39.7898 22.063 39.9698 21.775 40.1378 21.487C40.3298 21.199 40.4618 20.959 40.5338 20.767C40.6058 20.575 40.5938 20.443 40.4978 20.371C40.4258 20.299 40.2338 20.335 39.9218 20.479C39.9218 20.479 39.7658 20.575 39.4538 20.767C39.1658 20.959 38.7938 21.187 38.3378 21.451C37.9058 21.715 37.4498 21.991 36.9698 22.279C36.4898 22.567 36.0818 22.795 35.7458 22.963C35.6978 22.987 35.6498 22.999 35.6018 22.999C35.5778 22.975 35.5418 22.975 35.4938 22.999C35.3738 22.999 35.2778 22.987 35.2058 22.963C35.1578 22.915 35.1218 22.879 35.0978 22.855C35.0978 22.783 35.1698 22.723 35.3138 22.675C35.8178 22.435 36.3818 22.135 37.0058 21.775C37.6538 21.415 38.2658 21.055 38.8418 20.695C39.4178 20.335 39.9218 20.011 40.3538 19.723C40.7858 19.435 41.0378 19.267 41.1098 19.219C41.1818 19.171 41.2658 19.147 41.3618 19.147C41.4818 19.123 41.5658 19.111 41.6138 19.111C42.0218 19.063 42.2378 19.147 42.2618 19.363C42.3098 19.555 42.2858 19.783 42.1898 20.047ZM60.7928 23.107C60.7928 23.203 60.7568 23.275 60.6848 23.323L59.0648 23.971C58.8248 24.067 58.5128 24.199 58.1288 24.367C57.7688 24.511 57.3728 24.655 56.9408 24.799C56.5088 24.943 56.0888 25.075 55.6808 25.195C55.2728 25.291 54.9128 25.339 54.6008 25.339C54.2888 25.339 54.0368 25.279 53.8448 25.159C53.6768 25.015 53.5328 24.859 53.4128 24.691C53.3168 24.523 53.2448 24.355 53.1968 24.187C53.1728 24.019 53.1608 23.887 53.1608 23.791C53.1608 23.431 53.2328 23.107 53.3768 22.819C53.5448 22.507 53.6528 22.327 53.7008 22.279C53.7248 22.255 53.7008 22.243 53.6288 22.243C53.4128 22.411 53.0768 22.651 52.6208 22.963C52.1888 23.275 51.6968 23.587 51.1448 23.899C50.5928 24.211 50.0288 24.487 49.4528 24.727C48.9008 24.967 48.3848 25.087 47.9048 25.087C47.6408 25.087 47.4128 24.967 47.2208 24.727C47.0288 24.487 46.9328 24.235 46.9328 23.971C46.9328 23.683 47.0408 23.359 47.2568 22.999C47.4728 22.639 47.7248 22.291 48.0128 21.955C48.3248 21.619 48.6248 21.307 48.9128 21.019C49.2008 20.731 49.4168 20.539 49.5608 20.443C49.5608 20.419 49.5728 20.407 49.5968 20.407H49.7408C49.8608 20.407 49.9568 20.443 50.0288 20.515C50.0528 20.539 50.0648 20.575 50.0648 20.623C50.0648 20.719 49.9808 20.863 49.8128 21.055C49.6448 21.223 49.4528 21.427 49.2368 21.667C49.0448 21.883 48.8648 22.123 48.6968 22.387C48.5288 22.651 48.4448 22.927 48.4448 23.215C48.4448 23.455 48.5168 23.671 48.6608 23.863C48.8048 24.031 48.9728 24.115 49.1648 24.115C49.6208 24.115 50.1728 23.935 50.8208 23.575C51.4688 23.191 52.1048 22.759 52.7288 22.279C53.4488 21.727 54.1928 21.115 54.9608 20.443C55.1288 20.443 55.2608 20.479 55.3568 20.551C55.4768 20.599 55.5368 20.719 55.5368 20.911C55.5368 20.983 55.5008 21.079 55.4288 21.199C55.3568 21.295 55.2248 21.547 55.0328 21.955C54.8648 22.363 54.7808 22.771 54.7808 23.179C54.7808 23.251 54.7808 23.359 54.7808 23.503C54.8048 23.623 54.8408 23.755 54.8888 23.899C54.9608 24.043 55.0568 24.175 55.1768 24.295C55.2968 24.391 55.4768 24.439 55.7168 24.439C55.9808 24.439 56.2688 24.403 56.5808 24.331C56.9168 24.235 57.2408 24.139 57.5528 24.043C57.8888 23.923 58.1888 23.815 58.4528 23.719C58.7408 23.599 58.9568 23.515 59.1008 23.467C59.5808 23.275 59.9408 23.131 60.1808 23.035C60.3248 22.963 60.4688 22.903 60.6128 22.855C60.6608 22.855 60.6968 22.891 60.7208 22.963C60.7688 23.011 60.7928 23.059 60.7928 23.107ZM69.6967 23.107C69.6967 23.203 69.6607 23.275 69.5887 23.323C68.6047 23.731 67.6447 24.091 66.7087 24.403C65.9167 24.667 65.0887 24.919 64.2247 25.159C63.3847 25.399 62.6767 25.519 62.1007 25.519C61.5487 25.519 61.0447 25.339 60.5887 24.979C60.1327 24.619 59.9047 24.103 59.9047 23.431C59.9047 22.807 60.1327 22.183 60.5887 21.559C61.0447 20.911 61.5967 20.335 62.2447 19.831C62.9167 19.327 63.6247 18.919 64.3687 18.607C65.1127 18.271 65.7847 18.103 66.3847 18.103C66.5527 18.103 66.6967 18.139 66.8167 18.211C67.0807 18.331 67.2127 18.595 67.2127 19.003C67.2127 19.243 67.1167 19.483 66.9247 19.723C66.7567 19.963 66.5647 20.179 66.3487 20.371C66.0847 20.587 65.7967 20.791 65.4847 20.983C65.4607 20.983 65.4127 20.995 65.3407 21.019C65.1967 21.067 65.0407 21.091 64.8727 21.091C64.7527 21.091 64.6927 21.007 64.6927 20.839C64.6927 20.719 64.7647 20.587 64.9087 20.443C65.1007 20.323 65.3407 20.107 65.6287 19.795C65.9407 19.483 66.0967 19.207 66.0967 18.967C66.0967 18.799 65.9527 18.715 65.6647 18.715C65.3047 18.715 64.8727 18.847 64.3687 19.111C63.8647 19.351 63.3727 19.663 62.8927 20.047C62.4367 20.407 62.0407 20.827 61.7047 21.307C61.3927 21.763 61.2367 22.207 61.2367 22.639C61.2367 23.215 61.4287 23.671 61.8127 24.007C62.2207 24.319 62.7967 24.475 63.5407 24.475C64.1647 24.475 64.8247 24.391 65.5207 24.223C66.2167 24.031 66.8647 23.839 67.4647 23.647C68.1607 23.407 68.8447 23.143 69.5167 22.855C69.5647 22.855 69.6007 22.891 69.6247 22.963C69.6727 23.011 69.6967 23.059 69.6967 23.107ZM89.2815 23.107C89.2815 23.203 89.2455 23.275 89.1735 23.323L87.5535 23.971C87.3135 24.067 87.0015 24.199 86.6175 24.367C86.2575 24.511 85.8615 24.655 85.4295 24.799C84.9975 24.943 84.5775 25.075 84.1695 25.195C83.7615 25.291 83.4015 25.339 83.0895 25.339C82.5375 25.339 82.2615 25.075 82.2615 24.547C82.2615 24.187 82.3575 23.767 82.5495 23.287C82.7655 22.783 82.9815 22.327 83.1975 21.919C83.1975 21.823 83.1615 21.775 83.0895 21.775C82.9695 21.775 82.8495 21.823 82.7295 21.919C82.2255 22.303 81.7095 22.699 81.1815 23.107C80.6535 23.491 80.1375 23.839 79.6335 24.151C79.1535 24.463 78.6855 24.715 78.2295 24.907C77.7735 25.099 77.3535 25.195 76.9695 25.195C76.8495 25.195 76.7055 25.159 76.5375 25.087C76.3695 24.991 76.2855 24.871 76.2855 24.727C76.2855 24.535 76.3695 24.283 76.5375 23.971C76.7055 23.635 76.8855 23.299 77.0775 22.963C77.2695 22.627 77.4495 22.327 77.6175 22.063C77.7855 21.799 77.8695 21.631 77.8695 21.559C77.8695 21.535 77.8455 21.523 77.7975 21.523C77.7015 21.523 77.4855 21.619 77.1495 21.811C76.8135 22.003 76.4295 22.243 75.9975 22.531C75.5655 22.795 75.0975 23.095 74.5935 23.431C74.0895 23.767 73.6095 24.079 73.1535 24.367C72.6975 24.631 72.2775 24.859 71.8935 25.051C71.5335 25.243 71.2695 25.339 71.1015 25.339C70.9575 25.339 70.8255 25.291 70.7055 25.195C70.6095 25.099 70.5615 24.979 70.5615 24.835C70.5615 24.643 70.6455 24.427 70.8135 24.187C70.9815 23.923 71.1735 23.671 71.3895 23.431C71.6055 23.167 71.8215 22.915 72.0375 22.675C72.2775 22.435 72.4575 22.243 72.5775 22.099C72.6015 22.075 72.6135 22.039 72.6135 21.991C72.6135 21.919 72.5655 21.883 72.4695 21.883C72.4455 21.883 72.3135 21.943 72.0735 22.063C71.8575 22.183 71.5935 22.327 71.2815 22.495C70.9935 22.639 70.6815 22.795 70.3455 22.963C70.0095 23.131 69.7335 23.263 69.5175 23.359C69.3495 23.431 69.1695 23.503 68.9775 23.575C68.7855 23.647 68.5815 23.731 68.3655 23.827C68.3175 23.827 68.2815 23.803 68.2575 23.755C68.2095 23.683 68.1855 23.623 68.1855 23.575C68.1855 23.455 68.2215 23.383 68.2935 23.359C68.4855 23.287 68.6655 23.227 68.8335 23.179C69.0015 23.107 69.1575 23.035 69.3015 22.963C69.9255 22.699 70.5015 22.423 71.0295 22.135C71.5815 21.823 72.0735 21.535 72.5055 21.271C73.0095 20.983 73.4775 20.683 73.9095 20.371C73.9575 20.347 74.0295 20.323 74.1255 20.299C74.2215 20.251 74.3175 20.227 74.4135 20.227C74.6055 20.227 74.7015 20.359 74.7015 20.623C74.7015 20.815 74.5935 21.055 74.3775 21.343C74.1615 21.631 73.9095 21.931 73.6215 22.243C73.3575 22.531 73.1175 22.819 72.9015 23.107C72.6855 23.371 72.5775 23.575 72.5775 23.719C72.5775 23.911 72.6735 24.007 72.8655 24.007C73.0095 24.007 73.2975 23.875 73.7295 23.611C74.1615 23.323 74.6535 22.999 75.2055 22.639C75.7575 22.279 76.3095 21.919 76.8615 21.559C77.4135 21.199 77.8695 20.923 78.2295 20.731C78.3255 20.659 78.5295 20.527 78.8415 20.335C79.1535 20.119 79.4295 20.011 79.6695 20.011C79.7895 20.011 79.8735 20.059 79.9215 20.155C79.9935 20.227 80.0295 20.323 80.0295 20.443C80.0295 20.635 79.9215 20.887 79.7055 21.199C79.5135 21.511 79.2855 21.835 79.0215 22.171C78.7815 22.483 78.5535 22.795 78.3375 23.107C78.1455 23.395 78.0495 23.611 78.0495 23.755C78.0495 23.971 78.1935 24.079 78.4815 24.079C78.9135 24.079 79.4175 23.863 79.9935 23.431C80.5935 22.999 81.1935 22.519 81.7935 21.991C82.3935 21.463 82.9695 20.983 83.5215 20.551C84.0735 20.119 84.5295 19.903 84.8895 19.903C85.0095 19.903 85.0815 19.951 85.1055 20.047C85.1295 20.119 85.1415 20.179 85.1415 20.227C85.1415 20.323 85.1175 20.419 85.0695 20.515C85.0215 20.611 84.9735 20.707 84.9255 20.803C84.8535 20.899 84.7335 21.067 84.5655 21.307C84.3975 21.547 84.2295 21.811 84.0615 22.099C83.9175 22.387 83.7735 22.687 83.6295 22.999C83.5095 23.287 83.4495 23.551 83.4495 23.791C83.4495 24.223 83.7015 24.439 84.2055 24.439C84.4695 24.439 84.7575 24.403 85.0695 24.331C85.4055 24.235 85.7295 24.139 86.0415 24.043C86.3775 23.923 86.6775 23.815 86.9415 23.719C87.2295 23.599 87.4455 23.515 87.5895 23.467C88.0695 23.275 88.4295 23.131 88.6695 23.035C88.8135 22.963 88.9575 22.903 89.1015 22.855C89.1495 22.855 89.1855 22.891 89.2095 22.963C89.2575 23.011 89.2815 23.059 89.2815 23.107ZM99.3964 20.371C99.3964 20.875 99.1324 21.379 98.6044 21.883C98.1004 22.387 97.4884 22.843 96.7684 23.251C96.0724 23.635 95.3524 23.959 94.6084 24.223C93.8644 24.487 93.2644 24.619 92.8084 24.619C92.3764 24.619 92.1004 24.535 91.9804 24.367C91.8604 24.175 91.7524 24.031 91.6564 23.935C91.6324 23.911 91.6204 23.863 91.6204 23.791C91.6204 23.671 91.6564 23.563 91.7284 23.467C91.8244 23.347 91.9324 23.239 92.0524 23.143C92.1724 23.047 92.2804 22.975 92.3764 22.927C92.4964 22.855 92.5924 22.819 92.6644 22.819C92.8324 22.819 92.9404 22.867 92.9884 22.963C93.0604 23.059 93.1204 23.167 93.1684 23.287C93.2164 23.383 93.3124 23.491 93.4564 23.611C93.6244 23.731 93.8644 23.791 94.1764 23.791C94.5844 23.791 94.9924 23.707 95.4004 23.539C95.8324 23.371 96.2164 23.155 96.5524 22.891C96.9124 22.603 97.2004 22.303 97.4164 21.991C97.6564 21.655 97.7764 21.331 97.7764 21.019C97.7764 20.707 97.6564 20.503 97.4164 20.407C97.2004 20.287 96.9604 20.227 96.6964 20.227C96.2404 20.227 95.6524 20.347 94.9324 20.587C94.2364 20.827 93.4324 21.163 92.5204 21.595C91.2724 23.011 90.0244 24.523 88.7764 26.131C87.5524 27.739 86.3524 29.323 85.1764 30.883C83.9764 32.467 82.8124 33.979 81.6844 35.419C80.5564 36.883 79.4644 38.155 78.4084 39.235C77.3524 40.339 76.3444 41.215 75.3844 41.863C74.4004 42.535 73.4764 42.871 72.6124 42.871C72.1564 42.871 71.7724 42.751 71.4604 42.511C71.1484 42.271 70.9924 41.899 70.9924 41.395C70.9924 40.411 71.3044 39.331 71.9284 38.155C72.5284 37.003 73.3564 35.815 74.4124 34.591C75.4444 33.367 76.6444 32.143 78.0124 30.919C79.3564 29.695 80.7844 28.507 82.2964 27.355C83.7844 26.227 85.3084 25.171 86.8684 24.187C88.4044 23.179 89.8684 22.315 91.2604 21.595C91.5244 21.187 91.7644 20.827 91.9804 20.515C92.1964 20.203 92.3884 19.939 92.5564 19.723C92.7484 19.459 92.9044 19.231 93.0244 19.039C93.0244 18.943 93.0844 18.883 93.2044 18.859C93.3484 18.835 93.4684 18.823 93.5644 18.823C93.7324 18.847 93.9004 18.871 94.0684 18.895C94.2364 18.895 94.3204 18.967 94.3204 19.111C94.3204 19.207 94.2244 19.411 94.0324 19.723C93.8404 20.011 93.6724 20.227 93.5284 20.371L93.3124 20.587C94.2724 20.155 95.1364 19.819 95.9044 19.579C96.6964 19.339 97.3564 19.219 97.8844 19.219C98.2204 19.219 98.5564 19.339 98.8924 19.579C99.2284 19.795 99.3964 20.059 99.3964 20.371ZM90.5764 22.567C89.3524 23.239 88.0564 24.019 86.6884 24.907C85.3204 25.771 83.9764 26.707 82.6564 27.715C81.3364 28.747 80.0644 29.815 78.8404 30.919C77.6164 32.047 76.5484 33.163 75.6364 34.267C74.7244 35.395 73.9924 36.499 73.4404 37.579C72.8884 38.683 72.6124 39.715 72.6124 40.675C72.6124 40.867 72.6844 41.095 72.8284 41.359C72.9484 41.623 73.2124 41.755 73.6204 41.755C74.1484 41.755 74.8324 41.419 75.6724 40.747C76.4884 40.099 77.4124 39.235 78.4444 38.155C79.4524 37.099 80.5084 35.887 81.6124 34.519C82.7164 33.175 83.8204 31.783 84.9244 30.343C86.0044 28.927 87.0244 27.535 87.9844 26.167C88.9684 24.823 89.8324 23.623 90.5764 22.567ZM111.426 23.107C111.426 23.203 111.39 23.275 111.318 23.323L109.698 23.971C109.458 24.067 109.146 24.199 108.762 24.367C108.402 24.511 108.006 24.655 107.574 24.799C107.142 24.943 106.722 25.075 106.314 25.195C105.906 25.291 105.546 25.339 105.234 25.339C104.73 25.339 104.478 25.183 104.478 24.871C104.478 24.775 104.49 24.655 104.514 24.511C104.562 24.343 104.646 24.175 104.766 24.007C104.574 24.151 104.31 24.319 103.974 24.511C103.638 24.679 103.278 24.847 102.894 25.015C102.51 25.159 102.114 25.291 101.706 25.411C101.322 25.531 100.974 25.591 100.662 25.591C100.206 25.591 99.8817 25.495 99.6897 25.303C99.4737 25.135 99.3657 24.919 99.3657 24.655C99.3657 24.199 99.6057 23.635 100.086 22.963C100.566 22.291 101.178 21.655 101.922 21.055C102.666 20.431 103.482 19.903 104.37 19.471C105.258 19.039 106.11 18.823 106.926 18.823C107.334 18.823 107.622 18.895 107.79 19.039C107.958 19.183 108.042 19.387 108.042 19.651C108.042 20.035 107.862 20.383 107.502 20.695C107.166 21.007 106.842 21.259 106.53 21.451C106.434 21.499 106.362 21.523 106.314 21.523C106.266 21.523 106.194 21.499 106.098 21.451C106.026 21.379 105.99 21.295 105.99 21.199C105.99 21.079 106.086 20.899 106.278 20.659C106.374 20.563 106.482 20.431 106.602 20.263C106.746 20.071 106.818 19.915 106.818 19.795C106.818 19.699 106.77 19.627 106.674 19.579C106.602 19.507 106.434 19.471 106.17 19.471C105.762 19.471 105.258 19.627 104.658 19.939C104.058 20.227 103.482 20.599 102.93 21.055C102.378 21.487 101.898 21.943 101.49 22.423C101.106 22.903 100.914 23.323 100.914 23.683C100.914 23.947 101.022 24.151 101.238 24.295C101.454 24.415 101.694 24.475 101.958 24.475C102.222 24.475 102.522 24.415 102.858 24.295C103.194 24.175 103.518 24.043 103.83 23.899C104.142 23.755 104.418 23.611 104.658 23.467C104.922 23.299 105.09 23.179 105.162 23.107C105.21 23.059 105.282 22.987 105.378 22.891C105.474 22.795 105.57 22.747 105.666 22.747C105.714 22.747 105.786 22.771 105.882 22.819C105.978 22.867 106.026 22.951 106.026 23.071C105.906 23.263 105.822 23.431 105.774 23.575C105.726 23.719 105.702 23.851 105.702 23.971C105.702 24.283 105.918 24.439 106.35 24.439C106.614 24.439 106.902 24.403 107.214 24.331C107.55 24.235 107.874 24.139 108.186 24.043C108.522 23.923 108.822 23.815 109.086 23.719C109.374 23.599 109.59 23.515 109.734 23.467C110.214 23.275 110.574 23.131 110.814 23.035C110.958 22.963 111.102 22.903 111.246 22.855C111.294 22.855 111.33 22.891 111.354 22.963C111.402 23.011 111.426 23.059 111.426 23.107ZM124.461 23.107C124.461 23.203 124.425 23.275 124.353 23.323L122.733 23.971C122.493 24.067 122.181 24.199 121.797 24.367C121.437 24.511 121.041 24.655 120.609 24.799C120.177 24.943 119.757 25.075 119.349 25.195C118.941 25.291 118.581 25.339 118.269 25.339C117.957 25.339 117.705 25.279 117.513 25.159C117.345 25.015 117.201 24.859 117.081 24.691C116.985 24.523 116.913 24.355 116.865 24.187C116.841 24.019 116.829 23.887 116.829 23.791C116.829 23.431 116.901 23.107 117.045 22.819C117.213 22.507 117.321 22.327 117.369 22.279C117.393 22.255 117.369 22.243 117.297 22.243C117.081 22.411 116.745 22.651 116.289 22.963C115.857 23.275 115.365 23.587 114.813 23.899C114.261 24.211 113.697 24.487 113.121 24.727C112.569 24.967 112.053 25.087 111.573 25.087C111.309 25.087 111.081 24.967 110.889 24.727C110.697 24.487 110.601 24.235 110.601 23.971C110.601 23.683 110.709 23.359 110.925 22.999C111.141 22.639 111.393 22.291 111.681 21.955C111.993 21.619 112.293 21.307 112.581 21.019C112.869 20.731 113.085 20.539 113.229 20.443C113.229 20.419 113.241 20.407 113.265 20.407H113.409C113.529 20.407 113.625 20.443 113.697 20.515C113.721 20.539 113.733 20.575 113.733 20.623C113.733 20.719 113.649 20.863 113.481 21.055C113.313 21.223 113.121 21.427 112.905 21.667C112.713 21.883 112.533 22.123 112.365 22.387C112.197 22.651 112.113 22.927 112.113 23.215C112.113 23.455 112.185 23.671 112.329 23.863C112.473 24.031 112.641 24.115 112.833 24.115C113.289 24.115 113.841 23.935 114.489 23.575C115.137 23.191 115.773 22.759 116.397 22.279C117.117 21.727 117.861 21.115 118.629 20.443C118.797 20.443 118.929 20.479 119.025 20.551C119.145 20.599 119.205 20.719 119.205 20.911C119.205 20.983 119.169 21.079 119.097 21.199C119.025 21.295 118.893 21.547 118.701 21.955C118.533 22.363 118.449 22.771 118.449 23.179C118.449 23.251 118.449 23.359 118.449 23.503C118.473 23.623 118.509 23.755 118.557 23.899C118.629 24.043 118.725 24.175 118.845 24.295C118.965 24.391 119.145 24.439 119.385 24.439C119.649 24.439 119.937 24.403 120.249 24.331C120.585 24.235 120.909 24.139 121.221 24.043C121.557 23.923 121.857 23.815 122.121 23.719C122.409 23.599 122.625 23.515 122.769 23.467C123.249 23.275 123.609 23.131 123.849 23.035C123.993 22.963 124.137 22.903 124.281 22.855C124.329 22.855 124.365 22.891 124.389 22.963C124.437 23.011 124.461 23.059 124.461 23.107ZM116.901 27.967C116.493 28.303 116.097 28.603 115.713 28.867C115.329 29.155 114.981 29.383 114.669 29.551C114.573 29.623 114.429 29.683 114.237 29.731C114.093 29.731 113.973 29.671 113.877 29.551C113.805 29.455 113.757 29.335 113.733 29.191C113.709 28.999 113.781 28.843 113.949 28.723C114.309 28.531 114.717 28.315 115.173 28.075C115.629 27.859 116.085 27.607 116.541 27.319C117.813 26.503 118.737 25.639 119.313 24.727C119.433 24.607 119.541 24.547 119.637 24.547C119.661 24.523 119.721 24.571 119.817 24.691V24.835L119.781 24.871C119.517 25.255 119.121 25.723 118.593 26.275C118.065 26.851 117.501 27.415 116.901 27.967ZM137.469 23.107C137.469 23.203 137.433 23.275 137.361 23.323L135.741 23.971C135.501 24.067 135.189 24.199 134.805 24.367C134.445 24.511 134.049 24.655 133.617 24.799C133.185 24.943 132.765 25.075 132.357 25.195C131.949 25.291 131.589 25.339 131.277 25.339C130.965 25.339 130.713 25.279 130.521 25.159C130.353 25.015 130.209 24.859 130.089 24.691C129.993 24.523 129.921 24.355 129.873 24.187C129.849 24.019 129.837 23.887 129.837 23.791C129.837 23.431 129.909 23.107 130.053 22.819C130.221 22.507 130.329 22.327 130.377 22.279C130.401 22.255 130.377 22.243 130.305 22.243C130.089 22.411 129.753 22.651 129.297 22.963C128.865 23.275 128.373 23.587 127.821 23.899C127.269 24.211 126.705 24.487 126.129 24.727C125.577 24.967 125.061 25.087 124.581 25.087C124.317 25.087 124.089 24.967 123.897 24.727C123.705 24.487 123.609 24.235 123.609 23.971C123.609 23.683 123.717 23.359 123.933 22.999C124.149 22.639 124.401 22.291 124.689 21.955C125.001 21.619 125.301 21.307 125.589 21.019C125.877 20.731 126.093 20.539 126.237 20.443C126.237 20.419 126.249 20.407 126.273 20.407H126.417C126.537 20.407 126.633 20.443 126.705 20.515C126.729 20.539 126.741 20.575 126.741 20.623C126.741 20.719 126.657 20.863 126.489 21.055C126.321 21.223 126.129 21.427 125.913 21.667C125.721 21.883 125.541 22.123 125.373 22.387C125.205 22.651 125.121 22.927 125.121 23.215C125.121 23.455 125.193 23.671 125.337 23.863C125.481 24.031 125.649 24.115 125.841 24.115C126.297 24.115 126.849 23.935 127.497 23.575C128.145 23.191 128.781 22.759 129.405 22.279C130.125 21.727 130.869 21.115 131.637 20.443C131.805 20.443 131.937 20.479 132.033 20.551C132.153 20.599 132.213 20.719 132.213 20.911C132.213 20.983 132.177 21.079 132.105 21.199C132.033 21.295 131.901 21.547 131.709 21.955C131.541 22.363 131.457 22.771 131.457 23.179C131.457 23.251 131.457 23.359 131.457 23.503C131.481 23.623 131.517 23.755 131.565 23.899C131.637 24.043 131.733 24.175 131.853 24.295C131.973 24.391 132.153 24.439 132.393 24.439C132.657 24.439 132.945 24.403 133.257 24.331C133.593 24.235 133.917 24.139 134.229 24.043C134.565 23.923 134.865 23.815 135.129 23.719C135.417 23.599 135.633 23.515 135.777 23.467C136.257 23.275 136.617 23.131 136.857 23.035C137.001 22.963 137.145 22.903 137.289 22.855C137.337 22.855 137.373 22.891 137.397 22.963C137.445 23.011 137.469 23.059 137.469 23.107ZM145.076 21.775C145.004 21.871 144.92 22.063 144.824 22.351C144.728 22.639 144.68 22.987 144.68 23.395C144.68 23.467 144.68 23.575 144.68 23.719C144.704 23.839 144.74 23.971 144.788 24.115C144.86 24.259 144.956 24.391 145.076 24.511C145.196 24.607 145.376 24.655 145.616 24.655C145.88 24.655 146.18 24.607 146.516 24.511C146.852 24.391 147.188 24.271 147.524 24.151C147.86 24.007 148.16 23.875 148.424 23.755C148.712 23.611 148.928 23.515 149.072 23.467C149.528 23.299 149.888 23.155 150.152 23.035C150.344 22.939 150.488 22.879 150.584 22.855C150.704 22.855 150.764 22.939 150.764 23.107C150.764 23.227 150.728 23.299 150.656 23.323L149.036 23.971C148.796 24.067 148.484 24.199 148.1 24.367C147.74 24.511 147.344 24.655 146.912 24.799C146.48 24.943 146.06 25.075 145.652 25.195C145.244 25.291 144.884 25.339 144.572 25.339C144.26 25.339 144.008 25.279 143.816 25.159C143.648 25.015 143.504 24.859 143.384 24.691C143.288 24.523 143.216 24.355 143.168 24.187C143.144 24.019 143.132 23.887 143.132 23.791C143.132 23.431 143.192 23.131 143.312 22.891C143.456 22.651 143.552 22.507 143.6 22.459C143.456 22.435 143.324 22.411 143.204 22.387C143.06 22.555 142.808 22.771 142.448 23.035C141.992 23.371 141.464 23.707 140.864 24.043C140.288 24.355 139.688 24.631 139.064 24.871C138.44 25.111 137.9 25.231 137.444 25.231C137.18 25.231 136.952 25.111 136.76 24.871C136.568 24.631 136.472 24.379 136.472 24.115C136.4 23.827 136.424 23.587 136.544 23.395C136.688 23.179 136.856 23.035 137.048 22.963C137.24 22.867 137.432 22.855 137.624 22.927C137.816 22.975 137.936 23.119 137.984 23.359C137.984 23.599 138.056 23.815 138.2 24.007C138.344 24.175 138.512 24.259 138.704 24.259C138.92 24.259 139.172 24.199 139.46 24.079C139.772 23.959 140.084 23.815 140.396 23.647C140.732 23.455 141.068 23.239 141.404 22.999C141.764 22.759 142.1 22.519 142.412 22.279C142.436 22.255 142.46 22.231 142.484 22.207C141.932 22.039 141.5 21.847 141.188 21.631C140.684 21.271 140.384 20.923 140.288 20.587C140.192 20.227 140.252 19.891 140.468 19.579C140.708 19.243 141.008 19.003 141.368 18.859C141.752 18.691 142.16 18.631 142.592 18.679C143.048 18.727 143.432 18.943 143.744 19.327C143.864 19.471 143.948 19.675 143.996 19.939C144.044 20.179 144.044 20.443 143.996 20.731C143.972 20.995 143.9 21.271 143.78 21.559C143.708 21.703 143.636 21.835 143.564 21.955C143.708 21.955 143.828 21.907 143.924 21.811C144.14 21.595 144.356 21.511 144.572 21.559C144.788 21.583 144.956 21.655 145.076 21.775ZM143.132 21.235C143.252 20.995 143.336 20.755 143.384 20.515C143.432 20.275 143.42 20.047 143.348 19.831C143.276 19.543 143.12 19.375 142.88 19.327C142.664 19.255 142.436 19.255 142.196 19.327C141.956 19.399 141.74 19.519 141.548 19.687C141.38 19.855 141.308 20.047 141.332 20.263C141.356 20.527 141.488 20.791 141.728 21.055C141.992 21.319 142.328 21.535 142.736 21.703C142.76 21.727 142.796 21.751 142.844 21.775C142.964 21.607 143.06 21.427 143.132 21.235Z" fill="#565452"></path> </svg> 