<?xml version="1.0" encoding="UTF-8"?> <svg xmlns="http://www.w3.org/2000/svg" width="130" height="28" viewBox="0 0 130 28" fill="none"> <path d="M41.598 6.92932C41.598 7.93732 41.31 8.90932 40.734 9.84532C40.182 10.7813 39.426 11.6093 38.466 12.3293C37.53 13.0493 36.45 13.6253 35.226 14.0573C34.026 14.4893 32.778 14.7053 31.482 14.7053C30.858 14.7053 30.258 14.6333 29.682 14.4893C29.13 14.3453 28.626 14.1413 28.17 13.8773C27.954 14.1413 27.726 14.4173 27.486 14.7053C27.27 14.9933 27.054 15.2813 26.838 15.5693C25.662 17.0813 24.45 18.5813 23.202 20.0693C21.978 21.5333 20.646 22.8533 19.206 24.0293C17.766 25.1813 16.182 26.1173 14.454 26.8373C12.75 27.5573 10.842 27.9173 8.73 27.9173C7.554 27.9173 6.486 27.7253 5.526 27.3413C4.566 26.9573 3.738 26.4293 3.042 25.7573C2.37 25.0853 1.842 24.2933 1.458 23.3813C1.098 22.4453 0.918 21.4373 0.918 20.3573C0.918 18.3893 1.362 16.5293 2.25 14.7773C3.162 13.0013 4.374 11.3693 5.886 9.88132C7.398 8.36932 9.138 7.01332 11.106 5.81332C13.098 4.58932 15.174 3.55732 17.334 2.71732C19.494 1.85332 21.678 1.19332 23.886 0.737324C26.094 0.281324 28.17 0.0533237 30.114 0.0533237C31.578 0.0533237 32.994 0.209324 34.362 0.521324C35.754 0.833324 36.978 1.28932 38.034 1.88932C39.114 2.46532 39.978 3.18532 40.626 4.04932C41.274 4.88932 41.598 5.84932 41.598 6.92932ZM40.014 7.82932C40.014 6.89332 39.678 6.02932 39.006 5.23732C38.358 4.42132 37.482 3.72532 36.378 3.14932C35.274 2.54932 33.99 2.08132 32.526 1.74532C31.086 1.40932 29.586 1.24132 28.026 1.24132C25.746 1.24132 23.538 1.50532 21.402 2.03332C19.29 2.53732 17.298 3.23332 15.426 4.12132C13.554 5.00932 11.838 6.05332 10.278 7.25332C8.742 8.45332 7.41 9.73732 6.282 11.1053C5.178 12.4493 4.314 13.8413 3.69 15.2813C3.066 16.7213 2.754 18.1373 2.754 19.5293C2.754 20.6573 2.934 21.6653 3.294 22.5533C3.678 23.4413 4.194 24.1973 4.842 24.8213C5.514 25.4453 6.294 25.9133 7.182 26.2253C8.094 26.5613 9.078 26.7293 10.134 26.7293C12.246 26.7293 14.106 26.3333 15.714 25.5413C17.346 24.7493 18.822 23.7173 20.142 22.4453C21.486 21.1733 22.746 19.7453 23.922 18.1613C25.098 16.5773 26.286 15.0053 27.486 13.4453C27.03 13.1333 26.67 12.8093 26.406 12.4733C26.166 12.1373 26.046 11.8373 26.046 11.5733C26.046 11.3573 26.118 11.1653 26.262 10.9973C26.43 10.8293 26.61 10.7453 26.802 10.7453C26.946 10.7453 27.066 10.8173 27.162 10.9613C27.282 11.0813 27.402 11.2373 27.522 11.4293C27.642 11.6213 27.774 11.8013 27.918 11.9693C28.062 12.1133 28.194 12.2453 28.314 12.3653C29.178 11.2853 30.078 10.2653 31.014 9.30532C31.974 8.32132 33.018 7.44532 34.146 6.67732C34.29 6.60532 34.47 6.56932 34.686 6.56932C34.902 6.56932 35.01 6.61732 35.01 6.71332C35.01 6.78532 34.866 6.92932 34.578 7.14532C33.57 7.91332 32.61 8.78932 31.698 9.77332C30.786 10.7333 29.874 11.7653 28.962 12.8693C29.538 13.2533 30.114 13.5173 30.69 13.6613C31.29 13.7813 31.89 13.8413 32.49 13.8413C33.618 13.8653 34.638 13.7213 35.55 13.4093C36.462 13.0973 37.254 12.6653 37.926 12.1133C38.598 11.5613 39.114 10.9133 39.474 10.1693C39.834 9.42532 40.014 8.64532 40.014 7.82932ZM37.7148 23.0213C37.7148 23.1173 37.6788 23.1893 37.6068 23.2373L35.9868 23.8853C35.7468 23.9813 35.4348 24.1133 35.0508 24.2813C34.6908 24.4253 34.2948 24.5693 33.8628 24.7133C33.4308 24.8573 33.0108 24.9893 32.6028 25.1093C32.1948 25.2053 31.8348 25.2533 31.5228 25.2533C31.0188 25.2533 30.7668 25.0973 30.7668 24.7853C30.7668 24.6893 30.7788 24.5693 30.8028 24.4253C30.8508 24.2573 30.9348 24.0893 31.0548 23.9213C30.8628 24.0653 30.5988 24.2333 30.2628 24.4253C29.9268 24.5933 29.5668 24.7613 29.1828 24.9293C28.7988 25.0733 28.4028 25.2053 27.9948 25.3253C27.6108 25.4453 27.2628 25.5053 26.9508 25.5053C26.4948 25.5053 26.1708 25.4093 25.9788 25.2173C25.7628 25.0493 25.6548 24.8333 25.6548 24.5693C25.6548 24.1133 25.8948 23.5493 26.3748 22.8773C26.8548 22.2053 27.4668 21.5693 28.2108 20.9693C28.9548 20.3453 29.7708 19.8173 30.6588 19.3853C31.5468 18.9533 32.3988 18.7373 33.2148 18.7373C33.6228 18.7373 33.9108 18.8093 34.0788 18.9533C34.2468 19.0973 34.3308 19.3013 34.3308 19.5653C34.3308 19.9493 34.1508 20.2973 33.7908 20.6093C33.4548 20.9213 33.1308 21.1733 32.8188 21.3653C32.7228 21.4133 32.6508 21.4373 32.6028 21.4373C32.5548 21.4373 32.4828 21.4133 32.3868 21.3653C32.3148 21.2933 32.2788 21.2093 32.2788 21.1133C32.2788 20.9933 32.3748 20.8133 32.5668 20.5733C32.6628 20.4773 32.7708 20.3453 32.8908 20.1773C33.0348 19.9853 33.1068 19.8293 33.1068 19.7093C33.1068 19.6133 33.0588 19.5413 32.9628 19.4933C32.8908 19.4213 32.7228 19.3853 32.4588 19.3853C32.0508 19.3853 31.5468 19.5413 30.9468 19.8533C30.3468 20.1413 29.7708 20.5133 29.2188 20.9693C28.6668 21.4013 28.1868 21.8573 27.7788 22.3373C27.3948 22.8173 27.2028 23.2373 27.2028 23.5973C27.2028 23.8613 27.3108 24.0653 27.5268 24.2093C27.7428 24.3293 27.9828 24.3893 28.2468 24.3893C28.5108 24.3893 28.8108 24.3293 29.1468 24.2093C29.4828 24.0893 29.8068 23.9573 30.1188 23.8133C30.4308 23.6693 30.7068 23.5253 30.9468 23.3813C31.2108 23.2133 31.3788 23.0933 31.4508 23.0213C31.4988 22.9733 31.5708 22.9013 31.6668 22.8053C31.7628 22.7093 31.8588 22.6613 31.9548 22.6613C32.0028 22.6613 32.0748 22.6853 32.1708 22.7333C32.2668 22.7813 32.3148 22.8653 32.3148 22.9853C32.1948 23.1773 32.1108 23.3453 32.0628 23.4893C32.0148 23.6333 31.9908 23.7653 31.9908 23.8853C31.9908 24.1973 32.2068 24.3533 32.6388 24.3533C32.9028 24.3533 33.1908 24.3173 33.5028 24.2453C33.8388 24.1493 34.1628 24.0533 34.4748 23.9573C34.8108 23.8373 35.1108 23.7293 35.3748 23.6333C35.6628 23.5133 35.8788 23.4293 36.0228 23.3813C36.5028 23.1893 36.8628 23.0453 37.1028 22.9493C37.2468 22.8773 37.3908 22.8173 37.5348 22.7693C37.5828 22.7693 37.6188 22.8053 37.6428 22.8773C37.6908 22.9253 37.7148 22.9733 37.7148 23.0213ZM46.6459 23.0213C46.6459 23.1173 46.6099 23.1893 46.5379 23.2373C45.5539 23.6453 44.5939 24.0053 43.6579 24.3173C42.8659 24.5813 42.0379 24.8333 41.1739 25.0733C40.3339 25.3133 39.6259 25.4333 39.0499 25.4333C38.4979 25.4333 37.9939 25.2533 37.5379 24.8933C37.0819 24.5333 36.8539 24.0173 36.8539 23.3453C36.8539 22.7213 37.0819 22.0973 37.5379 21.4733C37.9939 20.8253 38.5459 20.2493 39.1939 19.7453C39.8659 19.2413 40.5739 18.8333 41.3179 18.5213C42.0619 18.1853 42.7339 18.0173 43.3339 18.0173C43.5019 18.0173 43.6459 18.0533 43.7659 18.1253C44.0299 18.2453 44.1619 18.5093 44.1619 18.9173C44.1619 19.1573 44.0659 19.3973 43.8739 19.6373C43.7059 19.8773 43.5139 20.0933 43.2979 20.2853C43.0339 20.5013 42.7459 20.7053 42.4339 20.8973C42.4099 20.8973 42.3619 20.9093 42.2899 20.9333C42.1459 20.9813 41.9899 21.0053 41.8219 21.0053C41.7019 21.0053 41.6419 20.9213 41.6419 20.7533C41.6419 20.6333 41.7139 20.5013 41.8579 20.3573C42.0499 20.2373 42.2899 20.0213 42.5779 19.7093C42.8899 19.3973 43.0459 19.1213 43.0459 18.8813C43.0459 18.7133 42.9019 18.6293 42.6139 18.6293C42.2539 18.6293 41.8219 18.7613 41.3179 19.0253C40.8139 19.2653 40.3219 19.5773 39.8419 19.9613C39.3859 20.3213 38.9899 20.7413 38.6539 21.2213C38.3419 21.6773 38.1859 22.1213 38.1859 22.5533C38.1859 23.1293 38.3779 23.5853 38.7619 23.9213C39.1699 24.2333 39.7459 24.3893 40.4899 24.3893C41.1139 24.3893 41.7739 24.3053 42.4699 24.1373C43.1659 23.9453 43.8139 23.7533 44.4139 23.5613C45.1099 23.3213 45.7939 23.0573 46.4659 22.7693C46.5139 22.7693 46.5499 22.8053 46.5739 22.8773C46.6219 22.9253 46.6459 22.9733 46.6459 23.0213ZM61.1547 23.0213C61.1547 23.1173 61.1187 23.1893 61.0467 23.2373L59.4267 23.8853C59.1867 23.9813 58.8747 24.1133 58.4907 24.2813C58.1307 24.4253 57.7347 24.5693 57.3027 24.7133C56.8707 24.8573 56.4507 24.9893 56.0427 25.1093C55.6347 25.2053 55.2747 25.2533 54.9627 25.2533C54.5067 25.2533 54.1947 25.1693 54.0267 25.0013C53.8587 24.8093 53.7747 24.5813 53.7747 24.3173C53.7747 24.0533 53.8227 23.7773 53.9187 23.4893C54.0387 23.1773 54.1587 22.8893 54.2787 22.6253C54.4227 22.3373 54.5427 22.0973 54.6387 21.9053C54.7587 21.6893 54.8187 21.5453 54.8187 21.4733C54.8187 21.4493 54.7947 21.4373 54.7467 21.4373C54.6507 21.4373 54.4347 21.5333 54.0987 21.7253C53.7627 21.9173 53.3787 22.1573 52.9467 22.4453C52.5147 22.7093 52.0467 23.0093 51.5427 23.3453C51.0387 23.6813 50.5587 23.9933 50.1027 24.2813C49.6467 24.5453 49.2267 24.7733 48.8427 24.9653C48.4827 25.1573 48.2187 25.2533 48.0507 25.2533C47.9067 25.2533 47.7747 25.2053 47.6547 25.1093C47.5587 25.0133 47.5107 24.8933 47.5107 24.7493C47.5107 24.5573 47.5947 24.3413 47.7627 24.1013C47.9307 23.8373 48.1227 23.5853 48.3387 23.3453C48.5547 23.0813 48.7707 22.8293 48.9867 22.5893C49.2267 22.3493 49.4067 22.1573 49.5267 22.0133C49.5507 21.9893 49.5627 21.9533 49.5627 21.9053C49.5627 21.8333 49.5147 21.7973 49.4187 21.7973C49.3947 21.7973 49.2627 21.8573 49.0227 21.9773C48.8067 22.0973 48.5427 22.2413 48.2307 22.4093C47.9427 22.5533 47.6307 22.7093 47.2947 22.8773C46.9587 23.0453 46.6827 23.1773 46.4667 23.2733C46.2987 23.3453 46.1187 23.4173 45.9267 23.4893C45.7347 23.5613 45.5307 23.6453 45.3147 23.7413C45.2667 23.7413 45.2307 23.7173 45.2067 23.6693C45.1587 23.5973 45.1347 23.5373 45.1347 23.4893C45.1347 23.3693 45.1707 23.2973 45.2427 23.2733C45.4347 23.2013 45.6147 23.1413 45.7827 23.0933C45.9507 23.0213 46.1067 22.9493 46.2507 22.8773C46.8747 22.6133 47.4507 22.3373 47.9787 22.0493C48.5307 21.7373 49.0227 21.4493 49.4547 21.1853C49.9587 20.8973 50.4267 20.5973 50.8587 20.2853C50.9067 20.2613 50.9787 20.2373 51.0747 20.2133C51.1707 20.1653 51.2667 20.1413 51.3627 20.1413C51.5547 20.1413 51.6507 20.2733 51.6507 20.5373C51.6507 20.7293 51.5427 20.9693 51.3267 21.2573C51.1107 21.5453 50.8587 21.8453 50.5707 22.1573C50.3067 22.4453 50.0667 22.7333 49.8507 23.0213C49.6347 23.2853 49.5267 23.4893 49.5267 23.6333C49.5267 23.8253 49.6227 23.9213 49.8147 23.9213C49.9587 23.9213 50.2467 23.7893 50.6787 23.5253C51.1107 23.2373 51.6027 22.9133 52.1547 22.5533C52.7067 22.1933 53.2587 21.8333 53.8107 21.4733C54.3627 21.1133 54.8187 20.8373 55.1787 20.6453C55.2267 20.5973 55.3107 20.5373 55.4307 20.4653C55.5507 20.3693 55.6947 20.2733 55.8627 20.1773C56.0307 20.0813 56.1867 19.9973 56.3307 19.9253C56.4987 19.8533 56.6427 19.8173 56.7627 19.8173C56.8827 19.8173 56.9547 19.8653 56.9787 19.9613C57.0027 20.0333 57.0147 20.0933 57.0147 20.1413C57.0147 20.2373 56.9907 20.3333 56.9427 20.4293C56.8947 20.5253 56.8467 20.6213 56.7987 20.7173C56.7267 20.8133 56.6067 20.9813 56.4387 21.2213C56.2707 21.4613 56.1027 21.7253 55.9347 22.0133C55.7907 22.3013 55.6467 22.6013 55.5027 22.9133C55.3827 23.2013 55.3227 23.4653 55.3227 23.7053C55.3227 24.1373 55.5747 24.3533 56.0787 24.3533C56.3427 24.3533 56.6307 24.3173 56.9427 24.2453C57.2787 24.1493 57.6027 24.0533 57.9147 23.9573C58.2507 23.8373 58.5507 23.7293 58.8147 23.6333C59.1027 23.5133 59.3187 23.4293 59.4627 23.3813C59.9427 23.1893 60.3027 23.0453 60.5427 22.9493C60.6867 22.8773 60.8307 22.8173 60.9747 22.7693C61.0227 22.7693 61.0587 22.8053 61.0827 22.8773C61.1307 22.9253 61.1547 22.9733 61.1547 23.0213ZM74.1991 23.0213C74.1991 23.1173 74.1631 23.1893 74.0911 23.2373L72.4711 23.8853C72.2311 23.9813 71.9191 24.1133 71.5351 24.2813C71.1751 24.4253 70.7791 24.5693 70.3471 24.7133C69.9151 24.8573 69.4951 24.9893 69.0871 25.1093C68.6791 25.2053 68.3191 25.2533 68.0071 25.2533C67.6951 25.2533 67.4431 25.1933 67.2511 25.0733C67.0831 24.9293 66.9391 24.7733 66.8191 24.6053C66.7231 24.4373 66.6511 24.2693 66.6031 24.1013C66.5791 23.9333 66.5671 23.8013 66.5671 23.7053C66.5671 23.3453 66.6391 23.0213 66.7831 22.7333C66.9511 22.4213 67.0591 22.2413 67.1071 22.1933C67.1311 22.1693 67.1071 22.1573 67.0351 22.1573C66.8191 22.3253 66.4831 22.5653 66.0271 22.8773C65.5951 23.1893 65.1031 23.5013 64.5511 23.8133C63.9991 24.1253 63.4351 24.4013 62.8591 24.6413C62.3071 24.8813 61.7911 25.0013 61.3111 25.0013C61.0471 25.0013 60.8191 24.8813 60.6271 24.6413C60.4351 24.4013 60.3391 24.1493 60.3391 23.8853C60.3391 23.5973 60.4471 23.2733 60.6631 22.9133C60.8791 22.5533 61.1311 22.2053 61.4191 21.8693C61.7311 21.5333 62.0311 21.2213 62.3191 20.9333C62.6071 20.6453 62.8231 20.4533 62.9671 20.3573C62.9671 20.3333 62.9791 20.3213 63.0031 20.3213H63.1471C63.2671 20.3213 63.3631 20.3573 63.4351 20.4293C63.4591 20.4533 63.4711 20.4893 63.4711 20.5373C63.4711 20.6333 63.3871 20.7773 63.2191 20.9693C63.0511 21.1373 62.8591 21.3413 62.6431 21.5813C62.4511 21.7973 62.2711 22.0373 62.1031 22.3013C61.9351 22.5653 61.8511 22.8413 61.8511 23.1293C61.8511 23.3693 61.9231 23.5853 62.0671 23.7773C62.2111 23.9453 62.3791 24.0293 62.5711 24.0293C63.0271 24.0293 63.5791 23.8493 64.2271 23.4893C64.8751 23.1053 65.5111 22.6733 66.1351 22.1933C66.8551 21.6413 67.5991 21.0293 68.3671 20.3573C68.5351 20.3573 68.6671 20.3933 68.7631 20.4653C68.8831 20.5133 68.9431 20.6333 68.9431 20.8253C68.9431 20.8973 68.9071 20.9933 68.8351 21.1133C68.7631 21.2093 68.6311 21.4613 68.4391 21.8693C68.2711 22.2773 68.1871 22.6853 68.1871 23.0933C68.1871 23.1653 68.1871 23.2733 68.1871 23.4173C68.2111 23.5373 68.2471 23.6693 68.2951 23.8133C68.3671 23.9573 68.4631 24.0893 68.5831 24.2093C68.7031 24.3053 68.8831 24.3533 69.1231 24.3533C69.3871 24.3533 69.6751 24.3173 69.9871 24.2453C70.3231 24.1493 70.6471 24.0533 70.9591 23.9573C71.2951 23.8373 71.5951 23.7293 71.8591 23.6333C72.1471 23.5133 72.3631 23.4293 72.5071 23.3813C72.9871 23.1893 73.3471 23.0453 73.5871 22.9493C73.7311 22.8773 73.8751 22.8173 74.0191 22.7693C74.0671 22.7693 74.1031 22.8053 74.1271 22.8773C74.1751 22.9253 74.1991 22.9733 74.1991 23.0213ZM83.1029 23.0213C83.1029 23.1173 83.0669 23.1893 82.9949 23.2373C82.0109 23.6453 81.0509 24.0053 80.1149 24.3173C79.3229 24.5813 78.4949 24.8333 77.6309 25.0733C76.7909 25.3133 76.0829 25.4333 75.5069 25.4333C74.9549 25.4333 74.4509 25.2533 73.9949 24.8933C73.5389 24.5333 73.3109 24.0173 73.3109 23.3453C73.3109 22.7213 73.5389 22.0973 73.9949 21.4733C74.4509 20.8253 75.0029 20.2493 75.6509 19.7453C76.3229 19.2413 77.0309 18.8333 77.7749 18.5213C78.5189 18.1853 79.1909 18.0173 79.7909 18.0173C79.9589 18.0173 80.1029 18.0533 80.2229 18.1253C80.4869 18.2453 80.6189 18.5093 80.6189 18.9173C80.6189 19.1573 80.5229 19.3973 80.3309 19.6373C80.1629 19.8773 79.9709 20.0933 79.7549 20.2853C79.4909 20.5013 79.2029 20.7053 78.8909 20.8973C78.8669 20.8973 78.8189 20.9093 78.7469 20.9333C78.6029 20.9813 78.4469 21.0053 78.2789 21.0053C78.1589 21.0053 78.0989 20.9213 78.0989 20.7533C78.0989 20.6333 78.1709 20.5013 78.3149 20.3573C78.5069 20.2373 78.7469 20.0213 79.0349 19.7093C79.3469 19.3973 79.5029 19.1213 79.5029 18.8813C79.5029 18.7133 79.3589 18.6293 79.0709 18.6293C78.7109 18.6293 78.2789 18.7613 77.7749 19.0253C77.2709 19.2653 76.7789 19.5773 76.2989 19.9613C75.8429 20.3213 75.4469 20.7413 75.1109 21.2213C74.7989 21.6773 74.6429 22.1213 74.6429 22.5533C74.6429 23.1293 74.8349 23.5853 75.2189 23.9213C75.6269 24.2333 76.2029 24.3893 76.9469 24.3893C77.5709 24.3893 78.2309 24.3053 78.9269 24.1373C79.6229 23.9453 80.2709 23.7533 80.8709 23.5613C81.5669 23.3213 82.2509 23.0573 82.9229 22.7693C82.9709 22.7693 83.0069 22.8053 83.0309 22.8773C83.0789 22.9253 83.1029 22.9733 83.1029 23.0213ZM93.5078 23.0213C93.5078 23.1173 93.4718 23.1893 93.3998 23.2373L91.7798 23.8853C91.5398 23.9813 91.2278 24.1133 90.8438 24.2813C90.4838 24.4253 90.0878 24.5693 89.6558 24.7133C89.2238 24.8573 88.8038 24.9893 88.3958 25.1093C87.9878 25.2053 87.6278 25.2533 87.3158 25.2533C86.8118 25.2533 86.5598 25.0973 86.5598 24.7853C86.5598 24.6893 86.5718 24.5693 86.5957 24.4253C86.6438 24.2573 86.7278 24.0893 86.8478 23.9213C86.6558 24.0653 86.3918 24.2333 86.0558 24.4253C85.7198 24.5933 85.3598 24.7613 84.9758 24.9293C84.5918 25.0733 84.1958 25.2053 83.7878 25.3253C83.4038 25.4453 83.0558 25.5053 82.7438 25.5053C82.2878 25.5053 81.9638 25.4093 81.7717 25.2173C81.5557 25.0493 81.4477 24.8333 81.4477 24.5693C81.4477 24.1133 81.6877 23.5493 82.1678 22.8773C82.6478 22.2053 83.2598 21.5693 84.0038 20.9693C84.7478 20.3453 85.5638 19.8173 86.4518 19.3853C87.3398 18.9533 88.1918 18.7373 89.0078 18.7373C89.4158 18.7373 89.7038 18.8093 89.8718 18.9533C90.0398 19.0973 90.1238 19.3013 90.1238 19.5653C90.1238 19.9493 89.9438 20.2973 89.5838 20.6093C89.2478 20.9213 88.9238 21.1733 88.6118 21.3653C88.5158 21.4133 88.4438 21.4373 88.3958 21.4373C88.3478 21.4373 88.2758 21.4133 88.1798 21.3653C88.1078 21.2933 88.0718 21.2093 88.0718 21.1133C88.0718 20.9933 88.1678 20.8133 88.3598 20.5733C88.4558 20.4773 88.5638 20.3453 88.6838 20.1773C88.8278 19.9853 88.8998 19.8293 88.8998 19.7093C88.8998 19.6133 88.8518 19.5413 88.7558 19.4933C88.6838 19.4213 88.5158 19.3853 88.2518 19.3853C87.8438 19.3853 87.3398 19.5413 86.7398 19.8533C86.1398 20.1413 85.5638 20.5133 85.0118 20.9693C84.4598 21.4013 83.9798 21.8573 83.5718 22.3373C83.1878 22.8173 82.9958 23.2373 82.9958 23.5973C82.9958 23.8613 83.1038 24.0653 83.3198 24.2093C83.5358 24.3293 83.7758 24.3893 84.0398 24.3893C84.3038 24.3893 84.6038 24.3293 84.9398 24.2093C85.2758 24.0893 85.5998 23.9573 85.9118 23.8133C86.2238 23.6693 86.4998 23.5253 86.7398 23.3813C87.0038 23.2133 87.1718 23.0933 87.2438 23.0213C87.2918 22.9733 87.3638 22.9013 87.4598 22.8053C87.5558 22.7093 87.6518 22.6613 87.7478 22.6613C87.7958 22.6613 87.8678 22.6853 87.9638 22.7333C88.0598 22.7813 88.1078 22.8653 88.1078 22.9853C87.9878 23.1773 87.9038 23.3453 87.8558 23.4893C87.8078 23.6333 87.7838 23.7653 87.7838 23.8853C87.7838 24.1973 87.9998 24.3533 88.4318 24.3533C88.6958 24.3533 88.9838 24.3173 89.2958 24.2453C89.6318 24.1493 89.9558 24.0533 90.2678 23.9573C90.6038 23.8373 90.9038 23.7293 91.1678 23.6333C91.4558 23.5133 91.6718 23.4293 91.8158 23.3813C92.2958 23.1893 92.6558 23.0453 92.8958 22.9493C93.0398 22.8773 93.1838 22.8173 93.3278 22.7693C93.3758 22.7693 93.4118 22.8053 93.4358 22.8773C93.4838 22.9253 93.5078 22.9733 93.5078 23.0213ZM96.1748 23.7773C95.9108 24.2093 95.6948 24.5333 95.5268 24.7493C95.3828 24.9413 95.2628 25.0733 95.1668 25.1453C95.0948 25.2173 95.0348 25.2413 94.9868 25.2173C94.9388 25.2173 94.8788 25.2173 94.8068 25.2173C94.5188 25.2173 94.3748 25.0853 94.3748 24.8213C94.3748 24.6053 94.4468 24.3653 94.5908 24.1013C94.7588 23.8373 94.9508 23.5733 95.1668 23.3093C95.3828 23.0453 95.5988 22.8053 95.8148 22.5893C96.0548 22.3493 96.2348 22.1573 96.3548 22.0133C96.3788 21.9893 96.3908 21.9533 96.3908 21.9053C96.3908 21.8333 96.3428 21.7973 96.2468 21.7973C96.2228 21.7973 96.0908 21.8573 95.8508 21.9773C95.6348 22.0973 95.3708 22.2413 95.0588 22.4093C94.7468 22.5533 94.4228 22.7093 94.0868 22.8773C93.7748 23.0453 93.5108 23.1773 93.2948 23.2733C93.1268 23.3453 92.9468 23.4173 92.7548 23.4893C92.5628 23.5613 92.3588 23.6453 92.1428 23.7413C92.0228 23.7413 91.9628 23.6573 91.9628 23.4893C91.9628 23.3933 91.9988 23.3213 92.0708 23.2733C92.2628 23.2013 92.4428 23.1413 92.6108 23.0933C92.7788 23.0213 92.9348 22.9493 93.0788 22.8773C93.7028 22.6133 94.2788 22.3373 94.8068 22.0493C95.3588 21.7373 95.8508 21.4493 96.2828 21.1853C96.5468 21.0413 96.7868 20.8973 97.0028 20.7533C97.2428 20.6093 97.4708 20.4533 97.6868 20.2853C97.7348 20.2613 97.8068 20.2373 97.9028 20.2133C97.9988 20.1653 98.0948 20.1413 98.1908 20.1413C98.3828 20.1413 98.4788 20.2733 98.4788 20.5373C98.4788 20.7293 98.3708 20.9693 98.1548 21.2573C97.9628 21.5213 97.7348 21.8093 97.4708 22.1213C97.4228 22.1693 97.3868 22.2173 97.3628 22.2653H97.3988C97.8788 22.2413 98.4188 22.2413 99.0188 22.2653C99.6188 22.2653 100.219 22.2773 100.819 22.3013C100.939 22.3013 101.059 22.3133 101.179 22.3373C101.251 22.2173 101.311 22.0973 101.359 21.9773C101.479 21.7613 101.575 21.5933 101.647 21.4733C102.103 20.8253 102.487 20.3933 102.799 20.1773C103.111 19.9373 103.375 19.8173 103.591 19.8173C103.711 19.8173 103.783 19.8653 103.807 19.9613C103.831 20.0333 103.843 20.0933 103.843 20.1413C103.843 20.2373 103.819 20.3333 103.771 20.4293L103.627 20.7173C103.555 20.8133 103.435 20.9813 103.267 21.2213C103.099 21.4613 102.931 21.7253 102.763 22.0133C102.619 22.3013 102.475 22.6013 102.331 22.9133C102.211 23.2013 102.151 23.4653 102.151 23.7053C102.151 24.1373 102.403 24.3533 102.907 24.3533C103.171 24.3533 103.459 24.3173 103.771 24.2453C104.107 24.1493 104.431 24.0533 104.743 23.9573C105.079 23.8373 105.379 23.7293 105.643 23.6333C105.931 23.5133 106.147 23.4293 106.291 23.3813C106.747 23.2133 107.107 23.0693 107.371 22.9493C107.563 22.8533 107.707 22.7933 107.803 22.7693C107.923 22.7693 107.983 22.8533 107.983 23.0213C107.983 23.1413 107.947 23.2133 107.875 23.2373L106.255 23.8853C106.015 23.9813 105.703 24.1133 105.319 24.2813C104.959 24.4253 104.563 24.5693 104.131 24.7133C103.699 24.8573 103.279 24.9893 102.871 25.1093C102.463 25.2053 102.103 25.2533 101.791 25.2533C101.335 25.2533 101.023 25.1693 100.855 25.0013C100.687 24.8093 100.603 24.5813 100.603 24.3173C100.603 24.0533 100.639 23.7773 100.711 23.4893C100.783 23.2253 100.879 22.9853 100.999 22.7693H100.747C100.315 22.7453 99.8108 22.7453 99.2348 22.7693C98.6588 22.7933 98.0588 22.8173 97.4348 22.8413C97.2188 22.8653 97.0148 22.8773 96.8228 22.8773C96.7988 22.9253 96.7628 22.9733 96.7148 23.0213C96.4508 23.3093 96.2708 23.5613 96.1748 23.7773ZM95.8508 22.8413H95.8148C95.7908 22.8893 95.8028 22.8893 95.8508 22.8413ZM121.027 23.0213C121.027 23.1173 120.991 23.1893 120.919 23.2373L119.299 23.8853C119.059 23.9813 118.747 24.1133 118.363 24.2813C118.003 24.4253 117.607 24.5693 117.175 24.7133C116.743 24.8573 116.323 24.9893 115.915 25.1093C115.507 25.2053 115.147 25.2533 114.835 25.2533C114.523 25.2533 114.271 25.1933 114.079 25.0733C113.911 24.9293 113.767 24.7733 113.647 24.6053C113.551 24.4373 113.479 24.2693 113.431 24.1013C113.407 23.9333 113.395 23.8013 113.395 23.7053C113.395 23.3453 113.467 23.0213 113.611 22.7333C113.779 22.4213 113.887 22.2413 113.935 22.1933C113.959 22.1693 113.935 22.1573 113.863 22.1573C113.647 22.3253 113.311 22.5653 112.855 22.8773C112.423 23.1893 111.931 23.5013 111.379 23.8133C110.827 24.1253 110.263 24.4013 109.687 24.6413C109.135 24.8813 108.619 25.0013 108.139 25.0013C107.875 25.0013 107.647 24.8813 107.455 24.6413C107.263 24.4013 107.167 24.1493 107.167 23.8853C107.167 23.5973 107.275 23.2733 107.491 22.9133C107.707 22.5533 107.959 22.2053 108.247 21.8693C108.559 21.5333 108.859 21.2213 109.147 20.9333C109.435 20.6453 109.651 20.4533 109.795 20.3573C109.795 20.3333 109.807 20.3213 109.831 20.3213H109.975C110.095 20.3213 110.191 20.3573 110.263 20.4293C110.287 20.4533 110.299 20.4893 110.299 20.5373C110.299 20.6333 110.215 20.7773 110.047 20.9693C109.879 21.1373 109.687 21.3413 109.471 21.5813C109.279 21.7973 109.099 22.0373 108.931 22.3013C108.763 22.5653 108.679 22.8413 108.679 23.1293C108.679 23.3693 108.751 23.5853 108.895 23.7773C109.039 23.9453 109.207 24.0293 109.399 24.0293C109.855 24.0293 110.407 23.8493 111.055 23.4893C111.703 23.1053 112.339 22.6733 112.963 22.1933C113.683 21.6413 114.427 21.0293 115.195 20.3573C115.363 20.3573 115.495 20.3933 115.591 20.4653C115.711 20.5133 115.771 20.6333 115.771 20.8253C115.771 20.8973 115.735 20.9933 115.663 21.1133C115.591 21.2093 115.459 21.4613 115.267 21.8693C115.099 22.2773 115.015 22.6853 115.015 23.0933C115.015 23.1653 115.015 23.2733 115.015 23.4173C115.039 23.5373 115.075 23.6693 115.123 23.8133C115.195 23.9573 115.291 24.0893 115.411 24.2093C115.531 24.3053 115.711 24.3533 115.951 24.3533C116.215 24.3533 116.503 24.3173 116.815 24.2453C117.151 24.1493 117.475 24.0533 117.787 23.9573C118.123 23.8373 118.423 23.7293 118.687 23.6333C118.975 23.5133 119.191 23.4293 119.335 23.3813C119.815 23.1893 120.175 23.0453 120.415 22.9493C120.559 22.8773 120.703 22.8173 120.847 22.7693C120.895 22.7693 120.931 22.8053 120.955 22.8773C121.003 22.9253 121.027 22.9733 121.027 23.0213ZM129.139 23.0213C129.139 23.1173 129.103 23.1893 129.031 23.2373C128.047 23.6453 127.087 24.0053 126.151 24.3173C125.359 24.5813 124.531 24.8333 123.667 25.0733C122.827 25.3133 122.119 25.4333 121.543 25.4333C121.063 25.4333 120.667 25.3253 120.355 25.1093C120.067 24.8693 119.923 24.5693 119.923 24.2093C119.923 23.8733 120.031 23.5613 120.247 23.2733C120.463 22.9853 120.691 22.7333 120.931 22.5173C121.195 22.3013 121.423 22.1213 121.615 21.9773C121.831 21.8333 121.939 21.7493 121.939 21.7253C121.939 21.6773 121.843 21.6413 121.651 21.6173C121.483 21.5933 121.183 21.5453 120.751 21.4733C120.487 21.4253 120.307 21.3533 120.211 21.2573C120.139 21.1373 120.103 21.0173 120.103 20.8973C120.103 20.7293 120.151 20.5853 120.247 20.4653C120.367 20.3213 120.451 20.2253 120.499 20.1773C120.979 19.8653 121.543 19.5533 122.191 19.2413C122.839 18.9293 123.475 18.6533 124.099 18.4133C124.747 18.1733 125.335 17.9813 125.863 17.8373C126.391 17.6933 126.763 17.6213 126.979 17.6213C127.219 17.6213 127.435 17.6813 127.627 17.8013C127.843 17.8973 127.951 18.0773 127.951 18.3413C127.951 18.4613 127.891 18.5933 127.771 18.7373C127.651 18.8573 127.507 18.9773 127.339 19.0973C127.171 19.1933 126.991 19.2773 126.799 19.3493C126.607 19.4213 126.439 19.4573 126.295 19.4573C126.175 19.4573 126.055 19.4333 125.935 19.3853C125.839 19.3373 125.791 19.2533 125.791 19.1333C125.791 18.9893 125.851 18.8333 125.971 18.6653C126.019 18.6173 126.043 18.5693 126.043 18.5213C126.043 18.4733 125.983 18.4493 125.863 18.4493C125.815 18.4493 125.743 18.4613 125.647 18.4853C125.551 18.4853 125.443 18.4973 125.323 18.5213C125.131 18.5693 124.855 18.6653 124.495 18.8093C124.135 18.9293 123.775 19.0733 123.415 19.2413C123.055 19.4093 122.731 19.5653 122.443 19.7093C122.155 19.8533 121.975 19.9493 121.903 19.9973C121.807 20.0693 121.759 20.1413 121.759 20.2133C121.759 20.3333 121.831 20.4173 121.975 20.4653C121.999 20.4653 122.083 20.4773 122.227 20.5013C122.371 20.5013 122.527 20.5133 122.695 20.5373C122.863 20.5373 123.019 20.5373 123.163 20.5373C123.331 20.5373 123.451 20.5373 123.523 20.5373C123.787 20.5613 123.943 20.6093 123.991 20.6813C124.039 20.7533 124.063 20.8733 124.063 21.0413C124.063 21.1613 124.039 21.2813 123.991 21.4013C123.943 21.5213 123.787 21.6053 123.523 21.6533C123.019 21.7733 122.527 21.9773 122.047 22.2653C121.591 22.5533 121.363 22.9373 121.363 23.4173C121.363 23.7533 121.543 24.0053 121.903 24.1733C122.287 24.3173 122.647 24.3893 122.983 24.3893C123.607 24.3893 124.267 24.3053 124.963 24.1373C125.659 23.9453 126.307 23.7533 126.907 23.5613C127.603 23.3213 128.287 23.0573 128.959 22.7693C129.007 22.7693 129.043 22.8053 129.067 22.8773C129.115 22.9253 129.139 22.9733 129.139 23.0213Z" fill="#565452"></path> </svg> 