<?xml version="1.0" encoding="UTF-8"?> <svg xmlns="http://www.w3.org/2000/svg" width="268" height="85" viewBox="0 0 268 85" fill="none"> <path d="M16.3394 14.647C16.4594 14.647 16.9034 14.695 17.6714 14.791C18.4394 14.887 19.3514 15.055 20.4074 15.295C21.4874 15.511 22.6274 15.799 23.8274 16.159C25.0514 16.519 26.1794 16.963 27.2114 17.491C28.2434 18.019 29.0954 18.643 29.7674 19.363C30.4394 20.059 30.7754 20.863 30.7754 21.775C30.7754 22.447 30.5714 23.179 30.1634 23.971C29.7794 24.763 29.0834 25.615 28.0754 26.527C27.9794 26.623 28.0634 26.671 28.3274 26.671C28.3514 26.671 28.5314 26.671 28.8674 26.671C29.2034 26.671 29.6114 26.671 30.0914 26.671C30.5954 26.695 31.1354 26.707 31.7114 26.707C32.2874 26.707 32.8394 26.707 33.3674 26.707C33.8954 26.731 34.3634 26.743 34.7714 26.743C35.1794 26.743 35.4554 26.743 35.5994 26.743C35.7194 26.767 35.8274 26.791 35.9234 26.815C36.0434 26.839 36.1034 26.899 36.1034 26.995C36.1034 27.163 36.0074 27.391 35.8154 27.679C35.6234 27.967 35.3834 28.111 35.0954 28.111C35.0234 28.111 34.5914 28.111 33.7994 28.111C33.0074 28.111 31.9874 28.111 30.7394 28.111C29.5154 28.111 28.1114 28.111 26.5274 28.111C24.9674 28.111 23.3714 28.099 21.7394 28.075C20.1314 28.075 18.5474 28.063 16.9874 28.039C15.4274 28.039 14.0234 28.027 12.7754 28.003C11.5274 28.003 10.5074 27.991 9.71538 27.967C8.94738 27.967 8.52738 27.955 8.45538 27.931C8.07138 27.859 7.87938 27.727 7.87938 27.535C7.87938 27.415 7.98738 27.247 8.20338 27.031C8.32338 26.911 8.43138 26.803 8.52738 26.707C8.62338 26.635 8.71938 26.575 8.81538 26.527C8.93538 26.503 9.06738 26.479 9.21138 26.455C9.37938 26.455 9.59538 26.455 9.85938 26.455C10.0034 26.455 10.4354 26.455 11.1554 26.455C11.8754 26.479 12.7394 26.491 13.7474 26.491C14.7794 26.491 15.8834 26.503 17.0594 26.527C18.2594 26.551 19.4114 26.563 20.5154 26.563C21.6194 26.563 22.6154 26.563 23.5034 26.563C24.3914 26.587 25.0394 26.599 25.4474 26.599H25.4834C26.7794 25.663 27.7034 24.787 28.2554 23.971C28.8314 23.155 29.1194 22.399 29.1194 21.703C29.1194 20.863 28.7474 20.119 28.0034 19.471C27.2834 18.799 26.2994 18.211 25.0514 17.707C23.8274 17.203 22.3994 16.771 20.7674 16.411C19.1354 16.051 17.4194 15.763 15.6194 15.547C14.4674 16.987 13.3154 18.415 12.1634 19.831C11.0354 21.247 10.0154 22.531 9.10338 23.683C8.19138 24.835 7.43538 25.771 6.83538 26.491C6.25938 27.235 5.94738 27.631 5.89938 27.679L5.71938 27.859C5.59938 27.979 5.49138 28.039 5.39538 28.039C5.13137 28.039 4.99937 27.919 4.99937 27.679C4.99937 27.487 5.08337 27.307 5.25137 27.139C5.27537 27.115 5.56338 26.755 6.11538 26.059C6.66738 25.363 7.37538 24.463 8.23938 23.359C9.12738 22.255 10.1114 21.007 11.1914 19.615C12.2954 18.223 13.3994 16.819 14.5034 15.403C13.2554 15.283 12.0074 15.199 10.7594 15.151C9.53538 15.079 8.31138 15.043 7.08738 15.043C6.77538 15.043 6.61938 14.899 6.61938 14.611C6.61938 14.539 6.61938 14.455 6.61938 14.359C6.64338 14.263 6.70338 14.155 6.79938 14.035C6.96738 13.819 7.19538 13.699 7.48338 13.675C7.79538 13.627 8.01138 13.603 8.13138 13.603C8.20338 13.603 8.49138 13.627 8.99538 13.675C9.52338 13.723 10.1354 13.795 10.8314 13.891C11.5514 13.963 12.3074 14.059 13.0994 14.179C13.8914 14.275 14.6114 14.371 15.2594 14.467C16.0994 13.411 16.9274 12.367 17.7434 11.335C18.5594 10.279 19.2794 9.34296 19.9034 8.52696C20.5514 7.71096 21.0674 7.05096 21.4514 6.54696C21.8594 6.01896 22.0754 5.74296 22.0994 5.71896C22.1474 5.64696 22.2674 5.51496 22.4594 5.32296C22.6754 5.13096 22.8794 5.03496 23.0714 5.03496C23.3834 5.03496 23.5394 5.16696 23.5394 5.43096C23.5394 5.69496 23.4074 5.93496 23.1434 6.15096C23.0954 6.19896 22.9034 6.42696 22.5674 6.83496C22.2554 7.21896 21.8234 7.75896 21.2714 8.45496C20.7194 9.12696 20.0834 9.90696 19.3634 10.795C18.6674 11.683 17.9234 12.631 17.1314 13.639L16.5194 14.431C16.4714 14.479 16.4354 14.527 16.4114 14.575C16.3874 14.599 16.3634 14.623 16.3394 14.647ZM2.94737 15.439C1.79537 14.143 1.14737 12.919 1.00337 11.767C0.835375 10.615 1.00337 9.55896 1.50737 8.59896C2.01137 7.63896 2.77937 6.77496 3.81137 6.00696C4.84337 5.21496 5.97138 4.55496 7.19538 4.02696C8.44338 3.49896 9.70338 3.10296 10.9754 2.83896C12.2714 2.57496 13.4354 2.45496 14.4674 2.47896C15.2594 2.50296 16.2434 2.52696 17.4194 2.55096C18.5954 2.57496 19.8674 2.61096 21.2354 2.65896C22.6034 2.68296 24.0314 2.70696 25.5194 2.73096C27.0314 2.75496 28.5074 2.77896 29.9474 2.80296C31.3874 2.82696 32.7554 2.85096 34.0514 2.87496C35.3714 2.87496 36.5474 2.87496 37.5794 2.87496C38.6834 2.87496 39.6434 2.86296 40.4594 2.83896C41.2754 2.81496 41.7794 2.77896 41.9714 2.73096C42.2114 2.65896 42.4154 2.62296 42.5834 2.62296C42.7754 2.62296 42.8714 2.68296 42.8714 2.80296C42.8714 2.89896 42.7994 3.05496 42.6554 3.27096C42.4154 3.58296 42.0074 3.83496 41.4314 4.02696C40.8554 4.19496 40.3274 4.30296 39.8474 4.35096C39.6074 4.37496 39.2714 4.39896 38.8394 4.42296C38.4074 4.42296 37.9154 4.42296 37.3634 4.42296C36.8354 4.42296 36.2594 4.42296 35.6354 4.42296C35.0354 4.42296 34.4474 4.42296 33.8714 4.42296C32.9594 4.42296 31.9154 4.41096 30.7394 4.38696C29.5634 4.36296 28.3274 4.33896 27.0314 4.31496C25.7354 4.26696 24.4034 4.21896 23.0354 4.17096C21.6914 4.12296 20.3714 4.08696 19.0754 4.06296C17.8034 4.01496 16.5914 3.97896 15.4394 3.95496C14.3114 3.93096 13.3274 3.91896 12.4874 3.91896C11.4314 3.91896 10.3394 4.07496 9.21138 4.38696C8.10738 4.67496 7.06338 5.05896 6.07938 5.53896C5.09537 5.99496 4.23137 6.52296 3.48737 7.12296C2.74337 7.69896 2.21537 8.26296 1.90337 8.81496C1.47137 9.60696 1.30337 10.387 1.39937 11.155C1.47137 11.923 1.65137 12.607 1.93937 13.207C2.22737 13.807 2.52737 14.287 2.83937 14.647C3.12737 14.983 3.27137 15.103 3.27137 15.007C3.41537 15.175 3.46337 15.355 3.41537 15.547C3.34337 15.739 3.18737 15.703 2.94737 15.439ZM44.8998 27.535C44.8998 27.847 44.6478 28.003 44.1438 28.003C43.9038 27.955 43.4838 27.907 42.8838 27.859C42.3078 27.835 41.6598 27.823 40.9398 27.823C40.2678 27.823 39.6198 27.835 38.9958 27.859C38.3718 27.907 37.7478 27.979 37.1238 28.075C35.7558 29.947 34.3878 31.783 33.0197 33.583C31.6277 35.383 30.3077 36.979 29.0597 38.371C27.7877 39.787 26.6117 40.927 25.5317 41.791C24.4277 42.655 23.4797 43.087 22.6877 43.087C22.1117 43.087 21.7037 42.859 21.4637 42.403C21.1997 41.947 21.0677 41.443 21.0677 40.891C21.0677 39.283 21.5237 37.759 22.4357 36.319C23.3237 34.879 24.5117 33.559 25.9997 32.359C27.4637 31.183 29.1437 30.163 31.0397 29.299C32.9357 28.459 34.8678 27.823 36.8358 27.391C37.4598 26.551 38.0238 25.759 38.5278 25.015C39.0558 24.247 39.5238 23.551 39.9318 22.927C39.9558 22.903 39.9678 22.879 39.9678 22.855C39.9678 22.783 39.9438 22.747 39.8958 22.747C39.8718 22.747 39.8358 22.771 39.7878 22.819C39.5478 23.011 39.2118 23.227 38.7798 23.467C38.3718 23.707 37.9398 23.935 37.4838 24.151C37.0278 24.343 36.5718 24.511 36.1158 24.655C35.6838 24.799 35.3238 24.871 35.0358 24.871C34.2918 24.871 33.9198 24.523 33.9198 23.827C33.9198 23.539 34.0518 23.179 34.3158 22.747C34.6038 22.315 34.9278 21.883 35.2878 21.451C35.6718 21.019 36.0318 20.635 36.3678 20.299C36.7278 19.939 36.9798 19.711 37.1238 19.615C37.1238 19.591 37.1358 19.579 37.1598 19.579H37.3038C37.4238 19.579 37.5198 19.615 37.5918 19.687C37.6158 19.711 37.6278 19.747 37.6278 19.795C36.7878 20.635 36.2238 21.331 35.9358 21.883C35.6478 22.411 35.5038 22.819 35.5038 23.107C35.5038 23.299 35.5518 23.455 35.6478 23.575C35.7678 23.695 35.8878 23.779 36.0078 23.827C36.1518 23.899 36.3078 23.935 36.4758 23.935C36.9798 23.935 37.5798 23.731 38.2758 23.323C38.9718 22.915 39.6438 22.459 40.2918 21.955C40.9398 21.451 41.5038 20.983 41.9838 20.551C42.4638 20.119 42.7278 19.867 42.7758 19.795C42.8478 19.723 42.9078 19.687 42.9558 19.687C43.0278 19.687 43.0638 19.735 43.0638 19.831C43.0638 19.999 42.9918 20.167 42.8477 20.335C42.0318 21.415 41.1918 22.531 40.3278 23.683C39.4878 24.835 38.6358 26.011 37.7718 27.211C38.4678 27.091 39.1518 26.995 39.8238 26.923C40.4958 26.875 41.1678 26.851 41.8398 26.851C42.3678 26.851 42.8238 26.851 43.2078 26.851C43.5918 26.875 43.9158 26.887 44.1798 26.887C44.5158 26.887 44.7198 26.947 44.7918 27.067C44.8638 27.187 44.8998 27.343 44.8998 27.535ZM36.2598 28.255C34.1237 28.663 32.2037 29.299 30.4997 30.163C28.7717 31.027 27.3197 32.023 26.1437 33.151C24.9437 34.279 24.0317 35.479 23.4077 36.751C22.7597 38.047 22.4357 39.307 22.4357 40.531C22.4357 40.867 22.5317 41.215 22.7237 41.575C22.9157 41.935 23.2157 42.115 23.6237 42.115C23.9597 42.115 24.4037 41.911 24.9557 41.503C25.4837 41.119 26.0957 40.591 26.7917 39.919C27.4637 39.247 28.1957 38.455 28.9877 37.543C29.7797 36.631 30.5957 35.659 31.4357 34.627C32.2517 33.595 33.0677 32.539 33.8838 31.459C34.7238 30.379 35.5158 29.311 36.2598 28.255ZM58.1073 27.499C58.1073 27.811 57.9513 27.991 57.6393 28.039C57.3513 28.111 57.0753 28.147 56.8113 28.147C56.7153 28.147 56.4153 28.135 55.9113 28.111C55.4073 28.087 54.8193 28.063 54.1473 28.039C53.4993 28.039 52.8033 28.027 52.0593 28.003C51.3393 27.979 50.6913 27.967 50.1153 27.967C49.4913 27.967 48.8793 27.979 48.2793 28.003C47.7033 28.051 47.1273 28.123 46.5513 28.219C45.1833 29.947 43.8032 31.687 42.4112 33.439C40.9952 35.215 39.6512 36.799 38.3792 38.191C37.0832 39.607 35.9072 40.759 34.8512 41.647C33.7712 42.535 32.9072 42.979 32.2592 42.979C31.7072 42.979 31.2752 42.799 30.9632 42.439C30.6512 42.103 30.4952 41.659 30.4952 41.107C30.4952 39.955 30.8432 38.683 31.5392 37.291C32.2352 35.923 33.2672 34.579 34.6352 33.259C36.0032 31.963 37.6952 30.775 39.7112 29.695C41.7272 28.639 44.0433 27.835 46.6593 27.283C47.3793 26.323 47.9553 25.531 48.3873 24.907C48.8433 24.259 49.0713 23.875 49.0713 23.755C49.0713 23.659 49.0353 23.611 48.9633 23.611C48.8913 23.611 48.7953 23.647 48.6753 23.719C48.5313 23.791 48.3393 23.887 48.0993 24.007C47.8833 24.127 47.6313 24.247 47.3433 24.367C47.0553 24.463 46.7553 24.547 46.4433 24.619C46.1553 24.691 45.8793 24.727 45.6153 24.727C45.2793 24.727 44.9793 24.643 44.7153 24.475C44.4753 24.283 44.3553 23.983 44.3553 23.575C44.3553 22.783 44.6913 22.039 45.3633 21.343C46.0353 20.647 46.8273 20.047 47.7393 19.543C48.6513 19.039 49.5633 18.643 50.4753 18.355C51.4113 18.043 52.1193 17.887 52.5993 17.887C52.8873 17.887 53.1753 17.959 53.4633 18.103C53.7513 18.247 53.9073 18.523 53.9313 18.931C53.9313 19.075 53.8473 19.255 53.6793 19.471C53.5113 19.663 53.3073 19.843 53.0673 20.011C52.8273 20.179 52.5873 20.323 52.3473 20.443C52.1313 20.563 51.9513 20.623 51.8073 20.623C51.6633 20.623 51.5553 20.575 51.4833 20.479C51.4113 20.383 51.3753 20.275 51.3753 20.155C51.3753 20.011 51.4353 19.903 51.5553 19.831C51.6033 19.783 51.6753 19.723 51.7713 19.651C51.8913 19.579 52.0113 19.507 52.1313 19.435C52.3233 19.291 52.4193 19.111 52.4193 18.895C52.4193 18.679 52.2753 18.571 51.9873 18.571C51.4833 18.571 50.8953 18.727 50.2233 19.039C49.5513 19.327 48.9033 19.699 48.2793 20.155C47.6793 20.587 47.1633 21.067 46.7313 21.595C46.2993 22.123 46.0833 22.615 46.0833 23.071C46.0833 23.287 46.1673 23.443 46.3353 23.539C46.5033 23.635 46.6833 23.683 46.8753 23.683C47.2113 23.683 47.5713 23.611 47.9553 23.467C48.3393 23.323 48.7113 23.155 49.0713 22.963C49.4553 22.747 49.8153 22.519 50.1513 22.279C50.5113 22.039 50.8113 21.823 51.0513 21.631C51.1473 21.535 51.2433 21.487 51.3393 21.487C51.4593 21.487 51.5193 21.559 51.5193 21.703C51.5193 21.871 51.4593 22.027 51.3393 22.171C50.7393 22.915 50.1033 23.707 49.4313 24.547C48.7593 25.363 48.0753 26.227 47.3793 27.139C48.3153 26.971 49.2753 26.839 50.2593 26.743C51.2433 26.671 52.2753 26.635 53.3553 26.635C54.1713 26.635 54.8673 26.647 55.4433 26.671C56.0433 26.695 56.4633 26.707 56.7033 26.707C57.2073 26.731 57.5673 26.791 57.7833 26.887C57.9993 26.983 58.1073 27.187 58.1073 27.499ZM45.8313 28.327C43.7913 28.711 41.9312 29.323 40.2512 30.163C38.5472 31.003 37.0832 31.963 35.8592 33.043C34.6352 34.147 33.6872 35.335 33.0152 36.607C32.3432 37.879 32.0072 39.139 32.0072 40.387C32.0072 40.771 32.0792 41.107 32.2232 41.395C32.3432 41.683 32.5712 41.827 32.9072 41.827C33.1952 41.827 33.6152 41.611 34.1672 41.179C34.7192 40.771 35.3672 40.219 36.1112 39.523C36.8312 38.827 37.6112 38.011 38.4512 37.075C39.2912 36.163 40.1432 35.203 41.0072 34.195C41.8712 33.211 42.7232 32.203 43.5632 31.171C44.3793 30.163 45.1353 29.215 45.8313 28.327ZM62.8148 23.107C62.8148 23.203 62.7788 23.275 62.7068 23.323C61.7228 23.731 60.7628 24.091 59.8268 24.403C59.0348 24.667 58.2068 24.919 57.3428 25.159C56.5028 25.399 55.7948 25.519 55.2188 25.519C54.7388 25.519 54.3428 25.411 54.0308 25.195C53.7428 24.955 53.5988 24.655 53.5988 24.295C53.5988 23.959 53.7068 23.647 53.9228 23.359C54.1388 23.071 54.3668 22.819 54.6068 22.603C54.8708 22.387 55.0988 22.207 55.2908 22.063C55.5068 21.919 55.6148 21.835 55.6148 21.811C55.6148 21.763 55.5188 21.727 55.3268 21.703C55.1588 21.679 54.8588 21.631 54.4268 21.559C54.1628 21.511 53.9828 21.439 53.8868 21.343C53.8148 21.223 53.7788 21.103 53.7788 20.983C53.7788 20.815 53.8268 20.671 53.9228 20.551C54.0428 20.407 54.1268 20.311 54.1748 20.263C54.6548 19.951 55.2188 19.639 55.8668 19.327C56.5148 19.015 57.1508 18.739 57.7748 18.499C58.4228 18.259 59.0108 18.067 59.5388 17.923C60.0668 17.779 60.4388 17.707 60.6548 17.707C60.8948 17.707 61.1108 17.767 61.3028 17.887C61.5188 17.983 61.6268 18.163 61.6268 18.427C61.6268 18.547 61.5668 18.679 61.4468 18.823C61.3268 18.943 61.1828 19.063 61.0148 19.183C60.8468 19.279 60.6668 19.363 60.4748 19.435C60.2828 19.507 60.1148 19.543 59.9708 19.543C59.8508 19.543 59.7308 19.519 59.6108 19.471C59.5148 19.423 59.4668 19.339 59.4668 19.219C59.4668 19.075 59.5268 18.919 59.6468 18.751C59.6948 18.703 59.7188 18.655 59.7188 18.607C59.7188 18.559 59.6588 18.535 59.5388 18.535C59.4908 18.535 59.4188 18.547 59.3228 18.571C59.2268 18.571 59.1188 18.583 58.9988 18.607C58.8068 18.655 58.5308 18.751 58.1708 18.895C57.8108 19.015 57.4508 19.159 57.0908 19.327C56.7308 19.495 56.4068 19.651 56.1188 19.795C55.8308 19.939 55.6508 20.035 55.5788 20.083C55.4828 20.155 55.4348 20.227 55.4348 20.299C55.4348 20.419 55.5068 20.503 55.6508 20.551C55.6748 20.551 55.7588 20.563 55.9028 20.587C56.0468 20.587 56.2028 20.599 56.3708 20.623C56.5388 20.623 56.6948 20.623 56.8388 20.623C57.0068 20.623 57.1268 20.623 57.1988 20.623C57.4628 20.647 57.6188 20.695 57.6668 20.767C57.7148 20.839 57.7388 20.959 57.7388 21.127C57.7388 21.247 57.7148 21.367 57.6668 21.487C57.6188 21.607 57.4628 21.691 57.1988 21.739C56.6948 21.859 56.2028 22.063 55.7228 22.351C55.2668 22.639 55.0388 23.023 55.0388 23.503C55.0388 23.839 55.2188 24.091 55.5788 24.259C55.9628 24.403 56.3228 24.475 56.6588 24.475C57.2828 24.475 57.9428 24.391 58.6388 24.223C59.3348 24.031 59.9828 23.839 60.5828 23.647C61.2788 23.407 61.9628 23.143 62.6348 22.855C62.6828 22.855 62.7188 22.891 62.7428 22.963C62.7908 23.011 62.8148 23.059 62.8148 23.107ZM69.4908 21.559C69.3228 21.727 69.2028 21.835 69.1308 21.883C69.0588 21.931 68.9148 22.051 68.6988 22.243C68.4828 22.411 68.1468 22.663 67.6908 22.999C67.2348 23.311 66.7188 23.635 66.1428 23.971C65.5908 24.307 65.0148 24.607 64.4148 24.871C63.8148 25.111 63.2868 25.231 62.8308 25.231C62.5668 25.231 62.3388 25.111 62.1468 24.871C61.9548 24.631 61.8588 24.379 61.8588 24.115C61.7868 23.827 61.8108 23.587 61.9308 23.395C62.0748 23.179 62.2428 23.035 62.4348 22.963C62.6268 22.867 62.8188 22.855 63.0108 22.927C63.2028 22.975 63.3228 23.119 63.3708 23.359C63.3708 23.599 63.4428 23.815 63.5868 24.007C63.7308 24.175 63.8988 24.259 64.0908 24.259C64.3068 24.259 64.5588 24.199 64.8468 24.079C65.1588 23.959 65.4708 23.815 65.7828 23.647C66.1188 23.455 66.4548 23.239 66.7908 22.999C67.1508 22.759 67.4868 22.519 67.7988 22.279C68.0628 22.087 68.3268 21.895 68.5908 21.703C68.8548 21.487 69.1188 21.259 69.3828 21.019C69.4308 20.995 69.5268 20.923 69.6708 20.803C69.8388 20.683 70.0188 20.575 70.2108 20.479C70.4268 20.359 70.6308 20.251 70.8228 20.155C71.0148 20.059 71.1708 20.011 71.2908 20.011C71.5308 20.011 71.6508 20.155 71.6508 20.443C71.6508 20.635 71.5428 20.887 71.3268 21.199C71.1348 21.511 70.9068 21.835 70.6428 22.171C70.4028 22.483 70.1748 22.795 69.9588 23.107C69.7668 23.395 69.6708 23.611 69.6708 23.755C69.6708 23.971 69.8148 24.079 70.1028 24.079C70.5348 24.079 71.0388 23.863 71.6148 23.431C72.2148 22.999 72.8148 22.519 73.4148 21.991C74.0148 21.463 74.5908 20.983 75.1428 20.551C75.6948 20.119 76.1508 19.903 76.5108 19.903C76.6308 19.903 76.7028 19.951 76.7268 20.047C76.7508 20.119 76.7628 20.179 76.7628 20.227C76.7628 20.323 76.7388 20.419 76.6908 20.515C76.6428 20.611 76.5948 20.707 76.5468 20.803C76.4748 20.899 76.3548 21.067 76.1868 21.307C76.0188 21.547 75.8508 21.811 75.6828 22.099C75.5388 22.387 75.3948 22.687 75.2508 22.999C75.1308 23.287 75.0708 23.551 75.0708 23.791C75.0708 24.223 75.3228 24.439 75.8268 24.439C76.0908 24.439 76.3788 24.403 76.6908 24.331C77.0268 24.235 77.3508 24.139 77.6628 24.043C77.9988 23.923 78.2988 23.815 78.5628 23.719C78.8508 23.599 79.0668 23.515 79.2108 23.467C79.6668 23.299 80.0268 23.155 80.2908 23.035C80.4828 22.939 80.6268 22.879 80.7228 22.855C80.8428 22.855 80.9028 22.939 80.9028 23.107C80.9028 23.227 80.8668 23.299 80.7948 23.323L79.1748 23.971C78.9348 24.067 78.6228 24.199 78.2388 24.367C77.8788 24.511 77.4828 24.655 77.0508 24.799C76.6188 24.943 76.1988 25.075 75.7908 25.195C75.3828 25.291 75.0228 25.339 74.7108 25.339C74.1588 25.339 73.8828 25.075 73.8828 24.547C73.8828 24.187 73.9788 23.767 74.1708 23.287C74.3868 22.783 74.6028 22.327 74.8188 21.919C74.8188 21.823 74.7828 21.775 74.7108 21.775C74.5668 21.775 74.4468 21.823 74.3508 21.919C73.8468 22.327 73.3308 22.723 72.8028 23.107C72.2748 23.491 71.7588 23.839 71.2548 24.151C70.7748 24.463 70.3068 24.715 69.8508 24.907C69.3948 25.099 68.9748 25.195 68.5908 25.195C68.4708 25.195 68.3268 25.159 68.1588 25.087C67.9908 24.991 67.9068 24.871 67.9068 24.727C67.9068 24.535 67.9908 24.283 68.1588 23.971C68.3268 23.635 68.5188 23.311 68.7348 22.999C68.9508 22.663 69.1428 22.363 69.3108 22.099C69.4788 21.835 69.5628 21.667 69.5628 21.595C69.5628 21.571 69.5388 21.559 69.4908 21.559ZM98.1581 20.371C98.1581 20.875 97.8941 21.379 97.3661 21.883C96.8621 22.387 96.2501 22.843 95.5301 23.251C94.8341 23.635 94.1141 23.959 93.3701 24.223C92.6261 24.487 92.0261 24.619 91.5701 24.619C91.1381 24.619 90.8621 24.535 90.7421 24.367C90.6221 24.175 90.5141 24.031 90.4181 23.935C90.3941 23.911 90.3821 23.863 90.3821 23.791C90.3821 23.671 90.4181 23.563 90.4901 23.467C90.5861 23.347 90.6941 23.239 90.8141 23.143C90.9341 23.047 91.0421 22.975 91.1381 22.927C91.2581 22.855 91.3541 22.819 91.4261 22.819C91.5941 22.819 91.7021 22.867 91.7501 22.963C91.8221 23.059 91.8821 23.167 91.9301 23.287C91.9781 23.383 92.0741 23.491 92.2181 23.611C92.3861 23.731 92.6261 23.791 92.9381 23.791C93.3461 23.791 93.7541 23.707 94.1621 23.539C94.5941 23.371 94.9781 23.155 95.3141 22.891C95.6741 22.603 95.9621 22.303 96.1781 21.991C96.4181 21.655 96.5381 21.331 96.5381 21.019C96.5381 20.707 96.4181 20.503 96.1781 20.407C95.9621 20.287 95.7221 20.227 95.4581 20.227C95.0021 20.227 94.4141 20.347 93.6941 20.587C92.9981 20.827 92.1941 21.163 91.2821 21.595C90.0341 23.011 88.7861 24.523 87.5381 26.131C86.3141 27.739 85.1141 29.323 83.9381 30.883C82.7381 32.467 81.5741 33.979 80.4461 35.419C79.3181 36.883 78.2261 38.155 77.1701 39.235C76.1141 40.339 75.1061 41.215 74.1461 41.863C73.1621 42.535 72.2381 42.871 71.3741 42.871C70.9181 42.871 70.5341 42.751 70.2221 42.511C69.9101 42.271 69.7541 41.899 69.7541 41.395C69.7541 40.411 70.0661 39.331 70.6901 38.155C71.2901 37.003 72.1181 35.815 73.1741 34.591C74.2061 33.367 75.4061 32.143 76.7741 30.919C78.1181 29.695 79.5461 28.507 81.0581 27.355C82.5461 26.227 84.0701 25.171 85.6301 24.187C87.1661 23.179 88.6301 22.315 90.0221 21.595C90.2861 21.187 90.5261 20.827 90.7421 20.515C90.9581 20.203 91.1501 19.939 91.3181 19.723C91.5101 19.459 91.6661 19.231 91.7861 19.039C91.7861 18.943 91.8461 18.883 91.9661 18.859C92.1101 18.835 92.2301 18.823 92.3261 18.823C92.4941 18.847 92.6621 18.871 92.8301 18.895C92.9981 18.895 93.0821 18.967 93.0821 19.111C93.0821 19.207 92.9861 19.411 92.7941 19.723C92.6021 20.011 92.4341 20.227 92.2901 20.371L92.0741 20.587C93.0341 20.155 93.8981 19.819 94.6661 19.579C95.4581 19.339 96.1181 19.219 96.6461 19.219C96.9821 19.219 97.3181 19.339 97.6541 19.579C97.9901 19.795 98.1581 20.059 98.1581 20.371ZM89.3381 22.567C88.1141 23.239 86.8181 24.019 85.4501 24.907C84.0821 25.771 82.7381 26.707 81.4181 27.715C80.0981 28.747 78.8261 29.815 77.6021 30.919C76.3781 32.047 75.3101 33.163 74.3981 34.267C73.4861 35.395 72.7541 36.499 72.2021 37.579C71.6501 38.683 71.3741 39.715 71.3741 40.675C71.3741 40.867 71.4461 41.095 71.5901 41.359C71.7101 41.623 71.9741 41.755 72.3821 41.755C72.9101 41.755 73.5941 41.419 74.4341 40.747C75.2501 40.099 76.1741 39.235 77.2061 38.155C78.2141 37.099 79.2701 35.887 80.3741 34.519C81.4781 33.175 82.5821 31.783 83.6861 30.343C84.7661 28.927 85.7861 27.535 86.7461 26.167C87.7301 24.823 88.5941 23.623 89.3381 22.567ZM110.187 23.107C110.187 23.203 110.151 23.275 110.079 23.323L108.459 23.971C108.219 24.067 107.907 24.199 107.523 24.367C107.163 24.511 106.767 24.655 106.335 24.799C105.903 24.943 105.483 25.075 105.075 25.195C104.667 25.291 104.307 25.339 103.995 25.339C103.491 25.339 103.239 25.183 103.239 24.871C103.239 24.775 103.251 24.655 103.275 24.511C103.323 24.343 103.407 24.175 103.527 24.007C103.335 24.151 103.071 24.319 102.735 24.511C102.399 24.679 102.039 24.847 101.655 25.015C101.271 25.159 100.875 25.291 100.467 25.411C100.083 25.531 99.7354 25.591 99.4234 25.591C98.9674 25.591 98.6434 25.495 98.4514 25.303C98.2354 25.135 98.1274 24.919 98.1274 24.655C98.1274 24.199 98.3674 23.635 98.8474 22.963C99.3274 22.291 99.9394 21.655 100.683 21.055C101.427 20.431 102.243 19.903 103.131 19.471C104.019 19.039 104.871 18.823 105.687 18.823C106.095 18.823 106.383 18.895 106.551 19.039C106.719 19.183 106.803 19.387 106.803 19.651C106.803 20.035 106.623 20.383 106.263 20.695C105.927 21.007 105.603 21.259 105.291 21.451C105.195 21.499 105.123 21.523 105.075 21.523C105.027 21.523 104.955 21.499 104.859 21.451C104.787 21.379 104.751 21.295 104.751 21.199C104.751 21.079 104.847 20.899 105.039 20.659C105.135 20.563 105.243 20.431 105.363 20.263C105.507 20.071 105.579 19.915 105.579 19.795C105.579 19.699 105.531 19.627 105.435 19.579C105.363 19.507 105.195 19.471 104.931 19.471C104.523 19.471 104.019 19.627 103.419 19.939C102.819 20.227 102.243 20.599 101.691 21.055C101.139 21.487 100.659 21.943 100.251 22.423C99.8674 22.903 99.6754 23.323 99.6754 23.683C99.6754 23.947 99.7834 24.151 99.9994 24.295C100.215 24.415 100.455 24.475 100.719 24.475C100.983 24.475 101.283 24.415 101.619 24.295C101.955 24.175 102.279 24.043 102.591 23.899C102.903 23.755 103.179 23.611 103.419 23.467C103.683 23.299 103.851 23.179 103.923 23.107C103.971 23.059 104.043 22.987 104.139 22.891C104.235 22.795 104.331 22.747 104.427 22.747C104.475 22.747 104.547 22.771 104.643 22.819C104.739 22.867 104.787 22.951 104.787 23.071C104.667 23.263 104.583 23.431 104.535 23.575C104.487 23.719 104.463 23.851 104.463 23.971C104.463 24.283 104.679 24.439 105.111 24.439C105.375 24.439 105.663 24.403 105.975 24.331C106.311 24.235 106.635 24.139 106.947 24.043C107.283 23.923 107.583 23.815 107.847 23.719C108.135 23.599 108.351 23.515 108.495 23.467C108.975 23.275 109.335 23.131 109.575 23.035C109.719 22.963 109.863 22.903 110.007 22.855C110.055 22.855 110.091 22.891 110.115 22.963C110.163 23.011 110.187 23.059 110.187 23.107ZM122.971 27.499C122.971 27.811 122.815 27.991 122.503 28.039C122.215 28.111 121.939 28.147 121.675 28.147C121.579 28.147 121.279 28.135 120.775 28.111C120.271 28.087 119.683 28.063 119.011 28.039C118.363 28.039 117.667 28.027 116.923 28.003C116.203 27.979 115.555 27.967 114.979 27.967C114.355 27.967 113.743 27.979 113.143 28.003C112.567 28.051 111.991 28.123 111.415 28.219C110.047 29.947 108.667 31.687 107.275 33.439C105.859 35.215 104.515 36.799 103.243 38.191C101.947 39.607 100.771 40.759 99.7145 41.647C98.6345 42.535 97.7705 42.979 97.1225 42.979C96.5705 42.979 96.1385 42.799 95.8265 42.439C95.5145 42.103 95.3585 41.659 95.3585 41.107C95.3585 39.955 95.7065 38.683 96.4025 37.291C97.0985 35.923 98.1305 34.579 99.4985 33.259C100.867 31.963 102.559 30.775 104.575 29.695C106.591 28.639 108.907 27.835 111.523 27.283C112.243 26.323 112.819 25.531 113.251 24.907C113.707 24.259 113.935 23.875 113.935 23.755C113.935 23.659 113.899 23.611 113.827 23.611C113.755 23.611 113.659 23.647 113.539 23.719C113.395 23.791 113.203 23.887 112.963 24.007C112.747 24.127 112.495 24.247 112.207 24.367C111.919 24.463 111.619 24.547 111.307 24.619C111.019 24.691 110.743 24.727 110.479 24.727C110.143 24.727 109.843 24.643 109.579 24.475C109.339 24.283 109.219 23.983 109.219 23.575C109.219 22.783 109.555 22.039 110.227 21.343C110.899 20.647 111.691 20.047 112.603 19.543C113.515 19.039 114.427 18.643 115.339 18.355C116.275 18.043 116.983 17.887 117.463 17.887C117.751 17.887 118.039 17.959 118.327 18.103C118.615 18.247 118.771 18.523 118.795 18.931C118.795 19.075 118.711 19.255 118.543 19.471C118.375 19.663 118.171 19.843 117.931 20.011C117.691 20.179 117.451 20.323 117.211 20.443C116.995 20.563 116.815 20.623 116.671 20.623C116.527 20.623 116.419 20.575 116.347 20.479C116.275 20.383 116.239 20.275 116.239 20.155C116.239 20.011 116.299 19.903 116.419 19.831C116.467 19.783 116.539 19.723 116.635 19.651C116.755 19.579 116.875 19.507 116.995 19.435C117.187 19.291 117.283 19.111 117.283 18.895C117.283 18.679 117.139 18.571 116.851 18.571C116.347 18.571 115.759 18.727 115.087 19.039C114.415 19.327 113.767 19.699 113.143 20.155C112.543 20.587 112.027 21.067 111.595 21.595C111.163 22.123 110.947 22.615 110.947 23.071C110.947 23.287 111.031 23.443 111.199 23.539C111.367 23.635 111.547 23.683 111.739 23.683C112.075 23.683 112.435 23.611 112.819 23.467C113.203 23.323 113.575 23.155 113.935 22.963C114.319 22.747 114.679 22.519 115.015 22.279C115.375 22.039 115.675 21.823 115.915 21.631C116.011 21.535 116.107 21.487 116.203 21.487C116.323 21.487 116.383 21.559 116.383 21.703C116.383 21.871 116.323 22.027 116.203 22.171C115.603 22.915 114.967 23.707 114.295 24.547C113.623 25.363 112.939 26.227 112.243 27.139C113.179 26.971 114.139 26.839 115.123 26.743C116.107 26.671 117.139 26.635 118.219 26.635C119.035 26.635 119.731 26.647 120.307 26.671C120.907 26.695 121.327 26.707 121.567 26.707C122.071 26.731 122.431 26.791 122.647 26.887C122.863 26.983 122.971 27.187 122.971 27.499ZM110.695 28.327C108.655 28.711 106.795 29.323 105.115 30.163C103.411 31.003 101.947 31.963 100.723 33.043C99.4985 34.147 98.5505 35.335 97.8785 36.607C97.2065 37.879 96.8705 39.139 96.8705 40.387C96.8705 40.771 96.9425 41.107 97.0865 41.395C97.2065 41.683 97.4345 41.827 97.7705 41.827C98.0585 41.827 98.4785 41.611 99.0305 41.179C99.5825 40.771 100.231 40.219 100.975 39.523C101.695 38.827 102.475 38.011 103.315 37.075C104.155 36.163 105.007 35.203 105.871 34.195C106.735 33.211 107.587 32.203 108.427 31.171C109.243 30.163 109.999 29.215 110.695 28.327ZM122.422 23.503C122.758 23.215 123.01 22.915 123.178 22.603C123.37 22.291 123.466 22.015 123.466 21.775C123.466 21.319 123.238 21.091 122.782 21.091C122.446 21.091 122.17 21.247 121.954 21.559C121.738 21.847 121.63 22.159 121.63 22.495C121.63 23.023 121.894 23.359 122.422 23.503ZM122.962 23.719C123.25 23.791 123.586 23.767 123.97 23.647C124.378 23.503 124.786 23.299 125.194 23.035C125.602 22.771 125.986 22.459 126.346 22.099C126.73 21.739 127.03 21.343 127.246 20.911C127.51 20.407 127.798 20.155 128.11 20.155C128.278 20.155 128.422 20.203 128.542 20.299C128.686 20.371 128.758 20.503 128.758 20.695C128.758 20.743 128.698 20.851 128.578 21.019C128.458 21.163 128.326 21.367 128.182 21.631C128.062 21.871 127.942 22.147 127.822 22.459C127.702 22.771 127.642 23.107 127.642 23.467C127.642 23.731 127.738 23.959 127.93 24.151C128.122 24.343 128.422 24.439 128.83 24.439C129.094 24.439 129.382 24.403 129.694 24.331C130.03 24.235 130.354 24.139 130.666 24.043C131.002 23.923 131.302 23.815 131.566 23.719C131.854 23.599 132.07 23.515 132.214 23.467C132.622 23.347 132.922 23.227 133.114 23.107C133.33 22.987 133.534 22.903 133.726 22.855C133.846 22.855 133.906 22.939 133.906 23.107C133.906 23.227 133.87 23.299 133.798 23.323L132.178 23.971C131.938 24.067 131.626 24.199 131.242 24.367C130.882 24.511 130.486 24.655 130.054 24.799C129.622 24.943 129.202 25.075 128.794 25.195C128.386 25.291 128.026 25.339 127.714 25.339C127.402 25.339 127.15 25.279 126.958 25.159C126.79 25.015 126.646 24.859 126.526 24.691C126.43 24.523 126.358 24.355 126.31 24.187C126.286 24.019 126.274 23.887 126.274 23.791C126.274 23.479 126.334 23.203 126.454 22.963C126.574 22.699 126.67 22.507 126.742 22.387C126.262 22.939 125.674 23.407 124.978 23.791C124.306 24.151 123.49 24.271 122.53 24.151C121.858 24.703 121.294 25.039 120.838 25.159C120.406 25.279 119.914 25.339 119.362 25.339C118.498 25.339 118.066 24.967 118.066 24.223C118.066 23.791 118.282 23.227 118.714 22.531C119.146 21.811 119.65 21.103 120.226 20.407C120.802 19.711 121.366 19.111 121.918 18.607C122.47 18.079 122.854 17.791 123.07 17.743C123.094 17.743 123.19 17.719 123.358 17.671C123.55 17.623 123.67 17.599 123.718 17.599C123.838 17.599 123.934 17.647 124.006 17.743C124.102 17.815 124.15 17.899 124.15 17.995C124.15 18.043 124.066 18.139 123.898 18.283C123.73 18.427 123.526 18.595 123.286 18.787C123.07 18.955 122.842 19.147 122.602 19.363C122.362 19.579 122.17 19.771 122.026 19.939C121.258 20.707 120.598 21.427 120.046 22.099C119.494 22.771 119.218 23.299 119.218 23.683C119.218 23.947 119.338 24.163 119.578 24.331C119.842 24.475 120.094 24.547 120.334 24.547C120.646 24.547 120.91 24.511 121.126 24.439C121.366 24.343 121.642 24.163 121.954 23.899C121.618 23.755 121.378 23.539 121.234 23.251C121.09 22.963 121.018 22.651 121.018 22.315C121.018 21.739 121.21 21.235 121.594 20.803C122.002 20.347 122.578 20.119 123.322 20.119C123.658 20.119 123.898 20.227 124.042 20.443C124.186 20.659 124.258 20.899 124.258 21.163C124.258 21.595 124.162 22.003 123.97 22.387C123.802 22.747 123.466 23.191 122.962 23.719ZM163.298 1.79496C163.298 2.51496 162.95 3.45096 162.254 4.60296C161.558 5.75496 160.634 7.01496 159.482 8.38296C158.354 9.72696 157.046 11.119 155.558 12.559C154.094 13.999 152.594 15.379 151.058 16.699C149.522 17.995 147.998 19.171 146.486 20.227C144.998 21.283 143.654 22.099 142.454 22.675C142.478 23.515 142.67 24.103 143.03 24.439C143.414 24.775 143.858 24.943 144.362 24.943C144.842 24.943 145.31 24.835 145.766 24.619C146.222 24.379 146.63 24.079 146.99 23.719C147.35 23.359 147.638 22.963 147.854 22.531C148.07 22.099 148.178 21.691 148.178 21.307C148.178 21.115 148.166 20.959 148.142 20.839C148.118 20.719 148.106 20.599 148.106 20.479C148.106 20.335 148.154 20.251 148.25 20.227C148.37 20.179 148.49 20.155 148.61 20.155C148.658 20.155 148.91 20.155 149.366 20.155C149.846 20.155 150.41 20.167 151.058 20.191C151.73 20.191 152.45 20.191 153.218 20.191C153.986 20.191 154.706 20.191 155.378 20.191C155.594 20.191 155.702 20.239 155.702 20.335C155.702 20.455 155.594 20.647 155.378 20.911C155.138 21.223 154.874 21.379 154.586 21.379C154.562 21.379 154.514 21.379 154.442 21.379C154.37 21.379 154.154 21.379 153.794 21.379C153.458 21.355 152.918 21.343 152.174 21.343C151.43 21.343 150.386 21.343 149.042 21.343C148.922 21.895 148.67 22.447 148.286 22.999C147.902 23.551 147.446 24.043 146.918 24.475C146.414 24.907 145.874 25.255 145.298 25.519C144.722 25.807 144.17 25.951 143.642 25.951C142.802 25.951 142.154 25.687 141.698 25.159C141.242 24.631 141.014 23.947 141.014 23.107C141.014 21.883 141.362 20.479 142.058 18.895C142.778 17.287 143.714 15.643 144.866 13.963C146.042 12.283 147.362 10.639 148.826 9.03096C150.29 7.39896 151.778 5.95896 153.29 4.71096C154.826 3.43896 156.314 2.41896 157.754 1.65096C159.194 0.858956 160.454 0.462956 161.534 0.462956C162.71 0.462956 163.298 0.906956 163.298 1.79496ZM161.606 2.40696C161.606 1.68696 161.21 1.32696 160.418 1.32696C159.65 1.32696 158.678 1.68696 157.502 2.40696C156.326 3.10296 155.078 4.02696 153.758 5.17896C152.462 6.33096 151.154 7.65096 149.834 9.13896C148.514 10.603 147.314 12.115 146.234 13.675C145.178 15.211 144.302 16.723 143.606 18.211C142.91 19.675 142.526 20.995 142.454 22.171C143.966 21.355 145.49 20.383 147.026 19.255C148.586 18.103 150.074 16.903 151.49 15.655C152.906 14.383 154.226 13.087 155.45 11.767C156.698 10.447 157.766 9.19896 158.654 8.02296C159.566 6.82296 160.286 5.73096 160.814 4.74696C161.342 3.76296 161.606 2.98296 161.606 2.40696ZM168.293 23.107C168.293 23.203 168.257 23.275 168.185 23.323L166.565 23.971C166.325 24.067 166.013 24.199 165.629 24.367C165.269 24.511 164.873 24.655 164.441 24.799C164.009 24.943 163.589 25.075 163.181 25.195C162.773 25.291 162.413 25.339 162.101 25.339C161.789 25.339 161.537 25.279 161.345 25.159C161.177 25.015 161.033 24.859 160.913 24.691C160.817 24.523 160.745 24.355 160.697 24.187C160.673 24.019 160.661 23.887 160.661 23.791C160.661 23.431 160.733 23.107 160.877 22.819C161.045 22.507 161.153 22.327 161.201 22.279C161.225 22.255 161.201 22.243 161.129 22.243C160.913 22.411 160.577 22.651 160.121 22.963C159.689 23.275 159.197 23.587 158.645 23.899C158.093 24.211 157.529 24.487 156.953 24.727C156.401 24.967 155.885 25.087 155.405 25.087C155.141 25.087 154.913 24.967 154.721 24.727C154.529 24.487 154.433 24.235 154.433 23.971C154.433 23.683 154.541 23.359 154.757 22.999C154.973 22.639 155.225 22.291 155.513 21.955C155.825 21.619 156.125 21.307 156.413 21.019C156.701 20.731 156.917 20.539 157.061 20.443C157.061 20.419 157.073 20.407 157.097 20.407H157.241C157.361 20.407 157.457 20.443 157.529 20.515C157.553 20.539 157.565 20.575 157.565 20.623C157.565 20.719 157.481 20.863 157.313 21.055C157.145 21.223 156.953 21.427 156.737 21.667C156.545 21.883 156.365 22.123 156.197 22.387C156.029 22.651 155.945 22.927 155.945 23.215C155.945 23.455 156.017 23.671 156.161 23.863C156.305 24.031 156.473 24.115 156.665 24.115C157.121 24.115 157.673 23.935 158.321 23.575C158.969 23.191 159.605 22.759 160.229 22.279C160.949 21.727 161.693 21.115 162.461 20.443C162.629 20.443 162.761 20.479 162.857 20.551C162.977 20.599 163.037 20.719 163.037 20.911C163.037 20.983 163.001 21.079 162.929 21.199C162.857 21.295 162.725 21.547 162.533 21.955C162.365 22.363 162.281 22.771 162.281 23.179C162.281 23.251 162.281 23.359 162.281 23.503C162.305 23.623 162.341 23.755 162.389 23.899C162.461 24.043 162.557 24.175 162.677 24.295C162.797 24.391 162.977 24.439 163.217 24.439C163.481 24.439 163.769 24.403 164.081 24.331C164.417 24.235 164.741 24.139 165.053 24.043C165.389 23.923 165.689 23.815 165.953 23.719C166.241 23.599 166.457 23.515 166.601 23.467C167.081 23.275 167.441 23.131 167.681 23.035C167.825 22.963 167.969 22.903 168.113 22.855C168.161 22.855 168.197 22.891 168.221 22.963C168.269 23.011 168.293 23.059 168.293 23.107ZM181.049 27.499C181.049 27.811 180.893 27.991 180.581 28.039C180.293 28.111 180.017 28.147 179.753 28.147C179.657 28.147 179.357 28.135 178.853 28.111C178.349 28.087 177.761 28.063 177.089 28.039C176.441 28.039 175.745 28.027 175.001 28.003C174.281 27.979 173.633 27.967 173.057 27.967C172.433 27.967 171.821 27.979 171.221 28.003C170.645 28.051 170.069 28.123 169.493 28.219C168.125 29.947 166.745 31.687 165.353 33.439C163.937 35.215 162.593 36.799 161.321 38.191C160.025 39.607 158.849 40.759 157.793 41.647C156.713 42.535 155.849 42.979 155.201 42.979C154.649 42.979 154.217 42.799 153.905 42.439C153.593 42.103 153.437 41.659 153.437 41.107C153.437 39.955 153.785 38.683 154.481 37.291C155.177 35.923 156.209 34.579 157.577 33.259C158.945 31.963 160.637 30.775 162.653 29.695C164.669 28.639 166.985 27.835 169.601 27.283C170.321 26.323 170.897 25.531 171.329 24.907C171.785 24.259 172.013 23.875 172.013 23.755C172.013 23.659 171.977 23.611 171.905 23.611C171.833 23.611 171.737 23.647 171.617 23.719C171.473 23.791 171.281 23.887 171.041 24.007C170.825 24.127 170.573 24.247 170.285 24.367C169.997 24.463 169.697 24.547 169.385 24.619C169.097 24.691 168.821 24.727 168.557 24.727C168.221 24.727 167.921 24.643 167.657 24.475C167.417 24.283 167.297 23.983 167.297 23.575C167.297 22.783 167.633 22.039 168.305 21.343C168.977 20.647 169.769 20.047 170.681 19.543C171.593 19.039 172.505 18.643 173.417 18.355C174.353 18.043 175.061 17.887 175.541 17.887C175.829 17.887 176.117 17.959 176.405 18.103C176.693 18.247 176.849 18.523 176.873 18.931C176.873 19.075 176.789 19.255 176.621 19.471C176.453 19.663 176.249 19.843 176.009 20.011C175.769 20.179 175.529 20.323 175.289 20.443C175.073 20.563 174.893 20.623 174.749 20.623C174.605 20.623 174.497 20.575 174.425 20.479C174.353 20.383 174.317 20.275 174.317 20.155C174.317 20.011 174.377 19.903 174.497 19.831C174.545 19.783 174.617 19.723 174.713 19.651C174.833 19.579 174.953 19.507 175.073 19.435C175.265 19.291 175.361 19.111 175.361 18.895C175.361 18.679 175.217 18.571 174.929 18.571C174.425 18.571 173.837 18.727 173.165 19.039C172.493 19.327 171.845 19.699 171.221 20.155C170.621 20.587 170.105 21.067 169.673 21.595C169.241 22.123 169.025 22.615 169.025 23.071C169.025 23.287 169.109 23.443 169.277 23.539C169.445 23.635 169.625 23.683 169.817 23.683C170.153 23.683 170.513 23.611 170.897 23.467C171.281 23.323 171.653 23.155 172.013 22.963C172.397 22.747 172.757 22.519 173.093 22.279C173.453 22.039 173.753 21.823 173.993 21.631C174.089 21.535 174.185 21.487 174.281 21.487C174.401 21.487 174.461 21.559 174.461 21.703C174.461 21.871 174.401 22.027 174.281 22.171C173.681 22.915 173.045 23.707 172.373 24.547C171.701 25.363 171.017 26.227 170.321 27.139C171.257 26.971 172.217 26.839 173.201 26.743C174.185 26.671 175.217 26.635 176.297 26.635C177.113 26.635 177.809 26.647 178.385 26.671C178.985 26.695 179.405 26.707 179.645 26.707C180.149 26.731 180.509 26.791 180.725 26.887C180.941 26.983 181.049 27.187 181.049 27.499ZM168.773 28.327C166.733 28.711 164.873 29.323 163.193 30.163C161.489 31.003 160.025 31.963 158.801 33.043C157.577 34.147 156.629 35.335 155.957 36.607C155.285 37.879 154.949 39.139 154.949 40.387C154.949 40.771 155.021 41.107 155.165 41.395C155.285 41.683 155.513 41.827 155.849 41.827C156.137 41.827 156.557 41.611 157.109 41.179C157.661 40.771 158.309 40.219 159.053 39.523C159.773 38.827 160.553 38.011 161.393 37.075C162.233 36.163 163.085 35.203 163.949 34.195C164.813 33.211 165.665 32.203 166.505 31.171C167.321 30.163 168.077 29.215 168.773 28.327ZM185.756 23.107C185.756 23.203 185.72 23.275 185.648 23.323C184.664 23.731 183.704 24.091 182.768 24.403C181.976 24.667 181.148 24.919 180.284 25.159C179.444 25.399 178.736 25.519 178.16 25.519C177.68 25.519 177.284 25.411 176.972 25.195C176.684 24.955 176.54 24.655 176.54 24.295C176.54 23.959 176.648 23.647 176.864 23.359C177.08 23.071 177.308 22.819 177.548 22.603C177.812 22.387 178.04 22.207 178.232 22.063C178.448 21.919 178.556 21.835 178.556 21.811C178.556 21.763 178.46 21.727 178.268 21.703C178.1 21.679 177.8 21.631 177.368 21.559C177.104 21.511 176.924 21.439 176.828 21.343C176.756 21.223 176.72 21.103 176.72 20.983C176.72 20.815 176.768 20.671 176.864 20.551C176.984 20.407 177.068 20.311 177.116 20.263C177.596 19.951 178.16 19.639 178.808 19.327C179.456 19.015 180.092 18.739 180.716 18.499C181.364 18.259 181.952 18.067 182.48 17.923C183.008 17.779 183.38 17.707 183.596 17.707C183.836 17.707 184.052 17.767 184.244 17.887C184.46 17.983 184.568 18.163 184.568 18.427C184.568 18.547 184.508 18.679 184.388 18.823C184.268 18.943 184.124 19.063 183.956 19.183C183.788 19.279 183.608 19.363 183.416 19.435C183.224 19.507 183.056 19.543 182.912 19.543C182.792 19.543 182.672 19.519 182.552 19.471C182.456 19.423 182.408 19.339 182.408 19.219C182.408 19.075 182.468 18.919 182.588 18.751C182.636 18.703 182.66 18.655 182.66 18.607C182.66 18.559 182.6 18.535 182.48 18.535C182.432 18.535 182.36 18.547 182.264 18.571C182.168 18.571 182.06 18.583 181.94 18.607C181.748 18.655 181.472 18.751 181.112 18.895C180.752 19.015 180.392 19.159 180.032 19.327C179.672 19.495 179.348 19.651 179.06 19.795C178.772 19.939 178.592 20.035 178.52 20.083C178.424 20.155 178.376 20.227 178.376 20.299C178.376 20.419 178.448 20.503 178.592 20.551C178.616 20.551 178.7 20.563 178.844 20.587C178.988 20.587 179.144 20.599 179.312 20.623C179.48 20.623 179.636 20.623 179.78 20.623C179.948 20.623 180.068 20.623 180.14 20.623C180.404 20.647 180.56 20.695 180.608 20.767C180.656 20.839 180.68 20.959 180.68 21.127C180.68 21.247 180.656 21.367 180.608 21.487C180.56 21.607 180.404 21.691 180.14 21.739C179.636 21.859 179.144 22.063 178.664 22.351C178.208 22.639 177.98 23.023 177.98 23.503C177.98 23.839 178.16 24.091 178.52 24.259C178.904 24.403 179.264 24.475 179.6 24.475C180.224 24.475 180.884 24.391 181.58 24.223C182.276 24.031 182.924 23.839 183.524 23.647C184.22 23.407 184.904 23.143 185.576 22.855C185.624 22.855 185.66 22.891 185.684 22.963C185.732 23.011 185.756 23.059 185.756 23.107ZM205.5 23.107C205.5 23.203 205.464 23.275 205.392 23.323L203.772 23.971C203.532 24.067 203.22 24.199 202.836 24.367C202.476 24.511 202.08 24.655 201.648 24.799C201.216 24.943 200.796 25.075 200.388 25.195C199.98 25.291 199.62 25.339 199.308 25.339C198.756 25.339 198.48 25.075 198.48 24.547C198.48 24.187 198.576 23.767 198.768 23.287C198.984 22.783 199.2 22.327 199.416 21.919C199.416 21.823 199.38 21.775 199.308 21.775C199.188 21.775 199.068 21.823 198.948 21.919C198.444 22.303 197.928 22.699 197.4 23.107C196.872 23.491 196.356 23.839 195.852 24.151C195.372 24.463 194.904 24.715 194.448 24.907C193.992 25.099 193.572 25.195 193.188 25.195C193.068 25.195 192.924 25.159 192.756 25.087C192.588 24.991 192.504 24.871 192.504 24.727C192.504 24.535 192.588 24.283 192.756 23.971C192.924 23.635 193.104 23.299 193.296 22.963C193.488 22.627 193.668 22.327 193.836 22.063C194.004 21.799 194.088 21.631 194.088 21.559C194.088 21.535 194.064 21.523 194.016 21.523C193.92 21.523 193.704 21.619 193.368 21.811C193.032 22.003 192.648 22.243 192.216 22.531C191.784 22.795 191.316 23.095 190.812 23.431C190.308 23.767 189.828 24.079 189.372 24.367C188.916 24.631 188.496 24.859 188.112 25.051C187.752 25.243 187.488 25.339 187.32 25.339C187.176 25.339 187.044 25.291 186.924 25.195C186.828 25.099 186.78 24.979 186.78 24.835C186.78 24.643 186.864 24.427 187.032 24.187C187.2 23.923 187.392 23.671 187.608 23.431C187.824 23.167 188.04 22.915 188.256 22.675C188.496 22.435 188.676 22.243 188.796 22.099C188.82 22.075 188.832 22.039 188.832 21.991C188.832 21.919 188.784 21.883 188.688 21.883C188.664 21.883 188.532 21.943 188.292 22.063C188.076 22.183 187.812 22.327 187.5 22.495C187.212 22.639 186.9 22.795 186.564 22.963C186.228 23.131 185.952 23.263 185.736 23.359C185.568 23.431 185.388 23.503 185.196 23.575C185.004 23.647 184.8 23.731 184.584 23.827C184.536 23.827 184.5 23.803 184.476 23.755C184.428 23.683 184.404 23.623 184.404 23.575C184.404 23.455 184.44 23.383 184.512 23.359C184.704 23.287 184.884 23.227 185.052 23.179C185.22 23.107 185.376 23.035 185.52 22.963C186.144 22.699 186.72 22.423 187.248 22.135C187.8 21.823 188.292 21.535 188.724 21.271C189.228 20.983 189.696 20.683 190.128 20.371C190.176 20.347 190.248 20.323 190.344 20.299C190.44 20.251 190.536 20.227 190.632 20.227C190.824 20.227 190.92 20.359 190.92 20.623C190.92 20.815 190.812 21.055 190.596 21.343C190.38 21.631 190.128 21.931 189.84 22.243C189.576 22.531 189.336 22.819 189.12 23.107C188.904 23.371 188.796 23.575 188.796 23.719C188.796 23.911 188.892 24.007 189.084 24.007C189.228 24.007 189.516 23.875 189.948 23.611C190.38 23.323 190.872 22.999 191.424 22.639C191.976 22.279 192.528 21.919 193.08 21.559C193.632 21.199 194.088 20.923 194.448 20.731C194.544 20.659 194.748 20.527 195.06 20.335C195.372 20.119 195.648 20.011 195.888 20.011C196.008 20.011 196.092 20.059 196.14 20.155C196.212 20.227 196.248 20.323 196.248 20.443C196.248 20.635 196.14 20.887 195.924 21.199C195.732 21.511 195.504 21.835 195.24 22.171C195 22.483 194.772 22.795 194.556 23.107C194.364 23.395 194.268 23.611 194.268 23.755C194.268 23.971 194.412 24.079 194.7 24.079C195.132 24.079 195.636 23.863 196.212 23.431C196.812 22.999 197.412 22.519 198.012 21.991C198.612 21.463 199.188 20.983 199.74 20.551C200.292 20.119 200.748 19.903 201.108 19.903C201.228 19.903 201.3 19.951 201.324 20.047C201.348 20.119 201.36 20.179 201.36 20.227C201.36 20.323 201.336 20.419 201.288 20.515C201.24 20.611 201.192 20.707 201.144 20.803C201.072 20.899 200.952 21.067 200.784 21.307C200.616 21.547 200.448 21.811 200.28 22.099C200.136 22.387 199.992 22.687 199.848 22.999C199.728 23.287 199.668 23.551 199.668 23.791C199.668 24.223 199.92 24.439 200.424 24.439C200.688 24.439 200.976 24.403 201.288 24.331C201.624 24.235 201.948 24.139 202.26 24.043C202.596 23.923 202.896 23.815 203.16 23.719C203.448 23.599 203.664 23.515 203.808 23.467C204.288 23.275 204.648 23.131 204.888 23.035C205.032 22.963 205.176 22.903 205.32 22.855C205.368 22.855 205.404 22.891 205.428 22.963C205.476 23.011 205.5 23.059 205.5 23.107ZM208.379 23.503C208.715 23.215 208.967 22.915 209.135 22.603C209.327 22.291 209.423 22.015 209.423 21.775C209.423 21.319 209.195 21.091 208.739 21.091C208.475 21.091 208.235 21.199 208.019 21.415C207.827 21.631 207.695 21.883 207.623 22.171C207.575 22.459 207.599 22.735 207.695 22.999C207.815 23.263 208.043 23.431 208.379 23.503ZM208.919 23.719C209.159 23.839 209.459 23.899 209.819 23.899C210.179 23.875 210.539 23.827 210.899 23.755C211.283 23.659 211.631 23.539 211.943 23.395C212.279 23.251 212.543 23.095 212.735 22.927C212.807 22.879 212.843 22.915 212.843 23.035C212.867 23.155 212.855 23.239 212.807 23.287C212.615 23.527 212.327 23.731 211.943 23.899C211.583 24.043 211.187 24.163 210.755 24.259C210.347 24.331 209.927 24.367 209.495 24.367C209.087 24.343 208.751 24.271 208.487 24.151C207.815 24.703 207.251 25.039 206.795 25.159C206.363 25.279 205.871 25.339 205.319 25.339C204.431 25.339 203.963 24.967 203.915 24.223C203.891 23.815 204.023 23.359 204.311 22.855C204.599 22.327 204.947 21.811 205.355 21.307C205.787 20.779 206.243 20.275 206.723 19.795C207.203 19.291 207.647 18.859 208.055 18.499C208.655 17.947 209.111 17.599 209.423 17.455C209.759 17.311 209.987 17.275 210.107 17.347C210.227 17.419 210.275 17.551 210.251 17.743C210.251 17.935 210.215 18.091 210.143 18.211C210.095 18.307 209.891 18.487 209.531 18.751C209.171 18.991 208.655 19.387 207.983 19.939C207.215 20.707 206.555 21.427 206.003 22.099C205.451 22.771 205.175 23.299 205.175 23.683C205.175 23.947 205.295 24.163 205.535 24.331C205.799 24.475 206.051 24.547 206.291 24.547C206.603 24.547 206.867 24.511 207.083 24.439C207.323 24.343 207.599 24.163 207.911 23.899C207.479 23.683 207.203 23.371 207.083 22.963C206.963 22.531 206.963 22.099 207.083 21.667C207.203 21.235 207.455 20.863 207.839 20.551C208.223 20.239 208.703 20.095 209.279 20.119C209.687 20.143 209.951 20.299 210.071 20.587C210.215 20.875 210.251 21.211 210.179 21.595C210.107 21.979 209.951 22.375 209.711 22.783C209.495 23.167 209.231 23.479 208.919 23.719ZM250.064 26.995C250.064 27.163 249.968 27.391 249.776 27.679C249.584 27.967 249.344 28.111 249.056 28.111C248.984 28.111 248.552 28.111 247.76 28.111C246.968 28.111 245.948 28.099 244.7 28.075C243.476 28.075 242.072 28.075 240.488 28.075C238.928 28.075 237.332 28.063 235.7 28.039C234.092 28.039 232.508 28.039 230.948 28.039C229.388 28.039 227.984 28.027 226.736 28.003C225.512 28.003 224.504 27.991 223.712 27.967C222.92 27.967 222.488 27.955 222.416 27.931C222.032 27.859 221.84 27.727 221.84 27.535C221.84 27.415 221.948 27.247 222.164 27.031C222.284 26.911 222.392 26.803 222.488 26.707C222.584 26.635 222.68 26.575 222.776 26.527C222.896 26.503 223.028 26.479 223.172 26.455C223.34 26.455 223.556 26.455 223.82 26.455C223.964 26.455 224.396 26.455 225.116 26.455C225.836 26.479 226.7 26.491 227.708 26.491C228.716 26.491 229.82 26.503 231.02 26.527C232.22 26.551 233.372 26.563 234.476 26.563C235.58 26.563 236.576 26.563 237.464 26.563C238.352 26.587 239 26.599 239.408 26.599H239.444C240.74 25.663 241.664 24.787 242.216 23.971C242.792 23.155 243.08 22.399 243.08 21.703C243.08 20.863 242.708 20.119 241.964 19.471C241.244 18.799 240.26 18.211 239.012 17.707C237.788 17.179 236.36 16.747 234.728 16.411C233.096 16.051 231.38 15.763 229.58 15.547C228.428 16.987 227.288 18.415 226.16 19.831C225.032 21.247 224 22.531 223.064 23.683C222.152 24.835 221.396 25.771 220.796 26.491C220.22 27.235 219.908 27.631 219.86 27.679L219.68 27.859C219.56 27.979 219.452 28.039 219.356 28.039C219.092 28.039 218.96 27.919 218.96 27.679C218.96 27.487 219.044 27.307 219.212 27.139C219.236 27.115 219.524 26.755 220.076 26.059C220.628 25.363 221.336 24.463 222.2 23.359C223.088 22.255 224.072 21.007 225.152 19.615C226.256 18.223 227.36 16.819 228.464 15.403C227.216 15.283 225.968 15.199 224.72 15.151C223.496 15.079 222.272 15.043 221.048 15.043C220.736 15.043 220.58 14.899 220.58 14.611C220.58 14.539 220.58 14.455 220.58 14.359C220.604 14.263 220.664 14.155 220.76 14.035C220.928 13.819 221.156 13.699 221.444 13.675C221.756 13.627 221.972 13.603 222.092 13.603C222.164 13.603 222.464 13.603 222.992 13.603C223.544 13.603 224.204 13.615 224.972 13.639C225.74 13.639 226.556 13.639 227.42 13.639C228.308 13.639 229.112 13.639 229.832 13.639C230.672 12.583 231.464 11.575 232.208 10.615C232.952 9.65496 233.6 8.81496 234.152 8.09496C234.728 7.37496 235.184 6.81096 235.52 6.40296C235.856 5.97096 236.036 5.74296 236.06 5.71896C236.108 5.64696 236.228 5.51496 236.42 5.32296C236.636 5.13096 236.84 5.03496 237.032 5.03496C237.344 5.03496 237.5 5.16696 237.5 5.43096C237.5 5.69496 237.368 5.93496 237.104 6.15096C237.08 6.17496 236.9 6.40296 236.564 6.83496C236.228 7.24296 235.784 7.78296 235.232 8.45496C234.704 9.12696 234.08 9.90696 233.36 10.795C232.64 11.683 231.884 12.631 231.092 13.639H231.2C233.624 13.639 235.76 13.471 237.608 13.135C239.48 12.799 241.04 12.355 242.288 11.803C243.56 11.251 244.52 10.627 245.168 9.93096C245.816 9.21096 246.14 8.47896 246.14 7.73496C246.14 6.96696 245.78 6.21096 245.06 5.46696C244.364 4.69896 243.284 4.02696 241.82 3.45096C240.38 2.85096 238.556 2.37096 236.348 2.01096C234.164 1.65096 231.584 1.47096 228.608 1.47096C226.16 1.47096 223.748 1.61496 221.372 1.90296C219.02 2.19096 216.92 2.62296 215.072 3.19896C213.224 3.77496 211.736 4.48296 210.608 5.32296C209.456 6.16296 208.88 7.13496 208.88 8.23896C208.88 8.64696 208.976 8.97096 209.168 9.21096C209.36 9.42696 209.576 9.60696 209.816 9.75096C210.032 9.89496 210.236 10.003 210.428 10.075C210.62 10.147 210.716 10.219 210.716 10.291C210.716 10.531 210.56 10.651 210.248 10.651C210.104 10.651 209.912 10.603 209.672 10.507C209.432 10.411 209.204 10.267 208.988 10.075C208.772 9.88296 208.592 9.64296 208.448 9.35496C208.28 9.06696 208.196 8.71896 208.196 8.31096C208.196 6.99096 208.808 5.82696 210.032 4.81896C211.256 3.81096 212.876 2.97096 214.892 2.29896C216.884 1.60296 219.14 1.08696 221.66 0.750957C224.204 0.390956 226.784 0.210955 229.4 0.210955C232.616 0.210955 235.4 0.402956 237.752 0.786956C240.104 1.17096 242.036 1.68696 243.548 2.33496C245.084 2.98296 246.212 3.71496 246.932 4.53096C247.676 5.34696 248.048 6.18696 248.048 7.05096C248.048 7.96296 247.652 8.86296 246.86 9.75096C246.092 10.615 244.952 11.395 243.44 12.091C241.952 12.787 240.116 13.351 237.932 13.783C235.748 14.215 233.264 14.431 230.48 14.431C230.384 14.527 230.324 14.599 230.3 14.647C230.444 14.647 230.888 14.707 231.632 14.827C232.4 14.923 233.312 15.079 234.368 15.295C235.448 15.511 236.588 15.799 237.788 16.159C239.012 16.519 240.14 16.963 241.172 17.491C242.204 17.995 243.056 18.607 243.728 19.327C244.4 20.023 244.736 20.839 244.736 21.775C244.736 22.447 244.532 23.179 244.124 23.971C243.716 24.763 243.02 25.615 242.036 26.527C241.988 26.575 241.964 26.599 241.964 26.599C241.964 26.623 242 26.635 242.072 26.635C242.144 26.659 242.216 26.671 242.288 26.671C242.312 26.671 242.492 26.671 242.828 26.671C243.164 26.671 243.572 26.671 244.052 26.671C244.556 26.671 245.096 26.671 245.672 26.671C246.248 26.671 246.8 26.671 247.328 26.671C247.856 26.695 248.324 26.707 248.732 26.707C249.14 26.731 249.416 26.743 249.56 26.743C249.68 26.767 249.788 26.791 249.884 26.815C250.004 26.839 250.064 26.899 250.064 26.995ZM258.969 23.107C258.969 23.203 258.933 23.275 258.861 23.323L257.241 23.971C257.001 24.067 256.689 24.199 256.305 24.367C255.945 24.511 255.549 24.655 255.117 24.799C254.685 24.943 254.265 25.075 253.857 25.195C253.449 25.291 253.089 25.339 252.777 25.339C252.273 25.339 252.021 25.183 252.021 24.871C252.021 24.775 252.033 24.655 252.057 24.511C252.105 24.343 252.189 24.175 252.309 24.007C252.117 24.151 251.853 24.319 251.517 24.511C251.181 24.679 250.821 24.847 250.437 25.015C250.053 25.159 249.657 25.291 249.249 25.411C248.865 25.531 248.517 25.591 248.205 25.591C247.749 25.591 247.425 25.495 247.233 25.303C247.017 25.135 246.909 24.919 246.909 24.655C246.909 24.199 247.149 23.635 247.629 22.963C248.109 22.291 248.721 21.655 249.465 21.055C250.209 20.431 251.025 19.903 251.913 19.471C252.801 19.039 253.653 18.823 254.469 18.823C254.877 18.823 255.165 18.895 255.333 19.039C255.501 19.183 255.585 19.387 255.585 19.651C255.585 20.035 255.405 20.383 255.045 20.695C254.709 21.007 254.385 21.259 254.073 21.451C253.977 21.499 253.905 21.523 253.857 21.523C253.809 21.523 253.737 21.499 253.641 21.451C253.569 21.379 253.533 21.295 253.533 21.199C253.533 21.079 253.629 20.899 253.821 20.659C253.917 20.563 254.025 20.431 254.145 20.263C254.289 20.071 254.361 19.915 254.361 19.795C254.361 19.699 254.313 19.627 254.217 19.579C254.145 19.507 253.977 19.471 253.713 19.471C253.305 19.471 252.801 19.627 252.201 19.939C251.601 20.227 251.025 20.599 250.473 21.055C249.921 21.487 249.441 21.943 249.033 22.423C248.649 22.903 248.457 23.323 248.457 23.683C248.457 23.947 248.565 24.151 248.781 24.295C248.997 24.415 249.237 24.475 249.501 24.475C249.765 24.475 250.065 24.415 250.401 24.295C250.737 24.175 251.061 24.043 251.373 23.899C251.685 23.755 251.961 23.611 252.201 23.467C252.465 23.299 252.633 23.179 252.705 23.107C252.753 23.059 252.825 22.987 252.921 22.891C253.017 22.795 253.113 22.747 253.209 22.747C253.257 22.747 253.329 22.771 253.425 22.819C253.521 22.867 253.569 22.951 253.569 23.071C253.449 23.263 253.365 23.431 253.317 23.575C253.269 23.719 253.245 23.851 253.245 23.971C253.245 24.283 253.461 24.439 253.893 24.439C254.157 24.439 254.445 24.403 254.757 24.331C255.093 24.235 255.417 24.139 255.729 24.043C256.065 23.923 256.365 23.815 256.629 23.719C256.917 23.599 257.133 23.515 257.277 23.467C257.757 23.275 258.117 23.131 258.357 23.035C258.501 22.963 258.645 22.903 258.789 22.855C258.837 22.855 258.873 22.891 258.897 22.963C258.945 23.011 258.969 23.059 258.969 23.107ZM267.9 23.107C267.9 23.203 267.864 23.275 267.792 23.323C266.808 23.731 265.848 24.091 264.912 24.403C264.12 24.667 263.292 24.919 262.428 25.159C261.588 25.399 260.88 25.519 260.304 25.519C259.752 25.519 259.248 25.339 258.792 24.979C258.336 24.619 258.108 24.103 258.108 23.431C258.108 22.807 258.336 22.183 258.792 21.559C259.248 20.911 259.8 20.335 260.448 19.831C261.12 19.327 261.828 18.919 262.572 18.607C263.316 18.271 263.988 18.103 264.588 18.103C264.756 18.103 264.9 18.139 265.02 18.211C265.284 18.331 265.416 18.595 265.416 19.003C265.416 19.243 265.32 19.483 265.128 19.723C264.96 19.963 264.768 20.179 264.552 20.371C264.288 20.587 264 20.791 263.688 20.983C263.664 20.983 263.616 20.995 263.544 21.019C263.4 21.067 263.244 21.091 263.076 21.091C262.956 21.091 262.896 21.007 262.896 20.839C262.896 20.719 262.968 20.587 263.112 20.443C263.304 20.323 263.544 20.107 263.832 19.795C264.144 19.483 264.3 19.207 264.3 18.967C264.3 18.799 264.156 18.715 263.868 18.715C263.508 18.715 263.076 18.847 262.572 19.111C262.068 19.351 261.576 19.663 261.096 20.047C260.64 20.407 260.244 20.827 259.908 21.307C259.596 21.763 259.44 22.207 259.44 22.639C259.44 23.215 259.632 23.671 260.016 24.007C260.424 24.319 261 24.475 261.744 24.475C262.368 24.475 263.028 24.391 263.724 24.223C264.42 24.031 265.068 23.839 265.668 23.647C266.364 23.407 267.048 23.143 267.72 22.855C267.768 22.855 267.804 22.891 267.828 22.963C267.876 23.011 267.9 23.059 267.9 23.107ZM46.3565 65.863C46.0925 66.295 45.8765 66.619 45.7085 66.835C45.5645 67.027 45.4445 67.159 45.3485 67.231C45.2765 67.303 45.2165 67.327 45.1685 67.303C45.1205 67.303 45.0605 67.303 44.9885 67.303C44.7005 67.303 44.5565 67.171 44.5565 66.907C44.5565 66.691 44.6285 66.451 44.7725 66.187C44.9405 65.923 45.1325 65.659 45.3485 65.395C45.5645 65.131 45.7805 64.891 45.9965 64.675C46.2365 64.435 46.4165 64.243 46.5365 64.099C46.5605 64.075 46.5725 64.039 46.5725 63.991C46.5725 63.919 46.5245 63.883 46.4285 63.883C46.4045 63.883 46.2725 63.943 46.0325 64.063C45.8165 64.183 45.5525 64.327 45.2405 64.495C44.9285 64.639 44.6045 64.795 44.2685 64.963C43.9565 65.131 43.6925 65.263 43.4765 65.359C43.3085 65.431 43.1285 65.503 42.9365 65.575C42.7445 65.647 42.5405 65.731 42.3245 65.827C42.2045 65.827 42.1445 65.743 42.1445 65.575C42.1445 65.479 42.1805 65.407 42.2525 65.359C42.4445 65.287 42.6245 65.227 42.7925 65.179C42.9605 65.107 43.1165 65.035 43.2605 64.963C43.8845 64.699 44.4605 64.423 44.9885 64.135C45.5405 63.823 46.0325 63.535 46.4645 63.271C46.7285 63.127 46.9685 62.983 47.1845 62.839C47.4245 62.695 47.6525 62.539 47.8685 62.371C47.9165 62.347 47.9885 62.323 48.0845 62.299C48.1805 62.251 48.2765 62.227 48.3725 62.227C48.5645 62.227 48.6605 62.359 48.6605 62.623C48.6605 62.815 48.5525 63.055 48.3365 63.343C48.1445 63.607 47.9165 63.895 47.6525 64.207C47.6045 64.255 47.5685 64.303 47.5445 64.351H47.5805C48.0605 64.327 48.6005 64.327 49.2005 64.351C49.8005 64.351 50.4005 64.363 51.0005 64.387C51.1205 64.387 51.2405 64.399 51.3605 64.423C51.4325 64.303 51.4925 64.183 51.5405 64.063C51.6605 63.847 51.7565 63.679 51.8285 63.559C52.2845 62.911 52.6685 62.479 52.9805 62.263C53.2925 62.023 53.5565 61.903 53.7725 61.903C53.8925 61.903 53.9645 61.951 53.9885 62.047C54.0125 62.119 54.0245 62.179 54.0245 62.227C54.0245 62.323 54.0005 62.419 53.9525 62.515L53.8085 62.803C53.7365 62.899 53.6165 63.067 53.4485 63.307C53.2805 63.547 53.1125 63.811 52.9445 64.099C52.8005 64.387 52.6565 64.687 52.5125 64.999C52.3925 65.287 52.3325 65.551 52.3325 65.791C52.3325 66.223 52.5845 66.439 53.0885 66.439C53.3525 66.439 53.6405 66.403 53.9525 66.331C54.2885 66.235 54.6125 66.139 54.9245 66.043C55.2605 65.923 55.5605 65.815 55.8245 65.719C56.1125 65.599 56.3285 65.515 56.4725 65.467C56.9285 65.299 57.2885 65.155 57.5525 65.035C57.7445 64.939 57.8885 64.879 57.9845 64.855C58.1045 64.855 58.1645 64.939 58.1645 65.107C58.1645 65.227 58.1285 65.299 58.0565 65.323L56.4365 65.971C56.1965 66.067 55.8845 66.199 55.5005 66.367C55.1405 66.511 54.7445 66.655 54.3125 66.799C53.8805 66.943 53.4605 67.075 53.0525 67.195C52.6445 67.291 52.2845 67.339 51.9725 67.339C51.5165 67.339 51.2045 67.255 51.0365 67.087C50.8685 66.895 50.7845 66.667 50.7845 66.403C50.7845 66.139 50.8205 65.863 50.8925 65.575C50.9645 65.311 51.0605 65.071 51.1805 64.855H50.9285C50.4965 64.831 49.9925 64.831 49.4165 64.855C48.8405 64.879 48.2405 64.903 47.6165 64.927C47.4005 64.951 47.1965 64.963 47.0045 64.963C46.9805 65.011 46.9445 65.059 46.8965 65.107C46.6325 65.395 46.4525 65.647 46.3565 65.863ZM46.0325 64.927H45.9965C45.9725 64.975 45.9845 64.975 46.0325 64.927ZM68.5449 65.107C68.5449 65.203 68.5089 65.275 68.4369 65.323L66.8169 65.971C66.5769 66.067 66.2649 66.199 65.8809 66.367C65.5209 66.511 65.1249 66.655 64.6929 66.799C64.2609 66.943 63.8409 67.075 63.4329 67.195C63.0249 67.291 62.6649 67.339 62.3529 67.339C61.8489 67.339 61.5969 67.183 61.5969 66.871C61.5969 66.775 61.6089 66.655 61.6329 66.511C61.6809 66.343 61.7649 66.175 61.8849 66.007C61.6929 66.151 61.4289 66.319 61.0929 66.511C60.7569 66.679 60.3969 66.847 60.0129 67.015C59.6289 67.159 59.2329 67.291 58.8249 67.411C58.4409 67.531 58.0929 67.591 57.7809 67.591C57.3249 67.591 57.0009 67.495 56.8089 67.303C56.5929 67.135 56.4849 66.919 56.4849 66.655C56.4849 66.199 56.7249 65.635 57.2049 64.963C57.6849 64.291 58.2969 63.655 59.0409 63.055C59.7849 62.431 60.6009 61.903 61.4889 61.471C62.3769 61.039 63.2289 60.823 64.0449 60.823C64.4529 60.823 64.7409 60.895 64.9089 61.039C65.0769 61.183 65.1609 61.387 65.1609 61.651C65.1609 62.035 64.9809 62.383 64.6209 62.695C64.2849 63.007 63.9609 63.259 63.6489 63.451C63.5529 63.499 63.4809 63.523 63.4329 63.523C63.3849 63.523 63.3129 63.499 63.2169 63.451C63.1449 63.379 63.1089 63.295 63.1089 63.199C63.1089 63.079 63.2049 62.899 63.3969 62.659C63.4929 62.563 63.6009 62.431 63.7209 62.263C63.8649 62.071 63.9369 61.915 63.9369 61.795C63.9369 61.699 63.8889 61.627 63.7929 61.579C63.7209 61.507 63.5529 61.471 63.2889 61.471C62.8809 61.471 62.3769 61.627 61.7769 61.939C61.1769 62.227 60.6009 62.599 60.0489 63.055C59.4969 63.487 59.0169 63.943 58.6089 64.423C58.2249 64.903 58.0329 65.323 58.0329 65.683C58.0329 65.947 58.1409 66.151 58.3569 66.295C58.5729 66.415 58.8129 66.475 59.0769 66.475C59.3409 66.475 59.6409 66.415 59.9769 66.295C60.3129 66.175 60.6369 66.043 60.9489 65.899C61.2609 65.755 61.5369 65.611 61.7769 65.467C62.0409 65.299 62.2089 65.179 62.2809 65.107C62.3289 65.059 62.4009 64.987 62.4969 64.891C62.5929 64.795 62.6889 64.747 62.7849 64.747C62.8329 64.747 62.9049 64.771 63.0009 64.819C63.0969 64.867 63.1449 64.951 63.1449 65.071C63.0249 65.263 62.9409 65.431 62.8929 65.575C62.8449 65.719 62.8209 65.851 62.8209 65.971C62.8209 66.283 63.0369 66.439 63.4689 66.439C63.7329 66.439 64.0209 66.403 64.3329 66.331C64.6689 66.235 64.9929 66.139 65.3049 66.043C65.6409 65.923 65.9409 65.815 66.2049 65.719C66.4929 65.599 66.7089 65.515 66.8529 65.467C67.3329 65.275 67.6929 65.131 67.9329 65.035C68.0769 64.963 68.2209 64.903 68.3649 64.855C68.4129 64.855 68.4489 64.891 68.4729 64.963C68.5209 65.011 68.5449 65.059 68.5449 65.107ZM78.419 65.863C78.155 66.295 77.939 66.619 77.771 66.835C77.627 67.027 77.507 67.159 77.411 67.231C77.339 67.303 77.279 67.327 77.231 67.303C77.183 67.303 77.123 67.303 77.051 67.303C76.763 67.303 76.619 67.171 76.619 66.907C76.619 66.691 76.691 66.451 76.835 66.187C77.003 65.923 77.195 65.659 77.411 65.395C77.627 65.131 77.843 64.891 78.059 64.675C78.299 64.435 78.479 64.243 78.599 64.099C78.623 64.075 78.635 64.039 78.635 63.991C78.635 63.919 78.587 63.883 78.491 63.883C78.467 63.883 78.335 63.943 78.095 64.063C77.879 64.183 77.615 64.327 77.303 64.495C76.991 64.639 76.667 64.795 76.331 64.963C76.019 65.131 75.755 65.263 75.539 65.359C75.371 65.431 75.191 65.503 74.999 65.575C74.807 65.647 74.603 65.731 74.387 65.827C74.267 65.827 74.207 65.743 74.207 65.575C74.207 65.479 74.243 65.407 74.315 65.359C74.507 65.287 74.687 65.227 74.855 65.179C75.023 65.107 75.179 65.035 75.323 64.963C75.947 64.699 76.523 64.423 77.051 64.135C77.603 63.823 78.095 63.535 78.527 63.271C78.791 63.127 79.031 62.983 79.247 62.839C79.487 62.695 79.715 62.539 79.931 62.371C79.979 62.347 80.051 62.323 80.147 62.299C80.243 62.251 80.339 62.227 80.435 62.227C80.627 62.227 80.723 62.359 80.723 62.623C80.723 62.815 80.615 63.055 80.399 63.343C80.207 63.607 79.979 63.895 79.715 64.207C79.667 64.255 79.631 64.303 79.607 64.351H79.643C80.123 64.327 80.663 64.327 81.263 64.351C81.863 64.351 82.463 64.363 83.063 64.387C83.183 64.387 83.303 64.399 83.423 64.423C83.495 64.303 83.555 64.183 83.603 64.063C83.723 63.847 83.819 63.679 83.891 63.559C84.347 62.911 84.731 62.479 85.043 62.263C85.355 62.023 85.619 61.903 85.835 61.903C85.955 61.903 86.027 61.951 86.051 62.047C86.075 62.119 86.087 62.179 86.087 62.227C86.087 62.323 86.063 62.419 86.015 62.515L85.871 62.803C85.799 62.899 85.679 63.067 85.511 63.307C85.343 63.547 85.175 63.811 85.007 64.099C84.863 64.387 84.719 64.687 84.575 64.999C84.455 65.287 84.395 65.551 84.395 65.791C84.395 66.223 84.647 66.439 85.151 66.439C85.415 66.439 85.703 66.403 86.015 66.331C86.351 66.235 86.675 66.139 86.987 66.043C87.323 65.923 87.623 65.815 87.887 65.719C88.175 65.599 88.391 65.515 88.535 65.467C88.991 65.299 89.351 65.155 89.615 65.035C89.807 64.939 89.951 64.879 90.047 64.855C90.167 64.855 90.227 64.939 90.227 65.107C90.227 65.227 90.191 65.299 90.119 65.323L88.499 65.971C88.259 66.067 87.947 66.199 87.563 66.367C87.203 66.511 86.807 66.655 86.375 66.799C85.943 66.943 85.523 67.075 85.115 67.195C84.707 67.291 84.347 67.339 84.035 67.339C83.579 67.339 83.267 67.255 83.099 67.087C82.931 66.895 82.847 66.667 82.847 66.403C82.847 66.139 82.883 65.863 82.955 65.575C83.027 65.311 83.123 65.071 83.243 64.855H82.991C82.559 64.831 82.055 64.831 81.479 64.855C80.903 64.879 80.303 64.903 79.679 64.927C79.463 64.951 79.259 64.963 79.067 64.963C79.043 65.011 79.007 65.059 78.959 65.107C78.695 65.395 78.515 65.647 78.419 65.863ZM78.095 64.927H78.059C78.035 64.975 78.047 64.975 78.095 64.927ZM100.607 65.107C100.607 65.203 100.571 65.275 100.499 65.323L98.8794 65.971C98.6394 66.067 98.3274 66.199 97.9434 66.367C97.5834 66.511 97.1874 66.655 96.7554 66.799C96.3234 66.943 95.9034 67.075 95.4954 67.195C95.0874 67.291 94.7274 67.339 94.4154 67.339C93.9114 67.339 93.6594 67.183 93.6594 66.871C93.6594 66.775 93.6714 66.655 93.6954 66.511C93.7434 66.343 93.8274 66.175 93.9474 66.007C93.7554 66.151 93.4914 66.319 93.1554 66.511C92.8194 66.679 92.4594 66.847 92.0754 67.015C91.6914 67.159 91.2954 67.291 90.8874 67.411C90.5034 67.531 90.1554 67.591 89.8434 67.591C89.3874 67.591 89.0634 67.495 88.8714 67.303C88.6554 67.135 88.5474 66.919 88.5474 66.655C88.5474 66.199 88.7874 65.635 89.2674 64.963C89.7474 64.291 90.3594 63.655 91.1034 63.055C91.8474 62.431 92.6634 61.903 93.5514 61.471C94.4394 61.039 95.2914 60.823 96.1074 60.823C96.5154 60.823 96.8034 60.895 96.9714 61.039C97.1394 61.183 97.2234 61.387 97.2234 61.651C97.2234 62.035 97.0434 62.383 96.6834 62.695C96.3474 63.007 96.0234 63.259 95.7114 63.451C95.6154 63.499 95.5434 63.523 95.4954 63.523C95.4474 63.523 95.3754 63.499 95.2794 63.451C95.2074 63.379 95.1714 63.295 95.1714 63.199C95.1714 63.079 95.2674 62.899 95.4594 62.659C95.5554 62.563 95.6634 62.431 95.7834 62.263C95.9274 62.071 95.9994 61.915 95.9994 61.795C95.9994 61.699 95.9514 61.627 95.8554 61.579C95.7834 61.507 95.6154 61.471 95.3514 61.471C94.9434 61.471 94.4394 61.627 93.8394 61.939C93.2394 62.227 92.6634 62.599 92.1114 63.055C91.5594 63.487 91.0794 63.943 90.6714 64.423C90.2874 64.903 90.0954 65.323 90.0954 65.683C90.0954 65.947 90.2034 66.151 90.4194 66.295C90.6354 66.415 90.8754 66.475 91.1394 66.475C91.4034 66.475 91.7034 66.415 92.0394 66.295C92.3754 66.175 92.6994 66.043 93.0114 65.899C93.3234 65.755 93.5994 65.611 93.8394 65.467C94.1034 65.299 94.2714 65.179 94.3434 65.107C94.3914 65.059 94.4634 64.987 94.5594 64.891C94.6554 64.795 94.7514 64.747 94.8474 64.747C94.8954 64.747 94.9674 64.771 95.0634 64.819C95.1594 64.867 95.2074 64.951 95.2074 65.071C95.0874 65.263 95.0034 65.431 94.9554 65.575C94.9074 65.719 94.8834 65.851 94.8834 65.971C94.8834 66.283 95.0994 66.439 95.5314 66.439C95.7954 66.439 96.0834 66.403 96.3954 66.331C96.7314 66.235 97.0554 66.139 97.3674 66.043C97.7034 65.923 98.0034 65.815 98.2674 65.719C98.5554 65.599 98.7714 65.515 98.9154 65.467C99.3954 65.275 99.7554 65.131 99.9954 65.035C100.139 64.963 100.283 64.903 100.427 64.855C100.475 64.855 100.511 64.891 100.535 64.963C100.583 65.011 100.607 65.059 100.607 65.107ZM105.578 64.963C105.266 65.179 104.906 65.419 104.498 65.683C104.09 65.947 103.658 66.199 103.202 66.439C102.77 66.655 102.338 66.835 101.906 66.979C101.474 67.123 101.066 67.195 100.682 67.195C100.418 67.195 100.19 67.075 99.9985 66.835C99.8065 66.595 99.7105 66.343 99.7105 66.079C99.7105 65.815 99.8185 65.503 100.034 65.143C100.25 64.759 100.502 64.399 100.79 64.063C101.102 63.703 101.402 63.391 101.69 63.127C101.978 62.839 102.194 62.647 102.338 62.551C102.338 62.527 102.35 62.515 102.374 62.515H102.518C102.638 62.515 102.734 62.551 102.806 62.623C102.83 62.647 102.842 62.683 102.842 62.731C102.842 62.827 102.758 62.971 102.59 63.163C102.422 63.331 102.23 63.535 102.014 63.775C101.822 63.991 101.642 64.231 101.474 64.495C101.306 64.759 101.222 65.035 101.222 65.323C101.222 65.563 101.294 65.779 101.438 65.971C101.582 66.139 101.75 66.223 101.942 66.223C102.398 66.223 102.95 66.043 103.598 65.683C104.246 65.299 104.882 64.867 105.506 64.387C105.866 64.123 106.226 63.835 106.586 63.523C106.97 63.211 107.354 62.887 107.738 62.551C107.738 62.527 107.762 62.515 107.81 62.515H107.954C108.074 62.515 108.17 62.551 108.242 62.623C108.266 62.647 108.278 62.683 108.278 62.731C108.278 62.827 108.194 62.971 108.026 63.163C107.858 63.331 107.666 63.535 107.45 63.775C107.258 63.991 107.078 64.231 106.91 64.495C106.742 64.759 106.658 65.035 106.658 65.323C106.658 65.563 106.73 65.779 106.874 65.971C107.018 66.139 107.186 66.223 107.378 66.223C107.834 66.223 108.386 66.043 109.034 65.683C109.682 65.299 110.318 64.867 110.942 64.387C111.302 64.123 111.662 63.835 112.022 63.523C112.406 63.211 112.79 62.887 113.174 62.551C113.342 62.551 113.474 62.587 113.57 62.659C113.69 62.707 113.75 62.827 113.75 63.019C113.75 63.115 113.714 63.211 113.642 63.307C113.57 63.403 113.438 63.655 113.246 64.063C113.078 64.471 112.994 64.879 112.994 65.287C112.994 65.359 112.994 65.467 112.994 65.611C113.018 65.731 113.054 65.863 113.102 66.007C113.174 66.151 113.27 66.283 113.39 66.403C113.51 66.499 113.69 66.547 113.93 66.547C114.194 66.547 114.482 66.511 114.794 66.439C115.13 66.343 115.454 66.247 115.766 66.151C116.102 66.031 116.402 65.923 116.666 65.827C116.954 65.707 117.17 65.623 117.314 65.575C117.77 65.407 118.13 65.263 118.394 65.143C118.586 65.047 118.73 64.987 118.826 64.963C118.946 64.963 119.006 65.047 119.006 65.215C119.006 65.335 118.97 65.407 118.898 65.431L117.278 66.079C117.038 66.175 116.726 66.307 116.342 66.475C115.982 66.619 115.586 66.763 115.154 66.907C114.722 67.051 114.302 67.171 113.894 67.267C113.486 67.387 113.126 67.447 112.814 67.447C112.502 67.447 112.25 67.375 112.058 67.231C111.89 67.111 111.746 66.967 111.626 66.799C111.53 66.631 111.458 66.463 111.41 66.295C111.386 66.127 111.374 65.995 111.374 65.899C111.374 65.539 111.446 65.215 111.59 64.927C111.758 64.615 111.866 64.435 111.914 64.387C111.938 64.363 111.914 64.351 111.842 64.351C111.626 64.519 111.29 64.759 110.834 65.071C110.402 65.383 109.91 65.695 109.358 66.007C108.83 66.319 108.266 66.595 107.666 66.835C107.09 67.075 106.574 67.195 106.118 67.195C105.854 67.195 105.626 67.075 105.434 66.835C105.242 66.595 105.146 66.343 105.146 66.079C105.146 65.911 105.182 65.731 105.254 65.539C105.35 65.347 105.458 65.155 105.578 64.963ZM127.625 65.107C127.625 65.203 127.589 65.275 127.517 65.323C126.533 65.731 125.573 66.091 124.637 66.403C123.845 66.667 123.017 66.919 122.153 67.159C121.313 67.399 120.605 67.519 120.029 67.519C119.549 67.519 119.153 67.411 118.841 67.195C118.553 66.955 118.409 66.655 118.409 66.295C118.409 65.959 118.517 65.647 118.733 65.359C118.949 65.071 119.177 64.819 119.417 64.603C119.681 64.387 119.909 64.207 120.101 64.063C120.317 63.919 120.425 63.835 120.425 63.811C120.425 63.763 120.329 63.727 120.137 63.703C119.969 63.679 119.669 63.631 119.237 63.559C118.973 63.511 118.793 63.439 118.697 63.343C118.625 63.223 118.589 63.103 118.589 62.983C118.589 62.815 118.637 62.671 118.733 62.551C118.853 62.407 118.937 62.311 118.985 62.263C119.465 61.951 120.029 61.639 120.677 61.327C121.325 61.015 121.961 60.739 122.585 60.499C123.233 60.259 123.821 60.067 124.349 59.923C124.877 59.779 125.249 59.707 125.465 59.707C125.705 59.707 125.921 59.767 126.113 59.887C126.329 59.983 126.437 60.163 126.437 60.427C126.437 60.547 126.377 60.679 126.257 60.823C126.137 60.943 125.993 61.063 125.825 61.183C125.657 61.279 125.477 61.363 125.285 61.435C125.093 61.507 124.925 61.543 124.781 61.543C124.661 61.543 124.541 61.519 124.421 61.471C124.325 61.423 124.277 61.339 124.277 61.219C124.277 61.075 124.337 60.919 124.457 60.751C124.505 60.703 124.529 60.655 124.529 60.607C124.529 60.559 124.469 60.535 124.349 60.535C124.301 60.535 124.229 60.547 124.133 60.571C124.037 60.571 123.929 60.583 123.809 60.607C123.617 60.655 123.341 60.751 122.981 60.895C122.621 61.015 122.261 61.159 121.901 61.327C121.541 61.495 121.217 61.651 120.929 61.795C120.641 61.939 120.461 62.035 120.389 62.083C120.293 62.155 120.245 62.227 120.245 62.299C120.245 62.419 120.317 62.503 120.461 62.551C120.485 62.551 120.569 62.563 120.713 62.587C120.857 62.587 121.013 62.599 121.181 62.623C121.349 62.623 121.505 62.623 121.649 62.623C121.817 62.623 121.937 62.623 122.009 62.623C122.273 62.647 122.429 62.695 122.477 62.767C122.525 62.839 122.549 62.959 122.549 63.127C122.549 63.247 122.525 63.367 122.477 63.487C122.429 63.607 122.273 63.691 122.009 63.739C121.505 63.859 121.013 64.063 120.533 64.351C120.077 64.639 119.849 65.023 119.849 65.503C119.849 65.839 120.029 66.091 120.389 66.259C120.773 66.403 121.133 66.475 121.469 66.475C122.093 66.475 122.753 66.391 123.449 66.223C124.145 66.031 124.793 65.839 125.393 65.647C126.089 65.407 126.773 65.143 127.445 64.855C127.493 64.855 127.529 64.891 127.553 64.963C127.601 65.011 127.625 65.059 127.625 65.107ZM140.853 65.107C140.853 65.203 140.817 65.275 140.745 65.323L139.125 65.971C138.885 66.067 138.573 66.199 138.189 66.367C137.829 66.511 137.433 66.655 137.001 66.799C136.569 66.943 136.149 67.075 135.741 67.195C135.333 67.291 134.973 67.339 134.661 67.339C134.349 67.339 134.097 67.279 133.905 67.159C133.737 67.015 133.593 66.859 133.473 66.691C133.377 66.523 133.305 66.355 133.257 66.187C133.233 66.019 133.221 65.887 133.221 65.791C133.221 65.431 133.293 65.107 133.437 64.819C133.605 64.507 133.713 64.327 133.761 64.279C133.785 64.255 133.761 64.243 133.689 64.243C133.473 64.411 133.137 64.651 132.681 64.963C132.249 65.275 131.757 65.587 131.205 65.899C130.653 66.211 130.089 66.487 129.513 66.727C128.961 66.967 128.445 67.087 127.965 67.087C127.701 67.087 127.473 66.967 127.281 66.727C127.089 66.487 126.993 66.235 126.993 65.971C126.993 65.683 127.101 65.359 127.317 64.999C127.533 64.639 127.785 64.291 128.073 63.955C128.385 63.619 128.685 63.307 128.973 63.019C129.261 62.731 129.477 62.539 129.621 62.443C129.621 62.419 129.633 62.407 129.657 62.407H129.801C129.921 62.407 130.017 62.443 130.089 62.515C130.113 62.539 130.125 62.575 130.125 62.623C130.125 62.719 130.041 62.863 129.873 63.055C129.705 63.223 129.513 63.427 129.297 63.667C129.105 63.883 128.925 64.123 128.757 64.387C128.589 64.651 128.505 64.927 128.505 65.215C128.505 65.455 128.577 65.671 128.721 65.863C128.865 66.031 129.033 66.115 129.225 66.115C129.681 66.115 130.233 65.935 130.881 65.575C131.529 65.191 132.165 64.759 132.789 64.279C133.509 63.727 134.253 63.115 135.021 62.443C135.189 62.443 135.321 62.479 135.417 62.551C135.537 62.599 135.597 62.719 135.597 62.911C135.597 62.983 135.561 63.079 135.489 63.199C135.417 63.295 135.285 63.547 135.093 63.955C134.925 64.363 134.841 64.771 134.841 65.179C134.841 65.251 134.841 65.359 134.841 65.503C134.865 65.623 134.901 65.755 134.949 65.899C135.021 66.043 135.117 66.175 135.237 66.295C135.357 66.391 135.537 66.439 135.777 66.439C136.041 66.439 136.329 66.403 136.641 66.331C136.977 66.235 137.301 66.139 137.613 66.043C137.949 65.923 138.249 65.815 138.513 65.719C138.801 65.599 139.017 65.515 139.161 65.467C139.641 65.275 140.001 65.131 140.241 65.035C140.385 64.963 140.529 64.903 140.673 64.855C140.721 64.855 140.757 64.891 140.781 64.963C140.829 65.011 140.853 65.059 140.853 65.107ZM132.789 59.023C132.813 58.951 132.861 58.843 132.933 58.699C133.029 58.555 133.125 58.411 133.221 58.267C133.341 58.123 133.449 58.003 133.545 57.907C133.641 57.787 133.713 57.727 133.761 57.727C133.881 57.703 133.989 57.715 134.085 57.763C134.205 57.811 134.277 57.895 134.301 58.015C134.301 58.063 134.277 58.135 134.229 58.231C134.157 58.351 134.013 58.567 133.797 58.879C133.605 59.191 133.521 59.515 133.545 59.851C133.569 60.043 133.653 60.199 133.797 60.319C133.965 60.439 134.217 60.475 134.553 60.427C135.105 60.403 135.597 60.283 136.029 60.067C136.485 59.851 136.905 59.659 137.289 59.491C137.337 59.467 137.385 59.455 137.433 59.455C137.481 59.431 137.529 59.407 137.577 59.383C137.697 59.383 137.757 59.431 137.757 59.527C137.757 59.623 137.721 59.671 137.649 59.671C136.881 60.007 136.149 60.319 135.453 60.607C134.757 60.871 134.169 61.027 133.689 61.075C133.449 61.075 133.245 61.039 133.077 60.967C132.933 60.895 132.813 60.811 132.717 60.715C132.645 60.595 132.585 60.487 132.537 60.391C132.513 60.271 132.501 60.175 132.501 60.103C132.477 59.911 132.501 59.707 132.573 59.491C132.669 59.275 132.741 59.119 132.789 59.023ZM156.964 65.107C156.964 65.203 156.928 65.275 156.856 65.323C155.872 65.731 154.912 66.091 153.976 66.403C153.184 66.667 152.356 66.919 151.492 67.159C150.652 67.399 149.944 67.519 149.368 67.519C148.816 67.519 148.312 67.339 147.856 66.979C147.4 66.619 147.172 66.103 147.172 65.431C147.172 64.807 147.4 64.183 147.856 63.559C148.312 62.911 148.864 62.335 149.512 61.831C150.184 61.327 150.892 60.919 151.636 60.607C152.38 60.271 153.052 60.103 153.652 60.103C153.82 60.103 153.964 60.139 154.084 60.211C154.348 60.331 154.48 60.595 154.48 61.003C154.48 61.243 154.384 61.483 154.192 61.723C154.024 61.963 153.832 62.179 153.616 62.371C153.352 62.587 153.064 62.791 152.752 62.983C152.728 62.983 152.68 62.995 152.608 63.019C152.464 63.067 152.308 63.091 152.14 63.091C152.02 63.091 151.96 63.007 151.96 62.839C151.96 62.719 152.032 62.587 152.176 62.443C152.368 62.323 152.608 62.107 152.896 61.795C153.208 61.483 153.364 61.207 153.364 60.967C153.364 60.799 153.22 60.715 152.932 60.715C152.572 60.715 152.14 60.847 151.636 61.111C151.132 61.351 150.64 61.663 150.16 62.047C149.704 62.407 149.308 62.827 148.972 63.307C148.66 63.763 148.504 64.207 148.504 64.639C148.504 65.215 148.696 65.671 149.08 66.007C149.488 66.319 150.064 66.475 150.808 66.475C151.432 66.475 152.092 66.391 152.788 66.223C153.484 66.031 154.132 65.839 154.732 65.647C155.428 65.407 156.112 65.143 156.784 64.855C156.832 64.855 156.868 64.891 156.892 64.963C156.94 65.011 156.964 65.059 156.964 65.107ZM178.925 43.795C178.925 44.515 178.577 45.451 177.881 46.603C177.185 47.755 176.261 49.015 175.109 50.383C173.981 51.727 172.673 53.119 171.185 54.559C169.721 55.999 168.221 57.379 166.685 58.699C165.149 59.995 163.625 61.171 162.113 62.227C160.625 63.283 159.281 64.099 158.081 64.675C158.105 65.515 158.297 66.103 158.657 66.439C159.041 66.775 159.485 66.943 159.989 66.943C160.469 66.943 160.937 66.835 161.393 66.619C161.849 66.379 162.257 66.079 162.617 65.719C162.977 65.359 163.265 64.963 163.481 64.531C163.697 64.099 163.805 63.691 163.805 63.307C163.805 63.115 163.793 62.959 163.769 62.839C163.745 62.719 163.733 62.599 163.733 62.479C163.733 62.335 163.781 62.251 163.877 62.227C163.997 62.179 164.117 62.155 164.237 62.155C164.285 62.155 164.537 62.155 164.993 62.155C165.473 62.155 166.037 62.167 166.685 62.191C167.357 62.191 168.077 62.191 168.845 62.191C169.613 62.191 170.333 62.191 171.005 62.191C171.221 62.191 171.329 62.239 171.329 62.335C171.329 62.455 171.221 62.647 171.005 62.911C170.765 63.223 170.501 63.379 170.213 63.379C170.189 63.379 170.141 63.379 170.069 63.379C169.997 63.379 169.781 63.379 169.421 63.379C169.085 63.355 168.545 63.343 167.801 63.343C167.057 63.343 166.013 63.343 164.669 63.343C164.549 63.895 164.297 64.447 163.913 64.999C163.529 65.551 163.073 66.043 162.545 66.475C162.041 66.907 161.501 67.255 160.925 67.519C160.349 67.807 159.797 67.951 159.269 67.951C158.429 67.951 157.781 67.687 157.325 67.159C156.869 66.631 156.641 65.947 156.641 65.107C156.641 63.883 156.989 62.479 157.685 60.895C158.405 59.287 159.341 57.643 160.493 55.963C161.669 54.283 162.989 52.639 164.453 51.031C165.917 49.399 167.405 47.959 168.917 46.711C170.453 45.439 171.941 44.419 173.381 43.651C174.821 42.859 176.081 42.463 177.161 42.463C178.337 42.463 178.925 42.907 178.925 43.795ZM177.233 44.407C177.233 43.687 176.837 43.327 176.045 43.327C175.277 43.327 174.305 43.687 173.129 44.407C171.953 45.103 170.705 46.027 169.385 47.179C168.089 48.331 166.781 49.651 165.461 51.139C164.141 52.603 162.941 54.115 161.861 55.675C160.805 57.211 159.929 58.723 159.233 60.211C158.537 61.675 158.153 62.995 158.081 64.171C159.593 63.355 161.117 62.383 162.653 61.255C164.213 60.103 165.701 58.903 167.117 57.655C168.533 56.383 169.853 55.087 171.077 53.767C172.325 52.447 173.393 51.199 174.281 50.023C175.193 48.823 175.913 47.731 176.441 46.747C176.969 45.763 177.233 44.983 177.233 44.407ZM181.256 65.107C181.256 65.203 181.22 65.275 181.148 65.323L179.528 65.971C179.288 66.067 178.976 66.199 178.592 66.367C178.232 66.511 177.836 66.655 177.404 66.799C176.972 66.943 176.552 67.075 176.144 67.195C175.736 67.291 175.376 67.339 175.064 67.339C174.56 67.339 174.308 67.183 174.308 66.871C174.308 66.775 174.32 66.655 174.344 66.511C174.392 66.343 174.476 66.175 174.596 66.007C174.404 66.151 174.14 66.319 173.804 66.511C173.468 66.679 173.108 66.847 172.724 67.015C172.34 67.159 171.944 67.291 171.536 67.411C171.152 67.531 170.804 67.591 170.492 67.591C170.036 67.591 169.712 67.495 169.52 67.303C169.304 67.135 169.196 66.919 169.196 66.655C169.196 66.199 169.436 65.635 169.916 64.963C170.396 64.291 171.008 63.655 171.752 63.055C172.496 62.431 173.312 61.903 174.2 61.471C175.088 61.039 175.94 60.823 176.756 60.823C177.164 60.823 177.452 60.895 177.62 61.039C177.788 61.183 177.872 61.387 177.872 61.651C177.872 62.035 177.692 62.383 177.332 62.695C176.996 63.007 176.672 63.259 176.36 63.451C176.264 63.499 176.192 63.523 176.144 63.523C176.096 63.523 176.024 63.499 175.928 63.451C175.856 63.379 175.82 63.295 175.82 63.199C175.82 63.079 175.916 62.899 176.108 62.659C176.204 62.563 176.312 62.431 176.432 62.263C176.576 62.071 176.648 61.915 176.648 61.795C176.648 61.699 176.6 61.627 176.504 61.579C176.432 61.507 176.264 61.471 176 61.471C175.592 61.471 175.088 61.627 174.488 61.939C173.888 62.227 173.312 62.599 172.76 63.055C172.208 63.487 171.728 63.943 171.32 64.423C170.936 64.903 170.744 65.323 170.744 65.683C170.744 65.947 170.852 66.151 171.068 66.295C171.284 66.415 171.524 66.475 171.788 66.475C172.052 66.475 172.352 66.415 172.688 66.295C173.024 66.175 173.348 66.043 173.66 65.899C173.972 65.755 174.248 65.611 174.488 65.467C174.752 65.299 174.92 65.179 174.992 65.107C175.04 65.059 175.112 64.987 175.208 64.891C175.304 64.795 175.4 64.747 175.496 64.747C175.544 64.747 175.616 64.771 175.712 64.819C175.808 64.867 175.856 64.951 175.856 65.071C175.736 65.263 175.652 65.431 175.604 65.575C175.556 65.719 175.532 65.851 175.532 65.971C175.532 66.283 175.748 66.439 176.18 66.439C176.444 66.439 176.732 66.403 177.044 66.331C177.38 66.235 177.704 66.139 178.016 66.043C178.352 65.923 178.652 65.815 178.916 65.719C179.204 65.599 179.42 65.515 179.564 65.467C180.044 65.275 180.404 65.131 180.644 65.035C180.788 64.963 180.932 64.903 181.076 64.855C181.124 64.855 181.16 64.891 181.184 64.963C181.232 65.011 181.256 65.059 181.256 65.107ZM194.039 69.499C194.039 69.811 193.883 69.991 193.571 70.039C193.283 70.111 193.007 70.147 192.743 70.147C192.647 70.147 192.347 70.135 191.843 70.111C191.339 70.087 190.751 70.063 190.079 70.039C189.431 70.039 188.735 70.027 187.991 70.003C187.271 69.979 186.623 69.967 186.047 69.967C185.423 69.967 184.811 69.979 184.211 70.003C183.635 70.051 183.059 70.123 182.483 70.219C181.115 71.947 179.735 73.687 178.343 75.439C176.927 77.215 175.583 78.799 174.311 80.191C173.015 81.607 171.839 82.759 170.783 83.647C169.703 84.535 168.839 84.979 168.191 84.979C167.639 84.979 167.207 84.799 166.895 84.439C166.583 84.103 166.427 83.659 166.427 83.107C166.427 81.955 166.775 80.683 167.471 79.291C168.167 77.923 169.199 76.579 170.567 75.259C171.935 73.963 173.627 72.775 175.643 71.695C177.659 70.639 179.975 69.835 182.591 69.283C183.311 68.323 183.887 67.531 184.319 66.907C184.775 66.259 185.003 65.875 185.003 65.755C185.003 65.659 184.967 65.611 184.895 65.611C184.823 65.611 184.727 65.647 184.607 65.719C184.463 65.791 184.271 65.887 184.031 66.007C183.815 66.127 183.563 66.247 183.275 66.367C182.987 66.463 182.687 66.547 182.375 66.619C182.087 66.691 181.811 66.727 181.547 66.727C181.211 66.727 180.911 66.643 180.647 66.475C180.407 66.283 180.287 65.983 180.287 65.575C180.287 64.783 180.623 64.039 181.295 63.343C181.967 62.647 182.759 62.047 183.671 61.543C184.583 61.039 185.495 60.643 186.407 60.355C187.343 60.043 188.051 59.887 188.531 59.887C188.819 59.887 189.107 59.959 189.395 60.103C189.683 60.247 189.839 60.523 189.863 60.931C189.863 61.075 189.779 61.255 189.611 61.471C189.443 61.663 189.239 61.843 188.999 62.011C188.759 62.179 188.519 62.323 188.279 62.443C188.063 62.563 187.883 62.623 187.739 62.623C187.595 62.623 187.487 62.575 187.415 62.479C187.343 62.383 187.307 62.275 187.307 62.155C187.307 62.011 187.367 61.903 187.487 61.831C187.535 61.783 187.607 61.723 187.703 61.651C187.823 61.579 187.943 61.507 188.063 61.435C188.255 61.291 188.351 61.111 188.351 60.895C188.351 60.679 188.207 60.571 187.919 60.571C187.415 60.571 186.827 60.727 186.155 61.039C185.483 61.327 184.835 61.699 184.211 62.155C183.611 62.587 183.095 63.067 182.663 63.595C182.231 64.123 182.015 64.615 182.015 65.071C182.015 65.287 182.099 65.443 182.267 65.539C182.435 65.635 182.615 65.683 182.807 65.683C183.143 65.683 183.503 65.611 183.887 65.467C184.271 65.323 184.643 65.155 185.003 64.963C185.387 64.747 185.747 64.519 186.083 64.279C186.443 64.039 186.743 63.823 186.983 63.631C187.079 63.535 187.175 63.487 187.271 63.487C187.391 63.487 187.451 63.559 187.451 63.703C187.451 63.871 187.391 64.027 187.271 64.171C186.671 64.915 186.035 65.707 185.363 66.547C184.691 67.363 184.007 68.227 183.311 69.139C184.247 68.971 185.207 68.839 186.191 68.743C187.175 68.671 188.207 68.635 189.287 68.635C190.103 68.635 190.799 68.647 191.375 68.671C191.975 68.695 192.395 68.707 192.635 68.707C193.139 68.731 193.499 68.791 193.715 68.887C193.931 68.983 194.039 69.187 194.039 69.499ZM181.763 70.327C179.723 70.711 177.863 71.323 176.183 72.163C174.479 73.003 173.015 73.963 171.791 75.043C170.567 76.147 169.619 77.335 168.947 78.607C168.275 79.879 167.939 81.139 167.939 82.387C167.939 82.771 168.011 83.107 168.155 83.395C168.275 83.683 168.503 83.827 168.839 83.827C169.127 83.827 169.547 83.611 170.099 83.179C170.651 82.771 171.299 82.219 172.043 81.523C172.763 80.827 173.543 80.011 174.383 79.075C175.223 78.163 176.075 77.203 176.939 76.195C177.803 75.211 178.655 74.203 179.495 73.171C180.311 72.163 181.067 71.215 181.763 70.327ZM193.49 65.503C193.826 65.215 194.078 64.915 194.246 64.603C194.438 64.291 194.534 64.015 194.534 63.775C194.534 63.319 194.306 63.091 193.85 63.091C193.586 63.091 193.346 63.199 193.13 63.415C192.938 63.631 192.806 63.883 192.734 64.171C192.686 64.459 192.71 64.735 192.806 64.999C192.926 65.263 193.154 65.431 193.49 65.503ZM194.03 65.719C194.27 65.839 194.57 65.899 194.93 65.899C195.29 65.875 195.65 65.827 196.01 65.755C196.394 65.659 196.742 65.539 197.054 65.395C197.39 65.251 197.654 65.095 197.846 64.927C197.918 64.879 197.954 64.915 197.954 65.035C197.978 65.155 197.966 65.239 197.918 65.287C197.726 65.527 197.438 65.731 197.054 65.899C196.694 66.043 196.298 66.163 195.866 66.259C195.458 66.331 195.038 66.367 194.606 66.367C194.198 66.343 193.862 66.271 193.598 66.151C192.926 66.703 192.362 67.039 191.906 67.159C191.474 67.279 190.982 67.339 190.43 67.339C189.542 67.339 189.074 66.967 189.026 66.223C189.002 65.815 189.134 65.359 189.422 64.855C189.71 64.327 190.058 63.811 190.466 63.307C190.898 62.779 191.354 62.275 191.834 61.795C192.314 61.291 192.758 60.859 193.166 60.499C193.766 59.947 194.222 59.599 194.534 59.455C194.87 59.311 195.098 59.275 195.218 59.347C195.338 59.419 195.386 59.551 195.362 59.743C195.362 59.935 195.326 60.091 195.254 60.211C195.206 60.307 195.002 60.487 194.642 60.751C194.282 60.991 193.766 61.387 193.094 61.939C192.326 62.707 191.666 63.427 191.114 64.099C190.562 64.771 190.286 65.299 190.286 65.683C190.286 65.947 190.406 66.163 190.646 66.331C190.91 66.475 191.162 66.547 191.402 66.547C191.714 66.547 191.978 66.511 192.194 66.439C192.434 66.343 192.71 66.163 193.022 65.899C192.59 65.683 192.314 65.371 192.194 64.963C192.074 64.531 192.074 64.099 192.194 63.667C192.314 63.235 192.566 62.863 192.95 62.551C193.334 62.239 193.814 62.095 194.39 62.119C194.798 62.143 195.062 62.299 195.182 62.587C195.326 62.875 195.362 63.211 195.29 63.595C195.218 63.979 195.062 64.375 194.822 64.783C194.606 65.167 194.342 65.479 194.03 65.719ZM204.137 62.587C204.329 61.675 204.329 60.847 204.137 60.103C203.969 59.335 203.741 58.603 203.453 57.907C203.165 57.187 202.877 56.467 202.589 55.747C202.325 55.027 202.193 54.247 202.193 53.407C202.193 52.687 202.589 52.147 203.381 51.787C204.173 51.403 205.097 51.139 206.153 50.995C207.233 50.827 208.301 50.743 209.357 50.743C210.437 50.719 211.265 50.707 211.841 50.707C212.273 50.707 212.633 50.683 212.921 50.635C213.209 50.587 213.413 50.563 213.533 50.563C213.725 50.563 213.821 50.731 213.821 51.067C213.821 51.259 213.689 51.427 213.425 51.571C213.185 51.715 212.873 51.835 212.489 51.931C212.105 52.027 211.697 52.099 211.265 52.147C210.833 52.195 210.437 52.219 210.077 52.219L203.561 52.435C203.177 52.459 202.937 52.615 202.841 52.903C202.745 53.191 202.733 53.575 202.805 54.055C202.901 54.511 203.045 55.027 203.237 55.603C203.453 56.179 203.669 56.767 203.885 57.367C204.101 57.943 204.293 58.495 204.461 59.023C204.629 59.551 204.725 59.995 204.749 60.355C204.797 60.835 204.821 61.291 204.821 61.723C204.821 62.131 204.737 62.551 204.569 62.983C204.425 63.391 204.173 63.823 203.813 64.279C203.477 64.735 203.009 65.239 202.409 65.791C201.737 66.415 201.029 66.943 200.285 67.375C199.541 67.807 198.773 68.023 197.981 68.023C197.261 68.023 196.901 67.675 196.901 66.979C196.901 66.499 197.117 65.911 197.549 65.215C198.005 64.519 198.545 63.847 199.169 63.199C199.793 62.551 200.429 61.999 201.077 61.543C201.749 61.087 202.301 60.859 202.733 60.859C202.853 60.859 202.961 60.907 203.057 61.003C203.177 61.075 203.237 61.147 203.237 61.219C203.237 61.267 203.201 61.303 203.129 61.327C203.057 61.327 202.985 61.327 202.913 61.327C202.625 61.327 202.217 61.519 201.689 61.903C201.185 62.263 200.681 62.695 200.177 63.199C199.673 63.703 199.241 64.231 198.881 64.783C198.521 65.335 198.341 65.791 198.341 66.151C198.341 66.679 198.605 66.943 199.133 66.943C199.709 66.943 200.285 66.739 200.861 66.331C201.461 65.923 202.001 65.467 202.481 64.963C202.961 64.435 203.357 63.943 203.669 63.487C203.981 63.007 204.137 62.707 204.137 62.587ZM214.496 65.107C214.496 65.203 214.46 65.275 214.388 65.323C213.404 65.731 212.444 66.091 211.508 66.403C210.716 66.667 209.888 66.919 209.024 67.159C208.184 67.399 207.476 67.519 206.9 67.519C206.42 67.519 206.024 67.411 205.712 67.195C205.424 66.955 205.28 66.655 205.28 66.295C205.28 65.959 205.388 65.647 205.604 65.359C205.82 65.071 206.048 64.819 206.288 64.603C206.552 64.387 206.78 64.207 206.972 64.063C207.188 63.919 207.296 63.835 207.296 63.811C207.296 63.763 207.2 63.727 207.008 63.703C206.84 63.679 206.54 63.631 206.108 63.559C205.844 63.511 205.664 63.439 205.568 63.343C205.496 63.223 205.46 63.103 205.46 62.983C205.46 62.815 205.508 62.671 205.604 62.551C205.724 62.407 205.808 62.311 205.856 62.263C206.336 61.951 206.9 61.639 207.548 61.327C208.196 61.015 208.832 60.739 209.456 60.499C210.104 60.259 210.692 60.067 211.22 59.923C211.748 59.779 212.12 59.707 212.336 59.707C212.576 59.707 212.792 59.767 212.984 59.887C213.2 59.983 213.308 60.163 213.308 60.427C213.308 60.547 213.248 60.679 213.128 60.823C213.008 60.943 212.864 61.063 212.696 61.183C212.528 61.279 212.348 61.363 212.156 61.435C211.964 61.507 211.796 61.543 211.652 61.543C211.532 61.543 211.412 61.519 211.292 61.471C211.196 61.423 211.148 61.339 211.148 61.219C211.148 61.075 211.208 60.919 211.328 60.751C211.376 60.703 211.4 60.655 211.4 60.607C211.4 60.559 211.34 60.535 211.22 60.535C211.172 60.535 211.1 60.547 211.004 60.571C210.908 60.571 210.8 60.583 210.68 60.607C210.488 60.655 210.212 60.751 209.852 60.895C209.492 61.015 209.132 61.159 208.772 61.327C208.412 61.495 208.088 61.651 207.8 61.795C207.512 61.939 207.332 62.035 207.26 62.083C207.164 62.155 207.116 62.227 207.116 62.299C207.116 62.419 207.188 62.503 207.332 62.551C207.356 62.551 207.44 62.563 207.584 62.587C207.728 62.587 207.884 62.599 208.052 62.623C208.22 62.623 208.376 62.623 208.52 62.623C208.688 62.623 208.808 62.623 208.88 62.623C209.144 62.647 209.3 62.695 209.348 62.767C209.396 62.839 209.42 62.959 209.42 63.127C209.42 63.247 209.396 63.367 209.348 63.487C209.3 63.607 209.144 63.691 208.88 63.739C208.376 63.859 207.884 64.063 207.404 64.351C206.948 64.639 206.72 65.023 206.72 65.503C206.72 65.839 206.9 66.091 207.26 66.259C207.644 66.403 208.004 66.475 208.34 66.475C208.964 66.475 209.624 66.391 210.32 66.223C211.016 66.031 211.664 65.839 212.264 65.647C212.96 65.407 213.644 65.143 214.316 64.855C214.364 64.855 214.4 64.891 214.424 64.963C214.472 65.011 214.496 65.059 214.496 65.107ZM233.988 46.099C233.988 46.267 233.892 46.459 233.7 46.675C232.116 48.379 230.508 50.155 228.876 52.003C228.18 52.795 227.448 53.647 226.68 54.559C225.912 55.471 225.132 56.419 224.34 57.403C223.572 58.363 222.792 59.359 222 60.391C221.232 61.423 220.5 62.443 219.804 63.451C219.732 63.571 219.648 63.679 219.552 63.775C219.456 63.871 219.348 63.919 219.228 63.919C219.06 63.919 218.952 63.859 218.904 63.739C218.88 63.619 218.868 63.463 218.868 63.271C219.78 61.951 220.596 60.775 221.316 59.743C222.06 58.711 222.756 57.763 223.404 56.899C224.076 56.035 224.712 55.219 225.312 54.451C225.936 53.659 226.596 52.843 227.292 52.003C228.012 51.163 228.792 50.263 229.632 49.303C230.496 48.343 231.468 47.263 232.548 46.063C232.74 45.895 232.884 45.787 232.98 45.739C233.1 45.691 233.208 45.667 233.304 45.667C233.424 45.667 233.568 45.703 233.736 45.775C233.904 45.823 233.988 45.931 233.988 46.099ZM218.544 66.835C218.52 67.291 218.328 67.675 217.968 67.987C217.608 68.299 217.272 68.455 216.96 68.455C216.672 68.455 216.444 68.371 216.276 68.203C216.132 68.035 216.06 67.867 216.06 67.699C216.06 67.291 216.216 66.919 216.528 66.583C216.864 66.247 217.236 66.079 217.644 66.079C217.86 66.055 218.028 66.091 218.148 66.187C218.292 66.259 218.388 66.343 218.436 66.439C218.508 66.535 218.544 66.667 218.544 66.835Z" fill="#565452"></path> </svg> 